<svg xmlns="http://www.w3.org/2000/svg" xml:space="preserve" id="Layer_4_1_" width="512" height="512" x="0" y="0" version="1.1"><style id="style2" type="text/css">.st0{fill:#241c1c}</style><g id="g12" style="fill:#000"><g id="g848" style="fill:#000" transform="matrix(13.18915 0 0 13.18915 12 13.32)"><path id="path4" d="M2.7 14.7v3.9h15.5c1 0 1.7.8 1.7 1.7v2.8h12.4c.5 0 .9-.4.9-.9v-7.6c0-.5-.4-.9-.9-.9H3.6c-.5.1-.9.5-.9 1z" class="st0" style="fill:#000;fill-opacity:1"/><path id="path6" d="M18.2 19.3H2.7v2.6c0 .6.8 1.203 1.3 1.2h15.2v-2.7c.1-.6-.4-1.1-1-1.1zM6.4 21.9c-.4 0-.8-.3-.8-.8 0-.4.3-.8.8-.8.4 0 .8.3.8.8 0 .4-.4.8-.8.8zm2.5 0c-.4 0-.8-.3-.8-.8 0-.4.3-.8.8-.8.4 0 .8.3.8.8-.1.4-.4.8-.8.8zm2.5 0c-.4 0-.8-.3-.8-.8 0-.4.3-.8.8-.8.4 0 .8.3.8.8-.1.4-.4.8-.8.8zm2.4 0c-.4 0-.8-.3-.8-.8 0-.4.3-.8.8-.8.4 0 .8.3.8.8 0 .4-.4.8-.8.8zm2.5 0c-.4 0-.8-.3-.8-.8 0-.4.3-.8.8-.8.4 0 .8.3.8.8 0 .4-.4.8-.8.8z" class="st0" style="fill:#000;fill-opacity:1"/><path id="path8" d="m36.2 19.4-2.2.5v-5.1l2.3.7c.4.1.7.5.7 1v1.9c0 .5-.3.9-.8 1z" class="st0" style="fill:#000;fill-opacity:1"/><path id="path10" d="M0 18.3c0 .5.3.9.7 1.1l1.3.5v-5.1l-1.4.7c-.4.2-.6.6-.6 1Z" class="st0" style="fill:#000;fill-opacity:1"/></g></g></svg>