<svg xmlns="http://www.w3.org/2000/svg" width="512" height="512" viewBox="0 0 135.467 135.467"><rect width="124.383" height="124.383" x="5.542" y="5.542" ry="9.908" style="fill:#000;fill-opacity:.25098041;stroke:#000;stroke-width:4.73369;stroke-linejoin:round;stroke-opacity:1"/><g style="fill:#000"><path d="M2.7 14.7v3.9h15.5c1 0 1.7.8 1.7 1.7v2.8h12.4c.5 0 .9-.4.9-.9v-7.6c0-.5-.4-.9-.9-.9H3.6c-.5.1-.9.5-.9 1z" class="st0" style="fill:#000;fill-opacity:1" transform="matrix(2.61723 0 0 2.61723 19.315 19.576)"/><path d="M18.2 19.3H2.7v2.6c0 .6.8 1.203 1.3 1.2h15.2v-2.7c.1-.6-.4-1.1-1-1.1zM6.4 21.9c-.4 0-.8-.3-.8-.8 0-.4.3-.8.8-.8.4 0 .8.3.8.8 0 .4-.4.8-.8.8zm2.5 0c-.4 0-.8-.3-.8-.8 0-.4.3-.8.8-.8.4 0 .8.3.8.8-.1.4-.4.8-.8.8zm2.5 0c-.4 0-.8-.3-.8-.8 0-.4.3-.8.8-.8.4 0 .8.3.8.8-.1.4-.4.8-.8.8zm2.4 0c-.4 0-.8-.3-.8-.8 0-.4.3-.8.8-.8.4 0 .8.3.8.8 0 .4-.4.8-.8.8zm2.5 0c-.4 0-.8-.3-.8-.8 0-.4.3-.8.8-.8.4 0 .8.3.8.8 0 .4-.4.8-.8.8zM36.2 19.4l-2.2.5v-5.1l2.3.7c.4.1.7.5.7 1v1.9c0 .5-.3.9-.8 1zM0 18.3c0 .5.3.9.7 1.1l1.3.5v-5.1l-1.4.7c-.4.2-.6.6-.6 1Z" class="st0" style="fill:#000;fill-opacity:1" transform="matrix(2.61723 0 0 2.61723 19.315 19.576)"/></g></svg>