<svg xmlns="http://www.w3.org/2000/svg" id="svg5" width="512" height="512" version="1.1" viewBox="0 0 135.467 135.467"><defs id="defs2"><style id="style2-99">.cls-1{fill:#241c1c}</style></defs><g id="layer1"><rect id="rect846" width="124.383" height="124.383" x="5.542" y="5.542" ry="9.908" style="fill:#000;fill-opacity:.25098;stroke:#000;stroke-width:4.73369;stroke-linejoin:round;stroke-opacity:1"/><g id="g9399" transform="matrix(4.72154 0 0 4.72154 -240.381 -212.354)"><g id="g8094" style="fill:#000" transform="translate(-66.461 -116.525) scale(1.41857)"><g id="g1029" style="fill:#000;fill-opacity:1" transform="matrix(.3972 0 0 .3972 85.624 116.731)"><path id="path8" d="M30.8 2.3H6.2L2.3 6.2v24.6l3.9 3.9h24.6l3.9-3.9V6.2ZM32.2 30l-2.1 2.1H6.9L4.8 30V7.2c.8-.9 1.3-1.3 2.1-2.2h18.3l7 7z" class="cls-1" style="fill:#000;fill-opacity:1" transform="translate(-.3 -.3)"/><path id="path10" d="M7.2 2v-.9A.86.86 0 0 1 8 .3h2.4a.86.86 0 0 1 .8.8V2Z" class="cls-1" style="fill:#000;fill-opacity:1" transform="translate(-.3 -.3)"/><path id="path12" d="M11.8 2v-.9a.86.86 0 0 1 .8-.8H15a.86.86 0 0 1 .8.8V2Z" class="cls-1" style="fill:#000;fill-opacity:1" transform="translate(-.3 -.3)"/><path id="path14" d="M16.5 2v-.9a.86.86 0 0 1 .8-.8h2.4a.86.86 0 0 1 .8.8V2Z" class="cls-1" style="fill:#000;fill-opacity:1" transform="translate(-.3 -.3)"/><path id="path16" d="M25.7 2v-.9a.86.86 0 0 1 .8-.8h2.4a.86.86 0 0 1 .8.8V2Z" class="cls-1" style="fill:#000;fill-opacity:1" transform="translate(-.3 -.3)"/><path id="path18" d="M21.1 2v-.9a.86.86 0 0 1 .8-.8h2.4a.86.86 0 0 1 .8.8V2Z" class="cls-1" style="fill:#000;fill-opacity:1" transform="translate(-.3 -.3)"/><path id="path20" d="M7.1 35v.9a.86.86 0 0 0 .8.8h2.4a.86.86 0 0 0 .8-.8V35Z" class="cls-1" style="fill:#000;fill-opacity:1" transform="translate(-.3 -.3)"/><path id="path22" d="M11.8 35v.9a.86.86 0 0 0 .8.8H15a.86.86 0 0 0 .8-.8V35Z" class="cls-1" style="fill:#000;fill-opacity:1" transform="translate(-.3 -.3)"/><path id="path24" d="M16.4 35v.9a.86.86 0 0 0 .8.8h2.4a.86.86 0 0 0 .8-.8V35Z" class="cls-1" style="fill:#000;fill-opacity:1" transform="translate(-.3 -.3)"/><path id="path26" d="M25.7 35v.9a.86.86 0 0 0 .8.8h2.4a.86.86 0 0 0 .8-.8V35Z" class="cls-1" style="fill:#000;fill-opacity:1" transform="translate(-.3 -.3)"/><path id="path28" d="M21 35v.9a.86.86 0 0 0 .8.8h2.4a.86.86 0 0 0 .8-.8V35Z" class="cls-1" style="fill:#000;fill-opacity:1" transform="translate(-.3 -.3)"/><path id="path30" d="M2 29.7h-.9a.86.86 0 0 1-.8-.8v-2.4a.86.86 0 0 1 .8-.8H2Z" class="cls-1" style="fill:#000;fill-opacity:1" transform="translate(-.3 -.3)"/><path id="path32" d="M2 25.1h-.9a.86.86 0 0 1-.8-.8v-2.4a.86.86 0 0 1 .8-.8H2Z" class="cls-1" style="fill:#000;fill-opacity:1" transform="translate(-.3 -.3)"/><path id="path34" d="M2 20.5h-.9a.86.86 0 0 1-.8-.8v-2.4a.86.86 0 0 1 .8-.8H2Z" class="cls-1" style="fill:#000;fill-opacity:1" transform="translate(-.3 -.3)"/><path id="path36" d="M2 11.2h-.9a.86.86 0 0 1-.8-.8V8a.86.86 0 0 1 .8-.8H2Z" class="cls-1" style="fill:#000;fill-opacity:1" transform="translate(-.3 -.3)"/><path id="path38" d="M2 15.9h-.9a.86.86 0 0 1-.8-.8v-2.4a.86.86 0 0 1 .8-.8H2Z" class="cls-1" style="fill:#000;fill-opacity:1" transform="translate(-.3 -.3)"/><path id="path40" d="M35 29.8h.9a.86.86 0 0 0 .8-.8v-2.4a.86.86 0 0 0-.8-.8H35Z" class="cls-1" style="fill:#000;fill-opacity:1" transform="translate(-.3 -.3)"/><path id="path42" d="M35 25.2h.9a.86.86 0 0 0 .8-.8V22a.86.86 0 0 0-.8-.8H35Z" class="cls-1" style="fill:#000;fill-opacity:1" transform="translate(-.3 -.3)"/><path id="path44" d="M35 20.6h.9a.86.86 0 0 0 .8-.8v-2.4a.86.86 0 0 0-.8-.8H35Z" class="cls-1" style="fill:#000;fill-opacity:1" transform="translate(-.3 -.3)"/><path id="path46" d="M35 11.3h.9a.86.86 0 0 0 .8-.8V8.1a.86.86 0 0 0-.8-.8H35Z" class="cls-1" style="fill:#000;fill-opacity:1" transform="translate(-.3 -.3)"/><path id="path48" d="M35 15.9h.9a.86.86 0 0 0 .8-.8v-2.4a.86.86 0 0 0-.8-.8H35Z" class="cls-1" style="fill:#000;fill-opacity:1" transform="translate(-.3 -.3)"/></g><g id="g7803" style="fill:#000" transform="translate(-.131 -.4)"><path id="path995" d="M90.466 125.724v1.088c-.62.01-1.021-.042-1.535-.544.485-.51.957-.547 1.535-.544z" style="fill:#000;fill-opacity:1;stroke:#000;stroke-width:.264583px;stroke-linecap:butt;stroke-linejoin:miter;stroke-opacity:1"/><path id="path995-8" d="M90.384 123.46v.951c-.624.002-1.014-.045-1.453-.408.48-.495.845-.551 1.453-.544z" style="fill:#000;stroke:#000;stroke-width:.264583px;stroke-linecap:butt;stroke-linejoin:miter;stroke-opacity:1;fill-opacity:0"/><path id="path995-6" d="M90.36 121.214v1.012c-.571.003-.92.009-1.43-.468.458-.48.857-.553 1.43-.544z" style="fill:#000;stroke:#000;stroke-width:.264583px;stroke-linecap:butt;stroke-linejoin:miter;stroke-opacity:1;fill-opacity:0"/><path id="path1018" d="M90.955 125.724v1.088l.704.191h3.005v-1.47h-3.005z" style="fill:#000;fill-opacity:1;stroke:#000;stroke-width:.264583px;stroke-linecap:butt;stroke-linejoin:miter;stroke-opacity:1"/><path id="path1020" d="M90.955 123.46v.951l.704.191h3.005l1.307-1.334h-4.312z" style="fill:#000;stroke:#000;stroke-width:.264583px;stroke-linecap:butt;stroke-linejoin:miter;stroke-opacity:1;fill-opacity:0"/><path id="path1022" d="M90.955 121.214v1.012l.704.191h4.312v-1.394h-4.312z" style="fill:#000;stroke:#000;stroke-width:.264583px;stroke-linecap:butt;stroke-linejoin:miter;stroke-opacity:1;fill-opacity:0"/><path id="path1024" d="m96.188 126.794-1.052 1.036v-1.036l1.052-1.06 1.044 1.01v1.086z" style="fill:#000;fill-opacity:1;stroke:none;stroke-width:.264583px;stroke-linecap:butt;stroke-linejoin:miter;stroke-opacity:1"/><path id="path1024-0" d="m96.188 125.212-1.052 1.036v-1.035l1.052-1.061 1.044 1.01v1.086z" style="fill:#000;fill-opacity:1;stroke:none;stroke-width:.264583px;stroke-linecap:butt;stroke-linejoin:miter;stroke-opacity:1"/></g></g></g></g></svg>