<svg xmlns="http://www.w3.org/2000/svg" width="512" height="512" viewBox="0 0 135.467 135.467"><g style="fill:#000"><g style="fill:#000;fill-opacity:1"><path d="M30.8 2.3H6.2L2.3 6.2v24.6l3.9 3.9h24.6l3.9-3.9V6.2ZM32.2 30l-2.1 2.1H6.9L4.8 30V7.2c.8-.9 1.3-1.3 2.1-2.2h18.3l7 7zM7.2 2v-.9A.86.86 0 0 1 8 .3h2.4a.86.86 0 0 1 .8.8V2ZM11.8 2v-.9a.86.86 0 0 1 .8-.8H15a.86.86 0 0 1 .8.8V2ZM16.5 2v-.9a.86.86 0 0 1 .8-.8h2.4a.86.86 0 0 1 .8.8V2ZM25.7 2v-.9a.86.86 0 0 1 .8-.8h2.4a.86.86 0 0 1 .8.8V2ZM21.1 2v-.9a.86.86 0 0 1 .8-.8h2.4a.86.86 0 0 1 .8.8V2ZM7.1 35v.9a.86.86 0 0 0 .8.8h2.4a.86.86 0 0 0 .8-.8V35ZM11.8 35v.9a.86.86 0 0 0 .8.8H15a.86.86 0 0 0 .8-.8V35ZM16.4 35v.9a.86.86 0 0 0 .8.8h2.4a.86.86 0 0 0 .8-.8V35ZM25.7 35v.9a.86.86 0 0 0 .8.8h2.4a.86.86 0 0 0 .8-.8V35ZM21 35v.9a.86.86 0 0 0 .8.8h2.4a.86.86 0 0 0 .8-.8V35ZM2 29.7h-.9a.86.86 0 0 1-.8-.8v-2.4a.86.86 0 0 1 .8-.8H2ZM2 25.1h-.9a.86.86 0 0 1-.8-.8v-2.4a.86.86 0 0 1 .8-.8H2ZM2 20.5h-.9a.86.86 0 0 1-.8-.8v-2.4a.86.86 0 0 1 .8-.8H2ZM2 11.2h-.9a.86.86 0 0 1-.8-.8V8a.86.86 0 0 1 .8-.8H2ZM2 15.9h-.9a.86.86 0 0 1-.8-.8v-2.4a.86.86 0 0 1 .8-.8H2ZM35 29.8h.9a.86.86 0 0 0 .8-.8v-2.4a.86.86 0 0 0-.8-.8H35ZM35 25.2h.9a.86.86 0 0 0 .8-.8V22a.86.86 0 0 0-.8-.8H35ZM35 20.6h.9a.86.86 0 0 0 .8-.8v-2.4a.86.86 0 0 0-.8-.8H35ZM35 11.3h.9a.86.86 0 0 0 .8-.8V8.1a.86.86 0 0 0-.8-.8H35ZM35 15.9h.9a.86.86 0 0 0 .8-.8v-2.4a.86.86 0 0 0-.8-.8H35Z" class="cls-1" style="fill:#000;fill-opacity:1" transform="translate(2.11 2.11) scale(3.54716)"/></g><g style="fill:#000"><path d="M90.466 125.724v1.088c-.62.01-1.021-.042-1.535-.544.485-.51.957-.547 1.535-.544z" style="fill:#000;fill-opacity:1;stroke:#000;stroke-width:.264583px;stroke-linecap:butt;stroke-linejoin:miter;stroke-opacity:1" transform="matrix(8.93044 0 0 8.93044 -762.653 -1042.86)"/><path d="M90.384 123.46v.951c-.624.002-1.014-.045-1.453-.408.48-.495.845-.551 1.453-.544zM90.36 121.214v1.012c-.571.003-.92.009-1.43-.468.458-.48.857-.553 1.43-.544z" style="fill:none;stroke:#000;stroke-width:.264583px;stroke-linecap:butt;stroke-linejoin:miter;stroke-opacity:1" transform="matrix(8.93044 0 0 8.93044 -762.653 -1042.86)"/><path d="M90.955 125.724v1.088l.704.191h3.005v-1.47h-3.005z" style="fill:#000;fill-opacity:1;stroke:#000;stroke-width:.264583px;stroke-linecap:butt;stroke-linejoin:miter;stroke-opacity:1" transform="matrix(8.93044 0 0 8.93044 -762.653 -1042.86)"/><path d="M90.955 123.46v.951l.704.191h3.005l1.307-1.334h-4.312zM90.955 121.214v1.012l.704.191h4.312v-1.394h-4.312z" style="fill:none;stroke:#000;stroke-width:.264583px;stroke-linecap:butt;stroke-linejoin:miter;stroke-opacity:1" transform="matrix(8.93044 0 0 8.93044 -762.653 -1042.86)"/><path d="m96.188 126.794-1.052 1.036v-1.036l1.052-1.06 1.044 1.01v1.086z" style="fill:#000;fill-opacity:1;stroke:none;stroke-width:.264583px;stroke-linecap:butt;stroke-linejoin:miter;stroke-opacity:1" transform="matrix(8.93047 0 0 8.93047 -762.655 -1042.862)"/><path d="m96.188 125.212-1.052 1.036v-1.035l1.052-1.061 1.044 1.01v1.086z" style="fill:#000;fill-opacity:1;stroke:none;stroke-width:.264583px;stroke-linecap:butt;stroke-linejoin:miter;stroke-opacity:1" transform="matrix(8.93047 0 0 8.93047 -762.655 -1042.862)"/></g></g></svg>