<svg xmlns="http://www.w3.org/2000/svg" id="svg5" width="512" height="512" version="1.1" viewBox="0 0 135.467 135.467"><defs id="defs2"><style id="style2-99">.st0{fill:#483737}</style></defs><g id="layer1"><rect id="rect846" width="124.383" height="124.383" x="5.542" y="5.542" ry="9.908" style="fill:#000;fill-opacity:.25098;stroke:#000;stroke-width:4.73369;stroke-linejoin:round;stroke-opacity:1"/><g id="g9399" transform="matrix(4.72154 0 0 4.72154 -240.381 -212.354)"><g id="g2222" style="display:inline;fill:#000" transform="matrix(.12353 0 0 .12353 58.3 54.466)"><g id="g1964" style="display:inline;fill:#000;fill-opacity:1" transform="matrix(2.92922 0 0 2.98174 -96.255 -112.817)"><path id="path819" d="M30.8 2.3H6.2L2.3 6.2v24.6l3.9 3.9h24.6l3.9-3.9V6.2l-3.9-3.9ZM32.2 30l-2.1 2.1H6.9L4.8 30V7.2c.8-.9 1.3-1.3 2.1-2.2h18.3l7 7z" class="st0" style="display:inline;fill:#000;fill-opacity:1" transform="matrix(1.54599 0 0 1.52969 23.486 22.717)"/><path id="path821" d="M7.2 2v-.9c0-.4.4-.8.8-.8h2.4c.4 0 .8.4.8.8V2Z" class="st0" style="display:inline;fill:#000;fill-opacity:1" transform="matrix(1.54599 0 0 1.52969 23.486 22.717)"/><path id="path823" d="M11.8 2v-.9c0-.4.4-.8.8-.8H15c.4 0 .8.4.8.8V2Z" class="st0" style="display:inline;fill:#000;fill-opacity:1" transform="matrix(1.54599 0 0 1.52969 23.486 22.717)"/><path id="path825" d="M16.5 2v-.9c0-.4.4-.8.8-.8h2.4c.4 0 .8.4.8.8V2Z" class="st0" style="display:inline;fill:#000;fill-opacity:1" transform="matrix(1.54599 0 0 1.52969 23.486 22.717)"/><path id="path827" d="M25.7 2v-.9c0-.4.4-.8.8-.8h2.4c.4 0 .8.4.8.8V2Z" class="st0" style="display:inline;fill:#000;fill-opacity:1" transform="matrix(1.54599 0 0 1.52969 23.486 22.717)"/><path id="path829" d="M21.1 2v-.9c0-.4.4-.8.8-.8h2.4c.4 0 .8.4.8.8V2Z" class="st0" style="display:inline;fill:#000;fill-opacity:1" transform="matrix(1.54599 0 0 1.52969 23.486 22.717)"/><path id="path833" d="M7.1 35v.9c0 .4.4.8.8.8h2.4c.4 0 .8-.4.8-.8V35Z" class="st0" style="display:inline;fill:#000;fill-opacity:1" transform="matrix(1.54599 0 0 1.52969 23.486 22.717)"/><path id="path835" d="M11.8 35v.9c0 .4.4.8.8.8H15c.4 0 .8-.4.8-.8V35Z" class="st0" style="display:inline;fill:#000;fill-opacity:1" transform="matrix(1.54599 0 0 1.52969 23.486 22.717)"/><path id="path837" d="M16.4 35v.9c0 .4.4.8.8.8h2.4c.4 0 .8-.4.8-.8V35Z" class="st0" style="display:inline;fill:#000;fill-opacity:1" transform="matrix(1.54599 0 0 1.52969 23.486 22.717)"/><path id="path839" d="M25.7 35v.9c0 .4.4.8.8.8h2.4c.4 0 .8-.4.8-.8V35Z" class="st0" style="display:inline;fill:#000;fill-opacity:1" transform="matrix(1.54599 0 0 1.52969 23.486 22.717)"/><path id="path841" d="M21 35v.9c0 .4.4.8.8.8h2.4c.4 0 .8-.4.8-.8V35Z" class="st0" style="display:inline;fill:#000;fill-opacity:1" transform="matrix(1.54599 0 0 1.52969 23.486 22.717)"/><path id="path845" d="M2 29.8h-.9c-.4 0-.8-.4-.8-.8v-2.4c0-.4.4-.8.8-.8H2Z" class="st0" style="display:inline;fill:#000;fill-opacity:1" transform="matrix(1.54599 0 0 1.52969 23.486 22.717)"/><path id="path847" d="M2 25.1h-.9c-.4 0-.8-.4-.8-.8v-2.4c0-.4.4-.8.8-.8H2Z" class="st0" style="display:inline;fill:#000;fill-opacity:1" transform="matrix(1.54599 0 0 1.52969 23.486 22.717)"/><path id="path849" d="M2 20.5h-.9c-.4 0-.8-.4-.8-.8v-2.4c0-.4.4-.8.8-.8H2Z" class="st0" style="display:inline;fill:#000;fill-opacity:1" transform="matrix(1.54599 0 0 1.52969 23.486 22.717)"/><path id="path851" d="M2 11.2h-.9c-.4 0-.8-.4-.8-.8V8c0-.4.4-.8.8-.8H2Z" class="st0" style="display:inline;fill:#000;fill-opacity:1" transform="matrix(1.54599 0 0 1.52969 23.486 22.717)"/><path id="path853" d="M2 15.9h-.9c-.4 0-.8-.4-.8-.8v-2.4c0-.4.4-.8.8-.8H2Z" class="st0" style="display:inline;fill:#000;fill-opacity:1" transform="matrix(1.54599 0 0 1.52969 23.486 22.717)"/><path id="path857" d="M35 29.8h.9c.4 0 .8-.4.8-.8v-2.4c0-.4-.4-.8-.8-.8H35Z" class="st0" style="display:inline;fill:#000;fill-opacity:1" transform="matrix(1.54599 0 0 1.52969 23.486 22.717)"/><path id="path859" d="M35 25.2h.9c.4 0 .8-.4.8-.8V22c0-.4-.4-.8-.8-.8H35Z" class="st0" style="display:inline;fill:#000;fill-opacity:1" transform="matrix(1.54599 0 0 1.52969 23.486 22.717)"/><path id="path861" d="M35 20.6h.9c.4 0 .8-.4.8-.8v-2.4c0-.4-.4-.8-.8-.8H35Z" class="st0" style="display:inline;fill:#000;fill-opacity:1" transform="matrix(1.54599 0 0 1.52969 23.486 22.717)"/><path id="path863" d="M35 11.3h.9c.4 0 .8-.4.8-.8V8.1c0-.4-.4-.8-.8-.8H35Z" class="st0" style="display:inline;fill:#000;fill-opacity:1" transform="matrix(1.54599 0 0 1.52969 23.486 22.717)"/><path id="path865" d="M35 15.9h.9c.4 0 .8-.4.8-.8v-2.4c0-.4-.4-.8-.8-.8H35Z" class="st0" style="display:inline;fill:#000;fill-opacity:1" transform="matrix(1.54599 0 0 1.52969 23.486 22.717)"/></g><g id="g1116" style="display:inline;fill:#000;fill-opacity:1"><path id="path1066" d="M64.64 37.431 42.828 38.48v18.038l11.431-6.082-3.041 29.993 30.518-47.507-18.353 9.858Z" style="fill:#000;fill-opacity:1;stroke:none;stroke-width:1px;stroke-linecap:butt;stroke-linejoin:miter;stroke-opacity:1"/><g id="g1101" style="fill:#000;fill-opacity:1;stroke:none"><path id="path1068" d="m48.49 2.299-8.914 28.735c5.548-.423 10.896-.59 13.424 2.832 2.7-1.21 5.322-3.263 8.285-1.573L76.91 6.389Z" style="fill:#000;fill-opacity:1;stroke:none;stroke-width:1px;stroke-linecap:butt;stroke-linejoin:miter;stroke-opacity:1"/><path id="path1070" d="M95.054 30.195 98.2 65.223l-35.867 32.3-28.525-17.408c-3.8-2.61-3.87-1.275 6.083-4.615l20.764 13.843L90.02 61.867l-2.098-31.043c-.71-4.293 3.739-1.763 7.132-.629z" style="fill:#000;fill-opacity:1;stroke:none;stroke-width:1px;stroke-linecap:butt;stroke-linejoin:miter;stroke-opacity:1"/><path id="path1072" d="M40.71 34.807c-2.428-1.515-6.208-.34-4.153 2.373 1.972 2.605 5.962-1.69 4.152-2.373z" style="fill:#000;fill-opacity:1;stroke:none;stroke-width:1px;stroke-linecap:butt;stroke-linejoin:miter;stroke-opacity:1"/><path id="path1074" d="m19.02 43.094.63 24.121 7.97-1.573c-.457-3.716-.05-8.045-.651-9.97-2.11-6.757.798-13.024-7.948-12.578z" style="fill:#000;fill-opacity:1;stroke:none;stroke-width:1px;stroke-linecap:butt;stroke-linejoin:miter;stroke-opacity:1"/><path id="path1076" d="M31.396 70.361c-1.9-3.064-10.925-1.125-7.866 3.776 3.88 2.205 9.927-.844 7.866-3.776z" style="fill:#000;fill-opacity:1;stroke:none;stroke-width:1px;stroke-linecap:butt;stroke-linejoin:miter;stroke-opacity:1"/><path id="path1078" d="M97.068 24.129c-3.26 3.194-5.936 3.281-8.009.148l4.153-19.726L31.217-6.572 28.251 8.259h-6.526l3.56-20.764L100.183-.49z" style="fill:#000;fill-opacity:1;stroke:none;stroke-width:1px;stroke-linecap:butt;stroke-linejoin:bevel;stroke-opacity:1"/><path id="path1080" d="M17.671 39.1c-1.006.098-1.903-.66-2.015-1.705-.113-1.045.6-1.99 1.603-2.127 1.002-.136 1.924.589 2.073 1.628.03 1.078-.39 1.89-1.66 2.204z" style="opacity:1;stroke-width:.25;stroke-linecap:round;stroke-linejoin:bevel;paint-order:markers stroke fill;fill:#000"/><path id="path1082" d="M16.238 29.468c-7.207-2.283-12.42-2.353-9.047 7.119 7.692 2.853 7.783-2.788 9.047-7.119z" style="fill:#000;fill-opacity:1;stroke:none;stroke-width:1px;stroke-linecap:butt;stroke-linejoin:miter;stroke-opacity:1"/><path id="path1084" d="M30.476 32.286c-2.601 4.328-5.365 6.772-8.75 2.076-1.395-4.242 3.559-3.257 8.75-2.076z" style="fill:#000;fill-opacity:1;stroke:none;stroke-width:1px;stroke-linecap:butt;stroke-linejoin:miter;stroke-opacity:1"/><path id="path1086" d="M12.989 47.384c-1.781.235-3.432-.917-3.689-2.576-.257-1.66.976-3.2 2.757-3.443 1.78-.243 3.435.903 3.7 2.56.427 2.174-.818 3.083-2.768 3.459z" style="opacity:1;stroke-width:.25;stroke-linecap:round;stroke-linejoin:bevel;paint-order:markers stroke fill;fill:#000"/><path id="path1088" d="M27.658 10.929c-2.061.139-4.537-.16-5.326.238-.923.465.008 2.528-.162 6.584-.767 1.42-8.287 7.26 1.483 1.78 5.382-1.808 4.113-5.703 4.005-8.602z" style="fill:#000;fill-opacity:1;stroke:none;stroke-width:1px;stroke-linecap:butt;stroke-linejoin:miter;stroke-opacity:1"/></g></g></g></g></g></svg>