<svg xmlns="http://www.w3.org/2000/svg" id="svg5" width="512" height="512" version="1.1" viewBox="0 0 135.467 135.467"><defs id="defs2"><style id="style2-99">.st0{fill:#483737}</style></defs><g id="layer1"><rect id="rect846" width="124.383" height="124.383" x="5.542" y="5.542" ry="9.908" style="fill:#000;fill-opacity:.25098;stroke:#000;stroke-width:4.73369;stroke-linejoin:round;stroke-opacity:1"/><g id="g9399" transform="matrix(4.72154 0 0 4.72154 -240.381 -212.354)"><g id="g1519" style="fill:#000" transform="matrix(.25962 0 0 .25962 55.002 49.066)"><g id="g909" style="fill:#000;fill-opacity:1" transform="matrix(.47926 0 0 .47583 -.124 .012)"><g id="layer1-0" style="display:inline;fill:#000;fill-opacity:1" transform="translate(26.36 43.69)"><g id="g1064" style="display:inline;fill:#000;fill-opacity:1" transform="matrix(2.92922 0 0 2.98174 -96.255 -112.817)"><path id="path819" d="M30.8 2.3H6.2L2.3 6.2v24.6l3.9 3.9h24.6l3.9-3.9V6.2l-3.9-3.9ZM32.2 30l-2.1 2.1H6.9L4.8 30V7.2c.8-.9 1.3-1.3 2.1-2.2h18.3l7 7z" class="st0" style="display:inline;fill:#000;fill-opacity:1" transform="matrix(1.54599 0 0 1.52969 23.486 22.717)"/><path id="path821" d="M7.2 2v-.9c0-.4.4-.8.8-.8h2.4c.4 0 .8.4.8.8V2Z" class="st0" style="display:inline;fill:#000;fill-opacity:1" transform="matrix(1.54599 0 0 1.52969 23.486 22.717)"/><path id="path823" d="M11.8 2v-.9c0-.4.4-.8.8-.8H15c.4 0 .8.4.8.8V2Z" class="st0" style="display:inline;fill:#000;fill-opacity:1" transform="matrix(1.54599 0 0 1.52969 23.486 22.717)"/><path id="path825" d="M16.5 2v-.9c0-.4.4-.8.8-.8h2.4c.4 0 .8.4.8.8V2Z" class="st0" style="display:inline;fill:#000;fill-opacity:1" transform="matrix(1.54599 0 0 1.52969 23.486 22.717)"/><path id="path827" d="M25.7 2v-.9c0-.4.4-.8.8-.8h2.4c.4 0 .8.4.8.8V2Z" class="st0" style="display:inline;fill:#000;fill-opacity:1" transform="matrix(1.54599 0 0 1.52969 23.486 22.717)"/><path id="path829" d="M21.1 2v-.9c0-.4.4-.8.8-.8h2.4c.4 0 .8.4.8.8V2Z" class="st0" style="display:inline;fill:#000;fill-opacity:1" transform="matrix(1.54599 0 0 1.52969 23.486 22.717)"/><path id="path833" d="M7.1 35v.9c0 .4.4.8.8.8h2.4c.4 0 .8-.4.8-.8V35Z" class="st0" style="display:inline;fill:#000;fill-opacity:1" transform="matrix(1.54599 0 0 1.52969 23.486 22.717)"/><path id="path835" d="M11.8 35v.9c0 .4.4.8.8.8H15c.4 0 .8-.4.8-.8V35Z" class="st0" style="display:inline;fill:#000;fill-opacity:1" transform="matrix(1.54599 0 0 1.52969 23.486 22.717)"/><path id="path837" d="M16.4 35v.9c0 .4.4.8.8.8h2.4c.4 0 .8-.4.8-.8V35Z" class="st0" style="display:inline;fill:#000;fill-opacity:1" transform="matrix(1.54599 0 0 1.52969 23.486 22.717)"/><path id="path839" d="M25.7 35v.9c0 .4.4.8.8.8h2.4c.4 0 .8-.4.8-.8V35Z" class="st0" style="display:inline;fill:#000;fill-opacity:1" transform="matrix(1.54599 0 0 1.52969 23.486 22.717)"/><path id="path841" d="M21 35v.9c0 .4.4.8.8.8h2.4c.4 0 .8-.4.8-.8V35Z" class="st0" style="display:inline;fill:#000;fill-opacity:1" transform="matrix(1.54599 0 0 1.52969 23.486 22.717)"/><path id="path845" d="M2 29.8h-.9c-.4 0-.8-.4-.8-.8v-2.4c0-.4.4-.8.8-.8H2Z" class="st0" style="display:inline;fill:#000;fill-opacity:1" transform="matrix(1.54599 0 0 1.52969 23.486 22.717)"/><path id="path847" d="M2 25.1h-.9c-.4 0-.8-.4-.8-.8v-2.4c0-.4.4-.8.8-.8H2Z" class="st0" style="display:inline;fill:#000;fill-opacity:1" transform="matrix(1.54599 0 0 1.52969 23.486 22.717)"/><path id="path849" d="M2 20.5h-.9c-.4 0-.8-.4-.8-.8v-2.4c0-.4.4-.8.8-.8H2Z" class="st0" style="display:inline;fill:#000;fill-opacity:1" transform="matrix(1.54599 0 0 1.52969 23.486 22.717)"/><path id="path851" d="M2 11.2h-.9c-.4 0-.8-.4-.8-.8V8c0-.4.4-.8.8-.8H2Z" class="st0" style="display:inline;fill:#000;fill-opacity:1" transform="matrix(1.54599 0 0 1.52969 23.486 22.717)"/><path id="path853" d="M2 15.9h-.9c-.4 0-.8-.4-.8-.8v-2.4c0-.4.4-.8.8-.8H2Z" class="st0" style="display:inline;fill:#000;fill-opacity:1" transform="matrix(1.54599 0 0 1.52969 23.486 22.717)"/><path id="path857" d="M35 29.8h.9c.4 0 .8-.4.8-.8v-2.4c0-.4-.4-.8-.8-.8H35Z" class="st0" style="display:inline;fill:#000;fill-opacity:1" transform="matrix(1.54599 0 0 1.52969 23.486 22.717)"/><path id="path859" d="M35 25.2h.9c.4 0 .8-.4.8-.8V22c0-.4-.4-.8-.8-.8H35Z" class="st0" style="display:inline;fill:#000;fill-opacity:1" transform="matrix(1.54599 0 0 1.52969 23.486 22.717)"/><path id="path861" d="M35 20.6h.9c.4 0 .8-.4.8-.8v-2.4c0-.4-.4-.8-.8-.8H35Z" class="st0" style="display:inline;fill:#000;fill-opacity:1" transform="matrix(1.54599 0 0 1.52969 23.486 22.717)"/><path id="path863" d="M35 11.3h.9c.4 0 .8-.4.8-.8V8.1c0-.4-.4-.8-.8-.8H35Z" class="st0" style="display:inline;fill:#000;fill-opacity:1" transform="matrix(1.54599 0 0 1.52969 23.486 22.717)"/><path id="path865" d="M35 15.9h.9c.4 0 .8-.4.8-.8v-2.4c0-.4-.4-.8-.8-.8H35Z" class="st0" style="display:inline;fill:#000;fill-opacity:1" transform="matrix(1.54599 0 0 1.52969 23.486 22.717)"/></g></g></g><path id="rect4629" d="M21.036 17.73h15v10.141h-15z" style="opacity:1;fill:#000;fill-opacity:1;stroke:none;stroke-width:.248258;stroke-linecap:round;stroke-linejoin:bevel;stroke-miterlimit:4;stroke-dasharray:none;stroke-opacity:1;paint-order:markers stroke fill"/><path id="path4650" d="M21.036 29.73h5c0 4 5 4 5 0h5v29h-15z" style="fill:#000;fill-opacity:1;stroke:none;stroke-width:1px;stroke-linecap:butt;stroke-linejoin:miter;stroke-opacity:1"/><path id="path4652" d="M21.036 60.73v3h15v-3z" style="fill:#000;fill-opacity:1;stroke:none;stroke-width:1px;stroke-linecap:butt;stroke-linejoin:miter;stroke-opacity:1"/><path id="rect4629-1" d="M41.308 17.73h15v10.141h-15z" style="opacity:1;fill:#000;fill-opacity:1;stroke:none;stroke-width:.248258;stroke-linecap:round;stroke-linejoin:bevel;stroke-miterlimit:4;stroke-dasharray:none;stroke-opacity:1;paint-order:markers stroke fill"/><path id="path4650-8" d="M41.308 29.73h5c0 4 5 4 5 0h5v29h-15z" style="fill:#000;fill-opacity:1;stroke:none;stroke-width:1px;stroke-linecap:butt;stroke-linejoin:miter;stroke-opacity:1"/><path id="path4652-9" d="M41.308 60.73v3h15v-3z" style="fill:#000;fill-opacity:1;stroke:none;stroke-width:1px;stroke-linecap:butt;stroke-linejoin:miter;stroke-opacity:1"/></g></g></g></svg>