<svg xmlns="http://www.w3.org/2000/svg" xml:space="preserve" id="Layer_4_1_" width="512" height="512" x="0" y="0" version="1.1"><style id="style2" type="text/css">.st0{fill:#241c1c}.st1{fill:#483737}</style><g id="g1770"><path id="path4" d="M12 376.66v53.626c0 8.044 6.703 16.088 16.088 16.088H438.33L500 392.747v-93.846c0-8.044-6.703-16.088-16.088-16.088H108.527L12 376.66m116.637-38.879c-8.044 0-14.747-6.703-14.747-14.747s6.703-14.747 14.747-14.747 14.748 6.703 14.748 14.747-6.704 14.747-14.748 14.747zm335.165 0c-8.044 0-14.747-6.703-14.747-14.747s6.703-14.747 14.747-14.747 14.747 6.703 14.747 14.747-6.703 14.747-14.747 14.747z" class="st0" style="fill:#000;fill-opacity:1;stroke-width:13.4066"/><path id="path6" d="M28.088 446.374H438.33L500 392.747V376.66H12v53.627c0 9.384 6.703 16.088 16.088 16.088z" class="st1" style="fill:#4b4b4b;fill-opacity:1;stroke-width:13.4066"/><path id="path8" d="M471.846 131.319v-58.99c0-4.021-2.681-6.702-6.703-6.702h-101.89l-32.176 30.835H61.604c-4.022 0-6.703 2.681-6.703 6.703V305.604c0 1.341 1.34 1.341 1.34 1.341l44.243-41.56h5.362V146.066c0-12.066 9.385-21.45 21.45-21.45h12.067c12.066 0 21.45 9.384 21.45 21.45v119.319h32.176V146.066c0-12.066 9.385-21.45 21.45-21.45h12.066c12.066 0 21.451 9.384 21.451 21.45v117.978h32.176V146.066c0-12.066 9.384-21.45 21.45-21.45h12.066c12.066 0 21.45 9.384 21.45 21.45v117.978h32.177V111.209c0-12.066 9.384-21.45 21.45-21.45h12.066c12.066 0 21.45 9.384 21.45 21.45v152.835h42.902c4.022 0 6.703-2.681 6.703-6.703v-69.715c-9.384-4.022-16.088-14.747-16.088-28.153 0-13.407 6.704-24.132 16.088-28.154z" class="st0" style="fill:#000;fill-opacity:1;stroke-width:13.4066"/><path id="path10" d="M148.747 273.429h-29.494c-1.34 0-2.682-1.341-2.682-2.682V142.044c0-4.022 2.682-6.703 6.704-6.703h20.11c4.022 0 6.703 2.681 6.703 6.703v128.703c0 1.34 0 2.682-1.34 2.682z" class="st1" style="fill:#4b4b4b;fill-opacity:1;stroke-width:13.4066"/><path id="path12" d="M235.89 273.429h-29.494c-1.341 0-2.682-1.341-2.682-2.682V142.044c0-4.022 2.682-6.703 6.704-6.703h20.11c4.021 0 6.703 2.681 6.703 6.703v128.703c0 1.34 0 2.682-1.34 2.682z" class="st1" style="fill:#4b4b4b;fill-opacity:1;stroke-width:13.4066"/><path id="path14" d="M323.033 273.429h-29.495c-1.34 0-2.68-1.341-2.68-2.682V142.044c0-4.022 2.68-6.703 6.702-6.703h20.11c4.022 0 6.704 2.681 6.704 6.703v128.703c0 1.34 0 2.682-1.341 2.682z" class="st1" style="fill:#4b4b4b;fill-opacity:1;stroke-width:13.4066"/><path id="path16" d="M410.176 273.429H380.68c-1.34 0-2.681-1.341-2.681-2.682v-163.56c0-4.022 2.681-6.703 6.703-6.703h20.11c4.022 0 6.703 2.68 6.703 6.703v163.56c0 1.34 0 2.682-1.34 2.682z" class="st1" style="fill:#4b4b4b;fill-opacity:1;stroke-width:13.4066"/></g></svg>