<svg xmlns="http://www.w3.org/2000/svg" id="svg5" width="512" height="512" version="1.1" viewBox="0 0 135.467 135.467"><g id="layer1"><rect id="rect846" width="124.383" height="124.383" x="5.542" y="5.542" ry="9.908" style="fill:#000;fill-opacity:.25098041;stroke:#000;stroke-width:4.73369;stroke-linejoin:round;stroke-opacity:1"/><g id="g20" transform="translate(18.516 18.517) scale(2.66037)"><path id="path4" d="M.3 27.5v4c0 .6.5 1.2 1.2 1.2h30.6l4.6-4v-7c0-.6-.5-1.2-1.2-1.2h-28l-7.2 7M9 24.6c-.6 0-1.1-.5-1.1-1.1 0-.6.5-1.1 1.1-1.1.6 0 1.1.5 1.1 1.1 0 .6-.5 1.1-1.1 1.1zm25 0c-.6 0-1.1-.5-1.1-1.1 0-.6.5-1.1 1.1-1.1.6 0 1.1.5 1.1 1.1 0 .6-.5 1.1-1.1 1.1z" class="st0" style="fill:#000;fill-opacity:1"/><path id="path6" d="M1.5 32.7h30.6l4.6-4v-1.2H.3v4c0 .7.5 1.2 1.2 1.2z" class="st1" style="fill:#1a1a1a;fill-opacity:.50308645;opacity:1"/><path id="path8" d="M34.6 9.2V4.8c0-.3-.2-.5-.5-.5h-7.6l-2.4 2.3H4c-.3 0-.5.2-.5.5v15.1c0 .1.1.1.1.1l3.3-3.1h.4v-8.9c0-.9.7-1.6 1.6-1.6h.9c.9 0 1.6.7 1.6 1.6v8.9h2.4v-8.9c0-.9.7-1.6 1.6-1.6h.9c.9 0 1.6.7 1.6 1.6v8.8h2.4v-8.8c0-.9.7-1.6 1.6-1.6h.9c.9 0 1.6.7 1.6 1.6v8.8h2.4V7.7c0-.9.7-1.6 1.6-1.6h.9c.9 0 1.6.7 1.6 1.6v11.4h3.2c.3 0 .5-.2.5-.5v-5.2c-.7-.3-1.2-1.1-1.2-2.1s.5-1.8 1.2-2.1z" class="st0" style="fill:#000;fill-opacity:1"/><g id="g18"><path id="path10" d="M10.5 19.8H8.3c-.1 0-.2-.1-.2-.2V10c0-.3.2-.5.5-.5h1.5c.3 0 .5.2.5.5v9.6c0 .1 0 .2-.1.2z" class="st1" style="fill:#000;fill-opacity:1;opacity:.75"/><path id="path12" d="M17 19.8h-2.2c-.1 0-.2-.1-.2-.2V10c0-.3.2-.5.5-.5h1.5c.3 0 .5.2.5.5v9.6c0 .1 0 .2-.1.2z" class="st1" style="fill:#010101;fill-opacity:1;opacity:.75"/><path id="path14" d="M23.5 19.8h-2.2c-.1 0-.2-.1-.2-.2V10c0-.3.2-.5.5-.5h1.5c.3 0 .5.2.5.5v9.6c0 .1 0 .2-.1.2z" class="st1" style="fill:#000;fill-opacity:1;opacity:.75"/><path id="path16" d="M30 19.8h-2.2c-.1 0-.2-.1-.2-.2V7.4c0-.3.2-.5.5-.5h1.5c.3 0 .5.2.5.5v12.2c0 .1 0 .2-.1.2z" class="st1" style="fill:#000;fill-opacity:1;opacity:.75"/></g></g></g><style id="style2" type="text/css">.st0{fill:#241c1c}.st1{fill:#483737}</style></svg>