<svg xmlns="http://www.w3.org/2000/svg" id="svg5" width="512" height="512" version="1.1" viewBox="0 0 135.467 135.467"><defs id="defs2"><style id="style2-99">.st0{fill:#483737}</style></defs><g id="layer1"><rect id="rect846" width="124.383" height="124.383" x="5.542" y="5.542" ry="9.908" style="fill:#000;fill-opacity:.25098;stroke:#000;stroke-width:4.73369;stroke-linejoin:round;stroke-opacity:1"/><g id="g74" style="fill:#000;fill-opacity:1" transform="translate(18.516 18.516) scale(2.66037)"><g id="g22" style="fill:#000;fill-opacity:1"><path id="path4" d="M24.7 7.9c-1 0-2 1.5-2.6 3.9.5-.8 1-1.3 1.5-1.3 1.6 0 3 3.9 3 8.7 0 4.8-1.3 8.7-3 8.7-.6 0-1-.5-1.5-1.3.6 2.5 1.5 4 2.5 4 1.9 0 3.4-5.1 3.4-11.3.1-6.3-1.4-11.4-3.3-11.4Z" class="st0" style="fill:#000;fill-opacity:1"/><path id="path6" d="M23.8 12.5c-.7 0-1.4 1.2-1.7 3 .3-.5.6-.9 1-.9 1 0 1.6 2.1 1.6 4.7s-.6 4.7-1.6 4.7c-.3 0-.7-.3-1-.7.4 1.5 1.1 2.5 1.7 2.5 1.1 0 2.1-3 2.1-6.8-.1-3.5-1-6.5-2.1-6.5z" class="st0" style="fill:#000;fill-opacity:1"/><path id="path8" d="m10.6 8.9 6.57 3.725L22 17.5l-6.211-3.56c-1.795-1.67-3.618-3.495-5.189-5.04Z" class="st0" style="fill:#000;fill-opacity:1"/><path id="path10" d="m9.7 28.3 6.991-4.768L23.5 20.3l-5.581 4.462Z" class="st0" style="fill:#000;fill-opacity:1"/><path id="path12" d="m8.6 14.2 7.356 1.42L22 18.6l-6.953-1.319Z" class="st0" style="fill:#000;fill-opacity:1"/><path id="path14" d="m5.8 27.1 8.14-4.985L22.2 19.7l-7.726 4.78Z" class="st0" style="fill:#000;fill-opacity:1"/><path id="path16" d="m9.6 12 3 .7 2.4 1.5-3-.5z" class="st0" style="fill:#000;fill-opacity:1"/><path id="path18" d="m11.3 20.2 2.4-.9 2.3-.1-2.2 1z" class="st0" style="fill:#000;fill-opacity:1"/><path id="path20" d="m17.7 28.3.26-2.061L19.3 25.1l-.095 2.037Z" class="st0" style="fill:#000;fill-opacity:1"/></g><path id="path24" d="M30.8 2.3H6.2L2.3 6.2v24.6l3.9 3.9h24.6l3.9-3.9V6.2l-3.9-3.9ZM32.2 30l-2.1 2.1H6.9L4.8 30V7.2c.8-.9 1.3-1.3 2.1-2.2h18.3l7 7z" class="st0" style="fill:#000;fill-opacity:1"/><g id="g36" style="fill:#000;fill-opacity:1"><path id="path26" d="M7.2 2v-.9c0-.4.4-.8.8-.8h2.4c.4 0 .8.4.8.8V2Z" class="st0" style="fill:#000;fill-opacity:1"/><path id="path28" d="M11.8 2v-.9c0-.4.4-.8.8-.8H15c.4 0 .8.4.8.8V2Z" class="st0" style="fill:#000;fill-opacity:1"/><path id="path30" d="M16.5 2v-.9c0-.4.4-.8.8-.8h2.4c.4 0 .8.4.8.8V2Z" class="st0" style="fill:#000;fill-opacity:1"/><path id="path32" d="M25.7 2v-.9c0-.4.4-.8.8-.8h2.4c.4 0 .8.4.8.8V2Z" class="st0" style="fill:#000;fill-opacity:1"/><path id="path34" d="M21.1 2v-.9c0-.4.4-.8.8-.8h2.4c.4 0 .8.4.8.8V2Z" class="st0" style="fill:#000;fill-opacity:1"/></g><g id="g48" style="fill:#000;fill-opacity:1"><path id="path38" d="M7.1 35v.9c0 .4.4.8.8.8h2.4c.4 0 .8-.4.8-.8V35Z" class="st0" style="fill:#000;fill-opacity:1"/><path id="path40" d="M11.8 35v.9c0 .4.4.8.8.8H15c.4 0 .8-.4.8-.8V35Z" class="st0" style="fill:#000;fill-opacity:1"/><path id="path42" d="M16.4 35v.9c0 .4.4.8.8.8h2.4c.4 0 .8-.4.8-.8V35Z" class="st0" style="fill:#000;fill-opacity:1"/><path id="path44" d="M25.7 35v.9c0 .4.4.8.8.8h2.4c.4 0 .8-.4.8-.8V35Z" class="st0" style="fill:#000;fill-opacity:1"/><path id="path46" d="M21 35v.9c0 .4.4.8.8.8h2.4c.4 0 .8-.4.8-.8V35Z" class="st0" style="fill:#000;fill-opacity:1"/></g><g id="g60" style="fill:#000;fill-opacity:1"><path id="path50" d="M2 29.7h-.9c-.4 0-.8-.4-.8-.8v-2.4c0-.4.4-.8.8-.8H2Z" class="st0" style="fill:#000;fill-opacity:1"/><path id="path52" d="M2 25.1h-.9c-.4 0-.8-.4-.8-.8v-2.4c0-.4.4-.8.8-.8H2Z" class="st0" style="fill:#000;fill-opacity:1"/><path id="path54" d="M2 20.5h-.9c-.4 0-.8-.4-.8-.8v-2.4c0-.4.4-.8.8-.8H2Z" class="st0" style="fill:#000;fill-opacity:1"/><path id="path56" d="M2 11.2h-.9c-.4 0-.8-.4-.8-.8V8c0-.4.4-.8.8-.8H2Z" class="st0" style="fill:#000;fill-opacity:1"/><path id="path58" d="M2 15.9h-.9c-.4 0-.8-.4-.8-.8v-2.4c0-.4.4-.8.8-.8H2Z" class="st0" style="fill:#000;fill-opacity:1"/></g><g id="g72" style="fill:#000;fill-opacity:1"><path id="path62" d="M35 29.8h.9c.4 0 .8-.4.8-.8v-2.4c0-.4-.4-.8-.8-.8H35Z" class="st0" style="fill:#000;fill-opacity:1"/><path id="path64" d="M35 25.2h.9c.4 0 .8-.4.8-.8V22c0-.4-.4-.8-.8-.8H35Z" class="st0" style="fill:#000;fill-opacity:1"/><path id="path66" d="M35 20.6h.9c.4 0 .8-.4.8-.8v-2.4c0-.4-.4-.8-.8-.8H35Z" class="st0" style="fill:#000;fill-opacity:1"/><path id="path68" d="M35 11.3h.9c.4 0 .8-.4.8-.8V8.1c0-.4-.4-.8-.8-.8H35Z" class="st0" style="fill:#000;fill-opacity:1"/><path id="path70" d="M35 15.9h.9c.4 0 .8-.4.8-.8v-2.4c0-.4-.4-.8-.8-.8H35Z" class="st0" style="fill:#000;fill-opacity:1"/></g></g></g></svg>