<svg xmlns="http://www.w3.org/2000/svg" xml:space="preserve" id="Layer_4_1_" width="512" height="512" x="0" y="0" version="1.1"><style id="style2" type="text/css">.st0{fill:#483737}.st1{fill:#241c1c}</style><g id="g2079"><path id="path4" d="M161.223 434.227c-2.676 0-6.69-1.338-9.366-2.676l-42.816-22.746c-5.352-2.676-6.69-5.352-6.69-10.704-1.338-20.07-10.704-29.436-16.057-33.45-2.676-2.676-5.352-5.352-5.352-9.366l1.338-33.45c0-1.339 0-2.677 1.338-5.353l-24.084-42.816c-4.014 1.338-9.366 2.676-13.38 2.676L22.07 277.68c-6.69 0-12.042 8.028-9.366 14.718l88.309 192.674c2.676 5.352 8.028 6.69 13.38 5.352 12.042-4.014 33.45-12.042 58.872-22.746z" class="st0" style="fill:#4b4b4b;fill-opacity:1;stroke-width:13.3801"/><path id="path6" d="m491.713 68.95-70.915-29.436h-54.859l-52.182-17.395c-6.69-2.676-13.38 0-17.394 6.69C276.293 75.64 194.673 234.864 68.9 272.329l18.732 33.45c2.677-5.352 8.029-9.366 13.38-12.042 6.69 6.69 18.733 6.69 29.437 1.338 9.366-5.352 14.718-14.718 14.718-24.084 25.422-16.056 49.507-37.465 69.577-58.873 6.69 1.338 14.718-1.338 20.07-6.69 9.366-8.028 13.38-20.07 9.366-28.098 30.774-40.14 54.859-80.28 69.577-109.717 4.014-6.69 10.704-9.366 18.732-8.028l30.774 10.704h53.52l40.141 16.056c5.352 2.676 9.366 10.704 6.69 18.732-9.366 25.422-25.422 57.535-44.154 90.985-9.366-1.338-20.07 6.69-24.084 18.732-2.676 6.69-2.676 14.718 0 20.07-18.733 28.099-38.803 56.197-57.535 80.281-8.028-2.676-18.732 0-25.422 8.028-9.366 9.366-10.704 20.07-6.69 29.437-1.338 1.338-2.676 4.014-5.352 5.352-17.395 17.394-40.14 33.45-66.901 48.168-8.028-5.352-21.408-5.352-34.788 2.676-12.043 6.69-18.733 16.056-20.07 25.422-2.677 1.338-5.353 1.338-8.029 1.338l12.042 28.099c46.83-20.07 103.027-49.507 139.154-85.633 65.563-65.563 167.252-222.11 177.956-294.363 1.338-6.69-2.676-13.38-8.028-14.718z" class="st1" style="fill:#000;fill-opacity:1;stroke-width:13.3801"/><g id="g10" style="fill:#4b4b4b;fill-opacity:1" transform="translate(8.69 8.74) scale(13.38013)"><circle id="circle8" cx="18.7" cy="19.8" r="2.6" class="st0" style="fill:#4b4b4b;fill-opacity:1"/></g><path id="path12" d="M451.572 94.372 412.77 78.316h-53.52l-33.451-10.704c-2.676 0-4.014 1.338-5.352 2.676-13.38 26.76-36.127 66.9-66.9 107.04 2.675 12.043-2.677 25.423-13.381 33.451-6.69 5.352-14.718 8.028-22.746 9.366-21.408 22.747-42.817 40.14-64.225 54.859-1.338 10.704-8.028 21.408-18.732 26.76-6.69 4.014-13.38 5.352-20.07 5.352-5.352 0-9.366-1.338-13.38-2.676-5.352 4.014-8.028 10.704-8.028 17.394l-1.338 28.099c0 2.676 1.338 6.69 4.014 8.028 6.69 5.352 14.718 16.056 17.394 33.45 0 4.014 2.676 6.69 5.352 9.366l38.802 20.07c4.014 1.338 6.69 2.676 10.704 2.676h4.014c4.014-9.366 12.042-18.732 22.747-25.422 8.028-5.352 17.394-8.028 26.76-8.028 5.352 0 9.366 1.338 13.38 2.676 25.422-14.718 45.492-29.436 60.21-44.154-2.675-10.705 1.339-24.085 10.705-33.45 8.028-8.029 17.394-12.043 26.76-12.043h1.338c17.394-21.408 34.788-45.492 50.844-70.915-1.338-6.69-1.338-14.718 1.339-22.746 4.014-13.38 16.056-22.746 28.098-24.084 18.732-33.45 33.45-62.887 41.478-85.633 0-1.338-1.338-4.014-4.014-5.352zm-133.801 12.042 24.084 34.789-6.69 13.38-24.084-34.789zM179.955 280.356l6.69 42.816-12.042 9.366-6.69-42.816zm-46.83 76.267-4.014-41.479 12.042-8.028 4.014 42.817zm54.859 41.478-37.465-20.07 12.042-8.028 37.465 20.07zm42.816-28.098-38.802-18.732 12.042-8.029 38.802 18.733zm28.098-50.845c-25.422 0-45.492-20.07-45.492-45.492 0-25.422 20.07-45.493 45.492-45.493 25.422 0 45.493 20.07 45.493 45.493 0 25.422-21.409 45.492-45.493 45.492zm46.83-121.759-21.408-37.464 8.029-12.042 21.408 37.464zm65.563 16.056-42.816-4.014 8.028-12.042 42.816 4.014zm30.775-48.168h-42.817l6.69-13.38h42.817z" class="st1" style="fill:#000;fill-opacity:1;stroke-width:13.3801"/></g></svg>