<svg xmlns="http://www.w3.org/2000/svg" id="svg5" width="512" height="512" version="1.1" viewBox="0 0 135.467 135.467"><g id="layer1"><rect id="rect846" width="124.383" height="124.383" x="5.542" y="5.542" ry="9.908" style="fill:#000;fill-opacity:.25098041;stroke:#020303;stroke-width:4.73369;stroke-linejoin:round;stroke-opacity:1"/><g id="g14" transform="translate(18.658 18.667) scale(2.65512)"><path id="path4" d="M11.4 31.8c-.2 0-.5-.1-.7-.2l-3.2-1.7c-.4-.2-.5-.4-.5-.8-.1-1.5-.8-2.2-1.2-2.5-.2-.2-.4-.4-.4-.7l.1-2.5c0-.1 0-.2.1-.4l-1.8-3.2c-.3.1-.7.2-1 .2l-1.8.1c-.5 0-.9.6-.7 1.1l6.6 14.4c.2.4.6.5 1 .4.9-.3 2.5-.9 4.4-1.7z" class="st0" style="fill:#000;fill-opacity:1;opacity:.75"/><path id="path6" d="m36.1 4.5-5.3-2.2h-4.1L22.8 1c-.5-.2-1 0-1.3.5C20 5 13.9 16.9 4.5 19.7l1.4 2.5c.2-.4.6-.7 1-.9.5.5 1.4.5 2.2.1.7-.4 1.1-1.1 1.1-1.8 1.9-1.2 3.7-2.8 5.2-4.4.5.1 1.1-.1 1.5-.5.7-.6 1-1.5.7-2.1 2.3-3 4.1-6 5.2-8.2.3-.5.8-.7 1.4-.6l2.3.8h4l3 1.2c.4.2.7.8.5 1.4-.7 1.9-1.9 4.3-3.3 6.8-.7-.1-1.5.5-1.8 1.4-.2.5-.2 1.1 0 1.5-1.4 2.1-2.9 4.2-4.3 6-.6-.2-1.4 0-1.9.6-.7.7-.8 1.5-.5 2.2-.1.1-.2.3-.4.4-1.3 1.3-3 2.5-5 3.6-.6-.4-1.6-.4-2.6.2-.9.5-1.4 1.2-1.5 1.9-.2.1-.4.1-.6.1L13 34c3.5-1.5 7.7-3.7 10.4-6.4 4.9-4.9 12.5-16.6 13.3-22 .1-.5-.2-1-.6-1.1z" class="st1" style="fill:#000;fill-opacity:1"/><g id="g10" style="opacity:.75;fill:#000"><circle id="circle8" cx="18.7" cy="19.8" r="2.6" class="st0" style="fill:#000;fill-opacity:1"/></g><path id="path12" d="m33.1 6.4-2.9-1.2h-4l-2.5-.8c-.2 0-.3.1-.4.2-1 2-2.7 5-5 8 .2.9-.2 1.9-1 2.5-.5.4-1.1.6-1.7.7-1.6 1.7-3.2 3-4.8 4.1-.1.8-.6 1.6-1.4 2-.5.3-1 .4-1.5.4-.4 0-.7-.1-1-.2-.4.3-.6.8-.6 1.3l-.1 2.1c0 .2.1.5.3.6.5.4 1.1 1.2 1.3 2.5 0 .3.2.5.4.7l2.9 1.5c.3.1.5.2.8.2h.3c.3-.7.9-1.4 1.7-1.9.6-.4 1.3-.6 2-.6.4 0 .7.1 1 .2 1.9-1.1 3.4-2.2 4.5-3.3-.2-.8.1-1.8.8-2.5.6-.6 1.3-.9 2-.9h.1c1.3-1.6 2.6-3.4 3.8-5.3-.1-.5-.1-1.1.1-1.7.3-1 1.2-1.7 2.1-1.8 1.4-2.5 2.5-4.7 3.1-6.4 0-.1-.1-.3-.3-.4zm-10 .9 1.8 2.6-.5 1-1.8-2.6zm-10.3 13 .5 3.2-.9.7-.5-3.2ZM9.3 26 9 22.9l.9-.6.3 3.2zm4.1 3.1-2.8-1.5.9-.6 2.8 1.5zm3.2-2.1-2.9-1.4.9-.6 2.9 1.4zm2.1-3.8c-1.9 0-3.4-1.5-3.4-3.4s1.5-3.4 3.4-3.4 3.4 1.5 3.4 3.4-1.6 3.4-3.4 3.4zm3.5-9.1-1.6-2.8.6-.9 1.6 2.8zm4.9 1.2-3.2-.3.6-.9 3.2.3zm2.3-3.6h-3.2l.5-1h3.2z" class="st1" style="fill:#000;fill-opacity:1"/></g></g><style id="style2" type="text/css">.st0{fill:#483737}.st1{fill:#241c1c}</style></svg>