<svg xmlns="http://www.w3.org/2000/svg" xml:space="preserve" id="svg5" width="512" height="512" version="1.1" viewBox="0 0 135.467 135.467"><defs id="defs2"><style id="style2-99">.cls-1{fill:#241c1c}.st0{fill:#483737}.st1{fill:#241c1c}</style></defs><g id="layer1"><rect id="rect846" width="124.383" height="124.383" x="5.542" y="5.542" ry="9.908" style="fill:#000;fill-opacity:.25098;stroke:#000;stroke-width:4.73369;stroke-linejoin:round;stroke-opacity:1"/><g id="g9399" transform="matrix(4.72154 0 0 4.72154 -240.381 -212.354)"><g id="g12071" style="fill:#000" transform="matrix(.60765 0 0 .60765 32.43 16.615)"><g id="g1097" style="fill:#000;fill-opacity:1" transform="translate(-162.898 -248.337) scale(2.8161)"><path id="path356" d="m72.476 112.75-1.137-.001-.303.406v4.1l.488.616h.952z" style="fill:#000;fill-opacity:1;stroke-width:.264583;stroke-linecap:square;stroke-linejoin:bevel"/><path id="path405" d="M78.638 112.496c-.367.003-.74.076-1.12.253h-4.38v5.122h3.59l3.823-3.852h2.47v-1.27h-3.07c-.433-.152-.87-.255-1.313-.252zm-2.515 1.585h1.053a.57.57 0 1 1 0 1.14h-1.053a.57.57 0 1 1 0-1.14zm-.797 1.506h1.06c.358 0 .646.288.646.645a.644.644 0 0 1-.645.645h-1.061a.644.644 0 0 1-.645-.645c0-.357.287-.645.645-.645z" style="fill:#000;fill-opacity:1;stroke:none;stroke-width:.264583;stroke-linecap:square;stroke-linejoin:bevel;stroke-opacity:1"/><path id="path456" d="M77.504 117.87h1.216l3.33-3.417h-1.093z" style="fill:#000;fill-opacity:1;stroke-width:.264583;stroke-linecap:square;stroke-linejoin:bevel"/><path id="path534" d="m75.767 108.413-.823 1.541h-.154l-1.025 2.085h3.79c.844-.443 1.707-.403 2.585 0h2.853v-2.298l-.512-1.328h-1.319v.544c.004.428-.617.413-.628 0v-.544h-.976v.544c.002.422-.832.397-.828 0v-.544h-.904v.544c-.009.392-.669.388-.667 0v-.544zm-.091 2.283a.449.449 0 1 1 0 .898.449.449 0 0 1 0-.898zm5.998 0a.449.449 0 1 1 0 .898.449.449 0 0 1 0-.898z" style="fill:#000;fill-opacity:.5;stroke:none;stroke-width:.264583;stroke-linecap:square;stroke-linejoin:bevel;stroke-opacity:1"/></g><rect id="rect11402" width="3.702" height="1.345" x="48.819" y="78.218" ry=".673" style="fill:#000;fill-opacity:1;stroke:none;stroke-width:.300826;stroke-dasharray:none;stroke-opacity:1"/></g></g></g></svg>