<svg xmlns="http://www.w3.org/2000/svg" width="512" height="512"><g style="display:inline"><path d="M788.128 369.018h72.147c3.178 26.378 13.197 35.79 35.847 13.189h91.056l-130.08 211.027-39.023-52.757h-65.04l-65.04 105.514h39.024l39.024 65.946h13.008l-26.016 39.568-52.032-79.136h-98.499z" style="display:inline;fill:#000;fill-opacity:1;stroke:none;stroke-width:13.0983px;stroke-linecap:butt;stroke-linejoin:miter;stroke-opacity:1" transform="translate(-487.177 -320.85)"/><path d="m760.323 553.291-50.666 80.437h21.27l48.865 71.695 67.26-100.84-33.342-51.293z" style="display:inline;fill:#4b4b4b;fill-opacity:1;stroke:none;stroke-width:13.0983px;stroke-linecap:butt;stroke-linejoin:miter;stroke-opacity:1" transform="translate(-487.177 -320.85)"/><path d="m779.05 369.018-40.074.079-185.11 276.288 4.05 26.984h39.023zM531.9 678.346l-32.317 59.97-.406 46.368h247.151v-26.379l-52.031-79.135zm26.016 33.591h125.12l17.967 39.568H544.908Z" style="display:inline;fill:#000;fill-opacity:1;stroke:none;stroke-width:13.0983px;stroke-linecap:butt;stroke-linejoin:miter;stroke-opacity:1" transform="translate(-487.177 -320.85)"/></g></svg>