<svg xmlns="http://www.w3.org/2000/svg" id="svg5" width="512" height="512" version="1.1" viewBox="0 0 135.467 135.467"><g id="layer1"><rect id="rect846" width="124.383" height="124.383" x="5.542" y="5.542" ry="9.908" style="fill:#000;fill-opacity:.25098041;stroke:#000;stroke-width:4.73369;stroke-linejoin:round;stroke-opacity:1"/><g id="g23345" style="fill:#000" transform="matrix(.19844 0 0 .19844 16.933 16.933)"><g id="layer1-8" style="display:inline;fill:#000" transform="translate(-487.177 -320.85)"><g id="g1165" style="fill:#000" transform="matrix(13.00795 0 0 13.1892 -5837.997 -3935.081)"><path id="path914" d="M509.39 326.335h5.547c.244 2 1.014 2.714 2.756 1h7l-10 16-3-4h-5l-5 8h3l3 5h1l-2 3-4-6h-7.573z" style="display:inline;opacity:1;fill:#000;fill-opacity:1;stroke:none;stroke-width:1px;stroke-linecap:butt;stroke-linejoin:miter;stroke-opacity:1"/><path id="path916" d="m507.203 340.483-3.845 5.922h1.635l3.757 5.436 5.17-7.646-2.563-3.889z" style="display:inline;opacity:.75;fill:#000;fill-opacity:1;stroke:none;stroke-width:1px;stroke-linecap:butt;stroke-linejoin:miter;stroke-opacity:1"/><path id="path910" d="m508.693 326.335-3.081.006-14.23 20.948.31 2.046h3z" style="display:inline;opacity:1;fill:#000;fill-opacity:1;stroke:none;stroke-width:1px;stroke-linecap:butt;stroke-linejoin:miter;stroke-opacity:1"/><path id="path921" d="m489.693 349.788-2.485 4.547-.03 3.516h19v-2l-4-6zm2 2.547h9.618l1.382 3h-12z" style="display:inline;fill:#000;fill-opacity:1;stroke:none;stroke-width:1px;stroke-linecap:butt;stroke-linejoin:miter;stroke-opacity:1"/></g></g></g></g><style id="style2" type="text/css">.st0{fill:#483737}.st1{fill:#241c1c}</style></svg>