<svg xmlns="http://www.w3.org/2000/svg" id="svg5" width="512" height="512" version="1.1" viewBox="0 0 135.467 135.467"><defs id="defs2"><style id="style2-99">.st0{fill:#241c1c}</style></defs><g id="layer1"><rect id="rect846" width="124.383" height="124.383" x="5.542" y="5.542" ry="9.908" style="fill:#000;fill-opacity:.25098041;stroke:#000;stroke-width:4.73369;stroke-linejoin:round;stroke-opacity:1"/><g id="g848" style="fill:#000" transform="matrix(2.66539 0 0 2.66539 18.423 18.516)"><circle id="circle4" cx="18.5" cy="18.5" r="2.1" class="st0" style="fill:#000;fill-opacity:1"/><path id="rect6" d="M17.8.3h1.4v10.2h-1.4z" class="st0" style="fill:#000;fill-opacity:1"/><path id="rect8" d="M17.8 26.5h1.4v10.2h-1.4z" class="st0" style="fill:#000;fill-opacity:1" transform="rotate(180 18.5 31.566)"/><path id="path10" d="M5.7 22.6H4c1.4 5 5.3 8.9 10.3 10.3v-1.6c-4-1.3-7.3-4.6-8.6-8.7Z" class="st0" style="fill:#000;fill-opacity:1"/><path id="path12" d="M4 14.4h1.6C7 10.3 10.3 7 14.4 5.7V4C9.4 5.5 5.5 9.4 4 14.4Z" class="st0" style="fill:#000;fill-opacity:1"/><path id="rect14" d="M4.7 13.4h1.4v10.2H4.7z" class="st0" style="fill:#000;fill-opacity:1" transform="rotate(-90 5.434 18.5)"/><path id="path16" d="M31.3 14.4H33c-1.4-5-5.3-8.9-10.3-10.3v1.6c4 1.3 7.3 4.6 8.6 8.7z" class="st0" style="fill:#000;fill-opacity:1"/><path id="path18" d="M31.3 22.6c-1.3 4.1-4.6 7.3-8.7 8.7V33c5-1.4 8.9-5.3 10.3-10.3h-1.6z" class="st0" style="fill:#000;fill-opacity:1"/><path id="rect20" d="M30.8 13.4h1.4v10.2h-1.4z" class="st0" style="fill:#000;fill-opacity:1" transform="rotate(90 31.566 18.5)"/></g></g></svg>