<?xml version="1.0" encoding="UTF-8" standalone="no"?>
<!-- Created with Inkscape (http://www.inkscape.org/) -->

<svg
   width="512"
   height="512"
   viewBox="0 0 135.46666 135.46667"
   version="1.1"
   id="svg5"
   xml:space="preserve"
   inkscape:version="1.2.2 (b0a8486541, 2022-12-01)"
   sodipodi:docname="Heavy_Rounds_Revved_Up.svg"
   xmlns:inkscape="http://www.inkscape.org/namespaces/inkscape"
   xmlns:sodipodi="http://sodipodi.sourceforge.net/DTD/sodipodi-0.dtd"
   xmlns:xlink="http://www.w3.org/1999/xlink"
   xmlns="http://www.w3.org/2000/svg"
   xmlns:svg="http://www.w3.org/2000/svg"><sodipodi:namedview
     id="namedview7"
     pagecolor="#ffffff"
     bordercolor="#000000"
     borderopacity="0.25"
     inkscape:showpageshadow="2"
     inkscape:pageopacity="0.0"
     inkscape:pagecheckerboard="0"
     inkscape:deskcolor="#d1d1d1"
     inkscape:document-units="mm"
     showgrid="false"
     inkscape:zoom="0.76880612"
     inkscape:cx="-91.050264"
     inkscape:cy="-21.461848"
     inkscape:window-width="1543"
     inkscape:window-height="1008"
     inkscape:window-x="-7"
     inkscape:window-y="0"
     inkscape:window-maximized="0"
     inkscape:current-layer="layer1" /><defs
     id="defs2"><linearGradient
       inkscape:collect="always"
       id="linearGradient11780"><stop
         style="stop-color:#d22407;stop-opacity:1;"
         offset="0"
         id="stop11776" /><stop
         style="stop-color:#ea7f02;stop-opacity:1;"
         offset="0.51217753"
         id="stop11784" /><stop
         style="stop-color:#f6ca07;stop-opacity:1;"
         offset="1"
         id="stop11778" /></linearGradient><linearGradient
       inkscape:collect="always"
       id="linearGradient10057"><stop
         style="stop-color:#f09a03;stop-opacity:1;"
         offset="0"
         id="stop10053" /><stop
         style="stop-color:#f6b803;stop-opacity:1;"
         offset="1"
         id="stop10055" /></linearGradient><linearGradient
       inkscape:collect="always"
       id="linearGradient6806"><stop
         style="stop-color:#f09a03;stop-opacity:1;"
         offset="0"
         id="stop6802" /><stop
         style="stop-color:#f6b803;stop-opacity:1;"
         offset="1"
         id="stop6804" /></linearGradient><linearGradient
       inkscape:collect="always"
       id="linearGradient6003"><stop
         style="stop-color:#ec8102;stop-opacity:1;"
         offset="0"
         id="stop5999" /><stop
         style="stop-color:#ef9303;stop-opacity:1;"
         offset="1"
         id="stop6001" /></linearGradient><linearGradient
       inkscape:collect="always"
       id="linearGradient5021"><stop
         style="stop-color:#ec8102;stop-opacity:1;"
         offset="0"
         id="stop5017" /><stop
         style="stop-color:#ef9303;stop-opacity:1;"
         offset="1"
         id="stop5019" /></linearGradient><linearGradient
       inkscape:collect="always"
       id="linearGradient4031"><stop
         style="stop-color:#dd3501;stop-opacity:1;"
         offset="0"
         id="stop4027" /><stop
         style="stop-color:#ea7802;stop-opacity:1;"
         offset="1"
         id="stop4029" /></linearGradient><linearGradient
       inkscape:collect="always"
       id="linearGradient2298"><stop
         style="stop-color:#dd3501;stop-opacity:1;"
         offset="0"
         id="stop2294" /><stop
         style="stop-color:#ea7802;stop-opacity:1;"
         offset="1"
         id="stop2296" /></linearGradient><linearGradient
       inkscape:collect="always"
       xlink:href="#linearGradient2298"
       id="linearGradient2300"
       x1="117.41228"
       y1="57.741978"
       x2="78.238441"
       y2="58.628761"
       gradientUnits="userSpaceOnUse" /><linearGradient
       inkscape:collect="always"
       xlink:href="#linearGradient4031"
       id="linearGradient4033"
       x1="96.085701"
       y1="120.62181"
       x2="96.067589"
       y2="75.086823"
       gradientUnits="userSpaceOnUse" /><linearGradient
       inkscape:collect="always"
       xlink:href="#linearGradient5021"
       id="linearGradient5023"
       x1="62.128578"
       y1="67.33268"
       x2="62.050739"
       y2="57.230545"
       gradientUnits="userSpaceOnUse" /><linearGradient
       inkscape:collect="always"
       xlink:href="#linearGradient6003"
       id="linearGradient6005"
       x1="98.199829"
       y1="67.634239"
       x2="98.1539"
       y2="57.381325"
       gradientUnits="userSpaceOnUse" /><linearGradient
       inkscape:collect="always"
       xlink:href="#linearGradient6806"
       id="linearGradient6808"
       x1="57.93383"
       y1="59.07827"
       x2="38.658604"
       y2="59.235035"
       gradientUnits="userSpaceOnUse" /><linearGradient
       inkscape:collect="always"
       xlink:href="#linearGradient10057"
       id="linearGradient10059"
       x1="58.209892"
       y1="32.953938"
       x2="40.499027"
       y2="33.110699"
       gradientUnits="userSpaceOnUse" /><linearGradient
       inkscape:collect="always"
       xlink:href="#linearGradient11780"
       id="linearGradient11782"
       x1="80.529076"
       y1="140.55486"
       x2="80.614807"
       y2="17.94618"
       gradientUnits="userSpaceOnUse" /></defs><g
     inkscape:label="Layer 1"
     inkscape:groupmode="layer"
     id="layer1"><g
       id="g868"
       transform="matrix(0.80697917,0,0,0.80697917,3.1749997,6.806406)"><g
         id="g853"><path
           style="fill:#366654;fill-opacity:1;stroke:url(#linearGradient11782);stroke-width:1px;stroke-linecap:butt;stroke-linejoin:miter;stroke-opacity:1"
           d="M 54.099974,12 H 24.039578 L 12.659826,31.36 28.659672,59.18 c 5.008728,-0.0028 7.032692,-0.05025 9.746266,4.522295 l 18.29439,30.827213 c 2.652744,5.397115 -2.060951,9.743722 -1.765933,10.273112 l 19.511264,35.0882 h 11.266115 l 19.534406,-35.0882 c 0.32946,-0.5976 -4.12101,-5.21037 -0.74491,-10.273112 l 19.36046,-30.827213 c 2.73737,-4.358654 3.04923,-4.474736 8.106,-4.522295 L 147.20825,31.36 135.84165,12 h -29.40177 c -0.41511,2.579544 -3.99417,6.000328 -7.135967,6.000328 H 60.137497 C 58.004796,18.000328 54.099974,14 54.099974,12 Z"
           id="path826"
           inkscape:connector-curvature="0"
           sodipodi:nodetypes="ccccscsccccsccccssc" /><path
           style="display:inline;fill:url(#linearGradient4033);fill-opacity:1;stroke:none;stroke-width:1.25538px;stroke-linecap:butt;stroke-linejoin:miter;stroke-opacity:1"
           d="m 87.039016,120.99357 8.64321,0.005 9.100274,-16.28775 c -1.15653,-3.02041 -3.42528,-5.111024 -0.89015,-9.738634 1.63548,-2.606044 3.44372,-5.671877 5.44372,-9.000001 V 71.996066 H 87.039016 Z"
           id="path829-8-8"
           inkscape:connector-curvature="0"
           sodipodi:nodetypes="cccccccc" /><path
           style="display:inline;fill:#6bcea8;fill-opacity:1;stroke:none;stroke-width:1.00333px;stroke-linecap:butt;stroke-linejoin:miter;stroke-opacity:1"
           d="M 18.380859,0 0,31.36 68,151 H 92 L 160,31.36 141,0 Z m 38.884766,3.7436066 4.158203,5.7960655 h 37.029297 l 3.759765,-5.7960655 h 36.35844 L 155.23828,31.36 l -19.35351,33.975082 -6.23829,-5.6e-5 -19.43554,33.009564 3.19922,6.28 -23.433598,42.42936 H 70.380859 l -23.914062,-42.42936 3.199219,-6.28 -18.714844,-33.009508 h -7.03711 L 4.7988281,31.36 20.5698,3.7436066 Z"
           id="path823"
           inkscape:connector-curvature="0"
           sodipodi:nodetypes="cccccccccccccccccccccccccc" /><g
           style="display:inline;fill:#b5e5d3;fill-opacity:1"
           id="g850"
           transform="matrix(0,1.1586075,-1.3602268,0,142.72888,-16.392792)"><g
             id="g866"
             style="fill:#b5e5d3;fill-opacity:1" /><path
             sodipodi:nodetypes="cccc"
             inkscape:connector-curvature="0"
             id="path868"
             d="m 58.16706,27.40842 v 11.404559 c -8.631051,0 -12.946442,-2.095551 -21.674125,-5.70228 8.677658,-3.222866 13.043074,-5.702279 21.674125,-5.702279 z"
             style="display:inline;fill:url(#linearGradient10059);fill-opacity:1;stroke:none;stroke-width:1px;stroke-linecap:butt;stroke-linejoin:miter;stroke-opacity:1" /></g><path
           style="display:inline;fill:url(#linearGradient6005);fill-opacity:1;stroke:none;stroke-width:1px;stroke-linecap:butt;stroke-linejoin:miter;stroke-opacity:1"
           d="M 89.891475,54 H 105.7172 v 8 l 3.59428,6 H 86.891475 l 3,-6 z"
           id="path873"
           inkscape:connector-curvature="0"
           sodipodi:nodetypes="ccccccc" /></g><path
         style="display:inline;fill:#db2901;fill-opacity:1;stroke:none;stroke-width:1px;stroke-linecap:butt;stroke-linejoin:miter;stroke-opacity:1"
         d="M 92.49903,127 H 87 c 2,1 2,5 0,6 0,1 0,2 1,2 z"
         id="path897-3"
         inkscape:connector-curvature="0"
         sodipodi:nodetypes="ccccc" /><g
         id="g465"
         style="fill:#b5e5d3;fill-opacity:1"><path
           style="display:inline;fill:url(#linearGradient2300);fill-opacity:1;stroke:none;stroke-width:1px;stroke-linecap:butt;stroke-linejoin:miter;stroke-opacity:1"
           d="m 118.5813,50.541977 -2.8e-4,6.978827 -14.05588,6.656204 c -1.21467,-0.338531 -3.53216,-2.730014 -8.384829,-1.463335 -2.589315,1.193663 -5.178631,2.531631 -8.051152,4.001974 H 76.288894 l 2.38e-4,-16.173773 z"
           id="path829-8"
           inkscape:connector-curvature="0"
           sodipodi:nodetypes="cccccccc"
           transform="matrix(0,1.1586075,-1.3602268,0,142.72888,-16.392792)" /><path
           sodipodi:nodetypes="cccc"
           inkscape:connector-curvature="0"
           id="path868-8"
           d="m 58.16706,53.781553 v 11.063729 c -8.631051,0 -13.314102,-2.097049 -21.674125,-5.531865 8.147784,-3.241987 13.043074,-5.531864 21.674125,-5.531864 z"
           style="display:inline;fill:url(#linearGradient6808);fill-opacity:1;stroke:none;stroke-width:1px;stroke-linecap:butt;stroke-linejoin:miter;stroke-opacity:1"
           transform="matrix(0,1.1586075,-1.3602268,0,142.72888,-16.392792)" /><path
           style="display:inline;fill:url(#linearGradient5023);fill-opacity:1;stroke:none;stroke-width:1px;stroke-linecap:butt;stroke-linejoin:miter;stroke-opacity:1"
           d="m 54.724889,54 h 15.086545 v 8 l 4,6 H 51.724889 l 3,-6 z"
           id="path873-5"
           inkscape:connector-curvature="0"
           sodipodi:nodetypes="ccccccc"
           transform="translate(1.2391893e-6)" /><path
           style="display:inline;fill:#db2a01;fill-opacity:1;stroke:none;stroke-width:1px;stroke-linecap:butt;stroke-linejoin:miter;stroke-opacity:1"
           d="m 67.83011,127 h 5.540014 c -2,1 -2,5 0,6 0,1 -0.07614,2 -1.07614,2 z"
           id="path897"
           inkscape:connector-curvature="0"
           sodipodi:nodetypes="ccccc" /></g></g></g></svg>
