<svg xmlns="http://www.w3.org/2000/svg" id="svg5" width="512" height="512" version="1.1" viewBox="0 0 135.467 135.467"><defs id="defs2"><style id="style2-99">.st0{fill:#483737}</style></defs><g id="layer1"><rect id="rect846" width="124.383" height="124.383" x="5.542" y="5.542" ry="9.908" style="fill:#000;fill-opacity:.25098041;stroke:#000;stroke-width:4.73369;stroke-linejoin:round;stroke-opacity:1"/><g id="g1160" style="display:inline;fill:#000" transform="translate(-1259.364 20.856) scale(1.57076)"><g id="g1084" style="fill:#000;fill-opacity:1" transform="translate(813.542 -1.49) scale(1.69368)"><path id="path1034" d="M30.8 2.3H6.2L2.3 6.2v24.6l3.9 3.9h24.6l3.9-3.9V6.2l-3.9-3.9ZM32.2 30l-2.1 2.1H6.9L4.8 30V7.2c.8-.9 1.3-1.3 2.1-2.2h18.3l7 7z" class="st0" style="fill:#000;fill-opacity:1"/><g id="g1046" style="fill:#000;fill-opacity:1"><path id="path1036" d="M7.2 2v-.9c0-.4.4-.8.8-.8h2.4c.4 0 .8.4.8.8V2Z" class="st0" style="fill:#000;fill-opacity:1"/><path id="path1038" d="M11.8 2v-.9c0-.4.4-.8.8-.8H15c.4 0 .8.4.8.8V2Z" class="st0" style="fill:#000;fill-opacity:1"/><path id="path1040" d="M16.5 2v-.9c0-.4.4-.8.8-.8h2.4c.4 0 .8.4.8.8V2Z" class="st0" style="fill:#000;fill-opacity:1"/><path id="path1042" d="M25.7 2v-.9c0-.4.4-.8.8-.8h2.4c.4 0 .8.4.8.8V2Z" class="st0" style="fill:#000;fill-opacity:1"/><path id="path1044" d="M21.1 2v-.9c0-.4.4-.8.8-.8h2.4c.4 0 .8.4.8.8V2Z" class="st0" style="fill:#000;fill-opacity:1"/></g><g id="g1058" style="fill:#000;fill-opacity:1"><path id="path1048" d="M7.1 35v.9c0 .4.4.8.8.8h2.4c.4 0 .8-.4.8-.8V35Z" class="st0" style="fill:#000;fill-opacity:1"/><path id="path1050" d="M11.8 35v.9c0 .4.4.8.8.8H15c.4 0 .8-.4.8-.8V35Z" class="st0" style="fill:#000;fill-opacity:1"/><path id="path1052" d="M16.4 35v.9c0 .4.4.8.8.8h2.4c.4 0 .8-.4.8-.8V35Z" class="st0" style="fill:#000;fill-opacity:1"/><path id="path1054" d="M25.7 35v.9c0 .4.4.8.8.8h2.4c.4 0 .8-.4.8-.8V35Z" class="st0" style="fill:#000;fill-opacity:1"/><path id="path1056" d="M21 35v.9c0 .4.4.8.8.8h2.4c.4 0 .8-.4.8-.8V35Z" class="st0" style="fill:#000;fill-opacity:1"/></g><g id="g1070" style="fill:#000;fill-opacity:1"><path id="path1060" d="M2 29.7h-.9c-.4 0-.8-.4-.8-.8v-2.4c0-.4.4-.8.8-.8H2Z" class="st0" style="fill:#000;fill-opacity:1"/><path id="path1062" d="M2 25.1h-.9c-.4 0-.8-.4-.8-.8v-2.4c0-.4.4-.8.8-.8H2Z" class="st0" style="fill:#000;fill-opacity:1"/><path id="path1064" d="M2 20.5h-.9c-.4 0-.8-.4-.8-.8v-2.4c0-.4.4-.8.8-.8H2Z" class="st0" style="fill:#000;fill-opacity:1"/><path id="path1066" d="M2 11.2h-.9c-.4 0-.8-.4-.8-.8V8c0-.4.4-.8.8-.8H2Z" class="st0" style="fill:#000;fill-opacity:1"/><path id="path1068" d="M2 15.9h-.9c-.4 0-.8-.4-.8-.8v-2.4c0-.4.4-.8.8-.8H2Z" class="st0" style="fill:#000;fill-opacity:1"/></g><g id="g1082" style="fill:#000;fill-opacity:1"><path id="path1072" d="M35 29.8h.9c.4 0 .8-.4.8-.8v-2.4c0-.4-.4-.8-.8-.8H35Z" class="st0" style="fill:#000;fill-opacity:1"/><path id="path1074" d="M35 25.2h.9c.4 0 .8-.4.8-.8V22c0-.4-.4-.8-.8-.8H35Z" class="st0" style="fill:#000;fill-opacity:1"/><path id="path1076" d="M35 20.6h.9c.4 0 .8-.4.8-.8v-2.4c0-.4-.4-.8-.8-.8H35Z" class="st0" style="fill:#000;fill-opacity:1"/><path id="path1078" d="M35 11.3h.9c.4 0 .8-.4.8-.8V8.1c0-.4-.4-.8-.8-.8H35Z" class="st0" style="fill:#000;fill-opacity:1"/><path id="path1080" d="M35 15.9h.9c.4 0 .8-.4.8-.8v-2.4c0-.4-.4-.8-.8-.8H35Z" class="st0" style="fill:#000;fill-opacity:1"/></g></g><path id="path1130" d="m864.536 28.04-7.69-10.164 1.945 6.187-9.458-6.805 1.857-2.033-11.402-1.857 6.364 9.812 1.149-2.21 8.75 5.038-10.783-.884 6.894 3.8h-15.998s1.325-3.358.972-3.446c-.354-.089-10.96 5.215-10.96 5.215l11.313 4.773-1.856-3.624 17.413-.089-3.005 3.359 5.215-.442-8.309 6.099-.884-3.182-6.629 9.634 11.844-1.149-2.652-2.475 10.43-7.601.177 4.773 5.215-7.513-2.563 2.121-.354-3.8-5.392 1.414 4.331-3.36-4.927-.927 4.75-1.105.133-3.138z" style="fill:#000;fill-opacity:1;stroke:none;stroke-width:1px;stroke-linecap:butt;stroke-linejoin:miter;stroke-opacity:1"/></g></g></svg>