<svg xmlns="http://www.w3.org/2000/svg" width="512" height="512" viewBox="0 0 135.467 135.467"><g style="display:inline;fill:#000"><g style="fill:#000;fill-opacity:1"><path d="M30.8 2.3H6.2L2.3 6.2v24.6l3.9 3.9h24.6l3.9-3.9V6.2l-3.9-3.9ZM32.2 30l-2.1 2.1H6.9L4.8 30V7.2c.8-.9 1.3-1.3 2.1-2.2h18.3l7 7z" class="st0" style="fill:#000;fill-opacity:1" transform="translate(2.11 2.11) scale(3.54716)"/><g style="fill:#000;fill-opacity:1"><path d="M7.2 2v-.9c0-.4.4-.8.8-.8h2.4c.4 0 .8.4.8.8V2ZM11.8 2v-.9c0-.4.4-.8.8-.8H15c.4 0 .8.4.8.8V2ZM16.5 2v-.9c0-.4.4-.8.8-.8h2.4c.4 0 .8.4.8.8V2ZM25.7 2v-.9c0-.4.4-.8.8-.8h2.4c.4 0 .8.4.8.8V2ZM21.1 2v-.9c0-.4.4-.8.8-.8h2.4c.4 0 .8.4.8.8V2Z" class="st0" style="fill:#000;fill-opacity:1" transform="translate(2.11 2.11) scale(3.54716)"/></g><g style="fill:#000;fill-opacity:1"><path d="M7.1 35v.9c0 .4.4.8.8.8h2.4c.4 0 .8-.4.8-.8V35ZM11.8 35v.9c0 .4.4.8.8.8H15c.4 0 .8-.4.8-.8V35ZM16.4 35v.9c0 .4.4.8.8.8h2.4c.4 0 .8-.4.8-.8V35ZM25.7 35v.9c0 .4.4.8.8.8h2.4c.4 0 .8-.4.8-.8V35ZM21 35v.9c0 .4.4.8.8.8h2.4c.4 0 .8-.4.8-.8V35Z" class="st0" style="fill:#000;fill-opacity:1" transform="translate(2.11 2.11) scale(3.54716)"/></g><g style="fill:#000;fill-opacity:1"><path d="M2 29.7h-.9c-.4 0-.8-.4-.8-.8v-2.4c0-.4.4-.8.8-.8H2ZM2 25.1h-.9c-.4 0-.8-.4-.8-.8v-2.4c0-.4.4-.8.8-.8H2ZM2 20.5h-.9c-.4 0-.8-.4-.8-.8v-2.4c0-.4.4-.8.8-.8H2ZM2 11.2h-.9c-.4 0-.8-.4-.8-.8V8c0-.4.4-.8.8-.8H2ZM2 15.9h-.9c-.4 0-.8-.4-.8-.8v-2.4c0-.4.4-.8.8-.8H2Z" class="st0" style="fill:#000;fill-opacity:1" transform="translate(2.11 2.11) scale(3.54716)"/></g><g style="fill:#000;fill-opacity:1"><path d="M35 29.8h.9c.4 0 .8-.4.8-.8v-2.4c0-.4-.4-.8-.8-.8H35ZM35 25.2h.9c.4 0 .8-.4.8-.8V22c0-.4-.4-.8-.8-.8H35ZM35 20.6h.9c.4 0 .8-.4.8-.8v-2.4c0-.4-.4-.8-.8-.8H35ZM35 11.3h.9c.4 0 .8-.4.8-.8V8.1c0-.4-.4-.8-.8-.8H35ZM35 15.9h.9c.4 0 .8-.4.8-.8v-2.4c0-.4-.4-.8-.8-.8H35Z" class="st0" style="fill:#000;fill-opacity:1" transform="translate(2.11 2.11) scale(3.54716)"/></g></g><path d="m864.536 28.04-7.69-10.164 1.945 6.187-9.458-6.805 1.857-2.033-11.402-1.857 6.364 9.812 1.149-2.21 8.75 5.038-10.783-.884 6.894 3.8h-15.998s1.325-3.358.972-3.446c-.354-.089-10.96 5.215-10.96 5.215l11.313 4.773-1.856-3.624 17.413-.089-3.005 3.359 5.215-.442-8.309 6.099-.884-3.182-6.629 9.634 11.844-1.149-2.652-2.475 10.43-7.601.177 4.773 5.215-7.513-2.563 2.121-.354-3.8-5.392 1.414 4.331-3.36-4.927-.927 4.75-1.105.133-3.138z" style="fill:#000;fill-opacity:1;stroke:none;stroke-width:1px;stroke-linecap:butt;stroke-linejoin:miter;stroke-opacity:1" transform="matrix(2.09435 0 0 2.09435 -1701.73 5.23)"/></g></svg>