<svg xmlns="http://www.w3.org/2000/svg" xml:space="preserve" id="Layer_3" width="512" height="512" x="0" y="0" version="1.1"><style id="style2" type="text/css">.st0{fill:#483737}</style><g id="g24" transform="translate(12 159.489)"><g id="g873" transform="matrix(13.18922 0 0 13.18922 0 -147.49)"><path id="path4" d="M9.8 24.9H7.7c-.2 0-.4-.2-.4-.4v-4.8c0-.2.2-.4.4-.4h2.1c.2 0 .4.2.4.4v4.8c0 .2-.2.4-.4.4z" class="st0" style="fill:#4d4d4d;fill-opacity:1"/><path id="path6" d="M35 24.9h-2.1c-.2 0-.4-.2-.4-.4v-4.8c0-.2.2-.4.4-.4H35c.2 0 .4.2.4.4v4.8c-.1.2-.2.4-.4.4z" class="st0" style="fill:#4d4d4d;fill-opacity:1"/><path id="path8" d="M13.4 24.9h-2.1c-.2 0-.4-.2-.4-.4v-4.8c0-.2.2-.4.4-.4h2.1c.2 0 .4.2.4.4v4.8c0 .2-.2.4-.4.4z" class="st0" style="fill:#4d4d4d;fill-opacity:1"/><path id="path10" d="M17 24.9h-2.1c-.2 0-.4-.2-.4-.4v-4.8c0-.2.2-.4.4-.4H17c.2 0 .4.2.4.4v4.8c0 .2-.2.4-.4.4z" class="st0" style="fill:#4d4d4d;fill-opacity:1"/><path id="path12" d="M24.2 24.9H22c-.2 0-.4-.2-.4-.4v-4.8c0-.2.2-.4.4-.4h2.1c.2 0 .4.2.4.4v4.8c.1.2-.1.4-.3.4z" class="st0" style="fill:#4d4d4d;fill-opacity:1"/><path id="path14" d="M27.8 24.9h-2.1c-.2 0-.4-.2-.4-.4v-4.8c0-.2.2-.4.4-.4h2.1c.2 0 .4.2.4.4v4.8c-.1.2-.2.4-.4.4z" class="st0" style="fill:#4d4d4d;fill-opacity:1"/><path id="path16" d="M31.4 24.9h-2.1c-.2 0-.4-.2-.4-.4v-4.8c0-.2.2-.4.4-.4h2.1c.2 0 .4.2.4.4v4.8c-.1.2-.2.4-.4.4z" class="st0" style="fill:#4d4d4d;fill-opacity:1"/><path id="path18" d="M20.6 24.9h-2.1c-.2 0-.4-.2-.4-.4v-4.8c0-.2.2-.4.4-.4h2.1c.2 0 .4.2.4.4v4.8c0 .2-.2.4-.4.4z" class="st0" style="fill:#4d4d4d;fill-opacity:1"/><path id="path22" d="M35.8 14.2h-7.4s-2.1-2.1-2.9-2.1H.6c-.4 0-.6.3-.6.6v6.1c0 .3.1.5.3.7l.6.6c.1.1.2.3.2.5v2.5c0 .2.1.4.2.6l.7.8c.1.1.3.2.4.2h4V19c0-.2.2-.4.4-.4h28.1c.2 0 .5-.1.6-.3l1.5-2.5c0-.1-.1-1.6-1.2-1.6zm-32.5.5c-.3 0-.5.2-.5.5v6.2l-.7-.7v-6.1c0-.3.2-.5.5-.5h20.1l2.4.6z" style="fill:#000;fill-opacity:1"/></g></g></svg>