<svg xmlns="http://www.w3.org/2000/svg" id="svg5" width="512" height="512" version="1.1" viewBox="0 0 135.467 135.467"><defs id="defs2"><style id="style2-99">.cls-1{fill:#241c1c}</style></defs><g id="layer1"><rect id="rect846" width="124.383" height="124.383" x="5.542" y="5.542" ry="9.908" style="fill:#000;fill-opacity:.25098041;stroke:#000;stroke-width:4.73369;stroke-linejoin:round;stroke-opacity:1"/><g id="g967" style="fill:#000;fill-opacity:1" transform="translate(19.315 19.315) scale(2.70874)"><path id="path64" d="M18.25 10.994a3.437 3.437 0 0 0-3.178 3.178h3.178z" class="cls-1" style="fill:#000;fill-opacity:1" transform="translate(-.625 -.625)"/><path id="path66" d="M18.75 10.994v3.178h3.178a3.437 3.437 0 0 0-3.178-3.178Z" class="cls-1" style="fill:#000;fill-opacity:1" transform="translate(-.625 -.625)"/><path id="path68" d="M21.928 14.672H18.75v3.178a3.437 3.437 0 0 0 3.178-3.178z" class="cls-1" style="fill:#000;fill-opacity:1" transform="translate(-.625 -.625)"/><g id="g931" style="fill:#000;fill-opacity:1"><path id="path8" d="M30.58 2.589H6.42L2.589 6.42v24.16l3.831 3.831h24.16l3.831-3.831V6.42ZM31.955 29.8l-2.062 2.062H7.107L5.045 29.8V7.4c.785-.884 1.276-1.277 2.062-2.161H25.08l6.875 6.875z" class="cls-1" style="fill:#000;fill-opacity:1" transform="translate(-.625 -.625)"/><path id="path10" d="M7.4 2.3v-.889a.845.845 0 0 1 .787-.786h2.358a.845.845 0 0 1 .785.786V2.3Z" class="cls-1" style="fill:#000;fill-opacity:1" transform="translate(-.625 -.625)"/><path id="path12" d="M11.92 2.3v-.889a.844.844 0 0 1 .785-.786h2.357a.845.845 0 0 1 .786.786V2.3Z" class="cls-1" style="fill:#000;fill-opacity:1" transform="translate(-.625 -.625)"/><path id="path14" d="M16.536 2.3v-.889a.845.845 0 0 1 .785-.786h2.358a.845.845 0 0 1 .785.786V2.3Z" class="cls-1" style="fill:#000;fill-opacity:1" transform="translate(-.625 -.625)"/><path id="path16" d="M25.571 2.3v-.889a.845.845 0 0 1 .786-.786h2.357a.845.845 0 0 1 .786.786V2.3Z" class="cls-1" style="fill:#000;fill-opacity:1" transform="translate(-.625 -.625)"/><path id="path18" d="M21.054 2.3v-.889a.844.844 0 0 1 .785-.786H24.2a.845.845 0 0 1 .786.786V2.3Z" class="cls-1" style="fill:#000;fill-opacity:1" transform="translate(-.625 -.625)"/><path id="path20" d="M7.3 34.705v.884a.844.844 0 0 0 .785.786h2.357a.845.845 0 0 0 .786-.786v-.884z" class="cls-1" style="fill:#000;fill-opacity:1" transform="translate(-.625 -.625)"/><path id="path22" d="M11.92 34.705v.884a.844.844 0 0 0 .785.786h2.357a.845.845 0 0 0 .786-.786v-.884z" class="cls-1" style="fill:#000;fill-opacity:1" transform="translate(-.625 -.625)"/><path id="path24" d="M16.437 34.705v.884a.845.845 0 0 0 .786.786h2.357a.845.845 0 0 0 .786-.786v-.884z" class="cls-1" style="fill:#000;fill-opacity:1" transform="translate(-.625 -.625)"/><path id="path26" d="M25.571 34.705v.884a.845.845 0 0 0 .786.786h2.357a.845.845 0 0 0 .786-.786v-.884z" class="cls-1" style="fill:#000;fill-opacity:1" transform="translate(-.625 -.625)"/><path id="path28" d="M20.955 34.705v.884a.845.845 0 0 0 .786.786H24.1a.845.845 0 0 0 .786-.786v-.884z" class="cls-1" style="fill:#000;fill-opacity:1" transform="translate(-.625 -.625)"/><path id="path30" d="M2.3 29.6h-.889a.845.845 0 0 1-.786-.786v-2.359a.845.845 0 0 1 .786-.785H2.3Z" class="cls-1" style="fill:#000;fill-opacity:1" transform="translate(-.625 -.625)"/><path id="path32" d="M2.3 24.982h-.889a.845.845 0 0 1-.786-.782v-2.361a.844.844 0 0 1 .786-.785H2.3Z" class="cls-1" style="fill:#000;fill-opacity:1" transform="translate(-.625 -.625)"/><path id="path34" d="M2.3 20.464h-.889a.845.845 0 0 1-.786-.785v-2.358a.845.845 0 0 1 .786-.785H2.3Z" class="cls-1" style="fill:#000;fill-opacity:1" transform="translate(-.625 -.625)"/><path id="path36" d="M2.3 11.33h-.889a.845.845 0 0 1-.786-.785V8.187a.845.845 0 0 1 .786-.787H2.3Z" class="cls-1" style="fill:#000;fill-opacity:1" transform="translate(-.625 -.625)"/><path id="path38" d="M2.3 15.946h-.889a.844.844 0 0 1-.786-.785V12.8a.845.845 0 0 1 .786-.786H2.3Z" class="cls-1" style="fill:#000;fill-opacity:1" transform="translate(-.625 -.625)"/><path id="path40" d="M34.705 29.6h.884a.845.845 0 0 0 .786-.786v-2.359a.845.845 0 0 0-.786-.785h-.884z" class="cls-1" style="fill:#000;fill-opacity:1" transform="translate(-.625 -.625)"/><path id="path42" d="M34.705 25.08h.884a.844.844 0 0 0 .786-.785v-2.358a.845.845 0 0 0-.786-.785h-.884z" class="cls-1" style="fill:#000;fill-opacity:1" transform="translate(-.625 -.625)"/><path id="path44" d="M34.705 20.562h.884a.844.844 0 0 0 .786-.785V17.42a.845.845 0 0 0-.786-.786h-.884z" class="cls-1" style="fill:#000;fill-opacity:1" transform="translate(-.625 -.625)"/><path id="path46" d="M34.705 11.429h.884a.845.845 0 0 0 .786-.786V8.286a.845.845 0 0 0-.786-.786h-.884z" class="cls-1" style="fill:#000;fill-opacity:1" transform="translate(-.625 -.625)"/><path id="path48" d="M34.705 15.946h.884a.844.844 0 0 0 .786-.785V12.8a.845.845 0 0 0-.786-.786h-.884z" class="cls-1" style="fill:#000;fill-opacity:1" transform="translate(-.625 -.625)"/><path id="path50" d="M17.737 29.627s-.431.024-.431.855 1.194 1.028 1.194.4-.386-1.255-.763-1.255z" class="cls-1" style="fill:#000;fill-opacity:1" transform="translate(-.625 -.625)"/><path id="path52" d="M17.094 30.522s.094.494-.6.494-.674-1.491-.267-1.491c.407 0 .867.806.867.997z" class="cls-1" style="fill:#000;fill-opacity:1" transform="translate(-.625 -.625)"/><path id="path54" d="M15.6 30.71s-.761-.534-.792-.957c-.031-.423.384-.365.714-.365.33 0 .251 1.166.078 1.322z" class="cls-1" style="fill:#000;fill-opacity:1" transform="translate(-.625 -.625)"/><path id="path56" d="M14.592 29.628s-.012.5-.5.142-.149-.676.1-.676.4.097.4.534z" class="cls-1" style="fill:#000;fill-opacity:1" transform="translate(-.625 -.625)"/><path id="path58" d="M18.871 30.551s-.018.465.7.465.664-.493.664-.688a.666.666 0 0 0-.617-.594c-.389 0-.594.466-.747.817z" class="cls-1" style="fill:#000;fill-opacity:1" transform="translate(-.625 -.625)"/><path id="path60" d="M20.529 30.432s.03.509.618.376a.782.782 0 0 0 .718-.8c0-.312-.447-.376-.747-.376s-.589.377-.589.8z" class="cls-1" style="fill:#000;fill-opacity:1" transform="translate(-.625 -.625)"/><path id="path62" d="M22.124 29.689s0 .349.558.159c.558-.19.312-.567.1-.567s-.658.17-.658.408z" class="cls-1" style="fill:#000;fill-opacity:1" transform="translate(-.625 -.625)"/><path id="path70" d="M28.063 19.121v.009a5.873 5.873 0 0 0 .5-2.88C27.844 6 18.5 6.469 18.5 6.469S9.156 6 8.437 16.25a5.886 5.886 0 0 0 .5 2.88v-.009a5.947 5.947 0 0 1 .194.567 88.41 88.41 0 0 1 1.7-2.985 7.725 7.725 0 0 1-1.582 3.466 3.823 3.823 0 0 1 .066.675c0 .953-.656 1.125-.656 2.2 0 1.075 2.391 3.859 2.828 3.859.437 0 .672-.39.953-.39a2.706 2.706 0 0 1 1.485 1.968s.015.075.04.178l.028.064a.762.762 0 0 1 .2-.033.725.725 0 0 1 .673.357 1.343 1.343 0 0 1 .431-.064h.222a.561.561 0 0 1 .425.219.558.558 0 0 1 .288-.082 1.186 1.186 0 0 1 .864.538.842.842 0 0 1 .621-.434 1.168 1.168 0 0 1 .978.765 1.076 1.076 0 0 1 .923-.66.989.989 0 0 1 .752.361.934.934 0 0 1 .748-.467 1.618 1.618 0 0 1 .7.134 1.238 1.238 0 0 1 .96-.481.6.6 0 0 1 .268.071 3.653 3.653 0 0 0 .028-.468 2.708 2.708 0 0 1 1.484-1.968c.282 0 .516.39.954.39.438 0 2.828-2.781 2.828-3.859 0-1.078-.657-1.25-.657-2.2a4.9 4.9 0 0 1 .38-1.721zm-14.641-4.949h1.15a3.937 3.937 0 0 1 3.678-3.678v-1.15a.25.25 0 0 1 .5 0v1.15a3.937 3.937 0 0 1 3.678 3.678h1.15a.25.25 0 0 1 0 .5h-1.15a3.938 3.938 0 0 1-3.678 3.678v1.15a.25.25 0 0 1-.5 0v-1.15a3.938 3.938 0 0 1-3.678-3.678h-1.15a.25.25 0 0 1 0-.5zM13.344 24.3c-.547 0-3 .015-3-2.281 0-2.296 3.175-3.087 3.927-3.087.718 0 2.932.133 2.932 2.368s-3.312 3-3.859 3zm6.209 3.734c-.412 0-.912-1.14-1.053-1.14 0 0-.656.953-1.125.953s-.7-.891-.7-1.078c0-.187 1.047-4.344 1.7-4.344s1.861 4.406 1.861 4.734c0 .328-.27.872-.683.872zM24.1 24.3c-.547 0-3.86-.765-3.86-3s2.214-2.367 2.933-2.367c.752 0 3.927.789 3.927 3.086 0 2.297-2.458 2.281-3 2.281zm2.963-5.944c-1.165 0-1.271-3.588-1.271-3.588 0 1.47.871 2.576 1.4 2.576.529 0 1.032 1.009-.133 1.009z" class="cls-1" style="fill:#000;fill-opacity:1" transform="translate(-.625 -.625)"/></g><path id="path72" d="M18.25 17.85v-3.178h-3.178a3.437 3.437 0 0 0 3.178 3.178Z" class="cls-1" style="fill:#000;fill-opacity:1" transform="translate(-.625 -.625)"/></g></g></svg>