<svg xmlns="http://www.w3.org/2000/svg" xml:space="preserve" id="Layer_4_1_" width="512" height="512" x="0" y="0" version="1.1"><style id="style2" type="text/css">.st0{fill:#483737}.st1{fill:#241c1c}</style><g id="g1208"><path id="rect18" d="M25.556 162.467h36.6v90.822h-36.6z" class="st1" style="fill:#000;fill-opacity:1;stroke-width:13.5556"/><path id="rect4" d="M12 264.133h488v47.444H12z" class="st0" style="fill:#4b4b4b;fill-opacity:1;stroke-width:13.5556"/><path id="path6" d="M464.756 373.933 426.8 436.29H158.4s-23.044-1.356-23.044-25.756c0-25.755-2.712-31.178-20.334-31.178H56.733v-4.066h84.045s8.133 1.355 8.133 17.622 13.556 14.911 27.111 14.911H414.6l21.689-32.533h28.467z" class="st1" style="fill:#000;fill-opacity:1;stroke-width:13.5556"/><path id="path14" d="M292.6 322.422V365.8h12.2l21.689-2.711 21.689 2.71h128.778c5.422 0 9.488-6.777 9.488-12.2v-32.532H292.6Z" class="st1" style="fill:#000;fill-opacity:1;stroke-width:13.5556"/><path id="rect20" d="M70.289 322.422h10.844V365.8H70.289z" class="st0" style="fill:#4b4b4b;fill-opacity:1;stroke-width:13.5556"/><path id="rect22" d="M30.978 322.422h32.533V365.8H30.978z" class="st1" style="fill:#000;fill-opacity:1;stroke-width:13.5556"/><path id="rect24" d="M215.333 322.422h21.689V365.8h-21.689z" class="st0" style="fill:#4b4b4b;fill-opacity:1;stroke-width:13.5556"/><path id="rect26" d="M245.156 322.422h40.667V365.8h-40.667z" class="st1" style="fill:#000;fill-opacity:1;stroke-width:13.5556"/><path id="rect28" d="M87.911 322.422h120.644V365.8H87.911z" class="st1" style="fill:#000;fill-opacity:1;stroke-width:13.5556"/><path id="path10" d="m426.8 171.955-8.133-8.133H356.31c-18.978 0-16.267 6.778-31.178 6.778-13.555 0-12.2-6.778-32.533-6.778v90.822h174.867v-82.689z" class="st1" style="fill:#000;fill-opacity:1;stroke-width:13.5556"/><path id="path12" d="M178.733 159.755h-66.422c-2.711 0-5.422 2.712-5.422 5.423v69.133c0 2.711 2.711 5.422 5.422 5.422h66.422c2.711 0 5.423-2.71 5.423-5.422v-69.133c0-4.067-2.712-5.423-5.423-5.423z" class="st0" style="fill:#4b4b4b;fill-opacity:1;stroke-width:13.5556"/><path id="polygon16" d="M4.8 11.4v7h.8V8.7H1.5v2.7z" class="st0" style="fill:#4b4b4b;fill-opacity:1" transform="matrix(13.55556 0 0 13.55556 5.222 5.222)"/><path id="path30" d="M238.378 254.644V136.711c2.71-5.422 4.066-10.844 4.066-17.622 0-13.556-6.777-25.756-14.91-25.756-8.134 0-14.912 12.2-14.912 25.756 0 6.778 1.356 12.2 4.067 17.622V254.644z" class="st0" style="fill:#4b4b4b;fill-opacity:1;stroke-width:13.5556"/><path id="path32" d="M262.778 131.289V89.267c0-6.778-5.422-13.556-13.556-13.556H39.112c-6.779 0-13.556 5.422-13.556 13.556v27.11H87.91v138.267h120.645V138.067c-2.712-5.423-4.067-12.2-4.067-18.978 0-18.978 9.489-32.534 21.689-32.534 13.555-1.355 23.044 13.556 23.044 31.178 0 6.778-1.355 13.556-4.066 18.978v116.578h40.666v-90.822c-23.044-2.712-23.044-31.178-23.044-31.178zM190.933 234.31a12.15 12.15 0 0 1-12.2 12.2h-66.422a12.15 12.15 0 0 1-12.2-12.2v-69.133a12.15 12.15 0 0 1 12.2-12.2h66.422a12.15 12.15 0 0 1 12.2 12.2z" class="st1" style="fill:#000;fill-opacity:1;stroke-width:13.5556"/><path id="path34" d="M325.133 254.644h32.534v-90.822h-1.356c-18.978 0-16.267 6.778-31.178 6.778z" class="st0" style="fill:#4b4b4b;fill-opacity:1;stroke-width:13.5556"/><path id="polygon36" d="M26 26.7v-3.3h-2.4v3l1.6.3z" class="st0" style="fill:#4b4b4b;fill-opacity:1" transform="matrix(13.55556 0 0 13.55556 6.578 3.867)"/></g></svg>