<svg xmlns="http://www.w3.org/2000/svg" id="svg5" width="512" height="512" version="1.1" viewBox="0 0 135.467 135.467"><g id="layer1"><rect id="rect846" width="124.383" height="124.383" x="5.542" y="5.542" ry="9.908" style="fill:#000;fill-opacity:.25098041;stroke:#000;stroke-width:4.73369;stroke-linejoin:round;stroke-opacity:1"/><g id="g28" style="fill:#000" transform="matrix(.19844 0 0 .19844 19.215 42.414)"><g id="g26" style="fill:#000"><g id="g873" style="fill:#000" transform="matrix(13.518 0 0 13.518 -6.259 -123.735)"><path id="path4" d="M35.2 26.8H34c-.6 0-1.2-.5-1.2-1.2V11.9c0-.2.2-.4.4-.4h2.6c.7 0 .8.2.8 3.4l-.3 10.7c0 .7-.5 1.2-1.1 1.2z" class="st0" style="fill:#000;fill-opacity:1;opacity:.75"/><path id="path6" d="M26.8 10.7v3.2c0 .2-.1.4-.2.6l-1.8 2.1c-.2.2-.5.4-.8.4h-6.3c-.2 0-.4-.1-.6-.2l-6.2-5c-.2-.1-.3-.3-.3-.5v-.5c0-.5.4-.9.9-.9h14.3c.6-.1 1 .3 1 .8z" class="st0" style="fill:#000;fill-opacity:1;opacity:.75"/><path id="path8" d="M28 27.3h-.7c-.3 0-.5-.2-.5-.5v-4.1c0-.3.2-.5.5-.5h.7c.3 0 .5.2.5.5v4.1c0 .2-.2.5-.5.5z" class="st0" style="fill:#000;fill-opacity:1;opacity:.75"/><path id="path12" d="M7.9 12.1v6.6c0 .3-.3.6-.6.6H2.7V18L.8 14.6c-.2-.4-.3-.8-.3-1.2v-1.6c0-.2.1-.3.3-.3h6.6c.2 0 .5.3.5.6z" class="st1" style="fill:#000;fill-opacity:1"/><path id="path14" d="M22.4 27.3h-1.7c-.3 0-.5-.2-.5-.5v-8.9c0-.3.2-.5.5-.5h1.7c.3 0 .5.2.5.5v8.9c0 .2-.2.5-.5.5z" class="st1" style="fill:#000;fill-opacity:1"/><path id="polygon16" d="M19.5 22.3v-2.4h-2.1z" class="st1" style="fill:#000;fill-opacity:1"/><path id="path18" d="M29.4 18h-.1c-.2 0-.4.1-.5.2l-1.3 1.4c-.1.1-.3.2-.5.2h-3.4v3.5h2.7v-.5c0-.7.6-1.3 1.3-1.3h.4c.7 0 1.3.6 1.3 1.3v.5h.3c.2 0 .4-.2.4-.4v-4.6c-.2-.2-.4-.3-.6-.3Z" class="st1" style="fill:#000;fill-opacity:1"/><path id="path20" d="m19.5 23.2-3.6-3.9 3.6-.1V18c0-.2 0-.3.1-.5h-1.8c-.4 0-.7-.1-1-.4l-6.2-5c-.2-.2-.3-.4-.4-.6h-1c-.3 0-.6.3-.6.6V19c0 .2.1.3.3.3h.5l7.3 7.1h2.8z" class="st1" style="fill:#000;fill-opacity:1"/><path id="rect22" d="M23.5 24h2.7v2.5h-2.7z" class="st1" style="fill:#000;fill-opacity:1"/><path id="path24" d="M31.8 16.1c.3 0 .6-.3.6-.6v-1.8c0-.3-.3-.6-.6-.6H31v-1.6h-3.6v2.4c0 .4-.1.7-.4 1L25.3 17c-.3.4-.8.6-1.3.6h-.7c.1.1.1.3.1.5v1.2h3.4l1.4-1.4c.3-.3.6-.4 1-.4h.1c.6 0 1 .5 1 1V23c0 .6-.5 1-1 1h-.2v2.5H31v-1.6h.8c.3 0 .6-.3.6-.6v-1.8c0-.3-.3-.6-.6-.6H31v-5.8z" class="st1" style="fill:#000;fill-opacity:1"/></g></g></g></g><style id="style2" type="text/css">.st0{fill:#483737}.st1{fill:#241c1c}</style></svg>