<svg xmlns="http://www.w3.org/2000/svg" id="svg5" width="512" height="512" version="1.1" viewBox="0 0 135.467 135.467"><g id="layer1"><rect id="rect846" width="124.383" height="124.383" x="5.542" y="5.542" ry="9.908" style="fill:#000;fill-opacity:.25098041;stroke:#000;stroke-width:4.73369;stroke-linejoin:round;stroke-opacity:1"/><g id="g922" transform="translate(17.97 17.97) scale(2.68993)"><path id="rect18" d="M1.5 11.6h2.7v6.7H1.5z" class="st1" style="fill:#000;fill-opacity:1"/><g id="g901"><path id="rect4" d="M.5 19.1h36v3.5H.5z" class="st0" style="fill:#000;fill-opacity:1;opacity:.75"/><path id="path6" d="m33.9 27.2-2.8 4.6H11.3s-1.7-.1-1.7-1.9c0-1.9-.2-2.3-1.5-2.3H3.8v-.3H10s.6.1.6 1.3 1 1.1 2 1.1h17.6l1.6-2.4h2.1z" class="st1" style="fill:#000;fill-opacity:1"/><path id="path14" d="M21.2 23.4v3.2h.9l1.6-.2 1.6.2h9.5c.4 0 .7-.5.7-.9v-2.4H21.2Z" class="st1" style="fill:#000;fill-opacity:1"/><path id="rect20" d="M4.8 23.4h.8v3.2h-.8z" class="st0" style="fill:#000;fill-opacity:1;opacity:.75"/><path id="rect22" d="M1.9 23.4h2.4v3.2H1.9z" class="st1" style="fill:#000;fill-opacity:1"/><path id="rect24" d="M15.5 23.4h1.6v3.2h-1.6z" class="st0" style="fill:#000;fill-opacity:1"/><path id="rect26" d="M17.7 23.4h3v3.2h-3z" class="st1" style="fill:#000;fill-opacity:1"/><path id="rect28" d="M6.1 23.4H15v3.2H6.1z" class="st1" style="fill:#000;fill-opacity:1"/><g id="g882" style="fill:#000"><g id="g873" style="fill:#000"><path id="path10" d="m31.1 12.3-.6-.6h-4.6c-1.4 0-1.2.5-2.3.5-1 0-.9-.5-2.4-.5v6.7h12.9v-6.1z" class="st1" style="fill:#000;fill-opacity:1"/><path id="path12" d="M12.8 11.4H7.9c-.2 0-.4.2-.4.4v5.1c0 .2.2.4.4.4h4.9c.2 0 .4-.2.4-.4v-5.1c0-.3-.2-.4-.4-.4z" class="st0" style="fill:#000;fill-opacity:1;opacity:.75"/><path id="polygon16" d="M5.6 8.7H1.5v2.7h3.3v7h.8z" class="st0" style="fill:#000;fill-opacity:1;opacity:.75"/><path id="path30" d="M17.2 18.4V9.7c.2-.4.3-.8.3-1.3 0-1-.5-1.9-1.1-1.9-.6 0-1.1.9-1.1 1.9 0 .5.1.9.3 1.3v8.7z" class="st0" style="fill:#000;fill-opacity:1;opacity:.75"/><path id="path32" d="M19 9.3V6.2c0-.5-.4-1-1-1H2.5c-.5 0-1 .4-1 1v2h4.6v10.2H15V9.8c-.2-.4-.3-.9-.3-1.4 0-1.4.7-2.4 1.6-2.4 1-.1 1.7 1 1.7 2.3 0 .5-.1 1-.3 1.4v8.6h3v-6.7C19 11.4 19 9.3 19 9.3Zm-5.3 7.6c0 .5-.4.9-.9.9H7.9c-.5 0-.9-.4-.9-.9v-5.1c0-.5.4-.9.9-.9h4.9c.5 0 .9.4.9.9z" class="st1" style="fill:#000;fill-opacity:1"/></g><path id="path34" d="M23.6 18.4H26v-6.7h-.1c-1.4 0-1.2.5-2.3.5z" class="st0" style="fill:#fff;fill-opacity:.01;opacity:1"/></g><path id="polygon36" d="M26 23.4h-2.4v3l1.6.3h.8z" class="st0" style="fill:#fff;fill-opacity:.01;opacity:1" transform="translate(.1 -.1)"/></g></g></g><style id="style2" type="text/css">.st0{fill:#483737}.st1{fill:#241c1c}</style></svg>