<svg xmlns="http://www.w3.org/2000/svg" xml:space="preserve" id="Layer_4_1_" width="512" height="512" x="0" y="0" version="1.1"><style id="style2" type="text/css">.st0{fill:#483737}</style><path id="path4" d="M495.967 418.667c1.344 0 4.033-1.345 4.033-4.033v-33.609c0-4.033-1.344-8.066-4.033-10.755-4.033-5.377-5.377-12.099-5.377-18.82V199.536c0-4.033 1.344-6.721 4.033-9.41 2.688-2.689 5.377-6.722 5.377-12.1v-80.66c0-1.345-1.344-4.034-4.033-4.034h-55.119c-1.344 0-4.033 1.345-4.033 4.034v317.267c0 1.344 1.345 4.033 4.033 4.033z" class="st0" style="fill:#4b4b4b;fill-opacity:1;stroke-width:13.4435"/><path id="path6" d="M24.1 237.18h-9.411c-1.345 0-2.689-1.345-2.689-2.69V108.122c0-1.344 1.344-2.688 2.689-2.688h9.41c1.345 0 2.689 1.344 2.689 2.688v126.37c0 1.344-1.344 2.688-2.689 2.688z" class="st0" style="fill:#4b4b4b;fill-opacity:1;stroke-width:13.4435"/><path id="path8" d="M213.653 250.623c-4.033 0-12.1-12.1-17.477-17.477-1.344-14.788-14.788-26.887-29.575-26.887-17.477 0-30.92 13.444-30.92 30.92 0 17.477 13.443 30.92 30.92 30.92 5.377 0 10.754-1.344 14.787-4.033 12.1 0 20.166 5.378 22.854 8.066l1.345 1.345c1.344 1.344 4.033 2.688 6.722 2.688 6.721 0 12.099-5.377 12.099-12.099 0-6.721-4.033-13.443-10.755-13.443z" class="st0" style="fill:#4b4b4b;fill-opacity:1;stroke-width:13.4435"/><path id="path10" d="M417.994 109.466H44.264c-2.688 0-5.377 2.688-5.377 5.377v111.581c0 2.69 2.689 5.378 5.377 5.378h82.006c1.344-20.165 18.82-36.298 40.33-36.298 20.166 0 36.298 14.788 40.331 33.61 4.033 6.72 8.066 9.41 9.41 10.754 8.067 1.344 16.133 6.722 18.822 14.788 24.198 17.476 44.363 43.02 44.363 64.529 0 21.51 18.821 40.33 34.953 51.085 12.1 9.41 26.887 13.444 43.02 13.444h29.575c6.722 0 16.133 4.033 22.854 8.066 5.378 4.033 13.444-1.345 13.444-8.066V116.187c0-4.033-2.689-6.721-5.378-6.721zm-263.493 17.476h91.416l4.033 6.722-4.033 6.722h-91.416l-4.033-6.722zm9.41 48.397H72.497l-4.033-6.722 4.033-6.722h91.416l4.033 6.722zm118.304 0h-91.416l-4.033-6.722 4.033-6.722h91.416l4.033 6.722zm-5.378-34.953-4.033-6.722 4.033-6.722h91.416l4.034 6.722-4.034 6.722zm59.152 212.408c-5.377 0-10.755-5.378-10.755-10.755 0-5.378 5.378-10.755 10.755-10.755 5.377 0 10.755 5.377 10.755 10.755 0 6.721-4.033 10.755-10.755 10.755zm55.118 0c-5.377 0-10.754-5.378-10.754-10.755 0-5.378 5.377-10.755 10.754-10.755 5.378 0 10.755 5.377 10.755 10.755 0 6.721-4.033 10.755-10.755 10.755zm9.41-177.455h-91.415l-4.033-6.722 4.033-6.722h91.416l4.033 6.722z" style="fill:#000;fill-opacity:1;stroke-width:13.4435"/></svg>