<svg xmlns="http://www.w3.org/2000/svg" id="svg5" width="512" height="512" version="1.1" viewBox="0 0 135.467 135.467"><g id="layer1"><rect id="rect846" width="124.383" height="124.383" x="5.542" y="5.542" ry="9.908" style="fill:#000;fill-opacity:.25098041;stroke:#000;stroke-width:4.73369;stroke-linejoin:round;stroke-opacity:1"/><g id="g846" style="fill:#000" transform="matrix(2.6677 0 0 2.6677 18.248 18.38)"><path id="path4" d="M36.4 30.6c.1 0 .3-.1.3-.3v-2.5c0-.3-.1-.6-.3-.8-.3-.4-.4-.9-.4-1.4V14.3c0-.3.1-.5.3-.7.2-.2.4-.5.4-.9v-6c0-.1-.1-.3-.3-.3h-4.1c-.1 0-.3.1-.3.3v23.6c0 .1.1.3.3.3z" class="st0" style="fill:#000;fill-opacity:1;opacity:.75"/><path id="path6" d="M1.3 17.1H.6c-.1 0-.2-.1-.2-.2V7.5c0-.1.1-.2.2-.2h.7c.1 0 .2.1.2.2v9.4c0 .1-.1.2-.2.2z" class="st0" style="fill:#000;fill-opacity:1;opacity:.75"/><path id="path8" d="M15.4 18.1c-.3 0-.9-.9-1.3-1.3-.1-1.1-1.1-2-2.2-2-1.3 0-2.3 1-2.3 2.3 0 1.3 1 2.3 2.3 2.3.4 0 .8-.1 1.1-.3.9 0 1.5.4 1.7.6l.1.1c.1.1.3.2.5.2.5 0 .9-.4.9-.9s-.3-1-.8-1z" class="st0" style="fill:#000;fill-opacity:1;opacity:.75"/><path id="path10" d="M30.6 7.6H2.8c-.2 0-.4.2-.4.4v8.3c0 .2.2.4.4.4h6.1c.1-1.5 1.4-2.7 3-2.7 1.5 0 2.7 1.1 3 2.5.3.5.6.7.7.8.6.1 1.2.5 1.4 1.1 1.8 1.3 3.3 3.2 3.3 4.8 0 1.6 1.4 3 2.6 3.8.9.7 2 1 3.2 1h2.2c.5 0 1.2.3 1.7.6.4.3 1-.1 1-.6V8.1c0-.3-.2-.5-.4-.5ZM11 8.9h6.8l.3.5-.3.5H11l-.3-.5Zm.7 3.6H4.9l-.3-.5.3-.5h6.8l.3.5Zm8.8 0h-6.8l-.3-.5.3-.5h6.8l.3.5Zm-.4-2.6-.3-.5.3-.5h6.8l.3.5-.3.5zm4.4 15.8c-.4 0-.8-.4-.8-.8s.4-.8.8-.8.8.4.8.8c0 .5-.3.8-.8.8zm4.1 0c-.4 0-.8-.4-.8-.8s.4-.8.8-.8.8.4.8.8c0 .5-.3.8-.8.8zm.7-13.2h-6.8l-.3-.5.3-.5h6.8l.3.5z" style="fill:#000;fill-opacity:1"/></g></g><style id="style2" type="text/css">.st0{fill:#483737}</style></svg>