<svg xmlns="http://www.w3.org/2000/svg" xml:space="preserve" id="Layer_4_1_" width="512" height="512" x="0" y="0" version="1.1"><style id="style2" type="text/css">.st0{fill:#241c1c}</style><g id="g72" style="fill:#000;fill-opacity:1" transform="matrix(13.4066 0 0 13.4066 7.978 7.978)"><g id="g54" style="fill:#000;fill-opacity:1"><path id="path4" d="M30.8 2.3H6.2L2.3 6.2v24.6l3.9 3.9h24.6l3.9-3.9V6.2l-3.9-3.9ZM32.2 30l-2.1 2.1H6.9L4.8 30V7.2c.8-.9 1.3-1.3 2.1-2.2h18.3l7 7z" class="st0" style="fill:#000;fill-opacity:1"/><g id="g16" style="fill:#000;fill-opacity:1"><path id="path6" d="M7.2 2v-.9c0-.4.4-.8.8-.8h2.4c.4 0 .8.4.8.8V2Z" class="st0" style="fill:#000;fill-opacity:1"/><path id="path8" d="M11.8 2v-.9c0-.4.4-.8.8-.8H15c.4 0 .8.4.8.8V2Z" class="st0" style="fill:#000;fill-opacity:1"/><path id="path10" d="M16.5 2v-.9c0-.4.4-.8.8-.8h2.4c.4 0 .8.4.8.8V2Z" class="st0" style="fill:#000;fill-opacity:1"/><path id="path12" d="M25.7 2v-.9c0-.4.4-.8.8-.8h2.4c.4 0 .8.4.8.8V2Z" class="st0" style="fill:#000;fill-opacity:1"/><path id="path14" d="M21.1 2v-.9c0-.4.4-.8.8-.8h2.4c.4 0 .8.4.8.8V2Z" class="st0" style="fill:#000;fill-opacity:1"/></g><g id="g28" style="fill:#000;fill-opacity:1"><path id="path18" d="M7.1 35v.9c0 .4.4.8.8.8h2.4c.4 0 .8-.4.8-.8V35Z" class="st0" style="fill:#000;fill-opacity:1"/><path id="path20" d="M11.8 35v.9c0 .4.4.8.8.8H15c.4 0 .8-.4.8-.8V35Z" class="st0" style="fill:#000;fill-opacity:1"/><path id="path22" d="M16.4 35v.9c0 .4.4.8.8.8h2.4c.4 0 .8-.4.8-.8V35Z" class="st0" style="fill:#000;fill-opacity:1"/><path id="path24" d="M25.7 35v.9c0 .4.4.8.8.8h2.4c.4 0 .8-.4.8-.8V35Z" class="st0" style="fill:#000;fill-opacity:1"/><path id="path26" d="M21 35v.9c0 .4.4.8.8.8h2.4c.4 0 .8-.4.8-.8V35Z" class="st0" style="fill:#000;fill-opacity:1"/></g><g id="g40" style="fill:#000;fill-opacity:1"><path id="path30" d="M2 29.8h-.9c-.4 0-.8-.4-.8-.8v-2.4c0-.4.4-.8.8-.8H2Z" class="st0" style="fill:#000;fill-opacity:1"/><path id="path32" d="M2 25.1h-.9c-.4 0-.8-.4-.8-.8v-2.4c0-.4.4-.8.8-.8H2Z" class="st0" style="fill:#000;fill-opacity:1"/><path id="path34" d="M2 20.5h-.9c-.4 0-.8-.4-.8-.8v-2.4c0-.4.4-.8.8-.8H2Z" class="st0" style="fill:#000;fill-opacity:1"/><path id="path36" d="M2 11.2h-.9c-.4 0-.8-.4-.8-.8V8c0-.4.4-.8.8-.8H2Z" class="st0" style="fill:#000;fill-opacity:1"/><path id="path38" d="M2 15.9h-.9c-.4 0-.8-.4-.8-.8v-2.4c0-.4.4-.8.8-.8H2Z" class="st0" style="fill:#000;fill-opacity:1"/></g><g id="g52" style="fill:#000;fill-opacity:1"><path id="path42" d="M35 29.8h.9c.4 0 .8-.4.8-.8v-2.4c0-.4-.4-.8-.8-.8H35Z" class="st0" style="fill:#000;fill-opacity:1"/><path id="path44" d="M35 25.2h.9c.4 0 .8-.4.8-.8V22c0-.4-.4-.8-.8-.8H35Z" class="st0" style="fill:#000;fill-opacity:1"/><path id="path46" d="M35 20.6h.9c.4 0 .8-.4.8-.8v-2.4c0-.4-.4-.8-.8-.8H35Z" class="st0" style="fill:#000;fill-opacity:1"/><path id="path48" d="M35 11.3h.9c.4 0 .8-.4.8-.8V8.1c0-.4-.4-.8-.8-.8H35Z" class="st0" style="fill:#000;fill-opacity:1"/><path id="path50" d="M35 15.9h.9c.4 0 .8-.4.8-.8v-2.4c0-.4-.4-.8-.8-.8H35Z" class="st0" style="fill:#000;fill-opacity:1"/></g></g><path id="path56" d="M9.3 15.8c0-3.1 6.4-5.7 14.4-5.7.9 0 1.8 0 2.7.1-2.1-.7-4.6-1.1-7.4-1.1-6.9 0-12.5 2.6-12.5 5.9 0 2.9 4.4 5.2 10.2 5.8-4.4-1-7.4-2.9-7.4-5z" class="st0" style="fill:#000;fill-opacity:1"/><path id="path58" d="M19.4 11.8c5 1 8.2 1.8 8.8 3.8.8 2.7-6.4 5.3-14.4 5.3-.9 0-1.7 0-2.6-.1 2 .7 4.5 1 7.2 1 6.8 0 12.2-2.4 12.2-5.4.1-2.4-2.2-5.6-11.2-4.6z" class="st0" style="fill:#000;fill-opacity:1"/><path id="path60" d="M18.5 12.9c-4.6 0-8.4 1.5-8.4 3.3 0 1.1 1.5 2.1 3.7 2.7-1-.5-1.7-1.2-1.7-2 0-1.7 3.2-3.1 7.1-3.1 3.9 0 7.1 1.4 7.1 3.1 0 .2-.1.4-.1.6.5-.4.7-.9.7-1.3-.1-1.8-3.8-3.3-8.4-3.3z" class="st0" style="fill:#000;fill-opacity:1"/><path id="path62" d="M26.2 19.3c.1.2.1.3.1.5 0 1.7-3.6 3.1-8.1 3.1-3 0-5.6-.6-7-1.6.9 1.4 3.9 2.5 7.5 2.5 4.3 0 7.8-1.5 7.8-3.4 0-.5-.1-.8-.3-1.1z" class="st0" style="fill:#000;fill-opacity:1"/><path id="path64" d="M12.5 24.6c0-1.3 3.3-2.4 7.5-2.4 2 0 3.7.2 5.1.6-1-1.2-3.8-2-7.1-2-4.1 0-7.5 1.3-7.5 2.9 0 1.3 2 2.3 4.9 2.7-1.7-.3-2.9-1-2.9-1.8z" class="st0" style="fill:#000;fill-opacity:1"/><path id="path66" d="M23.2 22c.3.6.5 1.2.5 1.9 0 2.6-2.6 4.6-5.8 4.6-1.7 0-3.3-.6-4.3-1.6.9 1.6 3 2.6 5.4 2.6 3.3 0 6-2 6-4.5-.2-1.2-.8-2.2-1.8-3z" class="st0" style="fill:#000;fill-opacity:1"/><path id="path68" d="M24.9 22.1c0 .1.1.2.1.3 0 2.3-3.1 4.2-7 4.2-3.3 0-6.1-1.4-6.8-3.3 0 .1-.1.2-.1.3 0 2.3 3.2 4.1 7.2 4.1s7.2-1.9 7.2-4.1c0-.5-.2-1-.6-1.5z" class="st0" style="fill:#000;fill-opacity:1"/><path id="path70" d="M24.3 22.5c-.1 1.2-2.9 2.2-6.4 2.2-2.8 0-5.1-.6-6-1.5-.1.1-.1.2-.1.4 0 1.3 3 2.3 6.7 2.3s6.7-1 6.7-2.3c-.1-.4-.4-.7-.9-1.1z" class="st0" style="fill:#000;fill-opacity:1"/></g></svg>