<svg xmlns="http://www.w3.org/2000/svg" width="165.688" height="128" viewBox="0 0 43.838 33.867"><path d="M23.621 33.63c-.822-.223-1.151-.414-1.308-.758-.15-.33-.152-.498-.006-.589.244-.153.62-1.44.621-2.13 0-.271.674-1.922 1.495-3.669l1.494-3.175 1.615-.005c.889-.003 1.616.006 1.616.02 0 .013-.679 1.618-1.508 3.567-.829 1.948-1.507 3.6-1.507 3.671 0 .07.509.357 1.13.636 1.014.455 1.131.565 1.131 1.067 0 .397-.123.615-.424.753-.233.106-.678.33-.988.498-.781.423-2.062.466-3.361.114zm2.805-.708c.243-.179.303-.332.178-.454-.358-.349-2.594-1.186-2.75-1.03-.087.087-.182.447-.211.801-.046.547.017.664.417.78.809.232 1.985.184 2.366-.097zm.084-5.29c.203-.244.107-.282-.72-.282-.9 0-1.305.174-1.034.445.236.236 1.522.117 1.754-.162zm.522-1.188c.061-.185-.142-.232-.818-.188-.53.034-.933.159-.981.304-.061.186.143.233.818.189.531-.035.934-.16.981-.305zm.566-1.13c.06-.186-.143-.233-.819-.19-.53.035-.933.16-.98.306-.062.185.142.232.818.188.53-.034.933-.16.98-.305zm.565-1.131c.061-.186-.143-.232-.818-.189-.53.035-.934.16-.981.305-.061.185.142.232.818.189.53-.035.933-.16.981-.305zm.613 8.114c.003-.285.336-1.197.74-2.026l.733-1.508-.103.879c-.098.835-.074.893.486 1.182.324.168.589.421.589.564 0 .25-1.864 1.427-2.259 1.427-.105 0-.189-.233-.186-.518zm-.806-1.062c-.372-.165-.46-.287-.314-.434.315-.315.125-1.063-.328-1.288-.4-.199-.388-.242.88-3.208l1.287-3.006 1.334-.056c.942-.039 1.334.012 1.334.171 0 .314-3.438 8.085-3.569 8.066-.058-.008-.339-.118-.624-.245zm-1.146-.619c-.223-.223-.134-.773.143-.88.345-.131.749.349.606.72-.113.294-.527.383-.75.16zm-4.661-2.08c-.205-.62-.193-.72.11-.895.914-.527 1.063-.833.93-1.905-.079-.627-.057-1.024.055-1.024.1 0 .58-.35 1.066-.777.486-.427.912-.745.948-.707.105.113-2.58 6.006-2.737 6.006-.078 0-.246-.314-.372-.698zm1.556-6.038c.057-.297.391-.335 3.312-.381l3.25-.052 1.202-2.398c.661-1.32 1.381-2.56 1.6-2.757.57-.514.508-1.333-.167-2.185-.607-.767-.682-1.125-.36-1.725.18-.337.38-.068 1.718 2.32.833 1.487 1.553 2.801 1.6 2.922.047.12-.182.827-.508 1.57-.326.744-.542 1.484-.48 1.645.206.537-.096.979-.803 1.175-.392.11-2.818.194-5.562.195-4.533 0-4.861-.022-4.802-.33zm8.172-.065c.166-.27-.384-.819-.652-.653-.36.222-.241.86.159.86.201 0 .423-.094.493-.207zm-7.061-1.331c.486-.909-.348-3.71-1.425-4.788-.33-.33-.453-.61-.376-.852.159-.502-.057-1.078-.492-1.31-.293-.157-.605-.063-1.56.47-1.06.593-1.346.668-2.554.668-2.093 0-2.089.005-2.089-2.55v-2.16h.595c.569 0 .58.014.274.353-.258.285-.31.658-.265 1.931l.056 1.578 1.413.05c1.28.044 1.507-.005 2.412-.528.55-.317 1.046-.7 1.104-.85.122-.32-.435-1.81-.754-2.013-.12-.077-.531-.14-.914-.142-.382-.001-.748-.088-.812-.191-.075-.122.81-.204 2.486-.231 1.755-.029 1.007-.075-2.297-.141l-4.9-.1-.056-1.17c-.037-.79.04-1.356.24-1.743l.297-.572h3.382v.648c0 .626-.028.651-.8.721-.441.04.025.087 1.036.105l1.837.033-.028-.612c-.026-.57-.034-.577-.107-.095-.065.432-.172.519-.637.519-.521 0-.556-.045-.514-.66l.044-.66h1.846c1.105 0 1.846.076 1.846.189 0 .104.206.188.458.188.331 0 .474.118.518.424a.535.535 0 0 0 .484.485c.359.05.424-.027.424-.506 0-.473-.085-.579-.518-.644-.285-.044.129-.092.92-.107l1.437-.028.692.844.693.845-5.145.05-5.145.05-.063.444c-.05.357-.152.426-.523.355-.253-.049-.505-.015-.56.075-.056.09.582.163 1.417.163 1.386 0 1.519-.032 1.519-.372 0-.36.18-.374 5.983-.453 3.29-.045 6.47-.14 7.066-.211.73-.087 1.084-.063 1.084.074 0 .112-.467 1.192-1.037 2.4-.57 1.209-1.036 2.41-1.036 2.67 0 .26.212.751.47 1.09.485.635.622 1.47.277 1.684-.107.066-.743 1.216-1.414 2.555l-1.22 2.435H27.14l.08-.549c.063-.422-.015-.6-.338-.773-.354-.19-.48-.163-.816.174-.338.337-.363.455-.164.773.219.35.185.375-.528.375-.722 0-.75-.022-.544-.407zm5.34-1.585c.544-.544.221-1.212-.585-1.212-.517 0-.797.791-.435 1.227.3.362.65.356 1.02-.015zm-.918-.253c-.152-.247.085-.77.35-.77.344 0 .659.392.547.682-.112.291-.733.352-.897.088zm.494-4.18c.496-.265 1.851-3.193 1.851-4 0-.95-.25-1.07-2.237-1.07-2.048 0-2.474.214-2.474 1.244 0 .717 1.183 3.449 1.645 3.797.384.29.714.297 1.215.03zM26.2 21.04c-.065-.17-.028-.4.082-.51.288-.287.832-.025.757.364-.084.434-.688.539-.839.146zm9.581-1.432c.448-1.16 3.255-7.903 3.445-8.274.132-.26.73-1.743 1.33-3.298.6-1.554 1.165-2.876 1.255-2.936.091-.061.079-.333-.027-.612-.229-.603-.119-.616 1.022-.127.71.305.855.444.761.738-.063.199-.026.416.082.483.305.189.231.977-.161 1.709l-.358.666-.52-1.327c-.287-.73-.55-1.3-.585-1.265-.035.035.152.693.415 1.462.301.878.441 1.608.376 1.963-.104.564-.938 2.092-2.64 4.841-.804 1.297-.878 1.508-.706 2.002.161.461.118.678-.258 1.31-.267.446-.645.805-.924.875-.26.065-.473.191-.473.28 0 .09-.48.526-1.068.97-.588.443-1.022.686-.966.54zm4.295-7.238c0-.155-.08-.282-.177-.282-.238 0-.408.294-.258.445.213.212.435.129.435-.163zm1.884-3.219c0-.164-.1-.264-.223-.223-.35.116-.408.522-.075.522a.3.3 0 0 0 .298-.299zm-7.515 5.981-1.53-2.828.835-1.84c1.065-2.348 1.006-2.522-.852-2.522h-1.323l.513-.441c.698-.6.704-1.527.014-2.12-.438-.378-.46-.444-.173-.546.18-.063.586-.51.902-.99l.576-.877 3.03.012c3.315.012 4.085.204 4.812 1.2.34.467.34.5-.017 1.32-.2.462-.634 1.493-.962 2.29-.58 1.408-.617 1.452-1.289 1.508-.5.041-.71.155-.759.411-.057.298.025.34.517.268.6-.088.666-.019.469.494-.072.188-.343.298-.734.298-.39 0-.661.11-.733.298-.169.44-.156.455.357.455.259 0 .47.11.47.242 0 .303-2.231 5.826-2.44 6.04-.084.086-.841-1.116-1.683-2.672zm3.928-6.144c.51-.616-.422-1.55-1.038-1.038-.281.233-.372.962-.148 1.186.224.224.952.133 1.186-.148zm-1.055-.197c-.065-.17-.028-.4.082-.51.287-.287.831-.024.756.365-.083.434-.687.539-.838.145zm2.764-1.802c.197-.37.164-.385-.698-.33-.685.044-.922.139-.969.388-.098.52 1.386.468 1.667-.058zm.565-1.13c.251-.47.173-1.157-.143-1.261-.128-.042-.376.227-.553.597l-.322.674h-1.273c-.7 0-1.325.085-1.39.189-.074.12.53.188 1.679.188 1.617 0 1.815-.038 2.002-.386zm-3.876-1.92c.364-.52.01-.725-.364-.212-.242.33-.272.331-.616.02-.199-.18-.518-.327-.71-.327-.312 0-.302.047.096.47.549.586 1.204.605 1.594.049zM2.955 15.223c0-.658.225-.896.471-.498.24.387 1.01.19 1.4-.359.58-.813.553-2.626-.046-3.189-.458-.43-1.155-.542-1.356-.218-.2.324-.469.004-.469-.557 0-.368-.113-.562-.365-.628-.263-.069-.335-.206-.26-.493.103-.394.159-.398 6.007-.398h5.903l.057.801c.058.797.062.801.86.859.707.051.8.111.8.518 0 .42-.075.46-.841.46-.649 0-.888-.086-1.043-.376-.184-.344-.395-.377-2.419-.377-2.337 0-2.669.107-2.669.862 0 .226-.127.516-.283.645-.403.335-.351 1.363.094 1.84.346.372.526.398 2.286.331 1.05-.04 2-.163 2.111-.274.11-.11.778-.2 1.483-.2h1.281v.543c0 .622-.141.668-2.732.875-.83.066-1.72.16-1.979.21-.259.05-2.23.14-4.38.2l-3.911.109zm.5-.843c-.42-.463-.424-2.323-.007-2.96.654-.998 1.391-.285 1.391 1.346 0 1.658-.654 2.42-1.384 1.614zm5.653-.565c-.883-.976.535-2.362 1.465-1.432.35.35.39 1.23.07 1.55-.338.338-1.18.273-1.535-.118zm2.307.109c-.01-.026-.04-.38-.065-.785-.056-.905-.625-1.43-1.554-1.43-.44 0-.628-.076-.576-.235.056-.167.743-.25 2.371-.288 1.956-.045 2.293-.01 2.293.235 0 .224.232.289 1.037.289h1.036v1.696h-2.826v-1.05c0-.98-.028-1.045-.424-.989-.372.053-.432.187-.483 1.09-.046.81.012 1.083.272 1.273.29.212.246.241-.366.241-.382 0-.704-.021-.715-.047zm8.795-.848c.061-.389.022-.94-.088-1.225-.188-.49-.17-.518.34-.518.63 0 .914.288 1.074 1.091.104.516.043.63-.517.97-.862.527-.938.497-.81-.318zM2.39 7.97c0-.19.155-.488.344-.66.3-.27.92-.311 4.807-.311h4.462l.604-1.225c.407-.824.714-1.225.94-1.225.448 0 .426.215-.132 1.316-.284.56-.395.971-.281 1.042.103.064.239-.017.3-.179.063-.162.315-.294.56-.294.303 0 .538-.178.733-.556.385-.744.37-.791-.214-.645-.424.107-.483.075-.377-.2.069-.18.125-.362.125-.405 0-.043 3.192-.079 7.093-.079 6.532 0 7.113.026 7.35.33.243.314.265.314.453 0 .155-.259.449-.328 1.366-.321l1.169.008-.754.397c-1.246.657-1.488 1.245-.941 2.293.155.297.281.573.281.613 0 .04-.418.072-.93.072-.871 0-.963-.047-1.46-.755-.292-.416-.7-.8-.907-.854-.208-.054-3.002-.074-6.21-.045l-5.834.052-.479.979-.48.978-5.794.01c-5.51.011-5.794-.005-5.794-.336Zm28.067-.989c-.475-.888.48-1.877 1.31-1.357.378.236.496 1.121.198 1.48-.345.416-1.26.342-1.508-.123zM1.332 6.917c-.057-.148.115-.592.383-.986.267-.393.486-.865.486-1.049 0-.274.167-.333.942-.333.519 0 .943.047.943.104 0 .057-.13.354-.288.66-.286.552-.284.555.248.555.426 0 .6-.134.85-.66.29-.61.378-.659 1.165-.659.917 0 .99.084.563.649-.389.513-.347.67.179.67.317 0 .579-.2.863-.66.377-.609.478-.659 1.34-.659h.93l-.287.556c-.377.73-.369.763.187.763.356 0 .552-.163.789-.66.295-.618.37-.659 1.221-.659.5 0 .908.046.908.1 0 .056-.214.522-.475 1.037l-.474.936H7.403c-3.683 0-4.44.046-4.636.283-.3.36-1.298.368-1.435.012ZM.22 6.29c-.105-.076-.202-.371-.215-.656-.024-.498.01-.518.897-.518.507 0 .922.05.922.112s-.175.358-.39.66c-.38.533-.828.682-1.214.402Zm1.984-2.446c.001-.182.054-.52.116-.754.113-.422.135-.424 3.828-.424H9.86l.443-.471c.243-.26.623-.471.843-.471.348 0 .39.088.322.67-.135 1.161.035 1.201 5.1 1.208 2.862.004 4.476-.062 4.476-.182s-1.57-.189-4.334-.189c-2.764 0-4.334-.068-4.334-.188 0-.104-.127-.189-.283-.189a.283.283 0 0 1-.282-.282c0-.156.136-.283.302-.283.192 0 .263-.104.195-.283-.087-.224.06-.282.713-.282.557 0 .857.091.93.282.06.156.324.283.586.283.298 0 .477-.106.477-.283 0-.375.918-.375 1.062 0 .063.163.345.283.665.283.323 0 .508-.079.44-.188-.074-.12.474-.189 1.51-.189 1.61 0 2.164.193 2.164.752 0 .117.092.156.204.087.112-.07.155-.32.096-.555-.06-.24-.005-.51.126-.613.131-.104 1.31-.168 2.684-.146l2.45.038.774-.737.774-.737 1.082.947c.768.671 1.446 1.065 2.335 1.355.689.225 1.314.464 1.389.531.074.068-.079.375-.34.684-.37.435-.428.464-.265.127.367-.758.088-.886-.359-.164-.556.9-1.047.99-.573.104.376-.702.063-.795-.346-.102-.324.548-.523.69-.966.69-.435 0-.572-.093-.619-.422-.09-.626-.72-.681-.72-.062v.484h-13.19c-12.438 0-13.19-.018-13.188-.33zm26.48-2.13c.185-.302-.06-1.065-.383-1.188-.67-.258-1.294.567-.842 1.113.264.317 1.045.365 1.224.074zm-1.003-.224c-.278-.335.009-.763.453-.677.433.083.477.788.054.87a.59.59 0 0 1-.507-.193zm-25.004.618c-.061-.1-.004-.354.128-.565.227-.363.423-.385 3.451-.385 2.63 0 3.288.055 3.638.3.34.238.382.355.207.565-.175.212-.945.266-3.766.266-2.06 0-3.593-.076-3.658-.18z" style="fill:#000;fill-opacity:1;stroke-width:.188435"/></svg>