<svg xmlns="http://www.w3.org/2000/svg" width="512" height="512"><g style="display:inline"><g style="display:inline"><path d="M54.1 12.26H24.04L12.66 32.22l16 26.96c5.009-.003 7.032-.05 9.746 4.522L56.7 94.53c2.653 5.397-2.06 9.743-1.766 10.273l19.512 35.088h11.266l19.534-35.088c-2.858-6.104-2.497-7.227-.745-10.273l17.738-30.828c2.279-3.96 5.474-5.565 9.729-4.522l15.24-26.96L135.842 12H106.44c-.415 2.58-3.994 5.977-7.136 6l-39.167.288c-2.132.015-6.037-4.028-6.037-6.028z" style="fill:#616d1d;fill-opacity:.75;stroke:#cee255;stroke-width:1px;stroke-linecap:butt;stroke-linejoin:miter;stroke-opacity:1" transform="matrix(3.05 0 0 3.06289 12 24.572)"/><path d="M18.38 0 0 32.22 68 151h24l68-118.78L141 0Zm38.886 3.744 4.158 5.876 37.03-.08 3.759-5.796h36.81l16.215 28.476-19.353 32.873-6.239.564-19.435 33.333 3.2 5.813-23.434 42.251H70.38l-23.914-42.251 3.199-5.813-18.715-33.333-7.037-.564L4.8 32.22l15.81-28.476Z" style="display:inline;fill:#cee255;fill-opacity:1;stroke:none;stroke-width:1.00333px;stroke-linecap:butt;stroke-linejoin:miter;stroke-opacity:1" transform="matrix(3.05 0 0 3.06289 12 24.572)"/></g><path d="M107.328 26.456 55.886 77.014h18.738l-12.283 33.572L63.694 113l48.76-47.475H93.363ZM104.86 99.058l2.062 6.938c-12 8.19-21.434 8.207-34.062 5.187l5.875-5.812c12.744 1.906 18.783-1.102 26.125-6.313z" style="fill:#e2ee9c;fill-opacity:1;stroke:none;stroke-width:1px;stroke-linecap:butt;stroke-linejoin:miter;stroke-opacity:1" transform="matrix(3.0833 0 0 3.0833 -5.972 13.6)"/><path d="m109.556 95.798 15.738-27.415c-1.271-11.51-5.165-21.738-16.287-29.73l-2.651 6.806c20.102 19.134 12.144 34.663 3.2 50.34zM94.797 31.683l-5.5 6c-8.681-1.13-17.109.473-25.125 6.5l-2.625-7.25c12.549-7.505 22.997-6.76 33.25-5.25zM46.672 53.183l7.75 1.875c-4.211 7.654-6.478 14.165-3.411 22.977l-7.162-12.088c-.142-5.854 1.413-8.308 2.823-12.764zM55.886 34.5 44.749 47.315l13.081 2.916 2.917-3.093z" style="fill:#e2ee9c;fill-opacity:1;stroke:none;stroke-width:1px;stroke-linecap:butt;stroke-linejoin:miter;stroke-opacity:1" transform="matrix(3.0833 0 0 3.0833 -5.972 13.6)"/></g></svg>