<svg xmlns="http://www.w3.org/2000/svg" xmlns:xlink="http://www.w3.org/1999/xlink" xml:space="preserve" width="512" height="512" viewBox="0 0 135.467 135.467"><defs><linearGradient id="g"><stop offset="0" style="stop-color:#d22407;stop-opacity:1"/><stop offset=".512" style="stop-color:#ea7f02;stop-opacity:1"/><stop offset="1" style="stop-color:#f6ca07;stop-opacity:1"/></linearGradient><linearGradient id="f"><stop offset="0" style="stop-color:#f09a03;stop-opacity:1"/><stop offset="1" style="stop-color:#f6b803;stop-opacity:1"/></linearGradient><linearGradient id="e"><stop offset="0" style="stop-color:#f09a03;stop-opacity:1"/><stop offset="1" style="stop-color:#f6b803;stop-opacity:1"/></linearGradient><linearGradient id="d"><stop offset="0" style="stop-color:#ec8102;stop-opacity:1"/><stop offset="1" style="stop-color:#ef9303;stop-opacity:1"/></linearGradient><linearGradient id="c"><stop offset="0" style="stop-color:#ec8102;stop-opacity:1"/><stop offset="1" style="stop-color:#ef9303;stop-opacity:1"/></linearGradient><linearGradient id="b"><stop offset="0" style="stop-color:#dd3501;stop-opacity:1"/><stop offset="1" style="stop-color:#ea7802;stop-opacity:1"/></linearGradient><linearGradient id="a"><stop offset="0" style="stop-color:#dd3501;stop-opacity:1"/><stop offset="1" style="stop-color:#ea7802;stop-opacity:1"/></linearGradient><linearGradient xlink:href="#a" id="l" x1="117.412" x2="78.238" y1="57.742" y2="58.629" gradientUnits="userSpaceOnUse"/><linearGradient xlink:href="#b" id="i" x1="96.086" x2="96.068" y1="120.622" y2="75.087" gradientUnits="userSpaceOnUse"/><linearGradient xlink:href="#c" id="n" x1="62.129" x2="62.051" y1="67.333" y2="57.231" gradientUnits="userSpaceOnUse"/><linearGradient xlink:href="#d" id="k" x1="98.2" x2="98.154" y1="67.634" y2="57.381" gradientUnits="userSpaceOnUse"/><linearGradient xlink:href="#e" id="m" x1="57.934" x2="38.659" y1="59.078" y2="59.235" gradientUnits="userSpaceOnUse"/><linearGradient xlink:href="#f" id="j" x1="58.21" x2="40.499" y1="32.954" y2="33.111" gradientUnits="userSpaceOnUse"/><linearGradient xlink:href="#g" id="h" x1="80.529" x2="80.615" y1="140.555" y2="17.946" gradientUnits="userSpaceOnUse"/></defs><path d="M54.1 12H24.04L12.66 31.36l16 27.82c5.008-.003 7.032-.05 9.746 4.522L56.7 94.53c2.653 5.397-2.06 9.743-1.766 10.273l19.512 35.088h11.266l19.534-35.088c.33-.598-4.12-5.21-.745-10.273l19.36-30.828c2.738-4.358 3.05-4.474 8.107-4.522l15.24-27.82L135.842 12H106.44c-.415 2.58-3.994 6-7.136 6H60.137c-2.132 0-6.037-4-6.037-6Z" style="fill:#366654;fill-opacity:1;stroke:url(#h);stroke-width:1px;stroke-linecap:butt;stroke-linejoin:miter;stroke-opacity:1" transform="matrix(.80698 0 0 .80698 3.175 6.806)"/><path d="m87.039 120.994 8.643.005 9.1-16.288c-1.156-3.02-3.425-5.111-.89-9.739 1.636-2.606 3.444-5.672 5.444-9V71.996H87.04Z" style="display:inline;fill:url(#i);fill-opacity:1;stroke:none;stroke-width:1.25538px;stroke-linecap:butt;stroke-linejoin:miter;stroke-opacity:1" transform="matrix(.80698 0 0 .80698 3.175 6.806)"/><path d="M18.38 0 0 31.36 68 151h24l68-119.64L141 0Zm38.886 3.744 4.158 5.796h37.03l3.759-5.796h36.358l16.667 27.616-19.353 33.975h-6.239l-19.435 33.01 3.2 6.28-23.434 42.429H70.38l-23.914-42.43 3.199-6.28-18.715-33.009h-7.037L4.8 31.36l15.77-27.616Z" style="display:inline;fill:#6bcea8;fill-opacity:1;stroke:none;stroke-width:1.00333px;stroke-linecap:butt;stroke-linejoin:miter;stroke-opacity:1" transform="matrix(.80698 0 0 .80698 3.175 6.806)"/><g style="display:inline;fill:#b5e5d3;fill-opacity:1"><path d="M58.167 27.408v11.405c-8.631 0-12.946-2.096-21.674-5.702 8.678-3.223 13.043-5.703 21.674-5.703z" style="display:inline;fill:url(#j);fill-opacity:1;stroke:none;stroke-width:1px;stroke-linecap:butt;stroke-linejoin:miter;stroke-opacity:1" transform="matrix(0 .93497 -1.09767 0 118.354 -6.422)"/></g><path d="M89.891 54h15.826v8l3.594 6h-22.42l3-6z" style="display:inline;fill:url(#k);fill-opacity:1;stroke:none;stroke-width:1px;stroke-linecap:butt;stroke-linejoin:miter;stroke-opacity:1" transform="matrix(.80698 0 0 .80698 3.175 6.806)"/><path d="M92.499 127H87c2 1 2 5 0 6 0 1 0 2 1 2z" style="display:inline;fill:#db2901;fill-opacity:1;stroke:none;stroke-width:1px;stroke-linecap:butt;stroke-linejoin:miter;stroke-opacity:1" transform="matrix(.80698 0 0 .80698 3.175 6.806)"/><g style="fill:#b5e5d3;fill-opacity:1"><path d="M118.581 50.542v6.979l-14.056 6.656c-1.215-.339-3.532-2.73-8.385-1.463-2.589 1.193-5.178 2.531-8.05 4.002H76.288V50.542z" style="display:inline;fill:url(#l);fill-opacity:1;stroke:none;stroke-width:1px;stroke-linecap:butt;stroke-linejoin:miter;stroke-opacity:1" transform="matrix(0 .93497 -1.09767 0 118.354 -6.422)"/><path d="M58.167 53.782v11.063c-8.631 0-13.314-2.097-21.674-5.532 8.148-3.242 13.043-5.531 21.674-5.531z" style="display:inline;fill:url(#m);fill-opacity:1;stroke:none;stroke-width:1px;stroke-linecap:butt;stroke-linejoin:miter;stroke-opacity:1" transform="matrix(0 .93497 -1.09767 0 118.354 -6.422)"/><path d="M54.725 54H69.81v8l4 6H51.725l3-6z" style="display:inline;fill:url(#n);fill-opacity:1;stroke:none;stroke-width:1px;stroke-linecap:butt;stroke-linejoin:miter;stroke-opacity:1" transform="matrix(.80698 0 0 .80698 3.175 6.806)"/><path d="M67.83 127h5.54c-2 1-2 5 0 6 0 1-.076 2-1.076 2z" style="display:inline;fill:#db2a01;fill-opacity:1;stroke:none;stroke-width:1px;stroke-linecap:butt;stroke-linejoin:miter;stroke-opacity:1" transform="matrix(.80698 0 0 .80698 3.175 6.806)"/></g></svg>