<svg xmlns="http://www.w3.org/2000/svg" width="512" height="512"><g style="display:inline"><g style="display:inline"><path d="m316.673 216.56-7.852 13.815 2.343 1.117h57.857l5.875-8.12h58.86l23.992 40.987-30.24 53.612h-9.746l-30.37 51.236 5 9.746-36.615 65.858h-30.619l-37.365-64.606 4.998-9.998-29.24-51.736-4.475-.256-6.713 12.16 69.076 120.56h37.5l106.25-186.67-29.687-47.704z" style="fill:#f49a4a;fill-opacity:1;stroke:none;stroke-width:1.5625px;stroke-linecap:butt;stroke-linejoin:miter;stroke-opacity:1"/><path d="M381.502 233.748c-.649 4.03-6.241 9.375-11.15 9.375h-61.198c-1.337 0-4.674-2.195-6.33-3.602l-37.703 67.024c3.643.487 7.216 3.168 10.076 7.988l28.586 48.166c4.145 8.433-3.22 15.225-2.76 16.053l30.487 54.824h17.603l30.524-54.824c.424-.753-6.655-6.753-1.164-16.053l28.44-48.166c3.944-6.68 6.379-7.257 14.476-7.066L445.2 264.82l-17.76-31.072z" style="fill:#815126;fill-opacity:.75;stroke:#f49a4a;stroke-width:1.5625px;stroke-linecap:butt;stroke-linejoin:miter;stroke-opacity:1"/><path d="M119 28v16h-7c0-2-3-2-3 0H68l-6-3V31l6-3h41c0 2 3 2 3 0zM119 50.864v16h-7c0-2-2.964-2-2.964 0H68l-6-3v-10l6-3h41.036c0 2 2.964 2 2.964 0zM116.204 73.728l-9.44 16H68l-6-3v-10l6-3h41c0 2 3 2 3 0zM103.043 96.593c-1.251 4.42 1.016 6.579 1.678 8.138l-4.384 7.862H68l-6-3v-10l6-3z" style="fill:#f9cca4;fill-opacity:1;stroke:none;stroke-width:1px;stroke-linecap:butt;stroke-linejoin:miter;stroke-opacity:1" transform="translate(215.189 214.998) scale(1.5625)"/><path d="M306.525 263.422c-5.533-.015-10.583.111-15.59.974l-6.812 11.987c8.068 2.621 15.693 2.663 24.816 2.678v-15.625a527.91 527.91 0 0 0-2.414-.014z" style="display:inline;fill:#f9cca4;fill-opacity:1;stroke:none;stroke-width:1.5625px;stroke-linecap:butt;stroke-linejoin:miter;stroke-opacity:1"/><path d="M60 53.864v10c-8.185-.023-14.571 0-22.927-5 8.067-5.06 14.732-5.02 22.927-5zM60 76.729v10c-8.148.019-7.517-.287-7.517-.287l-5.065-8.533c4.219-.808 4.488-1.123 12.582-1.18ZM60 99.593v10h-1.83l-2.723-4.872c1.16-1.892 2.005-3.251 2.394-5.128z" style="display:inline;fill:#f9cca4;fill-opacity:1;stroke:none;stroke-width:1px;stroke-linecap:butt;stroke-linejoin:miter;stroke-opacity:1" transform="translate(215.189 214.998) scale(1.5625)"/></g><g style="display:inline"><path d="M54.1 12H24.04L12.66 31.36l16 27.82c5.008-.003 7.032-.05 9.746 4.522L56.7 94.53c2.653 5.397-2.06 9.743-1.766 10.273l19.512 35.088h11.266l19.534-35.088c.33-.598-4.12-5.21-.745-10.273l19.36-30.828c2.738-4.358 3.05-4.474 8.107-4.522l15.24-27.82L135.842 12H106.44c-.415 2.58-3.994 6-7.136 6H60.137c-2.132 0-6.037-4-6.037-6Z" style="fill:#366654;fill-opacity:.75;stroke:#6bcea8;stroke-width:1px;stroke-linecap:butt;stroke-linejoin:miter;stroke-opacity:1" transform="translate(15.422 33.421) scale(2.2875)"/><path d="m87.039 120.994 8.643.005 9.1-16.288c-1.156-3.02-3.425-5.111-.89-9.739 1.636-2.606 3.444-5.672 5.444-9V71.996H87.04Z" style="display:inline;fill:#b5e5d3;fill-opacity:1;stroke:none;stroke-width:1.25538px;stroke-linecap:butt;stroke-linejoin:miter;stroke-opacity:1" transform="translate(15.422 33.421) scale(2.2875)"/><path d="M18.38 0 0 31.36 68 151h24l68-119.64L141 0Zm38.886 3.744 4.158 5.796h37.03l3.759-5.796h36.358l16.667 27.616-19.353 33.975h-6.239l-19.435 33.01 3.2 6.28-23.434 42.429H70.38l-23.914-42.43 3.199-6.28-18.715-33.009h-7.037L4.8 31.36l15.77-27.616Z" style="display:inline;fill:#6bcea8;fill-opacity:1;stroke:none;stroke-width:1.00333px;stroke-linecap:butt;stroke-linejoin:miter;stroke-opacity:1" transform="translate(15.422 33.421) scale(2.2875)"/><g style="display:inline;fill:#b5e5d3;fill-opacity:1"><g style="fill:#b5e5d3;fill-opacity:1"><path d="M118.581 50.542v6.979l-14.056 6.656c-1.215-.339-3.532-2.73-8.385-1.463-2.589 1.193-5.178 2.531-8.05 4.002H76.288V50.542z" style="fill:#b5e5d3;fill-opacity:1;stroke:none;stroke-width:1px;stroke-linecap:butt;stroke-linejoin:miter;stroke-opacity:1" transform="matrix(0 2.65031 -3.11152 0 341.914 -4.078)"/></g><path d="M58.167 27.408v11.405c-8.631 0-12.946-2.096-21.674-5.702 8.678-3.223 13.043-5.703 21.674-5.703zM58.167 53.782v11.063c-8.631 0-13.314-2.097-21.674-5.532 8.148-3.242 13.043-5.531 21.674-5.531z" style="display:inline;fill:#b5e5d3;fill-opacity:1;stroke:none;stroke-width:1px;stroke-linecap:butt;stroke-linejoin:miter;stroke-opacity:1" transform="matrix(0 2.65031 -3.11152 0 341.914 -4.078)"/></g><path d="M54.725 54H69.81v8l4 6H51.725l3-6zM89.891 54h15.826v8l3.594 6h-22.42l3-6zM92.499 127H87c2 1 2 5 0 6 0 1 0 2 1 2zM67.83 127h5.54c-2 1-2 5 0 6 0 1-.076 2-1.076 2z" style="display:inline;fill:#b5e5d3;fill-opacity:1;stroke:none;stroke-width:1px;stroke-linecap:butt;stroke-linejoin:miter;stroke-opacity:1" transform="translate(15.422 33.421) scale(2.2875)"/></g></g></svg>