<svg xmlns="http://www.w3.org/2000/svg" width="512" height="512"><g style="display:inline"><path d="M18.38 1 0 31.81 68 151h24l68-119.469L141 1Zm38.886 4.36 4.158 5.197h37.03l3.759-5.198h37.67l15.355 26.233-19.353 34.31h-6.239l-19.435 32.791 3.2 6.239-23.434 42.148H70.38l-23.914-41.348 3.199-6.398-18.715-33.111-7.037-.56L4.8 31.962 20.365 5.36Z" style="fill:#f49a4a;fill-opacity:1;stroke:none;stroke-width:1px;stroke-linecap:butt;stroke-linejoin:miter;stroke-opacity:1" transform="matrix(3.05 0 0 3.05 12 24.2)"/><path d="M54.1 12H24.04L12.66 31.887l16 27.293c5.009-.003 7.032-.05 9.746 4.522L56.7 94.53c2.653 5.397-2.06 9.743-1.766 10.273l19.512 35.088h11.266l19.534-35.088c.272-.482-4.259-4.322-.745-10.273l18.202-30.828c2.524-4.275 4.083-4.644 9.265-4.522l15.24-27.293L135.842 12H106.44c-.415 2.58-3.994 6-7.136 6H60.137c-2.132 0-6.037-4-6.037-6Z" style="fill:#825226;fill-opacity:.75;stroke:#f49a4a;stroke-width:1px;stroke-linecap:butt;stroke-linejoin:miter;stroke-opacity:1" transform="matrix(3.05 0 0 3.05 12 24.2)"/><path d="M119 28v16h-7c0-2-3-2-3 0H68l-6-3V31l6-3h41c0 2 3 2 3 0zM119 50.864v16h-7c0-2-2.964-2-2.964 0H68l-6-3v-10l6-3h41.036c0 2 2.964 2 2.964 0zM116.204 73.728l-9.44 16H68l-6-3v-10l6-3h41c0 2 3 2 3 0zM103.043 96.593c-1.251 4.42 1.016 6.579 1.678 8.138l-4.384 7.862H68l-6-3v-10l6-3z" style="fill:#f9cca4;fill-opacity:1;stroke:none;stroke-width:1px;stroke-linecap:butt;stroke-linejoin:miter;stroke-opacity:1" transform="matrix(3.05 0 0 3.05 12 24.2)"/><path d="M60 31v10c-8.394-.013-14.803-.058-22.927-5C45.14 31.056 51.649 30.936 60 31ZM60 53.864v10c-8.185-.023-14.571 0-22.927-5 8.067-5.06 14.732-5.02 22.927-5zM60 76.729v10c-8.148.019-7.517-.287-7.517-.287l-5.065-8.533c4.219-.808 4.488-1.123 12.582-1.18ZM60 99.593v10h-1.83l-2.723-4.872c1.16-1.892 2.005-3.251 2.394-5.128z" style="display:inline;fill:#f9cca4;fill-opacity:1;stroke:none;stroke-width:1px;stroke-linecap:butt;stroke-linejoin:miter;stroke-opacity:1" transform="matrix(3.05 0 0 3.05 12 24.2)"/></g></svg>