<svg xmlns="http://www.w3.org/2000/svg" xml:space="preserve" id="svg29" width="512" height="512" style="clip-rule:evenodd;fill-rule:evenodd;image-rendering:optimizeQuality;shape-rendering:geometricPrecision;text-rendering:geometricPrecision" version="1.1"><defs id="defs4"><style id="style2" type="text/css">.fil1{fill:#8a0020}.fil0{fill:#cb013f}</style></defs><g id="Layer_x0020_1"><g id="_1573068069456" transform="translate(12 41.547) scale(.95313)"><path id="polygon9" d="m324 375 45-79h23l49-56h40z" class="fil0" style="fill:#cb013f"/><path id="path11" d="M281 360c1-2 1-1 0 0z" class="fil1"/><path id="path19" d="M231 360c-1-2-1-1 0 0z" class="fil1"/><g id="g12902"><path id="polygon7" d="M456 145h56L396 278h-16z" class="fil0" style="fill:#cb013f"/><path id="path13" d="M470 68v35l-40-67h-15l47 81-176 306h-60L50 117l47-81H82l-40 67V68l33-56h121l18 24h84l18-24h121ZM197 47h-93l-9 14 12 18-15 26H70l-6 11 48 84h17l51 87-10 15 63 109h5l7.243-27h24L274 411h5l63-109-10-15 51-87h17l48-84-6-11h-22l-15-26 12-18-9-14h-93l-9 15H206Z" style="fill:#ca003e"/><path id="path15" d="m290 23 8-11 8-12H206l8 12 8 11h68z" class="fil0"/><path id="path17" d="m201 398-97-83 106 135h92l106-135-97 83-20 34h-70ZM56 145H0l116 133h16zm132 230-45-79h-23l-49-56H31Z" class="fil0"/><path id="path21" d="m111 60 12 18-23 40H81c13 24 25 45 39 68 8.521-1.335 16.424.67 20 7l49 82c5.377 10.347 3.58 22.012-3 31.04L232 382v-12h48v12l43.98-75.96c-3.824-9.2-6.146-20.86-.98-31.04l49-82c4.059-6.896 12.586-7 20-7 14-23 26-44 39-68h-19l-23-40 12-18h-78c-1.56 8.204-8.987 15.855-17 16H206c-7.622-.102-16.854-8.475-17-16z" style="fill:#ca003e;fill-opacity:.75;stroke:#ff2d59;stroke-width:10;stroke-miterlimit:4;stroke-dasharray:none;stroke-opacity:1"/><path id="path25" d="M189.626 265.803c8 8 26.354 18.197 37.354 22.197 14.072 5.56 5.571 24.223-4 23-8.992-2.482-20.717-8.078-27.603-11.976 4.798-18.354-1.307-24.577-5.751-33.22zM366.752 192l-14.366 24H316.98c-15.768-.409-16.043-23.575 0-24zm-44.466 74.421c-4.908 7.303-9.852 15.632-5.785 32.684-7 4-16.521 7.895-23.521 10.895-17.64 3.208-20.43-19.102-8-22 11-4 29.306-13.579 37.306-21.579zm-54.306 98.525h-24V265c0-6 5-11 12-11s12 5 12 11zM159.449 216l-14.201-24h49.732c15.915.524 15.584 23.621 0 24zm84.53-134.946h24V143c-.315 12.838-24.501 13.316-24 0zm12 102.946c11 0 20 9 20 20s-9 20-20 20-20-9-20-20 9-20 20-20zm106-17c-11-31-35-57-69-69-18.71-5.133-24.135 17.48-8 23 27 9 46 29 55 54 6.602 15.926 26.638 3.107 22-8zm-143-69c-31 11-57 36-69 69-5.666 16.585 18.97 20.999 22 8 10-27 30-46 55-54 15.708-7.104 5.846-28.058-8-23z" class="fil1"/></g></g></g></svg>