<svg xmlns="http://www.w3.org/2000/svg" xml:space="preserve" id="svg29" width="512" height="512" style="clip-rule:evenodd;fill-rule:evenodd;image-rendering:optimizeQuality;shape-rendering:geometricPrecision;text-rendering:geometricPrecision" version="1.1"><defs id="defs4"><style id="style2" type="text/css">.fil1{fill:#8a0020}.fil0{fill:#cb013f}</style></defs><g id="Layer_x0020_1"><g id="g945" transform="matrix(.95313 0 0 .95313 12 41.547)"><g id="_1573068069456" style="clip-rule:evenodd;fill-rule:evenodd;image-rendering:optimizeQuality;shape-rendering:geometricPrecision;text-rendering:geometricPrecision"><path id="polygon9-3" d="m324 375 45-79h23l49-56h40z" class="fil0" style="fill:#cb013f"/><path id="path11-4" d="M281 360c1-2 1-1 0 0z" class="fil1"/><path id="path19-2" d="M231 360c-1-2-1-1 0 0z" class="fil1"/><g id="g12902"><path id="path21-0" d="m111 60 12 18-23 40H81c13 24 25 45 39 68 8.521-1.335 16.424.67 20 7l49 82c5.377 10.347 3.58 22.012-3 31.04L232 382v-12h48v12l43.98-75.96c-3.824-9.2-6.146-20.86-.98-31.04l49-82c4.059-6.896 12.586-7 20-7 14-23 26-44 39-68h-19l-23-40 12-18h-78c-1.56 8.204-8.987 15.855-17 16H206c-7.622-.102-16.854-8.475-17-16z" style="fill:#ca003e;fill-opacity:.75;stroke:#ff2d59;stroke-width:10;stroke-miterlimit:4;stroke-dasharray:none;stroke-opacity:1"/><path id="polygon7-2" d="M456 145h56L396 278h-16z" class="fil0" style="fill:#cb013f"/><path id="path13-9" d="M470 68v35l-40-67h-15l47 81-176 306h-60L50 117l47-81H82l-40 67V68l33-56h121l18 24h84l18-24h121ZM197 47h-93l-9 14 12 18-15 26H70l-6 11 48 84h17l51 87-10 15 63 109h5l7.243-27h24L274 411h5l63-109-10-15 51-87h17l48-84-6-11h-22l-15-26 12-18-9-14h-93l-9 15H206Z" style="fill:#ca003e"/><path id="path15-4" d="m290 23 8-11 8-12H206l8 12 8 11h68z" class="fil0"/><path id="path17-4" d="m201 398-97-83 106 135h92l106-135-97 83-20 34h-70ZM56 145H0l116 133h16zm132 230-45-79h-23l-49-56H31Z" class="fil0"/></g></g><g id="g963" style="clip-rule:evenodd;fill-rule:evenodd;image-rendering:optimizeQuality;shape-rendering:geometricPrecision;text-rendering:geometricPrecision"><g id="Layer_x0020_1-7"><g id="_1572945391968"><path id="path927" d="M281 360c1-2 1-1 0 0z" class="fil1"/><path id="path935" d="M231 360c-1-2-1-1 0 0z" class="fil1"/><path id="path941" d="m275 170 5-10v-23h30v23l6 10zm41 109.547c-.686 3.371-1.39 6.699-.714 13.453H276l-1-4V180l2-2h37l2 2zM316 300v5l-3 2v6h1.186l-16.8 29H278v-7l-3-1v-21h3v-6l-3-2v-5zm-102.36 42L196 313h3v-6l-3-2v-5h41v5l-3 2v6h3v21l-3 1v7zm-16.926-49L196 279.201V180l2-2h37l2 2v109l-1 4zM217 80.873c14.955 22.105 15.445 32.009 15 49.127h-30c.52-16.516 1.11-28.304 15-49.127zm79.125 0C309.973 101.093 310.456 112.58 310 130h-30c.375-17.588.68-28.22 16.125-49.127zM196 170l6-10v-23h30v23l5 10z" class="fil1"/></g></g></g></g><g id="g1010" style="clip-rule:evenodd;fill-rule:evenodd;image-rendering:optimizeQuality;shape-rendering:geometricPrecision;text-rendering:geometricPrecision"><g id="Layer_x0020_1-0"><g id="_1573059478944"><path id="path974" d="M281 360c1-2 1-1 0 0z" class="fil1"/><path id="path982" d="M231 360c-1-2-1-1 0 0z" class="fil1"/></g></g></g></g></svg>