<svg xmlns="http://www.w3.org/2000/svg" width="512" height="512"><g style="display:inline"><path d="M54.1 12H24.04L12.66 31.887l16 27.293c5.009-.003 7.032-.05 9.746 4.522L56.7 94.53c2.653 5.397-2.06 9.743-1.766 10.273l19.512 35.088h11.266l19.534-35.088c-2.858-6.104-2.614-7.297-.745-10.273l19.36-30.828c3.322-5.288 3.736-4.47 8.107-4.522l15.24-27.293L135.842 12H106.44c-.415 2.58-3.994 6-7.136 6H60.137c-2.132 0-6.037-4-6.037-6Z" style="fill:#801600;fill-opacity:.75;stroke:#fe2c00;stroke-width:1px;stroke-linecap:butt;stroke-linejoin:miter;stroke-opacity:1" transform="matrix(3.05 0 0 3.05 12 25.725)"/><path d="M18.38 0 0 31.887 68 151h24l68-119.113L141 0Zm40.525 4.227 4.158 5.313h37.03l3.76-5.313h33.877l16.689 27.66-18.534 33.206h-6.239L110.211 98.99l3.2 5.729-23.434 42.335H70.38l-23.914-42.335 3.199-5.73-18.715-33.896h-7.037L4.8 31.887 20.84 4.227Z" style="display:inline;fill:#fe2c00;fill-opacity:1;stroke:none;stroke-width:1.00333px;stroke-linecap:butt;stroke-linejoin:miter;stroke-opacity:1" transform="matrix(3.05 0 0 3.05 12 25.725)"/><g style="fill:#ff957f;fill-opacity:1;stroke:none"><path d="M43 26v24h33V26ZM85 26v24h33V26ZM43 54v16.419l13.868 23.394c1.521 2.712 1.968 6.519-1.582 10.906l9.938 17.531H76V54h-9.689l-3 7h-7l-3-7zM118 54v18.052l-13.755 22.2c-2.728 4.004-1.426 6.179.406 10.575l-9.688 17.423H85V54h10.507l3 7h7l3-7z" style="fill:#ff957f;fill-opacity:1;stroke:none;stroke-width:1px;stroke-linecap:butt;stroke-linejoin:miter;stroke-opacity:1" transform="matrix(3.05 0 0 3.05 12 25.725)"/></g></g></svg>