<svg xmlns="http://www.w3.org/2000/svg" xml:space="preserve" id="svg2" width="512" height="512" x="0" y="0" version="1.1"><style id="style2" type="text/css">.st2{fill:#c1c3ff}</style><g id="g898" transform="matrix(3.08275 0 0 3.08275 8.917 24.485)"><g id="g882"><g id="g868"><path id="path826" d="M54.5 12.2H24.8L13.6 32.1l15.8 26.8c5 0 7 0 9.6 4.5L57.1 94c2.6 5.4-2 9.7-1.7 10.2L74.7 139l11.1.1 19.3-34.9c-2.8-6.1-2.52-7.111-.7-10.2l19.2-32.6c1.82-3.089 5.5-2.5 8-3l15.1-26.6L135.4 12h-29.1c-.4 2.6-4 5.9-7.1 6l-38.7.3c-2.1-.1-6-4.1-6-6.1z" style="fill:#3e36a5;fill-opacity:.75"/><path id="path823" d="M19.2.1 1 32.1l67.3 118H92l67.3-119.5L140.5.1Zm38.5 3.7 4.1 5.8 36.6-.1 3.7-5.3 36.038.2L154.6 30.6 135.4 65h-6.2L110 97.8l3.2 6.4L90 146.1H70.7L47 104.2l3.2-6.4L31.6 65h-7L5.8 32.1 22.076 4Z" style="fill:#7e82ff"/><circle id="circle11" cx="80" cy="66.6" r="5.5" class="st2"/><path id="rect13" d="M77.5 18.424h5V45.3h-5z" class="st2" style="fill:#c1c3ff"/><path id="path17" d="M56.9 101.4c3.7 2.4 7.7 4.3 12.1 5.5v-4.6c-4-1.3-7.7-3.3-11.1-5.8.2 2-.4 3.6-1 4.9z" class="st2"/><path id="path19" d="M104.3 94.5c-4 3.5-8.6 6.3-13.6 7.9v4.6c4.7-1.3 9-3.4 12.9-6.1-1-2.9-.5-4.4.7-6.4z" class="st2"/><path id="path21" d="M39.6 55.8h4.6c4-11.7 13.4-21.1 25.1-24.8v-4.8C55 30.4 43.8 41.5 39.6 55.8Z" class="st2"/><path id="polygon23" d="M42.4 69.2H59v-5.1H39.4z" class="st2"/><path id="path25" d="M115.8 55.8h4.9c-4-14.4-15.3-25.6-29.6-29.6v4.6c11.5 3.7 21 13.2 24.7 25z" class="st2"/><path id="polygon27" d="m119.1 68.9 3-5H101v5z" class="st2"/></g><path id="rect15" d="M77.5 87.7h5v27.2h-5z" class="st2"/></g><path id="path826_1_" d="M54.4 12H24.7L13.5 32.1l15.8 26.8c5 0 7 0 9.6 4.5L57 94c1.425 3.129 1.325 3.659-1.7 10.2L74.6 139l11.1.1 19.3-34.9c-2.8-6.1-2.52-7.111-.7-10.2l19.2-32.6c1.82-3.089 5.5-2.5 8-3l15.1-26.6L135.3 12h-29.1c-.4 2.6-3.998 6-7.1 6H60.4c-2.102 0-6-4-6-6z" style="fill:none;stroke:#7e82ff"/></g></svg>