<svg xmlns="http://www.w3.org/2000/svg" width="410.758" height="128" viewBox="0 0 108.68 33.867"><path d="M66.366 30.265c-.164-.234-.299-.49-.299-.567 0-.078 1.726-.166 3.836-.197 2.469-.036 3.833.013 3.828.136-.003.105-.168.386-.366.623-.347.416-.477.432-3.53.432-3.06 0-3.181-.015-3.47-.427zm-.182-1.219c-.064-.167-.117-2.742-.117-5.723 0-5.007.027-5.444.351-5.737.296-.268.826-.316 3.404-.31 4.303.008 3.915-.603 3.915 6.177v5.451l-.488.223c-.309.14-1.676.222-3.719.222-2.768 0-3.247-.043-3.346-.303zm5.19-2.7 1.021-.704v-6.647l-1.294.004c-1.173.005-1.38.068-2.205.673l-.911.669v3.226c0 1.774.057 3.283.128 3.354.07.07.603.127 1.184.127.903 0 1.205-.102 2.077-.703zm-3.006-2.747v-2.875l.911-.673c.768-.568 1.047-.666 1.774-.625l.863.048.053 2.904.052 2.905-.751.595c-.639.506-.913.595-1.827.595h-1.075zm-2.876 2.778c0-.992-.028-1.054-.47-1.054-1.037 0-1.421-.408-3.239-3.434-2.505-4.172-2.428-3.99-2.421-5.713.004-1.11.056-1.41.201-1.16.162.277.474.335 1.8.335h1.605l.415.672c.383.62.487.67 1.358.67h.943v5.37c0 2.953-.043 5.369-.096 5.369-.053 0-.096-.475-.096-1.055zm-.02-6.471.02-.72H63.22l-.685-1.127c-.377-.62-.685-1.224-.685-1.343 0-.118-.138-.214-.307-.214-.26 0-.241.11.12.719.234.395.95 1.65 1.592 2.787.642 1.137 1.343 2.258 1.559 2.49l.391.422.123-1.148c.068-.631.133-1.471.144-1.866zm17.97 4.346a1.902 1.902 0 0 1-.117-.559c0-.457-2.1-4.012-2.691-4.554-.531-.488-.696-.528-2.177-.528-.918 0-1.944-.12-2.4-.28-.558-.198-.938-.228-1.27-.101l-.476.18.1 2.197c.062 1.385.027 2.241-.096 2.317-.128.08-.19-1.034-.18-3.295.007-1.878.076-3.254.153-3.058.224.57 2.203 1.273 3.583 1.273 1.161 0 1.2-.016 1.494-.636.34-.717.173-1.606-.459-2.444-.43-.57-.71-.358-.406.308.336.738.233 2.58-.144 2.58-.072 0-.236-.507-.365-1.128-.334-1.62-.793-2.13-1.918-2.134-.494-.002-1.027-.087-1.185-.19-.19-.122 1.435-.186 4.774-.188l5.061-.003-.52.483c-.287.265-.599.434-.694.375-.379-.234-2.101.902-2.101 1.386 0 .228 1.36 2.833 3.012 5.767l.461.82.99-.866c.854-.747 1.029-.83 1.262-.596.414.414.175.754-1.414 2.017-1.486 1.18-2.069 1.4-2.277.857zm-3.11-6.328c.185-.48.139-.655-.17-.655-.18 0-.288.181-.288.48 0 .535.28.642.458.175zm-45.015 3.933c-.435-.342-.506-.542-.506-1.438v-1.04h4.794l-.007.814c-.007.785-.046.838-1.082 1.438-1.299.753-2.428.833-3.2.226zm3.33-1.505c0-.735-.893-1.037-1.367-.464-.24.292-.227.296.165.052.376-.234.47-.225.763.068.294.294.302.388.068.764-.244.391-.24.405.052.165.175-.145.319-.408.319-.585zm-2.302.012c0-.627-.939-1.099-1.235-.62-.059.095.05.133.242.082.427-.111.887.396.73.806-.067.173-.035.25.074.183.104-.064.19-.267.19-.451zm47.463-.195a133.68 133.68 0 0 1-1.612-2.974l-.479-.936.615-.55c.803-.717.993-.693.993.126 0 .512.176.871.73 1.486.636.708 2.338 3.341 2.338 3.619 0 .055-.327.362-.726.683l-.726.584zM32.58 21.583c-.095-.246-.903-.287-5.651-.287h-5.54l-.025-.72-.024-.718-.201.719-.201.719h-3.96l-.005-1.007c-.005-.818-.045-.94-.215-.648-.114.197-.166.73-.115 1.183.079.699.046.807-.217.714-.594-.21-.79-.485-.79-1.105 0-.744.39-1.119 1.16-1.119.312 0 .566-.062.566-.139 0-.23.978-.402 1.217-.214.226.178 13.64.449 14.075.284.71-.268.012-.442-1.773-.442-1.79 0-2.014-.038-2.017-.336a3.761 3.761 0 0 0-.118-.767l-.115-.431h23.247v1.726h-.962c-.529 0-1.144-.108-1.367-.24-.325-.192-.423-.192-.493 0-.11.306-.523.306-1.041 0-.325-.192-.423-.192-.493 0-.057.157-.504.24-1.301.24-.8 0-1.242-.082-1.295-.24-.063-.186-.197-.178-.603.039-.431.23-.592.235-.917.032-.283-.177-.453-.188-.602-.039-.297.297-2.57.27-2.672-.032-.064-.19-.176-.191-.543-.004-.262.133-1.402.258-2.62.287-2 .049-2.158.026-2.158-.307 0-.307-.044-.322-.306-.104-.244.202-.292.555-.238 1.749l.068 1.495h-.822c-.555 0-.859-.094-.933-.288zm67.996-1.501c-1.048-.483-4.815-3.245-4.965-3.64-.088-.231-1.327-1.218-2.755-2.193l-2.595-1.774h-1.252c-.688 0-1.289-.065-1.336-.144-.046-.079-.01-.338.079-.575.157-.415.251-.431 2.53-.431 2.317 0 2.395.013 3.729.67l1.362.672h3.425c2.79 0 3.505.055 3.852.298.414.29.426.398.426 3.835v3.537l-1.007-.016c-.554-.008-1.226-.116-1.493-.24zm1.884-3.95c.043-1.383 0-1.758-.192-1.694-.172.057-.264.619-.302 1.858-.043 1.383 0 1.759.192 1.695.172-.057.263-.62.302-1.859zm-1.685-.142v-1.471l-.866-.83-.867-.83H96.93c-1.788 0-2.13.048-2.233.317-.12.312-.018.427 1.25 1.412l.513.398-.613-.296c-.76-.368-.852-.368-1.316-.007-.355.278-.35.286.128.178.279-.063.82.02 1.222.189.863.36.93.367.753.08-.17-.275-.063-.21 2.022 1.22.891.61 1.732 1.11 1.87 1.11.182 0 .249-.391.249-1.47zm-2.11.995c0-.114-1.459-.867-1.681-.867-.09 0-.33.131-.535.291-.356.278-.35.286.124.179.274-.062.791.016 1.15.173.715.311.942.365.942.224zm3.452-3.276c0-.353-.452-.85-.774-.85-.46 0-.474.149-.06.608.298.328.834.484.834.242zm-10.498-1.016c-.343-.293-.624-.63-.624-.748s.367-.248.815-.288c.707-.064.669-.078-.287-.107-1.373-.042-1.455.271-.288 1.098 1.021.723 1.2.744.384.045zm11.96 1.876c.047-3.312.004-6.046-.1-6.423-.204-.742-.12-.783.816-.393 1.249.522 1.52 1.984.864 4.654-.126.512-.243 2.403-.26 4.202-.016 1.799-.093 3.374-.17 3.5-.078.125-.387.228-.686.228h-.545zm-51.126 3.083c0-.368.128-.383 3.26-.383 1.793 0 3.26.036 3.26.08 0 .044.052.217.116.384.103.27-.26.303-3.26.303-3.248 0-3.376-.015-3.376-.384zm20.855-.403c-.195-.11-1.77-.165-3.787-.132-3.814.062-3.686.108-3.243-1.162l.21-.604h3.308c3.006 0 3.337.033 3.637.365.215.238.309.601.27 1.043-.053.581-.109.651-.395.49zm-44.735-.374c-.069-.11-.065-.715.008-1.342l.132-1.14h2c1.602 0 2.023.057 2.112.287.06.158.22.288.354.288.134 0 .35-.13.482-.288.356-.43 9.998-.43 10.355 0 .305.369.695.369.836 0 .092-.24.671-.287 3.568-.287h3.458l-.003 1.198-.002 1.199-.49-.624c-.652-.826-.98-.787-1.231.144-.187.695-.264.766-.823.76-.497-.006-.716-.154-1.14-.767-.673-.972-1.034-.97-1.297.007l-.207.767-1.19-.007c-1.169-.007-1.202-.022-1.717-.767-.672-.972-1.033-.97-1.296.007l-.207.767-2.341-.007-2.342-.007-.526-.76c-.672-.972-1.033-.97-1.296.007-.2.743-.232.767-1.014.76-.721-.007-.864-.089-1.333-.767-.672-.972-1.033-.97-1.296.007-.177.659-.28.766-.727.76-.385-.006-.656-.204-1.045-.767-.672-.972-1.033-.97-1.296.007-.219.812-.285.89-.486.565zm3.17-.103c0-.062-.194-.275-.431-.473l-.431-.36.415-.006c.228-.004.459.101.512.233.053.132.104.046.112-.191.013-.379-.08-.432-.752-.432-.422 0-.767.051-.767.114 0 .284.821 1.228 1.068 1.228.15 0 .274-.05.274-.113zm17.904-.318c.218-.812.148-.91-.646-.91-.422 0-.767.05-.767.113 0 .27.816 1.228 1.046 1.228.138 0 .304-.194.367-.431zm-.838-.24c-.199-.24-.171-.287.169-.287.234 0 .407.122.407.287 0 .158-.076.288-.169.288-.092 0-.275-.13-.407-.288zm-6.423-.48c.077-.124-.833-.19-2.589-.19s-2.665.066-2.589.19c.07.113 1.15.193 2.59.193 1.439 0 2.519-.08 2.588-.192zm-12.712 1.207c-.351-.067-.414-.169-.312-.501.193-.63.267-.645.664-.127.385.5.473.782.231.738l-.583-.11zm2.648-.2c.001-.184.088-.464.193-.623.161-.243.248-.214.568.192.512.65.483.767-.19.767-.42 0-.574-.09-.571-.335zm4.071.2c-.462-.088-.54-.361-.235-.823.161-.243.248-.214.568.192.394.5.488.786.243.741-.08-.014-.338-.063-.576-.11zm6.703 0c-.35-.067-.413-.169-.311-.501.186-.607.224-.614.644-.11.398.478.498.766.251.721l-.584-.11zm4.41 0c-.35-.067-.413-.169-.31-.501.193-.63.266-.645.664-.127.384.5.472.782.23.738l-.583-.11zm3.26 0c-.35-.067-.413-.169-.311-.501.186-.607.224-.614.644-.11.398.478.498.766.251.721a97.85 97.85 0 0 1-.583-.11zm1.687-.636v-.771l3.212.052 3.212.053.06.72.059.718H52.453zm11.083-.571c-.322-.565-.352-.574-1.918-.576l-1.59-.001-.457-.67-.456-.67h-6.48l.315-.48.314-.478 4.724.002 4.724.002.433.67c.408.63.494.668 1.486.668h1.053v2.109l-.911-.001c-.81-.001-.947-.064-1.237-.575zm9.896-.38c-.143-.143-1.333-.193-3.7-.155-3.461.056-3.491.053-3.596-.367-.215-.857-.151-.872 3.77-.835 2.049.019 3.755.064 3.791.1.036.036.039.381.005.768-.044.51-.118.644-.27.49zm.726-.29c.004-.317.047-.423.096-.236.048.186.045.445-.007.575-.053.13-.093-.023-.089-.34zm-21.67-.336.06-.623 3.165-.018c3.3-.018 3.443.016 3.448.833.003.431.001.431-3.365.431H52.43ZM26.375 13.05v-.767h1.918v1.534h-1.918zm2.301-.096v-.862h3.644v1.725h-3.644zm4.027 0v-.862h9.971v1.725h-9.971zm10.163 0v-.862h4.243l-.62.862-.62.863h-3.003Zm4.023.101c.336-.424.677-.772.757-.772.08 0 .302.173.493.384.191.21.528.382.75.38.377-.002.373-.017-.058-.24a2.252 2.252 0 0 1-.72-.635c-.242-.367-.14-.563 1.277-2.445.847-1.125 1.582-2.046 1.633-2.046.051 0 .571 1.014 1.156 2.253.882 1.87 1.029 2.326.865 2.684-.13.286-.376.44-.728.455-.344.014-.41.053-.185.112.19.049.313.19.272.313-.052.154-1.008.24-3.099.276l-3.024.053zm4.366-.02a.615.615 0 0 0-.67 0c-.275.16-.213.195.335.195.547 0 .61-.036.335-.195zm12.103.111c-.345-.584-.492-.67-1.144-.67-.411 0-.748-.087-.748-.193 0-.105-.266-.191-.591-.191-.325 0-.562-.078-.527-.174.035-.095.452-1.13.926-2.3l.863-2.126h.96c.868 0 .998.06 1.386.628.235.346.71.935 1.054 1.31l.627.68 8.917-.085c7.24-.07 8.973-.136 9.219-.352.52-.457 2.003-.332 2.869.241.446.295.985.49 1.29.464.288-.023 3.76-.102 7.715-.176l7.19-.133-6.968-.043c-6.89-.043-6.972-.048-7.305-.46-.39-.483-.952-.369-1.107.226-.095.362-.141.352-.883-.193-.613-.451-.982-.576-1.703-.576h-.921v-1.15c0-1.372-.02-1.368 3.451-.646.37.077 3.858.172 7.752.21 7.995.08 7.457-.036 7.692 1.656.072.512.07 1.664-.006 2.558l-.135 1.627-.52-.497-.518-.498H95.26l-1.472-.67c-1.421-.648-1.554-.672-3.767-.672-2.262 0-2.298.007-2.513.48-.174.38-.36.48-.907.482-.897.004-1.353.272-1.022.602.13.131.238.437.238.68v.44h-5.561c-5.312 0-5.561-.016-5.561-.36 0-.753-.357-.808-4.727-.726-4.597.087-4.724.098-4.6.4.379.917.407.878-.63.878-.924 0-1.011-.042-1.382-.67zm18.05-.38c0-.56-.463-.73-1.74-.64-.765.055-.854.113-.909.589l-.06.527h1.355c1.314 0 1.355-.014 1.355-.476zm-16.372-.993c-.162-.3-.298-.484-.302-.41-.013.228.433 1.119.518 1.034.043-.044-.053-.325-.216-.624zm9.182-.448c-.072-.116-1.412-.192-3.378-.192-2.125 0-3.219.067-3.142.192.072.115 1.412.191 3.379.191 2.124 0 3.218-.066 3.14-.191zm-7.958 1.63c.131-.159.444-.288.695-.288.277 0 .456.112.456.287 0 .203-.205.288-.695.288-.596 0-.66-.04-.456-.288zm1.726 0c0-.236.33-.288 1.822-.288 1.491 0 1.821.052 1.821.287 0 .236-.33.288-1.821.288-1.492 0-1.822-.052-1.822-.288zm4.218 0c0-.382 1.14-.387 1.642-.007.342.26.292.282-.635.288-.77.005-1.007-.062-1.007-.282zm-68.767-.97c-.559-.851-.222-.942 3.772-1.014l3.634-.066v-.923H7.007c-3.526 0-3.835-.027-3.832-.335.007-.805.122-.825 5.093-.869l4.78-.042v1.438c0 .791.07 1.632.156 1.87l.157.431H3.756Zm10.263.179c-.292-.352-.463-2.73-.222-3.084.14-.205 1.245-.34 2.212-.272.315.022.319.066.048.59-.367.71-.374 1.861-.015 2.55l.275.527h-1.02c-.707 0-1.099-.095-1.278-.311zm38.783-2.134-1.197-2.445 2.72-.053c1.496-.03 2.756-.017 2.8.028.109.108-2.015 4.33-2.342 4.658-.141.141-.376.257-.52.257-.148 0-.792-1.079-1.461-2.445zm3.23 2.253c0-.105-.129-.191-.287-.191-.158 0-.29-.065-.29-.144-.003-.08.442-1.115.987-2.301l.992-2.158h2.388c1.833 0 2.366.056 2.293.24a1605.1 1605.1 0 0 1-1 2.493l-.904 2.253h-2.089c-1.265 0-2.09-.076-2.09-.192zm-39.696-.774c-.115-.215-.183-.754-.15-1.198l.058-.808 6.184-.05 6.184-.051V11.9h-6.034c-5.875 0-6.039-.01-6.242-.391zm12.66-2.198c0-2.46.018-2.589.383-2.589.243 0 .383-.127.383-.35 0-.362.746-1.184 1.076-1.184.103 0 .183-.453.179-1.006-.006-.758.06-1.007.272-1.007.155 0 .333.255.402.575.067.317.308.902.535 1.3.559.981.531 1.288-.115 1.292-.29.001-.656.086-.815.189-.324.21-.666.202 10.067.21 10.44.008 9.876.025 9.876-.297 0-.211.315-.293 1.294-.336l1.294-.057.058-1.006c.032-.554.15-1.007.264-1.007.13 0 .118-.104-.034-.288-.211-.254.35-.287 4.866-.287h5.105v1.534h-9.78v1.15l1.295.033c.712.018 2.275.016 3.474-.005 1.337-.023 2.277.043 2.43.17.181.15.36.14.649-.041.326-.204.47-.204.797 0 .287.179.468.191.646.043.288-.239 3.872-.225 4.353.017.218.11.352.066.432-.14.157-.412.162-.403-.269-.516-.593-.155-.492-.837.144-.963.674-.134 3.484.071 3.602.263.05.08.038.283-.027.45-.085.223-.375.306-1.066.306-.522 0-.901.078-.842.173.059.096.285.128.502.071.29-.076.423.005.501.306.1.382.23.408 1.99.408 1.784 0 1.888-.022 2.014-.431.244-.797.457-.927.97-.592.36.237.416.363.248.566-.274.33-.089.84.306.84.164 0 .361-.154.437-.344.119-.298.229-.318.809-.144.474.142.67.313.67.582 0 .534.67.63.804.115.08-.304.257-.4.74-.4.35 0 .845-.079 1.1-.175.253-.097 1.165-.128 2.025-.069l1.564.107v1.48h-1.81c-1 0-1.864.085-1.93.191-.067.11-1.056.192-2.312.192H76.04v-.959h-2.595c-2.13 0-2.615-.051-2.705-.287-.162-.423-3.521-.423-3.521 0 0 .416-2.724.414-3.07-.003-.208-.25-1.135-.283-6.781-.24l-6.54.05-1.786 2.35-1.785 2.349h-18.58zm3.331 1.777c.161-.255.136-.405-.108-.649-.575-.574-1.432.176-.914.8.298.36.742.294 1.022-.15zm1.918 0c.16-.255.136-.405-.109-.649-.574-.574-1.431.176-.913.8.298.36.742.294 1.022-.15zm1.917 0c.161-.255.136-.405-.108-.649-.575-.574-1.432.176-.914.8.298.36.742.294 1.022-.15zm1.918 0c.16-.255.136-.405-.109-.649-.574-.574-1.431.176-.913.8.298.36.742.294 1.022-.15zm1.917 0c.161-.255.136-.405-.108-.649-.574-.574-1.431.176-.914.8.299.36.742.294 1.022-.15zm1.918 0c.16-.255.136-.405-.108-.649-.575-.574-1.432.176-.914.8.298.36.742.294 1.022-.15zm1.917 0c.161-.255.136-.405-.108-.649-.574-.574-1.431.176-.914.8.299.36.742.294 1.022-.15zm1.918 0c.16-.255.136-.405-.108-.649-.575-.574-1.432.176-.914.8.298.36.742.294 1.022-.15zm1.918 0c.16-.255.135-.405-.109-.649-.574-.574-1.431.176-.913.8.298.36.742.294 1.022-.15zM32.582 8.98c.161-.255.136-.405-.108-.65-.574-.574-1.431.177-.914.801.299.36.742.294 1.022-.15zm1.918 0c.16-.255.136-.405-.108-.65-.575-.574-1.432.177-.914.801.298.36.742.294 1.022-.15zm1.918 0c.16-.255.135-.405-.109-.65-.574-.574-1.431.177-.913.801.298.36.742.294 1.022-.15zm1.917 0c.16-.255.136-.405-.108-.65-.575-.574-1.432.177-.914.801.298.36.742.294 1.022-.15zm1.918 0c.16-.255.135-.405-.109-.65-.574-.574-1.431.177-.913.801.298.36.742.294 1.022-.15zm1.917 0c.161-.255.136-.405-.108-.65-.575-.574-1.432.177-.914.801.298.36.742.294 1.022-.15zm1.918 0c.16-.255.136-.405-.109-.65-.574-.574-1.431.177-.913.801.298.36.742.294 1.022-.15zm1.917 0c.161-.255.136-.405-.108-.65-.575-.574-1.432.177-.914.801.298.36.742.294 1.022-.15zm1.918 0c.16-.255.136-.405-.109-.65-.574-.574-1.431.177-.913.801.298.36.742.294 1.022-.15Zm20.78-.233c-.5-.552-.91-1.104-.91-1.226 0-.36 2.615-.297 2.754.065.09.235.553.288 2.5.288h2.39l.061.527.061.528 2.35.053c2.19.05 2.348.08 2.348.432 0 .367-.148.377-5.321.357l-5.321-.02zm2.451.261c.184-.578-.53-1.253-1.487-1.406-1.143-.183-1.291.11-.514 1.014.773.899 1.778 1.095 2.001.392zm-1.52-.398c-.54-.772.164-1.038.836-.316.513.55.494.73-.077.73-.263 0-.596-.182-.76-.414zm11.007.91c0-.15-.053-.409-.117-.576-.101-.264.133-.303 1.822-.303 1.066 0 1.938.04 1.938.087 0 .048-.1.306-.223.575-.212.467-.294.489-1.821.489-1.253 0-1.6-.06-1.6-.272zm-15.293-.68c-.237-.301-.431-.598-.431-.66 0-.063.632-.114 1.405-.114 1.25 0 1.454.052 1.855.48l.45.478h-.992c-.546 0-.992.087-.992.192 0 .403-.883.146-1.295-.376zm-38.97-.151c.005-.666.276-.836 1.115-.702.677.108.799.197.799.583 0 .418-.078.454-.959.454-.786 0-.958-.06-.956-.335zm52-2.347c-.665-.076-1.292-.22-1.392-.32-.196-.196.904-1.791 1.234-1.791.203 0 2.001 1.111 2.37 1.465.13.124.345.27.479.325.185.075.175.146-.045.301-.315.223-.822.227-2.647.02zm-2.58-.8c-.29-.106-.526-.261-.526-.345 0-.26 2.057-1.925 2.38-1.925.358 0 .361.017.114.667-.197.519-1.176 1.837-1.344 1.81a7.498 7.498 0 0 1-.623-.207z" style="fill:#000;fill-opacity:1;stroke-width:.191754"/></svg>