<svg xmlns="http://www.w3.org/2000/svg" width="297.289" height="128" viewBox="0 0 78.658 33.867"><path d="M3.876 30.38c-.589-.376-.797-.712-.66-1.066.136-.358.212-.342 1.116.232.829.525.904.65.583.97-.263.264-.452.24-1.039-.136zm40.952-.072c.057-.058 1.633-1.156 3.502-2.44 2.288-1.571 3.427-2.454 3.488-2.702.084-.344.199-.373 1.626-.418l1.536-.048v.717c0 .536.084.77.333.925.314.196.334.167.334-.51 0-.395-.092-.81-.204-.923-.161-.16.466-.194 2.96-.158l3.164.045.052.626.052.625h1.47c1.104 0 1.522.063 1.678.25.362.436.5.275.5-.583v-.834H71.49l-.002.792c-.005 1.4.774 1.29-9.342 1.312l-9.022.02-2.366 1.648-2.365 1.648-1.835.057c-1.009.031-1.787.009-1.73-.05zm-2.356-.228c-.763-.346-1.242-.897-2.275-2.618-1.13-1.884-1.151-1.906-1.77-1.91-.343-.003-.625-.08-.625-.172 0-.1-.629-.167-1.554-.167-1.45 0-1.578.028-1.917.417l-.362.417h-5.546c-6.53-.001-6.046.133-7.578-2.103-1.994-2.911-2.048-2.935-6.409-2.867l-3.27.05.249-.38c.34-.52.101-.702-.254-.193-.156.224-.52.632-.807.907-.288.275-.572.638-.63.807-.099.283-.145.274-.62-.125-.281-.238-.624-.432-.76-.432-.342 0-.157-.534.548-1.582.308-.457.56-1.02.562-1.25.005-1.001.148-1.17.99-1.17.942 0 1.043-.077.802-.605-.137-.301-.134-.455.011-.6.245-.245.262-2.695.023-3.142-.144-.27-.117-.323.167-.323.186 0 .34-.075.34-.167 0-.091-.367-.166-.814-.166-1.082 0-1.214-.194-1.154-1.694l.05-1.225.602-.05c.594-.05.605-.064.708-.918.057-.476.105-1.184.105-1.573.001-.55.159-.944.71-1.78.658-.998.754-1.076 1.335-1.087.344-.007.626.044.626.113s.226.253.5.41c.275.156.5.4.5.541 0 .23 1.194.258 11.08.258 7.517 0 11.115.056 11.188.174.06.096.017.284-.094.417-.173.208-1.778.243-11.234.243H14.862l-.546.499c-.503.46-.542.568-.496 1.376l.05.877 11.58.135c11.253.132 11.59.127 12.007-.183.63-.47.678-1.428.1-2.032-.349-.364-.392-.49-.216-.635.148-.123 2.219-.193 6.35-.216 5.336-.03 6.158 0 6.334.222.11.14 1.308.618 2.66 1.06 2.363.774 2.477.833 2.97 1.519l.513.713h-.98c-.602 0-1.103-.094-1.302-.244-.372-.282-1.172-.335-1.325-.09-.061.1-1.172.168-2.772.168-1.513 0-2.809.074-2.99.171-.236.127-.453.105-.815-.083-.636-.329-2.017-.327-2.809.004-.72.3-1.671 1.16-1.883 1.7l-.146.376-5.966.003c-6.488.004-6.375-.011-6.87.956l-.192.375H13.436l.115-1.46c.063-.802.148-1.496.189-1.542.041-.046.538-.128 1.103-.183l1.029-.1-1-.02c-1.453-.029-1.584.12-1.59 1.822-.004.965-.081 1.5-.25 1.723-.148.196-.245.696-.245 1.264 0 .766.07 1.006.386 1.302.366.344.537.362 3.325.362 1.617 0 2.982.07 3.034.153.052.084.006.182-.103.218-.416.139.079.463.706.463.473 0 .657-.07.657-.25 0-.282.275-.342.362-.079.038.114 2.733.17 8.042.168 7.238-.003 8.003-.03 8.187-.28.142-.195.237-.22.32-.084.066.105.452.192.86.192.424 0 .74.078.74.182 0 .117-.33.162-.917.125-.897-.056-1.18.056-.653.259.145.055.858.1 1.584.1.77 0 1.32.07 1.32.168 0 .106-1.462.166-4.054.166h-4.055l-.48.5c-.44.46-.57.501-1.615.501-1.074 0-1.136-.02-1.136-.384 0-.63-.314-.783-1.608-.783-1.315 0-1.476.1-1.477.917v.5l-1.126.05-1.126.049v-.685c0-.425-.064-.644-.17-.578a.34.34 0 0 0-.148.301c.065.528-.041.613-.766.613-1 0-.965.302.042.366.685.044.8.104.847.44.03.213.612 1.17 1.293 2.126.68.956 1.237 1.778 1.237 1.828 0 .049-.653.068-1.45.041l-1.451-.048-1.812-2.377-1.812-2.376h-4.359c-3.39 0-4.314.045-4.159.2.11.11.203.354.206.542.004.312.02.317.175.05.153-.264.52-.292 3.842-.292 3.339 0 3.649.024 3.41.262-.314.315-.325.442-.061.706.532.532 1.214-.033.814-.674-.116-.186-.131-.304-.035-.27.094.033.92 1.11 1.834 2.395 1.287 1.807 1.61 2.364 1.426 2.468-.31.174-.303.688.013.95.507.42 1.026-.492.55-.967-.155-.156.883-.2 4.67-.2 3.136 0 4.87.06 4.87.167a.167.167 0 0 1-.167.166c-.232 0-.209.559.034.8.264.266.39.254.712-.068.238-.239.241-.31.023-.643l-.245-.374 2.281-.027c2.542-.03 2.506-.013 3.128-1.387.363-.8.21-1.389-.45-1.73l-.516-.267.466-.486c.462-.482.486-.487 2.353-.487 1.8 0 2.075.067 1.738.425-.082.087-.199.392-.259.678-.087.413-.021.624.32 1.03.237.28.657.56.933.621.307.068.91.523 1.545 1.168.631.64 1.237 1.099 1.536 1.162.271.058.606.164.743.235.281.144 1.6 1.982 1.49 2.074-.04.032-1.095.746-2.346 1.586-1.923 1.292-2.373 1.526-2.918 1.516-.355-.007-.758-.063-.895-.125zm2.468-1.898c.11-.11.2-.358.2-.55 0-.193-.09-.44-.2-.55-.443-.444-1.3-.122-1.3.488 0 .637.867 1.045 1.3.612zm-.904-.376c-.127-.331.061-.591.43-.591.372 0 .55.39.294.646-.26.26-.613.234-.724-.055zm-2.733-4.842c.522-.63-.455-1.607-1.085-1.084-.298.248-.324.855-.048 1.132.277.276.885.25 1.133-.048zm-.97-.447c.07-.502.721-.552.721-.055 0 .222-.13.351-.388.388-.324.046-.38-.01-.334-.333zM10.868 19.71c0-.326-.096-.428-.437-.468-.505-.058-.768.372-.456.747.32.386.893.206.893-.28zm6.254-2.442c-1.398-.124-3.003-.133-3.002-.018 0 .069.807.112 1.793.097.986-.015 1.53-.051 1.209-.08zm-3.616-.168c.19-.191-.735-.559-1.406-.559-.537 0-.648.057-.648.334 0 .295.11.333.972.333.536 0 1.022-.049 1.082-.108zm3.33-.348a16.798 16.798 0 0 0-1.834 0c-.531.033-.14.06.869.06s1.443-.026.965-.06zm3.08-5.795c-.206-.32-.43-.583-.497-.584-.114-.002-.63.877-.63 1.073 0 .05.339.092.753.092h.752zM4.868 29.63a4.628 4.628 0 0 0-1-.607 9.002 9.002 0 0 1-.548-.23c-.112-.075 2.663-4.558 2.87-4.638.13-.05.54-.54.915-1.092.645-.95.704-.993 1.139-.839.252.09.622.292.824.45l.365.287-.62 1.024-.62 1.025-.701-.414c-.386-.228-.797-.38-.913-.34-.117.041.05.193.372.338.32.145.768.411.993.592.372.3.39.371.197.803-.28.632-2.542 4.061-2.672 4.054-.056-.004-.327-.19-.6-.413zm66.998-2.687c-.236-.103-.287-1.682-.065-2.033.092-.144.416-.2.957-.166l.818.051.05 1.043c.044.934.016 1.042-.272 1.042-.176 0-.536.034-.8.076-.264.042-.573.036-.688-.013zm-23.693-1.086c-.713-1-.717-1.016-.376-1.255.32-.225.346-.405.346-2.475 0-2.12-.02-2.257-.402-2.7-.383-.446-.483-.471-2.056-.525l-1.653-.056.075-.903.075-.902h-2.543v-1.479l.814.548c.448.302 1.119.597 1.49.656.479.077.707.208.784.451.161.508.996.388 1.002-.144.003-.21.115-.453.25-.539.136-.085 1.466-.157 2.956-.158 2.58-.002 2.71.013 2.71.324 0 .435 2.353 2.221 3.391 2.574.582.198 1.425.268 3.202.268h2.413v5.003h-1.586c-1.5 0-1.575-.016-1.393-.308.241-.387.07-1.122-.295-1.261-.605-.233-1.426.825-.895 1.152.511.316-.053.417-2.335.417-2.047 0-2.502.043-2.502.236 0 .183-2.494 2.114-2.704 2.095-.026-.003-.372-.461-.768-1.019zm2.83-.77a3.64 3.64 0 0 0 .44-.75c.187-.44.246-.459 1.378-.459 1.119 0 1.18-.02 1.129-.362-.042-.284-.442-.535-1.846-1.159l-1.793-.796v1.27c0 .97-.068 1.346-.287 1.589-.275.303-.269.332.125.635.51.392.553.393.854.032zm-.686-.205c-.185-.114-.174-.193.064-.43.228-.229.278-.514.235-1.35-.03-.582-.016-1.059.032-1.059.047 0 .648.235 1.334.52 2.073.865 2.195 1.148.493 1.148-1.171 0-1.172 0-1.273.507-.112.561-.537.88-.885.664zm3.663-4.067v-1.562l-.673-.445c-.748-.496-.674-.517-2.104.603-1.385 1.084-1.322 1.234.916 2.183.978.415 1.796.761 1.82.769.022.008.041-.689.041-1.548zm-2.033.334c-.706-.292-1.33-.578-1.386-.635-.057-.056.361-.46.929-.897l1.032-.795.562.303c.554.299.562.32.562 1.444 0 .81-.06 1.137-.208 1.126-.115-.008-.786-.254-1.491-.546zm5.669-.14c.539-.538-.066-1.45-.807-1.215-.406.13-.603.834-.326 1.168.248.298.856.324 1.133.048zm-.79-.126c-.32-.197-.14-.757.242-.757.21 0 .35.129.381.354.055.386-.29.609-.624.403zm-5.556-2.308c.39-.316.708-.621.708-.679-.003-.3-1.11-.689-1.96-.689h-.932l.341.376c.46.503.717 1.028.717 1.458 0 .408.094.37 1.126-.466zm-1.146-.456-.271-.578h.626c.344 0 .712.105.82.234.154.186.094.304-.298.583-.27.193-.517.348-.549.345-.032-.003-.18-.266-.328-.584zm23.868 3.374v-5.12h1.049l-.1 1.126c-.054.62-.225 2.852-.38 4.962-.154 2.11-.345 3.907-.425 3.994-.08.089-.144-2.078-.144-4.962zm-12.105 3.803c-.204-.811-.03-.918 1.492-.918 1.543 0 1.763.144 1.41.92-.178.39-.266.415-1.493.415-1.252 0-1.309-.017-1.41-.417zm2.766-.084c.172-.32.127-.333-1.161-.333-1.006 0-1.34.055-1.34.222 0 .38.188.445 1.272.445.88 0 1.08-.054 1.23-.334zm-3.535-3.087c-.044-2.099-.017-2.407.2-2.317.3.124 2.244.104 3.46-.037l.876-.1v2.353c0 2.22-.019 2.354-.324 2.354-.178 0-.37-.075-.427-.166-.168-.272-2.8-.207-3.178.078-.178.134-.376.247-.44.25-.064.003-.14-1.084-.167-2.415zm6.319 2.296-1.47-.056.028-2.203c.016-1.212-.018-2.316-.075-2.453-.089-.214.156-.247 1.691-.23l1.795.02-1.612-.104c-2.463-.158-2.152-.354.542-.343 1.61.007 2.28.06 2.029.162-.206.083-.507.109-.667.057-.238-.077-.247-.062-.05.078.251.177 1.041.09 1.551-.17.272-.139.292.022.29 2.317-.002 1.356-.058 2.55-.126 2.652-.138.212-1.373.397-1.373.207 0-.068.075-.17.167-.227.303-.187.173-.738-.24-1.008-.325-.214-.477-.228-.77-.071-.306.164-.35.298-.277.846.048.357.076.635.062.616-.014-.019-.687-.06-1.495-.09zm2.624-3.473c.504-.504.214-1.24-.488-1.24-.447 0-.75.304-.75.751 0 .703.735.992 1.238.489zm-.869-.279c-.246-.296.008-.675.401-.599.384.074.422.697.048.77a.522.522 0 0 1-.449-.17zm2.632.991c0-1.892-.06-2.78-.2-2.918-.15-.15-2.316-.2-8.723-.2h-8.524l-1.193-.876c-.657-.482-1.196-.97-1.2-1.084-.004-.165 2.251-.209 10.735-.209h10.74l.059.823c.052.74.031.798-.206.583-.32-.29-.85-.309-1.12-.038-.258.257-.258.843 0 1.1.242.243.908.265 1.05.034.264-.427.334-.01.334 2.001 0 2.011-.07 2.429-.334 2.002-.156-.252-.849-.2-1.082.08-.282.34-.078 1.04.34 1.173.2.064.51-.002.75-.16.225-.147.409-.206.409-.13 0 .322-.449.537-1.117.537h-.718zm-15.059 2.446c-.215-.215-.12-.691.161-.8.352-.134.605.11.528.51-.061.319-.483.496-.689.29zm12.384-.153c-.177-.213-.166-.307.063-.536.257-.257.298-.257.55-.004.304.303.202.799-.163.799-.13 0-.332-.117-.45-.259zm3.293-.18c-.065-.065-.117-.255-.117-.423 0-.217.124-.306.428-.306.349 0 .419.07.375.374-.052.37-.46.58-.686.355zm-47.105-2.055c-.756-1.09-1.376-2.05-1.376-2.133 0-.084 1.715-.153 3.928-.156l3.927-.007.46-.44c.438-.42.541-.44 2.252-.44h1.794l-.052.708c-.042.59-.114.718-.426.762-.273.04-.375-.03-.375-.254 0-.259-.107-.298-.668-.244-.85.08-.876.45-.041.587.344.056.83.149 1.08.207.392.09.482.038.638-.372.1-.262.152-.684.116-.936l-.067-.459h4.09l.375-.667.375-.667h2.44v.676c0 .612-.054.698-.572.915-.315.131-.62.315-.677.408-.061.1-.925.17-2.085.17h-1.98l-.615.75-.615.75h-5.124c-5.834 0-5.678-.037-5.674 1.348.003.816.09 1.01.582 1.288l.333.19-.333-.001c-.238-.001-.73-.573-1.71-1.983zm11.417 1.88c-.234-.063-.291-.23-.264-.776.02-.393-.088-.93-.248-1.237l-.282-.542h.68c1.486 0 2.167.866 1.565 1.991-.32.595-.737.758-1.451.565zm-27.135-.106c0-.182.872-1.606 1.099-1.794.223-.185.248-.092.203.776l-.051.987-.625.052c-.344.028-.626.02-.626-.02zM7.85 20.45c-.156-.618.026-1.925.29-2.092.125-.08.434-.145.686-.146.39-.003.459.066.459.458 0 .393-1.03 2.207-1.252 2.207-.042 0-.124-.192-.183-.427zm53.23-1.01c-.41-.229-.836-.254-2.751-.162-1.299.063-2.479.042-2.766-.049-.338-.107 1.25-.162 4.915-.172 4.624-.012 5.368.02 5.087.214-.2.138-1.046.269-2.163.333-1.518.087-1.919.059-2.321-.165zm11.3-.992c-.055-.144-.02-.341.077-.44.26-.259.7-.03.7.362 0 .412-.625.474-.777.078zm-32.16-1.406c.057-.092.268-.166.469-.165.297.002.319.033.115.165-.328.212-.715.212-.584 0zm-12.59-.663c0-.325.1-.338 2.513-.338 2.304 0 2.51.024 2.458.292-.05.26-.327.297-2.514.338-2.372.044-2.458.034-2.458-.292zm-7.839-.088c0-.214-.472-.25-3.252-.25h-3.252v-2.335h.481c.34 0 .506.097.568.334.08.305.228.333 1.766.333 1.671 0 1.68.002 2.048.5.298.404.492.5 1.005.5h.636V13.54H28.38l.333-.504.334-.503 1.668.045 1.667.045.048 1.626.048 1.626h-2.523c-2.383 0-2.529.019-2.61.334-.073.276-.228.333-.903.333h-.814v-.68c0-.87-.394-.812-.469.068-.05.593-.072.612-.708.612h-.657v-.68c0-.87-.395-.812-.47.068-.049.591-.073.612-.698.612-.643 0-.648-.005-.699-.709-.028-.39-.126-.708-.218-.708s-.19.319-.218.708l-.051.71h-.825c-.621 0-.824-.062-.824-.25zm13.175-.467c0-.394-.09-.807-.2-.917-.156-.156-.156-.2 0-.2.133 0 .2-.334.2-1v-1.001h1.995c2.34 0 2.341 0 2.341 1.74 0 .983-.034 1.095-.334 1.095-.27 0-.333-.112-.333-.594 0-.353-.068-.552-.167-.49-.092.056-.167.323-.167.593 0 .27-.067.49-.149.49-.184 0-.35-.414-.35-.875 0-.554-.115-.275-.24.584-.104.717-.084.792.215.792.445 0 .858.17.858.351 0 .082-.826.15-1.835.15h-1.834zm4.805.509c-.18-.144-.238-.39-.185-.792l.076-.584.904.057c.798.05.904.1.902.417-.006.879-.177 1.11-.82 1.11-.338 0-.733-.094-.877-.208zm.615-.626c-.057-.091-.216-.166-.353-.166-.138 0-.204.075-.147.166.056.092.215.167.353.167.138 0 .204-.075.147-.167zm1.918.084c0-.64.05-.75.333-.75.285 0 .334.11.334.75s-.05.75-.334.75c-.284 0-.333-.11-.333-.75zm2.918.164c-2.196-1.184-2.312-4.14-.21-5.417 1.972-1.2 4.64.311 4.626 2.62-.005.896-.524 1.926-1.249 2.479-.778.593-2.36.752-3.167.318zm1.418-.331c0-.23-.075-.417-.167-.417-.186 0-.228.55-.055.723.183.184.222.13.222-.306zm-.856-.198c.126-.242.133-.4.021-.47-.183-.113-.511.582-.38.804.095.16.11.146.359-.334zm1.826-.136c-.102-.223-.246-.368-.321-.322-.075.046-.053.267.049.49.101.223.246.368.32.322.075-.047.054-.267-.048-.49zm-2.671-.283c.11-.11.2-.31.2-.443 0-.192-.069-.18-.334.06-.342.31-.436.583-.2.583.074 0 .224-.09.334-.2zm3.702.054c0-.214-.49-.587-.611-.465-.121.12.252.611.465.611.08 0 .146-.066.146-.146zm-1.157-.505c.598-.211.915-1.262.603-2.003-.286-.68-1.486-1.329-1.87-1.01-.137.114-.418.22-.622.233-.214.015-.352.12-.324.247.026.122-.07.4-.213.619-.193.294-.413.397-.85.397-.387 0-.55.063-.476.184.064.104.32.142.592.088.421-.085.515-.024.788.509.344.669 1.289 1.238 1.695 1.02.137-.073.442-.201.677-.284zm-1.856-.502c-.374-.374-.472-.606-.425-1.006.199-1.711 2.393-1.627 2.707.104.052.287-.07.546-.419.896-.637.637-1.23.639-1.863.006zm.678.152c0-.091-.08-.166-.176-.166-.097 0-.13.075-.074.166.057.092.136.167.177.167.04 0 .073-.075.073-.167zm.834-.166c0-.092-.033-.167-.073-.167-.04 0-.12.075-.177.167-.057.091-.024.166.074.166.097 0 .176-.075.176-.166zm-1.44-.417c-.053-.138-.173-.25-.266-.25-.097 0-.081.106.038.25.115.137.234.25.266.25s.014-.113-.038-.25zm1.94-.167c0-.138-.029-.25-.065-.25-.036 0-.109.112-.162.25-.052.138-.023.25.066.25s.162-.112.162-.25zm0-.75c0-.092-.079-.167-.176-.167-.097 0-.13.075-.074.167.057.091.137.166.177.166.04 0 .074-.075.074-.166zm-.502-.542c.006-.315-.264-.083-.288.248-.023.293.005.32.128.125.087-.137.158-.305.16-.373zm-2.427 1.69c-.046-.074-.267-.052-.49.05-.223.101-.368.246-.322.32.047.075.267.053.49-.048.223-.102.368-.246.322-.321zm4.597.356c0-.19-.802-.425-.949-.277-.055.055.08.171.3.26.526.21.65.213.65.017zm.167-1.004c0-.092-.188-.167-.417-.167-.23 0-.417.075-.417.167 0 .092.188.167.417.167.23 0 .417-.075.417-.167zm-4.7-.912c-.306-.255-.8-.397-.887-.255-.114.184.581.512.803.38.075-.044.113-.1.084-.125zm4.293-.167c.259-.196.271-.246.064-.25-.143-.003-.406.105-.584.24-.259.195-.272.245-.064.25.143.003.406-.105.584-.24zm-3.929-.568c0-.214-.49-.587-.612-.466-.12.122.252.612.466.612.08 0 .146-.066.146-.146zm3.339-.108c.116-.14.164-.3.108-.358-.122-.12-.612.252-.612.466 0 .23.272.171.504-.108zm-2.82-.795c-.289-.289-.399-.015-.165.41.193.349.222.357.28.08.035-.171-.017-.391-.115-.49zm1.977.225c.105-.197.112-.36.017-.42-.163-.1-.227-.028-.397.452-.142.396.164.371.38-.032zm-.995-.27c0-.242-.072-.382-.167-.324-.092.057-.167.25-.167.427 0 .178.075.324.167.324.092 0 .167-.192.167-.427zm2.501 5.349c0-.051.203-.398.45-.772.32-.485.469-.957.52-1.658.086-1.194-.004-1.585-.551-2.39-.233-.344-.38-.695-.328-.78.053-.087 1.344-.156 2.888-.156 1.98 0 2.851-.06 2.996-.204.161-.162.273-.162.531 0 .182.113.879.204 1.57.204.684 0 1.29.075 1.347.167.057.091.5.167.984.167.794 0 .932.057 1.411.583l.532.584h5.493c5.062 0 5.506.023 5.647.292.144.273.28 2.39.219 3.419l-.027.458H61.88l-.37-.5c-.352-.476-.428-.5-1.584-.5-1.132 0-1.248.034-1.694.5l-.48.5h-3.095l-3.096-.002-.296-.52c-.277-.486-.346-.515-1.032-.438l-.736.083.254-.387c.146-.224.207-.532.145-.729-.133-.418-.833-.621-1.172-.34-.281.233-.334.927-.082 1.082.092.057.167.178.167.27 0 .092-.064.127-.142.079-.079-.049-.323.104-.542.339-.409.436-.984.816-.984.649zm1-.102c.003-.656 2.333-.945 2.663-.33.162.304.095.325-1.245.376-.78.03-1.418.009-1.417-.046zm10.34 0c0-.054.138-.223.306-.375.436-.394 1.887-.376 2.254.03.152.167.276.336.276.374 0 .039-.638.07-1.418.07-.78 0-1.417-.044-1.417-.099zm12.71-1.735c-.013-.963-.103-1.9-.201-2.084-.163-.304-.127-.334.384-.334.72 0 .918.403.95 1.941.05 2.3.068 2.228-.556 2.228h-.555zm1.436.154c.03-.879-.023-1.817-.116-2.085l-.17-.487h1.389c1.812 0 1.844.04 1.7 2.083-.06.866-.155 1.69-.209 1.83-.076.2-.38.256-1.372.257h-1.275l.053-1.598zm-54.33.439c-.288-.404-.488-.5-1.124-.542-.443-.03-.805-.142-.845-.265-.055-.168.227-.19 1.321-.102.765.06 1.485.185 1.6.276.115.09.209.38.209.644 0 .397-.07.48-.406.48-.259 0-.532-.178-.755-.491zm30.465-.39c-.132-.345.126-.661.484-.592.443.085.41.709-.04.773-.195.028-.395-.054-.444-.182zm-11.126-.498c0-.736.308-.991 1.114-.925.604.05.64.084.688.678l.052.625h-.663c-.365 0-.783.046-.928.102-.21.08-.263-.019-.263-.48zm.833-.28c0-.252-.228-.331-.443-.154-.33.274-.272.46.11.36.183-.047.333-.14.333-.206zm-23.848.449c0-.148.233-.19.792-.145.6.05.712.098.459.198-.528.21-1.25.18-1.25-.053zm25.774-.391c-.125-.665-.057-.82.299-.684.13.05.269.36.307.688.056.476.013.596-.212.596-.19 0-.317-.192-.394-.6zm-2.92-.825c-.012-.369.423-.575 1.153-.547l.759.03-.74.065c-.436.038-.829.18-.954.346-.118.154-.216.202-.219.106zm2.704-.524a1.37 1.37 0 0 1 .583 0c.161.042.03.076-.291.076-.321 0-.453-.034-.292-.076zm29.31-.924c-2.312-.243-7.366-.334-7.564-.136-.096.096-.633.174-1.194.174-.957 0-1.053-.036-1.537-.583-.46-.519-.609-.584-1.34-.584h-.823l-1.526-1.931C54.058 6.443 53.686 5.7 54.213 5.7c.13 0 1.611.26 3.294.577 9.719 1.833 11.403 2.11 12.162 2.006l.77-.106.942 1.042c.942 1.04 1.027 1.237.838 1.943-.114.422-.25.43-2.73.17zm1.742-1.88c-1.166-1.366-1.403-1.117-.284.299.696.881.975 1.133 1.013.916.03-.171-.282-.693-.729-1.216zm-53.416-.67c.686-.372 2.634-.396 3.139-.038.402.284.362.291-1.584.285-1.834-.006-1.961-.026-1.555-.247zm19.577-3.04c-.062-.164-2.436-.209-11.092-.209-9.592 0-11.012-.031-11.012-.245 0-.136-.225-.363-.5-.505-.275-.142-.5-.294-.5-.338 0-.043 6.899-.079 15.331-.079 15.185 0 15.333.003 15.438.334.094.296.252.333 1.42.333 1.062 0 1.434.072 1.947.375l.635.376-2 .04c-6.963.143-9.59.12-9.667-.082Zm7.005-.865c-.074-.118-1.538-.177-4.386-.177-2.8 0-4.22.056-4.113.163.131.132 8.318.345 8.55.223.032-.017.009-.11-.051-.209zm2.077-.177c0-.092.113-.167.25-.167.138 0 .25.075.25.167 0 .091-.112.166-.25.166-.137 0-.25-.075-.25-.166zm-34.68-.241c-.11-.133-.176-.414-.146-.626.054-.38.077-.384 2.556-.4 1.376-.008 2.637-.074 2.802-.146.464-.202 4.005-.014 4.082.217.08.238.646.258.788.028.138-.223 4.252-.223 4.252 0 0 .266.789.193.895-.083.14-.365 3.803-.365 4.168 0 .286.286.608.33.608.083 0-.224 4.28-.224 4.419 0 .158.256.749.198.857-.083.14-.367 3.925-.367 4.23 0 .114.137.301.25.416.25.116 0 .303-.113.417-.25.163-.196.623-.25 2.11-.25 1.874 0 1.903.006 2.06.417.087.229.235.416.329.416.094 0 .17.068.17.15 0 .255-1.4.32-1.55.072-.11-.182-3.14-.222-16.802-.222-9.168 0-16.669.06-16.669.134 0 .073.09.223.2.333.11.11.157.2.104.2-.053 0-.186-.108-.296-.24z" style="fill:#000;stroke-width:.16677;fill-opacity:1"/></svg>