<svg xmlns="http://www.w3.org/2000/svg" width="476.361" height="128" viewBox="0 0 126.037 33.867"><path d="M62.385 30.517c-.161-.26 0-.812.679-2.311l.523-1.157-1.231-1.12c-1.906-1.734-2.068-1.821-2.637-1.423-.286.2-.911.334-1.564.334-.773 0-1.123.092-1.209.316-.102.265-.771.315-4.23.315H48.61V23.578l2.208-.005a8025.362 8025.362 0 0 1 15.127 0l4.085.005-.063.842c-.06.813-.18.938-3.44 3.576-3.233 2.618-3.85 2.993-4.141 2.521zm1.579-1.365a.316.316 0 0 0-.316-.315.316.316 0 0 0-.316.315.316.316 0 0 0 .631 0zm2.884-2.564c.099-.258-.206-.662-1.111-1.472-1.308-1.17-1.843-1.363-2.082-.75-.107.275.169.649 1.082 1.468 1.274 1.143 1.878 1.36 2.11.754zm-1.731-.927c-1.094-.9-1.354-1.242-.947-1.242.28 0 2.317 1.711 2.318 1.946 0 .317-.346.14-1.371-.704zm4-.903c0-1.095-1.334-1.312-1.543-.251-.136.694.141.994.858.925.6-.058.685-.142.685-.674zm-1.096.27c-.333-.334-.098-.819.397-.819.304 0 .395.12.345.457-.079.538-.406.697-.742.361zM56.04 24.49c.076-.076.033-.265-.096-.42-.177-.214-1.017-.283-3.456-.283-3.084 0-3.674.111-3.353.631.144.233 6.676.301 6.905.072zm-5.064-.228c.897-.04 2.364-.04 3.26 0 .897.04.163.072-1.63.072s-2.527-.032-1.63-.072zm10.999-.068c.194-.313-.031-.483-.434-.329-.186.071-.279.225-.207.342.17.276.466.27.64-.013zm33.821 6.126c-.355-.216-.76-.71-.901-1.096a569.99 569.99 0 0 1-1.5-4.323c-1.078-3.136-1.212-3.69-1-4.154.134-.294.312-.535.395-.535.268 0 .402.915.175 1.189-.258.31-.07.704.335.704.41 0 1.228 2.51.933 2.864-.26.314-.082.712.32.712.152 0 .51.657.796 1.46.476 1.334.492 1.49.187 1.794-.304.305-.29.345.155.462.415.108 1.028 1.04.82 1.248-.038.037-.36-.109-.715-.325zm.975-.135c-.118-.31-.16-.733-.095-.94.068-.215-.01-.453-.179-.552-.478-.277-1.423-3.118-1.133-3.408.18-.18.128-.318-.205-.55-.485-.34-1.373-2.683-1.194-3.15.06-.159-.086-.486-.326-.726-.64-.64-.54-1.007.407-1.49l.845-.431.172.48c1.186 3.292 3.685 10.88 3.606 10.952-.057.05-.459.157-.894.235-.721.131-.808.095-1.004-.42zm-22.5-.002c-1.175-.509-1.876-1.323-2.863-3.323-.877-1.778-1.176-3.072-.709-3.072.118 0 .673.97 1.233 2.156 1.33 2.815 2.329 3.733 4.062 3.733.353 0 2.65-.52 5.104-1.157 2.454-.636 4.587-1.157 4.742-1.157.678 0-.135.264-2.923.949-1.913.47-3.489.999-4.377 1.47-1.564.83-2.972.963-4.269.401zm22.932-5.54c-1.067-3.116-1.875-5.77-1.796-5.898.08-.128.316-.178.527-.112.477.152 2.78-.951 2.656-1.273-.126-.33 2.052-1.356 2.872-1.353l.68.003 2.05 6.054c1.128 3.33 2.051 6.158 2.051 6.284 0 .238-1.44 1.011-1.594.857-.048-.049-.744-2.02-1.546-4.383-.802-2.362-1.612-4.735-1.8-5.273-.233-.662-.492-1.018-.804-1.103-.646-.175-3.826 1.256-4.094 1.842-.161.355.14 1.459 1.433 5.235.9 2.632 1.563 4.785 1.472 4.785-.092 0-1.04-2.55-2.107-5.665zm-17.989 5.111c.988-.562 6.836-1.98 6.836-1.657 0 .147-.118.362-.263.48-.48.39-4.324 1.317-5.245 1.266-.499-.028-1.144.021-1.433.11-.445.135-.429.105.105-.199zm19.044-4.02c-.832-2.401-1.53-4.599-1.55-4.884-.029-.419.166-.63 1.016-1.103 1.382-.768 2.583-1.138 2.846-.876.225.226 3.573 9.848 3.563 10.242-.012.478-.416-.462-1.352-3.146-2.232-6.403-2.353-6.7-2.773-6.763-.547-.083-2.793.929-2.945 1.327-.067.175.598 2.354 1.479 4.842.88 2.488 1.601 4.569 1.601 4.624 0 .055-.084.1-.186.1-.103 0-.867-1.963-1.7-4.364zm3.257 3.844c1.332-.42 2.337-.602 2.099-.379-.215.201-2.251.705-2.698.668-.136-.012.134-.142.599-.289zm-1.056-.27c.115-.112.683-.317 1.262-.453.578-.137 1.229-.302 1.446-.367.236-.07.342-.033.263.094-.072.116-.628.324-1.235.461-.608.138-1.295.3-1.526.36-.276.073-.348.04-.21-.094zm-26.21-.525c-.52-.345-1.038-1.102-1.908-2.787-1.26-2.442-1.334-2.63-1.04-2.63.1 0 .636.944 1.189 2.096 1.88 3.92 2.049 3.965 8.647 2.297 4.279-1.082 5.508-1.31 5.106-.948-.048.044-2.154.612-4.68 1.262-5.113 1.318-6.232 1.426-7.313.71zm25.684-.132c0-.188 2.414-.867 3.082-.867.708 0-.033.363-1.443.707-1.643.402-1.64.401-1.64.16zm6.636-.67c-.061-.167-1.009-2.929-2.106-6.14l-1.995-5.836h.626c.344 0 .625.038.625.085 0 .046.864 2.61 1.92 5.698l1.92 5.614-.44.44c-.351.352-.461.38-.55.138zM61.177 26.6c-.897-.744-1.63-1.435-1.63-1.534 0-.356.698-.44 1.133-.136.244.17.9.716 1.457 1.214.843.752.985.981.842 1.358-.163.427-.265.375-1.802-.902zm38.544 1.218c0-.097.497-.288 1.105-.425a61.183 61.183 0 0 0 1.577-.373c.26-.07.474-.031.474.084s-.611.363-1.358.55c-1.549.39-1.798.412-1.798.164zm-19.81-.853c.145-1.518-1.375-5.972-2.247-6.582-.382-.268-.413-.404-.234-1.027.113-.395.206-1.05.207-1.456l.001-.737 1.208-.06c.968-.048 1.304-.163 1.69-.578.265-.286.576-.52.691-.52.48 0-1.24 1.232-1.81 1.297-.586.067-.638.149-.843 1.333-.215 1.244-.209 1.275.466 2.163.724.953 1.624 3.482 1.928 5.42.195 1.242.198 1.234-.603 1.425-.506.12-.527.088-.454-.678zm19.515.012c-.169-.274-.065-.33 1.424-.757 1.197-.343 1.816-.325 1.816.053 0 .1-.497.295-1.104.431-.607.137-1.307.302-1.554.368-.247.065-.509.022-.582-.095zm-18.275-1.138c-.18-1.67-.913-3.785-1.732-5.002-.675-1.003-.72-1.169-.57-2.067.137-.826.243-.987.684-1.047.287-.038.758-.291 1.047-.562.67-.626 1.928-.884 2.274-.467.198.238.158.382-.192.7-.577.52-1.03 1.412-1.03 2.024 0 .268.434 1.229.964 2.134 1.1 1.88 2.082 4.325 1.833 4.568-.127.124-2.755.824-3.096.824-.034 0-.116-.497-.182-1.105zm2.593.148c.224-.27.21-.387-.08-.677-.326-.326-.373-.326-.7 0-.288.29-.302.407-.079.677.15.179.342.326.43.326.087 0 .28-.147.43-.326zm-.64-.305c0-.116.095-.21.21-.21.117 0 .211.094.211.21 0 .115-.094.21-.21.21a.211.211 0 0 1-.21-.21zm-2.84-6.834c0-.48-.705-.707-.954-.305-.26.42.021.856.508.787.284-.04.447-.216.447-.482zm-46.38 7.457c0-.235.15-.656.333-.935.183-.28.316-.867.295-1.307-.02-.44-.028-.919-.017-1.063.016-.198.817-.263 3.248-.263 2.961 0 3.26.035 3.609.42.336.372.648.421 2.654.421 2.059 0 2.295-.04 2.5-.42.158-.297.44-.421.953-.421h.729l-.035 1.63c-.02.897-.072 1.251-.116.789-.045-.463-.236-.96-.426-1.105-.432-.33-6.406-.368-7.01-.045-.296.16-.406.443-.406 1.052v.834H37.91c-1.967 0-2.36.059-2.82.42-.693.545-1.205.542-1.205-.007zm6.062-2.359.067-.578H38c-1.967 0-2.012.01-2.012.49 0 .27.067.558.148.64.081.08.957.12 1.946.087 1.788-.06 1.798-.063 1.864-.639zm-3.747-.052c0-.239.257-.316 1.051-.316.795 0 1.052.077 1.052.316 0 .238-.257.315-1.052.315-.794 0-1.051-.077-1.051-.315zm2.365.052c.133-.404 1-.463 1-.067 0 .215-.19.33-.543.33-.341 0-.511-.098-.457-.263zm-3.207-.696c0-.347-.332-.405-.526-.092-.171.277.08.67.33.516.108-.066.196-.257.196-.424zm49.367 2.81c.122-.642-.57-2.39-1.74-4.393-1.143-1.959-1.203-2.737-.3-3.873.715-.9.73-.959.368-1.375-.145-.166-.003-.074.315.205.706.619.707.646.053 1.61-.29.427-.526.975-.525 1.22 0 .243.474 1.289 1.054 2.322 1.009 1.799 2.042 4.244 1.867 4.42-.046.045-.331.145-.635.221-.494.124-.542.086-.457-.356zm21.643-3.27a305.73 305.73 0 0 0-1.855-5.47l-.624-1.735h-1.457c-1.25 0-1.668.106-2.933.743-.812.409-1.421.831-1.355.94.067.107-.348.433-.922.724-.653.33-1.072.443-1.12.298-.046-.137-.774.12-1.804.638-2.16 1.087-2.288.845-.147-.279.866-.454 1.575-.937 1.575-1.072 0-.28 1.642-1.076 2.036-.985.143.033.836-.231 1.54-.586 1.21-.611 1.392-.642 3.395-.586l2.117.06 1.652 5.046c1.501 4.585 1.801 5.997 1.275 5.997-.077 0-.695-1.68-1.373-3.734zM40.616 25.16v-.952h6.965l-.065.894-.064.894-3.418.058-3.418.058zm58.4.63c-.174-.455 2.77-1.354 3.034-.927.241.39.075.505-1.31.9-1.459.415-1.574.417-1.724.026zm-.44-1.101c-.07-.182-.1-.358-.066-.391.096-.096 2.98-1.127 3.018-1.08a4 4 0 0 1 .171.49c.112.364.03.468-.447.572a23.72 23.72 0 0 0-1.566.433c-.88.275-.996.272-1.11-.024zm15.075-2.262c-2.246-2.044-2.528-2.065-4.342-.322-1.335 1.28-1.595 1.448-1.595 1.026 0-.13-.581-2.022-1.292-4.207l-1.292-3.97-2.441.003c-2.29.003-2.51.041-3.535.606-1.005.554-1.326.61-1.326.228 0-.079.379-.314.842-.523.955-.43.98-.478.473-.864-.524-.397-8.522-.416-8.85-.02-.171.205.06.632.934 1.735.639.805 1.284 1.589 1.433 1.742.226.232.64.096 2.405-.79 1.173-.589 2.132-1.024 2.132-.967 0 .057-.473.344-1.051.637-.579.293-1.052.626-1.052.74 0 .226-3.929 2.248-4.06 2.09-.043-.053-.807-1.066-1.698-2.252l-1.62-2.156H84.78c-1.64 0-2.938-.085-2.938-.193 0-.106.071-.224.158-.263.087-.038.714-.709 1.393-1.49l1.235-1.42 2.236.01 2.235.007.69.939.69.938h13.554c15.372 0 13.835.202 14.108-1.857.136-1.025.18-1.088.752-1.088h.607l-.056 6.573-.056 6.574-1.998.059-1.998.058zm5.317-1.164a.414.414 0 0 0-.263-.368c-.157-.052-.263.097-.263.368 0 .272.106.42.263.369a.414.414 0 0 0 .263-.369zm-1.075-.122c.248-.644.141-5.88-.124-6.146-.14-.139-.6-.252-1.026-.252-.431 0-.89-.14-1.036-.316-.36-.435-8.233-.47-8.59-.039-.17.204-.053.818.454 2.366.64 1.955.718 2.086 1.202 2.017.286-.04 1.303-.118 2.26-.173l1.742-.1 1.71 1.488c1.463 1.272 1.825 1.488 2.496 1.488.522 0 .828-.112.912-.333zm-3.21-1.364-1.718-1.487-1.942.072c-1.068.04-2.074.117-2.236.172-.214.073-.46-.422-.89-1.793-.329-1.041-.598-1.964-.6-2.05-.002-.087 1.83-.158 4.073-.158 3.366 0 4.121.054 4.337.315.15.181.61.316 1.078.316h.815v6.1h-.6c-.44 0-1.054-.394-2.317-1.487zm2.183-.41c.196-.316-.077-.992-.46-1.139-.98-.376-1.717.74-.916 1.39.468.379 1.053.273 1.376-.25zm-1.137.021c-.397-.251-.12-.909.346-.82.203.04.369.252.369.472 0 .467-.298.612-.715.348zm-7.293.169c-.18-.29-.722-.22-.722.094 0 .154.063.343.139.419.19.19.726-.282.583-.513zM87.73 14.22c.317-.383.142-.913-.361-1.09-.205-.072-.626-.365-.935-.65-.649-.599-.94-.494-1.35.489-.409.976-.21 1.316.826 1.41.481.044 1.03.097 1.218.117.188.02.459-.104.602-.276zm-.905-.034c-.298-.297-.13-.705.291-.705.294 0 .414.114.369.35-.076.388-.435.58-.66.355zm-1.617-.665c0-.21.133-.563.296-.786.29-.396.307-.396.73-.014.336.304.385.48.222.786-.28.524-1.248.535-1.248.014zm33.865-1.407a.316.316 0 0 0-.316-.316.316.316 0 0 0-.315.316c0 .173.142.315.315.315a.316.316 0 0 0 .316-.315zm-20.91 11.334c-.073-.193-.108-.367-.077-.385.032-.018.698-.28 1.48-.583 1.36-.526 1.431-.533 1.63-.162.18.338.064.44-.897.797-1.89.7-1.988.715-2.135.333zm21.751-7.022v-7.39l.579.066.578.067v14.513l-.578.067-.579.066zm-78.562 6.31c-.21-.232-.484-.42-.611-.42-.147 0-.23-.59-.23-1.63v-1.631H38.828l-.063 1.439c-.034.79.029 1.548.14 1.682.153.183-.312.226-1.86.173-1.33-.047-2.232.017-2.534.18-.671.358-.83-.005-.833-1.913-.003-1.396.057-1.65.483-2.05l.487-.458H46.01c6.25 0 11.43.067 11.51.148.081.08-.919 1.216-2.222 2.524l-2.37 2.376h-2.11c-1.88 0-2.137-.045-2.37-.42-.192-.306-.491-.42-1.096-.42-.617 0-.89.108-1.057.42-.203.379-.44.42-2.394.42-1.901 0-2.215-.051-2.55-.42zm14.408-1.998c2.199-2.205 2.48-2.42 3.182-2.42.49 0 .814.115.89.316.133.345 1.114.422 1.585.123a.452.452 0 0 0 .165-.522c-.111-.29.079-.337 1.336-.337h1.466v.736c0 .596-.08.736-.42.736-.378 0-.421.14-.421 1.368 0 1.226.043 1.367.42 1.367.309 0 .421.14.421.526v.525H53.348zm6.977.598c.478-.432.49-.87.037-1.37-.49-.542-4.357-.57-4.946-.037-.472.427-.494.985-.055 1.424.49.49 4.42.476 4.964-.017zm-4.96-.415c-.136-.355.2-.92.548-.92.11 0 .048.152-.138.338-.26.26-.282.405-.095.631.149.179.16.293.03.293-.117 0-.272-.154-.345-.342zm4.696.05c.188-.227.166-.371-.095-.632-.186-.186-.248-.338-.138-.338.11 0 .307.13.44.29.262.316.103.972-.237.972-.13 0-.119-.114.03-.293zm2.28 1.66c.108-.562.683-.74.683-.21 0 .264.457.315 2.852.315 1.848 0 2.806.074 2.722.21-.077.125-1.395.21-3.244.21h-3.113zm56.8-3.944c-.034-2.459-.034-5.494-.001-6.745.058-2.213.072-2.273.526-2.208.362.051.481.229.536.802.075.798-.299 2.314-.571 2.314-.163 0-.14 1.375.063 3.786.054.636.118 1.204.143 1.262.065.15.167 1.002.26 2.16.043.553.14 1.065.215 1.14.258.258.133 1.299-.195 1.628-.844.844-.913.552-.977-4.14zM65.75 22.316c-.071-.116.028-.21.22-.21.193 0 .632-.237.976-.526.343-.29.76-.526.924-.526.221 0 .3-.29.3-1.11 0-1.1.011-1.12 1.577-2.676.868-.862 1.577-1.682 1.577-1.823 0-.736-.627-.381-2.335 1.32-1.628 1.62-1.871 1.955-1.871 2.582 0 .666-.028.697-.368.404a2.843 2.843 0 0 0-.737-.446c-.236-.084-.368-.35-.368-.743 0-.487.344-.947 1.696-2.267l1.696-1.656 3.773-.106c2.076-.057 3.773-.034 3.773.053s-.101.158-.225.158-.195.213-.158.473c.063.44.173.473 1.537.473 1.271 0 1.48-.053 1.546-.395.042-.218-.043-.47-.189-.56-.147-.09.355-.195 1.137-.235.77-.04 1.4-.042 1.4-.006 0 .037-.402.534-.894 1.105l-.894 1.038h-3.438c-2.87 0-3.539.06-4.049.36l-.61.362v2.331c0 1.533-.087 2.418-.253 2.584-.317.316-5.55.355-5.743.042zm5.355-.304c.138-.167.22-.522.183-.789-.053-.374-.223-.5-.745-.55-.576-.056-.697.015-.812.476-.238.949.774 1.585 1.374.863zm-1.043-.515c0-.47.487-.714.8-.4.313.312.069.798-.401.798-.25 0-.399-.147-.399-.398zm.585-1.401c.858-.602.384-2.197-.653-2.197-1.103 0-1.621 1.57-.726 2.197.257.18.567.327.69.327.121 0 .432-.147.689-.327zm-1.363-.357c-.358-.473-.265-1.199.186-1.44.314-.168.394-.168.29 0-.082.131.003.23.197.23s.28-.099.198-.23c-.104-.168-.025-.168.29 0 .779.417.411 1.703-.488 1.703-.26 0-.564-.118-.673-.263zm1.022-.396c-.25-.093-.454-.224-.454-.293 0-.068.095-.066.21.006.116.071.21.024.21-.106 0-.129.095-.176.211-.105.116.072.21.049.21-.05 0-.1-.33-.181-.736-.181-.405 0-.736.049-.736.108 0 .286.982.996 1.243.899.214-.08.17-.157-.158-.279zm5.015-4.284c0-.242-.269-.315-1.157-.315s-1.157.073-1.157.315c0 .243.269.316 1.157.316s1.157-.073 1.157-.316zm-1.525-.043c.26-.05.686-.05.946 0 .26.05.048.091-.473.091-.52 0-.733-.04-.473-.091zm23.924 7.296c-.073-.118.205-.355.618-.526l1.52-.63c.423-.175.813-.273.867-.219.282.282-.256.726-1.374 1.133-1.44.526-1.455.528-1.631.242zm-91.882-.136c-.077-.077-.14-.93-.14-1.893 0-1.474.054-1.753.34-1.753.261 0 .302.11.176.473-.212.61-.212 2.23 0 2.84.156.45-.063.645-.376.333zm20.72-.123c-.03-.308-.254-.368-1.375-.368h-1.338l-.327-.894c-.18-.492-.383-1.13-.45-1.42l-.124-.526.233.526c.51 1.152.518 1.157 1.662 1.157 1.128 0 1.216-.057 1.608-1.052.128-.325.182-.217.238.48.04.494.035 1.251-.01 1.682-.045.43-.098.618-.118.415zm12.374-1.42v-1.262h1.262v2.524h-1.262zm24.905.969c-.062-.161-.083-.658-.046-1.104l.066-.811 1.21-.063 1.21-.063v2.334h-1.164c-.801 0-1.199-.091-1.276-.293zm-54.525-.31c-.174-.11-.252-.482-.21-.996.065-.8.087-.821.954-.884.8-.058.9-.011 1.022.473.074.296.075.775.003 1.064-.107.426-.261.525-.812.522-.374-.001-.805-.082-.957-.179zm2.276-.133c0-.173.186-.315.414-.315.281 0 .375.1.293.315-.067.174-.253.316-.414.316-.162 0-.293-.142-.293-.316zm1.19.01c-.093-.241.013-.325.411-.325.336 0 .504.098.45.263-.131.393-.718.435-.861.063zm1.258-.01c-.091-.236.034-.315.496-.315.463 0 .588.079.497.315-.066.174-.29.316-.497.316-.206 0-.43-.142-.496-.316zm1.478.175c-.285-.284-.126-.49.379-.49.375 0 .486.087.398.315a.472.472 0 0 1-.777.175zm1.262 0c-.285-.284-.126-.49.38-.49.374 0 .485.087.397.315a.472.472 0 0 1-.777.175zm1.256-.175c-.087-.227.022-.315.392-.315.369 0 .479.088.391.315-.066.174-.243.316-.391.316-.15 0-.325-.142-.392-.316zm1.262 0c-.09-.236.034-.315.497-.315.463 0 .587.079.497.315-.067.174-.29.316-.497.316-.207 0-.43-.142-.497-.316zm1.338-.01c0-.265.24-.314 1.298-.263.804.039 1.331.163 1.385.326.064.192-.284.263-1.298.263-1.11 0-1.385-.065-1.385-.326zm76.775.084c0-.397 2.787-1.469 2.994-1.152.098.15-.229.409-.894.706-1.493.668-2.1.797-2.1.446zM6.33 20.318c0-.692.078-.956.263-.894.15.05.263.436.263.894s-.114.844-.263.894c-.185.062-.263-.202-.263-.894zm60.206.315c0-.405.044-.57.097-.368.052.203.052.534 0 .736-.053.203-.097.037-.097-.368zm5.595-.206c-.044-.465-.007-.845.083-.845.09 0 .163.097.163.215 0 .119.26.32.579.446.325.13.463.273.315.328-.145.053-.263.19-.263.303 0 .112.118.137.263.054.145-.084.188-.07.097.03-.09.1-.388.212-.66.248-.44.06-.505-.03-.577-.779zm.775.034c-.168-.168-.53.212-.4.42.087.141.195.12.307-.061.095-.154.136-.316.093-.36zm2.784.647c-1.629-.055-2.05-.133-2.05-.377 0-.247.367-.308 1.86-.308 1.593 0 1.915.06 2.24.42.21.232.296.402.191.377-.104-.024-1.113-.075-2.241-.112zm-68.519-.685c0-.58.059-.631.737-.631.677 0 .736.05.736.631 0 .58-.059.631-.736.631-.678 0-.737-.05-.737-.631zm59.754.298c.01-.245.06-.295.127-.127.06.152.053.333-.017.403s-.12-.054-.11-.276zm.58-1.004c.068-1.097.114-1.171 1.735-2.782.916-.91 1.665-1.56 1.665-1.445 0 .116-.71.916-1.578 1.778-1.524 1.514-1.577 1.6-1.577 2.571 0 .553-.071 1.005-.158 1.005-.087 0-.126-.507-.088-1.127zm-55.916.706c0-.135 2.033-.21 5.679-.21 3.646 0 5.679.075 5.679.21s-2.033.21-5.68.21c-3.645 0-5.678-.075-5.678-.21zm12.053-.919c-.12-.39-.171-1.195-.114-1.79.115-1.197.376-1.382 1.756-1.25.685.065.718.109.848 1.12.074.578.036 1.406-.086 1.84-.215.767-.247.789-1.204.789-.933 0-.994-.036-1.2-.709zm1.496.16c.183-.07.333-.354.333-.63 0-.4-.11-.504-.532-.504-.62 0-.891.498-.517.95.298.358.277.353.716.184zm-.508-.608c0-.193.102-.317.226-.275.124.041.226.165.226.275 0 .11-.102.234-.226.275-.124.041-.226-.082-.226-.275zm.841-1.45c0-.615-.592-.888-1.013-.467-.427.427-.158.97.48.97.422 0 .533-.105.533-.503zm-.841-.023c0-.192.102-.316.226-.275.124.042.226.166.226.275 0 .11-.102.234-.226.276-.124.041-.226-.083-.226-.276zm-13.041 1.999c0-.232.13-.421.29-.421.16 0 .341.19.402.42.081.313.006.421-.291.421-.261 0-.401-.147-.401-.42zm1.2 0c.061-.232.23-.421.377-.421s.316.19.377.42c.086.332.006.421-.377.421s-.463-.09-.376-.42zm1.263 0c.06-.232.237-.421.393-.421.156 0 .385.19.51.42.2.377.16.421-.394.421-.516 0-.6-.07-.51-.42zm1.362.055c.103-.532.726-.58.86-.066.092.35.014.431-.408.431-.383 0-.503-.097-.452-.365zm1.305.033c.07-.183.128-.373.128-.421 0-.301.602-.012.692.333.089.338.007.42-.419.42-.395 0-.496-.083-.4-.332zm1.33-.088c.06-.232.23-.421.376-.421s.316.19.376.42c.087.332.007.421-.376.421s-.463-.09-.377-.42zm1.261 0c.06-.232.238-.421.394-.421.156 0 .385.19.509.42.201.377.16.421-.394.421-.515 0-.6-.07-.509-.42zm1.362.052c.053-.275.314-.384 1.04-.43.83-.055.987-.001 1.083.367.103.396.018.431-1.04.431-.984 0-1.142-.053-1.083-.368zm54.766-.571c.167-.402.305-1.017.305-1.368 0-.54.08-.637.525-.637.463 0 .526.09.526.752 0 .551-.164.917-.615 1.367-.831.832-1.118.788-.741-.114zm23.863.519c.173-.112.41-.204.526-.204.115 0 .068.091-.106.204-.173.112-.41.204-.525.204-.116 0-.069-.092.105-.204zm-34.534-1.068c-.08-.849-.059-.879 2.059-2.84l2.14-1.982H80.461l.976-.961c.861-.849 1.068-.953 1.771-.894l.796.067-.995 1.104-.995 1.105H69.125l-1.844 1.836c-1.669 1.66-1.845 1.912-1.845 2.63 0 1.13-.56 1.076-.669-.065zm-4.66-.124c-.301-.302-.112-.491.491-.491.42 0 .631.105.631.315 0 .319-.846.451-1.122.176zm28.1-1.018c-.883-1.142-.906-1.156-2.005-1.156-.67 0-1.298.131-1.584.332-.45.314-.505.297-1.1-.339-.547-.586-.718-.653-1.36-.532-.46.086-.736.055-.736-.082 0-.143 1.06-.22 3.024-.22h3.025l1.187 1.577c.906 1.204 1.099 1.578.814 1.577-.205 0-.775-.52-1.266-1.157zm-60.095.685c-.044-.145-.183-.585-.309-.978-.13-.409-.228-2.374-.228-4.582 0-3.243-.051-3.886-.316-3.987-.173-.067-.315-.348-.315-.625 0-.47.076-.503 1.156-.503h1.157V18.32h-.532c-.293 0-.569-.119-.613-.263zm.935-2.695c0-.108-.142-.198-.316-.198-.325 0-.417.249-.18.486.167.168.496-.022.496-.288zm0-3.878c0-.174-.09-.316-.198-.316-.265 0-.455.328-.287.497.237.236.485.144.485-.181zm.631 2.944c0-3.131.047-3.68.315-3.68.265 0 .316.454.316 2.829 0 1.71.097 3.043.246 3.369.21.46.186.584-.158.845-.222.167-.475.308-.561.312-.087.003-.158-1.65-.158-3.675zm62.258 2.063a77.59 77.59 0 0 1-1.219-1.578c-.262-.362-.084-.38 3.957-.38 2.686 0 4.185.075 4.105.205-.133.215-5.449 2.95-5.734 2.95-.09 0-.59-.538-1.109-1.197zm1.639-.182c.574-.402.592-.756.062-1.236a.82.82 0 0 0-1.159 1.158c.444.49.503.494 1.097.078zm-.929-.407c-.072-.19-.031-.446.092-.57.32-.32.928-.027.844.408-.093.484-.767.6-.936.162zm-61.822.847c-.211-.506-.305-1.54-.305-3.366v-2.636h4.606l.066 2.998c.036 1.648.146 3.163.243 3.365.164.339 0 .368-2.063.368h-2.242zm4.838 0c-.211-.506-.305-1.54-.305-3.366v-2.636h6.514c5.704 0 6.499.04 6.393.316-.102.266-.794.315-4.433.315h-4.313l-1.344 1.07-1.344 1.07v1.98c0 1.856-.027 1.98-.432 1.98-.293 0-.529-.233-.736-.73zm.707-1.39c-.042-.124-.166-.226-.276-.226-.11 0-.233.102-.275.226-.041.124.083.226.275.226.193 0 .317-.102.276-.226zm1.706-3.263c.86-.723.817-.928-.194-.928-.821 0-.841.018-.841.736 0 .88.179.913 1.035.192zm-.825-.184c0-.183.183-.323.42-.323.232 0 .422.044.422.097 0 .054-.19.2-.421.323-.336.18-.42.16-.42-.097zm-.841-.546c0-.109-.142-.198-.316-.198-.325 0-.418.248-.18.485.167.168.496-.022.496-.287zm.841 4.154v-1.96l.677-.512c1.29-.977 1.496-1.11 1.352-.877-.095.152.046.22.402.194.437-.032.742.204 1.507 1.165.802 1.009.915 1.258.693 1.525-.146.176-.431.32-.634.32-.43 0-2.104-2.076-2.104-2.609 0-.198-.094-.302-.21-.23a.5.5 0 0 0-.21.383c0 .45 2.109 2.877 2.5 2.877.45 0 1.075-.637 1.075-1.094 0-.447-1.649-2.48-2.189-2.698-.269-.11.846-.183 2.873-.192l3.313-.013-.42.42c-.232.232-.421.544-.421.695 0 .422 1.967 2.765 2.39 2.846.443.085 1.185-.526 1.185-.977 0-.465-1.64-2.559-2.172-2.773-.291-.118.762-.19 2.903-.198 3.098-.012 3.323.012 2.892.314-.257.18-.468.499-.468.707 0 .605 1.93 2.942 2.44 2.953.478.01 1.136-.591 1.136-1.04 0-.417-1.704-2.546-2.199-2.746-.283-.115.143-.179 1.247-.188 1.576-.012 1.649.007 1.21.314-.258.18-.468.499-.468.707 0 .605 1.93 2.942 2.439 2.953.479.01 1.137-.591 1.137-1.04 0-.417-1.704-2.546-2.2-2.746-.287-.117.082-.179 1.117-.188 1.544-.013 1.549-.011 2.6.934l1.052.946 3.185.01 3.185.01-1.998 1.88-1.998 1.881-13.41.003-13.409.002zm7.993-.145c.232-.232.42-.524.42-.649s-.439-.788-.977-1.472c-.754-.96-1.105-1.245-1.535-1.245-.651 0-1.063.346-1.063.891 0 .543 1.921 2.892 2.366 2.894.203.001.558-.188.79-.42zm-1.975-1.162c-.797-.98-.928-1.257-.75-1.59.372-.695.949-.46 1.872.763.936 1.239 1.027 1.843.294 1.948-.331.047-.705-.248-1.416-1.121zm1.662.737c.152-.246-1.505-2.415-1.845-2.415-.497 0-.336.51.487 1.543.878 1.102 1.12 1.257 1.358.872zm7.044.425c.231-.232.42-.524.42-.649s-.44-.788-.977-1.472c-.754-.96-1.105-1.245-1.535-1.245-.651 0-1.063.346-1.063.891 0 .543 1.92 2.892 2.366 2.894.203.001.558-.188.79-.42zm-1.593-.59c-1.347-1.75-1.427-1.905-1.149-2.241.468-.563.933-.358 1.85.817.954 1.22 1.09 1.682.56 1.886-.563.216-.808.126-1.261-.462zm1.274.174c.147-.237-1.519-2.424-1.846-2.424-.492 0-.329.527.48 1.549.855 1.082 1.13 1.258 1.366.875zm-10.087-.014c.147-.238-1.473-2.515-1.788-2.515-.51 0-.368.516.43 1.573.89 1.18 1.115 1.335 1.358.942zm-18.41.472c0-.73-.093-1.304-.211-1.304-.13 0-.21-1.052-.21-2.735 0-1.682.08-2.734.21-2.734.116 0 .21-.237.21-.526 0-.517.028-.526 1.683-.526 1.623 0 1.683.018 1.683.491 0 .27.069.56.153.644.206.206.216 5.183.01 5.31-.09.055-.163.682-.163 1.392 0 1.005-.056 1.236-.253 1.04-.138-.14-.782-.253-1.43-.253-.648 0-1.291.114-1.43.253-.197.196-.253-.038-.253-1.052zm23.575-1.122c-.948-1.191-1.06-1.927-.307-2.034.568-.08 2.233 1.923 2.14 2.575-.124.864-.896.636-1.833-.541zm1.566.65c.14-.228-1.502-2.515-1.807-2.515-.49 0-.339.53.45 1.573.89 1.18 1.114 1.335 1.357.942zm5.165-.65c-.954-1.198-1.06-1.927-.297-2.035.345-.05.673.22 1.332 1.094.926 1.225 1.02 1.874.287 1.98-.323.046-.684-.238-1.322-1.04zm1.558.663c.135-.22-1.507-2.528-1.799-2.528-.505 0-.349.563.441 1.587.893 1.157 1.125 1.318 1.358.941zm1.807-.663c-.945-1.187-1.059-1.927-.313-2.033.535-.076 2.265 2.037 2.152 2.629-.153.8-.926.55-1.839-.596zm1.558.663c.136-.22-1.506-2.528-1.798-2.528-.506 0-.35.563.44 1.587.893 1.157 1.125 1.318 1.358.941zm17.987.229c0-.236.547-.457.715-.289.253.254.115.477-.295.477-.231 0-.42-.085-.42-.188zm1.262-.023c0-.115.284-.21.63-.21.348 0 .632.095.632.21 0 .116-.284.21-.631.21-.347 0-.631-.094-.631-.21zM61.218 12.73c-.399-.413-.985-.907-1.304-1.097-.318-.19-.578-.466-.578-.615 0-.213 1.195-.27 5.68-.27 4.637 0 5.678.053 5.678.285 0 .157-.514.772-1.144 1.368l-1.144 1.082h-6.463zm9.013-.195c.78-.701 1.026-1.057.945-1.367-.108-.411 0-.42 5.383-.42h5.494v.466c0 .263-.384.856-.885 1.367l-.885.902h-4.775c-4.67 0-4.772-.01-4.664-.42.072-.279.006-.422-.195-.422-.46 0-.61.243-.348.56.188.226.1.282-.445.282h-.68Zm10.019.407c.408-.408.43-1.219.04-1.542-.2-.167-1.537-.223-4.364-.183l-4.075.057-.067.698c-.12 1.257.021 1.3 4.285 1.3 3.22 0 3.904-.054 4.18-.33zm-8.196-.313c-.163-.263.054-1.25.275-1.25.084 0 .153.332.153.737 0 .734-.167.935-.428.513zm4.635.02c2.977-.106 3.155-.137 3.155-.533 0-.397-.179-.428-3.155-.538l-3.155-.116 3.26.011 3.26.011.067.684.065.684-3.326-.044-3.326-.044 3.155-.114zm-3.891-.428c0-.234.14-.421.315-.421.176 0 .316.187.316.42 0 .234-.14.421-.316.421-.175 0-.315-.187-.315-.42zm2.376-.157a41.82 41.82 0 0 1 3.155 0c.833.04.095.073-1.64.073-1.735 0-2.417-.033-1.515-.073zm6.668-.802c0-.31-.449-.415-.699-.165-.19.19.281.726.513.583.103-.063.186-.252.186-.418zm8.08 1.17-.804-1.053h-3.322c-2.813 0-3.322-.048-3.322-.315 0-.278 1.96-.316 16.38-.316 14.304 0 16.414-.04 16.643-.315.174-.21.646-.316 1.413-.316h1.15l-.146 1.064c-.08.585-.214 1.318-.297 1.63l-.152.567-13.37.054-13.37.054zm15.268.484 1.788-.17v-1.262l-2.629-.158c-1.446-.087-4.428-.134-6.626-.105l-3.996.053-.068.704c-.131 1.374-.323 1.327 4.956 1.211 2.633-.057 5.592-.18 6.575-.273zm-11.148-.684v-.642h3.753c5.4 0 8.868.211 8.868.54 0 .354-1.851.504-7.835.637l-4.786.107zm-1.198.517c.023-.114-.124-.239-.327-.278-.23-.044-.368.059-.368.276 0 .365.622.368.695.003zm17.395-.108c.16-.299.16-.542 0-.841-.398-.742-1.683-.421-1.683.42 0 .842 1.285 1.164 1.683.421zm-1 .063c-.434-.161-.315-.904.146-.904.224 0 .472.104.55.23.181.293-.346.803-.696.674zm7.899.106c.623-.624.006-1.573-.879-1.35-.612.153-.837.648-.543 1.197.242.453 1.036.539 1.422.153zm-1.013-.277c-.309-.372-.094-.733.436-.733.26 0 .408.144.408.398 0 .51-.526.718-.844.335zm-23.254-1.178c-.18-.29-.722-.219-.722.094 0 .155.062.343.139.42.19.19.726-.282.583-.514zM10 13.004c-.063-.164-.087-.999-.052-1.856.061-1.53.072-1.559.649-1.625l.587-.067-.061 1.855c-.058 1.743-.09 1.86-.535 1.923-.267.037-.525-.063-.589-.23zm3.995-.001c-.062-.163-.085-.998-.05-1.855l.062-1.557h1.262v3.575l-.58.067c-.355.04-.624-.048-.694-.23zm-10.821-.35c0-.245.137-.433.316-.433.428 0 .398-.35-.053-.62-.346-.208-.342-.241.053-.55.394-.306.397-.34.052-.536a.792.792 0 0 1-.368-.618c0-.462.488-.535 1.363-.202.53.202.547.259.487 1.735l-.062 1.527-.894.065c-.783.056-.894.01-.894-.369Zm2.103-1.275V9.906H9.485V12.851H5.278Zm6.31 0V9.906h2.104V12.851H11.589zm4.207 0c0-1.121.047-1.262.421-1.262s.42.14.42 1.262c0 1.122-.046 1.262-.42 1.262s-.42-.14-.42-1.262zm4.768 1.122c-.077-.077-.14-.645-.14-1.262v-1.122H22.316v2.524h-.806c-.444 0-.87-.063-.947-.14zm-3.505-1.122v-1.051H20.213V12.43H17.058Zm31.685-.315c-.106-.275.537-.316 5.026-.316 4.434 0 5.146.044 5.146.316 0 .475-9.99.475-10.172 0zm-4.499-.896-14.566-.054.001-1.944.001-1.944h2.155c2.137 0 2.154.004 2.086.491-.038.27.095.673.295.894.35.386.785.403 10.624.403H55.1l.067.473c.06.429.198.48 1.459.535 1.16.051 1.472.148 1.876.578.267.283.445.54.397.57-.05.028-6.644.028-14.655-.002zm21.613-.05c0-.135 1.858-.211 5.153-.211 3.295 0 5.153.076 5.153.21 0 .135-1.858.21-5.153.21-3.295 0-5.153-.075-5.153-.21zm17.248-.048c0-.085.236-.308.525-.498.29-.19.526-.523.526-.741 0-.347.168-.396 1.342-.396 1.151 0 1.389.067 1.677.473l.335.473.408-.473.407-.473h14.5l.336.473.335.473.408-.473c.404-.47.449-.473 6.335-.473 5.885 0 5.93.003 6.334.473l.408.473.335-.473c.26-.368.541-.473 1.257-.473h.92v.946c0 .858-.046.947-.503.947-.277 0-.558-.142-.624-.316-.09-.234-.463-.315-1.453-.315-.733 0-1.425.093-1.54.207-.242.243-32.269.407-32.268.166zM58.89 9.538c-.323-.357-.494-.76-.445-1.052l.078-.473h19.944l.425-.833c.234-.458.432-1.05.44-1.315l.014-.481.228.473c.202.419.388.474 1.616.48 1.045.004 1.297.059 1.02.22-.918.535-.044 1.958.894 1.456.522-.28.554-1.164.052-1.456-.315-.183-.284-.215.21-.22.566-.007.579.02.579 1.214 0 1.105-.066 1.285-.694 1.893l-.693.672h-3.07c-2.535 0-3.091-.055-3.191-.315-.104-.269-.886-.316-5.259-.316s-5.155.047-5.259.316c-.1.26-.662.315-3.243.315h-3.122Zm-3.411-.824c-.077-.077-.14-.266-.14-.42 0-.206.368-.281 1.367-.281 1.227 0 1.367.043 1.367.42 0 .373-.14.421-1.227.421-.675 0-1.29-.063-1.367-.14zM87.482 8.5c.152-.06.334-.053.403.017.07.07-.054.12-.276.11-.245-.01-.295-.06-.127-.127zm15.986 0c.152-.06.333-.053.403.017s-.054.12-.276.11c-.245-.01-.295-.06-.127-.127zm13.252 0c.151-.06.333-.053.403.017s-.055.12-.276.11c-.245-.01-.295-.06-.127-.127zm-32.564-.814c0-.26.218-.313 1.088-.263 1.558.091 1.631.59.087.59-.922 0-1.175-.07-1.175-.327zm-39.421-.094c-8.29-.085-10.308-.16-10.382-.384-.077-.23-.017-.231.345-.005.346.216.493.219.696.016.335-.336 1.163-.332 1.285.005.077.21.185.21.54 0 .531-.313 3.186-.357 3.186-.052 0 .115.19.21.421.21.231 0 .42-.095.42-.21 0-.306 1-.259 1.113.052.076.21.184.21.54 0 .53-.313 3.186-.357 3.186-.052 0 .115.189.21.42.21.232 0 .42-.095.42-.21 0-.294.76-.263 1.293.052.357.21.465.21.54 0 .118-.322 3.006-.373 3.006-.052 0 .115.19.21.42.21.232 0 .421-.095.421-.21 0-.293.762-.264 1.26.047.325.203.467.203.67 0 .383-.383 3.118-.349 3.118.039 0 .426-1.129.455-12.918.334zm13.412-.052c-.054-.087.05-.158.23-.158s.328-.095.328-.21c0-.294.758-.263 1.292.052.357.21.465.21.54 0 .128-.35 2.652-.35 3.247 0 .356.21.464.21.54 0 .052-.145.278-.263.501-.263.224 0 .607.118.852.263.356.21.464.21.54 0 .125-.346 2.826-.358 3.17-.015.19.19.37.183.777-.035.445-.238.616-.238 1.06 0 .408.218.588.226.779.035.33-.329 2.74-.322 3.072.01.203.203.344.203.67 0 .533-.333 1.198-.33 1.32.005.076.21.184.21.54 0 .613-.362 1.098-.337.95.049-.103.268-1.528.32-10.215.368-5.553.031-10.14-.015-10.193-.101zm24.14-.025c-.183-.22-.161-.352.088-.56.402-.333.85.019.659.518-.156.406-.433.421-.748.042zM24.474 7.02c.32-.049.793-.048 1.052.003.258.05-.003.089-.582.087-.578-.001-.79-.042-.47-.09zm29.392-.255c0-.107-.138-.225-.307-.263-.42-.093 4.71-2.705 5.303-2.7.437.003.473.098.473 1.26 0 1.201-.03 1.272-.674 1.605-.465.24-.7.275-.754.11-.044-.13-.332-.249-.64-.262-.357-.015-.427-.06-.193-.12.414-.109.498-.618.123-.743-.134-.045-.726.152-1.314.439-2.084 1.014-2.017.992-2.017.674zm4.66-1.803c0-.11-.103-.234-.227-.275-.124-.042-.226.082-.226.275s.102.317.226.275c.124-.041.226-.165.226-.275zM84.26 6.75c.072-.116.356-.21.631-.21.276 0 .56.094.631.21.078.125-.177.21-.63.21-.454 0-.71-.085-.632-.21zm-24.57-.346c-.08-.08-.145-.65-.145-1.267 0-.99.05-1.122.432-1.122.39 0 .425.11.368 1.193-.059 1.103-.302 1.548-.655 1.196zm9.196-.156c-.062-.16-.083-.705-.046-1.21.054-.755.14-.917.486-.917s.433.162.486.909c.084 1.16-.602 2.062-.926 1.218zm-8.289-1.076v-.946h7.993V6.12h-7.993Zm-30.71-.63c0-1.319.02-1.368.526-1.368.497 0 .526.063.526 1.157v1.157h.724c.398 0 .782.094.854.21.081.132-.384.21-1.25.21h-1.38zm50.061 1.05c0-.464 3.895-.464 4.073 0 .103.268-.198.316-1.976.316-1.723 0-2.097-.056-2.097-.315zm0-1.103c0-.325.239-.37 1.999-.376 1.78-.006 1.998.034 1.998.369 0 .333-.221.375-1.998.375-1.763 0-1.999-.044-1.999-.368z" style="fill:#000;fill-opacity:1;stroke-width:.210341"/></svg>