<svg xmlns="http://www.w3.org/2000/svg" width="383.356" height="128" viewBox="0 0 101.43 33.867"><path d="M78.953 30.597c-.75-.268-.998-1.32-.32-1.354.31-.016.332-.042.092-.105-.176-.046-.32-.153-.32-.237a1.56 1.56 0 0 0-.103-.424c-.08-.211.175-.32 1.169-.497.7-.125 1.409-.175 1.576-.111.424.162.274.702-.271.977-.25.127-.347.231-.215.233.888.01 1.244-.89.536-1.351-.362-.236-.564-.234-1.688.011-1.544.337-2.28.159-2.28-.554 0-.245-.05-.575-.111-.734-.077-.2-.005-.288.234-.288.19 0 .777-.113 1.306-.25.884-.23.994-.222 1.363.09l.4.34-.511.457c-.336.3-.418.457-.239.457.298 0 .842-.672.842-1.04 0-.126-.194-.355-.43-.51-.391-.256-.567-.249-1.961.086-1.734.415-1.805.424-1.805.225 0-.08.356-.24.792-.357.871-.233 1.944-1.112 1.944-1.593 0-.168-.24-.545-.532-.837-.615-.615-1.07-.593-2.729.131-.872.381-1.257.429-3.471.429-3.195 0-3.302-.06-3.302-1.835v-1.267H71.3c1.568 0 2.344.064 2.268.186-.063.102-.183.143-.267.09-.084-.05-.362.264-.618.702-.397.677-1.154 1.394-1.473 1.394-.05 0 .111-.299.359-.664.248-.365.45-.866.45-1.113 0-.448-.003-.449-1.322-.32-.728.072-1.339.145-1.358.16-.02.017-.055.413-.08.88-.066 1.299.125 1.422 2.213 1.422 2.06 0 2.244-.112 2.169-1.33-.044-.714.038-.906.743-1.742.938-1.113 1.47-1.304 3.63-1.306 1.383 0 1.512.029 1.386.319-.258.594-.301 1.461-.093 1.852.115.213.554.604.976.869.963.604 3.725 3.271 4.068 3.929.141.27.257.747.257 1.058 0 1.077-.401 1.493-2.51 2.6-1.875.983-2.48 1.16-3.146.922zm1.004-1.333c.351-.151.35-.157-.035-.17-.22-.007-.45.07-.513.17-.133.216.045.216.548 0zm-1.095-1.824c.24-.104.272-.16.091-.167-.15-.006-.397.07-.547.167-.334.215-.046.215.456 0zM46.68 29.036a8.829 8.829 0 0 1-.284-1.003l-.129-.593h3.177l-.122.766c-.173 1.08-.367 1.24-1.502 1.24-.854 0-1.006-.054-1.14-.41zm-.262-2.083c-.067-.067-.122-.354-.122-.638v-.517h3.101V27.075H47.97c-.786 0-1.484-.055-1.551-.122zm13.262-.122c.065-.185.12-2.373.124-4.863l.005-4.528 4.372-.025 4.373-.025v1.478c0 .939-.067 1.437-.183 1.365-.1-.062-.182-.474-.182-.916 0-.608-.086-.85-.353-.993-.402-.215-6.918-.26-7.244-.05-.115.074-.238.562-.274 1.084-.036.522-.01.891.06.82.068-.07.15-.456.182-.857l.057-.73h7.298l.055.852c.03.469.174.951.32 1.072.206.171.264.748.264 2.637 0 2.851-.104 3.503-.6 3.768-.322.173-.349.155-.216-.143.175-.393.45-5.331.316-5.68-.07-.18-.936-.221-3.854-.183l-3.765.049-.091 2.776c-.08 2.415-.136 2.818-.437 3.101-.331.313-.34.313-.227-.01zm.787-.286c.064-.26.206-.534.316-.608.138-.092.129-.135-.028-.137-.243-.002-.315-.584-.1-.8.18-.18.197-1.574.02-1.574-.162 0-.101-.655.076-.833.062-.061.067-.392.011-.734-.106-.655.177-.87.397-.303.118.304.135.304.359 0 .204-.277.565-.32 2.729-.32 2.144 0 2.51.043 2.609.3.105.273.135.272.347-.018.128-.175.32-.264.427-.198.243.15.257.829.016.829-.101 0-.129.242-.064.566.076.383.03.623-.142.743-.196.137-.202.2-.026.27.27.11.31.793.045.793-.1 0-.182.082-.182.182 0 .1.123.182.273.182.333 0 .262.765-.082.88-.187.062-.187.105.002.222.185.114.168.246-.082.627l-.316.482-3.36-.038-3.361-.038.116-.475zm-1.59-.702c-.004-.476-.014-1.4-.022-2.052-.038-3.073.022-3.831.303-3.831.234 0 .274.496.274 3.375 0 2.878-.04 3.375-.274 3.375-.203 0-.275-.221-.28-.867zm16.792-.68c0-.388-.137-.78-.347-.99-.34-.34-.333-.352.44-.647 1.314-.502 2.056-.558 2.465-.188.924.836.033 1.852-2.056 2.348-.475.112-.502.084-.502-.523zm-29.307-.004c-.128-.334-.008-1.106.162-1.049.076.025.758.046 1.517.046h1.38l-.057.578-.057.579-1.425.046c-1.063.035-1.45-.016-1.52-.2zm44.495-.757c-.312-.13-.286-.7.064-1.377.225-.433.264-.83.17-1.715-.112-1.038-.194-1.213-.84-1.798l-.717-.647h-2.736c-2.737 0-2.737 0-2.372-.365.318-.318.365-.608.365-2.26 0-1.539.053-1.917.28-2.005.382-.146 2.836 1.643 2.71 1.974-.053.136-.002.305.113.376.265.164 5.433.19 5.595.029.066-.067.765-.12 1.553-.12h1.433l-.05 3.967-.049 3.968-2.645.034c-1.455.019-2.748-.009-2.874-.06zm5.428-3.713v-3.101h-1.058c-.582 0-1.157.098-1.277.219-.236.236-.326 5.634-.098 5.862.067.067.642.122 1.278.122h1.155zm-2.25 2.798c-.227-.227-.138-5.262.097-5.498.12-.12.613-.219 1.095-.219h.876v5.838h-.973c-.536 0-1.028-.054-1.095-.121zm-1.399-2.068c0-.1-.082-.182-.182-.182-.1 0-.183.082-.183.182a.183.183 0 0 0 .365 0zm-.28-2.444c-.167-.512-.398-.991-.514-1.065-.115-.074-1.424-.135-2.91-.137-2.058-.002-2.827-.069-3.238-.281-.59-.305-.725-.178-.219.207.232.176 1.076.244 3.089.248 3.426.007 3.304-.07 3.632 2.286l.127.912.169-.62c.125-.458.09-.861-.136-1.55zm3.929-1.743c0-.105-1.603-.176-4.022-.18l-4.023-.006-.766-.517c-1.203-.81-2.135-1.352-2.135-1.24 0 .057.676.556 1.503 1.11l1.504 1.006h3.97c2.39 0 3.969-.069 3.969-.173zm.427 6.9c.063-.238.116-2.754.118-5.591l.003-5.159.593.304c.845.433.896.563.786 1.986a814.56 814.56 0 0 0-.283 3.831c-.297 4.16-.344 4.413-.87 4.758-.455.298-.46.296-.347-.129zm-50.34-.508c-.041-.042-.076-.217-.076-.389 0-.171-.184-.44-.41-.598-.383-.267-.26-.287 1.835-.296l2.246-.01-.057.673-.056.672-1.703.012c-.936.006-1.737-.023-1.779-.064zm-16.194-1.925c-.767-.581-.164-.645 6.095-.645 6.372 0 6.636.03 5.973.693-.265.265-1.058.293-1.058.037 0-.1-.2-.182-.445-.182s-.496.082-.559.182c-.062.1-.313.182-.558.182-.245 0-.445-.082-.445-.182 0-.1-.2-.182-.445-.182s-.496.082-.558.182c-.062.1-.314.182-.558.182-.245 0-.446-.082-.446-.182 0-.1-.2-.182-.445-.182s-.496.082-.558.182c-.062.1-.313.182-.558.182-.245 0-.446-.082-.446-.182 0-.1-.241-.182-.536-.182-.295 0-.587.082-.65.182-.062.1-.313.182-.558.182-.245 0-.445-.082-.445-.182 0-.1-.2-.182-.445-.182s-.496.082-.558.182c-.167.27-1.407.21-1.797-.085zm14.11-.1c-.292-.546.035-.602 2.944-.51 2.503.08 2.881.177 2.893.74.001.076-1.267.137-2.819.137-2.642 0-2.834-.023-3.018-.367zm-14.047-1.262c0-.415-.091-.548-.41-.593-.396-.056-.41-.126-.41-1.974v-1.915l.848-.055.85-.055.125.742c.069.409.068 1.157-.001 1.664-.116.841-.093.93.264 1.023.524.137.378.498-.23.57-.405.048-.488.148-.488.593 0 .354-.093.535-.274.535-.18 0-.274-.181-.274-.535zm1.095.273c0-.144.534-.733 1.186-1.31 1.02-.9 1.186-1.134 1.186-1.665 0-.567.042-.614.502-.561l.501.058.032 1.87.032 1.87h-1.72c-1.372 0-1.719-.053-1.719-.262zm3.77.14c-.154-.154-.157-1.756-.005-2.863.112-.816.138-.847.73-.847.601 0 .613.016.613.785 0 .431-.1.885-.223 1.008-.176.176-.176.299 0 .581.123.197.223.606.223.908 0 .501-.053.55-.608.55-.334 0-.663-.055-.73-.122zm1.643 0c-.194-.193-.142-.763.104-1.158.157-.25.17-.46.046-.681-.1-.176-.156-.669-.125-1.095.055-.751.076-.776.684-.776h.628v3.832h-.608c-.334 0-.663-.055-.73-.122zm1.702-1.794V17.04H39.728v1.628c0 .894.05 1.756.111 1.915.09.234-.03.289-.638.289h-.75zm1.642 0V17.04H41.374l-.038 1.506c-.02.827.025 1.69.102 1.915.13.382.087.41-.603.41h-.742zm1.642 1.314c0-.331.097-.7.215-.818.166-.165.163-.314-.013-.643-.126-.236-.203-.71-.17-1.053.055-.577.111-.629.744-.68l.684-.058v3.854h-.73c-.704 0-.73-.022-.73-.602zm1.825-1.314V17.04H44.837v1.628c0 .894.05 1.756.11 1.915.09.234-.03.289-.638.289h-.75zm1.72 1.673c-.052-.133-.07-.975-.04-1.87l.053-1.627h.638c.609 0 .642.033.696.697.032.383-.039.813-.157.955a.62.62 0 0 0-.081.58c.073.177.166.589.207.915.071.571.05.593-.575.593-.371 0-.688-.104-.741-.243zm1.685.121c-.192-.192-.141-1.155.061-1.155.231 0 .239-.6.01-.83-.094-.096-.124-.523-.067-.95.1-.737.135-.775.72-.775h.614v3.832h-.608c-.335 0-.663-.055-.73-.122zm1.703-1.794V17.04h1.254l.057 1.917.057 1.916h-.684l-.684-.001zm1.642 0V17.04h1.46v.742c0 .408-.09.91-.2 1.114-.144.27-.144.428 0 .572.11.11.2.47.2.802 0 .58-.026.602-.73.602h-.73zm1.716 1.458c-.066-.266-.034-.568.073-.674.12-.12.153-.668.088-1.446-.1-1.193-.087-1.254.286-1.254.372 0 .391.083.391 1.734 0 .953.02 1.794.046 1.87.025.075-.136.162-.359.194-.307.044-.433-.058-.525-.424zm1.203-1.153V17.65l.794-.57c.701-.504.96-.577 2.214-.624 1.287-.049 1.436-.093 1.574-.469.124-.336.029-.552-.507-1.145-.363-.402-.617-.773-.564-.826.053-.053.528.4 1.057 1.008l.96 1.104h4.614c2.88 0 4.657.069 4.727.183.074.12-1.254.182-3.849.182-3.945 0-3.964.002-4.56.456-.708.54-.845.554-1.495.144-.486-.306-.49-.305-.204.046.466.57.554 1.008.337 1.666-.398 1.206-1.875 1.519-2.75.582-.294-.315-.56-.54-.592-.502-.032.04-.289.502-.571 1.029-.334.623-.63.958-.85.958-.3 0-.335-.168-.335-1.611zm4.674-.495c.387-.591.114-1.297-.57-1.468-.92-.231-1.574.97-.898 1.645.437.437 1.12.355 1.468-.177zm-1.403-.19c-.32-.387-.01-.879.601-.952.51-.062.77.336.59.902-.133.42-.859.45-1.19.05zm.826-.246c.135-.218-.208-.434-.451-.284-.204.126-.07.454.185.454.089 0 .208-.076.266-.17zm11.666 1.964c-.073-.116-.17-.814-.218-1.55-.086-1.339-.085-1.339.384-1.339.258 0 .528.095.6.211.096.156 1.437.182 5.119.1 4.085-.09 4.988-.067 4.988.132 0 .133.131.351.292.484.264.22.26.254-.046.375-.185.073-1.316.138-2.513.145l-2.177.013-.764.82-.765.822h-2.385c-1.617 0-2.426-.068-2.515-.213zm4.214-1.703c0-.455-.073-.547-.436-.547-.584 0-.904.506-.573.906a.769.769 0 0 0 .628.243c.29-.041.381-.186.381-.602zm-63.187.846c-.262-.876-.274-2.485-.022-2.956.106-.199.38-.353.628-.353.433 0 .437.018.33 1.306-.081.966-.055 1.272.101 1.175.117-.072.213-.557.214-1.078.002-.52.083-1.07.18-1.22.097-.15.181-.233.186-.183.015.156.024 3.357.01 3.695-.01.246-.174.319-.714.319-.656 0-.715-.046-.913-.705zm2.89.355c0-.092-.05-.297-.11-.456-.092-.24.048-.289.84-.289.771 0 .932.052.847.274-.058.15-.024.274.074.274.108 0 .16-.605.132-1.505l-.05-1.506 5.064-.048 5.062-.049v2.189l-4.88.05-4.88.048-.057.593c-.057.589-.064.593-1.05.593-.545 0-.991-.076-.991-.168zm14.524-.668c-.06-.16-.11-1.719-.11-3.467 0-2.703.04-3.178.273-3.178s.274.468.274 3.114c0 1.797.08 3.263.189 3.466.156.293.128.353-.163.353-.194 0-.402-.13-.463-.288zm.886-.099c-.068-.213-.131-1.342-.14-2.509l-.019-2.12.494-.059.493-.057v2.566c0 2.415-.021 2.566-.353 2.566-.199 0-.406-.168-.475-.387zm52.732.022c-.323-.357-.318-.365.223-.365.658 0 1.141.44.68.618-.446.17-.545.143-.903-.253zm-55.796.046c-.098-.161-.195-1.742-.152-2.463.029-.476.076-.502.942-.502h.913v.98c0 .54.05 1.238.114 1.552l.114.57h-.925c-.508 0-.961-.062-1.006-.137zm33.336-.152c.061-.159.111-.528.111-.82 0-.412.084-.533.365-.533.31 0 .365.121.365.82 0 .764-.034.822-.476.822-.358 0-.448-.071-.365-.289zm24.34-2.448c.048-2.43.089-2.737.364-2.742.264-.005.27-.029.037-.16a3.964 3.964 0 0 0-.73-.28c-.348-.096-.391-.08-.183.066.205.143.01.192-.775.194-.928.003-1.049-.039-1.049-.362 0-.41.137-.442.81-.187.257.098.467.115.467.037 0-.149-1.06-.58-1.427-.58-.124 0-.215.27-.215.639 0 .608.03.639.639.639h.638v2.286c0 1.948-.044 2.303-.298 2.4-.71.273-.883-.155-.979-2.425l-.091-2.17-1.607-.053-1.608-.053.75-.895c.642-.767.858-.905 1.516-.964l.767-.07-.853-.031c-.822-.031-.883.004-1.71.971l-.857 1.004h-5.36c-3.492 0-5.36.064-5.36.184 0 .122 2.41.18 7.046.174 3.875-.006 7.083.026 7.13.072.045.046.025.748-.046 1.56l-.129 1.476h-2.835l-.162-.684-.162-.684-8.967-.092-8.968-.09-.664-.776-.663-.776 2.523-.02c1.387-.01 3.076-.004 3.754.017.79.023 1.231-.035 1.231-.163 0-.12-.406-.198-1.023-.198-.833 0-1.146-.094-1.687-.502l-.665-.502-4.88.052-4.88.051v.57c0 .54.017.554.333.268.293-.265.927-.302 5.189-.302 3.04 0 4.897.068 4.968.182.113.183-3.008.274-6.976.204-1.386-.025-2.01.04-2.417.251-.303.156-.55.326-.55.377 0 .05.205-.015.456-.147.33-.172.88-.206 1.99-.12 1.284.1 1.64.201 2.189.62 1.045.797.885 1.004-.777 1.004-1.302 0-1.5.05-2.189.549-.746.54-.757.542-.763.137-.004-.368-.025-.378-.191-.093-.173.298-.843.32-9.937.32h-9.752v.792c0 .95-.401 1.397-1.255 1.397H31.5l.033-1.688c.019-.928.073-1.79.12-1.915.067-.176 1.346-.228 5.545-.228h5.458l-.299.456-.299.456h-3.536c-2.237 0-3.537.067-3.537.182 0 .194 6.345.262 7.038.076.208-.056.52-.342.694-.636l.316-.534h4.266c4.347 0 4.486-.021 4.588-.695.028-.185-.022-.19-.223-.023-.22.182-.26.042-.26-.902 0-.827.066-1.117.252-1.117.138 0 .353-.123.478-.274.189-.227.866-.273 3.974-.273h3.746l.622.474c.342.261.661.435.71.387.048-.048-.258-.342-.68-.652l-.768-.565-3.71.116-3.711.115V8.871l2.554-.023c2.448-.023 2.554-.009 2.554.344 0 .324.119.368.984.368.9 0 .993.04 1.1.461.28 1.118 1.592 1.552 2.51.83.406-.32.9-.365 5.316-.484 2.677-.072 4.868-.201 4.868-.287 0-.221 4.15-.195 4.287.028.062.1.236.182.387.182.2 0 .26-.161.218-.593l-.057-.593-1.551-.015-1.55-.016 1.55.107c2.995.206 1.075.414-3.704.4-2.629-.007-5.272.05-5.874.127-1.384.177-3.23.02-3.33-.283-.06-.179 1.146-.238 5.55-.27 5.578-.042 5.588-.043 1.252-.095-2.582-.031-4.447-.127-4.555-.234-.12-.12 1.968-.165 6.198-.134l6.378.048.057.786c.056.783.06.786.716.73.894-.076 1.026-.512.155-.512-.621 0-.654-.03-.654-.617v-.617l-1.779-.134c-.978-.074-4.529-.124-7.89-.111-3.362.013-6.44.014-6.842.003a8.545 8.545 0 0 0-1.573.148c-.465.093-2.018.131-3.453.085-2.263-.072-2.564-.116-2.269-.332.188-.137.654-.25 1.036-.25.496 0 .695-.078.695-.273 0-.206.22-.274.893-.274.676 0 .925-.077 1.028-.32.253-.592.211-.99-.126-1.2-.22-.138-.336-.425-.336-.84 0-.571.023-.598.246-.293.198.272.408.317 1.106.238.748-.084.843-.058.73.201-.256.585-.294 1.494-.075 1.758.123.148.177.39.12.54-.152.396.263.57.52.218.334-.456 1.758-.412 2.054.063.238.381 1.033.5 1.229.182.146-.237 1.003-.237 1.003 0 0 .247.607.231 1.179-.03.363-.165.564-.16.908.025.261.14.578.178.774.093.453-.196 11.566-.251 11.95-.06.168.085.332.336.364.557.046.313.57.664 2.34 1.565 1.254.639 2.349 1.284 2.433 1.435.133.236.078.234-.401-.014-.83-.428-.928-.346-.187.157.51.347.656.571.669 1.028.01.322.104.673.21.78.237.236.25-.516.029-1.659-.115-.59-.094-.775.086-.775.315 0 .418.402.469 1.813.027.775-.032 1.2-.174 1.247-.148.05-.216.685-.216 2.028v1.956l-.601.583c-.331.32-.68.583-.776.583-.104 0-.152-1.086-.119-2.737zm-48.493-.365a.183.183 0 0 0-.365 0c0 .1.082.183.182.183.1 0 .183-.082.183-.183zm15.097-.855a1.498 1.498 0 0 0-.639 0c-.176.046-.032.083.32.083.35 0 .494-.037.319-.083zm2.964-.422c.552-.291.939-.534.86-.539-.08-.004-.49.171-.913.39-.422.22-1.096.456-1.498.525l-.73.126.64.014c.376.008 1.05-.203 1.641-.516zm27.001.11c0-.24-.102-.472-.228-.516-.365-.13-1.778.064-1.778.243 0 .09-.74.163-1.642.163-2.17 0-2.133.334.045.412.928.033 2.119.077 2.646.098.899.035.957.01.957-.4zm-1.824-.008c0-.216.2-.284.836-.284 1.077 0 1.014.432-.075.512-.591.044-.761-.007-.761-.228zm-10.413-2.52c-.008-.526-.056-.854-.107-.729-.05.126-.352.216-.67.2-.551-.025-.555-.03-.076-.103.276-.041.502-.152.502-.246 0-.095-.92-.17-2.098-.17h-2.098v.707c0 .407.116.804.274.935.235.195.273.123.273-.525v-.752h2.554v.714c0 .756.141.89.958.913.487.014.502-.013.488-.943zm-1.172.411c.062-.1.313-.182.558-.182.245 0 .445.082.445.182 0 .1-.25.183-.558.183-.325 0-.51-.076-.445-.183zm0-.547c.062-.1.313-.182.558-.182.245 0 .445.082.445.182 0 .1-.25.182-.558.182-.325 0-.51-.076-.445-.182zm17.24.267c0-.054-.663-.398-1.475-.763-1.394-.629-1.47-.693-1.4-1.18.042-.282.008-.513-.075-.513-.083 0-.15.27-.15.6 0 .575.06.625 1.504 1.263 1.753.774 1.597.716 1.597.593zM68.19 11.11a.27.27 0 0 0-.263-.273c-.305 0-.51.26-.34.43.218.218.603.118.603-.157zm9.36.003c.02-.1-.108-.208-.283-.242-.2-.038-.32.051-.32.24 0 .317.54.319.603.002zM57.15 10.108c0-.212-.285-.286-1.259-.329-1.25-.054-1.726.108-1.482.503.08.13.605.186 1.434.153 1.017-.042 1.307-.114 1.307-.327zm24.95 8.585c-.358-.299-.411-.515-.41-1.682.003-2.257.178-3.254.571-3.254.316 0 .34.187.34 2.645 0 1.455-.02 2.643-.046 2.64-.025-.004-.23-.16-.456-.35zm-70.193-.687c.027-.48.059-1.018.07-1.194.01-.175.105-.319.21-.319.264 0 .144 2.232-.124 2.32-.14.046-.19-.217-.156-.807zm.758.737c-.15-.15-.154-1.286-.006-1.84.091-.341.235-.41.864-.408l.754.001.022 1.185.022 1.184h-.767c-.422 0-.822-.055-.889-.122zm56.738-1.835c-.455-.379-.832-.75-.838-.825-.007-.076 1.752-.137 3.907-.137 3.916 0 3.92 0 4.009.41.27 1.237.527 1.135-3.03 1.19l-3.221.05zm23.331-.402c-.135-.219.208-.435.451-.285.205.126.07.455-.185.455-.088 0-.208-.077-.266-.17zm-4.66-.302c0-.159.098-.256.217-.216.338.112.394.505.072.505a.29.29 0 0 1-.289-.289zm.73-.167c-.125-.15-.323-.274-.44-.274-.118 0-.886-.493-1.708-1.097-1.547-1.135-1.627-1.262-1.722-2.734l-.053-.82 3.376.06 3.375.06 1.733.703c.953.388 2.018.775 2.366.862.546.137.653.257.786.878.085.396.102 1.151.038 1.678l-.115.958h-1.358c-.764 0-1.516-.1-1.72-.227-.288-.18-.436-.18-.724 0-.546.341-3.543.304-3.834-.047zm-76.078-.355c0-.403-.084-.451-.866-.502l-.867-.055v-2.372l.867-.055c.476-.031.866-.134.866-.229 0-.094.362-.172.804-.172.738 0 .797.034.716.41-.085.4-.08.402.2.057.164-.203.3-.75.317-1.277l.03-.923.107 1.003.107 1.004 1.277.09 1.277.092.014 1.232.015 1.231h-1.148c-.935 0-1.183.064-1.331.341-.1.187-.13.393-.067.456s.028.115-.079.115-.225-.324-.262-.721l-.07-.722.826-.054.825-.053.023-.73c.019-.59.008-.616-.057-.137l-.08.593h-1.357c-1.111 0-1.423.066-1.72.363-.362.361-.361.362.092.325.25-.021.453-.143.453-.272 0-.128.124-.234.274-.234.15 0 .274.113.274.251s.051.508.114.821l.114.57h-.844c-.773 0-.844-.037-.844-.446zm-.061-2.518c-.051-.126-.092-.023-.092.228 0 .25.041.353.092.228a.704.704 0 0 0 0-.456zm5.358 2.247c-.242-.453-.247-2.874-.006-3.023.1-.062.182-.27.182-.465 0-.257-.392-.549-1.455-1.083-.8-.403-1.663-.732-1.916-.732-.436 0-.46.051-.46 1.014v1.014l-.775-.057-.776-.056-.054-1.049-.055-1.049 9.907.037c5.448.02 9.261.065 8.473.1-1.24.053-1.446.11-1.526.419-.08.302-.255.357-1.155.357s-1.078-.056-1.177-.365c-.104-.327-.276-.365-1.658-.365-1.481 0-1.608.034-3.226.866-1.047.54-2.029.907-2.596.974-.905.106-.906.107-.164.137l.748.03.014 1.322c.008.728.1 1.549.205 1.825l.192.501h-1.267c-1.065 0-1.296-.056-1.455-.352zm-14.342-.092c-.196-.143-.368-.61-.448-1.217-.112-.846-.08-1.032.23-1.328.28-.266.395-.292.506-.112.096.154.318.189.665.103.812-.202 3.771-.485 4.03-.386.161.062.23.55.23 1.618v1.528l-2.447.013c-1.713.01-2.544-.056-2.766-.219zm1.656-.285c.068-.11-.153-.183-.547-.183s-.615.074-.547.183c.062.1.308.182.547.182.239 0 .485-.082.547-.182zm1.71-.297c.586-.117.795-.433.286-.433-.156 0-.23-.087-.165-.193.066-.107.313-.168.55-.137.237.03.434-.026.439-.126.011-.244-.068-.235-1.497.165-1.276.358-1.526.574-.821.71.226.043.462.09.525.103.062.014.37-.026.684-.089zm-2.165-.864.59-.248-.599-.209c-.5-.174-.654-.16-.93.09-.634.574-.074.793.94.367Zm2.943-.93.614-.267-.73-.004c-.918-.006-1.577.165-1.447.376.15.243.873.194 1.563-.105zm1.351 1.63c-.134-1.071.003-2.094.28-2.094.093 0 .169.698.169 1.551 0 1.752-.259 2.065-.449.544zm.814-.543c0-2.037.373-2.047.421-.011.025 1.015-.033 1.462-.193 1.516-.171.057-.228-.32-.228-1.505zm19.338.821c0-.535.02-.547.912-.547.502 0 .913-.082.913-.183 0-.106-.608-.182-1.46-.182h-1.46v-1.46l1.14-.034c1.075-.032 1.05-.04-.41-.136-1.527-.102-1.551-.11-1.608-.605l-.058-.502H31.701v-.456c0-.44.043-.456 1.186-.456.71 0 1.186-.077 1.186-.192 0-.187 5.233-.146 13.98.11l3.307.098.12.751c.071.443.043.83-.069.941-.104.104-.189.793-.189 1.53v1.342l-.958-.055-.957-.055-.106-1.186-.105-1.186-.032 1.05c-.018.613-.113 1.048-.23 1.048-.128 0-.176-.417-.136-1.186.034-.652 0-1.186-.076-1.186-.075 0-.136.622-.136 1.382 0 1.218-.038 1.375-.32 1.321-.251-.047-.341-.312-.424-1.245l-.106-1.184-.031 1.05c-.04 1.345-.343 1.364-.425.027-.069-1.121.04-1.455.429-1.306.179.069.252-.045.246-.384l-.008-.481h-9.669l.014.41c.012.347-.087.415-.638.44l-.653.029.592.074.593.073v2.303c0 .075-.43.137-.957.137h-.958l-.024-1.095c-.021-.967.03-1.139.441-1.476.703-.576.443-1.024-.552-.952l-.777.057.063 1.778c.059 1.634.036 1.779-.273 1.773-.735-.012-.999-.441-.94-1.528.03-.563.137-1.029.237-1.035.332-.02.495-.54.259-.825-.15-.18-.478-.254-.973-.218-.605.044-.745.123-.745.42 0 .262.14.38.502.422.497.057.501.07.501 1.414v1.356h-2.229l.07-1.373c.056-1.115.02-1.364-.19-1.323-.204.04-.251.391-.22 1.647l.038 1.597h-1.015c-1.006 0-1.015-.005-1.015-.548zm3.882-1.855c-.33-.33-.442-.357-.68-.16-.377.314-.359.859.037 1.084.24.137.408.094.679-.173.358-.354.358-.357-.036-.75zm-.699.562c-.188-.304.235-.653.487-.401.21.21.078.6-.203.6-.089 0-.216-.09-.284-.199zm1.872-.577c-.044-.226-.08-.04-.08.41 0 .452.036.637.08.411a2.6 2.6 0 0 0 0-.82zm3.338.427c0-.185-.128-.442-.284-.572-.237-.197-.348-.171-.673.154-.376.376-.378.4-.058.754.255.283.408.324.673.183.188-.1.342-.335.342-.52zm-.831.15c-.188-.304.235-.653.486-.401.21.21.079.6-.203.6-.088 0-.216-.09-.283-.199zm13.747.345c.303-.303.274-.786-.064-1.067-.237-.196-.343-.176-.639.12-.326.326-.332.387-.07.76.323.462.464.496.773.187zm-.612-.345c-.188-.304.235-.653.487-.401.21.21.079.6-.203.6-.089 0-.216-.09-.284-.199zM42.1 10.655c0-.1-.082-.182-.182-.182-.1 0-.183.082-.183.182a.183.183 0 0 0 .365 0zm6.614-.136a44.682 44.682 0 0 0-3.01 0c-.829.034-.151.062 1.504.062 1.656 0 2.333-.028 1.506-.062zm-27.666 4.409c-.061-.16-.111-.775-.111-1.369v-1.08h3.01c3 0 3.01.002 3.012.411.001.226.053.841.117 1.368l.115.958h-3.016c-2.582 0-3.032-.041-3.127-.288zm18.026-.325c-.052-.137-.07-.725-.04-1.306.045-.843.12-1.067.375-1.104.28-.04.32.122.32 1.306 0 1.093-.054 1.352-.28 1.352a.429.429 0 0 1-.375-.248zm1.475.02c-.045-.125-.109-.68-.143-1.231l-.063-1.004-.034 1.05c-.018.587-.117 1.048-.224 1.048-.12 0-.171-.432-.137-1.14l.054-1.14h2.487l.034 1.323.033 1.322h-.963c-.606 0-.994-.084-1.044-.228zm1.551-1.231c0-.522-.63-.804-.99-.443-.158.157-.287.357-.287.443 0 .086.129.285.286.442.361.361.991.08.991-.442zm-.912 0c0-.275.095-.374.32-.33.175.033.318.182.318.33 0 .147-.143.296-.319.33-.224.043-.32-.056-.32-.33zm2.227.138c.044-1.087.11-1.331.373-1.381.281-.054.319.103.319 1.32 0 1.27-.03 1.382-.373 1.382-.346 0-.369-.094-.32-1.32zm1.516 1.103c-.046-.13-.112-.69-.147-1.241l-.062-1.004-.034 1.05c-.019.576-.116 1.048-.216 1.048-.209 0-.246-1.812-.043-2.116.074-.11.668-.217 1.32-.236l1.186-.036-.027 1.331-.027 1.331-.933.055c-.643.038-.96-.019-1.017-.182zm1.548-1.241c0-.46-.547-.756-.963-.523-.709.397-.078 1.432.639 1.048a.663.663 0 0 0 .324-.525zm-1.004.182c-.152-.247.054-.547.376-.547.145 0 .263.164.263.365 0 .377-.44.503-.639.182zm-9.943-.152c0-1.016.102-1.378.345-1.229.176.108.006 2.293-.179 2.293-.09 0-.166-.479-.166-1.064zm2.92-.02c0-.596.081-1.134.182-1.196.114-.071.182.332.182 1.084 0 .676-.08 1.196-.182 1.196-.101 0-.183-.483-.183-1.084zm4.378 0c0-.596.082-1.134.182-1.196.115-.071.183.332.183 1.084 0 .676-.08 1.196-.183 1.196-.1 0-.182-.483-.182-1.084zM4.472 12.36c.125-.051.33-.051.456 0 .125.05.023.092-.228.092s-.354-.042-.228-.092zm55.988-1.9c-.544-.428-.614-.992-.197-1.588.578-.824 2.088-.27 2.088.767 0 .445-.746 1.2-1.186 1.2-.123 0-.44-.17-.705-.379zm1.228-.808c.052-.136-.028-.348-.178-.472-.4-.332-.967.235-.635.635.25.301.666.218.813-.163zm-28.927.332c.132-.053.29-.046.35.015.06.06-.047.103-.24.095-.212-.008-.255-.052-.11-.11zm35.109-.01c.778-.035 2.05-.035 2.828 0 .777.033.141.061-1.414.061-1.556 0-2.192-.028-1.414-.062zM12.362 9.39c0-.32.652-.35 6.842-.304 3.516.026 6.298-.026 6.422-.12.135-.102.468-.076.866.069.504.182.696.185.867.015.278-.279 1.086-.282 1.69-.007.364.166.565.16.919-.03.354-.19.555-.196.919-.03.572.26 1.179.276 1.179.03 0-.237.856-.237 1.003 0 .062.1.313.183.558.183.245 0 .446-.083.446-.183 0-.237.856-.237 1.003 0 .131.212 1.004.25 1.004.044 0-.187 7.326-.174 7.616.013.126.081.229.224.229.319 0 .106-6.042.171-15.782.171-9.639 0-15.78-.066-15.78-.17zm45.428-.286c0-.202.213-.273.821-.273s.821.07.821.273-.213.274-.821.274-.821-.071-.821-.274zm5.063-.223c.326-.04.86-.04 1.186 0 .326.04.059.074-.593.074-.653 0-.92-.033-.593-.074zm-3.474-4.2c.057-.578.113-1.06.124-1.072.011-.012 1.642-.076 3.623-.143 2.943-.099 3.604-.076 3.604.122 0 .567-.442.682-2.622.682-1.822 0-2.244-.053-2.544-.32-.35-.31-.353-.308-.107.092.24.391.36.41 2.635.41 2.459 0 2.82-.098 2.82-.766 0-.18.082-.329.182-.329.1 0 .183.206.183.457 0 .25-.074.456-.165.456-.091 0-.128.143-.082.319.078.296-.138.315-3.001.265l-3.085-.053-.304.464c-.21.32-.468.464-.834.464h-.53zm2.01-.34c-.06-.06-.218-.066-.35-.014-.145.059-.102.102.111.11.192.009.3-.035.24-.095zm5.955.795c.06-.226.112-.76.113-1.186.002-.566.076-.775.276-.775.215 0 .274.253.274 1.186 0 1.086-.033 1.186-.386 1.186-.312 0-.365-.08-.277-.41zm-9.736-.556c0-.164.198-.214.638-.163.351.041.639.148.639.237 0 .09-.288.163-.639.163-.402 0-.638-.088-.638-.237zm-.548-.771c0-.338.81-.672 1.45-.597.323.038.484.18.524.465.055.383-.008.41-.958.41-.789 0-1.016-.062-1.016-.278z" style="fill:#000;fill-opacity:1;stroke-width:.182441"/></svg>