<svg xmlns="http://www.w3.org/2000/svg" width="333.478" height="128" viewBox="0 0 88.233 33.867"><path d="M39.326 30.215c-1.557-.443-1.577-.455-1.678-1.028-.063-.356-.11-.435-.124-.206-.023.382-.273.473-.647.235-.163-.104.05-1.146.94-4.6a383.814 383.814 0 0 1 1.764-6.623c.337-1.186.62-2.29.629-2.455.014-.248.115-.282.603-.199 1.406.24 5.56 1.376 5.534 1.514-.016.083-.078.374-.138.646-.083.375-.067.434.067.246.269-.378.235-.056-.234 2.264-.434 2.142-2.45 9.355-2.747 9.823-.208.329-.275.609.912-3.801 1.192-4.432 1.95-7.616 1.868-7.85-.035-.104-.12.074-.187.393-.307 1.46-3.144 11.876-3.274 12.02-.273.305-.721-.157-.666-.687l.05-.49-1.939-.543c-1.066-.298-2.04-.581-2.165-.63-.124-.047-.226-.013-.226.076s.466.29 1.036.446c3 .823 2.803.73 2.746 1.307-.03.311-.151.536-.3.556-.136.019-.957-.168-1.824-.414zm3.197-2.312c.147-.524.215-1.004.152-1.067-.063-.062-1.085-.338-2.27-.613-2.61-.605-2.547-.635-2.64 1.253-.011.218.416.393 1.976.81 1.095.293 2.109.541 2.253.552.184.013.343-.267.53-.935zm-1.455.29a43.78 43.78 0 0 0-1.766-.414l-1.268-.274.089-.693c.048-.38.107-.714.13-.742.041-.05 3.938.793 4.02.87.024.024-.016.333-.09.689-.145.694-.326.786-1.115.565zm2.174-3.607c.152-.524.308-1.04.347-1.144.041-.109-.27-.3-.727-.445-1.194-.38-3.341-.94-3.607-.94-.152 0-.322.387-.487 1.114-.14.612-.223 1.145-.184 1.184.084.084 3.887 1.149 4.18 1.17.11.008.326-.414.478-.939zm-1.262.3a52.556 52.556 0 0 0-2.672-.737c-.428-.095-.43-.107-.249-.915.102-.45.229-.862.283-.916.086-.087 3.458.836 3.61.988.097.097-.331 1.738-.45 1.723a5.208 5.208 0 0 1-.522-.144zm2.393-4.098c.152-.607.217-1.162.144-1.233-.177-.174-3.686-1.145-4.14-1.146-.284 0-.414.166-.614.787-.474 1.475-.59 1.343 1.802 2.045 1.186.347 2.24.636 2.344.64.103.006.312-.486.464-1.093zm-2.725.004a59.236 59.236 0 0 1-1.775-.474c-.151-.052-.135-.265.065-.865.146-.438.283-.818.303-.844.056-.071 3.627.823 3.76.942.063.055.039.455-.054.889-.198.922-.125.91-2.299.352zm3.38-3.167.106-.7-.955-.268c-.525-.148-1.473-.419-2.106-.602-1.103-.32-1.16-.321-1.369-.037-.119.164-.217.533-.217.822 0 .51.035.534 1.203.864 2.424.686 3.029.826 3.13.724.057-.056.15-.418.208-.803zm-2.534-.145c-.95-.217-1.745-.414-1.769-.438-.112-.115.151-.942.319-.999.104-.036.981.186 1.948.493 1.669.53 1.755.58 1.681.966-.091.478.02.48-2.18-.022zM36.69 27.647c-.033-.581 2.404-9.74 2.944-11.063.287-.706.207-.09-.134 1.019-.178.58-.811 2.92-1.408 5.2-1.274 4.873-1.38 5.24-1.402 4.844zm25.802-5.16c-.06-.158.417-.569 1.457-1.255 1.591-1.05 1.884-1.45 1.531-2.103-.09-.169-.725-.927-1.41-1.686l-1.244-1.38.358-.357.358-.358 1.402 1.394c1.54 1.532 1.797 1.97 1.718 2.929-.05.616-.125.69-1.862 1.846-1.875 1.246-2.157 1.364-2.308.97zm-.029-1.411c0-.802.014-.824.83-1.31.456-.273 1.015-.53 1.243-.573l.415-.076-.395-.023c-.217-.012-.899.25-1.515.583-1.01.545-1.66.651-1.654.27.001-.07.56-.448 1.244-.837 1.237-.705 1.449-.987 1.013-1.349-.178-.148-.528-.036-1.582.504-.93.477-1.407.64-1.524.523-.118-.118.221-.387 1.084-.86.69-.38 1.256-.76 1.256-.847 0-.086-.223-.273-.496-.414-.563-.29-1.174-.201-1.852.272-.498.348-.823.388-1.078.133-.123-.123-.325-.05-.68.249-.497.418-.538.424-3.362.424h-2.859l-.7-.705c-.384-.388-.73-.795-.766-.905-.036-.11-.506-.313-1.045-.453-1.141-.297-1.046-.233-1.12-.757l-.057-.415 1.602-.047 1.602-.047-.09.667c-.073.55-.01.769.356 1.25l.445.582h2.62c3.039 0 3.168-.056 3.168-1.378 0-.76-.014-.78-.824-1.19-.813-.412-.875-.417-4.877-.417-4.035 0-4.053-.002-3.963-.348.088-.334.156-.343 1.74-.23l1.65.118.56-.543c.542-.526.62-.547 2.515-.697 1.722-.135 2.005-.201 2.378-.554.383-.36.57-.4 1.908-.402.816-.002 1.562-.058 1.659-.125.538-.374.737-.978.737-2.243 0-1.148-.051-1.368-.435-1.87l-.434-.57h.757c.815 0 1.827.483 2.106 1.004.089.166.162 1.09.162 2.052v1.75l-1.05.477c-1.138.516-1.829 1.266-1.74 1.89.037.263.31.5.917.795 1.12.547 1.176.616.743.919-.596.418-.43.859.86 2.284 1.467 1.62 1.698 2.252.985 2.704-.256.162-.855.578-1.33.923-.475.345-.923.627-.995.627-.073 0-.132-.367-.132-.815zm-2.239-8.141c0-.313-.11-.332-1.907-.332s-1.907.02-1.907.332.11.331 1.907.331 1.907-.019 1.907-.331zm1.112 6.297c-.073-.277.087-.425.91-.84.903-.456 1.622-.545 1.392-.172-.08.13-2.034 1.349-2.162 1.349-.029 0-.092-.151-.14-.337zm-.78-1.312c0-.177-.08-.371-.178-.432-.27-.167.367-.546 1.11-.662.45-.07.743-.023.975.155.183.14.242.258.132.26-.11.004-.58.23-1.044.504-.998.588-.995.588-.995.175zm21.438-.463c-.487-.044-.758-.164-.879-.389-.23-.429-.028-.762.24-.396.177.242.223.245.407.023.17-.204.157-.279-.066-.404-.232-.13-.155-.254.503-.816l.777-.664.093-2.68c.087-2.506.114-2.68.414-2.68.185 0 .29-.087.247-.207-.04-.114-.188-.198-.33-.186-.18.014-.288-.194-.365-.705-.227-1.512-.337-.608-.337 2.753 0 3.441-.005 3.482-.393 3.856l-.393.378.105-3.483c.066-2.158.043-3.7-.06-4.053-.091-.313-.141-.594-.111-.624.03-.03.57.003 1.2.072l1.144.127-.062 4.81c-.035 2.645-.13 4.94-.213 5.1-.153.294-.344.31-1.921.168zm-1.625-.353c-.574-.35-1.07-1.03-1.073-1.468-.003-.389-2.2-4.218-2.547-4.436-.207-.13-.33-.08-.543.225-.271.387-.303.391-2.205.28-1.061-.062-1.987-.056-2.056.013-.186.187-4.444.184-4.88-.003-.255-.11-.372-.302-.372-.608 0-.389-.055-.438-.416-.369-.229.044-.52-.007-.648-.113-.133-.11-.417-.146-.669-.083l-.438.11.049-1.386c.04-1.146.097-1.395.329-1.44.22-.042.293.099.344.662l.064.715.029-.691c.028-.685.037-.694.814-.86.878-.187 1.032-.086 1.037.68.002.411-.055.456-.578.456-.32 0-.58.075-.58.166 0 .091.337.166.749.166.716 0 .745-.018.645-.415-.13-.517-.036-.517.726 0 .418.285.835.415 1.327.415.49 0 .908.13 1.326.415.49.333.815.414 1.646.414.922 0 1.066-.045 1.308-.414.238-.364.39-.415 1.242-.415.809 0 1 .057 1.152.34.148.276.316.332.877.291.624-.045.748-.132 1.233-.857.343-.514.54-1.01.54-1.368v-.562h2.442l.271.71c.15.391.272 1.137.272 1.659v.948h-7.464c-4.865 0-7.464.058-7.464.166 0 .108 2.596.166 7.455.166h7.456l.05 2.405c.027 1.323.008 2.405-.042 2.405s-.528-.933-1.06-2.074l-.967-2.073-1.097.028-1.097.028.987.096.986.097.853 1.741c1.12 2.286 1.169 2.505.663 2.98-.377.354-.386.402-.143.772.31.474.146.5-.533.086zm.919-9.56c0-.197-.24-.248-1.161-.248s-1.161.051-1.161.248c0 .198.24.25 1.161.25s1.161-.052 1.161-.25zm2.89 9.62c.133-.495.415-9.132.312-9.527-.125-.478.247-.432.47.057.131.29.13 1.059-.004 2.803a68.786 68.786 0 0 0-.185 4.31c0 1.684-.04 1.951-.34 2.297-.305.35-.332.356-.253.06zm-40.705-1.51c-3.498-.882-3.334-.824-3.216-1.132.08-.21.723-.257 4.144-.296l4.048-.047v.64c0 .62-.017.639-.505.567-.413-.06-.593.027-.99.479-.267.304-.507.545-.532.537a552.86 552.86 0 0 0-2.95-.748zm13.057-.114c.12-1.057-.066-1.143-2.348-1.081-1.056.028-1.92-.005-1.92-.073 0-.068 1.043-.124 2.317-.124 2.75 0 3.419.204 3.587 1.097.14.754-.002.893-.917.893h-.799zm-26.492.182c-.36-.105-2.475-.144-5.575-.103l-4.995.066 1.066-.546 1.066-.546h7.946l.881.498c.796.449 1.027.498 2.361.5 1.017.002 1.402.053 1.23.163-.323.21-3.23.186-3.98-.032zm-13.6-.465c-.276-.277-.332-.553-.332-1.659 0-.73.047-1.327.105-1.327.057 0 .393.262.747.58l.642.581h4.82c3.136 0 4.938-.062 5.155-.179.185-.098.442-.434.572-.746.277-.663.73-.765.73-.164 0 .256.176.529.482.746.434.31.721.343 2.903.343h2.42V15.257l-1.7-.003c-1.585-.003-1.756-.036-2.529-.495l-.83-.492-4.108-.003-4.109-.002-1.319.663c-1.103.555-1.484.664-2.318.664-.778 0-1.073-.074-1.33-.332zm19.28-.118-.87-.065v-1.31h4.312v.415c0 .273-.092.414-.272.414a.667.667 0 0 0-.456.234c-.21.267-1.436.408-2.713.312zM15.03 14.47c-.927-.094-1.08-.28-1.08-1.307v-.892H15.775v1.161c0 .639-.019 1.149-.042 1.133-.023-.015-.339-.058-.703-.095zm-7.735-.679c-.088-.23-.226-.947-.308-1.592l-.148-1.172.043 1.452c.033 1.113-.008 1.45-.176 1.45-.12 0-.22-.074-.22-.165 0-.098-.596-.166-1.459-.166-.914 0-1.534-.074-1.658-.199-.259-.258-.259-1.831 0-2.09.122-.122.724-.199 1.566-.199.751 0 1.412-.074 1.469-.166.057-.092.83-.165 1.751-.165h1.649v1.083c0 .596.112 1.351.249 1.679.31.743.31.757-.034.69-.178-.034-.394-.394-.58-.965-.272-.84-.297-.465-.038.567l.11.44-1.028-.031c-.935-.028-1.043-.07-1.188-.45Zm.698-2.195c.28-.177.973-.203.733-.027-.091.067-.166.271-.166.454 0 .236-.106.328-.37.318-.289-.01-.33.036-.187.208.239.287.393.277.715-.044.373-.374.244-1.132-.204-1.198-.711-.105-1.034.245-1.011 1.095l.02.782.117-.72c.064-.395.223-.786.353-.868zm2.241 1.724c-.145-.427-.263-1.08-.262-1.451.003-.701.226-1.25.427-1.048.094.094.216 3.275.126 3.275-.015 0-.145-.35-.29-.776zm.565-.966V10.78h1.15c1.06 0 1.155-.03 1.22-.374.04-.205.083.047.095.56.015.605.11 1.007.272 1.14.159.132.248.5.248 1.016v.809H10.8Zm29.854 1.327c0-.212.45-.249 3.048-.249 2.507 0 3.085.044 3.255.25.182.219-.174.248-3.048.248-2.783 0-3.255-.036-3.255-.249zm6.894-.332-.442-.58h-6.321l-.646.511-.646.512V11.11h9.122v1.211c0 1.1-.161 1.609-.51 1.609-.063 0-.313-.261-.557-.58zm-15.394-.207c1.3-.028 3.427-.028 4.727 0 1.3.028.236.051-2.364.051-2.6 0-3.663-.023-2.363-.05zm-15.01-.32c-.205-.142-.373-.325-.373-.405 0-.08 1.936-.146 4.302-.146 2.69 0 4.341-.062 4.405-.166.057-.09.658-.165 1.337-.165 1.35 0 1.549.182.902.829-.317.317-.546.331-5.266.323-4.204-.007-4.989-.047-5.307-.27zm31.803-.717c0-.742.039-.831.373-.851.205-.013 1.269-.069 2.364-.125l1.99-.102v-1.16H49.36l.056-1.059c.047-.87-.005-1.141-.29-1.527-.19-.258-.347-.547-.347-.642 0-.116 1.969-.173 6.045-.173h6.046l.423.555c.352.461.423.734.423 1.617v1.063l-2.695-.051c-2.215-.042-2.755-.006-3.027.202-.301.23-.06.253 2.612.258 1.849.003 2.944.067 2.944.171 0 .091-.15.166-.332.166-.184 0-.331.11-.331.249 0 .202-.275.248-1.473.248-1.283 0-1.502.043-1.7.33-.193.28-.545.36-2.3.521-1.883.173-2.13.234-2.678.665-.51.4-.758.475-1.582.475-.947 0-.978-.014-.972-.435.01-.608-.474-.897-.858-.513-.24.24-.255.345-.084.619.17.273.163.329-.045.329-.19 0-.25-.2-.25-.83zm7.132-3.4c0-.484-.1-.786-.332-.995-.329-.297-.332-.29-.332.995s.003 1.293.332.996c.231-.21.332-.511.332-.996zm-1.443.003c.018-.09-.098-.189-.257-.22-.182-.035-.29.047-.29.217 0 .289.49.291.547.003zm6.306-.195c.15-.15-.221-.572-.404-.46-.229.142-.173.57.074.57.122 0 .27-.05.33-.11zM50.44 8.208c0-.138-.148-.249-.332-.249-.184 0-.332.11-.332.249 0 .138.148.249.332.249.184 0 .332-.11.332-.25zm1.21.002c.019-.09-.097-.189-.257-.22-.181-.034-.29.047-.29.218 0 .288.49.29.548.002zm-22.357 4.393c-.067-.11 1.602-.166 4.883-.166 3.213 0 4.985.06 4.985.166 0 .107-1.738.166-4.883.166-3.076 0-4.92-.061-4.985-.166zm9.632-.478c-.05-.08-3.04-.202-6.644-.27l-6.554-.122V10.28H39.16v.995c0 .969-.05 1.15-.236.849zm-25.305-2.83c0-1.586.064-2.517.178-2.587.123-.077.161.353.124 1.395l-.054 1.505 1.742.046 1.741.047.05 1.036.05 1.037h-3.831zm1.48 1.838c.216-.403-.139-.911-.577-.827-.335.065-.498.492-.342.897.13.34.723.296.919-.07zm2.065-.061c.139-.22.117-.35-.094-.562-.497-.497-1.238.153-.79.693.258.31.642.254.884-.131zm.767-.381c0-.84.06-1.107.265-1.186.391-.15.559.243.562 1.315.002.907-.018.954-.413.954-.4 0-.414-.039-.414-1.083zm1.526.046c.047-.993.068-1.039.506-1.089l.456-.052v2.178H19.408zm1.825.002c.04-.83.106-1.046.34-1.09.252-.048.29.086.29 1.035 0 .988-.032 1.09-.34 1.09-.311 0-.336-.087-.29-1.035zm1.625.156c0-.484.09-.969.199-1.078.109-.11.594-.2 1.078-.2h.879v2.157h-2.156zm1.792.022c.038-.329-.038-.47-.298-.552-.62-.197-1.07.44-.626.884.347.347.867.16.924-.332zm14.904-.083c-.061-.06-.11-.211-.11-.334 0-.184.814-.216 4.517-.18 4.15.04 4.521.068 4.573.334.052.27-.246.29-4.407.29-2.455 0-4.512-.05-4.573-.11zm-32.508-.332c-.06-.06-.11-.21-.11-.332 0-.17.414-.22 1.824-.22 1.714 0 1.824.02 1.824.331 0 .399-.257.435-.464.065-.138-.246-.158-.246-.252 0-.082.214-.361.267-1.407.267-.718 0-1.354-.05-1.415-.11zm38.91-.51-2.86-.05-.255-.494-.255-.494-3.23-.025a220.754 220.754 0 0 1-3.437-.041c-.124-.01-.208.185-.208.48v.498l-1.534.048c-.844.026-1.534.006-1.534-.045s.3-.688.665-1.416l.666-1.323H39.4c3.172 0 5.418.064 5.475.155.053.086.263.11.466.055s.992-.13 1.753-.168c1.849-.09 2.017.054 2.017 1.725 0 .67-.056 1.201-.125 1.18-.068-.02-1.41-.059-2.983-.086zM36.34 7.71c0-.138-.148-.249-.332-.249-.184 0-.332.111-.332.25 0 .137.148.248.332.248.184 0 .332-.11.332-.249zM26.43 9.624c-.204-.329-.354-.338-5.598-.338-4.201 0-5.389-.046-5.387-.207 0-.114.38-.712.842-1.327l.841-1.12.858-.005c.787-.005.83-.025.537-.247-.175-.133-.258-.299-.184-.368.074-.07.168-.033.209.081.055.154.722.208 2.566.208h2.492l-.104.414-.104.415h5.75l-.676 1.368c-.639 1.292-.709 1.371-1.255 1.416-.436.036-.63-.035-.787-.29zm-7.877-1.913c.449-.694.455-.747.083-.747-.251 0-1.203.977-1.203 1.235 0 .05.168.09.373.09.243-.002.504-.204.747-.578zm3.858.079c.681-.956.12-1.182-.597-.241-.482.632-.772.677-.334.052.593-.847-.018-.896-.661-.052-.482.632-.772.677-.334.052.505-.722.16-.888-.553-.266-.234.204-.332.263-.218.132.29-.333.258-.503-.093-.503-.262 0-.675.424-1.086 1.115-.092.155.31.199 1.713.188 1.81-.015 1.838-.02 2.163-.477zm7.465.846c.544-1.102.992-1.757.992-1.451 0 .24-1.356 2.764-1.485 2.764-.086 0 .136-.59.493-1.313zm-21.504.9c-.058-.15-.025-.352.072-.45.253-.252.731-.02.665.322-.073.382-.605.474-.737.128ZM6.39 9.392c-.048-.125-.064-.665-.037-1.201.038-.732.116-.988.314-1.025.22-.042.255.108.216.91l-.046.961.171-1.036c.094-.57.234-1.037.31-1.037.077 0 .136.486.133 1.08-.004.622.08 1.185.198 1.327.176.212.107.247-.484.247-.428 0-.721-.086-.775-.226zm2.916-.839c0-1.06.104-1.59.31-1.59.06 0 .11.598.11 1.328 0 .958-.059 1.327-.21 1.327-.147 0-.21-.318-.21-1.065zm.685.526c-.166-.524-.03-1.83.215-2.075.237-.237.422.416.425 1.494.002.859-.053 1.12-.234 1.12-.13 0-.312-.243-.406-.54zm.808-.705V7.13h2.488v2.488h-2.488Zm60.07.829c-.38-.32-.68-.415-1.314-.415-.65 0-.966-.104-1.51-.498-.632-.457-.689-.56-.689-1.244V6.3l1.783-.006c.98-.003 3.48.202 5.556.456l3.772.462v.467c.001.258-.226.799-.504 1.203-.608.884-1.301 1.02-1.62.32-.174-.38-.279-.415-1.267-.415-.967 0-1.106.043-1.35.415-.242.37-.385.415-1.318.415-.874 0-1.127-.069-1.539-.415zM7.754 8.919c-.14-.52-.128-1.5.02-1.728.068-.103.441-.217.831-.253.548-.051.689-.015.622.16-.048.123-.087.556-.087.96 0 .694-.023.73-.395.637-.29-.072-.463-.004-.643.253l-.246.351Zm6.528-.96V6.632h1.244c.684 0 1.244.039 1.244.086 0 .224-2.066 2.568-2.263 2.568-.17 0-.225-.32-.225-1.327zm9.689-1.285c.068-.069 2.668-.162 5.777-.208 4.293-.063 5.67-.132 5.722-.288.054-.162-1.756-.215-8.443-.25-7.87-.039-8.515-.063-8.566-.325-.05-.26.221-.282 3.232-.275 1.808.004 5.656.001 8.553-.007l5.266-.016v-.414c0-.381.06-.415.746-.415.41 0 .746.075.746.166 0 .216.613.216.747 0 .133-.216 1.078-.216 1.078-.001 0 .161.33.144.829-.042.616-.231 1.02-.25 1.096-.053.063.164.273.173.934.042.588-.116.872-.115.911.004.04.118.301.12.829.008.545-.116.859-.11 1.07.022.369.23.8.241.8.02 0-.091.293-.166.652-.166.579 0 .658.049.704.433.052.424.08.433 1.255.424 3.309-.027 3.027.013 3.027-.428 0-.361.16-.451 1.617-.913 1.862-.59 3.164-.67 3.57-.22.144.159.286.588.316.953l.053.663 1.53.083c1.155.063 1.599.154 1.818.373.276.277-.27.29-11.449.29-7.783 0-11.703.057-11.635.167.065.105 2.216.165 5.907.165 3.828 0 5.77.057 5.702.166-.066.108-4.35.166-12.31.166-6.715 0-12.153-.056-12.084-.124zm31.68-1.961c.328-.327.328-.478 0-.805-.196-.197-.338-.219-.58-.09-.36.194-.42.658-.121.957.262.262.388.25.701-.062zm-.734-.403c0-.22.11-.331.332-.331.22 0 .331.11.331.331 0 .221-.11.332-.331.332-.222 0-.332-.11-.332-.332zM14.392 5.94c-.126-.481.015-.67.406-.546.252.08.36-.008.5-.408.097-.28.25-.51.34-.51.09 0 .138-.28.108-.622-.053-.613-.045-.623.587-.674.701-.058 1.432.439 1.432.973 0 .155.168.4.373.543.313.218.327.262.083.269-.226.007-.29.154-.29.672v.664h-1.722c-1.629 0-1.728-.02-1.817-.361z" style="fill:#000;fill-opacity:1;stroke-width:.165856"/></svg>