<svg xmlns="http://www.w3.org/2000/svg" width="433.22" height="128" viewBox="0 0 114.623 33.867"><path d="M83.809 29.997c0-.383.08-.745.176-.805.402-.248.102-1.08-1.254-3.472-.787-1.389-1.613-2.769-1.837-3.066-.465-.62-1.815-1.135-2.98-1.135-.782 0-1.16-.234-1.16-.719 0-.497.53-.776 1.658-.868l1.075-.088.051-1.544.051-1.543h2.288l-.02 1.995c-.023 2.13.136 2.776.949 3.87.235.315 1.07 1.69 1.857 3.056 1.539 2.672 1.778 2.897 3.08 2.897.552 0 .8.09.964.353.397.636 1.053.433 2.761-.852.88-.663 2.276-1.679 3.1-2.257 1.64-1.15 1.872-1.585 1.31-2.444-.288-.438-.285-.475.081-.864.553-.588.726-1.383.726-3.328 0-2.436.014-2.426-3.175-2.426-1.462 0-2.47-.07-2.47-.17 0-.286-.752-.888-1.11-.888-.186 0-.494.198-.685.44-.294.375-.493.442-1.308.442-.864 0-.98-.045-1.13-.441-.165-.436-.194-.441-2.2-.441-1.156 0-2.033-.072-2.033-.167 0-.091.176-.29.392-.44.34-.239 1.385-.275 7.85-.275h7.457v7.055h.617c.34 0 .617.047.617.104 0 .057-.168.682-.374 1.39-.368 1.266-.39 1.295-1.27 1.705-1.137.528-3.537 2.221-5.863 4.134l-1.807 1.487h-6.384zm5.115-1.434c0-.103.278-.45.617-.77.849-.8.826-1.367-.088-2.237-.424-.403-.705-.833-.705-1.077 0-.223-.199-.62-.441-.881a1.549 1.549 0 0 1-.441-1.116c0-.528-.14-.778-.794-1.413-.437-.424-.794-.893-.794-1.042 0-.491-.306-.283-.42.285-.231 1.156-.815 1.383-.815.317 0-.841-.383-1.665-.903-1.944-.223-.119-.681-.152-1.145-.082l-.774.116v-.885c0-.486.092-1.086.205-1.333.2-.44.241-.45 2.087-.45 1.827 0 1.889.013 2.118.441.213.399.343.441 1.34.441 1.075 0 1.516-.19 1.696-.73.095-.284.953-.054 1.086.292.057.15-.052.426-.245.619-.55.55-.463 1.456.193 2.009.299.25.65.456.782.456s.652.683 1.156 1.518c.692 1.146 1.06 1.578 1.502 1.762.321.135.702.2.845.144.342-.13.863.66.787 1.196-.077.543-5.648 4.515-6.364 4.537-.267.009-.485-.07-.485-.173zm2.058-4.852c.059-.153-.023-.409-.182-.567-.267-.268-.31-.268-.577 0-.36.36-.195.845.289.845.2 0 .411-.125.47-.278zm-.7-.011c-.142-.141.017-.417.24-.417.091 0 .166.12.166.265 0 .273-.208.35-.407.152zm-1.358-3.68c.175-.21.175-.318 0-.529-.44-.531-1.07-.125-.818.53.056.145.213.264.35.264.137 0 .347-.12.468-.265zm-.593-.034c-.198-.199-.12-.407.152-.407.146 0 .265.075.265.166 0 .223-.276.382-.417.24zm-76.983 2.556c-.137-.137-.21-.834-.207-1.984l.005-1.773 1.45-.927 1.45-.926.105.5c.163.785.309.912 1.047.912.73 0 1.054-.321 1.054-1.046 0-.2.043-.365.096-.365.253 0 2.727 1.802 2.733 1.99.078 2.478.04 3.298-.169 3.549-.2.242-.745.282-3.793.282-2.533 0-3.62-.06-3.77-.212zm7.162-1.155-.053-.838H11.754l-.057.59c-.106 1.112-.19 1.086 3.5 1.086h3.367zm.035-2.037c0-.575-.414-.653-3.453-.653-2.438 0-3.072.05-3.244.257-.45.543-.01.625 3.356.625 2.624 0 3.34-.05 3.34-.23zm90.266 2.242c-.25-.25-.13-.562.425-1.104.473-.462.521-.585.325-.82a.715.715 0 0 0-.584-.228c-.299.043-.418-.155-.763-1.272-.49-1.582-.537-3.304-.139-5.067.255-1.126.312-1.223.68-1.152.572.11.783-.486.289-.814-.2-.133-.364-.421-.364-.64 0-.219-.119-.496-.263-.616-.47-.39-.111-.505 1.279-.408 1.62.113 1.88.322 1.704 1.367-.064.383-.266 1.13-.449 1.66-.477 1.387-.46 4.333.034 5.934.505 1.634.36 2.495-.481 2.846-.816.34-1.533.474-1.693.314zm-10.186-1.13v-1.06h1.94c1.177 0 1.941-.069 1.941-.176 0-.165-1.992-.278-3.307-.188l-.574.04V17.28l.662.038c1.25.073 2.513-.032 2.513-.209 0-.097-.377-.165-.837-.15-.461.014-1.176.014-1.588 0l-.75-.026V15.91c0-.953.034-1.038.485-1.216.361-.142-1.624-.196-7.747-.21l-8.233-.02-.542.458c-.33.277-.543.623-.543.881 0 .414-.038.426-1.405.426h-1.404l-.05 1.631-.052 1.632-.84.054c-1.037.066-1.087-.035-.881-1.802.086-.736.091-1.339.013-1.339-.08 0-.144-1.39-.144-3.091v-3.091l.475-.18c.291-.111 2.175-.16 4.894-.128l4.42.054 2.3.925c2.186.88 2.334.971 2.99 1.849.379.507.678 1.063.665 1.234-.021.286.218.311 2.965.311 1.874 0 2.987-.065 2.987-.176 0-.1-.532-.176-1.245-.176-.785 0-1.205-.065-1.136-.177.06-.097.62-.176 1.245-.176h1.136v-.517c0-.396-.093-.535-.397-.593-.218-.042 1.299-.088 3.37-.1l3.768-.025-.132.485c-.232.848-.222 3.951.017 5.777.334 2.544.47 2.43-3.21 2.697-4.2.306-3.769.402-3.769-.845zm4.41-1.236c0-.097-.035-.176-.078-.176-.042 0-.126.08-.186.176-.06.097-.025.177.077.177.103 0 .187-.08.187-.177zm1.588-.088a.265.265 0 0 0-.265-.264.265.265 0 0 0-.265.264.265.265 0 0 0 .53 0zm0-1.94c0-.185-.187-.265-.618-.265-.34 0-.617.085-.617.189 0 .108.15.14.353.076.202-.064.352-.032.352.076 0 .104.12.189.265.189.146 0 .265-.12.265-.265zM80.722 14.64c0-.215-.294-.264-1.585-.264-1.383 0-1.593.04-1.646.315-.055.288.084.311 1.585.265 1.323-.041 1.646-.103 1.646-.316zm1.804 0c.247-.194.671-.352.943-.352.273 0 .546-.083.609-.184.076-.124-.37-.167-1.357-.133-1.458.051-1.47.056-1.526.537-.048.422.006.485.413.485.258 0 .671-.159.918-.353zm7.545-.529c.07-.114-.818-.176-2.537-.176-1.574 0-2.69.071-2.755.176-.071.115.818.177 2.537.177 1.573 0 2.69-.072 2.755-.177zm2.38 0c0-.097-.356-.176-.793-.176-.437 0-.794.08-.794.176 0 .097.357.177.794.177.437 0 .794-.08.794-.177zm-.044-.602c.048-.048-.16-.424-.462-.835-.395-.536-.824-.859-1.52-1.142-.55-.223-.972-.314-.972-.21 0 .363 1.138 2.25 1.405 2.33.308.092 1.416-.01 1.549-.143zm-1.998-.905c-.258-.441-.427-.844-.375-.896.166-.167.937.356 1.527 1.036l.575.662h-.629c-.559 0-.68-.089-1.098-.802zm-5.036-.488c.496-.88.716-1.44.608-1.548-.1-.1-1.543-.15-3.508-.121-2.977.043-3.336.08-3.317.34.012.16.449.852.97 1.537l.949 1.247 1.76-.039 1.76-.038zm-4.96-.016c-.46-.612-.838-1.164-.838-1.227 0-.062 1.39-.113 3.087-.113 1.698 0 3.087.041 3.087.092s-.325.607-.721 1.235l-.722 1.142-1.527-.008-1.528-.008zm9.746 1.39c0-.052-.279-.647-.62-1.324l-.62-1.23-1.188.001-1.188.002-.662 1.214c-.363.668-.661 1.263-.661 1.322 0 .059 1.111.107 2.47.107 1.358 0 2.469-.042 2.469-.093zm-4.41-.337c0-.042.252-.482.56-.978l.56-.902.972.052.972.052.405.926.405.926h-1.937c-1.065 0-1.937-.034-1.937-.076zm-6.708-.975c.216-.137.168-.276-.284-.835-.696-.86-1.189-.892-1.267-.081-.03.324-.013.701.039.837.108.281 1.11.333 1.512.079zm-56.616 8.46c0-.098-.11-.177-.244-.177s-.281-.198-.328-.44c-.074-.386.072-.541 1.17-1.245l1.255-.804 1.499.082c.824.046 1.797.138 2.16.206.441.082.662.058.662-.073 0-.14 1.793-.195 6.262-.195h6.262v-.508c0-.421.242-.704 1.436-1.675 1.4-1.14 2.239-1.467 2.532-.992.145.233.919.226 1.065-.01.076-.124 1.608-.172 4.604-.145l4.49.041.936.718c1.24.951 1.384 1.313 1.214 3.034-.138 1.388-.138 1.389-.682 1.442-.299.03-.962-.112-1.473-.313-.776-.306-1.472-.384-4.219-.472-3.802-.122-6.6.106-7.985.652-.741.292-1.168.35-2.003.27-3.412-.324-3.972-.327-3.972-.02 0 .613-.451.8-1.928.8-.832 0-1.424-.073-1.424-.176 0-.097-.198-.177-.44-.177-.243 0-.442.08-.442.177 0 .097-.198.176-.44.176-.243 0-.442-.08-.442-.176 0-.097-.238-.177-.529-.177-.29 0-.529.08-.529.177 0 .102-.588.176-1.411.176-.823 0-1.411-.074-1.411-.176 0-.097-.199-.177-.441-.177-.243 0-.441.08-.441.177 0 .097-.238.176-.53.176-.29 0-.528-.08-.528-.176 0-.097-.199-.177-.441-.177-.243 0-.441.08-.441.177 0 .102-.588.176-1.411.176-.824 0-1.412-.074-1.412-.176zm20.19-3.106c.22-.219.237-.34.08-.53-.113-.134-.304-.245-.426-.245s-.313.11-.425.246c-.158.19-.14.31.079.529.156.156.311.283.346.283.035 0 .19-.127.346-.283zm-.577-.26c.035-.103.139-.189.231-.189s.196.086.23.19c.036.104-.068.19-.23.19s-.265-.086-.23-.19zm14.958.28c.293-.352.098-.795-.351-.795-.2 0-.41.12-.466.267-.102.264.209.791.466.791.073 0 .231-.118.35-.262zm-.528-.354c0-.162.086-.266.19-.23.104.034.19.138.19.23s-.086.196-.19.23c-.104.035-.19-.068-.19-.23zm51.318 2.35a5.311 5.311 0 0 0-1.256-1.942l-.849-.854v-2.464h1.411V13.08c0-.946-.07-1.27-.322-1.5-.43-.388-.864-.369-.996.045-.058.185-.223.382-.367.437-.2.077-.235.001-.15-.335.13-.52-.326-.782-.822-.472-.227.142-.334.143-.38.005-.037-.11-.63-.216-1.38-.245a48.353 48.353 0 0 1-2.903-.231c-1.66-.188-3.087-.098-3.087.195 0 .288-2.97-.318-3.263-.666-.256-.304-2.225-.798-2.69-.675-.223.059-.571-.01-.797-.158-.355-.233-1.38-.486-2.293-.568a.976.976 0 0 1-.52-.236c-.272-.272-.577-.266-.812.017-.217.26-.092.507.41.811.325.198.318.205-.089.099-.915-.24-1.278-1.187-.695-1.813.308-.33.547-.382 1.767-.382 1.41 0 4.396.606 4.396.892 0 .351 3.435.854 8.378 1.227 1.456.11 3.162.281 3.793.382.63.1 1.844.22 2.698.265 1.35.071 1.539.12 1.459.378-.45 1.44-.84 3.363-.926 4.543-.091 1.27-.042 1.62.453 3.214.306.984.603 1.91.66 2.058.064.168.005.27-.159.27-.159 0-.421-.426-.669-1.089zm-37.824-.274c-4.023-.792-4.089-.799-7.937-.82l-3.88-.021-.057-.485-.055-.485 3.23-.021c1.777-.012 3.47-.077 3.76-.146.291-.068-1.098-.118-3.086-.111l-3.616.013-.05-2.035-.05-2.034.58-.17c.577-.17.578-.172.63-1.45.05-1.258.06-1.279.529-1.283.287-.003.894-.32 1.522-.794l1.045-.789h6.104c6.767 0 6.815.008 6.92 1.105.049.501.125.577.629.626l.573.055v7.21l-.397.01c-1.545.037-3.92.192-3.989.26-.045.045.923.083 2.152.083h2.234V19.579h-.838c-.46 0-1.46-.119-2.22-.264-1.934-.37-2.284-.298-.47.098.825.18 1.956.33 2.514.334.558.005 1.014.088 1.014.185 0 .397-2.828.123-6.79-.658zm-3.216-2.28c-.119-.048-.357-.051-.529-.006-.171.044-.074.084.217.087.291.004.432-.033.312-.08zm.001-1.661c.362-.298.658-.616.658-.706 0-.09-.794-.163-1.764-.163-1.99 0-2.194.164-1.19.955.777.613 1.48.587 2.296-.086zm4.185.294c0-.331-1.444-1.163-2.02-1.163-.544 0-1.86.827-1.86 1.17 0 .19.417.241 1.94.241 1.549 0 1.94-.05 1.94-.248zm2.955-.623c.412-.478.75-.955.75-1.058 0-.123-.82-.188-2.395-.188-2.137 0-2.388.032-2.337.293.07.359 2.38 1.824 2.875 1.824.21 0 .668-.361 1.107-.87zm-6.482-2.285c0-.486.052-.52 1.102-.72.606-.117 1.936-.254 2.955-.306 2.276-.117 2.469-.203 2.469-1.112 0-1.233-.057-1.244-6.19-1.19l-5.364.046-.05 1.65c-.033 1.064.021 1.736.153 1.895.157.19.758.247 2.565.247h2.36Zm-4.551-.936c-.363-.363-.257-1.324.18-1.63.541-.38.892-.345 1.341.133.455.484.48.787.11 1.316-.307.438-1.268.544-1.631.18zm2.046 0c.116-.117.212-.458.212-.759 0-.3-.096-.642-.212-.758-.165-.165.71-.212 3.933-.212 4.274 0 4.569.047 4.569.722 0 .425-.355.512-2.087.517-.86.002-2.22.156-3.108.352-1.819.403-3.648.479-3.307.138zm6.383 1.184c.261-.314.123-.761-.284-.917-.418-.16-.814.418-.583.85.212.397.57.424.867.067zm-.703-.355c0-.182.115-.268.308-.231.372.071.349.384-.035.464-.16.033-.273-.064-.273-.233zm2.359.224c.148-.235.125-.373-.1-.598-.528-.528-1.317.162-.84.736.274.33.682.27.94-.138zm-.826-.072c-.165-.165.034-.417.33-.417.139 0 .253.12.253.265 0 .265-.372.362-.583.152zm36.743 7.168c0-.097.119-.176.265-.176.145 0 .264.079.264.176 0 .097-.119.176-.264.176-.146 0-.265-.079-.265-.176zm-88.724-2.963v-2.61l.67-.653.668-.653h19.753l.958-.97.958-.97h11.957l1.03.548c1.564.834 1.598.897 1.634 3.051.029 1.712-.13 2.388-.358 1.518-.05-.192-.574-.708-1.163-1.146l-1.071-.796-5.744.001-5.744.002-1.455 1.179c-1.197.97-1.455 1.267-1.455 1.674v.495H24.004l-1.45.97c-.883.591-1.638.97-1.935.97h-.487zm1.04.428c.273-.329.059-.816-.359-.816-.427 0-.612.45-.326.796.27.325.428.33.685.02zm15.857-1.728c-.034-.958-.125-1.466-.272-1.514-.163-.054-.22.255-.22 1.176v1.25H33.89v-1.127c0-1.114-.006-1.127-.523-1.203-.627-.092-.712.072-.712 1.374 0 .902-.025.956-.441.956-.424 0-.441-.043-.441-1.126 0-1.059-.026-1.131-.437-1.21-.24-.046-.478-.042-.529.009-.05.05-.092.595-.092 1.21v1.117h-2.47v-1.127c0-1.117-.004-1.127-.53-1.204-.292-.043-.57-.039-.617.01-.048.047-.087.589-.087 1.203 0 1.074-.018 1.118-.441 1.118-.426 0-.441-.042-.441-1.147 0-.872-.06-1.147-.25-1.147-.138 0-.376-.048-.53-.107-.238-.091-.279.076-.279 1.14v1.247l-1.529.05c-1.028.035-1.553.124-1.602.272-.058.174 1.527.22 7.533.22h7.607zm-12.77.179c.342-.489.082-1.031-.495-1.031-.613 0-.909.435-.663.975s.8.566 1.158.056zm-.775-.414c0-.145.119-.265.264-.265a.265.265 0 0 1 0 .53.265.265 0 0 1-.264-.265zm6.595.397c.284-.453-.077-.926-.705-.926-.399 0-.523.089-.568.406-.118.835.833 1.223 1.273.52zm-.907-.353c.04-.121.18-.22.309-.22.13 0 .268.099.309.22.043.131-.082.22-.309.22-.227 0-.352-.089-.309-.22zm6.558.473c.508-.508.207-1.134-.545-1.134-.565 0-.821.547-.482 1.03.315.45.647.484 1.027.104zm-.781-.517c0-.182.116-.268.309-.231.371.072.348.385-.035.464-.16.034-.274-.064-.274-.233zm9.349-2.83c0-.161-.957-.95-1.158-.957-.103-.003-.416.233-.694.524l-.507.529h1.18c.648 0 1.179-.043 1.179-.097zm1.594-.29c.847-.626.683-.849-.624-.849-1.26 0-1.399.15-.763.827.476.507.726.511 1.387.022zm2.463.222c0-.202-.863-.894-1.115-.894-.225 0-1.002.708-1.002.912 0 .08.476.146 1.058.146.582 0 1.059-.074 1.059-.164zm1.706-.288c.326-.25.547-.527.491-.618-.056-.09-.613-.165-1.238-.165-1.283 0-1.47.241-.671.87.593.466.7.46 1.418-.087zm2.35.331c0-.18-.743-.937-.92-.937-.22 0-1.196.746-1.196.915 0 .079.476.143 1.058.143.582 0 1.059-.054 1.059-.12zm1.772-.265c.846-.626.682-.849-.625-.849-1.26 0-1.398.15-.763.827.477.507.726.511 1.388.022zm2.462.222c0-.202-.862-.894-1.115-.894-.224 0-1.002.708-1.002.912 0 .08.476.146 1.059.146.582 0 1.058-.074 1.058-.164zm-42.075 5.23c-.055-.222-.077-.908-.047-1.525.059-1.246.388-1.688.98-1.317.23.145.321.479.361 1.317.077 1.605-.035 1.927-.67 1.927-.397 0-.547-.097-.624-.402zm1.049-1.942c.275-.437-.29-.987-.681-.662-.329.273-.35.567-.06.856.26.26.493.198.74-.194zm-9.421 1.639c0-.342.116-.353 3.483-.35l3.484.005-.441.344c-.398.312-.735.346-3.484.35-2.926.003-3.042-.01-3.042-.35zm11.07-.311c-.861-.562-1.012-.739-1.014-1.194-.003-.764-.447-1.318-1.058-1.318-.7 0-1.06.424-1.06 1.241 0 .499-.094.737-.342.87-.204.109-1.806.182-3.969.182H6.198V13.23H20.723l-.384.408c-.344.367-.383.601-.383 2.293v1.885l-.838-.002c-.668-.001-1.043-.136-1.85-.661zm-13.893-.219c0-.343.084-.365 1.191-.316.918.04 1.19.112 1.19.316 0 .204-.272.277-1.19.317-1.107.049-1.19.026-1.19-.317zm0-2.028v-1.323h2.47v2.646h-2.47Zm89.253-2.236c-.769-1.042-.854-1.099-2.734-1.843-2.91-1.15-2.804-1.093-2.555-1.392.258-.311 1.443-.188 2.09.217.229.143.864.283 1.41.31 1.256.062 1.946.24 2.454.633.22.17.795.364 1.279.43.483.067.922.193.977.281.128.208 1.086.208 1.214.001.173-.28 2.087-.382 3.45-.182.728.107 1.8.207 2.381.223 1.06.03 1.5.171 1.5.481 0 .098-1.23.166-2.964.166h-2.963l-.99.882-.99.882-1.382-.007-1.383-.007zm-88.194-.073c0-.31.872-.767 1.477-.772.587-.005.652.031.463.259-.338.407.335.34.882-.089.435-.34 1.411-.486 1.411-.211 0 .077-.095.236-.212.353-.37.37.371.25.87-.142.494-.389 1.694-.517 1.318-.14-.305.304-.261.493.113.493.18 0 .47-.159.645-.353.23-.253.543-.352 1.119-.352h.8l-.508.529-.507.529H8.37c-2.164 0-3.935-.047-3.935-.104zm8.643-.033c0-.45.599-.923 1.2-.948.533-.021.563-.04.167-.1-.46-.07-.485-.122-.485-1.026 0-.855-.055-.994-.53-1.345-.29-.215-.529-.455-.529-.534 0-.079 1.31-.143 2.91-.143h2.911V12.7H15.9c-1.552 0-2.822-.062-2.822-.137zm6.173-1.119c0-1.094.026-1.174.353-1.088.253.066.353.005.353-.214s-.1-.28-.353-.213c-.322.084-.353.005-.353-.925V7.987l5.513-.118c3.031-.065 5.909-.158 6.394-.207 1.39-.14 1.403-.108.96 2.41-.213 1.203-.436 2.239-.497 2.302-.06.063-2.869.145-6.24.183l-6.13.068zm11.554-.334c0-.378-.513-.323-.587.063-.045.235.026.307.262.262.179-.035.325-.18.325-.325zm.882 0c0-.378-.513-.323-.587.063-.045.235.026.307.262.262.179-.035.325-.18.325-.325zM3.49 12.201c-.437-.483-.415-2.863.03-3.266.436-.394.602-.37 1.098.158.354.378.38.476.165.61-.17.105-.401.067-.673-.111-.227-.15-.449-.236-.492-.193-.043.043.123.21.368.37.606.398.609 1.197.006 1.592-.243.159-.441.372-.441.474 0 .102.208.022.462-.178.474-.373.773-.349.773.063 0 .194-.71.804-.937.804-.037 0-.198-.146-.359-.323zm28.713-.25c.155-.726.628-3.168.628-3.239 0-.038 1.112-.069 2.47-.069h2.47v.982c0 .956-.024 1.003-.927 1.845l-.926.864-1.9.006c-1.878.007-1.898.003-1.815-.39zm5.29-2.093c-.15-.243-.605-.184-.605.079 0 .129.053.287.116.35.16.16.61-.235.49-.43zm-.957 2.405c0-.047.357-.414.793-.817.752-.692.794-.782.794-1.679 0-.813.048-.948.335-.948.27 0 .347-.153.398-.792l.063-.793-17.728-.045-17.728-.045V4.74l2.38-.003 2.382-.004.325.544c.298.5.402.544 1.268.544.52 0 .993-.08 1.053-.177.144-.232 2.91-.232 2.91 0 0 .097.199.177.441.177.243 0 .441-.08.441-.177 0-.246.636-.22 1.084.045.299.176.39.176.453 0 .098-.271 2.796-.311 2.961-.045.142.23.97.23.97 0 0-.097.199-.176.441-.176.243 0 .441.08.441.176 0 .23.828.23.97 0 .143-.23 2.68-.23 2.823 0 .142.23.97.23.97 0s.828-.23.97 0c.142.23.97.23.97 0 0-.102.588-.176 1.411-.176.823 0 1.411.074 1.411.176 0 .23.828.23.97 0 .142-.23.97-.23.97 0 0 .097.199.177.442.177.242 0 .44-.08.44-.177 0-.232 2.767-.232 2.91 0 .143.23.971.23.971 0 0-.097.199-.176.441-.176.243 0 .441.08.441.176 0 .23.828.23.97 0 .144-.232 2.91-.232 2.91 0 0 .097.194.177.431.177s.48-.08.54-.177c.06-.097.302-.176.54-.176.236 0 .43.08.43.176 0 .097.198.177.44.177.243 0 .442-.08.442-.177 0-.102.588-.176 1.41-.176.824 0 1.412.074 1.412.176 0 .097.238.177.53.177.29 0 .528-.08.528-.177 0-.097.199-.176.441-.176.243 0 .441.08.441.176 0 .097.194.177.43.177.238 0 .48-.08.54-.177.06-.097.74-.176 1.51-.176.816 0 1.4.074 1.4.176 0 .097.2.177.442.177s.44-.08.44-.177c0-.23.829-.23.97 0 .143.23.971.23.971 0 0-.102.582-.176 1.392-.176 1.46 0 1.607.082 1.607.896 0 .3.139.34 1.19.352l1.19.014-.616.237c-.388.15-1.42.243-2.779.252-1.314.008-2.16.082-2.16.19 0 .096-.397.176-.882.176s-.882-.08-.882-.177c0-.109-.912-.176-2.381-.176-1.47 0-2.382.067-2.382.176 0 .226-1.714.233-1.793.008-.033-.095-1.176-.18-2.616-.194l-2.558-.027-.029 1.999-.028 1.998-.63.578-.63.577H38.92c-1.31 0-2.383-.038-2.383-.084zM7.08 6.262c0-.422-.047-.441-1.059-.441-1.011 0-1.058.02-1.058.44 0 .422.047.442 1.058.442 1.012 0 1.059-.02 1.059-.441zm49.944 5.288-.943-.79H43.063V7.938H59.114V12.347l-.573-.004c-.418-.002-.83-.218-1.517-.793zm-12.55-2.73c0-.098-.119-.177-.265-.177-.145 0-.264.08-.264.176 0 .097.119.177.264.177.146 0 .265-.08.265-.177zm1.235 0a.177.177 0 0 0-.177-.177.177.177 0 0 0-.176.176c0 .097.08.177.176.177.097 0 .177-.08.177-.177zm58.914 2.733c0-.145.079-.264.176-.264.097 0 .176.119.176.264 0 .146-.079.265-.176.265-.097 0-.176-.119-.176-.265zm4.003.152c-.141-.14.018-.416.24-.416.092 0 .166.119.166.264 0 .273-.208.35-.406.152zM4.904 11.348c-.187-.188-.136-1.47.059-1.47.097 0 .176.357.176.794 0 .807-.026.884-.235.676zm.588-.765v-.882H6.727v1.764H5.492Zm2.504.044c.046-.715.112-.846.45-.894.367-.052.397.012.397.838 0 .841-.026.894-.45.894-.428 0-.448-.043-.397-.838zm2.082-.031c0-.842.027-.895.45-.895.428 0 .449.043.398.838-.046.715-.112.846-.45.894-.368.053-.398-.01-.398-.837zm2.117 0c0-.815.031-.876.485-.945.439-.066.43-.076-.105-.1-.324-.014-.79-.185-1.038-.379-.696-.548-1.462-.427-.894.141.164.165.092.212-.326.212-.313 0-.67-.147-.856-.353-.176-.194-.518-.353-.76-.353-.43 0-.433.01-.122.353.313.347.308.353-.298.353-.394 0-.733-.128-.937-.353-.175-.194-.466-.353-.645-.353-.374 0-.418.19-.113.494.164.165.057.21-.485.206-.48-.003-.848-.138-1.182-.432-.267-.235-.485-.47-.485-.524 0-.053 1.718-.096 3.818-.096h3.818l.768.629c.718.588.768.686.768 1.5v.87h-1.411v-.87zM76.07 9.058l.053-.857-6.92-.046-6.92-.046-.895.707c-.58.46-1.076.708-1.409.708-.505 0-.513-.015-.513-.985 0-.71.061-.964.22-.91.122.042.77-.11 1.443-.337 1.145-.388 1.48-.414 5.41-.414 2.777 0 5.638.125 8.48.37 2.36.204 4.648.392 5.085.418.436.026.992.098 1.234.159.243.06 1.116.145 1.94.187l1.72.089c.137.007.22.275.22.708v.696l-3.747.083c-2.062.046-4.132.138-4.601.205l-.852.122.052-.857Zm10.417-.076c.035-.105.139-.19.231-.19s.196.085.23.19c.036.104-.068.19-.23.19s-.265-.086-.23-.19zm-8.412-1.87c-.29-.035-.886-.15-1.323-.254-.504-.12-3.284-.18-7.63-.164-6.13.023-6.85-.004-6.947-.258-.065-.17.04-.421.26-.626.296-.276.624-.343 1.688-.343.726 0 1.369.08 1.428.176.142.23.97.23.97 0 0-.097.2-.176.442-.176s.44.08.44.176c0 .23.829.23.97 0 .144-.232 2.911-.232 2.911 0 0 .097.199.177.441.177.243 0 .441-.08.441-.177 0-.097.238-.176.53-.176.444 0 .528-.07.528-.435 0-.625.479-.805 2.46-.922l1.74-.103.286.554c.157.304.358.553.445.553.352 0 .714.589.714 1.16 0 .408.082.604.254.604.14 0 .303.08.363.177.108.174-.324.192-1.41.058zm-.833-.861c.49-.343.507-1.021.04-1.49-.466-.465-.806-.445-1.332.08-.525.526-.545.866-.08 1.332.424.423.844.447 1.372.078zm-.99-.233c-.13-.083-.21-.34-.177-.57.082-.58.945-.702 1.118-.16.2.632-.383 1.083-.941.73zM3.493 4.292c-.065-.065-.118-.342-.118-.617v-.5h2.089c2.066 0 2.09.005 2.293.45.112.246.205.524.205.617 0 .189-4.282.237-4.469.05z" style="fill:#000;fill-opacity:1;stroke-width:.176389"/></svg>