<svg xmlns="http://www.w3.org/2000/svg" width="242.715" height="128" viewBox="0 0 64.218 33.867"><path d="M50.1 30.23c-.574-.385-.698-.604-.75-1.316-.039-.53.023-.853.163-.853.765 0 2.064.526 2.548 1.031l.563.588h3.26c2.267 0 3.335-.074 3.504-.243.134-.133.243-.71.243-1.28 0-.844.094-1.125.505-1.512.278-.26.574-.406.658-.322.084.084.185.981.224 1.995.063 1.59.023 1.878-.291 2.108-.277.202-1.516.266-5.152.266-4.65 0-4.807-.014-5.475-.462zm5.59-.91c-2.989-.055-3.038-.064-3.602-.607-.315-.303-.955-.646-1.422-.762-.706-.175-.86-.302-.913-.753-.035-.299.02-.691.121-.873.137-.243-.15-.929-1.1-2.632-.706-1.266-1.284-2.486-1.284-2.71 0-.225-.105-.409-.234-.409s-.534-.229-.901-.509-.95-.566-1.295-.635c-.444-.088-.594-.213-.513-.424.087-.227.03-.257-.242-.124-.196.096-2.883.2-5.972.231l-5.615.057v-1.328l4.79.058 4.79.058 1.129-.694c2.602-1.6 8.698-4.722 8.875-4.544.114.113.654-.118 1.38-.59 1.553-1.01 3.16-1.734 3.643-1.641.225.043.413.277.454.568.057.404-.306.853-1.96 2.426l-2.03 1.931.108 1.012c.067.627.251 1.137.484 1.34.449.393.316.582-.407.582-.363 0-.816-.29-1.425-.91-.492-.501-1.005-.91-1.14-.91-.137 0-.792.323-1.458.72-1.801 1.073-1.908 2.133-.243 2.414.71.12.905.312 2.214 2.183.79 1.128 1.436 2.246 1.436 2.483 0 .238-.182.598-.405.799-.468.424-.528 1.438-.118 1.979.242.32.586.353 3.079.303l2.806-.056.063-.863c.047-.655.183-.942.564-1.192.47-.308.52-.304.791.054.398.525.377.627-.204 1.008-.444.29-.505.476-.505 1.515 0 .932-.076 1.217-.355 1.343-.194.087-1.717.133-3.384.102zm-2.4-2.608c-.293-.294-.108-1.033.372-1.484.843-.792.67-1.3-1.326-3.895-1.605-2.087-1.902-2.378-2.427-2.378-.373 0-.598-.105-.598-.278 0-.33.219-.514 1.37-1.146l.862-.475.895.878c.883.867.909.877 2.009.763.853-.088 1.173-.043 1.368.192.212.255.17.372-.241.688-.273.21-.582.383-.688.386-.106.002-.092.105.032.228.164.164.421.16.96-.018 1.283-.424 1.77.051.7.683-.813.48-.504.79.483.487.565-.173.817-.174.988-.004.17.17.066.322-.408.592-.994.566-.673.918.51.558.379-.115.518.018.983.935l.542 1.07-.632.519c-.472.388-.63.685-.629 1.176l.001.658h-2.495c-1.373 0-2.557-.06-2.63-.135zM7.83 18.247l-.476-.506h10.355c5.695 0 10.355.032 10.355.07 0 .039-.17.267-.378.506-.337.39-.584.436-2.31.436-1.365 0-1.957-.074-2.017-.253-.068-.202-.226-.202-.79 0-.89.32-1.438.321-1.754.005-.196-.196-.332-.195-.647.002-.476.296-6.633.297-7.014 0-.15-.116-.394-.105-.645.03-.222.118-1.26.216-2.304.216-1.766 0-1.934-.036-2.376-.506zm21.65-.38c0-.043.32-.32.709-.618l.708-.54v.617c0 .57-.053.618-.708.618-.39 0-.708-.035-.708-.078zm3.194-.885c-.233-.481-.388-.556-1.158-.556h-.889l-.97-2.078c-.533-1.143-.918-2.213-.855-2.378.097-.253.902-.3 5.241-.3 3.2 0 5.174-.075 5.252-.202.073-.12 1.297-.202 2.985-.202h2.86l.854.961.854.961 1.383-.708c1.367-.7 1.384-.719 1.447-1.603.103-1.428-.047-1.683-1.463-2.497-1.293-.744-1.35-.756-3.47-.756-1.882 0-2.14-.04-2.032-.32.068-.176.123-.45.123-.607 0-.235.523-.287 2.837-.287h2.837l2.52 1.467c2.306 1.343 3.017 1.973 2.227 1.973-.6 0-.286.535.553.942l.857.415-.645.333c-.79.409-.866.412-.866.03 0-.505-.987-.377-1.231.158-.144.316-1.507 1.147-4.296 2.62l-4.085 2.156-.063-1.048c-.045-.75-.212-1.244-.59-1.738l-.526-.69-3.278.133c-2.795.115-3.316.09-3.533-.172-.199-.24-.735-.307-2.444-.307-2.034 0-2.212.033-2.505.45-.173.248-.315.637-.315.866 0 .228.142.618.315.865.293.418.47.45 2.517.45 1.25 0 2.257-.088 2.328-.202.316-.512.506-.094.506 1.113v1.315h-1.507c-1.443 0-1.518-.023-1.775-.557zm-26.713 0c-.938-1.063-2.336-5.071-2.04-5.844a.319.319 0 0 0-.125-.37c-.119-.073-.216-.31-.216-.526 0-.382.214-.392 7.858-.392 4.322 0 7.906-.049 7.965-.108.06-.06-.096-.674-.345-1.366a59.454 59.454 0 0 1-.593-1.714l-.14-.455 10.282.02c5.656.011 10.761.08 11.345.152l1.063.132-1.225 1.568-1.224 1.568H32.63c-5.197 0-5.967.04-6.203.325-.226.272-.196.61.19 2.115.252.984.763 2.546 1.136 3.47l.677 1.678-3.142.056c-2.812.05-3.17.018-3.415-.303-.257-.34-.273-.34-.279-.006-.006.331-.508.354-7.664.354-7.04 0-7.683-.028-7.97-.354zM12.972 16c.445-.171.406-.49-.354-2.913l-.667-2.125-2.082-.1c-1.145-.056-2.174-.045-2.286.025-.341.213.042 2.541.589 3.575.854 1.615.93 1.66 2.808 1.66.92 0 1.816-.055 1.992-.122zm-3.5-1.41c-.428-.545-.76-2.09-.559-2.613.149-.388 2.213-.432 2.495-.053.103.139.354.799.556 1.467.203.667.412 1.328.466 1.467.071.186-.251.253-1.226.253-1.179 0-1.366-.057-1.731-.52zm10.357 1.28c.315-.234.283-.432-.42-2.58l-.762-2.328-2.088-.1c-2.55-.124-2.605-.083-2.26 1.67.258 1.316.364 1.576 1.153 2.832l.476.758h1.78c1.107 0 1.91-.095 2.121-.253zm-3.68-1.334c-.26-.366-.432-.973-.47-1.67l-.06-1.094 1.247-.06 1.247-.06.524 1.619c.288.89.524 1.668.524 1.73 0 .06-.586.11-1.302.11-1.199 0-1.334-.046-1.71-.575zm22.141-5.72c.27-.85-.89-1.275-1.209-.443-.066.173-.017.439.11.592.346.416.945.334 1.1-.15zm-9.108 8.124c-.16-.258.056-1.02.289-1.02.09 0 .212.179.269.397.119.455-.343.97-.558.623zm12.303-.137c-.177-.072-.164-.273.05-.787.397-.95.368-1.185-.235-1.902l-.524-.622h.702c.812 0 1.089.262 1.252 1.185.083.473-.012.891-.33 1.459-.455.809-.495.838-.915.667zm-12.94-1.382c-.074-.193 0-.474.172-.645.27-.27.316-.258.412.11.14.54-.394 1.03-.584.535zm2.393-.756c-.134-.133-.243-.434-.243-.667 0-.759.388-.911 2.317-.908 1.007.002 1.929.07 2.048.152.395.27.465.804.16 1.238-.268.384-.494.428-2.17.428-1.184 0-1.959-.089-2.112-.243zm-2.974-.565c-.165-.266.069-1.013.316-1.013.246 0 .246.953 0 1.104-.103.064-.245.023-.316-.09zm-.871-2.189c-.36-1.74-.424-1.657 1.282-1.657 1.447 0 1.514.02 1.314.393-.147.275-.468.412-1.07.456-.783.056-.853.106-.8.568.072.62-.111 1.416-.325 1.416-.087 0-.268-.529-.401-1.176zm19.049-.342-.761-.91h-2.69c-1.478 0-2.688-.042-2.688-.093s.377-.597.838-1.214l.839-1.121h2.413c2.37 0 2.43.011 3.36.635 1.188.796 1.453 1.125 1.453 1.8 0 .587-.36.982-1.355 1.486l-.648.328zm-7.744-.839c1.484-1.76 3.224-4.134 3.224-4.4 0-.333.7-.463.885-.163.18.29-3.502 4.79-3.98 4.867-.414.066-.423.044-.13-.304zm-7.804-.071c.068-.111.352-.202.63-.202.286 0 .452.088.381.202-.068.111-.352.202-.63.202-.286 0-.452-.088-.381-.202zm1.82 0c.07-.111.399-.202.733-.202.353 0 .555.084.482.202-.069.111-.398.202-.732.202-.353 0-.555-.084-.482-.202zm1.923 0c0-.111.273-.202.607-.202.334 0 .607.09.607.202 0 .111-.273.202-.607.202-.334 0-.607-.09-.607-.202zm1.922 0c.07-.111.399-.202.733-.202.353 0 .554.084.481.202-.068.111-.398.202-.732.202-.353 0-.554-.084-.482-.202zM3.175 8.433v-.81h5.577c3.666 0 5.533-.069 5.451-.202-.078-.126-2.06-.202-5.273-.202-3.27 0-5.148-.073-5.148-.2 0-.111.342-.362.759-.558.653-.306.767-.46.821-1.114l.063-.759h4.618l.461.805.462.804 3.431.056 3.432.055.446 1.467.445 1.467H3.175Zm5.92-2.53c-.026-.11-.64-.229-1.365-.262-1.212-.055-1.544.07-1.174.44.22.22 2.595.054 2.54-.177Zm41.632 1.32c-1.789-1.119-2.007-1.203-3.149-1.21l-1.227-.008.09-1.265c.096-1.357.238-1.56 1.094-1.565.414-.002.633.154.876.624.247.478.728.814 2.02 1.41 1.575.729 1.707.838 1.885 1.549.284 1.144.4 1.675.365 1.672a97.926 97.926 0 0 1-1.954-1.207zm-2.832-2.95a.299.299 0 0 0-.304-.292c-.305 0-.416.427-.174.67.189.188.478-.04.478-.378zM18.486 5.668c-.268-.268-.126-.63.29-.739.234-.061.365-.208.292-.327-.091-.148.542-.216 2.01-.216 1.718 0 2.166.06 2.259.304.064.166.246.303.405.303.158 0 .34-.137.404-.303.157-.41 1.414-.403 1.644.008.179.319.858.215.858-.131 0-.1.9-.181 2.002-.181 1.592 0 2.025.062 2.118.304.15.393.917.393 1.068 0 .13-.341 1.49-.434 1.49-.102 0 .264.747.264.91 0 .07-.113 1.04-.202 2.216-.202 2.071 0 2.092.005 2.22.515.071.284.075.602.01.708-.136.22-19.978.277-20.196.059z" style="fill:#000;fill-opacity:1;stroke-width:.202351"/></svg>