<svg xmlns="http://www.w3.org/2000/svg" width="466.595" height="128" viewBox="0 0 123.453 33.867"><path d="M115.782 29.289c.223-3.12.418-12.233.278-13.029l-.149-.852 1.375.066 1.374.067.07 1.231c.038.677-.089 2.091-.282 3.142-.438 2.384-1.017 7.769-1.02 9.487l-.003 1.29h-1.744zm1.994-.112c.315-4.381.62-7.155 1.037-9.444.255-1.398.412-2.922.35-3.387-.106-.79-.08-.839.416-.744.795.152.911 1.254.353 3.36-.568 2.143-1.384 7.644-1.384 9.331 0 1.327-.295 2.399-.66 2.399-.134 0-.178-.595-.112-1.515zm-3.944.956c-.556-.153-1.617-.343-2.356-.423-.74-.08-1.598-.189-1.907-.24-.491-.084-7.297-.824-10.437-1.135-.617-.061-2.031-.218-3.142-.349-1.56-.183-2.787-.163-5.374.089-3.016.293-3.408.29-3.888-.024-.323-.211-1.16-1.624-2.116-3.571-.87-1.772-1.67-3.277-1.78-3.344-.456-.282-.117-3.239.373-3.239.16 0 .817.45 1.46.999.888.758 1.312.977 1.758.907 2.386-.37 2.202-.271 2.47-1.337.138-.546.25-1.405.25-1.91 0-.85.043-.913.56-.844.346.047.953.54 1.594 1.299a71.09 71.09 0 0 0 2.565 2.804l1.528 1.581 5.912.395c3.25.216 6.525.452 7.277.522l1.366.128 2.169-2.62c1.934-2.336 2.17-2.716 2.17-3.506 0-.581.1-.887.293-.887.917 0 1.556 1.63.799 2.036-.265.142-.41.45-.393.834.02.466.05.504.134.16.059-.246.21-.55.334-.673.152-.15.181 1.062.089 3.704-.076 2.16-.13 4.7-.122 5.644.017 1.795-.186 3.354-.43 3.306a40.053 40.053 0 0 1-1.156-.306zm1.124-5.614c0-.332-.128-.561-.315-.561-.25 0-.29-.289-.191-1.403.068-.772.21-1.437.316-1.478.329-.128-.037-.486-.496-.486-.37 0-.436.161-.438 1.066 0 .587-.065 1.597-.143 2.245l-.142 1.178h.705c.602 0 .704-.082.704-.561zm-9.427-.698c0-.584-.319-.65-4.226-.875l-2.317-.133.073.516c.063.446.271.551 1.532.772.802.14 2.242.25 3.199.242 1.654-.013 1.74-.039 1.74-.522zm-3.889.142c-.72-.096-1.426-.3-1.571-.454-.21-.223.214-.249 2.088-.126 1.294.084 2.397.198 2.45.252.355.354-1.352.543-2.967.328zM78.5 27.83c-.092-.093-.235-.173-.318-.179-.497-.034-2.506-.66-2.506-.782 0-.08-.556-.27-1.235-.422-.679-.152-1.234-.376-1.234-.498s-.088-.168-.195-.101c-.163.1-2.877-.678-3.143-.901-.045-.039.106-.53.337-1.092.272-.663.525-.982.72-.907a9.8 9.8 0 0 0 .85.251c.432.109.517.238.404.617-.129.434-.113.443.162.1.21-.262.497-.34.927-.254.506.102.6.216.494.604-.121.443-.108.45.186.085.439-.544.664-.492.484.112-.149.5-.146.5.228.056.353-.419.369-.42.242-.024-.117.367-.087.384.224.126.212-.176.42-.212.51-.088.083.116.277.22.432.233.154.012.432.038.617.056.185.019.345.21.354.427.01.234.064.28.131.112.138-.341.75-.376.75-.043 0 .13.089.182.198.115.16-.1 1.515.236 1.776.439.11.086-.93 2.126-1.084 2.126-.078 0-.218-.076-.31-.168zm-6.871-4.433c0-.124-.098-.073-.218.112s-.217.438-.217.561c0 .124.097.073.217-.112s.218-.438.218-.561zm-.738-.155c-.072-.179-.125-.126-.136.136-.01.237.044.37.118.295.075-.075.083-.269.018-.43zm9.01 3.667c.213-.476.682-1.119 1.042-1.429.56-.482.655-.725.655-1.678 0-1.565-.424-2.468-1.288-2.742-4.416-1.398-8.323-2.5-8.554-2.411-.802.308-2.39 4.187-1.713 4.187.28 0 .076.683-.384 1.28l-.38.496-3.418-1.073c-4.084-1.282-4.682-1.73-5.074-3.79l-.139-.73h2.009v.869c0 .77.106.938.942 1.491 1.222.809 2.512.947 3.547.38.963-.527 2.035-2.186 2.14-3.312.042-.46.167-.926.276-1.035.117-.116 2.767.607 6.355 1.733 5.438 1.707 6.228 2.015 6.773 2.635.682.775.785 1.664.37 3.188-.38 1.4-1.932 2.806-3.097 2.806-.439 0-.44-.02-.062-.865zm22.226-5.51-6.433-.474-1.873-2c-1.911-2.042-3.089-3.476-3.1-3.777-.003-.093 5.091-.169 11.321-.169 10.97 0 11.335.014 11.56.435.128.238.232.602.232.808 0 .206-.972 1.576-2.16 3.045-1.614 1.995-2.281 2.662-2.637 2.637-.263-.018-3.372-.246-6.91-.506zm-20.935-.954c-.485-.169-.921-.347-.97-.396-.05-.05.13-.903.397-1.897.268-.993.447-1.93.396-2.08-.05-.152-.328.605-.617 1.68-.289 1.076-.61 2.009-.714 2.073-.26.161-2.661-.616-2.661-.862 0-.11.257-1.213.571-2.453.314-1.24.535-2.364.49-2.499-.045-.134-.365.826-.712 2.134-.346 1.308-.698 2.488-.781 2.623-.102.164-1.481-.186-4.198-1.068-2.225-.722-4.63-1.385-5.345-1.475l-1.3-.162.156-2.283c.258-3.778.424-4.756.799-4.695.182.03 1.004.232 1.826.45 1.43.377 1.5.428 1.62 1.17.07.425.084 1.536.032 2.468-.083 1.493-.071 1.56.1.572.106-.617.202-1.703.213-2.413.01-.71.076-1.29.144-1.29.07 0 .575.113 1.125.251 1.208.304 1.33.627 1.156 3.078-.073 1.031-.05 1.45.056 1.047.098-.37.19-1.355.205-2.188.015-.834.103-1.507.195-1.497.093.01.674.187 1.29.393l1.123.376-.024 1.907c-.015 1.136.047 1.726.152 1.458.098-.247.184-1.013.193-1.702.009-.69.073-1.31.144-1.381.187-.187 3.473 1.052 3.68 1.387.111.18.228.202.316.058.115-.186 2.254.428 2.568.737.038.038-.087 1.266-.278 2.73a129.82 129.82 0 0 0-.407 3.358l-.059.698zm-2.515-3.268c-.186-.302-.497.344-.507 1.057-.006.369.053.338.33-.174.186-.342.266-.74.177-.883zm-4.227-1.412c.204-.494.265-.797.136-.673-.128.123-.4.628-.603 1.122-.203.494-.264.797-.135.673.128-.123.4-.628.602-1.122zm1.828.52c-.072-.18-.125-.127-.136.135-.01.236.044.369.118.294.075-.074.083-.268.018-.43zM71.62 11.5c0-.123-.147-.028-.328.212-.182.24-.326.593-.322.785.009.381.649-.6.65-.997zm-6.045 8.567c0-.071.253-.502.561-.956.36-.53.561-1.14.561-1.694 0-.769.062-.866.548-.866.753 0 .88.313.46 1.128-.34.655-2.13 2.663-2.13 2.388zm19.12-1.71c-.633-.5-1.268-.909-1.413-.909-.191 0-.222-.443-.113-1.614.082-.888.176-1.64.208-1.672.032-.032 1.234.265 2.67.66 2.53.696 2.616.74 2.717 1.392.057.37-.061 1.178-.263 1.796l-.368 1.122-1.144.067c-1.046.06-1.245-.013-2.295-.842zm-57.605.214c-.033-.062-.123-.375-.2-.696-.137-.578-.157-.583-1.824-.476-1.113.072-1.793.018-2.004-.157-.218-.18-.365-.19-.464-.029-.21.34-3.262.309-3.262-.034 0-.21-.06-.21-.27 0-.34.34-1.526.354-1.526.018 0-.177-.084-.182-.28-.02-.182.151-2.39.22-6.23.197l-5.947-.038-.072-.505c-.082-.58-1.546-.515 13.652-.612 4.63-.03 8.594-.068 8.81-.086.338-.027.393-.276.393-1.782 0-1.063.106-1.857.269-2.02.148-.148.76-.27 1.359-.27h1.09l-.038 2.301c-.022 1.317.07 2.54.216 2.862.228.503.24.472.124-.303-.072-.475-.049-.813.052-.75.1.062.147-.736.103-1.774l-.079-1.887h.584c.58 0 .584.014.584 1.759 0 .967.076 1.832.169 1.924.092.09.295.486.45.879l.283.713-.119-.673c-.325-1.853-.386-4.38-.113-4.71.398-.48 2.376-.469 2.561.014.241.628.146 3.137-.13 3.413-.145.146-.194.336-.108.422.396.396.668-.454.62-1.936l-.051-1.58h1.826v3.142h-.698c-.546 0-.667.078-.56.358.075.196.198.6.273.898.074.297.218.54.32.54.101 0 .09-.328-.025-.728l-.208-.73.768-.056c.687-.049.783.016.915.615.08.368.251.734.378.812.21.13.145-.262-.194-1.167-.054-.143.23-.256.688-.273.69-.026.796.046.925.634.203.927.56 1.066.413.162-.112-.691-.075-.745.544-.792.573-.044.712.064 1.02.792l.356.843-.115-.785c-.108-.74-.075-.789.546-.831.567-.039.712.074 1.013.786l.352.83-.127-.844c-.106-.714-.07-.823.236-.706.205.079.362.026.362-.12 0-.506.765.159 1.06.92l.29.75-.118-.807c-.112-.772-.087-.809.563-.827.571-.016.733.105 1.003.751.407.975.604 1 .33.043-.116-.4-.21-.739-.21-.752 0-.013.606-.042 1.347-.065l1.347-.04V18.683H38.73c-6.37 0-11.608-.05-11.641-.112zm1.775-1.885c-.083-.445-.252-.809-.375-.809s-.162.161-.086.358c.075.196.2.605.275.908.21.834.36.466.186-.457zm6.06 0c-.083-.445-.252-.809-.374-.809-.123 0-.162.161-.087.358.076.196.2.605.276.908.209.834.359.466.186-.457zm-5.488-.584a.225.225 0 0 0-.225-.225.225.225 0 0 0-.224.225c0 .123.101.224.224.224a.225.225 0 0 0 .225-.224zm4.04 0a.225.225 0 0 0-.224-.225.225.225 0 0 0-.225.225.225.225 0 0 0 .449 0zm-3.412-1.928c.037-.258-.077-.588-.252-.733-.648-.538-1.555.368-1.017 1.017.38.458 1.189.278 1.269-.284zm-1.194.125c-.087-.141-.053-.362.077-.491.301-.302 1.005-.039.882.33-.125.375-.76.482-.959.16zm5.884.089c.15-.391-.143-1.013-.538-1.145-.131-.044-.402.084-.601.283-.275.275-.306.467-.13.796.282.528 1.075.57 1.269.066zm-.899-.002c-.318-.318-.138-.753.311-.753.314 0 .442.122.393.374-.08.413-.463.62-.704.379zm26.482 4.035c-.083-.082-.15-.587-.15-1.122v-.973h2.02c1.111 0 2.02.057 2.02.127s-.303.382-.673.693c-.37.312-.673.76-.673.996 0 .369-.169.429-1.198.429-.658 0-1.264-.068-1.346-.15zm-8.904-2.5-.786-.156v-1.76c0-2.639-.046-2.617 5.475-2.617 4.894 0 5.436-.131 5.386-1.303-.02-.47-.051-.504-.137-.156-.241.983-.372 1.01-4.926 1.01-5.825 0-6.134.158-6.134 3.128v1.586H37.946l.066-1.515.067-1.515 4.713-.057c4.487-.053 4.733-.079 5.107-.53.45-.543.512-1.712.132-2.545l-.26-.572h-9.805v-1.59l12.065.079 12.065.078 1.796.576 1.795.576-.018.982c-.036 1.955-.36 5.737-.513 5.984-.18.292-12.418.574-13.722.316zm-1.84-1.783c.041-.718-.024-1.179-.168-1.179-.13 0-.237.453-.237 1.01v1.01h-2.693v-1.01c0-.86-.067-1.01-.449-1.01s-.449.15-.449 1.01-.066 1.01-.449 1.01c-.382 0-.449-.15-.449-1.01s-.066-1.01-.449-1.01c-.382 0-.449.15-.449 1.01s-.066 1.01-.449 1.01c-.382 0-.448-.15-.448-1.01s-.067-1.01-.45-1.01c-.382 0-.448.15-.448 1.01v1.01h-1.46c-.84 0-1.458.097-1.458.229 0 .15 1.787.208 5.218.168l5.22-.06zm14.298.515c0-.376-.321-.484-2.47-.835-2.721-.444-3.703-.377-3.703.254 0 .718.543.89 3.044.966 3.237.098 3.129.111 3.129-.385zm-6.33.185c.077-.078.042-.327-.08-.554-.37-.694.635-1.18 2.042-.987l1.143.157-.071-.864-.071-.865-3.315-.062c-3.575-.067-4.336.096-4.13.887.114.432.1.434-.316.058-.358-.325-.533-.348-1-.135-.717.326-.906.813-.589 1.51.184.405.427.548.928.548.373 0 .678.1.678.224 0 .245 4.54.324 4.78.083zm-4.333-.35c0-.086.11-.223.242-.305.133-.082.209-.568.169-1.08l-.074-.93h3.364c3.025 0 3.372.04 3.44.393.065.339-.109.393-1.253.393-1.412 0-2.266.517-2 1.21.105.272-.226.343-1.88.402-1.105.04-2.008.002-2.008-.083zm-1.714-.745c-.078-.203.005-.517.185-.697.45-.45 1.123-.159 1.037.447-.086.597-1.016.787-1.222.25zm.817-.335c0-.123-.045-.224-.1-.224-.053 0-.16.1-.237.224-.076.124-.032.225.1.225.13 0 .237-.101.237-.225zm-13.019.45c0-.495-.1-.899-.224-.899s-.225.404-.225.898.101.898.225.898c.123 0 .224-.404.224-.898zm1.721.318c.075-.194-.03-.519-.231-.721-.34-.34-.395-.34-.735 0-.459.459-.248 1.075.368 1.075.254 0 .524-.159.598-.354zm-.823-.319c0-.123.101-.224.224-.224.124 0 .225.1.225.224a.225.225 0 0 1-.224.225.225.225 0 0 1-.225-.225zm8.23.32c.075-.195-.029-.52-.23-.722-.341-.34-.395-.34-.736 0-.459.459-.248 1.075.368 1.075.254 0 .524-.159.599-.354zm-1.047-.32c0-.123.151-.224.336-.224.186 0 .337.1.337.224s-.151.225-.337.225c-.185 0-.336-.101-.336-.225zm17.62-.187c0-.406-.44-.332-.527.089-.048.234.036.337.225.274.166-.056.302-.219.302-.363zm.337-2.619a.338.338 0 0 0-.337-.336.338.338 0 0 0-.337.336.338.338 0 0 0 .673 0zm-9.428-.673a.338.338 0 0 0-.336-.337.338.338 0 0 0-.337.337.338.338 0 0 0 .673 0zm4.592.128c.166-.269-.256-.535-.555-.35-.251.155-.086.559.228.559.109 0 .256-.094.327-.21zm-7.112-.282c-.139-.417-.622-.486-.622-.09 0 .196.16.356.355.356.196 0 .316-.12.267-.266zm1.185-.07c-.017-.334-.52-.272-.636.077-.063.189.04.273.274.225.206-.043.369-.179.362-.302zM44.7 7.896c0-.37-.354-.433-.56-.1-.184.297.084.717.351.552.115-.07.21-.274.21-.452zm5.211-.14c-.342-.343-.595-.09-.405.405.112.293.21.322.41.122.199-.2.198-.325-.004-.527zm10.95.14c0-.37-.354-.433-.56-.1-.184.297.085.717.351.552.115-.07.21-.274.21-.452zm-21.323.138c0-.303-.41-.513-.677-.347-.126.077-.17.235-.1.35.17.272.777.27.777-.003zm15.885-.055c-.139-.416-.622-.485-.622-.089 0 .196.16.356.355.356.196 0 .316-.12.267-.267zM3.325 15.728c-.24-.24-.173-3.177.074-3.33.143-.088.225.522.225 1.67 0 1.814-.022 1.937-.3 1.66zm.748-1.507c0-1.948.205-2.218 1.61-2.117l.971.07.065 1.851.066 1.852H4.073Zm1.975.265c.403-.403.327-.807-.206-1.092-.624-.334-1.212.192-.991.887.165.521.776.626 1.197.205zm-.92-.097c-.353-.354-.144-.786.348-.716.277.04.505.222.505.405 0 .357-.591.572-.853.31zm2.087-.195c0-1.646.013-1.684.561-1.684.55 0 .562.038.562 1.684s-.013 1.683-.562 1.683c-.548 0-.56-.037-.56-1.683zm1.572.027c0-1.948.205-2.218 1.61-2.117l.97.07.066 1.851.065 1.852H8.787zm2.199-.047c.037-.258-.077-.588-.252-.733-.648-.538-1.555.368-1.017 1.017.38.458 1.189.278 1.269-.284zm-1.194.125c-.087-.141-.053-.362.076-.491.302-.302 1.005-.039.883.33-.125.375-.76.482-.959.16zm2.137-.105c0-1.646.012-1.684.561-1.684s.561.038.561 1.684-.012 1.683-.56 1.683c-.55 0-.562-.037-.562-1.683zm1.73 1.543c-.27-.27-.179-3.117.11-3.406.149-.148.753-.27 1.343-.27 1.26 0 1.373.212 1.263 2.367l-.069 1.337-1.243.066c-.684.036-1.316-.006-1.403-.094zm2.016-1.35c.15-.39-.142-1.012-.537-1.144-.132-.044-.402.084-.601.283-.275.275-.306.467-.13.796.282.528 1.075.57 1.268.066zm-.898-.001c-.318-.318-.138-.753.31-.753.315 0 .443.122.394.374-.08.413-.464.62-.704.379zm1.912-.136c.06-1.493.107-1.633.57-1.7.486-.068.506-.005.506 1.628 0 1.67-.01 1.7-.571 1.7-.565 0-.57-.017-.505-1.628zm1.796-.213.066-1.863H21.02v3.591l-1.3.068-1.3.067zm1.95.41c.524-.632-.383-1.54-1.015-1.015-.324.269-.412.92-.159 1.173.254.254.905.166 1.174-.158zm-.945-.061c-.317-.318-.137-.753.312-.753.313 0 .441.122.392.374-.08.413-.463.62-.704.379zm2.09-.192c0-1.534.04-1.684.45-1.684.409 0 .449.15.449 1.684s-.04 1.683-.45 1.683c-.408 0-.448-.15-.448-1.683zm1.572.038c0-1.96.204-2.23 1.61-2.128l.971.07v3.591l-1.29.067-1.291.068zm1.975.254c.403-.403.327-.807-.205-1.092-.625-.334-1.213.192-.992.887.165.521.776.626 1.197.205zm-.92-.097c-.353-.354-.143-.786.348-.716.278.04.505.222.505.406 0 .356-.591.571-.853.31zm2.087-.195c0-1.646.013-1.684.562-1.684.548 0 .56.038.56 1.684s-.012 1.683-.56 1.683c-.55 0-.562-.037-.562-1.683zm8.995-2.225c-.454-.547-.067-.805 1.206-.805 1.074 0 1.205.053 1.295.524.094.49.025.527-1.06.571-.804.033-1.247-.056-1.44-.29zm3.049-.076c-.058-.093 1.956-.168 4.476-.168 2.519 0 4.58.075 4.58.168 0 .093-2.014.168-4.476.168s-4.523-.075-4.58-.168zm5.015-1.47v-1.28h.786c.782 0 .786.006.786 1.01 0 .905-.054 1.01-.517 1.01-.283 0-.637.122-.785.27-.21.21-.27-.015-.27-1.01zm2.02-.018V9.143l.73.004c1.053.005 1.335.263 1.251 1.142-.063.66-.162.773-.746.838-.37.042-.8.18-.954.308-.218.181-.28-.046-.28-1.03zm-41.15.609c-.083-.082-.15-.933-.15-1.89v-1.74l1.403-.139c.771-.076 1.706-.051 2.076.055.67.191.673.2.673 1.86 0 1.517-.04 1.667-.449 1.667-.401 0-.455-.172-.514-1.627-.09-2.212-.496-2.075-.496.168v1.796H5.57c-.658 0-1.264-.068-1.347-.15zM6.176 9.54c.189-.298.16-.474-.127-.76-.672-.672-1.675.207-1.069.937.35.42.869.344 1.196-.177Zm-1.134-.083c-.176-.459.377-.817.765-.495.219.181.228.317.036.548-.338.407-.632.388-.8-.053Zm3.838 1.404c-.064-.167-.086-.998-.05-1.848L8.9 7.47l1.122-.189c.617-.103 1.556-.124 2.085-.045l.964.143-.066 1.724c-.058 1.554-.11 1.725-.514 1.725-.401 0-.456-.172-.515-1.627-.09-2.212-.495-2.075-.495.168v1.796h-1.242c-.834 0-1.28-.1-1.357-.303zm2.01-1.32c.188-.3.159-.475-.127-.76-.672-.673-1.675.206-1.07.936.35.42.87.344 1.197-.177Zm-.982.056c-.3-.19-.3-.25 0-.55.414-.413 1.025-.11.825.41-.157.41-.346.443-.825.14Zm3.841 1.26c-.17-.205-.246-.897-.204-1.857l.066-1.531 1.123-.189c.617-.103 1.551-.125 2.076-.047l.954.142v1.752c0 1.674-.022 1.75-.505 1.725-.467-.023-.513-.152-.608-1.709L16.55 7.46l-.121 1.796-.122 1.795-1.142.067c-.793.046-1.226-.034-1.414-.26zm1.952-1.526c.052-.455-.051-.636-.432-.757-.667-.212-1.184.436-.848 1.063.346.647 1.193.444 1.28-.306Zm-1.004.134c-.187-.487.288-.946.628-.606.287.287.109.958-.255.958-.13 0-.299-.158-.373-.352zm3.9 1.559c-.088-.088-.16-.941-.16-1.897V7.39l1.118-.154c.615-.084 1.524-.085 2.02-.001l.903.152v1.728c0 1.568-.042 1.732-.45 1.762-.411.031-.448-.104-.448-1.635 0-2.212-.412-2.154-.496.07l-.065 1.74-1.131.066c-.622.036-1.203-.006-1.29-.094zm1.849-1.305c.201-.243.204-.44.012-.8-.286-.534-.846-.522-1.19.026-.52.824.551 1.528 1.178.774zm-1.035-.254c-.188-.487.287-.946.627-.606.288.287.11.958-.254.958-.131 0-.3-.158-.373-.352zm3.89 1.549c-.083-.082-.15-.928-.15-1.88v-1.73l.701-.14a8.32 8.32 0 0 1 1.347-.14h.646v4.04h-1.198c-.658 0-1.264-.068-1.346-.15zm1.955-1.474c.188-.298.159-.474-.127-.76-.673-.672-1.676.207-1.07.937.35.42.869.344 1.197-.177zm-.927.116c-.38-.137-.355-.66.04-.812.458-.175.893.397.524.688-.155.124-.41.18-.564.124zm3.685 1.358c-.082-.082-.15-.89-.15-1.796 0-2.13-.408-2.146-.495-.018-.059 1.455-.113 1.627-.514 1.627-.404 0-.456-.171-.514-1.71l-.065-1.71.71-.142c.39-.078 1.354-.142 2.141-.142h1.431v4.04h-1.197c-.658 0-1.264-.067-1.347-.15zM29.97 9.54c.188-.299.16-.474-.127-.76-.672-.672-1.675.207-1.07.937.35.42.87.344 1.197-.177Zm-.957-.03c-.194-.234-.172-.376.094-.597.429-.356.908.02.703.552-.166.433-.461.45-.797.045zm3.836 1.384c-.331-.33-.364-3.237-.04-3.438.127-.078.784-.199 1.46-.269l1.228-.127v1.697c0 .933-.06 1.856-.136 2.052-.166.433-2.099.499-2.512.085zm1.932-1.563c.053-.455-.05-.636-.432-.757-.667-.212-1.184.436-.848 1.063.346.647 1.193.444 1.28-.306zm-1.004.134c-.187-.487.288-.946.628-.606.287.287.11.958-.254.958-.132 0-.3-.158-.374-.352zm4.19.958c0-1.144.29-1.28 2.738-1.28h2.2v2.02h-4.939ZM3.174 9.256c0-.973.095-1.684.224-1.684.13 0 .225.711.225 1.684 0 .972-.095 1.683-.225 1.683s-.224-.71-.224-1.683Zm27.96 1.511c-.07-.07-.127-.868-.127-1.773 0-1.614.011-1.646.57-1.646.568 0 .57.01.506 1.719-.054 1.408-.134 1.728-.443 1.773-.208.03-.435-.002-.505-.073zm4.587-1.624v-1.57h1.796V10.714h-1.796ZM4.789 6.506c.07-.361.547-.396 5.908-.427 3.209-.018 5.978.047 6.155.145.178.098.498.068.713-.066.284-.177.547-.173.96.015.357.163.62.179.704.044.176-.285 2.49-.278 3.026.009.281.15.467.15.56 0 .183-.296 2.49-.29 3.045.007.349.187.434.159.434-.14 0-.336.24-.357 2.3-.211 1.266.09 2.489.263 2.718.386.285.152.496.145.663-.022.323-.323 2.299-.315 2.91.012.359.192.5.192.564 0 .114-.343 1.006-.328 1.378.024.238.224.318.224.4 0 .133-.362 2.309-.375 3.092-.018.442.202.64.202.84 0 .343-.342 2.476-.341 2.818.002.204.203.39.198.8-.022.437-.233.628-.23 1.044.016.401.238.53.243.61.022C46.51 6.067 47.897 6 52.328 6c5.075 0 5.81.044 5.93.355.074.195.135.397.135.449 0 .052-12.077.094-26.84.094-25.44 0-26.835-.02-26.763-.393zm43.74-1.645c.27-.38.706-.778.969-.884.721-.293 6.76-.931 7.367-.779.45.113 1.752 1.755 1.752 2.21 0 .079-2.38.144-5.29.144h-5.29Zm1.895-.091c0-.496-.698-.742-1.064-.376-.377.377-.005.973.558.893.331-.047.506-.226.506-.517zm-.867.177c-.252-.252-.153-.517.194-.517.185 0 .336.095.336.211 0 .283-.35.486-.53.306zm7.444-.881c.084-.59-.584-.9-1.014-.47a.702.702 0 0 0-.156.694c.21.546 1.084.379 1.17-.224Zm-.853-.085c0-.124.151-.225.336-.225.186 0 .337.101.337.225 0 .123-.151.224-.337.224-.185 0-.336-.1-.336-.224z" style="fill:#000;fill-opacity:1;stroke-width:.224461"/></svg>