<svg xmlns="http://www.w3.org/2000/svg" width="277.882" height="128" viewBox="0 0 73.523 33.867"><path d="M22.024 30.539c-.052-.085.011-.316.141-.514.186-.284.362-.36.829-.36.357 0 .556-.058.501-.147-.129-.208-1.503-.186-1.574.026-.032.099-.137.123-.243.058-.264-.163.33-.557.756-.502.18.024.345-.02.367-.1.057-.207-1.125-.264-1.364-.065-.112.092-.28.121-.372.064-.255-.158.137-.356.706-.36.262 0 .477-.075.477-.166 0-.11-.291-.143-.884-.1-.585.042-.866.011-.832-.092.028-.086.328-.177.667-.202.338-.025.577-.108.53-.183-.123-.2-1.535-.176-1.535.026 0 .115-.056.119-.183.013-.101-.083-.382-.174-.623-.201-.359-.04-.454-.131-.515-.49-.067-.393-.147-.45-.734-.54a11.732 11.732 0 0 0-1.267-.11c-.397-.007-.637-.087-.692-.23-.068-.176-.383-.22-1.547-.22-1.333 0-1.47.025-1.555.293-.059.186-.222.293-.446.293-.435 0-.738.447-.873 1.283-.162 1.01-.368.879-.368-.236 0-.888.05-1.084.38-1.475l.38-.452h7.556l2.444 1.999c2.132 1.743 2.444 2.052 2.444 2.42v.423h-1.238c-.702 0-1.28-.067-1.333-.153zm2.837-.34c-.041-.443-.303-.702-2.606-2.571l-2.56-2.079-3.749.013c-3.292.01-3.785.042-4.048.26-.586.485-.728.819-.82 1.92-.066.778-.083.505-.057-.9.025-1.35.099-2.089.222-2.237.273-.329.893-.284.986.071.071.273.2.294 1.815.294 1.588 0 1.752-.026 1.895-.294.139-.258.29-.29 1.29-.264l1.131.03-1.064.05c-.76.036-1.063.106-1.063.245 0 .143.3.2 1.137.214 1.167.02 1.622-.11 1.434-.414-.08-.13.474-.173 2.219-.175 1.279 0 2.573-.003 2.875-.005l.55-.003V12.353h.734V26.07h-1.638c-1.008 0-1.658.058-1.69.152-.028.085.707.745 1.634 1.468l1.684 1.313.005.844c.006.901-.24 1.174-.316.351zm.615-9.19c0-9.319.01-9.684.27-9.684.15 0 .338.149.42.33.11.247.155-.154.174-1.575.015-1.048.074-1.953.133-2.011.058-.058 1.673-.125 3.59-.149 2.227-.027 3.47-.095 3.446-.19-.024-.092-1.32-.146-3.517-.146-4.168 0-3.953-.092-4.013 1.714-.022.671-.046 1.336-.052 1.477-.007.15-.127.257-.289.257-.29 0-.456.27-.456.745 0 .203-.103.282-.367.282-.341 0-.366-.05-.366-.726 0-.496-.07-.766-.223-.851-.122-.068-.336-.579-.476-1.134-.14-.555-.337-1.036-.437-1.068-.13-.043-.157.068-.092.392.108.542-.135.893-.62.893-.5 0-.732-.508-.437-.959.127-.193.23-.387.23-.43 0-.043-2.145-.078-4.768-.078-2.622 0-4.768-.043-4.768-.095 0-.052.182-.382.404-.733l.403-.639h10.307c5.669 0 10.356-.003 10.417-.005.232-.01.205.8-.033.973-.275.202-.076.399.268.266.139-.053.243-.312.27-.672l.045-.587 2.127-.024c1.246-.015 2.158-.086 2.2-.172.069-.136-7.489-.214-21.254-.218-3.814-.002-4.288-.027-4.127-.222.213-.256 2.348-.323 2.348-.073 0 .19.542.19.66 0 .118-.191.807-.191.807 0 0 .08.132.147.293.147.162 0 .294-.066.294-.147 0-.216 2.102-.186 2.321.033.142.142.24.142.468 0 .347-.217.878-.237.878-.033 0 .08.129.147.285.147.157 0 .326-.066.376-.147.129-.209 1.927-.182 2.272.033.227.142.326.142.468 0 .215-.216.854-.24.854-.033 0 .19.542.19.66 0 .132-.212 2.031-.185 2.249.033.142.142.24.142.467 0 .368-.23.77-.23 1 0 .142.142.24.142.467 0 .345-.215 2.144-.242 2.273-.033.124.201.66.186.66-.02 0-.107.18-.136.51-.082.346.056.5.027.477-.088-.018-.093.123-.194.314-.223.222-.033.405-.205.507-.474l.16-.422 1.253.053c.69.029 1.296.06 1.348.067.051.008.138.252.192.54.072.384.221.592.553.77.993.536 1.273.917 1.312 1.786l.036.807-3.09.04-3.092.04-.614 1.32-.614 1.322.305.429.306.429 3.406.044c3.14.04 3.437.067 3.798.337.574.432.882 1.02.769 1.47-.06.24.003.602.17.971.174.387.213.623.113.688-.084.055-.23.248-.326.43-.267.506-.457.393-.457-.271 0-.478-.06-.617-.294-.678-.199-.052-.294-.2-.295-.463-.005-.918-.12-1.046-.94-1.046-.887 0-1.112.17-1.112.84v.489l-.433-.32c-.411-.304-.45-.308-.806-.074-.206.135-.375.323-.375.418 0 .437-.278-.165-.32-.693l-.047-.587-.782-.045c-.941-.054-1.198.123-1.198.825 0 .47-.02.497-.195.257-.243-.332-.97-.349-1.204-.028-.267.365-.341.292-.39-.385l-.045-.624-.803-.045c-.911-.052-1.178.154-1.178.908 0 .402-.017.417-.195.174-.276-.377-.966-.342-1.273.065-.287.38-.396.273-.41-.403-.014-.676-.115-.772-.815-.772-.758 0-.973.192-.98.873-.003.437-.033.484-.183.291-.29-.372-.656-.437-.942-.167-.244.23-.26.501-.19 3.476.07 3.081.086 3.228.367 3.277.16.027.378.16.483.295.145.188.495.256 1.513.296 1.244.048 1.33.033 1.405-.257.101-.387.406-.393.887-.015.31.244.595.293 1.687.293 1.191 0 1.322-.027 1.391-.293.095-.362.42-.381.612-.037.118.213.4.266 1.63.308 1.41.048 1.493.034 1.569-.257.1-.384.266-.387.74-.014.305.24.595.293 1.588.293 1.44 0 1.673-.066 1.573-.45-.063-.241.004-.283.456-.283.461 0 .53.046.53.349 0 .388-.302.71-.607.646-.14-.03-.212.162-.244.655-.034.528.006.697.166.697.115 0 .294.102.397.226.103.124 1.448 1.19 2.989 2.371 1.54 1.18 2.852 2.218 2.913 2.306.062.087.095.423.074.746l-.039.587-1.564.041c-1.45.039-1.56.022-1.496-.224.05-.19-.253-.553-1.076-1.284-.63-.56-1.912-1.73-2.848-2.6l-1.703-1.582h-2.937c-2.452 0-2.969-.037-3.123-.223-.258-.31-5.353-.259-5.353.054 0 .159.444.194 2.215.177l2.214-.02.53.646.53.646-.895.094a20.27 20.27 0 0 1-1.738.093h-.843l-2.033 2.493c-1.119 1.37-2.116 2.493-2.217 2.494-.145.001-.183-2.032-.183-9.682zM33.22 9.675l-.042-1.504H28.63l-.043 1.309c-.023.72-.009 1.396.032 1.504.058.15.595.195 2.359.195h2.284zm-4.37.999c0-.145.2-.226.624-.257l.623-.045.074-.734.073-.733 1.357-.043 1.357-.042v2.065h-2.054c-1.691 0-2.054-.037-2.054-.211zm0-1.314c0-.72.054-.958.232-1.027.128-.049 1.052-.089 2.054-.089 1.563 0 1.822.033 1.822.232 0 .198-.201.226-1.363.193-.75-.022-1.443.01-1.54.07-.098.06-.178.396-.178.745 0 .655-.146.814-.745.814-.249 0-.282-.11-.282-.938zm-5.985-.704c-.24-.24-.545.064-.411.411.092.24.114.24.343.011.192-.191.206-.283.068-.422zm13.973-.591c.125-.18.228-.377.228-.44 0-.195-.575-.701-.796-.701-.539 0-.884.902-.495 1.291.28.28.814.205 1.063-.15zm-.893-.187c-.116-.303.042-.66.292-.66.3 0 .555.364.45.641-.116.3-.629.313-.742.019zm3.146.337c.267-.267.21-.774-.118-1.072-.606-.548-1.493.358-.944.965.29.32.798.37 1.062.107zm-.945-.339c-.052-.134.008-.342.136-.47.311-.312.725-.133.665.288-.058.407-.662.545-.801.182zm10.099 21.312c.038-.535.096-.63.405-.674.36-.051 2.638-.815 9.452-3.17l3.651-1.261 2.511.04 2.512.04v.685l-2.481-.002c-2.411-.001-2.512.011-3.583.436-.606.241-3.022 1.165-5.368 2.053-2.347.889-4.68 1.81-5.184 2.046-.505.237-1.152.43-1.439.43H48.2l.045-.623zm-7.951.168c0-.11.382-.145 1.174-.11.873.04 1.173.007 1.173-.13 0-.102-.094-.185-.21-.185-.116 0-.252-.132-.303-.293-.051-.162-.18-.294-.286-.294-.107 0-.228-.132-.27-.293-.07-.27-.2-.294-1.558-.294-1 0-1.48-.053-1.48-.165 0-.114.378-.145 1.231-.1.978.051 1.217.025 1.158-.128-.054-.14-.447-.193-1.443-.193-.844 0-1.408-.063-1.47-.163-.071-.116.265-.147 1.165-.11.696.029 1.266.016 1.266-.028 0-.302-.424-.396-1.46-.325-.706.048-1.244.016-1.416-.084-.22-.128-.042-.163.858-.166.657-.003 1.137-.067 1.137-.151 0-.087-.532-.147-1.302-.147-.979 0-1.348-.055-1.485-.22-.12-.144-.447-.22-.946-.22-.637 0-.883-.085-1.486-.514l-.722-.513h5.484l.788.697c1.845 1.631 4.658 4.191 4.658 4.24 0 .028-.958.051-2.128.051-1.456 0-2.127-.051-2.127-.162zm11.297-.121c.12-.07 2.514-.993 5.319-2.05l5.098-1.922h2.115c1.164 0 2.22.04 2.347.09.298.114.315 1.126.023 1.369-.115.095-1.645.667-3.4 1.27-3.147 1.08-3.215 1.095-4.962 1.162-4.576.173-6.745.2-6.54.081zm-11.81-.45c-.058-.093.288-.147.936-.147.565 0 1.067.066 1.117.146.057.093-.289.147-.936.147-.565 0-1.068-.066-1.118-.147zm-.037-.548a6.388 6.388 0 0 1 1.1 0c.303.032.055.058-.55.058-.605 0-.853-.026-.55-.058zm5.905-1.815c-1.372-1.055-2.643-2.055-2.824-2.224-.325-.301-.33-.365-.33-3.811v-3.505l1.157.03c.953.026 1.233-.02 1.578-.262.23-.162.6-.337.822-.391.222-.054.41-.179.416-.278.044-.654.112-.883.294-.999.114-.072 2.997-.132 6.406-.133l6.199-.003v2.172c0 1.493.055 2.226.176 2.347.127.128 1.161.176 3.73.176h3.555l.308.392c.284.36.305.548.267 2.372-.029 1.424-.092 1.998-.224 2.041-.1.034-.183-.036-.183-.155 0-.348-.333-.395-2.796-.395h-2.332L57.793 25.2a1420.5 1420.5 0 0 0-6.555 2.274c-1.364.48-2.618.87-2.787.869-.17-.001-1.43-.865-2.802-1.92zm6.314-.352c1.597-.524 3.08-.953 3.297-.953.744 0 .866-.334.911-2.484l.041-1.957 1.1-.384 1.101-.384.042-1.372c.028-.885-.018-1.444-.128-1.577-.262-.316-5.22-.296-5.676.023-.408.285-.422.85-.033 1.239.161.161.293.326.293.367 0 .04-.586.073-1.302.073-.979 0-1.348.055-1.485.22-.12.143-.471.226-1.009.238-.84.017-1.977.225-1.412.258.27.016.29.103.246 1.103l-.048 1.086.66.455c.364.25.754.455.866.455.112 0 .558-.264.99-.587.433-.323.84-.587.907-.587.263 0 .094-.381-.39-.877-.281-.288-.553-.736-.605-.997l-.095-.473h1.595l1.596-.001 1.134.77 1.134.771.025 1.87c.014 1.03.031 1.954.04 2.055.008.103-.191.203-.457.229-.412.04-.497-.016-.676-.44-.112-.268-.792-1.021-1.51-1.675l-1.304-1.19-1.172.786c-.645.432-1.253.786-1.35.786-.231 0-1.7-.862-1.84-1.08-.06-.092-.11-.68-.11-1.309-.002-.863-.055-1.161-.217-1.224-.332-.127-1.172.207-1.562.621-.333.355-.353.486-.393 2.527-.023 1.184.01 2.225.073 2.313.316.443 3.075 2.26 3.43 2.26.215 0 1.697-.43 3.293-.954zm-2.069-5.133c-.056-.302-.299-.773-.539-1.046l-.435-.496h.508c.504 0 .51.008.697.888.135.634.144.933.03 1.046-.112.113-.187.001-.26-.392zm-.533-2.914.045-.682H45.851l.046.544c.042.508.087.554.676.697.346.084 1.106.146 1.687.138l1.057-.015zm-3.015.247c-.101-.04-.184-.2-.184-.355 0-.258.12-.28 1.468-.28.88 0 1.467.058 1.467.146 0 .08-.256.147-.57.147-.326 0-.646.093-.75.22-.176.21-1.031.284-1.431.122zm-31.987 8.754a.699.699 0 0 0-.548-.294c-.201 0-.366-.066-.366-.146 0-.087.522-.147 1.272-.147.699 0 1.227.044 1.173.098-.054.054-.246.114-.428.134-.181.02-.375.042-.43.05-.055.006-.142.143-.193.305-.051.161-.139.293-.195.293-.056 0-.184-.132-.285-.293zm53.563-1.504c-.066-.1-.152-1.421-.193-2.935-.069-2.593-.057-2.75.195-2.75.148 0 .461-.193.697-.43l.429-.428v-2.701c0-1.486.033-2.735.074-2.776.041-.04.322-.034.624.015l.549.089.042 1.75c.031 1.34-.014 1.886-.195 2.338-.173.432-.275 1.491-.384 3.97-.17 3.865-.22 4.041-1.145 4.041-.316 0-.628-.082-.693-.183zm-34.575-.634c-.574-.72-.427-.765.171-.052.266.317.43.576.365.576s-.306-.236-.536-.524zm-19.352-.178c-.787-.023-1.43-.1-1.43-.17 0-.108 2.921-.042 3.054.07.13.11-.328.138-1.624.1zM22.417 24c-.582-.408-.265-1.16.446-1.06.26.037.349.156.384.515.058.605-.355.877-.83.545zm.56-.272c.221-.267.077-.52-.298-.52-.178 0-.284.1-.284.27 0 .48.288.604.581.25zm-8.757.106c.385-.03.98-.03 1.32 0 .34.031.025.056-.701.056s-1.005-.026-.62-.056zm4.91.004a2.09 2.09 0 0 1 .66 0c.182.035.033.064-.33.064s-.511-.029-.33-.064zm1.687.003c.142-.037.373-.037.514 0 .141.037.026.067-.257.067-.282 0-.398-.03-.257-.067zm-17.349-.347c0-.353.5-.432 2.715-.432 1.505 0 2.42-.058 2.521-.16.115-.115.187-.115.258 0 .068.11 1.59.16 4.864.16 5.292 0 5.488-.033 5.488-.898 0-.35.06-.423.357-.423.655 0 1.118.277 1.337.801.432 1.034 1.155.951-8.663.994-4.882.021-8.877.003-8.877-.042zm17.843-.726c-.143-.894-.53-1.198-1.455-1.144-.726.042-.765.065-.812.483-.028.242-.127.489-.22.548-.094.06-2.32.11-4.946.11-3.626.003-4.82-.041-4.962-.18-.149-.147-.223-.133-.375.073-.168.226-.475.257-2.602.257-1.68 0-2.465.053-2.588.176-.216.216-.228.05-.024-.333.14-.262.33-.283 2.562-.283h2.41l.618-.917c.34-.505.689-.966.776-1.025.087-.06 2.435-.107 5.22-.107 4.676.001 5.108.023 5.681.283.359.162.746.487.917.767.34.557.39 1.472.096 1.716-.163.136-.22.055-.296-.424zm1.414-.106c-.363-.045-.477-.13-.477-.36 0-.229.06-.273.257-.19.14.061.438.142.66.18.387.066.598.501.22.453l-.66-.083zm-.088-.896c-.344-.38-.3-.86.104-1.125.546-.358 1.114-.047 1.119.613.004.688-.77 1.012-1.223.512zm.904-.502a.318.318 0 0 0-.184-.347c-.302-.116-.675.196-.568.476.112.293.69.193.752-.13zm4.51.36c-.24-.03-.51-.158-.602-.285-.093-.126-.241-.184-.33-.13-.291.18-.91-.068-.91-.364 0-.153.1-.278.22-.278.121 0 .22-.066.22-.146 0-.081-.099-.147-.22-.147-.185 0-.22-.334-.22-2.127 0-1.794.035-2.128.22-2.128a.22.22 0 0 0 .22-.22c0-.12-.092-.22-.204-.22-.23 0-.428-.395-.301-.6.144-.233.523-.145.788.183.359.443.598.225.598-.545v-.652h.66c.558 0 .66.045.66.288 0 .159-.134.36-.297.448-.164.088-.256.228-.204.311.06.098.145.102.236.01.091-.09.268-.024.497.188.351.326.355.36.355 3.063 0 1.648-.056 2.735-.14 2.735-.078 0-.293.15-.478.335-.237.236-.463.319-.769.28zm-1.035-3.55c0-.783-.063-1.391-.147-1.419-.09-.03-.146.506-.146 1.419s.055 1.448.146 1.418c.084-.028.147-.636.147-1.419zm1.658 1.29c.103-.103.176-.599.176-1.198 0-1.262-.18-1.186-.203.086l-.017.922-.477.046c-.262.025-.477.107-.477.183 0 .2.79.169.998-.039zm.03-3.345c0-.323-.067-.587-.147-.587-.081 0-.147.264-.147.587 0 .323.066.587.147.587.08 0 .146-.264.146-.587zm-.734-1.027a.147.147 0 0 0-.147-.147.147.147 0 0 0-.147.147.147.147 0 0 0 .293 0zm3.888 6.645c-.242-.034-.518-.162-.613-.285a.413.413 0 0 0-.457-.134c-.345.11-1.058-.139-1.058-.367 0-.09.132-.199.294-.241.161-.042.293-.135.293-.206 0-.072-.132-.13-.293-.13-.28 0-.294-.098-.294-2.127 0-2.03.014-2.128.294-2.128.161 0 .293-.091.293-.203 0-.111-.132-.237-.293-.28a.39.39 0 0 1-.294-.383c0-.41.577-.414.925-.008.357.417.543.237.543-.528v-.652h.806c.444 0 .807.057.807.127s-.14.304-.31.521c-.17.217-.26.44-.2.497.06.056.141.015.18-.092.05-.143.161-.107.42.136.345.324.35.37.35 3.042v2.712l-.466.417c-.257.229-.471.406-.477.394-.005-.012-.208-.05-.45-.082zm-1.042-3.313c.102-1.262.034-1.718-.258-1.718-.116 0-.16.44-.14 1.43.033 1.785.022 1.683.172 1.59.07-.043.171-.629.226-1.302zm1.791.96c.228-.3.273-1.885.058-2.018-.093-.057-.147.292-.147.945v1.036h-.514c-.282 0-.513.066-.513.147 0 .253.909.163 1.116-.11zm-.078-2.865a9.627 9.627 0 0 1-.011-.547c0-.242-.066-.44-.147-.44-.08 0-.146.27-.146.6 0 .361.062.578.157.546.087-.029.153-.1.147-.159zm-.745-1.427a.147.147 0 0 0-.146-.147.147.147 0 0 0-.147.147.147.147 0 0 0 .293 0zm7.778 6.627c-.282-.027-.56-.126-.62-.22-.058-.094-.257-.177-.44-.183-.892-.03-.996-.067-.996-.345 0-.177.124-.308.33-.348l.33-.065-.33-.11c-.322-.106-.33-.16-.33-2.219 0-2.012.014-2.11.294-2.11.163 0 .293-.098.293-.22 0-.12-.124-.22-.276-.22-.264 0-.516-.48-.344-.652.17-.169.539-.071.857.227.441.415.643.247.643-.537v-.652h.734c.62 0 .734.043.734.276 0 .151-.149.375-.33.497-.182.122-.28.274-.218.338.062.064.182.047.268-.04.11-.11.26-.058.511.174.352.326.355.355.345 3.027l-.01 2.697-.467.367c-.341.269-.604.354-.978.318zm-1.06-3.68c-.023-.68-.109-1.258-.19-1.285-.094-.03-.129.374-.095 1.108.03.646-.017 1.285-.104 1.448-.205.382-.01.57.238.23.132-.18.18-.652.15-1.5zm1.762 1.425c.104-.103.177-.599.177-1.198 0-.562-.05-.972-.11-.91-.061.06-.11.517-.11 1.014v.904l-.554.045c-.304.025-.515.108-.468.184.122.196.857.17 1.065-.039zm.03-3.345c0-.323-.066-.587-.147-.587-.08 0-.147.264-.147.587 0 .323.066.587.147.587.08 0 .147-.264.147-.587zm-.762-1.038c-.029-.087-.115-.158-.192-.158-.076 0-.163.071-.192.158-.029.087.058.158.192.158.135 0 .221-.071.192-.158zm-4.471 6.382c-.058-.15-.198-.203-.403-.152-.49.123-.966-.058-.966-.367 0-.152.099-.277.22-.277.12 0 .22-.066.22-.146 0-.081-.1-.147-.22-.147-.186 0-.22-.334-.22-2.127 0-1.794.034-2.128.22-2.128a.22.22 0 0 0 .22-.22c0-.12-.092-.22-.205-.22-.192 0-.382-.298-.382-.599 0-.254.668-.135.925.165.357.417.542.237.542-.528v-.652h.807c.444 0 .807.057.807.127s-.14.304-.31.521c-.17.217-.266.439-.212.493.054.054.157.003.229-.114.111-.18.144-.176.222.027.05.13.219.271.375.312.267.07.282.228.277 2.839l-.007 2.764-.517.33c-.609.388-1.49.442-1.622.1zm-.484-3.081c.087-1.295.04-1.676-.206-1.676-.112 0-.166.472-.166 1.468 0 1.767.257 1.91.372.208zm1.743 1.054c.225-.272.377-1.615.22-1.95-.088-.187-.148.041-.203.76l-.078 1.028-.477.046c-.262.025-.476.107-.476.183 0 .215.824.16 1.014-.067zm.013-3.317c0-.323-.067-.587-.147-.587-.08 0-.147.264-.147.587 0 .323.066.587.147.587.08 0 .147-.264.147-.587zm-.734-1.002c0-.191-.174-.318-.316-.23-.152.093-.021.352.178.352.076 0 .138-.055.138-.122zm5.722 3.954c0-2.013.142-2.636.429-1.88.074.195.241.396.371.446.202.077.23.335.195 1.744l-.042 1.653-.476.046-.477.046zm-19.868 1.132c-.034-.108-.101-.638-.15-1.18-.08-.876-.058-1 .198-1.136.158-.085.327-.154.376-.154.183 0 .008 2.543-.18 2.605-.1.033-.21-.028-.244-.135zm1.387-.336c-.237-.286-.07-.52.37-.52.402 0 .462.21.149.524-.261.26-.3.26-.519-.004zm.984-.337c-.118-.269-.178-1.357-.18-3.264-.002-2.433.035-2.927.249-3.301.241-.424.25-.306.256 3.264.004 2.038-.028 3.705-.07 3.705-.043 0-.157-.182-.255-.404zm-1.558-3.19c0-2.747.037-3.441.167-3.155.23.506.233 5.814.004 6.309-.135.29-.17-.37-.17-3.155zM9.484 18.491v-1.05l1.577.1 3.815.238c1.231.076 2.366.206 2.521.29.156.083.42.15.587.15.26 0 .303.092.303.661v.66H9.484Zm57.805.903c-.201-.065-1.967-.124-3.924-.132-3.095-.013-3.558-.044-3.558-.24 0-.197.439-.223 3.464-.207 1.957.01 3.522-.04 3.6-.117.074-.075.116-.89.093-1.81l-.041-1.676-3.632-.039c-2.253-.024-3.63-.094-3.63-.183 0-.092 1.642-.144 4.474-.144h4.475v2.043c0 2.033-.002 2.045-.387 2.347-.42.331-.402.328-.934.158zm-48.562-.807c0-.35.04-.367.868-.367.478 0 .973-.04 1.1-.09.181-.069.232.012.232.368v.456h-1.1c-1.076 0-1.1-.009-1.1-.367zm4.108.146c0-.122.13-.22.293-.22.163 0 .294.098.294.22 0 .123-.13.22-.294.22-.163 0-.293-.097-.293-.22zm36.825-1.532c0-1.28.035-1.483.274-1.612.151-.08.31-.11.354-.067.076.077 2.223.116 2.527.047.08-.019.99-.04 2.02-.049l1.876-.014-.041 1.54-.04 1.54-3.485.04-3.485.04zm4.659.909c.044-.134-.198-.183-.905-.183-.898 0-1.12.09-.862.348.177.177 1.701.034 1.767-.165zm-46.797-.339c-.138-.08-1.822-.248-3.741-.373-4.882-.317-4.444-.202-4.444-1.17 0-.512.067-.828.183-.868.101-.035 1.933-.2 4.072-.369 2.138-.168 4.482-.362 5.208-.43 1.234-.118 1.38-.102 2.238.248l.916.374v2.026l-.81.359c-.663.293-1.047.358-2.091.354-.704-.002-1.393-.07-1.531-.15zm2.793-.774c.027-.141-.046-.244-.175-.244-.273 0-.437.239-.308.448.133.214.426.091.483-.204zm.026-1.483c0-.116-.053-.244-.117-.283-.188-.116-.518.153-.407.332.146.235.524.2.524-.049zm2.567 1.239c.05-.08.153-.147.229-.147.076 0 .138.066.138.147 0 .08-.103.147-.229.147s-.188-.067-.138-.147zm19-.422c0-.071.094-.207.208-.302.171-.142.195-.12.13.129-.077.294-.338.428-.338.173zm.917.023c.222-.033.585-.033.807 0 .221.034.04.061-.404.061s-.625-.027-.403-.06zm1.569-.057c.658-.262.778-.434.512-.728-.3-.331-.151-.87.24-.87.24 0 .283.106.283.71 0 .618-.048.732-.374.88-.205.094-.519.166-.697.161-.31-.009-.31-.015.036-.153zm-21.486-.131c-.05-.08.012-.147.138-.147s.229.066.229.147c0 .08-.062.147-.138.147-.076 0-.179-.066-.229-.147zm19.81-.153c.053-.084.026-.237-.06-.34-.084-.102-.14-.666-.122-1.253.034-1.154.087-1.057-1.043-1.92l-.392-.3.912.037c.572.023.98-.031 1.093-.145.1-.1.4-.18.668-.18.396 0 .64.152 1.3.812.648.648.804.894.767 1.21-.036.32-.131.408-.486.448-.67.075-.848.295-.761.943.067.5.034.58-.288.703-.504.191-1.708.18-1.587-.015zm1.336-.413c-.226-.25-.227-.289-.011-.467.18-.15.224-.409.187-1.122-.048-.927.065-1.121.436-.75a.714.714 0 0 1 .176.44c0 .145.066.264.147.264.08 0 .146-.163.146-.363 0-.253-.13-.43-.432-.587-.785-.405-.857-.333-.777.78.062.863.035 1.02-.185 1.104a.508.508 0 0 1-.458-.069c-.151-.125-.202-.125-.202.002 0 .093.104.21.232.258.127.049.29.245.363.436.072.19.243.347.378.347.23 0 .23-.018 0-.273zm1.668-.15c0-.457.08-.781.22-.898.327-.271.282-1.202-.073-1.506a.786.786 0 0 1-.025-1.185c.364-.33.395-.318.761.274.577.933.616.95 2.282.95h1.53v.498c0 .627.128.676 1.782.676.725 0 1.453.072 1.618.16.217.116.344.116.46 0 .21-.21 5.621-.222 5.75-.014.095.154-2.523.196-9.415.148-3.562-.024-3.703-.014-3.998.28-.167.169-.305.458-.305.643 0 .334-.242.69-.47.69-.064 0-.117-.322-.117-.716zm-22.74.064c0-.125.066-.228.146-.228.08 0 .147.062.147.138 0 .076-.066.179-.147.228-.08.05-.147-.012-.147-.138zM9.483 13.98v-1.04h8.803v.58c0 .549-.032.59-.55.726-1.039.272-1.29.3-4.072.45-1.533.084-3.101.19-3.484.238l-.697.087zm13.497.867a.147.147 0 0 1 .293 0c0 .08-.065.146-.146.146a.147.147 0 0 1-.147-.146zm-1.429-.19c-.31-.14-.324-.209-.238-1.19.05-.573.149-1.104.22-1.18.283-.31.432.202.39 1.341-.042 1.158-.048 1.174-.372 1.028zm38.952-.201c.1-.04.266-.04.367 0 .1.04.018.074-.184.074-.202 0-.284-.033-.183-.074zm.77-.05c.301-.194 7.336-.194 7.336 0 0 .094-1.356.146-3.778.145-2.494-.002-3.703-.05-3.558-.145zm-41.682-.255c-.944-.05-.967-.06-.899-.417.068-.355.103-.365 1.116-.324 1.019.042 1.046.053 1.092.446.03.27-.018.394-.147.375-.106-.016-.63-.052-1.162-.08zm34.147-.111a.37.37 0 0 0-.321-.22c-.19 0-.216-.094-.134-.477.144-.672.162-.688.755-.654.338.02.548.11.575.25.024.121.087.369.141.55.074.249.038.33-.144.33a.375.375 0 0 0-.326.22c-.047.122-.17.22-.273.22-.104 0-.227-.098-.273-.22zm.427-.527c.054-.087.023-.235-.07-.329-.129-.128-.202-.117-.3.043-.14.226-.07.446.142.446.071 0 .174-.072.228-.16zm5.917.613-.045-.233a2.658 2.658 0 0 0-.156-.431c-.085-.19-.07-.305.048-.344.097-.032.269-.151.383-.265.267-.268.377-.256.784.083.285.238.318.353.212.76-.11.427-.183.48-.666.498-.299.01-.55-.02-.56-.068zm.799-.55c.132-.132-.197-.506-.358-.406-.202.125-.153.503.065.503.108 0 .24-.044.293-.097zm-38.1.17c.046-.12.21-.22.362-.22.153 0 .278.1.278.22 0 .136-.138.22-.363.22-.261 0-.338-.06-.277-.22zm27.9-.477-.045-.55L49 12.678l-1.638-.042-.467-.727-.467-.727.28-.479.28-.478 2.485.042c4.885.083 10.795.606 15.837 1.402l1.173.185v.548c0 .634.219.824.954.83.735.006 1.174.15 1.174.385 0 .167-.62.202-3.518.202h-3.517l.087-.437c.074-.371.032-.458-.283-.577-.203-.078-.413-.211-.466-.297-.155-.251-.412-.176-.96.28-.457.382-.493.462-.328.73.183.3.167.301-2.128.3h-2.312l-.183-.396c-.1-.217-.183-.513-.183-.659 0-.145-.05-.27-.11-.278-1.17-.145-1.728-.008-1.632.402.016.07-.022.307-.084.53-.11.392-.141.403-1.19.403h-1.075zm-27.994-.248c0-.116.07-.255.157-.308.086-.053.123-.184.082-.29-.04-.106.021-.23.137-.274.147-.057.21.026.21.273 0 .194.068.395.15.445.238.148.013.366-.378.366-.214 0-.358-.085-.358-.212zm-.34-.58c-.084-.217.011-.382.218-.382.067 0 .122.132.122.293 0 .337-.223.394-.34.088zm1.22-.153c0-.207.066-.376.147-.376.08 0 .147.128.147.285 0 .157-.066.326-.147.375-.083.052-.147-.071-.147-.284zm-13.876-.341c-.246-.167-1.235-1.694-1.235-1.907 0-.104.174-.255.386-.336.398-.151 9.172-.186 9.913-.04.331.066.402.165.44.613.042.513.069.537.65.58.925.067 1.4-.407 1.489-1.487.049-.59.13-.832.278-.832.163 0 .2.2.165.91-.042.878-.065.926-.63 1.323-.859.602-1.804.7-6.775.7l-4.428.001-.288-.367c-.159-.201-.329-.367-.378-.367-.209 0-.062.414.25.708.336.315.405.32 5.32.313 4.945-.006 5.117-.02 6.286-.512.573-.241.055.253-.556.53-.554.252-1.033.276-5.667.276-2.784 0-5.133-.047-5.22-.106zm12.85-.328c-.354-.353-.368-.564-.066-.995.277-.395.813-.422 1.143-.057.338.373.303.846-.083 1.117-.431.302-.642.288-.995-.065zm.85-.533c.025-.172-.052-.347-.172-.393-.28-.108-.591.266-.475.568.125.326.594.199.648-.175zm10.69.728c-.278-.278.073-.342 1.884-.342 1.804 0 2.368.113 1.748.351-.316.121-3.509.114-3.631-.009zm4.305-.122c.145-.175.571-.22 2.072-.22 1.581 0 1.889.036 1.889.22 0 .185-.328.22-2.072.22-1.825 0-2.05-.026-1.89-.22zm-4.549-.646c0-.074.195-.566.432-1.095l.432-.962 3.33-.042 3.33-.042.493 1.082c.271.595.493 1.106.493 1.137 0 .03-1.915.055-4.255.055-2.447 0-4.255-.057-4.255-.133zm5.05-.103c.287-.11.32-1.123.044-1.352-.106-.088-.958-.168-1.944-.183l-1.756-.026-.405.689c-.223.379-.368.75-.322.825.092.149 4.008.19 4.383.047zm-3.94-.395c.055-.143.512-.183 1.866-.161 2.128.033 2.013.021 2.013.205 0 .09-.757.146-1.976.146-1.558 0-1.961-.04-1.904-.19zm.408-.726c-.037-.061.728-.11 1.701-.11.974 0 1.77.06 1.77.133 0 .16-3.372.136-3.47-.023zm5.345.982c.407-.286.422-.85.033-1.24-.353-.352-.563-.366-.994-.064-.39.273-.43.88-.084 1.264.298.328.616.34 1.045.04zm-.988-.348c-.192-.359-.062-.707.308-.824.548-.174.948.52.537.93-.264.265-.675.213-.845-.106zm-19.996.17c-.168-.037-.257-.194-.257-.456 0-.22-.079-.48-.176-.576-.13-.13-1.555-.176-5.5-.176-5.166 0-5.33.009-5.508.293-.233.373-.553.38-.553.012 0-.245-.099-.278-.769-.254-.598.022-.78.084-.817.282-.042.218-.234.254-1.354.254-1.394 0-1.608-.116-1.608-.87 0-.301.044-.304 5.053-.304 3.21 0 5.086-.053 5.144-.147.056-.091 1.511-.146 3.878-.146h3.788L21.13 9c.187.934-.572 1.806-1.413 1.625zm2.53-.58c0-.17.117-.266.331-.274.182-.007.437-.06.568-.118.153-.068.269-.025.325.122.066.17-.007.229-.284.229-.204 0-.5.068-.655.152-.232.124-.284.103-.284-.11zM34.8 4.98c-.18-.582-.178-1.44.003-1.68.178-.234.201-.178.205.499.004.551.072.8.246.898.132.074.194.209.138.3-.138.223-.52.212-.592-.017z" style="fill:#000;fill-opacity:1;stroke-width:.146715"/></svg>