<svg xmlns="http://www.w3.org/2000/svg" width="512" height="128" viewBox="0 0 135.467 33.867"><path d="M105.325 29.518c-.291-.224-.354-.598-.354-2.098 0-2.27.11-2.396 2.027-2.308.832.039 1.421-.023 1.504-.156.074-.12.537-.22 1.027-.22 1.003 0 1.384-.411 1.273-1.376-.086-.743-.445-.614-.57.205-.075.497-.203.665-.505.665-.309 0-.43-.168-.506-.708l-.102-.708-1.774-.059c-1.938-.064-2.152.057-1.79 1.012.168.441.11.598-.396 1.084-.577.553-.593.622-.593 2.554v1.986h-2.545l.082-2.608c.11-3.545.194-3.463-3.563-3.463-3.3 0-3.688-.15-3.688-1.428v-.798h1.315c1.269 0 1.316.018 1.316.506v.505h15.536l.327-.498c.26-.397.327-1.055.327-3.207 0-3.43.034-3.388-3.004-3.701l-2.157-.223 4.3-.03c3.702-.027 4.301.011 4.301.273 0 .256.52.308 3.34.334 1.836.016 3.445.04 3.575.05.13.011.274-.093.32-.233.066-.195-.717-.252-3.474-.252-1.957 0-3.558-.08-3.558-.18 0-.334.908-.422 4.401-.425l3.491-.003v.506c0 .371.108.506.405.506.292 0 .405.135.405.483 0 .312-.143.52-.405.588-.363.095-.405.276-.405 1.763 0 1.486.042 1.667.405 1.762.57.15.562 1.07-.009 1.07-.384 0-.41.106-.354 1.468l.06 1.467h.809c.792 0 .81-.016.873-.773.035-.425-.03-.886-.145-1.024-.128-.155-.217-2.07-.23-4.995l-.022-4.743 1.533-.06 1.532-.058v1.425c0 1.385.015 1.425.506 1.425h.506v7.488h-1.214V27.6l-3.896-.067c-4.953-.084-5.21-.182-5.21-1.993v-1.21h-6.593l-.998 1.014c-.975.989-1 1.045-1.077 2.42-.07 1.231-.143 1.448-.585 1.737-.584.383-1.08.116-.572-.306.228-.19.312-.649.312-1.702v-1.443l1.063-1.251 1.062-1.252 5.212-.013 5.21-.013v-2.024h-6.475V22.915h-4.231l-1.213 1.441c-.667.793-1.24 1.635-1.274 1.872-.057.397-.202.436-1.83.49-1.664.054-1.777.086-1.889.531-.065.261-.089.736-.052 1.055.066.576.08.582 1.685.682 1.26.079 1.62.169 1.62.405 0 .424-3.872.535-4.402.127zm19.47-2.743c.248-.462.101-.948-.336-1.116-.43-.164-.87.243-.87.805 0 .73.864.952 1.207.31zm1.712.267c.411-.158.424-1.21.017-1.367-.517-.198-.91.091-.91.668 0 .785.22.957.893.7zm2.024 0c.394-.151.42-.959.042-1.272-.598-.497-1.316.28-.928 1.005.222.416.377.462.886.267zm-3.727-6.96c0-.112-.238-.203-.53-.203-.515 0-.52-.012-.202-.499.433-.66.45-2.79.023-3.143-.167-.139-.303-.378-.303-.531 0-.154-.091-.279-.203-.279-.312 0-.239.73.102 1.012.199.165.303.617.303 1.315 0 .699-.104 1.15-.303 1.316-.167.138-.304.468-.304.733 0 .415.098.481.708.481.39 0 .709-.091.709-.202zm-9.124-.486c.15-.182.214-.928.177-2.075l-.059-1.79H114.179l-.06 1.817c-.049 1.535-.004 1.858.293 2.075.46.336.976.325 1.268-.027zm-1.155-1.892c.053-1.414.099-1.569.463-1.569.365 0 .411.155.464 1.569.06 1.567.059 1.568-.464 1.568-.522 0-.522-.001-.463-1.568zm4.5 1.726c.444-.635.43-2.932-.02-3.43-.417-.46-1.036-.475-1.522-.036-.287.26-.37.634-.37 1.676 0 1.526.355 2.24 1.113 2.24.27 0 .623-.2.798-.45zm3.845 0c.2-.287.315-.894.315-1.676 0-1.405-.376-2.125-1.11-2.125-.85 0-1.116.496-1.116 2.073 0 1.053.09 1.536.334 1.807.456.503 1.195.466 1.577-.08zm-15.997 8.868a1.442 1.442 0 0 1-.045-.666c.061-.317.289-.366 1.687-.366h1.616v1.214l-1.571.06c-1.242.046-1.596-.004-1.687-.242zm23.193-2.954v-2.227H131.077v-8.904h-.506c-.478 0-.505-.061-.505-1.113 0-1.22.002-1.22 1.327-.887l.899.226V27.57h-2.226zm-65.102-1.569a4.903 4.903 0 0 0-.208-.506c-.045-.083.834-.152 1.954-.152h2.035v.506c0 .503-.013.506-1.828.506-1.557 0-1.846-.052-1.953-.354zm5.684.2c-.22-.147-.689-.927-.689-1.145 0-.061.544-.386 1.209-.722.89-.45 1.49-.61 2.28-.61.81 0 1.254-.123 1.817-.506l.744-.506h5.04c4.78 0 5.057.021 5.404.405.298.33.624.405 1.738.405 1.268 0 1.376.034 1.436.455.058.415.173.456 1.279.456 1.105 0 1.22-.041 1.278-.456.053-.37.193-.455.76-.455.543 0 .694.082.694.38 0 .208.055.654.122.99.092.461.018.716-.304 1.037-.422.423-.51.426-11.506.423-6.094-.002-11.18-.07-11.302-.152zm14.25-2.325.064-.556h-3.359c-2.799 0-3.378.05-3.475.303a.988.988 0 0 0 .002.612c.1.263.613.3 3.412.253l3.292-.055zm-23.034.467V20.69h1.84l-.06 1.366-.06 1.366-.86.062-.86.062zm-17.684.74c-.26-.191-.34-.478-.291-1.063.06-.74.115-.806.723-.865l.657-.063v1.125c0 .952-.056 1.126-.366 1.126-.201 0-.526-.117-.723-.26zm1.494-.954v-1.012H47.091v2.024H45.674zm1.822 0c0-.944.033-1.012.506-1.012.472 0 .505.068.505 1.012 0 .945-.033 1.012-.505 1.012-.473 0-.506-.067-.506-1.012zm1.416-.014c0-.933.04-1.02.432-.961.367.055.435.209.455 1.026.022.87-.02.961-.431.961-.413 0-.456-.097-.456-1.026zm1.417.014c0-.877.054-1.012.405-1.012.35 0 .404.135.404 1.012s-.054 1.012-.404 1.012c-.351 0-.405-.135-.405-1.012zm1.214 0c0-.944.034-1.012.506-1.012s.506.068.506 1.012c0 .945-.034 1.012-.506 1.012s-.506-.067-.506-1.012zm1.417 0c0-.877.054-1.012.405-1.012.35 0 .404.135.404 1.012s-.054 1.012-.404 1.012c-.351 0-.405-.135-.405-1.012zm1.416 0v-.81h6.881v1.62h-6.88zm9.917-2.934v-3.542h2.084c1.352 0 2.17.085 2.328.243.374.374.314 2.684-.078 3.01-.324.268-.316 1.144.023 2.463.113.442.043.638-.337.955-.394.328-.79.4-2.25.405l-1.77.007zm34.624 1.64c-.154-.186-.214-1.033-.176-2.48l.057-2.196 2.472-.057 2.472-.057.058 1.98.058 1.98 2.223.057c2.72.07 2.735.059 2.735-2.323v-1.681h1.882c1.194 0 1.97.089 2.125.243.332.332.332 4.241 0 4.573-.382.382-13.587.345-13.906-.039zm2.403-.821c.342-.413.177-1.022-.276-1.022-.553 0-.874.592-.54.995.33.397.504.403.816.027zm-.661-.24c-.189-.19.04-.478.377-.478.16 0 .292.136.292.303 0 .305-.427.416-.67.175zm10.558.185c.235-.42-.054-1.068-.476-1.068-.425 0-.713.63-.484 1.057.244.457.708.462.96.01zm-.782-.36a.304.304 0 0 1 .607 0 .304.304 0 0 1-.303.304.304.304 0 0 1-.304-.304zm-8.94-1.985c.109-.568-.337-.98-.795-.735-.442.236-.493.607-.135.966.337.337.844.212.93-.23zm-.752-.012c-.18-.217-.184-.331-.014-.436.33-.204.74.25.469.52-.146.146-.286.12-.455-.084zm10.494.089c.158-.295.131-.469-.109-.708-.174-.175-.35-.318-.39-.318-.04 0-.215.143-.39.318-.366.366-.106 1.099.39 1.099.16 0 .384-.176.499-.391zm-.673.048c-.242-.242-.13-.67.175-.67.166 0 .303.132.303.292 0 .338-.289.567-.478.378zm-74.553 2.943c-.353-.181-.456-.41-.456-1.012v-.779l4.3.005 4.301.005.874.825c.48.453.823.875.76.938-.24.24-9.314.257-9.78.018zm14.615.081-3.851-.059-1.272-1.109-1.271-1.109h-9.233l-.127-.632a8.79 8.79 0 0 1-.126-1.417v-.784h9.5c6.115 0 9.544.072 9.624.202.07.112.576.203 1.126.203h1v.721c0 1.308.238 1.505 1.828 1.505 1.329 0 1.41-.026 1.403-.455-.003-.25-.14-.633-.304-.849a1.676 1.676 0 0 1-.297-.86c0-.419.095-.467.911-.467h.91v2.833h.779c1.073 0 1.448-.466 1.448-1.8 0-.985.033-1.056.455-.996.441.062.456.136.456 2.29v2.227l-.946.06c-.52.034-1.054.193-1.188.355-.255.307-.181.306-10.825.141zm4.146-2.164c.133-.161.213-.503.177-.76-.092-.642-1.06-.765-1.376-.174-.457.855.588 1.67 1.199.934zm-.8-.517c0-.261.102-.405.253-.355.139.047.253.206.253.355a.398.398 0 0 1-.253.354c-.15.05-.253-.094-.253-.354zm-1.215-.709v-1.113H50.33c-2.794 0-2.898.087-1.697 1.416l.732.81h3.393zm-3.51.101-.54-.607h3.646V17.856H51.07c-1.17 0-1.33-.054-1.823-.608zm37.357 3.131c-.152-.27-.9-.296-5.93-.205-3.166.058-7.122.13-8.792.158l-3.036.053-.065-.57c-.036-.313.085-.798.269-1.079.25-.381.317-.863.268-1.91l-.067-1.4h2.378l2.378.001.002 1.265c.002 1.202.043 1.308.825 2.125l.822.86h9.856l.823-.86.822-.86.002-2.783.003-2.783h6.412c6.207 0 6.427.014 6.859.42.425.4.656.417 5.093.398 3.714-.017 4.693.034 4.877.257.127.153.171.338.098.411-.073.073-4.953.133-10.844.133h-10.71l-.38.456c-.316.378-.38.796-.38 2.479 0 2.508.246 2.934 1.691 2.934.513 0 1.09.082 1.284.182.193.1.579.276.857.39.384.16-.186.214-2.368.224-2.38.011-2.904-.04-3.047-.296zm-15.066-.945c.324-.324.324-3.237 0-3.562-.34-.34-1.085-.302-1.463.075-.393.394-.452 3.11-.075 3.487.313.313 1.225.313 1.538 0zm-1.25-.471c-.069-.182-.126-.821-.126-1.42 0-.863.08-1.133.383-1.295.613-.328.86.183.79 1.64-.053 1.13-.111 1.29-.49 1.344-.253.036-.481-.074-.556-.27zm27.51 1.011c-.305-.23-1.076-.297-3.46-.297-3.776 0-3.736.026-3.736-2.394V15.63h2.383c1.812 0 2.49-.074 2.826-.31.397-.278.519-.276 1.209.014l.766.323-.506.283c-.354.198-1.25.285-2.985.29-2.266.007-2.992.172-2.159.492.176.067 1.273.123 2.437.123 1.717 0 2.266-.077 2.91-.405.436-.223.842-.405.902-.405.06 0 .11.956.11 2.125s-.069 2.122-.152 2.119c-.084-.004-.329-.14-.545-.304zm-5.982-1.803c0-.606-.09-1.157-.202-1.226-.127-.078-.203.335-.203 1.101 0 .683.09 1.226.203 1.226.111 0 .202-.495.202-1.1zm-2.903.933c-.511-.565-.484-4.086.035-4.556.33-.3 1.177-.335 7.893-.335 4.88 0 7.523.07 7.523.202 0 .129-1.615.203-4.44.203-2.743 0-4.489.077-4.566.202-.075.12-1.351.202-3.149.202h-3.024v.607c0 .473.09.608.405.608.328 0 .405.134.405.708 0 .573-.077.708-.405.708-.313 0-.405.135-.405.594 0 .492.092.604.541.658.298.035.579.177.624.317.132.402-1.054.305-1.437-.118zm15.131.099c-.057-.15-.077-.947-.044-1.771l.06-1.499h4.25l.058 1.77.059 1.772h-2.14c-1.603 0-2.165-.068-2.243-.272zM75.261 18.2c-.56-.578-.647-.809-.647-1.729V15.41l1.569.06 1.568.058.066.709c.117 1.24.448 1.416 2.666 1.416s2.55-.176 2.666-1.416l.066-.709 1.67-.059 1.67-.058v.979c0 .866-.089 1.065-.768 1.728l-.768.75h-9.111ZM3.175 15.528v-2.327h11.131V17.856H3.175Zm4.412.87c.133-.133.243-.592.243-1.019v-.777l-1.872.059c-1.792.055-1.875.078-1.94.534-.037.261-.012.694.055.96.115.461.203.486 1.696.486.955 0 1.67-.095 1.818-.243zm5.089-.047c.132-.16.212-.592.176-.961l-.064-.671H9.145l-.065.677c-.112 1.17-.007 1.245 1.754 1.245 1.144 0 1.67-.083 1.842-.29zm48.177.088c0-1.343.024-1.417.465-1.417.67 0 .951.376.951 1.268 0 1.044-.306 1.566-.918 1.566-.482 0-.498-.046-.498-1.417zm-45.94-1.004c0-1.724.06-2.248.253-2.184.407.135.458 3.861.057 4.194-.276.23-.31.005-.31-2.01zm41.73 1.975c-.134-.133-.243-.63-.243-1.102v-.86l-1.062-.061-1.063-.061-.063-.767-.063-.766 1.986.058 1.985.058.06 1.45c.039.963.158 1.531.354 1.694.162.135.295.325.295.423 0 .269-1.908.212-2.186-.066zm21.823-.553c-.37-.691-.24-.823.803-.823 1.067 0 1.234.197.73.86-.363.479-1.268.457-1.533-.037zm3.269-.165c.045-.399.193-.575.519-.621.56-.08.606.37.085.842-.524.475-.678.418-.604-.221zm-65.81-1.06v-1.42H34.36l-.06 1.367-.06 1.366-9.158.053-9.157.052zm64.83.9c-.066-.172-.069-.364-.007-.426.178-.177.545.124.545.446 0 .388-.386.374-.537-.02zm-2.459-1.864c.06-.925.087-.964.73-1.025.48-.047.718-.197.848-.537.516-1.36 1.216-.709 1.216 1.132v1.391h-2.855zm3.199-.064c0-1 .014-1.024.557-.961.51.058.561.145.618 1.025.06.95.055.961-.557.961-.608 0-.618-.017-.618-1.025zm16.595.705c-.629-.258.101-.28 6.476-.201 4.12.05 7.4.175 7.69.292.354.142-1.596.203-6.476.201-5.59-.002-7.123-.06-7.69-.292zm-63.307-.843c.035-.306.166-.538.29-.515.126.023.595-.273 1.045-.658.723-.619.949-.7 1.962-.7 1.651 0 1.928.205 1.928 1.425v1.004h-5.289zm4.01-.666c0-1.235-.693-1.313-1.588-.179-.662.84-.484 1.12.653 1.03l.935-.074zm1.417.02c0-.74-.097-1.265-.253-1.366-.14-.09-.845-.218-1.568-.284-.724-.066 1.03-.134 3.895-.152l5.212-.031v3.035H40.21zm3.404-.67c-.053-.37-.214-.467-.855-.52-1.147-.094-1.74.102-1.74.575 0 .359.14.4 1.33.4 1.263 0 1.326-.022 1.265-.455zm3.238 0c-.059-.414-.174-.455-1.279-.455s-1.22.04-1.279.455c-.061.433.002.456 1.279.456 1.278 0 1.34-.023 1.279-.456zm1.048.352v-1.52l7.842.053 7.843.053.06 1.49.06 1.49-.769-.133c-1.826-.318-2.488-.354-2.488-.135 0 .129-.383.222-.91.222-.9 0-.912-.008-.912-.683 0-1.038-.297-1.16-2.66-1.095l-2.096.058-.062.86-.062.86H47.9zm16.393.002v-1.517H66.114v1.126c0 .62.095 1.303.21 1.518.195.365.134.391-.91.391h-1.121zm4.494.152.06-1.366 2.58-.056 2.58-.057V15.022h-5.28zm5.827.05v-1.315h2.53c1.551 0 2.53.079 2.53.203 0 .111-.355.202-.788.202-.889 0-1.034.201-1.034 1.433v.793h-3.238Zm8.5.446c0-1.044-.265-1.356-1.154-1.356-.367 0-.667-.09-.667-.202 0-.125 1.011-.203 2.63-.203h2.631V15.022h-3.44Zm-16.393.162c-.11-.293-.202-1.124-.202-1.847 0-1.19-.067-1.402-.708-2.242-.39-.51-.709-.99-.709-1.065 0-.076.23-.354.51-.618l.511-.48 1.115 1.102 1.115 1.1-.057 2.228-.057 2.227-.658.063c-.552.053-.69-.022-.86-.468zm.977-.573c.038-.2-.065-.338-.253-.338s-.319.173-.319.422c0 .493.473.423.572-.084zm42.88-.648c-.217-.296-.566-.5-.86-.5-.634 0-.666-.56-.042-.702.517-.118 6.782-.9 8.093-1.01.474-.04 1.18-.135 1.57-.21.709-.136.709-.136 1.37 1.21.365.74.61 1.43.545 1.535-.064.104-.602.19-1.195.19-.926 0-1.124-.071-1.41-.506-.273-.418-.492-.506-1.259-.506-.889 0-.922.021-.8.506l.126.506-2.887-.007c-2.834-.006-2.895-.015-3.252-.506zm-10.262-.803c-.19-.228-.698-.303-2.048-.303-1.662 0-1.797-.03-1.797-.405 0-.37.135-.405 1.607-.405.884 0 1.663-.09 1.732-.202.083-.134-4.147-.203-12.535-.203-10.832 0-12.66-.041-12.66-.288 0-.244.884-.289 5.615-.285 7.027.004 7.134.001 7.134-.199 0-.09-.342-.335-.759-.542l-.759-.378 1.18-.16c.952-.13 1.277-.096 1.694.178.35.229 1.095.366 2.31.424 1.566.074 1.809.04 1.927-.268.087-.226.015-.421-.2-.541-.269-.15-.292-.272-.114-.604.543-1.015-.583-2.8-1.766-2.8-1.157 0-2.014 1.12-1.841 2.41l.097.726H85.06c-2.24 0-4.095-.068-4.123-.152-.027-.083-.05-.835-.05-1.67V5.107h1.988c1.86 0 2.02-.033 2.464-.506.41-.436.652-.506 1.756-.506 1.237 0 1.28.017 1.28.516 0 .496.042.515 1.062.456.966-.056 1.058-.103 1.015-.517-.045-.418.035-.455.96-.455.833 0 1.01.063 1.01.36 0 .325.195.351 2.123.28 1.625-.06 2.314-.002 2.939.248.448.18 1.038.326 1.31.326.816 0 1.127 1.11.787 2.808-.114.571-.198.633-.872.633-.565 0-.888.147-1.326.605-.32.332-.517.667-.44.744.077.077.885.146 1.797.154l1.658.014.752 1.074c.636.91.78 1.021.944.73.212-.38.65-.224.65.232 0 .417-2.081.407-2.429-.012zm-4.129-4.25c.016-.95.003-1.007-.061-.264l-.081.95-.834.062c-.46.034-.873.18-.92.327-.066.199.156.25.894.202l.982-.062.02-1.215zm3.114-1.062c-.002-.826-.06-1.076-.2-.86-.221.343-.262 1.224-.079 1.703.214.558.282.353.28-.843zm-24.687 4.604c0-.391.135-.405 4.048-.405 3.912 0 4.047.014 4.047.405s-.135.405-4.047.405c-3.913 0-4.048-.014-4.048-.405zm8.5.202c0-.111.182-.202.405-.202.222 0 .405-.091.405-.203 0-.11.182-.202.404-.202.223 0 .405.091.405.202 0 .112.182.203.405.203.222 0 .405-.091.405-.203 0-.11.136-.202.303-.202.167 0 .304.091.304.202 0 .112.182.203.404.203.223 0 .405-.091.405-.203 0-.11.228-.202.506-.202.371 0 .506.108.506.405 0 .382-.135.405-2.428.405-1.485 0-2.429-.08-2.429-.203zm5.464-.202c0-.35.135-.405 1.012-.405s1.012.054 1.012.405c0 .35-.135.405-1.012.405s-1.012-.054-1.012-.405zm2.631 0c0-.382.135-.405 2.429-.405 2.293 0 2.428.023 2.428.405s-.135.405-2.428.405c-2.294 0-2.429-.023-2.429-.405zM78.747 8.274c-.057-.15-.077-.946-.044-1.77l.06-1.5.658-.063.657-.063v3.668h-.613c-.338 0-.66-.122-.718-.272zm11.248-.132c-.563-.563-.46-1.362.241-1.883.511-.38.577-.385 1.047-.076.723.473.859 1.09.382 1.73-.51.685-1.129.77-1.67.229z" style="fill:#000;fill-opacity:1;stroke-width:.202377"/></svg>