<svg xmlns="http://www.w3.org/2000/svg" width="512" height="128" viewBox="0 0 135.467 33.867"><path d="M84.711 27.519c-.932-1.793-1.085-2.27-.728-2.27.107 0 .465.623.795 1.383l.6 1.384.722-1.044c.623-.902.828-1.045 1.508-1.05 1.337-.01 1.52-.279.864-1.274a22.071 22.071 0 0 1-.836-1.365c-.253-.477-.226-.506.474-.506.678 0 .829.138 1.714 1.574 1.405 2.276 1.747 1.806.485-.667-.254-.5-.373-.907-.263-.907.265 0 1.381 2.59 1.388 3.217.002.27.203.744.444 1.053.242.31.442.804.445 1.1.009.965-.54 1.133-3.735 1.14l-2.953.008zm6.605.427c0-.55-.039-.563-1.913-.626l-1.913-.064-.408.69-.408.69 2.321-.064c2.31-.064 2.321-.067 2.321-.626zM51.53 25.193c-.07-.278-.096-1.517-.06-2.753l.065-2.248h4.495l.066 2.248c.1 3.416.212 3.259-2.313 3.259-2.018 0-2.133-.026-2.253-.506zm28.284-.45c-.38-.401-1.428-2.146-2.329-3.876-2.243-4.308-2.301-4.383-3.377-4.383-.776 0-.884-.064-.884-.524 0-.8.774-1.08 2.78-1.004l1.759.067 1.832 3.526c1.635 3.146 1.801 3.577 1.544 3.998-.24.394-.229.574.072 1.082.28.475.308.746.125 1.227-.307.807-.679.78-1.522-.113zm2.175.2c0-.17.203-.565.45-.879.59-.75.57-1.422-.056-1.838-.279-.184-1.366-2.005-2.416-4.046l-1.91-3.711-1.967-.004c-1.743-.004-1.967-.05-1.967-.408 0-.956-1.102-1.26-1.662-.46-.244.348-.277.6-.117.899.213.398-.003.415-5.314.415-5.194 0-5.57.027-6.106.45-.548.43-.912.449-8.857.449h-8.286v-2.473h12.5l.661-.893.662-.894 5.186-.005 5.186-.006.528.562.528.562h20.52l.528-.562c.596-.634 1.592-.745 2.023-.225.498.6 2.104.372 7.015-.992 2.631-.73 5.154-1.428 5.606-1.549l.822-.22.084.885c.066.688-.061 1.108-.571 1.893-.769 1.18-1.097 1.165-.398-.02.528-.894.651-2.366.197-2.34-.155.008-.483.107-.73.22-.405.185-.394.2.112.153.782-.073.85.687.16 1.785-.296.473-.496.986-.443 1.14.074.22-.954.281-4.656.281-2.614 0-4.7-.083-4.637-.186.063-.102.727-.37 1.475-.597.749-.227 1.322-.451 1.275-.499-.138-.137-2.23.411-2.726.714-.288.176-2.063.331-4.935.432-2.466.087-4.59.242-4.72.345-.129.103-1.4.234-2.824.292-1.425.057-2.823.228-3.106.38-.468.25-.486.32-.2.765.175.27 1.354 2.234 2.62 4.367C82.792 21.257 83.88 23 83.944 23c.064 0 .316-.252.559-.561.428-.545.525-.562 3.207-.562 2.327 0 2.815-.06 3.074-.38.21-.259.219-.327.028-.212-.199.12-.281-.019-.281-.471 0-.48-.243-.843-.968-1.449-.827-.691-1.092-1.146-1.829-3.138-.473-1.28-.909-2.455-.967-2.61-.073-.196.175-.28.825-.28 1.12 0 1.321.345.916 1.572-.271.823-.245.939.545 2.4.969 1.789 1.773 2.543 2.714 2.543 1.075 0 5.495-1.482 6.09-2.041.31-.292.54-.764.54-1.112 0-.802-.799-1.79-1.447-1.79-.425 0-.601.236-1.007 1.349-.27.742-.587 1.348-.704 1.348-.117 0-.213-.758-.213-1.685v-1.686H92.58c-1.899 0-2.507-.075-2.724-.337-.248-.299.589-.333 7.333-.302 4.187.02 7.107.095 6.489.169l-1.124.133-.07.978c-.05.702.044 1.105.336 1.427.395.436.388.464-.249.97-.643.514-.647.533-.266 1.115.38.579.375.604-.187 1.046-.316.249-.575.552-.575.673 0 .122.408.822.907 1.557.623.918 1.055 1.337 1.378 1.337.616 0 1.925-.817 2.233-1.393.27-.503.608-.315.749.417.13.677-.072.876-2.014 1.983-2.158 1.23-2.462 1.272-2.27.314.111-.558-.024-.972-.663-2.024-.442-.727-.998-1.427-1.236-1.554s-.433-.468-.433-.757c0-.369-.214-.63-.714-.872-.654-.317-.803-.312-1.742.056-.565.221-1.382.471-1.814.555-.433.084-1.618.375-2.635.646-1.634.436-1.863.561-1.977 1.08-.193.872-.97 1.099-3.77 1.101l-2.519.002-.867 1.347c-.731 1.134-.97 1.346-1.517 1.346-.4 0-.65-.118-.65-.307zm18.353-13.853c1.284-.371 2.4-.674 2.479-.674.08 0 .088-.058.017-.128-.12-.121-4.882 1.167-5.092 1.377-.198.198.307.086 2.596-.575zm15.697 12.835c-.815-.124-.905-.204-.97-.865-.053-.559.142-1.024.844-2.003.505-.705.913-1.536.913-1.858 0-.362-.81-1.796-2.138-3.784l-2.137-3.201H106.518l-.072-2.083-.071-2.082 1.236.003c1.208.004 1.238-.012 1.31-.67.081-.751.488-1.346.488-.715 0 .213.417.84.928 1.394l.927 1.006h2.773c2.543 0 2.793.037 3.014.45.225.421.17.45-.892.45-.856 0-1.131.081-1.131.336 0 .257.281.337 1.182.337.939 0 1.24.093 1.463.45.408.653 3.103.653 3.934 0 .5-.393.912-.45 3.29-.45 2.265 0 2.717-.056 2.717-.337 0-.282-.476-.337-2.933-.337h-2.932l-.307-.728c-.168-.4-.258-.805-.2-.9.058-.093 1.819-.17 3.913-.17h3.807v.787c0 .55.102.786.338.786.185 0 .337.152.337.337a.338.338 0 0 1-.337.338c-.26 0-.338.288-.338 1.248 0 1.02-.167 1.575-.912 3.022-.891 1.73-.912 1.823-.867 3.854.03 1.397-.04 2.109-.211 2.166-.142.047-.257.258-.257.47 0 .535-1.74 2.183-2.746 2.602-.632.263-1.59.34-3.933.316-1.704-.018-3.502-.094-3.997-.169zm8.01-1.733 1.103-.81-.061-3.854-.062-3.854-4.102-.06c-4.81-.073-4.713-.145-2.977 2.196l1.123 1.515v5.677h1.937c1.87 0 1.974-.028 3.04-.81zm-4.526-2.438v-2.797l-1.124-1.35c-.618-.743-1.124-1.406-1.124-1.473 0-.067 1.67-.122 3.709-.122h3.708v6.876l-.852.832c-.834.814-.89.832-2.585.832h-1.732zm-6.068-9.45c0-.284-.5-.338-3.147-.338s-3.147.054-3.147.337c0 .284.5.337 3.147.337s3.147-.053 3.147-.337zM81.403 23.354c-.205-.532.084-1.07.53-.985.248.048.393.28.393.632 0 .64-.709.912-.923.353zm21.654-1.3c-1.369-1.854-1.347-1.778-.707-2.447.552-.575.562-.633.233-1.27-.333-.644-.325-.677.217-.924.309-.14.595-.256.636-.256.041 0 .463.582.937 1.292.475.711 1.04 1.498 1.256 1.748.499.578.329 1.264-.457 1.845-1.118.826-1.513.829-2.115.013zm-20.962-2.799a917.433 917.433 0 0 0-2.392-4.051c-.426-.71-.426-.72.014-.955.245-.131 1.437-.242 2.65-.246 1.584-.005 2.33-.1 2.643-.337.908-.687 1.143-.447 2.147 2.199.755 1.988 1.17 2.746 1.942 3.547.668.694.981 1.215.981 1.63v.61h-2.684c-2.466 0-2.71.038-3.012.469-.312.444-.427.3-2.289-2.866zm7.311 1.943c0-.389-1.167-2.018-1.446-2.018-.215 0-1.251 1.772-1.251 2.141 0 .059.607.106 1.349.106.768 0 1.348-.098 1.348-.23zm39.936.735c-.1-.154-.479-.28-.842-.28h-.661V15.98l.842-1.378.843-1.378.064 2.18c.096 3.26-.039 6.849-.246 6.53zm.953-5.825c-.01-3.317-.092-6.562-.185-7.21l-.168-1.18h.843c1.396 0 1.628.428 1.46 2.684-.66 8.788-1.036 11.443-1.653 11.645-.22.072-.285-1.22-.297-5.939zM51.76 19.183c-.242-.762.073-.901 2.035-.901h1.897v1.348h-1.895c-1.695 0-1.91-.047-2.037-.447zm-23.926-.733c.019-.934.553-3.428.721-3.37.092.03.356.055.586.055.373 0 .399.107.235.956-.102.525-.19 1.385-.195 1.91-.009.91-.042.955-.684.955-.552 0-.672-.091-.663-.506zm9.904-.155c.41-.554.467-.85.353-1.813-.13-1.093-.111-1.147.36-1.08.4.057.511.24.57.948.103 1.275-.084 1.775-.829 2.215-.925.546-1.017.491-.454-.27zm-23.13-.058c-.389-.388-.347-2.534.056-2.868.179-.148.609-.24.955-.204.346.036.763-.016.925-.117.163-.1.325-.147.36-.104.036.044-.038.863-.164 1.82l-.228 1.743h-.817c-.45 0-.94-.122-1.087-.27zm2.427-.486c0-1.573.277-2.84.622-2.84.263 0 .306.182.196.842-.076.464-.14 1.273-.141 1.798-.002.699-.094.956-.34.956-.233 0-.337-.234-.337-.756zm1.208-.846c.082-.88.203-1.69.27-1.798.067-.108.804-.196 1.638-.196h1.517l-.213 1.573-.213 1.573h-1.079c-.593 0-1.141.101-1.218.225-.076.123-.299.225-.495.225-.305 0-.335-.228-.207-1.602zm11.643 1.376c-.345-.147-.484-.354-.412-.616.06-.217.175-.875.254-1.462l.145-1.068h2.381c2.253 0 2.362.022 2.027.394-.51.564-.675 1.44-.408 2.144.227.596.214.609-.63.609-.474 0-1.306.05-1.849.11-.542.06-1.22.01-1.508-.111zm-8.131-.754c0-.416.064-1.225.143-1.798l.143-1.043h1.974l-.137 1.517c-.188 2.083-.186 2.079-1.217 2.079-.879 0-.906-.023-.906-.755zm13.183.344c-.828-.914-.142-2.342 1.124-2.342.677 0 1.425.75 1.425 1.43 0 1.109-1.791 1.75-2.55.912zm4.797-1.23c0-.902-.109-1.749-.241-1.882-.133-.132-.209-.582-.169-1L39.4 13l1.742-.065 1.741-.066v2.218c0 2.027-.044 2.26-.52 2.706-.381.358-.801.489-1.573.489h-1.053zm-15.633.124c.246-2.093.14-1.993 1.979-1.895.896.047 1.687.152 1.756.232.07.08.036.778-.076 1.55l-.202 1.405h-3.609zM51 17.592c-.539-.329-.83-.394-1-.224-.146.146-1.412.24-3.23.24h-2.989v-1.124h8.635c6.697 0 8.66-.063 8.747-.281.063-.155.122.098.131.562l.018.843h-1.416c-.801 0-1.533-.117-1.686-.27-.21-.21-.33-.21-.539 0-.148.148-.547.27-.886.27-.338 0-.678.1-.755.224-.076.124-1.068.225-2.204.224-1.69 0-2.204-.085-2.826-.464zm10.919-1.567c-.068-.26-.003-.513.146-.57.147-.057 2.642-.076 5.545-.043 5.107.059 5.277.075 5.277.51s-.17.451-5.423.51c-5.327.059-5.425.051-5.545-.407zm-24.88-1.114c-.186-.12-2.18-.22-4.439-.222-2.582-.002-4.102-.086-4.102-.228 0-.124.14-.225.311-.225.171 0 .364-.202.429-.45.113-.431.306-.449 4.97-.449h4.854v.9c0 .889-.01.898-.843.895-.464-.002-.995-.102-1.18-.221zm35.76-.31c-.375-.45-.056-1.075.507-.995.552.08.777.825.333 1.106-.416.264-.545.247-.84-.11zm32.263-2.163c.22-.37.468-.674.554-.674.228 0-.06.984-.345 1.177-.51.345-.593.147-.209-.503zm-101.358.046c-.58-.64-.697-1.683-.282-2.487l.365-.705h11.47l-.066 1.742-.065 1.741-5.525.06c-5.115.056-5.552.03-5.897-.351Zm7.039-.608c0-.283-.487-.337-3.034-.337-2.547 0-3.034.054-3.034.337 0 .283.487.338 3.034.338 2.547 0 3.034-.055 3.034-.338zm0-1.573c0-.283-.487-.337-3.034-.337-2.547 0-3.034.054-3.034.337 0 .283.487.337 3.034.337 2.547 0 3.034-.054 3.034-.337zm19.696 2.428c-.184-.184 3.664-4.113 4.028-4.113.135 0 .484-.253.774-.562.321-.343.776-.562 1.163-.562.35 0 .635-.101.635-.225s-.158-.225-.35-.225c-.193 0-.288-.1-.212-.224.09-.148 7.165-.225 20.49-.225 17.997 0 20.336.039 20.221.337-.114.297 1.462.337 13.364.337 9.365 0 13.633-.075 13.953-.247.556-.297 1.007.067 1.121.906.067.489-.066.59-1.274.97-1.287.404-2.072.417-17.113.283-8.67-.078-18.633-.068-22.138.021l-6.374.162-1.412 1.762-1.412 1.762H49.63c-3.94 0-6.324-.084-6.411-.225-.182-.293-3.865-.293-4.046 0-.084.135-1.63.225-3.885.225h-3.746l1.793-1.805 1.792-1.805.068 1.243.067 1.243h1.787c1.041 0 1.787-.094 1.787-.225 0-.125-.6-.224-1.349-.224H36.14V9.722l1.626.066 1.625.066-.07.955-.069.955h1.703c.985 0 1.703-.095 1.703-.225 0-.127-.642-.224-1.475-.224h-1.476l.07-.73.071-.731 1.742-.066 1.742-.066v2.042h1.686c.973 0 1.685-.095 1.685-.225 0-.126-.637-.224-1.46-.224H43.78V9.74h3.372V11.764h1.685c.974 0 1.686-.095 1.686-.225 0-.126-.637-.224-1.46-.224h-1.462V9.722l1.742.066 1.742.066.07.964.069.964 1.728-.065c1.719-.065 1.73-.069 1.803-.71.04-.355.02-.861-.047-1.124-.12-.479-.122-.479-9.27-.479-7.12 0-9.17-.062-9.243-.28-.204-.612-.932-.183-2.974 1.748-2.05 1.94-2.441 2.2-2.783 1.859zm17.814-3.87a.483.483 0 0 0 .176-.558c-.11-.285-.484-.36-1.804-.36-1.741 0-2.438.316-1.894.86.308.308 3.056.354 3.522.059zm4.787-.046c.136-.084.184-.314.108-.512-.108-.282-.475-.36-1.7-.36-.859 0-1.722.062-1.917.137-.424.163-.47.676-.075.845.389.166 3.281.077 3.584-.11zm4.653.052a.493.493 0 0 0 .175-.564c-.202-.528-3.698-.528-3.9 0-.076.198-.016.436.134.528.4.247 3.224.276 3.59.036zm3.352-.418c-.057-.296-.297-.393-.97-.393-.67 0-.91.097-.968.393-.063.329.095.393.969.393s1.032-.064.969-.393zM15.8 12.491c-.124-.09-.225-.772-.225-1.514 0-1.232.162-1.672.618-1.682.093-.002.169.755.169 1.682 0 1.632-.086 1.864-.562 1.514zm6.227-1.457.066-1.63 1.966-.065 1.967-.065V12.663H21.961zm5.797 1.424-1.236-.132V9.629l.967-.07c.66-.047 1.012-.19 1.108-.45.234-.634.536-.71 2.863-.713l2.241-.003-1.454 1.47c-1.312 1.326-1.462 1.42-1.533.955-.042-.283-.19-.653-.329-.82-1.06-1.29-3.191.067-2.408 1.531.288.537 1.262.993 1.633.764.142-.088.175-.043.08.11-.088.143-.28.244-.428.223-.147-.02-.824-.096-1.504-.168zm-11.013-1.48V9.488l.816.07.816.07v2.697l-.816.07-.816.07zm2.023 0V9.516h1.573V12.438h-1.573zm2.023 0c0-1.15.072-1.461.337-1.461s.337.312.337 1.46c0 1.15-.072 1.461-.337 1.461s-.337-.312-.337-1.46zm7.788.6c-.522-.578-.462-1.092.175-1.51.758-.497 1.476-.109 1.476.797 0 1.02-.987 1.446-1.65.713zm39.185-.825-1.22-1.236H83.787v2.472H69.05zm16.388 1.18a7.799 7.799 0 0 1-.075-.562c-.054-.49.004-.506 1.93-.506 1.091 0 1.985-.07 1.985-.154 0-.085-.22-.388-.49-.674l-.488-.52h7.052c3.958 0 6.957.084 6.838.193-.328.297-6.893 2.054-7.674 2.054-.379 0-.814-.152-.968-.337-.434-.523-2.303-.448-2.81.112-.359.397-.692.45-2.844.45-1.34 0-2.446-.025-2.456-.056zm-32.753-1.349c.069-.715.096-.732 1.28-.8 1.598-.09 1.774-.002 1.65.835-.101.695-.102.696-1.55.696h-1.45zm6.834.225c.596-1.049.674-1.068 4.354-1.068h3.52l.645.675.646.674h-4.662c-3.666 0-4.629-.06-4.503-.281zm59.41-1.054-.477-1.11-2.841.003-2.841.002-.846-.907c-.593-.636-.846-1.11-.846-1.59v-.682h5.592c6.263 0 6.272.002 5.994 1.483-.098.522-.303.854-.57.923-.405.106-.404.14.02 1.13.668 1.559.464 1.858-1.268 1.858h-1.44zm-33.395.38c-.236-.383.236-.618 1.24-.618.934 0 1.605.277 1.605.663 0 .19-2.726.146-2.845-.045zm-55.1-2.697c.068-.484.175-.509 2.495-.57 1.845-.049 2.5.011 2.74.25.614.616-.085.825-2.752.825-2.522 0-2.555-.006-2.484-.505zm-2.73-1.394a1.003 1.003 0 0 1-.192-.73c.072-.366.31-.397 2.462-.324 1.59.055 2.435-.001 2.538-.168.085-.138.607-.25 1.16-.25.752 0 1.041.099 1.15.393.079.217.278.475.442.573a.665.665 0 0 1 .298.506c0 .483-7.457.483-7.858 0zm11.973-.042c-.253-.658.252-1.089 1.358-1.161.824-.054 1.045.005 1.045.28 0 .447.36.455.53.013.098-.255.51-.337 1.686-.337 1.274 0 1.584.071 1.709.393.145.375.166.375.442 0 .36-.49 1.476-.532 1.476-.056 0 .436.364.436.531 0 .098-.255.51-.337 1.686-.337 1.274 0 1.584.071 1.708.393.146.375.167.375.442 0 .378-.513 1.383-.513 1.58 0 .145.375.162.375.373 0 .323-.577 3.225-.577 3.449 0 .145.375.166.375.442 0 .378-.513 1.382-.513 1.58 0 .146.375.167.375.443 0 .421-.572 3.157-.572 3.378 0 .146.375.167.375.443 0 .377-.513 1.381-.513 1.58 0 .145.375.166.375.442 0 .408-.553 3.157-.574 3.368-.026.13.34.17.34.547 0 .533-.482 1.295-.469 1.487.026.145.375.166.375.442 0 .397-.539 3.151-.573 3.448-.042.179.319.224.319.489 0 .391-.472 1.275-.446 1.464.042.146.375.167.375.442 0 .42-.57 3.147-.57 3.488 0 .225.375.247.375.472 0 .306-.51 1.244-.51 1.442 0 .145.375.166.375.442 0 .42-.57 3.146-.57 3.488 0 .225.375.247.375.472 0 .305-.51 1.244-.51 1.441 0 .146.375.167.375.443 0 .419-.57 3.146-.57 3.487 0 .225.375.248.375.472 0 .306-.51 1.245-.51 1.442 0 .145.375.166.375.442 0 .395-.537 3.5-.586 3.5-.056 0 .436.362.436.53 0 .174-.453 1.183-.43 1.36.03.13.34.171.34.548 0 .54-.49 3.295-.526 3.48-.046.067.176.406.353.752.393.384.044.659.226.704.466.071.373-1.626.393-33.1.393-30.506 0-33.185-.03-33.315-.368z" style="opacity:.998;fill:#000;fill-opacity:1;stroke-width:.224752"/></svg>