<svg xmlns="http://www.w3.org/2000/svg" width="512" height="128" viewBox="0 0 135.467 33.867"><path d="M110.73 29.395c-.174-.173-.247-1.312-.247-3.806v-3.558h1.275c.928 0 1.74-.176 2.983-.645l1.707-.644V16.477h-5.76v-1.373c0-.988-.095-1.477-.34-1.748-.323-.356-.309-.376.257-.377.584 0 .598.025.598 1.08v1.08l2.037.06c1.975.057 2.056.042 2.623-.502.371-.355.585-.771.585-1.139v-.578H128.173v12.136h-7.208l-.235.514c-.182.4-.388.515-.92.515-.574 0-.689.076-.695.463-.004.254-.469 1.04-1.034 1.748l-1.026 1.286h-3.04c-2.09 0-3.116-.077-3.286-.247zm6.528-1.692c.303-.365.21-2.544-.12-2.818-.13-.108-1.103-.17-2.16-.137l-1.924.06-.062 1.421c-.043.998.018 1.472.206 1.591.482.306 3.789.21 4.06-.117zm-4.101-1.044v-.926h3.908v1.852h-3.908zm-1.543-1.337c0-.167-.162-.334-.36-.372-.253-.049-.36.062-.36.372s.107.42.36.372c.198-.038.36-.206.36-.372zm8.64 0c0-.167-.162-.334-.36-.372-.253-.049-.36.062-.36.372s.107.42.36.372c.198-.038.36-.206.36-.372zm6.847-1.203c.204-.13.265-1.335.265-5.277 0-3.941-.061-5.147-.265-5.277-.304-.192-8.667-.232-9.367-.044l-.463.124v5.204c0 3.971.06 5.229.257 5.308.435.176 9.291.14 9.573-.038zm-9.532-.499c-.055-.144-.075-2.388-.045-4.988l.055-4.727 4.783-.055 4.783-.055v10.087h-4.738c-3.643 0-4.76-.06-4.838-.262zm7.943-.157c.22-.117.398-.29.398-.386 0-.095-.61-.833-1.356-1.638-1.158-1.251-1.456-1.465-2.04-1.465-.587 0-.877.21-2.034 1.479-1.27 1.391-1.33 1.501-1.014 1.851.292.323.692.372 2.993.372 1.46 0 2.835-.096 3.053-.213zm-5.67-2.46 1.013-1.03h-2.144v1.03c0 .565.026 1.028.059 1.028s.515-.463 1.072-1.029zm6.48 0v-1.03h-1.89l.861 1.03c.474.565.9 1.028.945 1.028.046 0 .084-.463.084-1.029zm-6.397-3.91c-.477-.565-.945-1.028-1.04-1.028-.096 0-.174.463-.174 1.029v1.028h2.081zm4.658-.517c1.35-1.507 1.375-1.557 1.015-1.954-.332-.368-.638-.408-3.082-.408-2.43 0-2.75.042-3.077.402-.352.39-.32.449 1.032 1.954 1.905 2.12 2.22 2.121 4.112.006zm1.739.475V15.98l-.926.908c-.509.5-.926.982-.926 1.071 0 .09.417.163.926.163h.926zm-9.771-1.603c0-.167-.162-.334-.36-.372-.253-.049-.36.062-.36.372s.107.42.36.372c.198-.038.36-.205.36-.372zM99.169 28.834c0-.406.177-.742.542-1.029.479-.377.825-.426 2.982-.426h2.441V22.064l1.049-.349c1.2-.398 1.58-1.02 1.774-2.891.176-1.713-.053-2.473-.925-3.066-.741-.503-.848-.516-4.481-.516-3.704 0-3.724-.002-4.205-.514-.266-.283-.42-.526-.344-.54.076-.014.254-.037.395-.051.392-.04.307-.628-.102-.707-.258-.05-.36.064-.36.396 0 .452-.017.449-.632-.14l-.631-.604 6.237-.125c5.699-.114 6.28-.095 6.75.23l.515.356-.05 7.072c-.05 6.871-.064 7.097-.51 7.947l-.46.874h-9.985zm2.057-.632c0-.426-.496-.568-.72-.206-.172.279.06.617.423.617.163 0 .297-.185.297-.411zm8.022 0c0-.426-.496-.568-.72-.206-.172.279.06.617.424.617.163 0 .296-.185.296-.411zm.412-3.6V22.03h-.85a6.8 6.8 0 0 0-1.622.23c-.71.214-.78.304-.898 1.16-.169 1.231-.163 3.443.01 3.615.075.075.862.137 1.749.137h1.61v-2.571zm-3.086.247v-1.913l.683-.247a4.738 4.738 0 0 1 1.337-.247h.654v4.32h-2.674zm-1.543-11.047v-.514l-2.935-.057c-2.479-.048-2.955-.008-3.056.257a1.017 1.017 0 0 0 0 .629c.101.265.577.305 3.056.257l2.935-.057zm-5.657-.102c0-.259.435-.309 2.675-.309 2.24 0 2.674.05 2.674.309 0 .258-.434.308-2.674.308-2.24 0-2.675-.05-2.675-.308zm8.64-.022c0-.374-.54-.372-.684.001-.06.16-.061.338-.002.398.19.189.686-.1.686-.4zm14.125 13.77c-.075-.076-.137-.539-.137-1.029v-.891H127.145v2.057h-2.435c-1.338 0-2.495-.062-2.57-.138zm6.291-.014-.874-.079v-.914c0-.901.009-.913.698-.913.628 0 .732.086 1.047.873.192.48.457.942.588 1.026.243.154.181.155-1.459.007zm-7.045-.866c0-.446.092-.868.206-.938.125-.077.205.238.205.811 0 .516-.092.938-.205.938-.114 0-.206-.365-.206-.81zm-.36-.115c.002-.452.045-.613.094-.357.05.256.047.626-.004.822-.052.197-.092-.012-.09-.465zm8.724.155c-.157-.312-.483-1.145-.725-1.853-.416-1.217-.44-1.673-.44-8.46 0-6.142.045-7.21.31-7.43.433-.36 2.073-.144 2.748.36l.542.405.054 8.07.054 8.07-.702.701c-.857.858-1.454.902-1.84.137zm1.578-1.58c.145-.376-.38-.817-.786-.661-.32.123-.416.575-.174.818.244.243.844.145.96-.157zm-.78-.103c-.152-.246.235-.49.51-.321.23.142.078.512-.21.512-.1 0-.234-.086-.3-.191zm.465-5.404c.62-.621-.01-1.606-.769-1.2-.518.277-.553.94-.064 1.225.467.272.538.27.833-.025zm-.889-.377c-.08-.13-.048-.332.07-.45.277-.276.921-.035.809.303-.115.343-.697.441-.879.147zm.897-6.962c.15-.096.243-.396.205-.666-.095-.675-1.102-.818-1.303-.184-.233.735.447 1.262 1.098.85zm-.807-.355c-.183-.22-.191-.367-.029-.53.284-.283.87-.07.87.317 0 .429-.547.567-.841.213zM98.974 24.912c-1.092-1.745-1.354-2.04-1.729-1.952-.243.057-.573.018-.734-.087-.25-.162-.241-.268.054-.718.337-.516.33-.542-.289-1.094-.348-.31-1.053-1.238-1.566-2.06l-.932-1.496-2.087.001c-2.312.002-3.523.247-3.718.753-.156.407.245.873 1.733 2.016 1.284.985 2.59 1.288 3.963.918.787-.212.813-.246.703-.925-.063-.388-.081-.706-.041-.706.234 0 .954 1.498.796 1.656-.577.577-3.98 1.315-3.981.864 0-.085-.574-.617-1.274-1.183-.7-.565-1.806-1.768-2.459-2.674-.653-.905-1.33-1.808-1.504-2.006-.174-.198-.317-.545-.317-.77 0-.357.137-.412 1.029-.412.754 0 1.138.11 1.44.411.372.372.685.411 3.291.411h2.88v-.576c0-.697 1.13-2.303 1.619-2.303.522 0 2.41 2.044 2.728 2.956.185.528.565.993 1.13 1.38.467.323 1.316 1.214 1.886 1.982 1.233 1.662 1.804 2.22 2.562 2.508l.566.214v4.948h-4.462zm-2.736-11.058c.112-.338-.532-.579-.809-.303-.118.119-.15.321-.07.45.182.295.764.197.879-.147zM74.36 24.005c-.664-.664-.7-.773-.7-2.16 0-1.133.067-1.46.297-1.46.193 0 .318.267.36.771l.063.772 1.46.06c1.098.045 1.522-.017 1.714-.248.382-.46.08-1.111-.56-1.209-.306-.046 1.354-.098 3.69-.115l4.246-.031 1.153.97 1.154.97v2.38H75.06zm13.08-.586-.004-1.286-1.282-1.075-1.283-1.076-5.667-.004-5.668-.004-.464-1.44-.464-1.44h-7.583l-.753-1.135-.753-1.134-5.96.054-5.959.055-.6 1.954c-.33 1.075-.742 2.44-.916 3.034-.271.932-.385 1.08-.83 1.08-.621 0-.637.1.625-4.011l.883-2.88 6.36-.054 6.359-.055.821 1.333.822 1.333 10.285.01 10.285.01 1.421 1.9c.782 1.045 1.97 2.353 2.64 2.908 1.17.967 1.213 1.037 1.08 1.744-.257 1.374-.379 1.465-1.96 1.465h-1.432zM74.69 21.115c0-.697.032-.73.72-.73.396 0 .72.093.72.206 0 .113.284.205.631.205.537 0 .622.07.566.463-.06.416-.197.47-1.351.524l-1.286.062zm36.41-1.861v-2.366H116.037v3.638l-1.394.546c-.878.345-1.792.547-2.468.547H111.1zm-18.813.668c.059-1.777.067-1.8.624-1.8.489 0 .52.053.399.669-.334 1.688-1.069 2.501-1.023 1.131zm-41.373-.308c.285-.906 1.148-3.834 1.148-3.894 0-.036 2.533-.066 5.628-.066h5.628l.751 1.131.751 1.132h7.558l.23.913c.127.503.23.966.23 1.029 0 .063-4.958.115-11.018.115-10.4 0-11.013-.02-10.906-.36zm-2.062-1.537c.134-.668.445-1.143.629-.96.16.161-.348 1.622-.564 1.622-.112 0-.14-.285-.065-.662zm17.61-2.629c0-.411.103-.617.308-.617.206 0 .309.206.309.617 0 .411-.103.617-.309.617-.205 0-.308-.206-.308-.617zm-1.543 0c-.366-.404-.36-.411.38-.411.614 0 .751.075.751.411 0 .263-.137.411-.38.411-.208 0-.546-.185-.751-.41zm2.571 0c0-.395.137-.411 3.497-.411s3.497.016 3.497.411c0 .395-.137.411-3.497.411s-3.497-.016-3.497-.41zm7.406-.103c0-.491.055-.514 1.234-.514 1.18 0 1.234.023 1.234.514 0 .492-.055.514-1.234.514-1.18 0-1.234-.022-1.234-.514zm3.29 0c0-.434.097-.514.618-.514s.617.08.617.514-.096.514-.617.514-.617-.08-.617-.514zm1.852 0c0-.377.11-.514.412-.514.301 0 .411.137.411.514s-.11.514-.411.514c-.302 0-.412-.137-.412-.514zm1.44-.022c0-.433.07-.506.36-.378.198.086 1.031.199 1.852.25 1.092.068 1.49.169 1.49.378 0 .223-.407.286-1.85.286h-1.852zm7.251.122c-.254-.104-.463-.331-.463-.505 0-.256.345-.323 1.852-.358 4.01-.092 3.794-.118 3.794.455v.514l-2.36.042c-1.298.022-2.568-.044-2.823-.148zm-54.974-3.26V9.13l1.08-.13c.594-.072 7.166-.13 14.605-.132l13.525-.002v4.732h-1.646V9.483h-2.082c-1.952 0-2.065.022-1.805.36.153.198.858 1.067 1.568 1.933.71.865 1.29 1.628 1.29 1.697 0 .068-.216.124-.48.124-.346 0-.854-.437-1.796-1.543-.722-.849-1.362-1.538-1.421-1.532-.06.006-.656.7-1.325 1.543-1.021 1.285-1.315 1.532-1.825 1.532-.697 0-.744.095.955-1.91.555-.655.964-1.237.908-1.293-.056-.055-1.274-.075-2.705-.043l-2.603.057 1.36 1.543 1.36 1.543-.585.07c-.503.061-.787-.15-2.025-1.5l-1.44-1.572-1.285 1.545c-.707.85-1.286 1.594-1.286 1.655 0 .06.963.11 2.14.11h2.141l-.22.72-.222.72H33.755zm4.47-.154c.992-1.201 1.835-2.266 1.872-2.366.038-.1-.818-.182-1.902-.182h-1.972v1.973c0 1.8-.036 1.983-.411 2.081-.593.155-.516.677.1.677.398 0 .906-.48 2.313-2.183zm4.05.177a112.898 112.898 0 0 1-1.457-1.671c-.055-.082-.685.639-1.99 2.275l-.788.99H43.679zm3.828-.257 1.285-1.543-1.365-.06a36.302 36.302 0 0 0-2.7 0l-1.332.06 1.368 1.593c.753.877 1.39 1.57 1.414 1.543.024-.028.623-.744 1.33-1.593zm65.408 1.954v-.925h4.526v.585c0 1.017-.519 1.266-2.64 1.266h-1.886zm-25.919-1.31V10.51H63.376V7.83l16.234.055 16.233.055.626.463c.573.423.85.463 3.273.463 2.614 0 2.648.006 2.632.462-.016.448.054.465 2.092.522l2.108.058v-.521c0-.489.065-.521 1.029-.521.907 0 1.028.05 1.028.43 0 .238.155.694.344 1.014l.344.583 4.49-.12 4.49-.12v1.915H95.5l-.63.796-.63.796-2.318.134c-1.275.073-3.221.19-4.324.259l-2.006.125zm1.734 1.48c.17-.444-.325-.944-.767-.774-.286.11-.339.462-.16 1.067.066.22.823-.02.927-.294zm5.956-.89c.553-.612.901-.823 1.36-.823.488 0 .618-.09.618-.424 0-.234-.095-.604-.213-.823-.193-.361-.452-.398-2.815-.398-2.388 0-2.641.037-3.078.447-.365.343-.476.67-.476 1.399 0 .523.11 1.063.247 1.198.151.152.895.247 1.93.247h1.683zm-4.056.069c-.283-.283-.126-1.454.24-1.785.301-.274.821-.34 2.632-.34 1.482 0 2.342.084 2.504.246.376.376.297.576-.227.576-.271 0-.772.307-1.172.72-.677.7-.743.72-2.268.72-.865 0-1.633-.062-1.709-.137zm12-1.338c0-.952-.529-1.2-2.562-1.2-2.056 0-2.375.145-2.375 1.07v.576h2.468c2.397 0 2.469-.013 2.469-.446zm-4.526-.13c0-.678.443-.863 2.067-.863 1.294 0 1.636.07 1.933.398.606.67.219.836-1.955.836-1.832 0-2.045-.039-2.045-.37zm10.491.13c0-.948-.53-1.2-2.535-1.2-2.033 0-2.607.257-2.607 1.164 0 .48.01.482 2.571.482 2.502 0 2.571-.012 2.571-.446zm-4.73-.036c0-.64.725-.957 2.195-.957 1.137 0 1.515.08 1.783.376.677.748.444.858-1.819.858-1.672 0-2.16-.063-2.16-.277zm-6.275-1.675c0-.453-.64-.68-.975-.344-.346.346-.004.892.511.819.304-.043.464-.207.464-.475zm5.966-.002c0-.302-.138-.412-.515-.412-.478 0-.68.344-.457.783.176.346.972.041.972-.371zm-37.194-.36c.304-.408.2-.862-.215-.943-.523-.1-.819.247-.653.768.153.482.575.567.868.175zm2.016-.364c-.001-.362-.128-.529-.436-.573-.522-.075-.808.5-.459.92.37.445.897.24.895-.347zm-3.266 4.434c-.194-.298-.332-.936-.332-1.543v-1.036h3.291v3.086h-1.313c-1.169 0-1.35-.056-1.646-.507zm3.37-1.036c0-.892.088-1.543.207-1.543.118 0 .205.651.205 1.543 0 .891-.087 1.543-.205 1.543-.12 0-.206-.652-.206-1.543zm.824-.005v-1.548l3.342.056 3.343.057.06 1.491.061 1.492h-6.806v-1.548zm13.422 1.402c-.427-.082-.463-.2-.463-1.514v-1.426h4.32v3.086l-1.697-.028c-.934-.016-1.906-.069-2.16-.118zM75.1 12.79c0-1.329.037-1.455.421-1.455.388 0 .416.107.36 1.386-.05 1.128-.128 1.4-.42 1.455-.316.06-.36-.111-.36-1.386zm2.263-.015c0-1.143.064-1.44.309-1.44s.308.297.308 1.44-.063 1.44-.308 1.44-.309-.297-.309-1.44zm1.029 0c0-1.303.039-1.44.411-1.44s.411.137.411 1.44-.039 1.44-.411 1.44-.411-.137-.411-1.44zm1.44 0c0-1.143.063-1.44.308-1.44s.309.297.309 1.44-.064 1.44-.309 1.44-.308-.297-.308-1.44zm-3.292-.103c0-.754.09-1.337.206-1.337.116 0 .206.583.206 1.337s-.09 1.337-.206 1.337c-.116 0-.206-.583-.206-1.337zm-73.364-.62c-.01-1.656.015-1.76.456-1.87.93-.234 1.216-.034 1.284.898.058.81.105.872.656.872s.598-.062.657-.874c.057-.782.123-.881.629-.94.545-.062.566-.03.566.887v.952l.771-.064c.749-.062.773-.09.835-.938.056-.773.121-.874.565-.874.459 0 .503.08.503.925 0 .921.004.926.72.926s.72-.005.72-.926c0-.92.003-.925.72-.925h.72v3.702H3.188Zm10.255.07c.04-.95.152-1.504.318-1.56.19-.062.257.32.257 1.476 0 1.269-.06 1.56-.317 1.56-.263 0-.308-.257-.258-1.475zm1.192-.067v-1.337h18.72v2.674h-18.72Zm104.087-.44v-.953l2.383.147c2.68.165 3.17-.015 3.17-1.16v-.592l1.904.059 1.902.06.06 1.696.06 1.697h-2.074v-1.44h-6.583v.72c0 .583-.078.72-.411.72-.352 0-.411-.137-.411-.953zm1.39.234.098-.514h5.3v1.028h-5.497zm-10.687-1.838c-.237-.255-.371-.715-.371-1.274 0-1.521-.023-1.517 7.296-1.513 7.419.003 7.378-.005 7.475 1.515.107 1.671.03 1.7-3.977 1.492-1.931-.1-4.875-.1-6.74 0-3.137.169-3.331.157-3.683-.22zm2.056-.157c.343-.344.308-.886-.079-1.208-.641-.532-1.445.5-.9 1.156.301.363.65.382.979.052zm-.889-.377c-.08-.13-.048-.332.07-.45.277-.276.921-.035.809.302-.115.344-.697.442-.879.148zm11.868.283c.207-.187.376-.412.376-.5 0-.214-.603-.805-.823-.805-.229 0-.823.594-.823.823 0 .2.583.823.77.823.068 0 .293-.153.5-.34zm-.858-.482c0-.274.137-.411.411-.411.274 0 .411.137.411.41 0 .275-.137.412-.411.412-.274 0-.411-.137-.411-.411zm-18.909-.12c.01-.24.059-.288.124-.124.06.148.052.326-.016.394s-.117-.053-.108-.27zm.6.017c0-.17.093-.308.207-.308.113 0 .205.138.205.308 0 .17-.092.309-.205.309-.114 0-.206-.14-.206-.309zm.824 0a.31.31 0 0 1 .308-.308.31.31 0 0 1 .309.308.31.31 0 0 1-.309.309.31.31 0 0 1-.308-.309zm1.028.103c0-.113.278-.206.617-.206.34 0 .617.093.617.206 0 .113-.277.206-.617.206-.34 0-.617-.093-.617-.206zM96.81 7.893c-.109-.433-.04-.643.296-.916.675-.546 1.327-.21 1.407.728.063.746.06.75-.75.75-.713 0-.83-.07-.953-.562zM65.568 7.47c-1.914-.05-2.213-.104-2.108-.377.067-.175.122-.727.122-1.227 0-.71.075-.909.342-.909.46 0 2.162 1.006 2.498 1.475.148.207.404.376.568.376.165 0 .478.112.696.248.313.195.507.188.927-.037.408-.219.587-.228.774-.042.319.32.926.31 1.035-.014.068-.201.207-.193.634.034.474.253.623.253 1.096 0 .428-.227.567-.235.635-.034.11.326.56.329 1.078.005.318-.199.456-.199.655 0 .303.303.993.335.993.046 0-.113.185-.206.411-.206.226 0 .412.093.412.206 0 .284.534.258 1.058-.051.348-.206.454-.206.528 0 .12.329.725.332 1.052.005.199-.2.337-.2.655 0 .488.304 1.026.329 1.026.046 0-.113.186-.206.412-.206.226 0 .411.093.411.206 0 .285.688.259.983-.037.187-.186.362-.18.755.031.42.225.568.226.834.006.265-.22.413-.22.83.004.424.227.596.223 1.055-.02.427-.229.566-.236.634-.035.17.51.832.271 2.538-.913.669-.464.938-.79.926-1.118-.015-.378.131-.495.79-.635.508-.108.886-.094 1.018.038.143.143.074.21-.217.21-.876 0-1.171 1.051-.427 1.52.265.167.464.16.756-.022.348-.217.447-.16.816.465.33.558.552.712 1.032.712.337 0 .655.07.708.154.089.144-24.048.224-28.94.096zm25.463-1.916c-.076-.123.01-.375.194-.558.307-.307.359-.307.666 0 .388.389.22.784-.333.784-.213 0-.45-.102-.527-.226z" style="fill:#000;stroke-width:.205704;fill-opacity:1"/></svg>