<svg xmlns="http://www.w3.org/2000/svg" width="343.151" height="128" viewBox="0 0 90.792 33.867"><path d="M15.97 30.57c-.068-.068-.123-.357-.123-.644 0-.48.055-.522.734-.543.404-.012.838-.033.964-.046.173-.017.242-.857.28-3.374l.05-3.352h-2.028V21.326h.924c.714 0 .95.073 1.038.321.235.665.661.964 1.372.964h.706v2.446c0 2.881-.27 4.024-1.174 4.984-.558.59-.706.65-1.618.65-.552 0-1.059-.054-1.126-.122zm1.53-8.571c0-.345-.177-.48-.478-.366-.39.15-.307.61.11.61.202 0 .367-.11.367-.244zm-1.286 6.673c0-.281.122-.368.52-.368.611 0 .777.124.641.477-.054.142-.338.258-.63.258-.409 0-.531-.085-.531-.367zm47.593-.058c-.252-.304-.104-.496.933-1.201 1.247-.849 1.941-1.646 2.3-2.644.343-.951.708-1.127.884-.426.128.51-.025 1.105-.397 1.546-1.057 1.25-1.583 1.738-2.49 2.306-.808.504-1.082.597-1.23.419zm-23.61-.54c-.254-.227-.507-.66-.562-.963l-.1-.551.21.55c.115.304.29.655.39.781.255.322 8.41.33 8.732.01.356-.358.251-.6-.116-.268-.29.263-.868.304-4.293.304-2.946 0-4.005-.059-4.142-.23-.1-.126-.319-.701-.484-1.278a26.94 26.94 0 0 0-.41-1.332c-.087-.229.054-.282.75-.282 1.056 0 1.492-.218 1.643-.822l.117-.464h6.788v.518c0 .285.13.959.29 1.498.161.54.254 1.182.207 1.428-.073.38-.047.409.166.195.214-.213.196-.447-.114-1.531-.201-.704-.366-1.466-.366-1.694 0-.679.322-.468.42.275.126.946.526 2.32.712 2.444.084.056-.208.49-.65.964l-.802.862h-3.961c-3.85 0-3.976-.012-4.425-.413zm8.713-.884c.158-.296.138-.48-.092-.83l-.295-.45-3.89.05-3.891.049-.223.447c-.151.303-.166.555-.045.78.164.307.504.334 4.205.334 3.883 0 4.035-.014 4.23-.38zm-8.145.077c-.237-.237-.126-.943.165-1.055.447-.172 7.298-.127 7.576.05.135.085.218.353.184.594l-.062.438-3.869.05c-2.127.027-3.925-.008-3.994-.077zm.79-.294c-.002-.126-.085-.354-.184-.505-.16-.245-.201-.245-.362 0-.288.44-.216.734.181.734.202 0 .366-.103.365-.23zm6.881.058c.058-.094.02-.223-.084-.288-.104-.064-.142-.194-.084-.288.058-.094.027-.17-.069-.17-.173 0-.398.423-.398.749 0 .22.499.218.635-.003zm-5.455-2.874c-.175-.175-.526.108-.396.32.078.125.18.122.312-.01.108-.108.146-.248.084-.31zm5.188.096c0-.095-.124-.173-.276-.173-.284 0-.365.217-.158.424.147.147.434-.02.434-.25zm-31.496 3.878-.918-.115.964-.086c.695-.061.964-.02.964.145 0 .126-.02.216-.046.2-.025-.015-.459-.08-.964-.144zm-.55-.561c-.07-.111.184-.184.642-.184.457 0 .711.073.643.184-.063.1-.352.183-.643.183-.291 0-.58-.082-.643-.183zm47.265-.138c-.227-.289-.22-.297.059-.078.265.207.402.18.929-.184.703-.485 1.81-1.686 2.147-2.327.206-.392.116-.596-.984-2.248-.665-1-1.21-1.856-1.21-1.904 0-.048-.337-.607-.75-1.242-.628-.968-.735-1.264-.66-1.843.11-.836-.085-.917-1.99-.835l-1.282.055.052.643c.133 1.623.095 2.589-.108 2.792-.318.318-.27.845.128 1.404l.347.487-3.546-.057c-3.494-.056-3.56-.05-4.473.414-.714.361-1.204.47-2.128.47-1.08 0-1.2-.038-1.2-.37 0-.328.083-.356.735-.252l.735.117V15.931l.55.528c.399.381.552.699.552 1.145 0 .723.337 1.427 1.32 2.757l.711.965h2.006c1.164 0 2.208-.093 2.487-.22.641-.292 1.005-1.044 1.005-2.076s-.364-1.784-1.005-2.076c-.31-.142-1.549-.22-3.492-.22-1.809 0-3.056-.073-3.124-.183-.075-.121 2.263-.184 6.876-.184 4.537 0 6.99.065 6.99.184 0 .1-.292.183-.647.183-.515 0-.69.096-.86.469-.183.4-.142.609.275 1.423 1.046 2.042 2.2 3.826 2.936 4.534.426.41.435.464.2 1.246-.28.926-1.247 2.096-2.352 2.841-.882.596-.904.6-1.229.185zm-11.96-5.51c.1-.301-.475-.516-.721-.27-.106.106-.134.287-.063.402.163.263.682.176.784-.131zm-.596-.045c-.063-.101.02-.184.183-.184.164 0 .246.083.184.184-.063.1-.145.183-.184.183-.038 0-.121-.082-.183-.183zm-34.159 5.152-.918-.115.964-.085c.695-.062.964-.022.964.144 0 .126-.02.216-.046.2-.025-.015-.459-.08-.964-.144zm46.236-1.066c-.47-.783-.848-1.221-1.025-1.19-.155.029-.333-.032-.397-.135-.067-.11.003-.141.17-.077.157.06.285.018.285-.094 0-.111-.062-.203-.137-.203-.076 0-.373-.373-.66-.827-.287-.455-.592-.784-.676-.731-.085.052-.214-.002-.287-.12-.083-.134-.053-.166.079-.084.326.201.256-.017-.255-.789-.46-.696-.463-.717-.16-1.473.22-.55.27-1.01.182-1.63-.251-1.745-.363-1.594 1.226-1.654l1.423-.053v.81c0 .692.195 1.114 1.338 2.9.736 1.15 1.562 2.42 1.836 2.821.274.403.499.922.499 1.155 0 .457-2.028 2.613-2.457 2.613-.132 0-.575-.557-.984-1.24zm1.88-3.722c0-.393-.534-.336-.611.065-.048.246.027.32.273.273.186-.035.338-.188.338-.338zm-1.971 4.273c-.14-.278-.403-.733-.586-1.01-.182-.278-.292-.505-.243-.505.116 0 .955 1.286 1.108 1.698.185.499.003.38-.28-.183zm-46.709-.184c.048-.33.666-.519 1.125-.343.48.184.072.664-.564.664-.473 0-.597-.07-.56-.32zm.564-.586-.918-.116.964-.085c.695-.061.964-.021.964.144 0 .127-.02.217-.046.201-.025-.016-.459-.08-.964-.144zm22.428-.293a1.548 1.548 0 0 1-.103-.513c.006-.118.09-.017.188.225.096.242.143.473.102.513-.04.04-.124-.061-.187-.225zm-23.07-.269c0-.1.335-.183.745-.183.45 0 .7.072.632.183-.063.101-.398.184-.746.184-.347 0-.632-.083-.632-.184zm-.082-.533c-.056-.091.311-.195.816-.23.646-.044.918.005.918.166 0 .269-1.571.327-1.734.064zm.173-.569c-.069-.11.185-.183.643-.183.457 0 .711.072.643.183-.063.101-.352.184-.643.184-.291 0-.58-.083-.643-.184zm24.367-.964c.016-.631-.017-1.443-.073-1.804-.12-.774-.628-1.823-.883-1.823-.099 0-.183-.186-.187-.413-.012-.645-.6-1.594-1.17-1.89-.414-.214-1.6-.276-5.96-.307-4.872-.035-5.106-.05-2.23-.138 3.025-.093 3.215-.12 3.28-.466.038-.202.163-.428.278-.502.115-.074 1.507-.136 3.094-.138l2.886-.002L41 18.112c.811 1.363 1.476 2.528 1.476 2.588 0 .06.265.554.59 1.097l.591.988 2.302.057 2.302.057-2.411.04c-1.954.032-2.455-.012-2.64-.236a.841.841 0 0 0-.564-.275c-.434 0-1.206.719-1.444 1.345-.102.27-.311.491-.464.491-.221 0-.272-.233-.249-1.147zm.85-.335c-.037-.109-.145-.197-.24-.197-.097 0-.205.088-.241.197-.036.109.072.197.24.197.169 0 .277-.088.24-.197zm.953-.813c0-.151-.078-.275-.173-.275-.231 0-.397.287-.25.433.206.207.423.126.423-.158zm-8.142-5.521c.153-.4-.236-.774-.514-.496-.235.235-.09.783.208.783.108 0 .245-.13.306-.287zm-.49-.274c0-.107.083-.144.184-.081.101.062.184.15.184.194 0 .045-.083.081-.184.081-.1 0-.183-.087-.183-.194zm5.51 0c0-.095-.124-.173-.276-.173-.284 0-.364.217-.158.423.147.147.434-.019.434-.25zm2.231 7.54c.106-.303.278-.55.384-.55.105 0 .297-.145.427-.322.225-.306.262-.306.783 0 .425.25 1.034.33 2.723.36 2.106.038 2.08.042-.855.138-2.921.095-3.037.113-3.211.512-.27.613-.473.5-.25-.138zm-2.38.01c.034-.366-.062-.566-.223-.466-.103.064-.17.048-.147-.035.07-.257-.23-.978-.407-.978-.092 0-.296-.25-.455-.557-.167-.323-.373-.504-.492-.43-.125.077-.152.042-.07-.092.169-.272-.679-1.746-1.223-2.126-.338-.237-1.13-.284-4.772-.284h-4.366v-1.653h10.63l.326.55c.179.304.38.552.445.552.066 0 .58.934 1.142 2.076.893 1.817 1.008 2.174.917 2.85-.1.744-.128.773-.71.734-.333-.022-.601-.086-.596-.142zm-22.899-.194c-.07-.112.212-.183.724-.183.46 0 .837.082.837.183 0 .101-.326.184-.724.184-.398 0-.774-.083-.837-.184zm44.535-.183c-.108-.202-.156-.368-.105-.368.05 0 .18.166.288.368.108.202.156.367.105.367-.05 0-.18-.165-.288-.367zm-44.443-.368c0-.1.243-.183.54-.183.297 0 .591.082.654.183.067.11-.151.184-.54.184-.36 0-.654-.083-.654-.184zm50.089-.645a19.176 19.176 0 0 1-1.121-1.76l-.456-.844.424.081c.867.166 1.932-.949 1.934-2.023 0-.462.047-.497.505-.387.75.181 3.56 1.176 4.07 1.44.435.227.43.232-.266.363-1.077.202-2.319.907-2.931 1.663-.303.374-.65.786-.77.914-.122.129-.334.512-.472.852l-.252.617zm-18.063.32c-.112-.074-.341-.402-.51-.73-.29-.569-.356-.597-1.357-.598h-1.05l-.538-1.102c-.295-.605-.595-1.101-.666-1.101-.071 0-.235-.253-.363-.563-.193-.467-.189-.606.024-.812.313-.305.74-.341 3.608-.306l2.25.028v2.395c0 2.046-.038 2.36-.258 2.158-.142-.13-.245-.279-.23-.33.016-.05-.054-.09-.155-.09-.1 0-.163.061-.138.137.026.076-.03.138-.125.138-.094 0-.198.204-.23.454-.036.282-.135.404-.262.321zm.11-1.924c-.002-.227-.318-.992-.702-1.699l-.699-1.285-1.274-.054c-.896-.037-1.382.027-1.64.215-.364.267-.363.27.037.697.221.235.62.903.886 1.484l.483 1.055h1.456c1.388 0 1.455-.02 1.452-.413zm-3.39-1.126c-.383-.745-.64-1.448-.57-1.56.072-.117.624-.207 1.27-.207h1.143l.683 1.38c.375.76.683 1.462.683 1.562 0 .1-.555.18-1.256.18h-1.256zm1.556-.39c0-.302-.503-.5-.653-.258-.063.101-.069.303-.013.448.12.311.666.156.666-.19zm2.709-1.3c-.175-.175-.526.108-.396.32.078.125.18.122.312-.01.108-.108.146-.248.084-.31zm34.388 4.68c-1.016-.162-6.073-1.779-6.244-1.998-.093-.119-3.41-1.302-4.592-1.638-.353-.1-1.965-.64-3.58-1.2-1.617-.56-3.166-1.019-3.444-1.02-.466-.003-.505-.059-.505-.737v-.735h-.79c-.88 0-1.23-.241-1.23-.848 0-.858.167-.988 1.268-.988.575 0 1.145-.1 1.266-.22.121-.122.22-.618.22-1.102 0-.76.052-.882.368-.882.323 0 .367.122.367 1.01 0 .556.083 1.01.184 1.01.1 0 .183-.454.183-1.01v-1.01H82.95l.515.493.515.494v4.345c0 4.111-.02 4.362-.367 4.677-.723.654-.344.947 1.377 1.064l.551.038.048-6.298.049-6.298-1.334.054-1.334.054-.058.596-.057.597h-7.87c-6.117 0-7.894-.05-7.977-.23-.086-.183-.129-.183-.214 0-.06.127-.266.23-.46.23-.296 0-.352-.134-.352-.852v-.852l.965.116c.53.064 4.993.117 9.917.118l8.952.001V22.795l-.596-.022a17.19 17.19 0 0 1-1.607-.181zm-.112-1.741c.062-.16.112-2.076.112-4.258 0-5.307.536-4.818-5.278-4.818-2.737 0-4.618.074-4.835.19-.323.173-.355.405-.355 2.538 0 2.32.006 2.355.521 2.932.287.321.584.584.661.584.181 0 4.792 1.622 5.549 1.952.318.138.663.252.767.252.104 0 .3.11.435.246.61.61 2.237.866 2.423.382zm-1.357-.023c-.152-.06-.317-.166-.368-.235-.05-.07-.257-.22-.459-.334-.362-.206-.362-.209.021-.214.55-.008 1.356-.695 1.654-1.408.168-.401.253-1.353.253-2.816v-2.21l-.505-.022c-3.277-.149-9.045-.222-9.045-.115 0 .076-.082.137-.183.137-.101 0-.184-.185-.184-.413v-.413h3.995c3.428 0 3.994-.039 3.994-.275 0-.233-.594-.29-3.857-.373l-3.856-.098 4.525-.04c4.074-.036 4.564-.008 4.918.281.383.313.391.423.341 4.453l-.05 4.133-.46.035c-.252.02-.583-.014-.734-.073zm-17.847-6.727c.035-.177-.058-.306-.218-.306-.342 0-.548.3-.386.56.166.27.533.115.604-.254zm6.828-2.326a.184.184 0 0 0-.184-.184.184.184 0 0 0-.184.184.184.184 0 0 0 .367 0zM86 16.183v-6.61h.529c.29 0 .613.102.718.229.255.308.473 1.533.318 1.784-.246.398-.425 7.451-.195 7.681.053.053.01.2-.095.327-.132.16-.132.266.002.349.106.065.193.605.193 1.2 0 .908-.065 1.126-.408 1.366-.225.157-.556.286-.735.286-.307 0-.327-.398-.327-6.611zm-41.432 6.138a2.95 2.95 0 0 0 .11-.322c0-.017.662-.004 1.47.03 1.121.045 1.47.121 1.47.32 0 .207-.336.262-1.58.262-1.367 0-1.566-.04-1.47-.29zm-26.18-.115c-.424-.329-.502-.88-.209-1.477.376-.766 1.19-.702 1.706.135.218.351.369.827.336 1.056-.048.342-.19.425-.793.47-.404.03-.872-.053-1.04-.184zm1.188-.534c.275-.44.02-.897-.5-.897-.56 0-.884.497-.63.97.213.4.86.358 1.13-.073zm-.908-.07c-.063-.165-.027-.39.08-.497.28-.28.81-.024.737.356-.081.422-.67.524-.817.141zm24.855.515a68.98 68.98 0 0 1-.636-1.165l-.548-1.016.613.071c.43.05.649.189.734.466.066.216.29.554.496.75.293.28.318.375.115.435-.143.042-.356.197-.472.343-.117.145-.252.198-.302.116zm.422-.057c0-.1.078-.183.173-.183.095 0 .223.082.286.183.062.101-.015.184-.173.184-.157 0-.286-.083-.286-.184zm39.801-.127c-.293-.077-.28-.14.138-.636l.463-.55v-8.419l-.656-.727c-.438-.484-.637-.867-.597-1.148.054-.381.17-.427 1.207-.476l1.148-.055V22.06l-.689-.021c-.378-.012-.835-.06-1.014-.106zm1.152-.424c0-.1-.129-.183-.286-.183-.158 0-.235.082-.173.183.063.101.191.184.286.184.095 0 .173-.083.173-.184zm-.101-9.749a.205.205 0 0 0-.282-.066.205.205 0 0 0-.066.281c.059.096.185.126.281.067a.205.205 0 0 0 .067-.282zm-40.239 9.566c-.179-.303-.38-.551-.448-.551-.067 0-.166-.166-.218-.368-.18-.683.544-.428.91.322.321.657.382.691 1.347.745 1.55.087 1.587.403.047.403-1.263 0-1.324-.021-1.638-.551zm-29.44-.388c-.545-.218-.734-.483-.738-1.036l-.003-.413h6.818l-.057.669c-.043.5-.163.708-.477.823-.344.126-.448.077-.582-.277-.326-.857-1.53-.926-1.991-.114-.295.517-.379.549-1.415.54-.606-.007-1.306-.093-1.556-.192zm.315-1.005c-.175-.175-.525.108-.395.32.078.125.18.122.312-.01.108-.108.146-.248.083-.31zm5.372.107c0-.1-.124-.184-.275-.184-.152 0-.276.083-.276.184 0 .101.124.184.276.184.151 0 .275-.083.275-.184zm-11.156.093c-.499-.567-.24-.644 2.157-.644h2.388v.46c0 .252-.083.458-.184.458a.184.184 0 0 1-.183-.183c0-.101-.207-.184-.46-.184-.252 0-.459.083-.459.184 0 .302-2.987.218-3.26-.091zm11.707-.185v-.459h2.48c2.506 0 2.789.084 2.216.656-.333.333-2.71.359-3.23.035-.29-.182-.438-.182-.729 0-.544.34-.737.279-.737-.232zm34.342.276c0-.101.083-.184.184-.184.105 0 .184-.55.184-1.285 0-.735-.08-1.286-.184-1.286-.101 0-.184-.124-.184-.275 0-.193.194-.276.643-.276h.643v1.017c0 1.122-.554 2.472-1.014 2.472-.15 0-.272-.082-.272-.183zM42.56 19.66c-.067-.108-.082-.236-.034-.284.049-.048.137.04.197.196.124.324.018.38-.163.088zm.467-.08c0-.283.48-.362.995-.164.508.195.312.44-.353.44-.449 0-.642-.084-.642-.276zm-1.698-1.35c-.757-1.257-.81-1.41-.493-1.463.487-.081.475-.768-.013-.768-.225 0-.37.124-.373.321-.006.291-.032.288-.276-.035-.422-.558-.332-.653.617-.653.703 0 .973.092 1.31.45.341.364.64.464 1.547.516l1.123.065-1.125.035c-1.473.046-1.694.294-1.174 1.314.377.74.378.766.045 1.19l-.341.433zm-32.186.747c-.561-.482-1.01-1.263-1.01-1.76 0-.42.05-.443.781-.351.43.054.859.17.955.258.305.28 1.386.191 1.386-.115 0-.184.185-.276.557-.276.326 0 .6.115.663.276.065.17.345.275.734.275.39 0 .67-.104.735-.275.064-.168.342-.276.709-.276.367 0 .645.108.71.276.061.162.337.275.667.275s.606-.113.668-.275c.06-.154.332-.276.618-.276.285 0 .558.122.617.276.06.157.335.275.64.275.294 0 .637-.124.763-.275a.868.868 0 0 1 .587-.276c.196 0 .481.124.633.276.151.151.52.275.819.275.314 0 .588-.116.65-.275.058-.154.331-.276.617-.276.285 0 .558.122.617.276.066.173.347.275.754.275.454 0 .649-.082.649-.275 0-.43.856-.35.971.092.065.248.25.367.573.367.616 0 .629.473.017.626-.364.092-.46.231-.46.675 0 .502-.051.554-.504.502-.398-.046-.523-.174-.598-.61-.084-.488-.167-.55-.736-.55-.589 0-.645.048-.698.597-.05.521-.124.596-.585.596-.461 0-.535-.075-.586-.595-.062-.642-.383-.81-1.174-.611-.348.088-.444.232-.444.671 0 .502-.052.554-.505.502-.4-.046-.518-.166-.564-.574-.068-.588-.381-.769-1.043-.603-.361.091-.46.232-.46.663 0 .483-.062.547-.539.547-.474 0-.546-.072-.596-.596-.053-.55-.11-.597-.7-.597-.592 0-.648.048-.701.597-.053.546-.11.596-.689.596-.542 0-.63-.061-.63-.436 0-.994-1.304-1.177-1.47-.206-.081.467-.178.55-.643.55-.464 0-.561-.083-.642-.55-.069-.4-.21-.568-.517-.611-.542-.077-.981.288-.914.76.07.485-.225.557-.682.166zm.368-1.509c-.089-.144-.195-.154-.317-.032a.341.341 0 0 0-.05.4c.088.143.194.154.316.031a.341.341 0 0 0 .05-.399zm2.57 0c-.088-.144-.194-.154-.316-.032a.341.341 0 0 0-.05.4c.088.143.194.154.317.031a.341.341 0 0 0 .05-.399zm7.99.173c0-.095-.124-.173-.276-.173-.284 0-.365.217-.158.424.147.146.434-.02.434-.251zm-5.143.01c0-.1-.165-.183-.367-.183-.202 0-.367.083-.367.184 0 .1.165.183.367.183.202 0 .367-.082.367-.183zm2.571 0c0-.1-.123-.183-.275-.183-.151 0-.275.083-.275.184 0 .1.124.183.275.183.152 0 .275-.082.275-.183zm5.326 0a.184.184 0 0 0-.183-.183.184.184 0 0 0-.184.184.184.184 0 0 0 .367 0zm2.571 0a.184.184 0 0 0-.183-.183.184.184 0 0 0-.184.184.184.184 0 0 0 .367 0zm-15.242 1.194c0-.367.091-.459.459-.459.367 0 .459.092.459.46 0 .367-.092.458-.46.458-.367 0-.458-.091-.458-.459zm2.57 0c0-.367.092-.459.46-.459.367 0 .459.092.459.46 0 .367-.092.458-.46.458-.367 0-.458-.091-.458-.459zm2.886.345c-.072-.072-.13-.282-.13-.467 0-.253.139-.337.563-.337.48 0 .555.062.505.413-.058.408-.667.662-.938.39zm2.57 0c-.071-.072-.13-.282-.13-.467 0-.253.14-.337.564-.337.48 0 .555.062.505.413-.058.408-.667.662-.938.39zm2.755 0c-.071-.072-.13-.282-.13-.467 0-.253.14-.337.564-.337.48 0 .555.062.505.413-.058.408-.668.662-.939.39zm2.625-.345c0-.367.092-.459.459-.459s.46.092.46.46c0 .367-.093.458-.46.458s-.46-.091-.46-.459zm2.497.324c-.263-.263-.093-.783.258-.783.238 0 .367.123.367.348 0 .349-.42.64-.625.435zm16.731-1.043c-.325-.582-.397-.867-.254-1.01.25-.25 2.329-.264 2.329-.015 0 .1-.235.183-.522.183-.713 0-1.228.577-.962 1.075.242.452.249.578.03.578-.092 0-.371-.365-.62-.811zm-16.954-1.106a1.096 1.096 0 0 1-.04-.538c.05-.224.141-.208.51.094.371.302.404.396.184.535-.374.236-.537.214-.654-.091zm19.18-.195c-.192-.42-.31-.459-1.378-.459-1.073 0-1.186-.038-1.381-.467-.183-.4-.156-.523.188-.867.22-.22.4-.3.4-.176s.124.225.275.225c.159 0 .276.165.276.39 0 .356.076.383.826.299.455-.051.827-.02.827.068 0 .088.124.16.275.16.152 0 .276-.063.276-.142 0-.078.338-.11.752-.07.655.062.743.027.682-.271-.054-.267-.223-.338-.769-.32-.641.02-.692-.014-.616-.413.046-.24.012-.436-.075-.436s-.158.207-.158.46c0 .252-.083.458-.184.458a.184.184 0 0 1-.183-.183c0-.101-.446-.184-.99-.184-.737 0-1.02-.075-1.103-.292-.2-.519.067-.626 1.553-.626 1.433 0 1.458.008 1.458.459 0 .285.104.459.275.459.158 0 .276-.166.276-.389 0-.315.086-.372.459-.3.252.048.46.016.46-.071s-.214-.158-.475-.158c-.29 0-.446-.087-.4-.223.102-.307 1.807-.193 2.153.144.236.23.23.262-.046.262-.173 0-.315.083-.315.184 0 .236.312.238.457.003.07-.113.244-.097.47.044.302.19.359.434.359 1.558v1.333H47.43c-2.177 0-2.21-.007-2.417-.46zm-34.86-.092c0-.269.122-.367.459-.367.336 0 .459.098.459.367 0 .27-.123.368-.46.368-.336 0-.458-.098-.458-.368zm2.57 0c0-.269.123-.367.46-.367.336 0 .459.098.459.367 0 .27-.123.368-.46.368-.336 0-.458-.098-.458-.368zm2.886.253c-.316-.315-.102-.62.434-.62.438 0 .55.072.503.322-.063.328-.703.532-.937.298zm2.57 0c-.315-.315-.101-.62.435-.62.438 0 .55.072.503.322-.063.328-.703.532-.937.298zm2.755 0c-.315-.315-.102-.62.435-.62.438 0 .55.072.503.322-.063.328-.703.532-.938.298zm2.625-.253c0-.269.122-.367.459-.367s.46.098.46.367c0 .27-.123.368-.46.368s-.46-.098-.46-.368zM8.245 16.26a1.683 1.683 0 0 1-.112-.46c0-.104 3.43-.152 8.678-.123l8.677.047.059.414c.048.336-.029.413-.413.413-.297 0-.472-.102-.472-.276 0-.193-.195-.275-.649-.275-.407 0-.688.102-.754.275-.06.157-.334.276-.637.276-.35 0-.531-.094-.531-.276 0-.204-.215-.275-.827-.275s-.826.071-.826.275c0 .184-.184.276-.551.276-.367 0-.551-.092-.551-.276 0-.193-.195-.275-.649-.275-.407 0-.687.102-.754.275-.06.157-.334.276-.637.276-.35 0-.531-.094-.531-.276 0-.199-.204-.275-.735-.275-.53 0-.734.076-.734.275 0 .191-.192.276-.623.276-.385 0-.664-.106-.73-.276-.066-.173-.346-.275-.753-.275-.454 0-.649.082-.649.275s-.194.276-.643.276-.643-.083-.643-.276-.194-.275-.648-.275c-.407 0-.688.102-.754.275-.149.387-1.459.375-1.608-.015zm18.804-.007c0-.247-.048-.258-.282-.064-.236.196-.373.147-.841-.299-.456-.434-.543-.64-.467-1.111.07-.44-.007-.672-.319-.964-.403-.38-.538-.386-8.25-.386H9.053v-2.02h13.414l1.461.734 1.461.735H33.293v.643c0 .63-.373.896-.643.459-.067-.11-1.218-.184-2.834-.184-2.195 0-2.766.053-2.95.276-.145.173-.157.275-.034.275a.412.412 0 0 0 .309-.184c.067-.108 1.153-.183 2.637-.183 2.784 0 3.511.18 3.514.872l.001.413h8.264v-.459c0-.336.098-.459.368-.459.42 0 .465.314.111.78-.22.29-.652.322-4.295.322-2.228 0-4.181.05-4.341.111-.16.062-.29.224-.29.362 0 .147-.114.206-.276.144-.174-.067-.275.003-.275.19 0 .258-.347.295-2.755.295-2.419 0-2.755-.036-2.755-.298zm5.107-1.217-.057-.78-2.02-.054c-2.635-.07-2.846-.013-2.846.76 0 .336.055.665.122.732.068.067 1.188.122 2.49.122h2.367zm-4.556-.052v-.648l2.158.051 2.158.052.057.597.058.597H27.6zm-1.653-1.463a.276.276 0 0 0-.275-.276.276.276 0 0 0-.276.276.276.276 0 0 0 .55 0zm-15.242-1.01c0-.245-.123-.368-.368-.368s-.367.123-.367.367c0 .245.122.368.367.368s.368-.123.368-.368zm-.551 0c0-.102.082-.184.183-.184.101 0 .184.082.184.183a.184.184 0 0 1-.184.184.184.184 0 0 1-.183-.184zm30.485 3.856c0-.1.083-.184.184-.184a.184.184 0 0 1 0 .367.184.184 0 0 1-.184-.183zm9.77-.404c-.68-.68-.436-.707 6.39-.686 3.76.012 6.655.093 6.714.188.057.092.43.167.828.167.52 0 .723.078.723.276 0 .24-.924.275-7.217.275-5.369 0-7.274-.056-7.438-.22zm-42.037-.862c-.12-.19-.167-.397-.105-.459.061-.061 1.174-.111 2.472-.111 2.34 0 2.363-.004 2.57-.46.199-.436.285-.459 1.74-.459h1.532V15.45h-3.996c-3.721 0-4.01-.024-4.213-.348zm3.618-.02c0-.108-.673-.183-1.653-.183s-1.653.075-1.653.184c0 .108.674.183 1.653.183.98 0 1.653-.075 1.653-.183zm12.815.138c.104-.126.227-.436.273-.688.063-.339.091-.278.11.23.019.522-.047.688-.273.688-.217 0-.247-.063-.11-.23zm-8.04-.688c0-.458.072-.712.184-.643.1.062.183.352.183.643 0 .29-.082.58-.183.642-.112.07-.184-.185-.184-.642zm4.626.046.057-.69 1.377-.054c1.101-.044 1.331-.009 1.148.174-.36.36-.27.887.184 1.069.295.119-.049.17-1.205.178l-1.618.011zm28.43.232c0-.15-.31-.562-.688-.914-.556-.516-.837-.64-1.459-.645-.423-.003-.82-.088-.883-.189-.073-.118.6-.183 1.886-.183h2l-.081.548c-.11.751.095 1.472.42 1.472.324 0 .529-.72.419-1.472-.062-.42-.01-.548.223-.548s.285.128.223.548c-.11.751.095 1.472.42 1.472.324 0 .53-.72.42-1.472-.066-.447-.016-.548.274-.548.248 0 .322.087.244.29-.179.465.09 1.73.367 1.73.324 0 .511-.772.381-1.571-.098-.609-.043-.683 1.401-1.89.827-.691 1.617-1.393 1.756-1.56.221-.268.766-.305 4.453-.305H65.8v1.47c0 .807-.071 1.469-.158 1.469-.087 0-.119-.207-.07-.46.048-.252.004-.459-.098-.459-.101 0-.173.145-.159.322.022.276-.172.329-1.384.374-1.342.051-1.413.034-1.49-.367-.072-.374-.083-.366-.105.078l-.025.498-1.791.053-1.79.052-.055 1.24-.054 1.24h-4.4c-3.77 0-4.399-.04-4.399-.273zm5.474-.873c-.042-.714-.133-.978-.354-1.02-.4-.076-.552.389-.413 1.262.088.548.2.72.469.72.31 0 .346-.116.298-.962zm1.469 0c-.043-.744-.129-.977-.377-1.024-.275-.052-.321.087-.321.962 0 .91.041 1.024.376 1.024.34 0 .372-.096.322-.962zm1.689.316c0-.295-.503-.499-.649-.263-.06.098-.056.347.01.553.095.3.171.332.379.16.143-.12.26-.321.26-.45zm6.244-3.965c0-.225-.13-.348-.367-.348-.35 0-.521.52-.258.784.206.205.625-.087.625-.436zm-.551.02a.184.184 0 0 1 .367 0 .184.184 0 0 1-.183.183.184.184 0 0 1-.184-.183zm-5.14 3.627c.003-.81.056-1.067.182-.873.118.184.179.2.18.046.002-.126.136-.23.298-.23.175 0 .256.104.199.253-.055.142.134.422.432.642.642.475.96.5.871.07a.375.375 0 0 0-.38-.296c-.173.014-.315-.082-.315-.214a.391.391 0 0 0-.23-.333c-.126-.05 1.093-.086 2.71-.078 1.984.01 2.533.05 1.691.123-1.396.122-1.593.288-1.597 1.349l-.002.689-1.424-.015c-.783-.008-1.32-.056-1.193-.107.32-.13.287-.43-.046-.43a.276.276 0 0 0-.276.276c0 .184-.183.276-.55.276h-.552l.003-1.148zm.307.562c-.059-.146-.102-.103-.111.111-.008.194.035.302.097.241.06-.06.067-.22.014-.352zm3.49 0c-.06-.146-.103-.103-.112.111-.008.194.036.302.097.241.06-.06.067-.22.014-.352zm-29.29-.47c.05-.774.108-.88.515-.934.252-.034.537-.137.633-.23.24-.231 5.375-.217 5.519.016.062.1.357.183.654.183.525 0 .54.025.54.919v.918h-7.917Zm.698.23c0-.152-.077-.276-.172-.276-.232 0-.398.286-.251.433.207.207.423.126.423-.158zm6.823 0c0-.097-.089-.205-.197-.241-.109-.036-.198.072-.198.24 0 .168.089.277.198.24.108-.036.197-.144.197-.24zM7.95 13.98c0-.35.122-.368 2.663-.368 1.464 0 2.663.066 2.663.147 0 .475-.553.588-2.884.588-2.32 0-2.442-.018-2.442-.367zm33.607-.46v-.642h2.149c1.702 0 2.102.047 1.922.226-.124.125-.848.258-1.609.296-1.108.056-1.425.139-1.599.417-.119.19-.362.346-.54.346-.246 0-.323-.151-.323-.642zm-38.382.23c0-.076.103-.139.23-.14.152-.003.136-.062-.046-.177-.242-.153-.236-.214.042-.492.293-.293.294-.344.02-.646-.232-.257-.25-.386-.08-.59.168-.202.163-.282-.02-.356-.131-.052.898-.102 2.287-.11l2.525-.014v1.08c0 1.513-.122 1.583-2.782 1.583-1.197 0-2.176-.062-2.176-.138zm2.02-.514c0-.247-.31-.368-.63-.246-.224.086-.247.175-.096.357.206.248.726.168.726-.11zm1.286 0c0-.294-.386-.388-.66-.16-.208.172-.221.262-.054.365.253.157.714.024.714-.205zm1.285 0c0-.084-.09-.208-.2-.276-.254-.158-.614.191-.457.445.13.21.657.076.657-.169Zm-2.67-1.264c.058-.094.017-.225-.09-.292-.272-.167-.778.053-.638.278.143.232.587.241.727.014zm1.257-.102c.02-.1-.109-.209-.286-.243-.2-.039-.321.052-.321.24 0 .32.543.322.607.003zm1.367.044c-.115-.348-.688-.397-.688-.06 0 .17.157.29.382.29s.351-.096.306-.23zm35.085 1.848c.161-.156 2.941-.246 3.088-.1.058.06-.642.134-1.555.166-.914.033-1.604.003-1.533-.066zM8.317 12.338c0-.6.083-1.142.184-1.205.115-.071.183.335.183 1.091 0 .68-.08 1.205-.183 1.205-.102 0-.184-.486-.184-1.091zm25.16.301c0-.607.422-.68 3.948-.68 3.527 0 3.949.073 3.949.68 0 .28-.844.325-1.01.055-.068-.11-1.254-.183-2.939-.183s-2.87.074-2.938.183c-.167.27-1.01.224-1.01-.055zm-9.592-.781-1.237-.635-6.798-.029c-3.739-.016-6.798-.098-6.798-.183 0-.084.708-.153 1.573-.153h1.573l-.058-.505c-.058-.5-.072-.506-1.573-.559l-1.515-.053.014-.773c.008-.425.056-.67.107-.544.13.32.43.288.43-.046 0-.24 1.193-.275 9.635-.275 8.49 0 9.624.033 9.53.275-.068.18.005.276.21.276.204 0 .277-.097.209-.276-.059-.151-.027-.275.07-.275.1 0 .156.61.131 1.423l-.043 1.424h14.14l.054-1.516.053-1.515h4.309c3.374 0 4.308.051 4.308.235 0 .129.166.377.37.55.475.408 2.11.435 2.503.042.203-.203.699-.276 1.885-.276 1.57 0 1.621-.014 2.12-.573.407-.457.46-.606.26-.74-.17-.114-.043-.151.391-.116.56.045.651.121.704.59.034.295.271.811.527 1.147l.466.61h-4.118l-.917.781c-.505.43-1.311 1.132-1.793 1.561l-.875.78h-6.043c-5.844 0-6.05-.012-6.273-.367-.217-.348-.428-.367-3.99-.367-3.563 0-3.775.02-3.992.367-.218.35-.423.367-4.271.358l-4.042-.009zm26.487-1.092V9.205H48.903v3.122H50.372zm-1.285 0V9.389h1.102v2.754h-1.102zm-30.157-.46-.067-.458 3.189-.023c1.753-.013 3.26-.096 3.349-.184.092-.092-.655-.16-1.741-.16-1.046 0-1.863.061-1.816.137.046.076-.069.138-.257.138-.276 0-.328-.113-.271-.597l.07-.597-1.806.065c-1.665.06-2.069.18-2.078.624-.001.076.777.137 1.73.137 1.586 0 1.738-.03 1.814-.37.07-.308.08-.3.06.046-.024.4-.106.42-2.046.51-1.11.052-2.929.052-4.04 0-1.858-.086-2.021-.123-2.038-.461-.014-.28 0-.29.059-.046.066.278.311.321 1.82.321 1.661 0 1.74-.017 1.628-.367-.071-.226-.033-.367.101-.367.135 0 .183.18.127.473-.058.305-.027.41.088.295.098-.098.15-.32.115-.493-.055-.273-.338-.318-2.13-.34l-2.065-.027v.51c0 .282.103.548.23.592.125.045 1.467.145 2.981.224 2.565.133 2.756.168 2.79.51.03.286.017.297-.057.046-.081-.275-.332-.32-1.754-.32-1.399 0-1.642.042-1.553.275.058.151.016.275-.093.275-.114 0-.155-.17-.097-.394.074-.28.047-.337-.095-.196a.453.453 0 0 0-.105.44c.07.18.602.242 2.06.242h1.965zm4.24.033c.227-.277.242-.263.148.132-.075.314-.048.383.093.242a.454.454 0 0 0 .105-.44c-.07-.183-.54-.228-1.952-.184-1.59.05-1.863.104-1.879.368-.011.19-.075.133-.165-.15l-.147-.46-.019.46-.018.459 1.79-.06c1.403-.046 1.846-.126 2.044-.367zm22.714-.198c-.068-.111-.285-.202-.48-.202-.403 0-.507.649-.128.79.305.113.766-.333.608-.588zm-.654.166c0-.101.078-.184.173-.184.095 0 .224.083.286.184.063.1-.015.183-.172.183-.158 0-.287-.082-.287-.183zM17.408 9.039c0-.294-.062-.495-.138-.449-.076.047-.138.287-.138.534 0 .246.062.448.138.448.076 0 .138-.24.138-.533zm7.952.13c.5-.5.2-.607-1.708-.607-1.593 0-1.928.048-1.926.276.003.244.023.244.181 0 .144-.223.179-.197.18.137.004.395.07.414 1.528.414.94 0 1.609-.085 1.745-.22zm19.136-.804c0-.171-.125-.265-.306-.23-.461.09-.524.519-.077.519.226 0 .383-.119.383-.289zm15.059.105a.184.184 0 0 0-.184-.183.184.184 0 0 0-.183.183c0 .101.082.184.183.184a.184.184 0 0 0 .184-.184zm-30.046 2.128c-.16-.415-.002-1.266.249-1.348.155-.051.23.138.23.582v.658h6.714c4.429 0 6.675.063 6.6.184-.072.117-2.575.184-6.903.184-5.686 0-6.806-.043-6.89-.26zm-21.258-.051c-.065-.065-.118-.393-.118-.73 0-.422.086-.612.276-.612.191 0 .275.193.275.632 0 .618-.199.944-.433.71zm.8-.248c0-.35.096-.371 1.422-.321 1.182.044 1.432.107 1.483.375.054.284-.109.321-1.422.321-1.37 0-1.482-.028-1.482-.375zm2.572.008c0-.104-.52-.184-1.194-.184-.673 0-1.194.08-1.194.184 0 .103.52.183 1.194.183.673 0 1.194-.08 1.194-.183zm-4.224-.368c0-.204.122-.367.275-.367.153 0 .276.163.276.367s-.123.368-.276.368c-.153 0-.275-.164-.275-.368zm22.859.176c-.065-.105-.025-.304.089-.441.155-.188.148-.273-.03-.343-.13-.05.093-.045.497.014.404.058.966.246 1.25.418.447.272.983.306 4.11.257 2.223-.035 3.671-.131 3.792-.252.109-.109.914-.196 1.812-.196 1.493 0 1.616.028 1.616.367 0 .36-.123.368-6.509.368-4.323 0-6.548-.065-6.627-.192zm2.3-.326c-.719-.326-1.047-.66-.963-.98.082-.314.343-.339 3.627-.339 3.383 0 3.542.016 3.634.368.089.34.265.37 2.363.4l2.267.032-1.745.139c-.96.076-2.569.235-3.576.353-1.338.158-1.918.16-2.155.013-.405-.253-2.104-.267-2.258-.02-.127.206-.773.224-1.193.034zm28.73-1.09c-.93-1.008-.796-1.237.732-1.245l1.265-.007.64.89c.634.884.845.931 1 .225.073-.33.102-.319.282.119.11.267.31.529.442.582.133.053-.65.103-1.742.111l-1.983.015zm1.307.306c.19-.306-.236-.657-.49-.404-.212.212-.08.604.205.604.089 0 .217-.09.285-.2zm3.388-.174c0-.205-.134-.577-.297-.826-.465-.71 0-.53.734.282.366.404.664.776.664.827 0 .05-.248.09-.55.09-.432 0-.551-.08-.551-.373zm-36.251-.1a1.681 1.681 0 0 1-.112-.46c0-.099 2.827-.168 6.887-.168h6.887v.918h-2.068c-1.869 0-2.09-.035-2.297-.367-.217-.347-.428-.367-3.807-.367-3.38 0-3.591.02-3.808.367-.29.465-1.512.52-1.682.077zm35.508-.455c-.483-.679-.334-.956.18-.337.332.398.499.899.3.899-.044 0-.26-.253-.48-.562zM7.17 8.52c-.728-.076-.852-.32-.5-.98.257-.48 2.073-.538 1.89-.061-.084.218-.023.274.235.218.192-.041.328-.173.303-.294-.034-.16.55-.218 2.157-.218 1.666 0 2.193.056 2.158.23-.031.158-.696.266-2.158.351-2.613.151-2.57.142-2.57.551 0 .349-.055.356-1.516.203zm45.636.02a.424.424 0 0 1-.23-.36c0-.21.42-.261 2.158-.262 1.187-.001 2.612-.056 3.168-.122.911-.109.986-.092.768.173-.177.214-.694.319-1.928.389-.928.052-2.141.137-2.697.189-.555.05-1.113.048-1.24-.007zm11.276-.364c-.401-.55-.247-.85.173-.335.278.34.284.341.177.006-.094-.294-.068-.311.169-.115.327.271.38.639.065.444-.145-.09-.177-.033-.098.172.175.456-.1.359-.486-.171zM13.704 7.46c0-.151.11-.275.245-.275s.245.124.245.275c0 .152-.11.276-.245.276s-.245-.124-.245-.276zm.673-.092c0-.202.118-.367.26-.367.144 0 .295-.103.338-.23.053-.16.555-.229 1.653-.229.866 0 1.617.041 1.667.092.05.05.047.319-.007.597-.092.482-.144.504-1.131.49-.57-.008-.932-.056-.805-.107.265-.107.31-.726.062-.878-.285-.177-.751.104-.751.453 0 .183.103.374.23.425.126.051-.163.1-.643.107-.755.013-.872-.035-.872-.353zm.857-.413c-.051-.126-.093-.023-.093.23 0 .252.042.356.093.23a.709.709 0 0 0 0-.46zm2.816.26c0-.239-.218-.398-.395-.288-.19.117-.027.441.223.441.095 0 .172-.068.172-.153zm.368.337c0-.121 6.03-.184 17.722-.184s17.722.063 17.722.184-6.03.184-17.722.184-17.722-.063-17.722-.184zm35.7-.107c.06-.16.111-.408.111-.55 0-.216.504-.256 2.893-.232 1.59.016 2.623.063 2.295.104-.424.052-.597.17-.597.403 0 .269-.21.352-1.129.448-.62.065-1.704.118-2.407.118-1.09 0-1.261-.043-1.166-.29zm1.364-.321c.035-.178-.058-.307-.219-.307-.34 0-.547.3-.385.561.166.269.533.114.604-.254zm-.518.06c0-.1.082-.183.183-.183a.184.184 0 0 1 0 .367.184.184 0 0 1-.183-.183zm-39.082-.013c.036-.109.144-.197.24-.197s.204.088.24.197c.037.109-.072.197-.24.197-.168 0-.276-.088-.24-.197zm2.969-.262c.32-.32 3.142-.398 3.332-.092.147.24 1.01.24 1.01 0 0-.1.206-.183.459-.183.252 0 .459.082.459.183 0 .101.248.184.55.184.304 0 .552-.083.552-.184 0-.108.642-.183 1.56-.183.919 0 1.562.075 1.562.183 0 .24.862.24 1.01 0 .148-.239 1.01-.239 1.01 0 0 .24.862.24 1.01 0 .15-.242 3.214-.242 3.214 0 0 .101.206.184.459.184.252 0 .459-.083.459-.184 0-.239.862-.239 1.01 0 .148.24 1.01.24 1.01 0 0-.108.643-.183 1.561-.183.918 0 1.561.075 1.561.183 0 .101.202.184.448.184.247 0 .5-.083.562-.184.148-.239 1.01-.239 1.01 0 0 .101.207.184.46.184.252 0 .458-.083.458-.184 0-.242 3.065-.242 3.214 0 .148.24 1.01.24 1.01 0 0-.239.863-.239 1.01 0 .148.24 1.01.24 1.01 0 0-.108.643-.183 1.562-.183 1.024 0 1.56.07 1.56.204 0 .123.22.172.551.124.303-.045.551-.013.551.07 0 .084-7.98.153-17.735.153-15.764 0-17.704-.03-17.46-.276zm36.113-.938c0-.406.063-.463.417-.374.435.109 1.612-.185 2.246-.561.314-.187.334-.272.137-.593-.374-.612-.272-.748.559-.748.686 0 .888.103 1.56.788.585.595.774.931.774 1.377 0 .711-.28.779-.449.108-.11-.44-.18-.471-.8-.369a9.196 9.196 0 0 1-1.185.115c-.382.001-.505.091-.505.369 0 .334-.122.367-1.377.367-1.362 0-1.377-.005-1.377-.479zm4.74-1.039c.073-.38-.457-.635-.737-.355-.28.28-.024.81.356.737a.52.52 0 0 0 .381-.382zm-.573.115c-.146-.147.02-.433.251-.433.095 0 .173.124.173.275 0 .284-.217.365-.424.158zm-1.229 1.128c0-.188.19-.277.597-.278a5.007 5.007 0 0 0 1.04-.122c.368-.098.424-.064.324.196-.071.187-.047.269.061.202.1-.061.182-.024.182.083 0 .115-.449.194-1.102.194-.857 0-1.102-.061-1.102-.275zM15.334 4.75c.049-1.377.089-1.52.438-1.57.316-.045.456.135.791 1.01.224.586.624 1.293.89 1.57l.483.505H15.28Zm40.309.664c-.202-.201-.15-.766.083-.91.116-.072.311.005.434.172.314.43.808.376.995-.11.139-.359.176-.372.286-.1.172.426.011.631-.591.753a6.19 6.19 0 0 0-.794.213c-.157.06-.343.053-.413-.018z" style="fill:#000;fill-opacity:1;stroke-width:.183648"/></svg>