<svg xmlns="http://www.w3.org/2000/svg" width="224.725" height="128" viewBox="0 0 59.458 33.867"><path d="M24.68 30.451c-1.147-.41-2.189-1.14-4.264-2.987-1.12-.997-2.36-2.03-2.756-2.296-.395-.266-.617-.518-.492-.56.176-.058.179-.164.01-.479-.118-.222-.295-.404-.393-.404-.097 0-.177-.24-.177-.534 0-.982-.734-2.555-1.378-2.953-.72-.445-2.71-.503-3.659-.106-.759.317-1.018.765-1.018 1.76 0 .596.116.877.537 1.297.508.508.618.536 2.083.536h1.548l-.02.555c-.017.495-.094.567-.707.666l-.689.11v1.257c0 1.147-.04 1.284-.47 1.565-.67.439-1.831.364-3.11-.2-1.284-.568-2.094-1.286-2.963-2.625-1.383-2.132-1.22-6.072.321-7.725.36-.386.46-.392 7.044-.392 4.255 0 6.72-.066 6.793-.183.062-.101.026-.184-.08-.184-.11 0-.195-.38-.195-.871v-.872h1.33c1.208 0 1.33-.034 1.33-.367 0-.328-.14-.372-1.342-.42-.948-.04-1.321-.12-1.269-.276.055-.164 1.251-.224 4.645-.232 3.27-.007 4.69-.075 4.988-.238.23-.125.498-.177.597-.116.098.061.18.85.18 1.752v1.64l-5 .013c-2.963.008-4.851.077-4.634.17.533.23 12.019.23 12.019 0 0-.1-.455-.183-1.01-.183H31.47V15.156l1.216-.021 1.215-.02-.088.91c-.048.501-.023.911.055.911.077 0 .313.278.523.618.356.576.382.887.382 4.587 0 3.264-.045 3.97-.255 3.97-.14 0-.904.67-1.697 1.489-1.595 1.647-2.333 2.18-3.776 2.729-1.123.427-3.34.489-4.365.122zm4.603-.938c.91-.37 3.655-2.32 3.655-2.598 0-.21-.357.01-1.03.635-1.56 1.45-3.377 2.228-5.208 2.233-.879.002-1.12.053-.918.193.42.29 2.239.05 3.501-.463zm-4.984-.175c-.328-.32-2.003-1.335-2.003-1.214 0 .18 1.63 1.29 1.897 1.29.1 0 .148-.035.106-.076zm3.51-.76c.194-.235.182-.337-.07-.59-.285-.284-.326-.284-.61 0-.253.253-.265.355-.07.59.13.157.298.285.375.285.076 0 .244-.128.374-.285zm-7.274-2.296c-.696-.715-1.431-1.386-1.633-1.49-.202-.105.33.518 1.183 1.384.852.866 1.587 1.537 1.633 1.491.046-.046-.486-.669-1.183-1.385zm-8.973.93a5.999 5.999 0 0 0-1.009-.16c-.36-.015-.4.02-.183.16.151.097.605.169 1.009.158.707-.018.714-.024.183-.159zm-1.928-.322c0-.076-.33-.326-.734-.556-.402-.23-.732-.35-.732-.265 0 .084.31.332.688.552.787.456.78.453.778.27zm16.148-.127c0-.044-.082-.132-.183-.194-.101-.062-.184-.026-.184.081s.083.194.184.194c.1 0 .183-.036.183-.08zm-13.129-.453c.153-.246-.085-.75-.354-.75-.323 0-.702.493-.558.726.146.236.771.252.912.024zm16.197-1.687c.961-.465 1.642-1.314 2.002-2.495.466-1.533-.078-3.5-1.08-3.902-.72-.29.762-.211 1.607.084l.733.258-.443-.366c-.418-.344-.698-.364-4.655-.338-3.812.025-4.298.064-5.13.41-1.074.446-1.604 1.175-1.606 2.206 0 1.012.228 1.313 1.609 2.12.68.396 1.504 1.055 1.831 1.463.436.542.806.791 1.376.927 1.087.258 2.813.09 3.756-.367zM6.722 23.418c-.16-.275-.195-.283-.2-.045-.006.31.187.588.317.458.043-.043-.01-.23-.117-.413zm25.85-1.344c0-.101-.037-.184-.082-.184-.044 0-.132.083-.194.184-.062.1-.026.183.08.183.108 0 .195-.082.195-.183zM11.42 19.646c1.08-.504 1.052-.485.925-.613-.058-.057-.423.064-.81.269-1.504.793-1.583 1.03-.115.344zm4.19-.239c-.196-.148-.444-.266-.55-.263-.108.003-.035.127.161.275.196.148.444.267.55.264.108-.004.035-.127-.161-.276zm-2.213-.452c.063-.101-.01-.184-.162-.184-.151 0-.326.083-.388.184-.063.1.01.183.162.183.15 0 .326-.083.388-.183zm1.193.102c0-.044-.083-.132-.184-.194-.1-.063-.183-.026-.183.08 0 .108.082.195.183.195.101 0 .184-.036.184-.08zm-5.68-.57c.195-.235.182-.338-.07-.59-.285-.285-.326-.285-.61 0-.253.252-.265.355-.07.59.13.156.299.284.375.284.076 0 .245-.128.374-.284zm24.995.055c.13-.373-.065-.688-.425-.688-.405 0-.612.286-.472.65.125.327.787.354.897.038zm-17.307-.218c.294-.354-.059-1.02-.54-1.02-.482 0-.835.666-.541 1.02.12.145.364.264.54.264.178 0 .421-.119.541-.264zm3.772.08c.062-.1.03-.183-.07-.183-.101 0-.235.082-.297.183-.063.101-.031.184.07.184.1 0 .234-.083.297-.184zm.642-.367c0-.1-.037-.183-.081-.183-.045 0-.132.082-.194.183-.063.101-.026.184.08.184.107 0 .195-.083.195-.184zm.917-.113c0-.039-.165-.07-.367-.07-.202 0-.367.074-.367.166 0 .091.165.123.367.07.202-.052.367-.127.367-.166zm2.294-2.089c0-.211-.313-.296-1.348-.367-1.372-.093-1.611-.013-1.423.476.152.398 2.77.296 2.77-.109zm3.21.015c0-.308-.161-.36-1.302-.412-1.325-.062-1.562.023-1.38.498.076.198.434.266 1.393.266 1.149 0 1.29-.038 1.29-.352zm3.212-.015c0-.211-.313-.296-1.348-.367-1.41-.096-1.572-.043-1.383.45.161.42 2.73.342 2.73-.083zm-4.148-1.085a.394.394 0 0 0 .143-.456c-.088-.23-.386-.294-1.372-.294-1.4 0-1.574.077-1.308.575.147.274.394.342 1.232.34.577-.001 1.164-.076 1.305-.165zm3.23-.29c0-.33-.14-.373-1.33-.422-1.198-.048-1.33-.02-1.33.29 0 .541.178.609 1.46.552 1.06-.048 1.2-.097 1.2-.42zm9.404 15.927c-.4-.104-.42-.53-.031-.68.16-.06 1.919-.11 3.91-.11 2.746 0 3.7.06 3.958.247.77.563.153.67-3.72.649-2.088-.012-3.94-.06-4.117-.106zm.413-2.075c0-.76.056-.917.33-.917.514 0 .77.378.77 1.137 0 .653-.035.698-.55.698-.538 0-.55-.02-.55-.918zm1.35.64c-.06-.153-.066-.437-.015-.63.15-.574-.357-1.11-1.048-1.11-.752 0-1.176-.419-.838-.826.126-.152.495-.276.82-.276.908 0 1.198-.458 1.198-1.895v-1.224h3.487v1.168c0 1.563.415 2.135 1.55 2.135.982 0 1.444.42.908.825-.192.145-.696.267-1.122.27-.868.006-1.153.322-1.153 1.278v.563h-1.84c-1.475 0-1.862-.056-1.948-.278zm3.97-.193c0-.77.322-1.18.924-1.18.523 0 .544.032.544.825v.826h-.734c-.665 0-.733-.044-.733-.471zm-9.54-6.703c0-3.91-.015-4.074-.413-4.633-.275-.385-.444-.945-.505-1.672-.08-.958-.145-1.106-.519-1.193-.425-.1-.424-.103.13-.512.618-.457 1.12-.525 1.45-.196.166.166.314.164.637-.01.31-.165 1.665-.21 5.126-.17 3.657.043 4.664.006 4.52-.166-.24-.289-.036-.604.39-.604.406 0 .608.428.332.704-.144.144-.01.169.473.09.645-.104.672-.087.672.429 0 .652 1.179 1.896 1.796 1.896.403 0 .406.021.406 3.208v3.207l-4.725.05-4.724.048.056.643c.053.613-.016.696-1.492 1.79-1.467 1.086-1.602 1.145-2.58 1.145h-1.03zm3.501 2.468c.994-.781 1.085-.913 1.085-1.57v-.715l-1.565 1.318c-.861.725-1.524 1.36-1.472 1.412.051.051.611-.358 1.244-.91 1.48-1.289 1.61-1.362 1.61-.91 0 .221-.412.695-1.055 1.212-.888.715-1.15.835-1.651.76-.328-.048-.597-.011-.597.084 0 .094.296.171.658.171.505 0 .91-.198 1.743-.852zm-1.112-1.12c.89-.782 1.618-1.463 1.62-1.514.002-.116-3.064-2.822-3.29-2.905-.099-.035-.17 1.176-.17 2.89 0 1.623.05 2.951.112 2.951.06 0 .838-.64 1.728-1.422zm-1.656-1.517c0-2.976-.207-2.847 1.787-1.114 1.307 1.136 1.345.947-.528 2.608l-1.259 1.116zm5.952-1.016c.561-.662 1.02-1.263 1.02-1.336 0-.072-.577-.705-1.284-1.406l-1.284-1.275v2.488c0 3.268.04 3.307 1.548 1.529zm-1.32-1.265.047-2.1.963.947c.53.521.964 1.02.964 1.108 0 .227-1.662 2.146-1.858 2.146-.09 0-.141-.946-.116-2.1zm4.494 2.318c.158-.1-.076-.442-.779-1.136-.602-.595-1.066-.922-1.158-.817-1.007 1.153-1.487 1.895-1.279 1.979.38.152 2.968.132 3.216-.026zm-1.557-.18c-.732-.029-1.328-.112-1.325-.183.003-.071.258-.407.567-.747l.561-.618.761.71c.418.39.796.73.84.755.194.112-.165.134-1.404.084zm3.216-2.331c.029-1.397-.023-2.614-.115-2.706-.153-.153-2.772 2.608-2.785 2.937-.01.227 2.468 2.423 2.666 2.364.107-.033.204-1.108.234-2.595zm-1.56 1.33-1.132-1.146 1.176-1.285 1.175-1.284.008 2.431c.004 1.337-.016 2.431-.044 2.431-.028 0-.56-.516-1.183-1.147zm2.868.643c.116-.278.455-.918.753-1.422l.542-.918.004 1.32.003 1.319-.688.072-.688.072.78.03.78.031V20.2c0-1.449-.037-1.653-.255-1.422-.423.446-1.81 3.112-1.619 3.112.098 0 .273-.227.389-.504zM40 21.202c-.034-.176-.068-1.25-.075-2.385l-.015-2.064h-1.338c-1.321 0-1.349.01-2.058.736l-.719.736.724.594c.397.327 1.261 1.066 1.92 1.642 1.242 1.088 1.666 1.289 1.561.741zm-1.377-.928a161.515 161.515 0 0 0-1.736-1.454l-.723-.594.625-.645c.584-.603.7-.645 1.781-.645h1.157v2.11c0 1.16-.02 2.105-.046 2.1-.025-.007-.501-.4-1.058-.872zm10.107-1.07c.57-.941.905-1.704.905-2.064v-.57H47.25l.006 2.43c.006 2.781-.082 2.77 1.474.204zm-1.297-.422v-1.846h1.01c.818 0 1.009.058 1.009.305 0 .324-1.572 3.11-1.853 3.284-.095.059-.166-.688-.166-1.743zm-2.935-.699c.555-.668 1.036-1.281 1.07-1.364.034-.082-1.02-.15-2.34-.15-1.32 0-2.402.062-2.405.138-.004.141 2.408 2.559 2.574 2.579.05.006.546-.535 1.1-1.203zm-2.159-.151c-.528-.462-.96-.917-.96-1.01 0-.093.877-.17 1.95-.17h1.95l-.818.954c-.45.524-.896.978-.99 1.01-.094.031-.603-.322-1.132-.784zm5.645-2.068c0-.086-.16-.3-.357-.478-.196-.178-.382-.52-.413-.762l-.056-.44-4.77-.096c-5.223-.106-5.64-.043-5.745.862-.039.336.07.572.362.776.36.252 1.16.293 5.699.293 2.904 0 5.28-.07 5.28-.155zm-10.904-.5c-.357-.357-.362-.524-.028-.801.188-.156 1.615-.206 5.138-.18l4.876.036v.51c0 .28.104.55.23.601.126.051-2.056.1-4.85.107-4.385.013-5.117-.025-5.366-.273zm2.464 10.117c0-.287.197-.587.55-.838l.55-.392v.618c0 .686-.27 1.058-.77 1.058-.228 0-.33-.139-.33-.446zm5.424-.02c-.21-.322-.288-.764-.25-1.423l.055-.955 2.247-.052c2.113-.048 2.248-.03 2.248.302 0 .22-.167.394-.446.464-.246.062-.62.356-.833.654-.43.605-.772.575-1.077-.094-.34-.744-.58-.512-.58.56 0 .99-.01 1.01-.529 1.01-.364 0-.624-.145-.835-.467zm6.502-.727c-.499-.508-.974-.825-1.236-.825-.419 0-.42-.009-.122-.585.267-.518.293-1.263.225-6.468-.065-4.934-.126-5.978-.374-6.475l-.295-.592 1.13.095c3.431.287 3.423.285 3.616.645.176.33.114.352-1.011.352h-1.2l.03.688c.028.657.033.662.102.106l.073-.582 1.045.103c.574.057 1.086.14 1.136.185.05.044.121 1.437.157 3.093.052 2.443.017 3.012-.184 3.01-.327-.004-.885-.358-.57-.361.127-.002.23-.086.23-.187 0-.1-.124-.183-.275-.183-.466 0-.32.726.183.917.633.24.576.55-.102.55-.328 0-.514.077-.448.184.062.101.356.184.653.184h.54l-.013 2.064c-.009 1.324-.07 1.932-.17 1.697-.127-.294-.161-.23-.171.321-.012.64-.052.688-.564.688-.303 0-.55-.069-.55-.153 0-.084-.318-.497-.706-.917-.487-.528-.857-.765-1.193-.765-.48 0-.487-.017-.487-1.284 0-.706-.061-1.284-.137-1.284-.076 0-.138.64-.138 1.422v1.422l.673.091c.517.07.854.298 1.452.98.653.744.863.876 1.3.812.447-.066.52-.015.52.36 0 .239-.126.679-.28.977-.25.484-.371.54-1.154.54-.794 0-.95-.075-1.685-.825zm0-6.33c0-.1-.17-.183-.38-.183-.295 0-.353-.081-.262-.367.067-.21.033-.367-.08-.367-.213 0-.272.78-.073.978.19.19.795.144.795-.06zm1.608-.126c-.176-.046-.506-.048-.734-.004-.229.044-.085.082.319.084.403.002.59-.034.415-.08zm-1.012-.92c-.227-.045-.413-.157-.413-.251s-.08-.17-.177-.17c-.098 0-.13.123-.072.274.06.16.31.265.59.25.432-.022.44-.033.072-.104zm-.266-.825c.121-.122.22-.293.22-.38 0-.088-.13-.03-.288.128-.498.498-.964.361-1.047-.308-.073-.587-.074-.586-.103.092-.027.638.008.688.484.688.283 0 .613-.1.734-.22zm1.477-.468c-.022-.554-.042-.59-.104-.184-.092.61-.472.657-.745.092-.199-.412-.2-.412-.212.061-.015.582.11.719.66.719.378 0 .425-.082.401-.688zm1.403 9.174c.374-.919.418-1.722.378-6.813-.024-3.04.016-5.526.09-5.526s.123-.142.109-.314c-.04-.498.573-.514.677-.018.064.302.081.266.06-.126-.03-.565-.59-.887-.84-.483-.066.107-.204-.256-.305-.808-.175-.956-.165-1.004.202-1.004.706 0 1.02.416 1.174 1.558a5.54 5.54 0 0 1-.095 2.105c-.169.705-.245 2.485-.25 5.819l-.006 4.802-.475.564c-.52.618-.926.756-.718.244zm.86-3.022c-.131-.131-.217-.142-.217-.027 0 .245.217.462.34.34.052-.053-.003-.193-.123-.313zm.077-1.194c-.186-.187-.34.094-.187.341.116.187.159.188.221.001.042-.127.027-.281-.034-.342zm.073-1.151c0-.101-.087-.184-.194-.184-.107 0-.144.083-.081.184.062.1.15.183.194.183.045 0 .081-.082.081-.183zm-.15-1.324c-.131-.132-.217-.143-.217-.028 0 .245.217.462.34.34.052-.052-.003-.193-.123-.312zm0-1.285c-.131-.131-.217-.142-.217-.027 0 .245.217.462.34.34.052-.053-.003-.193-.123-.313zm.077-1.194c-.186-.187-.34.094-.187.341.116.187.159.188.221.001.042-.127.027-.282-.034-.342zm0-1.468c-.186-.187-.34.094-.187.342.116.187.159.187.221 0 .042-.127.027-.281-.034-.342zm.326-1.013c.1-.42.06-.505-.239-.505-.197 0-.41.082-.471.181-.065.104.009.135.172.073.215-.083.285.015.285.4 0 .6.085.55.253-.15zm-.07-2.412c0-.482-.5-.784-.8-.484-.131.13-.064.19.213.19.282 0 .404.11.404.366 0 .202.041.367.092.367.05 0 .092-.197.092-.439zM14.958 24.174c0-.228.19-.274.949-.23 1.359.08 1.423.515.075.515-.803 0-1.024-.061-1.024-.285zm-.274-1.926c.077-.453.04-.954-.094-1.276-.306-.74-.18-.986.324-.633.333.233.376.357.221.645a.733.733 0 0 0 .655 1.09c.613 0 .652.727.04.747-.228.008-.607.05-.843.093-.408.076-.423.043-.303-.666zM8.29 16.447c-.195-.195-.141-2.597.061-2.722.117-.072.184.426.184 1.366 0 1.482-.018 1.583-.245 1.356zm.428-1.437v-1.56h3.12v3.12h-3.12Zm2.097.72c.437-.436.357-1.126-.17-1.471-.425-.279-.493-.279-.917 0-.53.346-.594.94-.156 1.424.373.412.86.43 1.243.047zm-1.17-.342c-.162-.195-.166-.36-.015-.642.39-.73 1.452-.261 1.201.53-.14.442-.856.51-1.185.112zm.873-.424c-.034-.177-.183-.321-.332-.321-.148 0-.298.144-.332.32-.043.226.056.322.332.322.277 0 .376-.096.332-.321zm2.42.046c0-1.542.006-1.56.46-1.56.453 0 .458.018.458 1.56 0 1.54-.005 1.56-.459 1.56-.453 0-.459-.02-.459-1.56zm2.019 0c0-1.542.005-1.56.459-1.56.453 0 .458.018.458 1.56 0 1.54-.005 1.56-.458 1.56-.454 0-.46-.02-.46-1.56zm2.018 0v-1.56h2.936v3.12h-2.936zm2.05.78c.52-.42.542-.866.067-1.341-.544-.544-.725-.556-1.2-.082-.48.482-.465 1.012.041 1.366.494.346.718.357 1.091.056zm-1.119-.48c-.235-.439.151-1.009.621-.917.435.086.74.577.593.959-.158.41-.987.382-1.214-.042zm.869-.346c-.034-.177-.183-.321-.332-.321-.149 0-.298.144-.332.32-.043.226.056.322.332.322s.375-.096.332-.321zm1.463.642c.095-1.735.168-1.906.196-.459.015.782-.035 1.422-.11 1.422-.076 0-.114-.433-.086-.963zm-8.146-.55c.016-1.051.079-1.33.296-1.33.214 0 .287.293.33 1.33.048 1.205.02 1.33-.297 1.33-.314 0-.348-.137-.33-1.33zm1.985 0c.042-1.037.115-1.33.33-1.33.214 0 .286.293.328 1.33.05 1.243.03 1.33-.329 1.33-.358 0-.38-.087-.329-1.33zm2.019 0c.039-.967.121-1.33.3-1.33.183 0 .255.35.276 1.33.024 1.167-.012 1.33-.301 1.33-.291 0-.323-.154-.275-1.33zm-10.607.522c-.055-.142-.073-.534-.04-.872l.058-.614h2.386l.056.872.056.871H6.796c-.868 0-1.236-.072-1.307-.257zm43.081-.348c-.555-.572-.586-.68-.586-1.998 0-1.535.06-1.617 1.207-1.617h.628v2.11c0 1.912-.032 2.11-.331 2.11-.182 0-.595-.272-.918-.605zm.882-.587c.182-.22.182-.331 0-.55-.459-.553-1.112-.13-.851.55.058.151.221.275.364.275.142 0 .361-.124.487-.275zm-17.965-.413c.014-.379-.03-.858-.1-1.066-.103-.311.064-.51.95-1.131a38.09 38.09 0 0 0 1.97-1.494l.895-.74 2.584-.055c1.576-.034 2.636.016 2.718.128.074.101.136.493.138.872l.002.688h-6.892l-1.09 1.1c-.598.606-1.005 1.102-.903 1.102.102 0 .55-.372.996-.826.445-.454.86-.826.921-.826.093 0 .73 1.18.73 1.352 0 .03-.334.323-.743.651-.72.579-.756.588-1.208.292-.256-.168-.508-.264-.56-.212-.051.051.08.202.291.334.54.337.48.519-.17.519-.523 0-.553-.04-.529-.688zm3.903-.687c-.063-.166-.027-.39.08-.497.28-.28.81-.024.736.356-.08.422-.669.524-.816.141zm-28.237-.286c-.226-.366.72-1.054 1.608-1.17.43-.058 3.697-.314 7.259-.57l6.475-.465 2.31.832c1.27.458 2.438.832 2.595.832.23 0 .215.055-.069.27-.53.4-4.344.395-4.679-.008-.196-.236-.505-.268-1.72-.18-.814.06-2.925.144-4.69.187-6.608.16-7.632.203-8.28.353-.479.11-.705.087-.81-.081zM27.8 13.18c0-.047.987-.831 2.194-1.743l2.194-1.657H33.4c.688 0 1.166.073 1.107.169-.188.304-2.89 2.269-3.844 2.795-.687.379-1.192.517-1.9.52-.529.001-.962-.036-.962-.084zm6.908-.146c-.172-.126-.332-.476-.354-.778l-.04-.549 6.763-.048c6.126-.044 6.753-.02 6.651.244-.062.161-.112.534-.112.828 0 .402-.086.536-.345.536a.851.851 0 0 1-.573-.276c-.125-.151-.373-.275-.55-.275-.177 0-.425.124-.55.275-.192.231-.947.276-4.68.276-3.731 0-4.487-.045-4.678-.276-.289-.347-.533-.348-.916-.001-.246.222-.361.23-.616.044zM4.892 11.292 3.175 9.689l.002-1.56.002-1.56 2.907-1.046 2.908-1.047 11.635.038c8.761.028 11.654.09 11.709.254.043.131-.168.24-.536.275-.391.038-.607.156-.607.334 0 .2.226.282.826.301l.825.026-.734-.124-.734-.125.701-.096c.55-.075.738-.024.878.237.144.269.107.331-.196.331-.501 0-.472.176.178 1.074.387.533.686.761.999.761.245 0 .497.083.56.184.068.11-.186.183-.645.183-.609 0-.747.06-.699.305.045.234.275.31.973.321.717.013.928.086.977.337.056.285-.106.321-1.422.321h-1.485l-2.107 1.559c-1.158.857-2.104 1.497-2.1 1.422.002-.075.59-.55 1.305-1.054.714-.505 1.582-1.165 1.927-1.468l.628-.55-1.337-2.064c-.735-1.135-1.398-2.064-1.473-2.064-.076 0-.468.298-.873.663-.603.546-.783.624-1.005.44-.194-.161-.221-.318-.095-.553.193-.362-.206-.856-.53-.655a.216.216 0 0 1-.294-.076c-.075-.122-2.725-.187-7.59-.187h-7.476l.07.597.07.596h5.627c6.186 0 6.453.042 6.453 1.005 0 .443-.28.776-1.65 1.966-.907.788-1.65 1.474-1.651 1.524-.001.05.456.064 1.016.029 1.004-.063 1.043-.087 2.864-1.79 1.37-1.28 1.97-1.725 2.33-1.724.458.001.434.045-.426.78-.5.428-1.45 1.25-2.11 1.828-.913.799-1.374 1.071-1.933 1.142-1.537.195-13.528 1.038-13.61.957-.154-.155.896-.28 5.17-.615l4.22-.331-5.085-.05-5.086-.048-.648-.85c-.648-.848-.853-1.84-.495-2.404.188-.296 2.964-1.47 3.342-1.414.21.032.284-.12.284-.577 0-.467-.079-.62-.318-.62-.292 0-4.716 1.56-4.874 1.718-.038.038.029.283.148.546.294.644-.068 1.1-.79.994-.482-.071-.514-.035-.514.587 0 .56.148.804.963 1.58 1.767 1.684 1.755 1.677 2.08 1.213.436-.623 1.36-.42 1.36.299 0 .165-.122.108-.338-.16-.216-.266-.448-.375-.642-.3-.382.146-.398.837-.024.98.216.083.232.166.07.362-.117.14-.263.253-.327.251-.063 0-.887-.723-1.831-1.605Zm16.477-2.466c2.465-2.204 2.565-2.165-5.53-2.165H9.272l-1.269.568c-.844.377-1.302.694-1.368.945-.092.351.233 1.208.66 1.744.14.175 1.645.23 6.39.23h6.207zm-13.754.86c-.448-.54.051-.652 2.678-.6 2.414.05 2.554.072 2.554.42 0 .346-.14.369-2.497.417-2.086.043-2.535.004-2.735-.237zm5.507-.09c0-.285.122-.366.55-.366.429 0 .55.081.55.367 0 .285-.121.367-.55.367-.428 0-.55-.082-.55-.367zm1.468 0c0-.35.122-.366 2.96-.366h2.96l-.466.367c-.414.326-.744.367-2.96.367-2.372 0-2.494-.018-2.494-.367zM4.682 7.67c.182-.22.182-.33 0-.55-.459-.553-1.112-.13-.851.55.058.152.222.276.364.276s.361-.124.487-.276zm-.612-.03c-.211-.211-.133-.428.153-.428.151 0 .275.123.275.275 0 .286-.217.364-.428.153zm6.942-2.082c0-.325-.112-.472-.39-.512-.466-.067-.722.445-.41.82.33.397.8.215.8-.308zm-.642-.105c0-.324.395-.267.508.073.04.12-.058.218-.218.218s-.29-.131-.29-.29zm16.58 6.622c-.064-.165-.028-.389.08-.496.28-.28.81-.025.736.355-.081.422-.67.524-.816.141zm.667-.185a.276.276 0 0 0-.275-.275.276.276 0 0 0-.275.275c0 .152.124.276.275.276a.276.276 0 0 0 .275-.276zm-2.752-.394c-.858-.327-1.627-.622-1.71-.655-.122-.049 4.032-3.803 5.473-4.946.38-.3.413-.27 1.65 1.56.694 1.027 1.127 1.757.962 1.623-.662-.537-1.741.154-1.31.839.171.27.06.426-.721 1.009-1.045.78-1.093.794-1.408.414-.344-.414-.704-.333-1.058.238l-.319.513zm-17.94.268c.114-.34.509-.396.509-.072 0 .16-.13.29-.29.29-.16 0-.258-.098-.218-.218zm-2.02-1.484c-.701-.708-1.14-1.306-1.14-1.554 0-.283.081-.37.276-.296.152.059.488-.032.747-.202.387-.253.46-.426.411-.977l-.059-.668 1.835-.684c1.01-.376 2.02-.689 2.248-.695.877-.023.345.474-1.126 1.052-.845.332-1.69.772-1.876.978-.544.602-.437 1.59.281 2.59l.62.863-.44.366c-.243.202-.484.37-.538.373-.053.003-.61-.513-1.238-1.146zm36.106.9c0-.14-.05-.506-.112-.816l-.113-.563 2.452-.056c1.49-.034 2.505.016 2.587.127.074.101.136.493.138.872l.002.688h-2.477c-1.979 0-2.477-.051-2.477-.253zm5.319-.07a3.604 3.604 0 0 0-.113-.733c-.109-.406-.083-.413 1.55-.413 1.795 0 1.634-.09 1.972 1.1.1.35.017.368-1.651.368-1.549 0-1.756-.038-1.758-.321zm-38.428-.03c-.086-.139.611-.199 2.304-.199 1.335 0 2.392.031 2.35.07-.042.037-1.079.127-2.304.198-1.53.089-2.266.067-2.35-.07Zm12.844-.897c2.945-2.495 3.206-2.826 2.815-3.56-.459-.86-.505-.867-6.357-.873-4.808-.005-5.55-.043-5.55-.281 0-.24.936-.276 7.318-.276h7.318l.088.459c.085.449.063.459-1.034.462-.617.001-1.237.075-1.377.165-.465.294-.078.724.704.784l.743.057-1.747 1.605c-1.534 1.411-1.828 1.606-2.42 1.606-.372 0-.597-.067-.501-.148zm9.365-.376c-.205-.332.112-.781.511-.724.534.076.529.77-.006.845-.217.031-.445-.023-.505-.12zm.809-.2c0-.247-.335-.419-.554-.283-.102.063-.139.192-.08.286.137.222.634.221.634-.002zm2.706-1.24c.227-.044.599-.044.826 0 .227.043.041.079-.413.079-.454 0-.64-.036-.413-.08zm-.387-1.413c-.504-.66-.58-.845-.347-.841.176.003 1.016 1.29.91 1.396-.043.044-.297-.206-.563-.555zm-9.198-.29c-.064-.104 0-.233.141-.288.444-.17 2.98-.003 2.932.193-.06.25-2.923.338-3.073.095zM9.547 4.096c-.072-.115 2.586-.197 7.466-.229 8.914-.059 11.889 0 11.889.237 0 .238-19.208.231-19.355-.008zm.216-.488c-.313-.313.24-.433 1.994-.433 1.58 0 1.915.048 1.915.275 0 .227-.333.275-1.896.275-1.042 0-1.948-.052-2.013-.117zm5.234-.099c.044-.133.35-.269.682-.301.434-.043.58.008.522.183-.044.134-.35.27-.682.302-.434.042-.58-.009-.522-.184zm2.529.033c0-.11.768-.184 1.937-.184 1.245 0 1.897.066 1.824.184-.15.243-3.761.243-3.761 0zm5.045 0c.063-.1.398-.184.745-.184s.631.083.631.184c0 .1-.335.183-.744.183-.45 0-.7-.072-.632-.183zm2.523.076c.14-.14 3.622-.14 3.762 0 .059.06-.788.107-1.881.107s-1.94-.048-1.88-.107z" style="fill:#000;stroke-width:.183483;fill-opacity:1"/></svg>