<svg xmlns="http://www.w3.org/2000/svg" width="283.182" height="128" viewBox="0 0 74.925 33.867"><path d="M37.48 29.65c-.319-.603-.954-1.797-1.41-2.653l-.831-1.556.82-.981.82-.981-1.457-2.619-1.456-2.619.914-.05c1.078-.058.884-.258 2.574 2.661l1.232 2.128.881.048.881.047.921 1.692c.836 1.536.93 1.806 1.008 2.93l.087 1.238-.863.816c-.79.748-.93.817-1.638.819-.427 0-1.03.04-1.34.09-.557.086-.57.074-1.143-1.01zm2.439-.996c.82-.821 1.466-1.61 1.516-1.853.05-.233.123-.59.165-.795.047-.23-.075-.594-.32-.955l-.396-.582-.626.246c-.37.145-1.178.8-1.972 1.598l-1.345 1.353.598 1.209c.33.665.678 1.21.775 1.21.098 0 .82-.644 1.605-1.431zm-1.731.907c-.085-.111-.355-.555-.602-.986l-.448-.784 1.186-1.202c.652-.66 1.472-1.35 1.821-1.531l.636-.33.29.36c.185.228.292.625.292 1.087 0 .698-.059.788-1.399 2.158-.77.786-1.45 1.43-1.511 1.43-.062 0-.181-.092-.265-.202zm2.886-.396c.42-.41.611-.738.611-1.047 0-.248-.054-.442-.12-.432-.067.01-.55.482-1.075 1.048-.944 1.019-.949 1.028-.49 1.028.317 0 .656-.189 1.074-.597zm-6.537-5.08c-1.005-1.81-3.164-5.819-3.164-5.872 0-.162 1.918-.023 2.058.149.09.11.811 1.293 1.602 2.627l1.437 2.426-.686.84-.687.839zm16.142.4c-.695-.812-3.838-6.564-3.838-7.023 0-.246-.166-.537-.423-.74-.343-.269-.387-.376-.23-.566.307-.369 1.64-1.162 2.316-1.377.848-.27.61-.416-.276-.168-.436.122-1.054.5-1.577.967-.694.618-1.13.85-2.252 1.191-1.207.369-1.677.425-3.553.425h-2.163l-.27-.566-.27-.565.603.08c.332.044 1.4.157 2.375.251l1.773.172 1.19-.492c.655-.27 1.288-.619 1.405-.774.532-.7-.04-2.296-.82-2.296-.373 0-.406.059-.406.718 0 .554-.093.811-.41 1.128-.506.505-.659.53-.324.052.262-.374.315-.918.15-1.535-.094-.35-.166-.363-1.946-.363-1.406 0-1.831-.048-1.78-.201.05-.15 1.03-.225 3.84-.292 3.184-.075 3.975-.144 5.063-.44.709-.193 1.706-.352 2.215-.353.915-.003.927.003.927.463 0 .41-.072.478-.605.578-1.114.21-1.65.525-1.898 1.118-.322.77-.13 1.186.95 2.045 1.474 1.174 4.096 4.7 4.474 6.016.192.671-.13 1.085-1.583 2.033-1.34.875-2.205 1.043-2.657.514zm1.912-2.146c.724-.274 1.18-.794 1.18-1.348 0-.595-1.061-2.25-2.46-3.838-1.135-1.288-1.628-1.41-2.5-.613-.658.6-.67 1.142-.044 1.932.261.33.777 1.21 1.146 1.957.37.746.82 1.52 1.003 1.72.363.396.955.463 1.675.19zm-1.463-.293c-.151-.167-.53-.838-.843-1.49-.312-.653-.852-1.556-1.2-2.008-.348-.45-.632-.933-.632-1.07 0-.258 1.022-1.251 1.287-1.251.608 0 1.382.82 3.023 3.2.937 1.36 1.019 1.738.483 2.24-.738.691-1.682.86-2.118.38zm-13.656-1.555-1.392-2.33.828.002.83.003 1.225 2.213 1.225 2.213-.42.102a4.755 4.755 0 0 1-.661.115c-.146.008-.794-.911-1.635-2.318zm-20.43-3.74c.02-1.756.095-2.669.244-2.961.119-.232.17-.468.115-.524-.055-.055-1.603-.1-3.44-.1h-3.337l-.583.644c-.56.62-.583.692-.583 1.853 0 .665-.058 1.208-.129 1.208-.363 0-.515-.475-.515-1.61 0-1.205.01-1.234.61-1.821.385-.375.766-.597 1.026-.597.228 0 .6-.145.825-.322.396-.312.653-.322 8.069-.322 5.778 0 7.69.047 7.79.193.07.106.789 1.393 1.595 2.86 1.4 2.547 1.512 2.898.93 2.906-.1.001-.75-.995-1.442-2.213-1.182-2.08-1.698-2.767-2.081-2.77-.089-.002-.002.123.193.276.287.225 2.788 4.406 2.788 4.66 0 .04-.213-.08-.474-.266-.26-.185-.838-.975-1.284-1.754-1.208-2.11-1.055-2.03-3.979-2.091-1.688-.035-2.481.004-2.481.12 0 .34-.592.165-1.044-.307l-.46-.48 3.129-.047 3.128-.047-3.263-.037c-1.794-.02-3.263.006-3.263.059 0 .052.242.378.538.723.296.346.623.91.726 1.253.23.769.249 2.923.025 2.923-.088 0-.16-.277-.16-.615 0-.85-.446-2.079-.858-2.367-.53-.372-1.285-.301-1.72.162-.355.377-.376.51-.34 2.175.026 1.22-.018 1.773-.142 1.773-.126 0-.172-.76-.152-2.537zm1.118-3.035c0-.285-.347-.235-.447.064-.035.105.051.191.191.191s.256-.115.256-.255zm.886.093c.056-.09-.016-.207-.158-.262-.309-.118-.48.012-.332.252.134.217.36.221.49.01zM17.55 17.49c.044-1.746.057-1.803.488-2.124.92-.687 1.785.154 1.982 1.929l.11.988-.864.327c-.476.18-1.067.405-1.313.5l-.449.173zm14.14.227c.97-.04 1.448-.13 1.652-.315.274-.248.269-.291-.123-.96l-.41-.7.933.001c.868.001.953.035 1.208.484.275.482.276.482 1.787.482 1.413 0 1.523.024 1.675.363.34.757.285.767-4.032.732-2.23-.018-3.44-.057-2.69-.087zm-2.722-2.582c-.657-1.217-1.333-2.412-1.501-2.655l-.306-.444h3.174l.636 1.25c.35.686.663 1.302.694 1.369.031.066-.312.12-.762.12-.682 0-.82.05-.82.29 0 .494.35.677 1.29.677h.902l.354.73c.195.401.355.764.355.806 0 .041-.635.074-1.41.073l-1.41-.003zm40.271 2.075c-.396-.11-.405-.15-.564-2.466-.133-1.946-.214-2.414-.469-2.693-.258-.284-.277-.404-.12-.748.274-.602.239-2.084-.055-2.328-.153-.127-.242-.137-.242-.03 0 .095.072.217.161.272.232.143.188 1.542-.063 1.995-.162.291-.245.333-.345.17-.08-.127-.056-.238.057-.276.233-.078.26-1.809.029-1.809-.26 0-.185-.44.093-.547.14-.053.958-.097 1.818-.097 2.373 0 2.263-.182 2.176 3.583-.039 1.707-.075 3.514-.08 4.015-.007.794-.053.924-.356 1.005-.45.12-1.526.097-2.04-.046zm1.934-1.468c0-.53-.173-.616-.484-.241-.16.193-.16.29 0 .483.31.374.484.288.484-.242zm-.253-1.018c-.171-.446-.392-.306-.392.247 0 .466.025.493.248.27.14-.14.202-.364.144-.517zm.253-.754c0-.266-.07-.483-.156-.483s-.12-.098-.074-.216c.046-.119-.033-.312-.174-.43-.23-.19-.253-.136-.223.498.034.705.213 1.114.485 1.114.078 0 .142-.217.142-.483zm-1.934-3.223c0-.177-.068-.322-.152-.322-.216 0-.368.293-.25.483.168.273.402.18.402-.16zm.06-.73a.257.257 0 0 0-.15-.343c-.315-.121-.46.024-.338.341.123.319.366.32.489.001zM9.62 15.652c0-.945.054-1.123.51-1.691l.511-.636h3.276c3.457 0 3.566.026 3.058.72-.148.204-.315.263-.521.183-.522-.2-5.223-.135-5.478.076-.139.115-.228.493-.228.969 0 .594-.083.857-.352 1.108-.62.578-.776.432-.776-.729zm25.782.413c-.145-.272-.123-.323.144-.323.413 0 .834-.428.718-.73-.062-.162-.33-.236-.85-.236h-.76l-.714-1.236c-.919-1.592-.9-1.504-.324-1.504.485 0 .497.019.5.766.003 1.049.14 1.224.818 1.048.64-.166.839-.661.32-.796-.242-.064-.336-.217-.336-.553 0-.42.052-.465.545-.465.495 0 .574.07.875.766.183.42.608 1.345.946 2.054.337.71.638 1.344.668 1.41.03.067-.492.121-1.161.121-1.052 0-1.24-.044-1.39-.322zm1.665-.07c.048-.126-.02-.319-.152-.428-.193-.16-.29-.15-.493.053-.139.139-.203.332-.143.43.156.253.684.217.788-.054zm1.613-.38c-.062-.238-.217-.356-.466-.356-.312 0-.538-.308-1.362-1.853-.966-1.811-1-1.853-1.542-1.853h-.553v.967c0 .752-.053.967-.241.967-.187 0-.243-.212-.245-.927 0-.51-.078-1.035-.171-1.168-.133-.19-.147-.163-.067.12l.102.363h-3.717c-2.371 0-3.717-.058-3.717-.16 0-.09.108-.162.241-.162a.242.242 0 0 0 .242-.242.242.242 0 0 0-.242-.241c-.191 0-.241-.23-.241-1.106V8.859l.443.08c.243.044.533.152.644.24.148.116.202.068.202-.183 0-.26-.1-.342-.415-.342-.308 0-.4-.073-.36-.282.046-.243.28-.289 1.683-.328 1.533-.043 1.635-.026 1.717.288.071.273.03.317-.222.237-.26-.083-.309-.017-.309.424v.522l.373-.35.373-.35 9.255-.026c5.09-.014 9.02-.055 8.731-.09-.388-.049-.523-.147-.523-.378 0-.172-.11-.312-.242-.312-.134 0-.242.143-.242.322 0 .178-.072.323-.16.323-.09 0-.162-.145-.162-.323 0-.179-.107-.322-.242-.322-.134 0-.241.143-.241.322 0 .318-.108.323-7.962.323-7.881 0-7.96-.004-7.876-.323.082-.314.22-.322 5.571-.322 4.998 0 5.516-.025 5.806-.282.233-.207.337-.228.389-.08.052.15.801.2 3.002.2 2.754 0 2.949.02 3.214.33.241.282.438.323 1.363.282.92-.04 1.09-.094 1.14-.358.057-.294.045-.296-.218-.033-.441.442-.64.225-.691-.757-.054-1.012.098-1.122.982-.712.332.155.434.317.435.697 0 .553.361.935 1.36 1.44l.632.32-3.936.1c-2.165.053-5.985.108-8.489.12l-4.552.022V10.91l4.069.004 4.069.004-.403.318c-.373.295-.65.317-3.756.307-2.322-.008-3.422.046-3.578.175-.33.275-.562.051-.562-.543 0-.287-.087-.61-.193-.716-.27-.269-2.646-.262-2.75.008-.059.152.266.202 1.312.202 1.332 0 1.388.014 1.341.349-.026.194.46 1.325 1.098 2.555.63 1.213 1.102 2.25 1.049 2.303-.054.053-.139-.064-.19-.26zm-10.69-4.304a.242.242 0 0 0-.242-.241.242.242 0 0 0-.242.241c0 .133.11.242.242.242a.242.242 0 0 0 .242-.242zm23.284-4.109c0-.295-.091-.567-.202-.604-.14-.046-.201.139-.201.604 0 .466.062.651.201.605.11-.037.202-.31.202-.605zm.725.242c0-.133-.073-.242-.161-.242-.09 0-.162.11-.162.242 0 .133.073.242.162.242.088 0 .16-.109.16-.242zm-21.6 7.904c-.085-.085-.153-.211-.153-.282 0-.183 5.6-.162 5.713.02.05.083.006.204-.1.27-.286.177-5.282.17-5.46-.008zm1.826-.774c-.217-.284-1.335-2.329-1.335-2.443 0-.052.38-.094.846-.094l.846.002.645 1.167c.884 1.601.885 1.57-.05 1.57-.448 0-.865-.089-.952-.202zm-28.948-.322c-.173-.645-.113-1.739.1-1.805.11-.034.708-.098 1.329-.141.62-.044.983-.043.805.002-.614.156-.64.373-.045.373.32 0 .62-.09.664-.202.045-.11.087.325.094.967l.013 1.168H4.804c-1.348 0-1.437-.02-1.528-.362zm2.798.04c0-.088-.253-.16-.564-.16-.31 0-.563.072-.563.16 0 .089.253.161.563.161.31 0 .564-.072.564-.16zm0-.805c0-.089-.253-.162-.564-.162-.31 0-.563.073-.563.162 0 .088.253.16.563.16.31 0 .564-.072.564-.16zm1.509.725c-.051-.133-.23-.242-.398-.242s-.305-.073-.305-.161c0-.089.15-.161.332-.161.194 0 .288-.072.225-.172-.058-.095-.208-.134-.331-.086-.13.05-.226-.013-.226-.145 0-.132.097-.195.226-.145.123.047.273.009.331-.086.063-.1-.03-.172-.225-.172-.183 0-.332-.072-.332-.161 0-.089.181-.161.403-.161.25 0 .403-.092.403-.242 0-.195.25-.242 1.289-.242 1.182 0 1.289.027 1.289.323 0 .21-.107.322-.312.322-.314 0-1.46 1.245-1.46 1.588 0 .274-.801.224-.91-.057zm31.804-1.466c-.054-.054-.46-.11-.903-.124-.92-.03-1.13-.163-.885-.553.153-.242.583-.28 3.685-.318l3.513-.043 1.184-1.125 1.184-1.125H53.448v.725c0 .699.018.725.483.725.412 0 .484.062.484.414 0 .798-.261 1.037-1.134 1.037-.746 0-.8-.028-.8-.403 0-.255.091-.403.247-.403.387 0 .491-.5.155-.746-.327-.239-.724-.04-.724.363 0 .162-.249.223-.927.226-.51.002-1.796.219-2.86.482-2.345.582-2.98.615-2.98.158 0-.179-.108-.322-.243-.322-.134 0-.241.143-.241.322 0 .308-.108.323-2.445.323-1.948 0-2.499.049-2.712.242-.147.133-.311.198-.364.145zm9.194-1.772c1.064-.479 1.27-.631 1.203-.888-.1-.382-.365-.564-.503-.346-.057.09-.683.337-1.392.55-1.169.35-1.294.428-1.34.825-.044.373.008.438.349.438.22 0 .977-.26 1.683-.579zM10.747 12.21c0-.366-.01-.367-1.967-.31l-1.967.057-.11-.539c-.175-.854.005-1.798.344-1.798.24 0 .272.103.2.635-.046.35-.038.82.02 1.048.1.404.132.412 1.536.412.897 0 1.456-.066 1.493-.176.041-.125 2.377-.183 7.909-.197l7.85-.02V8.977h-1.208c-.699 0-1.209.068-1.209.161 0 .089-.177.161-.393.161-.217 0-.438-.072-.493-.161-.055-.089-.313-.161-.574-.161-.26 0-.474.072-.474.161 0 .089-.217.161-.483.161s-.483-.072-.483-.161c0-.089-.214-.161-.474-.161s-.519.072-.574.161c-.054.089-.276.161-.493.161-.216 0-.393-.072-.393-.161 0-.089-.213-.161-.474-.161-.26 0-.519.072-.573.161-.055.089-.273.161-.484.161-.21 0-.428-.072-.483-.161-.055-.089-.313-.161-.574-.161-.26 0-.474.072-.474.161 0 .089-.176.161-.393.161-.216 0-.438-.072-.493-.161-.058-.095-1.038-.162-2.386-.164-1.536-.001-2.207-.053-2.045-.158.148-.096 3.304-.157 8.097-.159l7.855-.002V11.876h-7.442c-7.419 0-7.443.001-7.815.35l-.373.351Zm-6.82-.562c-.129-.334.106-.447 1.163-.56.994-.108 1.185-.434.212-.364-.808.058-1.507-.211-1.383-.535.074-.191.369-.246 1.327-.246h1.231v1.89l-1.228.03c-.969.023-1.249-.023-1.323-.215Zm3.598-.97v-.715l1.33.004 1.328.003-.056.712c-.054.673-.083.71-.549.71-.475 0-.483-.01-.211-.31.321-.354.286-.833-.07-.95-.206-.069-.21-.042-.022.185.285.346.123.754-.3.754s-.585-.408-.3-.754c.187-.227.184-.254-.022-.186-.356.118-.391.597-.07.952.273.301.262.31-.389.31h-.67Zm1.7.056c.166-.268-.207-.577-.43-.354-.185.186-.069.53.18.53.078 0 .19-.08.25-.176zm1.2-.55v-.886h4.19V11.071h-4.19zm1.58.067c.067-.583-.34-.895-.86-.658-.711.325-.389 1.215.407 1.122.299-.035.416-.155.452-.464zm-1.043.082c-.054-.14.021-.373.166-.518.244-.244.283-.244.528 0 .329.33.178.772-.264.772-.183 0-.376-.114-.43-.254zm.678-.079c.149-.24-.023-.37-.332-.252-.142.055-.214.173-.159.262.131.211.357.207.491-.01zm2.646.184c.375-.701-.428-1.26-.996-.693-.262.263-.287.38-.136.661.232.434.907.453 1.132.032zm-.92-.037c-.231-.23.024-.78.362-.78.338 0 .594.55.363.78-.102.103-.265.186-.363.186-.097 0-.26-.083-.363-.186zm.604-.217a.242.242 0 0 0-.242-.241.242.242 0 0 0-.241.241c0 .133.108.242.241.242a.242.242 0 0 0 .242-.242zm1.934.012c0-.855.02-.898.41-.898.396 0 .41.034.363.846-.042.737-.095.853-.41.898-.34.048-.363-.008-.363-.846zm1.933-.012c0-.838.022-.886.403-.886.38 0 .403.048.403.886s-.022.887-.403.887c-.38 0-.403-.049-.403-.887zm2.085.846a25.942 25.942 0 0 1-.04-.886c-.028-.78-.002-.846.332-.846.332 0 .363.075.363.886 0 .78-.04.887-.323.887-.177 0-.326-.019-.332-.04zm1.944-.846c0-.778.039-.886.322-.886.283 0 .322.108.322.886 0 .78-.039.887-.322.887-.283 0-.322-.108-.322-.887zm2.094.008v-.894h1.951l-.049.846-.049.846-.926.048-.927.049v-.895zm1.444.322c.262-.315.07-.852-.354-.986-.478-.152-.996.47-.76.913.195.363.838.406 1.114.073zm-.946-.151c-.144-.174-.128-.284.072-.484.143-.142.317-.259.389-.259.247 0 .497.444.397.705-.124.321-.605.342-.858.038zm.63-.179a.242.242 0 0 0-.241-.241.242.242 0 0 0-.242.241.242.242 0 0 0 .483 0zm-10.232 0c0-.477.056-.564.363-.564s.362.087.362.564c0 .478-.055.564-.362.564s-.363-.086-.363-.564zm2.014 0c0-.494.05-.564.403-.564.353 0 .403.07.403.564 0 .494-.05.564-.403.564-.353 0-.403-.07-.403-.564zm2.095 0c0-.456.062-.564.322-.564.261 0 .323.108.323.564 0 .457-.062.564-.323.564-.26 0-.322-.107-.322-.564zm1.934 0c0-.494.05-.564.403-.564.353 0 .402.07.402.564 0 .494-.05.564-.402.564-.353 0-.403-.07-.403-.564zm1.933 0c0-.494.05-.564.403-.564.353 0 .403.07.403.564 0 .494-.05.564-.403.564-.353 0-.403-.07-.403-.564zm30.884.457c-.059-.06-.107-.35-.107-.645V9.46h6.848c3.767 0 6.903-.018 6.97-.04.066-.022.142.268.17.644l.05.685h-6.912c-3.801 0-6.96-.048-7.019-.107zm-16.22-.618V9.46h9.247l-.546.564-.547.564h-8.154ZM7.122 9.46c-.213-.091.18-.142 1.155-.15.812-.006 1.593-.055 1.734-.11.188-.072.23-.028.157.162-.08.21-.347.257-1.412.248-.721-.006-1.457-.074-1.634-.15ZM6.75 8.296c.044-.6.097-.682.452-.695 2.706-.105 2.683-.102 2.095-.252a3.17 3.17 0 0 0-1.088-.057c-.402.067-.523.03-.523-.162 0-.196.2-.249.942-.249 1.104 0 1.475.285 1.475 1.133 0 .434.04.503.201.341.142-.142.202-.874.202-2.49 0-1.258.058-2.378.13-2.489.08-.124.5-.201 1.096-.201h.965l.574 1.209c.508 1.069.624 1.208 1.014 1.208.242 0 .65.18.907.4l.466.402 5.48.042 5.481.042-.644.323c-.599.299-1.02.325-5.857.368l-5.212.047-.706-.65c-.695-.641-.726-.652-1.918-.652H11.07v1.128h1.682c1.702 0 1.929.076 1.939.645.003.188.265.252 1.177.289.694.028 1.135.11 1.079.201-.055.09-1.4.156-3.188.158-2.82.003-3.128.031-3.495.319-.337.263-.663.315-1.983.318l-1.58.004Zm19.265.068c-.893-.077-.735-.355.201-.355.443 0 .806.065.806.144 0 .205-.312.27-1.007.21zm-8.822-.194c0-.095.587-.161 1.44-.161.793 0 1.486.073 1.54.161.064.103-.454.161-1.44.161-.92 0-1.54-.065-1.54-.16zm3.545 0c0-.099.778-.161 2.014-.161 1.235 0 2.014.062 2.014.161s-.779.161-2.014.161c-1.236 0-2.014-.062-2.014-.16zm28.79-.04c-.222-.163-.28-.384-.24-.932.05-.707.062-.72.664-.77l.612-.05-.048.936c-.042.796-.098.944-.373.983a.977.977 0 0 1-.615-.167zm.697-.94c0-.84-.38-.784-.453.066-.038.45.01.592.202.592.187 0 .251-.17.251-.658zm-35.248.456c.051-.153 1.313-.22 5.29-.282 2.984-.046 5.362-.15 5.546-.241.208-.104 2.924-.133 7.654-.08l7.332.08.013.362.012.363h-7.062c-5.377 0-7.053-.046-7.022-.192.022-.105-.087-.22-.242-.253-.175-.039-.282.034-.282.191 0 .226-.618.254-5.653.254-4.45 0-5.639-.043-5.586-.202zm26.305-.2c0-.252.092-.404.242-.404s.242.152.242.403c0 .25-.092.403-.242.403s-.242-.152-.242-.403zm.88.167c.108-.129.149-.31.091-.403-.062-.1.072-.168.337-.168h.44l-.378.403c-.399.425-.823.57-.49.168Zm1.134-.228c0-.248.944-.343 3.4-.343 2.06 0 2.378.034 2.298.242-.077.202-.552.242-2.895.242-1.541 0-2.803-.064-2.803-.141zm-16.395-.776c.155-.04.282-.141.282-.223 0-.226.768-.179.852.052.058.161.14.161.414 0 .187-.11.844-.201 1.458-.201.746 0 1.14.066 1.19.201.06.161.117.161.288 0 .117-.11.41-.201.65-.201.242 0 .472.09.512.201.06.161.117.161.288 0 .258-.244 2.566-.28 2.566-.04 0 .088.109.16.242.16s.241-.063.241-.142c0-.236 3.742-.216 3.91.02.114.163.16.163.225.002.101-.25 1.183-.269 1.183-.02 0 .126.072.12.238-.017.16-.133.687-.18 1.611-.14l1.373.056v-.43c0-.373.107-.466.806-.698.756-.251.877-.373.822-.829-.033-.273.865-.535 1.385-.403.341.086.557.33.882.995.236.485.48 1.081.541 1.325l.111.443L37.795 6.7c-6.147-.01-11.05-.052-10.894-.092Zm21.197-.566c.547-.547-.096-1.458-.773-1.096-.314.169-.455.942-.215 1.182.175.175.78.123.988-.086zm-.78-.217c-.171-.207-.16-.297.06-.518.251-.25.287-.25.537 0 .222.221.232.311.061.518-.114.137-.262.25-.329.25s-.215-.113-.329-.25z" style="opacity:.997;fill:#000;fill-opacity:1;stroke-width:.161134"/></svg>