<svg xmlns="http://www.w3.org/2000/svg" width="345.583" height="128" viewBox="0 0 91.436 33.867"><path d="M49.216 30.34c-3.232-.427-3.144-.404-3.144-.826 0-.238.077-.346.245-.345.434.003 6.907.675 6.952.722.025.024.012.218-.029.429-.07.362-.115.383-.791.368-.395-.009-1.85-.165-3.233-.348zm1.328-1.058c-1.268-.129-2.698-.275-3.176-.325l-.87-.091.075-.863c.146-1.66-.172-1.491 2.808-1.491 2.546 0 2.62-.008 3.219-.36l.613-.359-.093 1.443c-.051.793-.133 1.63-.182 1.861l-.089.42zm3.327-3.224c-.05-.675.047-.936.35-.941.061-.001.066.073.009.165-.057.092-.087.47-.068.838.049.915-.224.857-.291-.062zm-10.022-3.58c-1.378-2.064-2.61-3.793-2.738-3.842-.128-.05-.455-.09-.726-.09-.67 0-1.773-.626-2.187-1.241-.385-.573-.59-1.274-.373-1.274.082 0 .142-.384.142-.908v-.908H43.684l.041 1.013.041 1.013 1.607.038c1.309.03 1.64.081 1.782.271.126.169.175 1.021.175 3.084v2.85l.501.897c.713 1.274.798 1.314 2.744 1.314h1.646v-4.32c0-3.89.027-4.406.272-5.194.15-.482.24-.928.202-.991-.04-.063-2.172-.115-4.74-.115h-4.669l-.668-.829c-.653-.81-.684-.829-1.367-.833-.384-.003-.856.085-1.048.195-.234.133-.793.201-1.693.204-1.185.005-1.391-.032-1.742-.308-.361-.284-.582-.318-2.377-.365l-1.98-.05-.558.504-.558.504h-2.743c-1.508 0-2.743-.031-2.743-.07 0-.15 3.109-5.16 3.52-5.672l.44-.547h9.838c9.56 0 10.378.033 10.378.421 0 .143 1.554 2.388 2.006 2.898l.278.315h14.205v1.343c0 1.335-.002 1.344-.314 1.229-.173-.064-1.98-.137-4.018-.163l-3.703-.046-2.096.861c-2.417.994-3 1.462-3.282 2.637-.144.6-.13.76.105 1.294.325.733.978 1.314 1.681 1.494.285.073 1.547.27 2.806.438 1.73.23 2.368.268 2.62.153.183-.083.332-.214.332-.29 0-.088-.133-.08-.354.02-.281.129-.896.093-2.963-.175-2.841-.367-3.169-.487-3.784-1.392-.271-.4-.32-.618-.271-1.221.1-1.248.504-1.599 3.119-2.713l2.227-.949h3.493c3.162.001 3.525.025 3.824.255l.33.254-.38.3c-.21.164-.735.472-1.169.685-.774.38-.846.389-4.142.478-1.844.05-3.863.096-4.486.104-1.452.02-1.983.326-2.26 1.309-.168.594-.16.718.089 1.28.174.393.432.702.705.843.236.122 1.515.372 2.842.556 2.295.317 2.428.322 2.761.093.192-.133.463-.47.601-.748.215-.431.229-.596.093-1.109-.087-.33-.342-.89-.566-1.243-.224-.353-.408-.675-.408-.716 0-.041.897-.106 1.992-.143 2.085-.071 2.562-.194 3.703-.95.25-.167.454-.237.454-.157 0 .08-.067.187-.149.237-.082.05-.333.347-.559.658-.32.444-.41.715-.41 1.253 0 .378.068.814.151.969.117.218.1.337-.07.526-.121.134-.22.333-.221.442 0 .139-.184.204-.6.215-.76.02-1.915.518-1.915.825 0 .126.645 1.27 1.432 2.543 1.02 1.648 1.541 2.36 1.81 2.475l.378.16-.492.393c-.27.216-.51.371-.53.344-.368-.471-3.058-5.161-3.081-5.372-.046-.415-.196-.615-.46-.615-.196 0-.192.026.03.189.4.292.18.571-.713.9l-.815.3-2.352-.364c-3.241-.501-3.032-.65-3.032 2.159 0 1.557-.052 2.278-.175 2.436-.096.123-.715.512-1.374.865l-1.2.641h-5.354Zm2.21.067c.109-.131.148-.84.122-2.2l-.04-2.008-1.78-.04c-1.183-.025-1.783.011-1.783.11 0 .197 2.49 3.935 2.768 4.157.287.227.513.221.713-.019zM52.29 11.42v-.49l-2.151.036c-1.183.019-2.232.035-2.33.035-.4 0-.631.446-.491.946.006.021 1.127.021 2.491 0l2.48-.038zm-5.392-2.81a9.651 9.651 0 0 0-.67-.804c-.393-.422-.452-.439-1.54-.439-1.323 0-1.385.092-.701 1.044l.431.6 1.37-.018 1.37-.019zm18.44 17.179-.315-.442.62-.554c.638-.57 2.346-1.982 2.79-2.307.223-.163.267-.129.415.32.092.277.133.59.093.694-.098.255-2.43 2.287-2.91 2.534-.36.187-.394.175-.693-.245zm-20.005-.076c-.326-.05-.639-.435-1.94-2.39-.852-1.282-1.616-2.394-1.697-2.47-.203-.192.151.369 1.67 2.647.714 1.072 1.28 1.968 1.258 1.99-.022.022-.556-.035-1.186-.126-.83-.122-1.216-.246-1.403-.453-.42-.467-3.79-5.384-3.79-5.53 0-.075-.052-.136-.117-.136-.151 0-.442-.636-.442-.967 0-.141.088-.33.196-.418.154-.128.382-.044 1.083.4.702.446 1.021.564 1.528.565l.64.001 2.225 3.304c2.217 3.294 2.485 3.702 2.405 3.662a4 4 0 0 0-.43-.08zM40.95 19.59c-.076-.198-.477-.485-.677-.485-.074 0 .64.681.728.694.017.002-.006-.092-.051-.21zm-1.13-.577a.8.8 0 0 0-.42-.005c-.135.035-.058.067.173.07.23.002.342-.027.247-.065zm8.806 5.227c-.074-.096-.364-.56-.646-1.031l-.512-.857v-2.93c0-3.608.13-3.392-2.037-3.391h-1.526l.047-.909.047-.908h4.25c2.338 0 4.25.055 4.25.122s-.094.39-.21.716c-.169.48-.21 1.439-.21 4.979v4.384h-1.659c-1.163 0-1.7-.052-1.794-.175zM63.9 21.62c-.82-1.308-1.458-2.434-1.415-2.503.118-.191 1.33-.57 1.824-.57.277 0 .548.116.731.314.546.589 2.413 3.352 2.413 3.571 0 .345-1.348 1.565-1.728 1.565-.277 0-.576-.39-1.825-2.377zm-29.933 1.463c.521-1.358.462-2.906-.153-4.007-.474-.85-1.455-1.597-2.25-1.714a17.14 17.14 0 0 1-1.132-.22c-.375-.088-2.946-.14-6.561-.135-5.176.007-5.988.037-6.282.23-.186.12-.368.336-.405.477-.037.143-.246.297-.47.346-.513.113-.545.166-.97 1.6-.339 1.138-.374 1.194-.784 1.235-.428.042-.428.042-.519-.824-.05-.477-.09-1.274-.09-1.772 0-.788-.027-.882-.21-.73-.177.146-.21.12-.21-.167 0-.216-.153-.453-.419-.65-.411-.304-.42-.334-.42-1.548 0-.972-.044-1.256-.209-1.32-.138-.052-.21-.271-.21-.643v-.564h.614c.417 0 .64.068.695.21.07.182.846.21 5.814.21 3.857 0 5.734.047 5.734.144 0 .096 1.043.14 3.083.13 1.904-.01 3.148.04 3.253.127.106.088.25.093.376.014.173-.108.176-.174.019-.428-.117-.189-.137-.349-.054-.432.073-.073 1.022-.132 2.11-.131 1.77.001 2.02.031 2.381.288.346.247.61.287 1.85.283.989-.004 1.556-.068 1.795-.205.192-.11.58-.202.862-.205.432-.004.592.087 1.013.58.275.32.5.635.5.698 0 .063-1.1.115-2.445.115h-2.446v.908c0 .513-.06.909-.14.909-.221 0-.162.59.11 1.1.25.462.248.468-.102.851-.304.332-.412.369-.773.265-.7-.2-1.132-.137-1.52.222-.313.29-.37.46-.37 1.108 0 .42.074 1.082.163 1.471.155.668.141.751-.248 1.513-.3.59-.5.819-.742.853-.263.038-.311-.001-.238-.192zM15.468 16.73c0-.367-.507-.636-.777-.412-.47.39-.006 1.101.53.814a.508.508 0 0 0 .247-.402zm15.721 0c0-.417-.482-.554-.763-.216-.146.176-.146.256 0 .432.28.338.763.201.763-.216zm-14.765-1.52c.248-.158.155-.718-.152-.91-.448-.282-.96.285-.75.831.085.22.606.266.902.079zm-.612-.306c-.129-.208.02-.321.288-.219.124.048.185.15.138.227-.114.184-.31.18-.426-.008zm15.028.15a.53.53 0 0 0 0-.56c-.264-.493-1.118-.28-1.118.28 0 .559.854.772 1.118.28zm-.699-.199c0-.122.1-.221.222-.221.121 0 .196.075.166.166-.087.259-.388.302-.388.055zm6.711.264c.274-.33-.039-.904-.492-.904-.454 0-.766.574-.493.904.098.117.32.214.493.214s.395-.097.492-.214zm-.632-.206a.26.26 0 0 1 .038-.303c.094-.094.174-.086.242.024a.26.26 0 0 1-.039.304c-.093.093-.173.085-.24-.025zm-2.965 8.103c-.3-.121-.304-.145-.105-.708.721-2.045-.54-4.184-2.494-4.233-.62-.015-.822.053-1.403.471-.794.572-.326.562-6.706.144-3.196-.21-4.08-.31-4.273-.483a.95.95 0 0 0-.546-.22c-.405 0-.389-.356.028-.63.48-.314 11.963-.228 13.402.102 1.9.435 2.758 1.436 2.868 3.343.06 1.02-.156 2.37-.374 2.347a2.602 2.602 0 0 1-.397-.133zm53.236-6.181.036-6.184.35-.047c.412-.056.935-.506 1.066-.918.092-.289.094-.289.202-.013.151.386.155 1.104.006 1.265-.352.38-.835 4.325-.931 7.609a98.14 98.14 0 0 1-.142 2.9c-.092 1.402-.131 1.571-.363 1.571-.25 0-.259-.234-.224-6.183zm-18.95 5.834a.343.343 0 0 1 .293-.21c.172 0 .18.04.038.21-.096.115-.227.21-.292.21-.065 0-.082-.095-.038-.21zm17.672-.49c-.262-.062-.536-.22-.61-.35-.073-.13-.298-.414-.501-.628-.564-.597-9.986-7.795-10.419-7.96-.209-.08-.816-.144-1.349-.144s-.969-.055-.969-.121c0-.067.263-.444.584-.839l.584-.717H79.39l.599-.588c.466-.458.635-.55.766-.419.12.12.95.168 2.866.168h2.697V22.32l-.315-.015a5.427 5.427 0 0 1-.79-.126zm-.616-3.796c.31-.291.323-.392.323-2.35 0-1.425-.053-2.11-.174-2.264-.096-.12-.58-.51-1.076-.865l-.902-.646h-2.697c-2.51 0-2.716.02-2.976.28-.154.153-.28.363-.28.464 0 .193 6.048 5.156 6.691 5.492.505.263.715.241 1.09-.111zm-17.035 3.552c-.303-.347-2.296-3.174-2.479-3.516-.123-.231-.097-.34.139-.576l.29-.29 1.218 1.65c1.806 2.446 1.873 2.55 1.788 2.772-.108.282-.697.258-.956-.04zm-8.45-3.993c.006-.7-.08-1.065-.424-1.8l-.432-.923.634-.05c.547-.044.664-.004.857.29.308.47.262 1.768-.09 2.564-.417.941-.555.92-.546-.08zm7.921-4.845c0-.154-.063-.28-.14-.28-.076 0-.14-.224-.14-.498 0-.452.03-.49.315-.404.497.15.608.317.416.624-.094.151-.171.401-.171.556 0 .155-.063.281-.14.281-.077 0-.14-.126-.14-.28zm1.875.151c-.032-.032-.058-1.683-.058-3.668V5.97h1.315c.999 0 1.528.074 2.201.31.86.3 1.1.312 8.362.384l7.476.074.042.715c.03.531-.051.925-.32 1.532-.618 1.397-.384 1.317-3.854 1.317H81.03l-.288-.466c-.397-.643-1.729-1.88-2.13-1.978-.181-.044-1.681-.063-3.334-.041l-3.004.04-.07.698c-.039.384-.178.857-.31 1.05-.4.589-.668 1.528-.673 2.356-.006 1.089-.157 1.239-1.306 1.297-.522.027-.976.022-1.007-.01zm-65.652-.372c-.11-.286-.107-3.805.003-4.216l.084-.315h8.632v4.752H7.658c-3.808 0-4.327-.026-4.402-.221zm1.802-2.155V8.835h-.7l-.039 1.739c-.021.956-.006 1.825.035 1.93.04.107.215.173.389.148.309-.044.315-.08.315-1.93zM14.3 12.61c-.054-.14-.271-.211-.645-.211h-.563V9.227l.496-.51c.272-.282.615-.511.761-.511a.48.48 0 0 0 .384-.211c.103-.185.988-.207 7.041-.175l6.924.036-1.5 2.446-1.5 2.445-5.659.037c-4.942.032-5.669.01-5.74-.175zm2.586-.785c.54-.385.513-1.011-.059-1.357-.35-.211-.423-.213-.769-.02-.288.161-.391.337-.424.724-.037.438.014.542.35.724.494.268.418.274.902-.071zm-.908-.24c-.324-.359-.288-.68.107-.938.283-.186.384-.192.628-.04.378.236.39.89.021 1.088-.374.2-.49.184-.756-.11zm3.136.246c.254-.182.406-.414.406-.624 0-.35-.484-.904-.788-.904-.293 0-.888.314-.904.476-.05.486.073.88.34 1.093.39.31.458.306.946-.041zm-.898-.194c-.32-.243-.259-.75.123-1.002.243-.16.332-.157.594.027.382.268.403.838.037 1.033-.346.186-.442.178-.754-.058zm3 .239c.35-.206.407-.318.372-.73-.031-.36-.14-.54-.426-.699-.904-.503-1.679.735-.862 1.377.452.356.407.353.917.052zm-.753-.187c-.337-.196-.315-.856.037-1.075.232-.145.341-.136.629.052.43.283.446.67.037.956-.361.253-.38.255-.703.067zm2.983.142c.575-.41.557-.986-.042-1.365-.424-.269-.47-.272-.839-.054-.515.305-.558 1.137-.076 1.474.414.288.48.285.957-.055zm-.908-.173c-.318-.233-.248-.772.133-1.023.243-.16.332-.157.594.027.382.268.403.838.037 1.033-.351.188-.463.183-.764-.037zm3.152.167c.857-.61.137-1.795-.845-1.389-.377.156-.434.25-.434.705 0 .386.083.583.314.745.415.289.479.285.965-.061zm-.906-.188c-.321-.243-.259-.75.122-1.002.244-.16.332-.157.594.027.383.268.403.838.038 1.033-.346.186-.443.178-.754-.058zM17.711 9.53c.593-.307.566-.836-.057-1.133-.434-.207-.496-.206-.838.018-.497.326-.49.834.015 1.108.477.259.394.258.88.007zm-.6-.16a.54.54 0 0 1 .349 0c.096.04.017.071-.175.071s-.27-.031-.175-.07zm2.753.21c.274-.124.356-.265.356-.611 0-.362-.078-.482-.397-.614-.896-.371-1.6.613-.826 1.154.387.27.425.273.867.072zm-.518-.21a.54.54 0 0 1 .35 0c.096.04.017.071-.175.071s-.27-.031-.175-.07zm2.765.147c.454-.297.446-.793-.018-1.097-.303-.199-.428-.21-.768-.07-.719.298-.475 1.314.332 1.383.06.006.265-.092.454-.216zm-.669-.146a.54.54 0 0 1 .35 0c.096.039.017.07-.175.07s-.27-.031-.175-.07zm2.837.159c.566-.293.563-.82-.007-1.115-.379-.196-.46-.196-.838 0-.556.288-.572.817-.035 1.108.477.259.394.258.88.007zm-.6-.16a.54.54 0 0 1 .349 0c.096.04.017.071-.175.071s-.27-.031-.175-.07zm2.753.21c.274-.124.356-.265.356-.611 0-.368-.077-.481-.419-.623-.849-.352-1.541.649-.804 1.163.387.27.425.273.867.072zm-.518-.21a.54.54 0 0 1 .35 0c.096.04.017.071-.175.071s-.27-.031-.175-.07zm45.597 2.33c-.003-.625.505-1.964.818-2.158.085-.052.154-.406.154-.786 0-.643.024-.69.35-.69.217 0 .349.08.349.21 0 .178.359.21 2.393.21 2.11 0 2.372-.025 2.218-.21-.147-.178-.113-.21.228-.21.22 0 .59.117.82.259.544.334 1.608 1.403 1.608 1.616 0 .09-.245.404-.545.696l-.544.531-3.403-.002-3.404-.002-.52.582-.52.582zm-59.303.325c-.051-.05-.093-.68-.093-1.397V9.324h.838v1.397c0 1.37-.006 1.398-.326 1.398-.18 0-.368-.042-.42-.094zm54.639-.559c-.152-.152-.109-2.562.047-2.562.083 0 .14.536.14 1.328 0 1.328-.013 1.409-.187 1.234zm.466-1.304V8.888l.594.043.594.043v2.376l-.594.043-.594.043zM51.41 8.912c-.476-.688-.866-1.284-.866-1.326 0-.041 1.996-.092 4.437-.112l4.436-.037.042-1.044c.046-1.157.22-1.485 1.393-2.624.492-.477.711-.594 1.119-.594.394 0 .47.037.339.168-.346.346-.197.567.317.47.408-.076.598-.012 1.203.405.396.272.865.494 1.043.494.178 0 .438.144.578.32.419.524 1.22.938 1.815.938.303 0 .625.075.718.168.206.206.223 1.842.023 2.217-.114.211-.296.27-.839.27h-.694v1.537H52.277Zm9.614-1.139c0-.16.107-.473.238-.694.302-.512.137-.696-.23-.256-.287.346-.394 1.243-.147 1.243.077 0 .14-.132.14-.293zm3.012-.558c.18-.292-.155-.38-1.16-.305-.726.054-1.013.13-1.013.266 0 .24 2.027.276 2.173.04zm-3.673-.162c.1-.284-.049-.524-.323-.524-.309 0-.467.218-.36.496.095.248.6.269.683.028zm3.848-.971c.392-.392.096-1.09-.462-1.09-.374 0-.628.254-.628.628 0 .375.254.63.628.63.162 0 .37-.076.462-.168zm-.606-.399c-.132-.215.05-.353.229-.174.1.1.103.179.007.238-.078.048-.184.02-.236-.064zM60.25 5.7c.103-.167-.16-.333-.346-.218-.156.097-.053.348.142.348.068 0 .16-.058.204-.13zm1.393-.648c.295-.295.277-.562-.06-.899-.336-.336-.407-.342-.807-.062-.338.237-.41.746-.143 1.012.235.236.75.21 1.01-.051zm-46.652 2.21c-.042-.134-.09-.91-.106-1.722-.036-1.81.139-2.365.743-2.365h.406l-.038.943-.038.944.436.042c.36.035.542.198 1.048.94.49.719.685.898.981.9.203.003.406-.09.45-.206.047-.122.256-.21.504-.21.283 0 .423.07.423.21 0 .14.14.21.42.21.28 0 .419-.07.419-.21 0-.282.78-.282.889 0 .104.272.773.272.877 0 .108-.282.889-.282.889 0 0 .138.138.21.404.21.23 0 .44-.09.485-.21.067-.174.466-.21 2.39-.21h2.31v.979h-6.907c-6.457 0-6.913-.016-6.985-.245zm.687-.316c0-.3-.406-.256-.465.05-.036.186.021.243.208.207.141-.027.257-.143.257-.257zm.742.037c-.057-.295-.305-.276-.368.028-.026.126.05.217.185.217.144 0 .212-.092.183-.245zm33.87-.07c.039-.4.099-.46.498-.498.338-.032.454.013.454.175 0 .29.779.298.89.009.046-.123.256-.21.503-.21.284 0 .424.07.424.21 0 .14.14.21.42.21.279 0 .419-.07.419-.21 0-.14.14-.21.423-.21.248 0 .457.087.504.21.046.12.254.21.485.21.266 0 .404-.072.404-.21 0-.284.819-.284.928 0 .046.12.254.21.485.21.266 0 .404-.072.404-.21 0-.284.818-.284.928 0 .044.115.23.21.414.21.242 0 .335.077.335.279 0 .273-.093.28-4.48.28h-4.481ZM30.002 6.46c.095-.115.262-.21.37-.21.109 0 .234-.094.278-.21.045-.116.252-.209.47-.209.217 0 .424.093.47.21.044.115.24.21.438.21.197 0 .394-.095.438-.21.105-.274.835-.274.94 0 .044.115.242.21.439.21.196 0 .394-.095.438-.21.105-.274.835-.274.94 0 .104.272.772.272.877 0 .045-.117.252-.21.47-.21.217 0 .424.093.47.21.061.162.332.21 1.187.21s1.126-.048 1.188-.21c.047-.123.256-.21.504-.21.283 0 .424.07.424.21 0 .282.78.282.889 0 .105-.276.872-.276.978 0 .104.272.772.272.877 0 .105-.274.834-.274.94 0 .104.272.733.272.838 0 .106-.276.872-.276.978 0 .065.168.379.21 1.605.21 1.184 0 1.563.046 1.698.209.155.186-.924.21-9.572.21s-9.727-.024-9.572-.21z" style="fill:#000;fill-opacity:1;stroke-width:.139742"/></svg>