<svg xmlns="http://www.w3.org/2000/svg" width="315.819" height="128" viewBox="0 0 83.56 33.867"><path d="M60.517 29.067a190.924 190.924 0 0 0-2.065-2.473c-.582-.677-.688-.894-.53-1.086.272-.327.595-.3.956.082.166.176.455.348.642.383.21.038.36.222.395.484.032.232.127.494.212.583.086.088.155.359.155.6 0 .287.225.66.642 1.067.53.518.758.624 1.313.614.37-.008.926.04 1.235.107l.564.12-.554.572c-.4.413-.704.572-1.092.572-.473 0-.697-.194-1.873-1.625zm1.78-.024c-1.118-.09-1.705-.738-1.93-2.13-.157-.971-.205-1.055-.635-1.105-.608-.07-.591-.296.045-.625 1.023-.53 2.256-2.677 2.87-4.998.21-.792.482-1.555.605-1.694.124-.14.25-.56.28-.932l.055-.678 2.865-.052 2.865-.052-.106 1.966c-.089 1.662-.164 2.05-.485 2.5-.295.414-.371.733-.342 1.426.032.782-.05 1.034-.665 2.042-.912 1.496-1.52 2.288-2.673 3.481-1.004 1.04-.876 1-2.749.851zm1.968-.808c0-.283-.128-.347-.763-.384-.881-.05-1.282.143-1.128.545.085.221.295.27.999.229.762-.044.892-.101.892-.39zm-1.526.084c-.063-.102.171-.17.594-.17.422 0 .656.068.593.17-.058.093-.325.17-.593.17-.269 0-.536-.077-.594-.17zm-.85-1.35c.149-.24-.557-1.53-.838-1.53-.132 0-.282.068-.334.15-.095.155.276 1.184.51 1.417.18.178.541.158.662-.037zm-.552-.214c-.1-.12-.233-.426-.297-.682-.174-.695.196-.575.432.14.215.65.155.891-.135.542zm4.537-.35c0-.388-.389-.628-1.016-.628-.628 0-1.017.24-1.017.627 0 .157.295.22 1.017.22.721 0 1.016-.063 1.016-.22zm-1.694-.12c0-.092.3-.169.668-.169.367 0 .715.077.772.17.064.103-.196.17-.668.17-.424 0-.772-.077-.772-.17zm-.776-.788c.064-.167-.07-.55-.331-.945-.347-.524-.487-.623-.67-.47-.181.149-.192.31-.05.731.32.955.822 1.28 1.051.684zm-.753-.493c-.206-.541-.21-.752-.013-.752.084 0 .237.24.34.534.226.652.226.652.012.652-.096 0-.249-.195-.34-.434zm3.857-.62c.291-.274.383-.55.383-1.146 0-.841-.164-1.137-.874-1.576-.336-.207-.67-.252-1.312-.176-.714.084-.915.187-1.179.604-.44.697-.194 1.64.616 2.35.53.465.677.512 1.29.414.381-.06.865-.272 1.076-.47zm-2.187-.13c-.295-.228-.49-.58-.564-1.015-.18-1.067-.022-1.313.93-1.444 1.072-.147 1.865.259 1.865.955 0 .252.037.56.082.683.045.125-.055.403-.221.62-.432.559-1.493.66-2.092.2zm3.508-3.128c.575-.24.765-.642.408-.862-.422-.261-1.844.544-1.614.915.159.257.498.243 1.206-.053zm-.938-.062c0-.223 1.162-.716 1.272-.54.053.088-.182.276-.523.419-.72.3-.749.305-.749.121zm-1.22-.4c.056-.294-1.268-1.21-1.523-1.052-.321.198-.105.768.413 1.086.628.385 1.03.373 1.11-.033zm-1.176-.295c-.22-.178-.353-.371-.296-.429.122-.122 1.164.438 1.166.627.002.235-.467.129-.87-.198zm1.38-2.034c0-.385-1.08-1.108-1.445-.968-.42.161-.28.602.3.956.706.43 1.144.435 1.144.012zm-1.06-.197c-.163-.095-.296-.28-.296-.41 0-.193.096-.184.507.05.28.16.508.346.508.416.002.178-.366.15-.719-.056zm3.1.18c.724-.37.803-.523.43-.833-.19-.158-.39-.125-.933.152-.644.329-.844.643-.577.91.177.177.36.138 1.08-.23zm-1.024-.077c0-.111.96-.598 1.178-.598.33 0 .18.284-.254.482-.44.2-.924.26-.924.116zm-12.836 5.73c-.117-.047-.212-.169-.212-.27 0-.102-.104-.305-.231-.452-.127-.147-.277-.515-.334-.816-.098-.52-.053-.581.866-1.17 1.594-1.02 1.96-1.13 2.463-.734.796.626 1.273.433 2.25-.91l.747-1.027V16.62c0-2.572.04-2.532-2.555-2.541-1.805-.006-1.904-.024-1.473-.257.254-.138.542-.402.641-.587.16-.298.358-.335 1.784-.335h1.603v.577c0 .506.16.722 1.275 1.72.702.627 1.324 1.091 1.384 1.031.06-.06.078-.132.039-.16a92.304 92.304 0 0 1-1.215-1.037c-1.034-.892-1.144-1.048-1.144-1.623 0-.985-.21-1.064-2.58-.966-3.008.124-7.508.573-7.911.788-.19.102-.427.336-.525.52-.099.185-.274.336-.388.336-.129 0-.216.267-.227.693-.01.403-.16.883-.354 1.144-.348.466-.893.697-.893.378 0-.1.114-.182.254-.182.184 0 .254-.19.254-.689 0-1.14-.202-1.344-1.328-1.344-.537 0-1.068.091-1.18.203-.273.273-.273 2.879 0 3.152.284.284 1.814.254 2.68-.052.542-.191.78-.207.953-.064.39.323.265.466-.647.736-.886.264-4.396.373-4.963.155-.235-.09-.274-.4-.259-2.076.01-1.083.014-2.141.009-2.35-.009-.331-.1-.382-.688-.382-.468 0-.677-.073-.677-.238 0-.244.593-.356 2.891-.544.885-.072 1.158-.036 1.334.176.162.194.53.267 1.354.267 1.057 0 1.167-.037 1.658-.55.289-.304.667-.856.84-1.23l.313-.677 9.277-.044c5.822-.027 9.276-.105 9.276-.207 0-.623-3.271-.977-3.992-.432-.277.21-1.461.25-7.487.254-6.972.005-7.164.014-7.37.344-.198.317-.417.342-3.348.377l-3.137.039 3.093.05c1.86.03 3.093.116 3.093.215 0 .091-.276.47-.613.844-.592.655-.65.678-1.685.678-.605 0-1.122-.082-1.188-.189-.08-.128-.798-.169-2.236-.127l-2.119.062-.063-.678c-.049-.516-.205-.803-.656-1.204-.743-.662-.794-1.028-.091-.664.687.355 1.12.324 1.524-.11.321-.345.532-.372 3.48-.445l3.138-.08V8.1l9.002.121c8.046.108 9.048.152 9.44.408.421.276.304.29-2.931.333-2.131.03-3.434-.017-3.543-.127-.184-.183-10.055-.25-10.719-.071-.198.053-.446.284-.55.514-.25.547-.244.57.121.57.172 0 .399-.19.505-.423L50.277 9h5.172c3.335 0 5.172.06 5.172.17 0 .107 1.325.169 3.635.169 2.807 0 3.666.05 3.77.221.075.122.422.395.772.607.35.212.635.494.635.626s.146.24.325.24c.697 0 .861.183.861.958v.753l-1.144-.05c-1.1-.049-1.145-.068-1.196-.504-.09-.783-.293-.829-3.444-.78l-2.943.047v1.186l1.949.085c1.072.047 2.044.147 2.16.222.139.09.212.574.212 1.392 0 1.067.05 1.281.328 1.43.45.241 2.1.222 2.35-.028.365-.365.243-1.265-.22-1.63-.536-.42-.591-1.216-.085-1.216.226 0 .339.113.339.338 0 .22.113.34.319.34.176 0 .359-.152.408-.34.06-.229.23-.338.528-.338h.44v1.948c0 1.584-.046 1.95-.245 1.95-.134 0-.291-.077-.349-.17-.062-.1-1.16-.175-2.679-.183-1.416-.008-2.479-.052-2.362-.099.231-.093.295-.566.076-.566-.075 0-.225.09-.335.2-.153.153-.279.127-.54-.11-.322-.291-.325-.322-.047-.533.272-.207.266-.224-.086-.23-.331-.004-.381.082-.381.655 0 .43-.089.694-.255.757-.179.07-.254.35-.254.95 0 .84-.008.853-.521.853-.51 0-.52-.016-.475-.747.043-.708-.204-1.286-.55-1.286-.082 0-.148.618-.148 1.374v1.374l-1.627 2.311c-.895 1.272-1.749 2.407-1.897 2.524-.265.209-3.42.29-3.89.1zm1.65-.987c.37-.6.342-.99-.062-.834-.336.129-.983 1.07-.866 1.259.201.325.569.157.928-.425zm2.399-.214c.303-.48.313-.562.082-.651-.285-.11-1.109.691-1.118 1.086-.01.415.684.124 1.036-.435zm1.723-2.52c-.13-.338-.377-.289-.74.147-.334.4-.417.83-.203 1.045.183.183 1.05-.913.943-1.192zm.879-2.07c0-.992-.328-.966-.391.032-.04.618.002.804.17.748.135-.045.221-.349.221-.78zm.198-2.16c.06-.158-.047-.419-.26-.631l-.362-.363v.631c0 .453.073.63.26.63.143 0 .306-.12.362-.268zm3.615-2.03c0-.359-.069-.56-.17-.498-.093.057-.17.329-.17.603 0 .274.077.498.17.498.094 0 .17-.271.17-.603zm.508.01c0-.326-.076-.593-.17-.593-.093 0-.169.267-.169.593 0 .326.076.593.17.593.093 0 .17-.267.17-.593zM52.7 12.102c1.002-.323 1.822-.657 1.822-.743 0-.227-.37-.191-2.658.26-2.08.412-2.765.646-2.765.947 0 .34 1.84.103 3.601-.464zm17.115.176a.361.361 0 0 1-.211-.307c0-.254-.463-.476-.694-.334-.084.052-.154.243-.154.424 0 .27.115.327.636.316.35-.008.54-.052.423-.099zM51.81 11.119c0-.192-.207-.254-.847-.254s-.847.062-.847.254.207.254.847.254.847-.062.847-.254zm1.039 10.224c-.112-.178-.15-.41-.086-.513.066-.107.04-.142-.06-.08-.098.06-.302-.08-.454-.312-.276-.42-.274-.422.278-.425.305-.001.66-.07.79-.152.143-.09-.194-.114-.852-.062-.855.07-1.135.031-1.307-.176-.19-.229-.126-.292.472-.471.852-.256.79-.413-.07-.176-.533.148-.593.137-.419-.072.144-.173.147-.244.012-.244-.104 0-.19-.109-.19-.242 0-.417-.51-.775-1.102-.775-.429 0-.652-.116-.904-.47-.296-.415-.308-.518-.102-.89.128-.23.235-.852.238-1.381.01-1.502.059-1.527 3.65-1.838 1.118-.097 2.327-.223 2.686-.28.576-.092.645-.066.593.217-.036.192-.417.492-.945.745-.486.233-1.007.546-1.156.696-.238.239-.352.245-.932.045-.557-.192-.803-.19-1.555.007-.62.162-.807.27-.611.35.156.062.437.032.624-.068.905-.485 2.574.086 2.316.791-.043.117.02.212.141.212.121 0 .396.188.611.417l.392.417-.659-.092c-.495-.07-.595-.047-.404.089.14.1.461.182.714.183.464.003.923.532.731.842-.052.085-.017.202.077.26.273.17.2.425-.124.438-.237.009-.22.048.084.195.217.104.45.438.544.777.182.66.114.88-.27.88-.14 0-.772.334-1.402.742-1.09.705-1.156.725-1.349.416zm1.511-1.83c-.097-.061-.286-.258-.42-.44-.228-.31-.248-.311-.359-.025-.168.433.397 1.038.72.77.155-.128.176-.234.06-.306zm-.347-1.366a3.07 3.07 0 0 0-1.186 0c-.495.117-.397.14.593.14s1.089-.024.593-.14zm-1.115-.763c.534-.067.907-.186.83-.264-.153-.152-2.021.223-2.222.445-.066.073.002.09.15.036.15-.053.708-.15 1.242-.217zm-2.613-.927c0-.093-.08-.17-.18-.17-.098 0-.131.077-.074.17.058.093.138.17.18.17.04 0 .074-.077.074-.17zm-.046-.95c-.056-.056-.202-.062-.324-.013-.136.054-.095.094.102.103.179.007.279-.033.222-.09zm-.542-.881c-.053-.052-.19 0-.304.116-.166.167-.147.186.095.094.167-.063.26-.158.209-.21zm23.736 4.846c-.14-.214-.492-.913-.782-1.554-.47-1.036-.506-1.22-.322-1.665l.207-.5.394.48c.312.38.425.43.548.245.152-.23-.376-1.376-.634-1.376-.063 0-.085-.312-.048-.693.087-.914.209-.775 1.466 1.674.889 1.732 1.072 1.984 1.442 1.984h.424l.048-1.927c.038-1.53-.007-2.012-.22-2.335-.32-.49-.205-.737.347-.737.285 0 .49.158.679.522.224.433.25.858.152 2.5-.064 1.087-.193 2.072-.286 2.189-.094.118-.54.212-1.005.212-.515 0-.797.065-.732.17.057.092.274.169.48.169.359 0 .96.518.96.827 0 .08-.644.159-1.432.174-1.321.026-1.452-.002-1.686-.36zm1.307-.705c.117-.305-.515-1.337-.767-1.253-.327.11-.318.356.035.934.36.59.59.69.732.319zm2.15.542c0-.296.113-.662.252-.815.188-.208.256-.755.27-2.174.016-1.82.032-1.897.383-1.908.316-.01.325-.028.065-.131-.404-.16-.843-.999-.574-1.097.351-.129-.943-.274-2.895-.326l-1.907-.05v1.376c0 1.152-.063 1.47-.387 1.952-.213.316-.557.6-.764.63-.377.054-.377.053-.365-2.681.01-1.866-.05-2.812-.186-2.976-.303-.364.17-.474 1.498-.347.743.072 1.59.021 2.446-.145 1.463-.283 4.254-.226 4.641.095.23.191.337 1.17.127 1.17-.058 0-.344-.146-.635-.325-.29-.178-.833-.37-1.206-.424l-.678-.1.783.298c.787.298 2.258 1.357 1.59 1.143-.546-.174-1.859-.4-1.927-.332-.034.034.156.11.424.167 1.156.25 1.672.519 1.727.904.055.378.046.38-.466.116-.287-.148-.521-.232-.521-.185 0 .047.229.203.508.348.601.31.663.709.127.812l-.381.074.381.023c.309.018.382.123.382.55 0 .4-.061.501-.255.423-.662-.268-.85-.3-.516-.088.33.209.33.211 0 .349-.325.136-.324.138.008.122.645-.032.762.024.762.361 0 .208-.114.341-.296.344-.28.005-.28.015-.003.176.221.13.289.38.274 1.023l-.02.852-.697-.085-.698-.086.636.19c.569.168.635.247.635.751v.563H76.89zm-4.66-7.258c-.752-.191-1.135-.191-1.017 0 .058.093.425.16.815.15.671-.02.682-.028.202-.15zm3.01.05a3.026 3.026 0 0 0-.847-.002c-.258.04-.087.072.379.073.466.002.677-.03.468-.07zm-.468-.813c-.369-.126-2.86-.197-2.542-.072.186.074.873.133 1.525.132.653 0 1.11-.028 1.017-.06zm5.004 3.94c-.004-3.983.032-4.702.24-4.702.133 0 .286.069.338.153.148.24-.246 8.695-.42 8.99-.094.161-.155-1.545-.158-4.44zm-63.89 1.224c0-2.019.054-2.737.211-2.795.117-.043 1.26-.104 2.542-.134 2.163-.053 2.33-.034 2.33.253 0 .257-.14.309-.826.309-.528 0-.903.092-1.038.254-.122.147-.491.254-.874.254-.365 0-.851.123-1.08.274-.406.265-.418.334-.418 2.288v2.014h-.848zm1.186.79c0-1.867.014-1.941.417-2.206.23-.15.683-.273 1.007-.273.324 0 .636-.077.694-.17.057-.093.481-.17.942-.17h.837v1.017c0 .56-.043 1.017-.095 1.017-.052 0-.451-.272-.887-.605-.784-.599-.795-.601-1.07-.262-.152.188-.37.944-.485 1.68-.243 1.566-.28 1.64-.894 1.79l-.466.115zm-8.614.612c-.385-.542-.476-1.011-.283-1.46.096-.223.053-.364-.143-.475-.242-.135-.279-.49-.266-2.563.008-1.323.068-2.84.134-3.37.108-.856.202-1.034.857-1.615.68-.604.719-.682.507-1.022-.204-.326-.185-.415.175-.798.388-.413.483-.43 2.282-.419 2.116.014 2.385.084 2.385.624 0 .21.076.362.17.339.093-.024.166-.214.162-.424-.006-.375.028-.381 2.066-.381h2.072l-.032.447c-.018.246.063.481.18.523.14.05.212-.103.212-.448V6.29h4.178l-.075.508c-.045.305 0 .508.114.508.104 0 .188-.228.188-.508V6.29h4.385l-.031.414c-.018.228.044.4.137.381.093-.018.167-.204.163-.414-.007-.375.026-.381 2.094-.381 1.798 0 2.087.036 2.003.254-.116.302.035.762.249.762.083 0 .151-.228.151-.508V6.29h5.931v.476c0 .301-.175.645-.475.932-.427.41-.602.456-1.737.461-1.55.007-1.855.196-1.855 1.157 0 .636-.04.702-.423.702-.393 0-.424-.059-.424-.814 0-.447-.092-.905-.203-1.016-.128-.128-.764-.204-1.708-.204h-1.504l.049-.675c.026-.371-.025-.657-.114-.635-.09.021-.163.325-.163.675v.636h-4.237v-.636c0-.35-.076-.636-.17-.636-.092 0-.166.305-.162.678.007.63-.074.748-1.127 1.652l-1.134.975h-1.344c-.74 0-1.386-.042-1.438-.094-.051-.051.25-.418.67-.815.703-.665.742-.743.489-.996-.166-.165-.274-.556-.274-.985 0-.631-.03-.685-.271-.486-.19.158-.244.393-.18.789l.092.564-2.066-.048-2.066-.047-.085-.749c-.075-.664-.11-.716-.317-.465-.146.176-.195.473-.132.79.084.418.046.508-.212.508-.472 0-.667.343-.726 1.276l-.053.843-2.813.046-2.813.046-.195.428c-.205.449-.232 2.34-.046 3.208.076.358.208.508.446.508.489 0 .571-.755.096-.88-.238-.062-.352-.229-.352-.514 0-.335.06-.397.296-.3.164.068.425.16.582.205.381.11.517.506.213.622-.18.07-.244.403-.244 1.267 0 .94-.056 1.195-.282 1.282-.216.083-.236.155-.085.306.308.308.234.942-.173 1.493-.463.626-.865.636-1.295.034zm1.281-1.102c-.1-.261-1.344-.277-1.43-.018-.035.104.142.433.393.731l.456.543.331-.523c.182-.287.295-.617.25-.733Zm-.97-2.837c0-.405-.074-.508-.361-.508-.313 0-.346-.07-.254-.53a5.55 5.55 0 0 0 .106-.847c0-.175.076-.318.17-.318.092 0 .17.21.171.466.002.257.077.58.167.72.12.185.165.036.167-.539.002-.645-.06-.813-.335-.9-.185-.06-.414-.06-.508-.002-.195.12-.221 1.028-.063 2.18.084.616.176.787.423.787.238 0 .316-.126.316-.509zm5.676-5.507V7.56h-1.525l-.054.653c-.083 1.007.032 1.153.857 1.093l.722-.052zm-1.374.523c-.05-.132-.067-.456-.037-.72.048-.418.127-.48.606-.48.303 0 .55.056.55.126v.72c0 .548-.039.594-.513.594-.287 0-.554-.107-.606-.24zm-.744-1.723c0-.546-.063-.756-.212-.708-.232.077-.377.862-.23 1.244.194.507.442.206.442-.536zm22.368 0c0-.546-.063-.756-.212-.708-.231.077-.376.862-.23 1.244.195.507.442.206.442-.536zm5.515 10.901c-.203-.65-.259-1.482-.1-1.482.098 0 .177.116.177.26 0 .354.457.502.765.246.139-.115.247-.371.241-.57-.01-.353-.013-.353-.164.021-.42 1.047-.989.01-1.124-2.05l-.108-1.635h.619c.54 0 .619.051.619.405 0 .223-.151.737-.336 1.144-.37.816-.445 1.756-.155 1.936.13.08.152-.046.072-.414-.106-.482-.079-.53.302-.53.53 0 .625.258.625 1.709v1.172h-.683c-.398 0-.711-.088-.75-.212zm1.885.1c-.062-.063-.113-.696-.113-1.407 0-1.377-.15-1.7-.784-1.7-.362 0-.366-.02-.123-.509.217-.435.35-.508.92-.508h.665v2.118c0 1.652-.05 2.118-.226 2.118-.125 0-.277-.05-.34-.113zm-5.597-.741c.105-.106.563-.374 1.016-.596 1.157-.567.671-.513-.843.094-1.037.415-1.513.507-2.597.505l-1.328-.003.555-.355c.619-.396 1.353-.6 3.343-.925l1.356-.222-1.356.086c-.875.056-1.908.273-2.914.613l-1.558.526-1.408-.37c-1.245-.326-1.874-.37-5.474-.386-2.24-.01-3.838-.076-3.558-.147l.508-.13-.466-.02c-.336-.014-.466-.109-.466-.338 0-.737 1.673-.894 5.677-.536 1.945.174 3.058.186 4.745.05l2.203-.179-2.288.086c-1.53.057-3.215-.01-5.084-.204-2.53-.26-4.284-.251-5.01.028-.161.061-.243-.022-.243-.246 0-.305.153-.351 1.51-.459.83-.066 1.765-.07 2.076-.01.48.092.517.078.243-.091-.22-.137-.88-.172-2.076-.11-1.707.086-1.753.08-1.753-.274 0-.36.028-.363 3.092-.31 1.701.028 3.166.124 3.254.211.215.213 1.91.204 2.042-.01.058-.093.763-.17 1.567-.17 1.19 0 1.527.06 1.811.317.39.353 2.299.654 2.299.363 0-.094-.362-.183-.805-.198-.619-.021-.677-.043-.254-.096.303-.037.55-.14.55-.227s.715-.159 1.59-.159c1.174 0 1.642.064 1.79.244.168.201.106.255-.36.312-.476.06-.458.068.116.057l.677-.013v3.383l-1.186.05c-.886.039-1.137.003-.993-.141zm-11.589-1.517c.995-.001 1.483-.066 1.483-.195 0-.246-2.774-.098-3.39.18l-.423.192.424-.087c.233-.048 1.09-.089 1.906-.09zm6.181.044a6.337 6.337 0 0 0-1.186 0c-.3.038-.013.068.64.068.652-.001.898-.032.546-.068zm3.351-.216c.484-.123.475-.13-.17-.132a14.064 14.064 0 0 0-1.61.125l-.931.13 1.101.003c.606.002 1.33-.054 1.61-.126zm1.652-.112a.654.654 0 0 0-.423 0c-.117.047-.022.086.211.086.233 0 .329-.039.212-.086zm1.695-.177c-.21-.04-.553-.04-.763 0-.21.04-.038.074.382.074.419 0 .59-.033.38-.074zm-2.034-.511a5.393 5.393 0 0 0-1.101 0c-.303.038-.055.068.55.068.606 0 .854-.03.551-.068zm1.356.01a.654.654 0 0 0-.424 0c-.116.047-.02.086.212.086.233 0 .328-.039.212-.086zm2.16 1.065c0-1.205-.06-1.64-.254-1.8-.367-.305-.312-.95.117-1.349.312-.29.326-.345.085-.345-.231 0-.286-.167-.286-.866 0-.7.048-.846.254-.768.14.054.254.03.254-.055 0-.335-.921-.378-5.51-.261-3.438.088-4.817.07-4.9-.065-.084-.136 1.339-.188 5.147-.188 3.396 0 5.263-.06 5.263-.17 0-.105-.907-.17-2.383-.17h-2.382l.052-.635.053-.635 1.431-.05c1.23-.043 1.498 0 1.906.302l.476.351v-.858c0-.544.077-.877.212-.911.116-.03.593-.188 1.059-.352 1.361-.477 1.56-.515 1.313-.25-.117.124-.212.312-.212.418 0 .22.207.255 1.588.27.83.008 1.008.063 1.078.333.059.224.235.323.574.323.612 0 .624-.252.062-1.361l-.427-.842-1.734.036-1.734.035 1.621.055 1.622.055.37.762c.203.418.37.835.37.926 0 .307-.469.167-.556-.166-.072-.276-.262-.338-1.162-.38-.92-.044-1.084-.1-1.136-.39-.103-.578-.265-.606-1.363-.235-1.102.372-1.53.287-1.319-.263.088-.23.56-.36 1.015-.281.077.013.091-.054.032-.15-.071-.115.705-.173 2.318-.173h2.424l.477.849.477.848-.361.507c-.273.383-.495.507-.906.507-.35 0-.631.121-.788.339-.336.466-1.186.466-1.186 0 0-.186-.076-.339-.17-.339-.093 0-.17.153-.17.339 0 .186-.075.339-.169.339-.093 0-.17-.153-.17-.339 0-.186-.075-.339-.169-.339-.093 0-.169.19-.169.424 0 .371-.073.423-.593.423-.592 0-.593-.002-.614-.805l-.021-.804-.135.93c-.074.513-.19 2.705-.257 4.873-.067 2.167-.187 3.94-.268 3.94-.08 0-.145-.715-.145-1.589zm27.566-.727c-.062-.062-.113-.615-.113-1.23 0-1.495-.16-1.596-2.712-1.707-1.581-.069-1.948-.132-1.948-.339 0-.214.45-.261 2.842-.3 2.47-.04 2.855-.012 2.945.223a.47.47 0 0 1-.088.461c-.266.267-.24.464.062.464.182 0 .254.185.254.651 0 .437.112.753.34.958.186.17.338.448.338.62 0 .265-.138.312-.904.312-.497 0-.954-.05-1.016-.113zm-61.26-2.352c-.247-.542-.251-1.226-.011-1.915.178-.512.225-.534 1.12-.534.781 0 .916.044.83.268-.056.148-.103.796-.103 1.44v1.173h-.82c-.714 0-.845-.056-1.016-.432zm5.315.109c-.056-.178-.404-.444-.774-.592-.875-.35-.85-.683.08-1.039.414-.158.795-.398.847-.534.123-.32.645-.158 1.228.383.244.226.508.41.588.41.08 0 .145.174.145.385 0 .277-.18.473-.636.697-.35.171-.768.38-.93.462-.401.206-.43.197-.548-.172zm1.525.16c-.055-.089.13-.281.414-.427.736-.38.702-1.005-.08-1.466-1.056-.623-.732-.876 1.271-.994l1.44-.085.085-.932.085-.932 1.61-.043 1.61-.044-.877.849c-.483.466-.795.848-.694.848.1 0 .058.138-.095.307-.373.412-.076.707.725.718l.602.008-1.271 1.178-1.27 1.177h-1.728c-.95 0-1.772-.072-1.827-.161zm5.503-1.213c1.112-1.041 1.332-1.178 1.758-1.093.268.053.873.097 1.345.097h.858l-.456.475c-.326.34-.455.653-.455 1.101v.627l-2.16-.008-2.161-.008zm3.389.586c0-.455.128-.765.455-1.107.408-.426.563-.473 1.483-.451.828.019.912.044.434.127-.88.153-1.355.53-1.355 1.076v.467h2.542v-.75c0-.572-.07-.769-.297-.828-.163-.042.157-.086.71-.097.863-.017.964.012.707.2-.21.154-.283.393-.244.805l.056.585 1.059.05c.762.037 1.059.117 1.059.285 0 .19-.62.236-3.305.251l-3.304.018zm6.92-.354c-.074-1.267 0-1.737.274-1.737.3 0 .37.392.295 1.652-.044.734-.132 1.06-.287 1.06-.153 0-.242-.309-.282-.975zm.875-.127c0-.606.057-1.108.127-1.115.07-.008.356-.052.636-.099.28-.046 1.06-.034 1.737.029l1.228.112v2.175h-3.728zm2.542-.254v-.678h-2.372v.565c0 .31.05.616.112.678.063.062.596.113 1.187.113h1.073zm-2.142.254c-.213-.555.069-.763 1.035-.763.929 0 .937.005.937.509 0 .503-.008.508-.937.508-.677 0-.964-.07-1.035-.254zm3.667-.085v-1.186h.593c.52 0 .593.053.593.424 0 .31.09.423.34.423.187 0 .338-.113.338-.254 0-.14-.076-.254-.17-.254a.17.17 0 0 1-.169-.17c0-.093.26-.169.577-.169.494 0 .565.05.489.339-.067.256-.005.339.252.339.187 0 .384-.114.438-.254.054-.14.243-.254.421-.254s.418.114.535.254c.286.344.451.32.557-.085.049-.186.21-.339.359-.339.214 0 .27.192.27.932v.932l-.551.006c-.303.002-.699.117-.88.254-.242.183-.812.249-2.16.249h-1.832Zm-29.528.8c-.256-.103-.466-.247-.466-.321 0-.268 1.475-1.665 1.758-1.665.25 0 .284.151.241 1.06-.05 1.045-.057 1.059-.559 1.087a2.704 2.704 0 0 1-.974-.16zm18.963-.54c-.14-.365.685-.938 1.352-.938.54 0 .57.033.57.594v.593h-.913c-.646 0-.942-.073-1.01-.248zm3.364.081c-.065-.105-.07-.377-.014-.605.095-.375.19-.414 1.026-.414.92 0 .922.002.887.509-.033.465-.088.508-.657.508-.342 0-.735.044-.873.096-.138.053-.304.011-.369-.094zm14.046-.1c.057-.148.103-.506.103-.797 0-.645.244-.448.48.387l.167.593.015-.528c.01-.358-.128-.67-.431-.974-.506-.506-.348-.594.247-.137.257.198.425.547.488 1.013l.095.71h-.633c-.508 0-.613-.052-.531-.267zm-30.57-1.018c0-.581.345-.917.939-.917.323 0 .587.064.587.143 0 .2-.508.602-1.059.837-.393.168-.466.158-.466-.063zm9.83-.699a2.14 2.14 0 0 1-.535-.336c-.154-.134-.382-.23-.508-.212-.822.112-.894-.008-.307-.51.67-.574.841-.625.841-.252 0 .15.349.425.805.635.74.342 1.114.376 4.66.426 2.232.031 3.855.12 3.855.212 0 .167-8.361.203-8.811.037zm5.083-1.22c.637-.565.95-.75.988-.584.045.192.347.233 1.44.194 1.756-.062 1.75-.355-.01-.484-.79-.057.224-.108 2.539-.127l3.855-.03v1.863l-4.872-.002-4.872-.002.932-.828zm5.318-.088c.244-.32.444-.625.444-.678 0-.053-.267-.096-.593-.096-.58 0-.593.016-.593.678 0 .372.067.677.149.677.082 0 .349-.261.593-.581zm1.63-.181c0-.718-.136-.74-.73-.118-.594.619-.576.71.137.71.565 0 .593-.027.593-.592zm14.162-.75.44-.667-.575-.986-.575-.986-.947-.05c-.772-.042-.962-.112-1.033-.382-.117-.447-.799-.441-.916.008-.077.292-.234.34-1.128.344-.644.004-1.165.1-1.369.254-.277.21-1.487.25-7.752.25h-7.424v-.876l2.453.046c1.349.026 2.498.002 2.553-.053.055-.056.367-.027.694.063.43.119.662.106.847-.047.2-.165.374-.167.815-.007.404.146.692.153 1.026.026.333-.127.53-.122.696.015a.55.55 0 0 0 .53.063 1.312 1.312 0 0 1 1.115.004c.182.078.478.042.72-.088.34-.182.487-.18.84.008.328.175.473.182.627.028.111-.11.673-.2 1.267-.2h1.068V4.46c0-.86.238-1.051 1.305-1.051.752 0 .898.05.898.305 0 .532.37.712 1.468.712.893 0 1.091.054 1.245.343.158.294.228.311.497.123.21-.147.637-.19 1.295-.13l.983.087.636 1.271c.632 1.264.743 1.77.547 2.5-.096.36-.186.381-1.694.381h-1.593Zm-7.428.25c-.256-.187-.264-.247-.057-.419.195-.161.265-.13.357.16.147.464.07.53-.3.259zm4.039-4.596c-.407-.406-.322-.58.284-.584.303-.001.661-.072.796-.157.36-.228.856.101.856.566 0 .337-.068.382-.466.313-.256-.044-.569-.205-.695-.357-.204-.247-.217-.235-.116.104.137.46-.248.526-.66.115Z" style="fill:#000;stroke-width:.169458;fill-opacity:1"/></svg>