<svg xmlns="http://www.w3.org/2000/svg" width="383.79" height="128" viewBox="0 0 101.544 33.867"><path d="M58.786 29.256c-.537-.79-1.389-2.021-1.893-2.737-4.108-5.843-4.68-6.773-4.68-7.613v-.83h-1.485c-.915 0-1.584-.098-1.743-.254-.207-.204-.31-.184-.521.101-.33.445-.69.452-1.165.023-.299-.27-.426-.285-.675-.079-.326.271-2.606.345-3.211.104-.495-.197-.985.03-1.112.515-.059.225-.302.448-.54.497-1.252.255-2.807.383-6.013.495-2.074.073-3.57.209-3.608.328-.035.111.992.913 2.282 1.782 1.932 1.3 2.443 1.556 2.896 1.455.628-.141 1.332-.909 2.095-2.286.572-1.03 1.222-1.398 2.09-1.18.757.19.678.656-.332 1.958a51.767 51.767 0 0 0-1.752 2.442c-.598.895-1.128 1.438-1.64 1.679-.888.418-2.205.455-2.705.075-.327-.248-.316-.3.16-.747.281-.264.485-.596.453-.737-.031-.141-1.566-1.275-3.41-2.52l-3.352-2.263-.573.641-.573.642-1.01-.725c-.757-.545-1.213-.725-1.83-.725-.787 0-.837.04-1.22.966-.591 1.43-.704 1.577-1.22 1.577-.408 0-.508-.162-.752-1.22-.155-.672-.247-1.473-.204-1.781.077-.553.065-.56-1.067-.56-.63 0-1.255-.11-1.39-.244-.189-.19-.298-.19-.487 0-.295.295-1.384.327-1.384.041 0-.112-.137-.204-.305-.204-.168 0-.306.092-.306.204 0 .313-3.4.264-3.528-.05-.074-.184-.15-.192-.271-.029-.106.143-1.138.238-2.8.256-2.554.03-2.95-.055-2.961-.635-.002-.084 5.125-.152 11.392-.152 9.604 0 11.395.044 11.395.283 0 .476.492.53 4.766.53 3.865 0 4.147-.025 4.492-.407.355-.392.627-.406 7.56-.406 4.66 0 7.192.071 7.192.203 0 .112.458.203 1.018.203s1.017.092 1.017.204c0 .124.941.203 2.417.203 1.9 0 2.47-.065 2.67-.305.323-.39.61-.391.61-.004 0 .165.229.45.508.632.681.447 1.465.227 1.897-.532.28-.493.476-.602 1.083-.603.616-.001.762.082.866.494.068.272.303.552.523.621.542.173 1.228-.228 1.228-.717 0-.39.188-.4 8.82-.4 10.244 0 9.493-.166 9.493 2.102v1.358h-2.035v1.424h1.12c1.084 0 1.118.017 1.121.56.002.307.057.761.123 1.008.118.44.089.447-1.486.364-1.541-.08-1.635-.06-2.31.518-.388.33-.782.601-.877.602-.095 0-.828-.68-1.628-1.512l-1.455-1.513.865-.74c1.03-.881 1.109-1.474.305-2.291l-.56-.569-5.015.108c-4.558.098-5.054.143-5.443.495-.755.684-.553 1.41 1.131 4.07.858 1.353 1.705 2.614 1.883 2.801.426.45 1.468.536 2.139.177.525-.281.573-.254 1.955 1.118.78.773 1.417 1.516 1.417 1.651s-.341.527-.758.87l-.759.626h-7.14l-.34-.662c-.187-.363-.368-.805-.402-.98-.034-.176-.978-1.764-2.097-3.53l-2.035-3.21-3.76.134c-2.069.074-3.793.166-3.831.205-.062.061 1.433 2.296 3.872 5.79l.771 1.103 3.34-.051c3.166-.048 3.353-.03 3.56.358.12.225.22.507.22.626 0 .146-1.322.217-4.06.217h-4.058zm1.526-8.718c.034-.716-.017-1.38-.112-1.475-.096-.096-1.016-.115-2.046-.042l-1.871.133v1.259c0 .692.04 1.296.087 1.343.048.046.94.084 1.984.084h1.897zm15.81 6.85-1.564-1.478 1.779-1.577c.978-.867 1.895-1.577 2.037-1.577.142 0 .863.664 1.602 1.475l1.344 1.475-1.073.987a42.692 42.692 0 0 1-1.817 1.58l-.745.593zm-44.897-4.281c-2.94-2.029-2.977-2.063-2.673-2.526.17-.259.399-.47.51-.47.208 0 5.119 3.295 5.639 3.783.248.233.25.352.016.789-.151.283-.328.507-.393.498-.065-.01-1.46-.943-3.1-2.074zm55.504.641c-.262-1.306-.21-1.399.788-1.399.908 0 .916-.006.916-.701 0-.692-.013-.702-.967-.763l-.966-.062-.114-1.458c-.062-.802-.234-1.603-.38-1.78-.148-.178-.189-.317-.09-.31.097.009.749.704 1.448 1.547 1.18 1.42 1.272 1.605 1.272 2.53 0 .548.069.996.153.996.084-.001.587-.374 1.119-.83 1.432-1.227 1.369-1.47-1.095-4.205l-2.06-2.29h-4.628v1.033c0 .873-.055 1.022-.356.965-.269-.051-.372-.306-.418-1.033-.034-.53-.127-.964-.205-.964-.079 0-.112.399-.073.886.068.856.048.892-.583 1.018-.934.186-5.894.162-5.894-.03 0-.087.618-.474 1.374-.859 1.129-.575 1.68-.721 3.103-.822l1.73-.123-1.905-.035c-1.845-.034-1.947-.012-3.305.728-.77.42-1.402.88-1.403 1.023 0 .206-1.048.252-4.985.218-4.924-.042-4.99-.049-5.428-.515-.638-.68-1.282-.587-2.384.342l-.965.814h-4.145v-3.256H59.946v-1.24l1.271.06 1.272.061.062.967c.056.872.11.966.56.966.273 0 .497.092.497.204 0 .13 1.9.203 5.29.203 4.188 0 5.291-.055 5.291-.263 0-.144.506-.51 1.124-.814.981-.48 1.367-.55 3.052-.55 1.15 0 1.928-.083 1.928-.204 0-.112.138-.204.306-.204.168 0 .305.092.305.204 0 .294 2.976.255 3.457-.046.315-.197.451-.197.648 0a1 1 0 0 0 .616.25c.324 0 .366-.2.366-1.73 0-1.603-.03-1.73-.413-1.73-.228 0-.467.138-.531.305-.152.395-.48.395-.48 0 0-.247-.328-.305-1.73-.305s-1.73.058-1.73.305c0 .448-.342.373-.466-.101-.097-.375-.277-.407-2.245-.407-1.695 0-2.338-.086-3.1-.412-1.2-.515-1.375-.399-.355.236.67.417 1.081.49 3.066.55 2.008.06 2.317.116 2.5.457.248.465.77.512.934.084.168-.437 2.556-.42 3.232.022.46.301.51.301.625 0 .273-.709.49-.262.49 1.007v1.334l-.603-.355c-.479-.283-.697-.31-1.068-.13-.79.385-2.764.475-3.097.143-.344-.344-.851-.38-1.041-.072-.086.139-.869.2-2.13.166l-1.994-.054-1.089.75c-.88.606-1.275.75-2.054.75h-.965l-.002-1.984c-.001-1.09-.059-2.327-.128-2.747l-.126-.763h1.349c1.063 0 1.349-.064 1.349-.305 0-.25-.36-.305-2.023-.305h-2.023l-.063.865-.062.864-1.679.06-1.679.059V8.716h-4.069V10.954h-2.035V8.92h-4.273V6.433l4.222.169c5.543.222 5.548.222 5.887-.243.256-.349.516-.384 2.456-.338 1.193.03 2.26.144 2.372.255.11.11.94.202 1.843.202 1.835 0 2.968.335 5.107 1.51l1.324.728h3.648c3.399 0 3.663.027 3.86.394.115.216.21.445.21.508 0 .064-2.083.113-4.63.11l-4.629-.004-1.624-1.013-1.625-1.013h-4.513l-.213-.763-.214-.763-.026.967-.025.966 2.594.001H74.9l1.526 1.017 1.526 1.016h4.738c5.03.001 5.193-.031 4.835-.965-.202-.525-.167-.554.585-.49.378.033.748-.038.822-.158.17-.277 7.678-.3 7.954-.024.12.119.154 3.191.092 7.987l-.102 7.793-1.297.061-1.296.062.138-1.291c.123-1.145.091-1.334-.28-1.67-.381-.345-.419-.613-.419-2.97 0-2.545.009-2.595.515-2.927.513-.336.514-.34.457-3.126l-.056-2.79-.68-.065c-.594-.057-.663-.015-.553.332.081.257.016.44-.186.517-.254.098-.31.546-.31 2.454 0 1.51.08 2.384.228 2.476.16.098.181.555.073 1.487-.124 1.067-.268 4.538-.298 7.196-.003.323-.285.356-3.03.356h-3.027zM92.46 22.4l.06-1.272h-.674c-.51 0-.933.227-1.74.932-.605.53-1.064 1.103-1.064 1.33 0 .37.126.395 1.679.34l1.679-.058zm-3.01.9c0-.325 1.975-1.968 2.366-1.968.202 0 .278.309.278 1.119v1.119h-1.322c-.962 0-1.323-.074-1.323-.27zm3.005-7.92c.054-3.508.044-3.612-.356-3.612-.276 0-.412-.134-.412-.407 0-.224-.134-.407-.298-.407-.495 0-.034.905.502.985.452.067.461.111.335 1.73-.071.913-.13 2.415-.13 3.339-.002 1.605-.022 1.678-.46 1.675-.32-.002-.837-.464-1.73-1.55l-1.27-1.547v-2.214c0-2.079.024-2.214.406-2.214.271 0 .407.135.407.407 0 .33.136.407.712.407.624 0 .712-.063.712-.51 0-.279-.091-.508-.203-.508-.112 0-.204.183-.204.407 0 .237-.135.407-.324.407-.178 0-.372-.183-.43-.407-.08-.306-.278-.407-.795-.407h-.689v4.782l1.44 1.69c1.306 1.534 1.5 1.685 2.085 1.628l.647-.062zm-4.634-3.217c0-1.041-.074-1.594-.203-1.514-.112.07-.204.807-.204 1.64 0 .874.086 1.514.204 1.514.119 0 .203-.682.203-1.64zm-14.095-1.56c-.044-.423-.08-.127-.082.656 0 .784.036 1.13.08.768a7.588 7.588 0 0 0 .002-1.424zm23.455 11.616c0-1.235.06-4.874.135-8.088.133-5.771.14-5.841.56-5.781.386.055.43.214.484 1.778.033.944-.034 1.951-.149 2.238-.114.287-.297 3.03-.406 6.098-.119 3.335-.284 5.661-.411 5.789-.148.147-.213-.471-.213-2.034zm-12.819-.582c0-.25.35-.305 1.933-.305 1.583 0 1.933.055 1.933.305s-.35.305-1.933.305c-1.582 0-1.933-.055-1.933-.305zm4.606-.002c-.071-.185-.13-.596-.13-.912 0-.408-.392-1.056-1.344-2.222l-1.345-1.646H82.531v-1.424l2.086.01 2.086.008 1.984 2.235c1.091 1.228 1.984 2.35 1.984 2.493 0 .142-.354.604-.787 1.026-.653.638-.808.711-.915.432zm-26.785-3.559c-.512-.512-.515-.857-.008-1.315.916-.83 2.153.407 1.323 1.323-.458.506-.803.504-1.315-.008zm4.055.085c-.361-.436.002-1 .644-1 .554 0 .763.565.38 1.027-.32.384-.69.374-1.024-.027zm-11.99-2.222v-1.526H55.875v3.053h-1.628Zm-49.38 1.165c-.13-.083-.295-.425-.366-.76l-.128-.608.322.56.322.56h2.537c1.556 0 2.537.078 2.537.203 0 .237-4.855.28-5.223.045zm5.248-.61c-.237-.463-.35-.988-.286-1.322.1-.523.17-.555 1.201-.555.603 0 1.096-.092 1.096-.204 0-.13 1.628-.203 4.476-.203 2.85 0 4.477.074 4.477.203 0 .113.543.204 1.22.204.71 0 1.222-.089 1.222-.212 0-.225 1.649-1.87 1.762-1.757.036.037-.208.374-.543.75-.417.467-.609.895-.609 1.357v.676H9.925l.352.723.351.722 6.738-.015c4.397-.01 6.782.056 6.866.193.087.14-2.12.208-6.797.208h-6.927zm14.351.154c-.248-1.24.074-2.488.851-3.303.4-.42.819-.763.93-.763.111 0-.09.302-.448.671-.971 1.002-.877 1.364.355 1.364.553 0 1.062-.092 1.131-.204.078-.125 1.834-.203 4.59-.203 2.841 0 4.465.074 4.465.203 0 .113.543.204 1.22.204 1.042 0 1.222-.054 1.222-.367 0-.371 1.186-1.668 1.526-1.668.101 0-.139.343-.533.763-.53.564-.713.936-.702 1.424l.014.662H24.513l.14.458c.31 1.017.002.974 7.462 1.022l7.045.046.137-1.37c.125-1.247.211-1.443.955-2.187.45-.45.917-.818 1.037-.818.121 0-.085.314-.458.699-.919.948-.747 1.336.592 1.336.563 0 1.023-.092 1.023-.204 0-.13 1.628-.203 4.477-.203s4.476.074 4.476.203c0 .113.543.204 1.221.204 1.086 0 1.221.045 1.221.407 0 .399-.135.407-7.134.407h-7.134l.063.723.063.724 7.071-.016c4.7-.011 7.071.053 7.071.192 0 .14-4.78.208-14.625.208H24.591Zm-20.152-1.54a2.08 2.08 0 0 1-.124-.406c0-.047 1.19-.085 2.645-.085 2.51 0 2.646.02 2.646.407 0 .385-.136.407-2.522.407-2.112 0-2.542-.053-2.645-.322zm58.869-.44a30.81 30.81 0 0 1-.051-.967l-.035-.814h-1.83c-1.745 0-1.835.022-1.897.458-.06.425-.168.458-1.475.458h-1.41V9.53h3.459v1.831h3.285l-.057-1.068-.057-1.068 1.295-.062c.899-.042 1.347.02 1.464.204.193.304.236 4.648.05 5.131-.094.247-.425.322-1.424.322-.715 0-1.308-.068-1.317-.152zm3.475-1.773v-1.94h3.678l-.058 1.881-.059 1.883-1.78.058-1.78.06zm4.273-.822c0-1.695.078-2.747.204-2.747s.203 1.052.203 2.747c0 1.696-.077 2.747-.203 2.747s-.204-1.051-.204-2.747zM4.27 13.914c-.24-.622.153-.722 2.846-.722 2.055 0 2.79-.07 3.09-.298.218-.165.575-.302.793-.305.326-.006.254.14-.397.807l-.795.814H7.095c-2.183 0-2.734-.058-2.825-.296zm6.942-.518c.437-.448.887-.814.998-.814.112 0-.154.366-.59.814-.438.448-.887.814-1 .814-.111 0 .155-.366.592-.814zm.916.062c.392-.463.786-.85.876-.859.27-.028-.35.748-.992 1.24-.565.436-.559.415.116-.381zm10.378.042c.391-.446.734-.85.762-.899.028-.048.095-.043.15.011.053.054-.29.459-.764.899l-.86.8zm.915-.104c.437-.448.886-.814.998-.814.112 0-.154.366-.591.814-.437.448-.886.814-.998.814-.112 0 .154-.366.591-.814zm2.774.017c.377-.438.818-.804.98-.814.166-.01-.054.342-.498.797-1.022 1.047-1.378 1.06-.482.017zm.38.642c0-.246 1.397-1.568 1.524-1.441.058.058-.262.444-.71.859-.448.414-.814.676-.814.582zm10.377.033c0-.264 1.386-1.612 1.52-1.479.055.056-.264.457-.71.892-.445.435-.81.7-.81.587zm1.452-.675c.377-.438.818-.804.98-.814.166-.01-.054.342-.499.797-1.022 1.047-1.377 1.06-.481.017zm2.211.675c0-.264 1.386-1.612 1.52-1.479.055.056-.264.457-.71.892-.445.435-.81.7-.81.587zm1.526-.692c.437-.448.886-.814.998-.814.112 0-.154.366-.59.814-.438.448-.887.814-1 .814-.111 0 .155-.366.592-.814zm10.303.017c.377-.438.818-.804.98-.814.166-.01-.054.342-.498.797-1.022 1.047-1.378 1.06-.482.017zm.38.658c0-.106.265-.446.589-.756.507-.486.573-.675.481-1.36l-.106-.797h1.884v2.848l-.66.003c-.365 0-1.005.059-1.425.128-.432.071-.763.043-.763-.066zm-39.577-.879c.322-.335.676-.61.788-.61.112 0-.06.275-.381.61-.322.336-.676.61-.788.61-.112 0 .06-.274.381-.61zm.951.012c.26-.33.605-.605.766-.61.184-.008.076.214-.293.598-.752.786-1.09.794-.473.012zm.88-.012c.322-.335.677-.61.789-.61.112 0-.06.275-.382.61-.321.336-.676.61-.788.61-.112 0 .06-.274.381-.61zm1.155.012c.26-.33.605-.605.766-.61.184-.008.076.214-.293.598-.752.786-1.09.794-.473.012zm.88-.012c.322-.335.677-.61.788-.61.112 0-.06.275-.38.61-.323.336-.677.61-.79.61-.111 0 .06-.274.382-.61zm.951.012c.26-.33.605-.605.766-.61.184-.008.076.214-.293.598-.752.786-1.09.794-.473.012zm.575.469c0-.262.982-1.194 1.116-1.06.056.055-.173.363-.507.683-.335.32-.609.49-.609.377zm1.323-.48c.322-.336.676-.611.788-.611.112 0-.06.275-.381.61-.322.336-.677.61-.789.61-.111 0 .06-.274.382-.61zm.948 0c.248-.336.542-.611.654-.611.112 0-.06.275-.381.61-.322.336-.617.61-.655.61-.038 0 .133-.274.382-.61zm.883 0c.322-.336.677-.611.788-.611.112 0-.06.275-.38.61-.323.336-.677.61-.79.61-.111 0 .06-.274.382-.61zm6.445.01c.26-.329.605-.604.766-.61.184-.007.076.215-.293.6-.752.785-1.09.793-.473.01zm.575.47c0-.262.982-1.194 1.116-1.06.056.055-.173.363-.507.683-.335.32-.609.49-.609.377zm1.391-.343c.244-.26.382-.535.307-.61-.076-.076.078-.138.341-.138h.48l-.586.61c-.321.336-.675.61-.785.61-.11 0-.001-.212.243-.472zm.644.343c0-.262.982-1.194 1.116-1.06.055.055-.173.363-.508.683-.334.32-.608.49-.608.377zm1.323-.48c.321-.336.676-.611.788-.611.112 0-.06.275-.381.61-.322.336-.677.61-.789.61-.112 0 .06-.274.382-.61zm.916.101c.28-.336.53-.648.559-.695.028-.047.096-.04.15.015.055.055-.196.367-.558.695l-.659.596zm.915-.102c.322-.335.676-.61.788-.61.112 0-.06.275-.381.61-.322.336-.677.61-.788.61-.112 0 .06-.274.38-.61zm.916.102c.28-.336.531-.648.56-.695.027-.047.095-.04.15.015.054.055-.197.367-.56.695l-.658.596zm.915-.102c.322-.335.677-.61.789-.61.111 0-.06.275-.382.61-.321.336-.676.61-.788.61-.112 0 .06-.274.381-.61zm.952.011c.26-.33.543-.604.63-.61.255-.018-.459.961-.795 1.09-.2.077-.143-.09.165-.48zm6.476.091c.28-.336.53-.648.559-.695.028-.047.096-.04.15.015.055.055-.196.367-.559.695l-.658.596zm.915-.102c.322-.335.676-.61.788-.61.112 0-.06.275-.381.61-.322.336-.677.61-.788.61-.112 0 .06-.274.38-.61zm.916.102c.28-.336.531-.648.56-.695.027-.047.095-.04.15.015.054.055-.197.367-.56.695l-.658.596zm.915-.102c.322-.335.677-.61.789-.61.111 0-.06.275-.382.61-.321.336-.676.61-.788.61-.112 0 .06-.274.381-.61zm.952.011c.26-.33.543-.604.63-.61.255-.018-.459.961-.795 1.09-.2.077-.143-.09.165-.48zm.88-.01c.321-.336.676-.611.788-.611.112 0-.06.275-.382.61-.321.336-.676.61-.788.61-.112 0 .06-.274.382-.61zm1.085.137c.244-.26.382-.535.307-.61-.076-.076.021-.138.215-.138.317 0 .309.063-.081.61-.24.336-.536.61-.66.61s-.025-.212.22-.472zm.95-.138c.321-.335.676-.61.788-.61.112 0-.06.275-.382.61-.321.336-.676.61-.788.61-.112 0 .06-.274.381-.61zm.95.012c.26-.33.605-.605.766-.61.184-.008.076.214-.292.598-.753.786-1.091.794-.474.012zm.88-.012c.322-.335.677-.61.789-.61.112 0-.06.275-.381.61-.322.336-.677.61-.789.61-.112 0 .06-.274.382-.61zm-48.18-.184c-.349-.59-.459-1.735-.226-2.342.156-.406.813-.421.966-.023.091.24.673.31 2.904.356l2.79.057.19.571c.15.448.113.657-.167.967-.32.353-.643.395-3.063.395-2.19 0-2.738.058-2.876.304-.137.245-.238.19-.519-.285zm8.91-1.036c-.33-.534.305-.61 5.055-.61 4.793 0 4.93.01 4.93.406s-.137.407-4.93.407c-3.067 0-4.978-.077-5.056-.203zm14.548-.204c0-.396.136-.407 4.985-.407 4.85 0 4.985.011 4.985.407 0 .396-.135.407-4.985.407-4.85 0-4.985-.011-4.985-.407zm14.447 0c0-.396.136-.407 4.985-.407 4.85 0 4.985.011 4.985.407 0 .396-.135.407-4.985.407-4.85 0-4.985-.011-4.985-.407zm-3.904-.342c.147-.06.322-.052.39.016.067.067-.053.115-.267.107-.237-.01-.286-.058-.123-.123zm2.441 0c.147-.06.323-.052.39.016.068.067-.052.115-.267.107-.237-.01-.285-.058-.123-.123zm-29.583-.773c-.215-.163-.3-.298-.188-.3.302-.005.819.359.691.486-.06.061-.287-.023-.503-.186zm.935 0c-.16-.192-.176-.31-.04-.31.245 0 .532.387.39.528-.05.051-.208-.047-.35-.217zm.897 0c-.344-.26-.35-.297-.048-.303.189-.003.404.091.478.21.222.36-.012.41-.43.093zm.934 0c-.16-.192-.176-.31-.04-.31.245 0 .532.387.39.528-.05.051-.208-.047-.35-.217zm.897 0c-.344-.26-.35-.297-.048-.303.19-.003.405.091.478.21.222.36-.012.41-.43.093zm1.858-.02c-.33-.242-.34-.29-.063-.29.183 0 .393.098.467.218.215.349.022.383-.404.071zm1.831 0c-.33-.242-.34-.29-.062-.29.182 0 .392.098.466.218.216.349.022.383-.404.071zm1.926.02c-.16-.192-.176-.31-.041-.31.246 0 .532.387.391.528-.051.051-.209-.047-.35-.217zm2.035 0c-.161-.192-.176-.31-.042-.31.246 0 .533.387.392.528-.051.051-.209-.047-.35-.217zm.896 0c-.215-.163-.3-.298-.188-.3.302-.005.819.359.691.486-.06.061-.287-.022-.503-.186zm.935 0c-.16-.192-.176-.31-.041-.31.246 0 .532.387.391.528-.05.051-.209-.047-.35-.217zm.897 0c-.345-.26-.35-.297-.048-.303.189-.003.404.091.478.21.221.36-.012.41-.43.093zm.934 0c-.16-.192-.176-.31-.04-.31.245 0 .532.387.39.528-.05.051-.208-.047-.35-.217zm.897 0c-.344-.26-.35-.297-.048-.303.19-.003.404.091.478.21.222.36-.012.41-.43.093zm1.858-.02c-.33-.242-.34-.29-.063-.29.183 0 .393.098.466.218.216.349.023.383-.403.071zm1.831 0c-.33-.242-.34-.29-.063-.29.183 0 .393.098.467.218.215.349.022.383-.404.071zm1.925.02c-.16-.192-.175-.31-.04-.31.245 0 .532.387.391.528-.051.051-.209-.047-.35-.217zm.897 0c-.215-.163-.3-.298-.188-.3.302-.005.819.359.691.486-.06.061-.287-.022-.503-.186zm.935 0c-.16-.192-.176-.31-.041-.31.246 0 .532.387.391.528-.05.051-.209-.047-.35-.217zm.897 0c-.345-.26-.35-.297-.049-.303.19-.003.405.091.479.21.221.36-.012.41-.43.093zm.934 0c-.16-.192-.176-.31-.04-.31.245 0 .532.387.39.528-.05.051-.208-.047-.35-.217zm.897 0c-.344-.26-.35-.297-.048-.303.189-.003.404.091.478.21.222.36-.012.41-.43.093zm1.858-.02c-.33-.242-.34-.29-.063-.29.183 0 .393.098.466.218.216.349.023.383-.403.071zm1.831 0c-.33-.242-.34-.29-.063-.29.183 0 .393.098.467.218.215.349.022.383-.404.071zm2.035 0c-.33-.242-.34-.29-.063-.29.183 0 .393.098.466.218.216.349.023.383-.403.071zm1.925.02c-.16-.192-.176-.31-.04-.31.245 0 .532.387.39.528-.05.051-.208-.046-.35-.217zm2.035 0c-.16-.192-.176-.31-.041-.31.246 0 .533.387.392.528-.052.051-.21-.046-.351-.217zm.897 0c-.216-.163-.3-.298-.189-.3.302-.005.82.359.692.486-.061.061-.288-.022-.503-.186zm.934 0c-.16-.192-.176-.31-.04-.31.245 0 .532.387.39.528-.05.051-.208-.046-.35-.217zm.897 0c-.344-.26-.35-.297-.048-.303.19-.003.404.091.478.21.222.36-.012.41-.43.093zm.935 0c-.16-.192-.176-.31-.041-.31.246 0 .532.387.391.528-.051.051-.209-.046-.35-.217zm.896 0c-.344-.26-.35-.297-.048-.303.19-.003.405.091.479.21.221.36-.012.41-.43.093zm1.858-.02c-.33-.242-.34-.29-.062-.29.182 0 .392.098.466.218.216.349.022.383-.404.071zm1.853-.05c-.512-.565-.427-.646.68-.646.88 0 1.016.054 1.016.407 0 .3-.135.407-.515.407-.283 0-.567-.138-.632-.305-.064-.168-.21-.306-.324-.306-.117 0-.095.134.051.31.375.453.123.574-.276.133zm-49.784-.137c-.146-.176-.166-.306-.047-.306.114 0 .26.138.324.305.065.168.086.306.047.306-.039 0-.185-.138-.324-.306zm10.276.101c-.07-.112-.034-.203.078-.203s.26.091.329.203c.069.112.034.204-.078.204s-.26-.092-.33-.204zm1.831 0c-.069-.112-.034-.203.078-.203s.26.091.33.203c.068.112.033.204-.079.204-.111 0-.26-.092-.329-.204zm1.831 0c-.069-.112-.034-.203.078-.203s.26.091.33.203c.069.112.034.204-.078.204s-.26-.092-.33-.204zm2.035 0c-.069-.112-.034-.203.078-.203s.26.091.33.203c.068.112.033.204-.078.204-.112 0-.26-.092-.33-.204zm6.512 0c-.07-.112-.035-.203.077-.203s.26.091.33.203c.069.112.034.204-.078.204s-.26-.092-.33-.204zm1.83 0c-.068-.112-.033-.203.079-.203s.26.091.329.203c.07.112.034.204-.078.204s-.26-.092-.33-.204zm1.832 0c-.069-.112-.034-.203.078-.203s.26.091.33.203c.068.112.033.204-.079.204-.111 0-.26-.092-.329-.204zm6.512 0c-.07-.112-.035-.203.077-.203s.26.091.33.203c.069.112.034.204-.078.204s-.26-.092-.33-.204zm1.83 0c-.068-.112-.033-.203.079-.203s.26.091.329.203c.069.112.034.204-.078.204s-.26-.092-.33-.204zm2.036 0c-.07-.112-.034-.203.077-.203.112 0 .26.091.33.203.069.112.034.204-.078.204s-.26-.092-.33-.204zm1.831 0c-.07-.112-.034-.203.078-.203s.26.091.329.203c.07.112.034.204-.078.204s-.26-.092-.329-.204zm2.035 0c-.07-.112-.034-.203.078-.203.111 0 .26.091.329.203.069.112.034.204-.078.204s-.26-.092-.33-.204zm6.511 0c-.069-.112-.034-.203.078-.203s.26.091.33.203c.068.112.033.204-.079.204s-.26-.092-.329-.204zm1.831 0c-.069-.112-.034-.203.078-.203s.26.091.33.203c.069.112.034.204-.078.204s-.26-.092-.33-.204zM4.266 9.632c-.31-.805.013-.916 2.667-.916h2.55v1.22h-2.55c-2.08 0-2.572-.056-2.667-.304zm7.964.101c-.07-.112-.624-.203-1.233-.203-.972 0-1.107-.05-1.107-.407 0-.4.135-.407 7.121-.407h7.122v.61c0 .475-.09.61-.407.61-.224 0-.407-.09-.407-.203 0-.113-.542-.203-1.22-.203-.679 0-1.221.09-1.221.203 0 .277-8.477.277-8.648 0zm12.53-.356-.016-.661h14.243v.61c0 .336-.091.61-.203.61a.204.204 0 0 1-.204-.203c0-.113-.542-.203-1.22-.203-.679 0-1.222.09-1.222.203 0 .13-1.593.204-4.374.204-2.781 0-4.375-.074-4.375-.204 0-.306-2.386-.257-2.51.051-.057.14-.11-.043-.12-.407Zm14.634-.05v-.611h14.447v.61c0 .407-.102.61-.305.61-.168 0-.305-.09-.305-.203 0-.113-.543-.203-1.221-.203s-1.221.09-1.221.203c0 .13-1.56.204-4.273.204-2.713 0-4.273-.074-4.273-.204 0-.113-.543-.203-1.221-.203s-1.22.09-1.22.203a.204.204 0 0 1-.204.204c-.112 0-.204-.275-.204-.61zm14.854-1.323V6.478h1.628V9.53h-1.628Zm-50.053.05c.002-.14.058-.46.125-.712.12-.446.19-.457 2.948-.457 1.554 0 2.825.032 2.825.071 0 .04-.1.36-.223.712l-.224.641H6.92c-2.047 0-2.726-.063-2.724-.254zm5.898.143c0-.061.14-.382.31-.712l.311-.6h13.834l-.134.56c-.073.307-.172.627-.22.711-.096.173-14.1.214-14.1.041zm14.65-.278c0-1.077-.294-1.034 7.234-1.034 4.213 0 7.034.077 7.106.194.066.106.062.427-.01.712l-.13.518h-7.1c-6.863 0-7.1-.013-7.1-.39zm14.69-.271.063-.662 6.104-.11c3.358-.06 6.215-.03 6.349.068.134.097.592.147 1.017.11.74-.065.776-.04.837.594l.064.661H39.368Zm-5.99-1.476c.105-.545.203-.57 1.983-.51.56.019 1.048.118 1.086.221.086.24 1.05.247 1.05.008 0-.321.833-.417.95-.11.062.16.336.29.61.29.275 0 .448-.084.384-.187-.064-.105.525-.217 1.337-.254 1.027-.048 1.481.007 1.55.186.133.349.672.32.947-.05.2-.27.29-.27.808 0 .674.352 1.147.394 1.147.101 0-.298 2.714-.256 3.017.046.196.197.333.197.648 0 .22-.137.528-.25.685-.25.157 0 .345-.234.417-.522.126-.501.185-.52 1.476-.473 1.302.047 1.372.024 2.18-.722l.835-.771 2.004.196c1.878.184 2.202.307 2.42.921.03.085.466.225.97.31.732.125.927.246.98.609.04.281.207.453.44.453.207 0 .414.114.462.254.067.2.15.201.382.01.184-.153.872-.23 1.811-.204 1.281.035 1.525.098 1.585.41.066.344-.089.361-2.338.254-7.368-.35-9.428-.355-9.428-.025 0 .241-.22.318-.915.318-.679 0-.916-.079-.916-.305 0-.214-.216-.305-.719-.305-.45 0-.762.113-.835.305-.102.264-1.25.305-8.614.305h-8.496z" style="fill:#000;fill-opacity:1;stroke-width:.203479"/></svg>