<svg xmlns="http://www.w3.org/2000/svg" width="296.986" height="128" viewBox="0 0 78.578 33.867"><path d="M39.93 30.214c0-.263-.071-.665-.159-.895-.155-.409-.144-.417.559-.417.602 0 .735.058.829.366.237.778.538.936 1.788.936 1.07 0 1.2-.036 1.439-.402.145-.22.263-.513.263-.65 0-.197.207-.25.976-.25.91 0 1.215.158.8.415-.098.06-.143.242-.1.403.059.226-.11.37-.74.632-.703.292-1.153.34-3.236.34h-2.42zm-.814-2.213c0-.518.032-.558.315-.407.188.1 1.673.169 3.684.169 3.018 0 3.392.03 3.585.284.12.157.219.34.222.407.003.067-1.753.122-3.9.122h-3.906zm.434-.672c-.06-.06-.108-.487-.108-.95 0-.744.048-.864.414-1.03.624-.285.7-.243.756.42l.05.61 1.627.076 1.628.075-1.628.088c-1.532.082-1.63.108-1.679.453-.04.279-.16.366-.502.366-.247 0-.498-.049-.558-.108zm4.61-1.737c0-1.81.008-1.849.407-2.03l.407-.186v4.061h-.813Zm1.14-.259c0-1.183.066-2.126.15-2.126.081 0 .266-.046.41-.101.235-.09.258.13.217 2.075-.044 2.116-.055 2.176-.411 2.227-.364.052-.366.038-.366-2.075zm-4.556 1.779c0-.097.596-.163 1.464-.163s1.464.066 1.464.163c0 .096-.596.163-1.464.163s-1.464-.067-1.464-.163zm13.758-.04c-.175-.57.02-.846 1.076-1.523.837-.537 1.112-.804 1.112-1.082 0-.387-.528-1.484-1.321-2.742l-.472-.749-1.243-.105c-.683-.058-1.345-.19-1.471-.295-.126-.104-.719-.187-1.319-.185-.712.004-.846-.019-.387-.064l.703-.07-.041-.889c-.034-.725.017-.929.273-1.105.52-.357 2.104-.892 2.986-1.01.745-.098.827-.078.827.203 0 .172.138.582.306.912.258.506.271.63.082.787-.328.272-.292.375.426 1.204.359.414.949 1.367 1.312 2.118.4.828.785 1.404.976 1.465.423.134.42.951-.007 1.377-.28.28-3.422 1.956-3.666 1.956-.05 0-.118-.092-.152-.204zm3.87-2.308c.138-.36-.293-.639-.535-.346-.11.131-.152.315-.094.409a.353.353 0 0 0 .628-.063zm-4.387-6.038a.26.26 0 0 0-.156-.347c-.304-.117-.637.172-.484.42.16.258.529.216.64-.073zM40.906 25.81c0-.486.003-.488.946-.488.839 0 .999.055 1.414.488l.467.488h-2.827zm2.197-.325c-.407-.426-.585-.49-1.373-.496l-.905-.007 1.464-.561a50.436 50.436 0 0 1 1.505-.562c.023-.001.041.474.041 1.056 0 .582-.06 1.058-.132 1.058-.073 0-.343-.22-.6-.488zm11.235.122c-.035-.112-.151-.497-.257-.855a8.553 8.553 0 0 0-.582-1.362c-.214-.392-.389-.73-.389-.75 0-.022.413-.081.918-.134.505-.052.995-.171 1.089-.265.119-.119.334.135.709.838.742 1.388.713 1.574-.341 2.205-.986.59-1.057.61-1.147.323zm-17.212-.064c-.044-.077-.128-.341-.187-.587-.094-.392-.06-.448.275-.448.292 0 .38.087.37.366-.008.223.082.367.23.367.15 0 .24-.144.232-.367-.007-.2.072-.366.176-.366.103 0 .713-.541 1.355-1.203 1.199-1.236 1.432-1.782.841-1.97-.303-.096-.325-.246-.325-2.228v-2.124l-1.505-1.439-1.506-1.439h-3.254l-3.254.001-.448.59c-.246.324-.447.761-.447.97 0 .376-.025.381-1.73.381-1.444 0-1.817.054-2.255.324-.473.293-.535.423-.63 1.326a19.88 19.88 0 0 0-.104 1.628c0 .345-.073.638-.163.652-.09.013-.24.031-.334.04-.094.01-.369-.345-.61-.787-.413-.757-.52-.836-1.822-1.343l-1.383-.538h-7.186l-.213.398c-.228.425-.59.637-.833.488-.082-.05-.148-.564-.148-1.14v-1.048l3.213.006c2.48.004 3.307.059 3.62.238.225.128.481.232.57.232.489-.004-1.075-.626-1.586-.632-.588-.006-.61-.028-.61-.576 0-.313-.073-.57-.163-.57-.09 0-.163.257-.163.57 0 .398-.073.57-.244.57-.17 0-.244-.172-.244-.57 0-.398-.073-.57-.244-.57-.17 0-.244.172-.244.57 0 .71-.287.753-.356.053-.073-.746-.458-.802-.458-.067 0 .41-.072.583-.244.583-.17 0-.244-.171-.244-.57 0-.397-.073-.569-.244-.569-.17 0-.244.172-.244.57 0 .313-.073.57-.163.57-.09 0-.162-.257-.162-.57 0-.398-.074-.57-.244-.57-.17 0-.245.172-.245.57 0 .398-.073.57-.244.57-.171 0-.244-.174-.244-.584 0-.395-.065-.56-.203-.513-.112.038-.203.3-.202.583.001.305-.081.513-.203.513-.13 0-.205-.236-.205-.65v-.651h6.351l.87.49.87.491 4.293-.043 4.294-.043.05-.407c.028-.224.31-.645.629-.936l.578-.529h3.41c2.059 0 3.55.068 3.765.172.343.166.344.163.04-.081-.265-.212-.903-.253-3.914-.253h-3.597l-.602.617c-.332.339-.603.742-.603.895 0 .255-.354.277-4.31.277h-4.309l-.793-.488-.794-.488h-3.081c-3.189 0-3.473.056-3.473.684 0 .16-.073.292-.162.292-.09 0-.163-.434-.163-.976v-.976h17.587l-.047-1.248c-.058-1.515-.373-1.801-.373-.34v1.018H26.18v-1.017c0-.909-.035-1.017-.325-1.017-.291 0-.326.108-.326 1.017v1.017h-2.278v-1.017c0-.909-.034-1.017-.325-1.017-.29 0-.326.108-.326 1.017v1.017h-2.278v-1.017c0-.909-.034-1.017-.325-1.017-.29 0-.326.108-.326 1.017v1.017h-2.278v-1.017c0-.909-.034-1.017-.325-1.017-.29 0-.325.108-.325 1.017v1.017l-2.43.045c-1.563.03-2.512.114-2.66.237-.2.165-.224-.224-.175-2.757.032-1.622.097-2.988.145-3.036.064-.065 16.988-.163 18.9-.11.232.006.282.243.334 1.594.033.873.159 1.843.28 2.156.12.313.241.661.27.773.039.153.774.203 2.985.203h2.934v.814c0 .615.06.813.245.813.134 0 .244.139.244.308 0 .17.58.871 1.297 1.57l1.296 1.261.046 1.97.045 1.97 1.016.668 1.016.667 2.039-.407c1.12-.223 2.086-.359 2.144-.3.059.059.04.37-.044.692l-.15.585-4.15 1.544c-4.172 1.553-5.098 1.83-5.244 1.572zm4.848-3.46c-.14-.226-.528-.23-.665-.008-.058.093-.014.28.098.415.178.214.233.215.44.008.13-.13.187-.317.127-.415zm4.25.05c.124-.326-.272-.595-.543-.37-.246.205-.104.63.21.63.128 0 .277-.117.332-.26zM24.122 16.68c-.122-.077-1.136-.127-2.255-.112l-2.034.029 1.98.091c1.09.05 2.034.144 2.098.209.064.065.188.074.274.02.092-.057.066-.155-.063-.237zm-6.363-2.87c.051-.156-.398-.204-1.899-.204-1.657 0-1.966.04-1.966.25 0 .212.282.242 1.899.203 1.34-.033 1.918-.106 1.966-.25zm4.393 0c.052-.156-.398-.204-1.898-.204-1.658 0-1.967.04-1.967.25 0 .212.282.242 1.899.203 1.34-.033 1.919-.106 1.966-.25zm4.394 0c.051-.156-.399-.204-1.9-.204-1.656 0-1.965.04-1.965.25 0 .212.282.242 1.898.203 1.34-.033 1.919-.106 1.967-.25zm1.79 0c.047-.143-.155-.204-.679-.204-.702 0-.897.12-.63.388.187.186 1.236.039 1.31-.184zM13.76 12.198c.382-.345.376-.586-.022-.946-.367-.332-.72-.25-.975.226-.143.267-.114.395.152.66.398.399.466.403.845.06zm-.733-.165c-.238-.238-.101-.705.207-.705.416 0 .576.28.33.577-.215.259-.37.296-.537.128zm2.831.266c.179-.096.315-.34.315-.564 0-.331-.389-.732-.71-.732-.17 0-.592.522-.592.732 0 .21.422.732.592.732.044 0 .222-.076.395-.168zm-.65-.389c-.253-.304-.093-.582.335-.582.243 0 .314.09.275.354-.065.441-.347.547-.61.228zm12.529.389c.67-.359.14-1.47-.57-1.196-.413.158-.519.888-.166 1.145.359.263.342.262.736.05zm-.651-.389c-.253-.304-.093-.582.336-.582.243 0 .313.09.275.354-.065.441-.347.547-.611.228zm-13.859-1.544c.373-.236.078-.665-.456-.665-.567 0-.775.242-.497.577.22.266.614.303.953.088zm4.37.018c.112-.037.203-.206.203-.375 0-.285-.145-.308-1.952-.308-1.785 0-1.953.026-1.953.298 0 .164.055.354.122.421.122.122 3.193.091 3.58-.036zm4.312.026c.156-.044.285-.222.285-.395 0-.293-.132-.314-1.953-.314-1.785 0-1.953.026-1.953.298 0 .164.042.34.093.391.114.114 3.134.131 3.528.02zm4.352.023c.18-.057.326-.245.326-.418 0-.293-.131-.314-1.953-.314-1.785 0-1.952.026-1.952.298 0 .164.035.334.078.377.123.123 3.14.172 3.501.057zm2.11-.155c.29-.349.062-.577-.573-.577-.435 0-.56.067-.56.298 0 .164.049.347.108.407.194.194.823.115 1.025-.128zM15.993 9.082c.116-.216.062-.464-.202-.936l-.36-.642-1.654-.046c-1.55-.043-1.666-.024-1.841.303-.164.305-.11.428.43.982l.619.633h1.425c1.208 0 1.45-.045 1.583-.294zm-3.365-.565c-.514-.531-.54-.769-.082-.769.123 0 .203.128.176.285-.041.249.137.295 1.417.366 1.157.064 1.464.133 1.464.326 0 .19-.265.254-1.223.29-1.2.046-1.233.037-1.752-.498zm7.921.565c.116-.216.063-.464-.202-.936l-.36-.642-1.664-.046c-1.645-.046-1.666-.042-1.853.368-.173.38-.135.463.449.982.624.556.666.567 2.055.567 1.2 0 1.442-.045 1.575-.293zm-3.366-.529c-.53-.481-.569-.805-.098-.805.14 0 .221.12.193.285-.041.25.123.29 1.335.333.76.026 1.455.12 1.544.21.284.283-.266.47-1.38.467-.946-.002-1.115-.054-1.594-.49zm7.76.529c.115-.216.062-.464-.203-.936l-.36-.642-1.62-.047c-1.382-.04-1.65-.006-1.825.235-.29.398-.276.44.4 1.095.601.585.613.589 2.028.589 1.205 0 1.447-.045 1.58-.294zm-3.371-.571c-.51-.526-.533-.763-.076-.763.123 0 .202.128.176.285-.042.25.123.29 1.334.333.76.026 1.455.12 1.545.21.283.283-.265.469-1.39.472-.995.002-1.101-.034-1.59-.537zm7.609.557c.125-.234.077-.469-.198-.975l-.362-.667-1.662-.002c-1.526-.001-1.677.027-1.846.342-.16.298-.102.428.434.977l.618.633h1.426c1.231 0 1.448-.042 1.59-.308zm-3.29-.468c-.492-.513-.57-.852-.199-.852.134 0 .244.144.244.32 0 .289.134.323 1.424.366 1.136.037 1.424.096 1.424.29 0 .192-.266.255-1.225.292-1.162.044-1.248.023-1.668-.416zm11.273 15.43c0-.084.073-.199.162-.254.1-.062.163-1.375.163-3.396v-3.296l-.453-.434c-.514-.492-1.057-.557-4.876-.587-2.056-.015-2.156-.031-2.156-.348 0-.183.16-.549.356-.814l.356-.481h6.211l1.339 1.346 1.338 1.345v4.253l.43.197.431.196-.468.521c-1.576 1.755-1.757 1.905-2.298 1.905-.294 0-.535-.069-.535-.153zm20.828-.494c0-.403-1.004-2.282-1.611-3.014-.66-.797-.78-1.21-.39-1.34.424-.141 2.652 3.442 2.652 4.265 0 .14-.143.248-.326.248-.179 0-.325-.072-.325-.159zm-5.208-1.714a5.118 5.118 0 0 0-.27-.61c-.177-.287 2.28.04 2.51.334.273.35.03.482-1.156.62-.888.105-.917.096-1.084-.344zm-11.105-.993c-.556-.42-.773-.695-.773-.985 0-.328.06-.383.326-.299.292.093.325.03.325-.622 0-.897.06-.923 2.063-.923 1.306 0 1.622-.053 2.023-.338l.474-.338-.343-.483-.344-.483-2.354.023c-1.295.013-2.398-.02-2.452-.074-.053-.053-.012-.097.092-.097.225 0 .257-.59.04-.724-.082-.051-.254.012-.383.141-.204.204-.334.133-1.002-.546-.633-.642-.72-.798-.495-.884.16-.061.235-.207.18-.348-.08-.213.88-.243 7.876-.243H54.9v.676c0 .637-.017.661-.288.415-.233-.21-.73-.266-2.556-.286-2.768-.032-2.851.021-2.851 1.817v1.12H47.74c-1.315 0-1.464.031-1.464.3 0 .49-.517.815-1.384.87l-.813.051V19.87l1.274.305c.701.168 1.214.364 1.14.437-.075.073-.831.249-1.682.391-.85.143-1.728.293-1.952.334-.29.053-.63-.094-1.18-.508zm5.637-4.063c.183-.478.1-.725-.303-.91-.307-.14-.46-.134-.65.024-.254.21-.339.837-.141 1.035.213.213.996.107 1.094-.15zm-.987-.329c-.114-.297.216-.564.542-.439.12.046.219.222.219.392 0 .384-.617.423-.761.047zm.11 3.854c-.135-.077-.669-.234-1.187-.348-1.064-.235-1.165-.326-1.017-.915.094-.374.164-.408.675-.325.753.122.967.023 1.376-.638l.342-.554h2.902l.003-.61c.001-.335.056-.525.122-.421.066.103.391.239.723.301l.602.113-.338.457c-.2.271-.359.77-.39 1.23-.034.512-.164.886-.386 1.108-.19.19-.336.25-.336.137 0-.11.074-.2.163-.2.232 0 .202-.865-.04-1.168-.288-.36-.86-.461-1.947-.348l-.942.099v.765c0 1.047.286 1.272 1.712 1.345 1.072.054 1.053.06-.329.085-.805.014-1.574-.036-1.708-.113zm24.434-1.83c-.865-.974-1.719-1.804-1.898-1.844-.179-.04-1.482-.182-2.895-.316-1.414-.134-2.64-.287-2.726-.34-.085-.053-.155-.432-.155-.844v-.748l5.732.117c3.152.064 5.747.132 5.766.15.04.04-.437 5.378-.484 5.413-.017.013-.421.06-.899.104l-.868.08zm1.6-.55c0-1.012-.508-1.701-1.255-1.701-.862 0-.826.369.142 1.456.478.537.925.979.992.98.067.003.122-.328.122-.734zm2.005 2c.048-.2.179-1.484.291-2.85.133-1.613.265-2.466.378-2.428.182.06.18.154-.079 2.797-.226 2.31-.322 2.848-.51 2.848-.092 0-.128-.165-.08-.366zM40.94 17.96l.048-1.343 2.115-.046c2.013-.045 2.13-.03 2.408.312.266.327.269.382.035.616-.194.195-.722.277-2.163.339l-1.907.081-.05.692c-.035.48-.124.691-.292.691-.197 0-.232-.243-.194-1.342zm9.73-.023c0-.124.128-.384.285-.578.248-.307.42-.346 1.342-.303l1.057.05-1.116.528c-1.224.58-1.569.646-1.569.303zm2.766-1.01c0-.11-.039-.302-.086-.425-.056-.146.125-.299.529-.444 1.216-.438 1.346-.598 1.346-1.656v-.958h1.14V11.44c0-1.983-.005-2.008-.457-2.44-.264-.254-.64-.438-.895-.438-.242 0-.438-.091-.438-.203 0-.155-.46-.192-1.897-.153-1.89.05-1.9.053-2.58.61l-.683.56-1.773.003-1.773.003-.617 1.054-.616 1.055h-4.794l-.525-.956c-.29-.526-.526-1.013-.526-1.081 0-.07.95-.087 2.111-.04 1.678.068 2.15.04 2.298-.139.142-.171.718-.225 2.42-.225 1.956 0 2.266-.037 2.502-.297.148-.164.27-.344.27-.4 0-.055-1.154-.136-2.564-.18-3.058-.094-4.622-.236-4.832-.438-.085-.082-.872-.15-1.75-.15-1.308 0-1.594-.043-1.594-.243 0-.163.163-.245.488-.245.269 0 .488.074.488.163 0 .09.11.163.244.163.135 0 .244-.073.244-.163 0-.255 5.9-.216 6.171.04.173.164.231.164.29 0 .095-.257 5.906-.297 5.906-.04 0 .09.11.163.244.163s.244-.073.244-.163c0-.094.515-.163 1.22-.163 1.22 0 1.22.001 1.237.448l.016.447.113-.406c.195-.708.828-.616 2.59.375 2.362 1.329 2.555 1.412 3.485 1.502.483.046 1.051.223 1.3.404.417.305.716.322 5.644.322 3.984 0 5.235.048 5.336.204.072.111.131.953.131 1.87v1.669h-.529c-.361 0-.528-.078-.528-.244a.247.247 0 0 0-.25-.244.401.401 0 0 0-.342.244c-.061.157-.313.244-.71.244-.398 0-.65-.087-.71-.244a.405.405 0 0 0-.348-.244c-.14 0-.296.11-.348.244-.077.2-.504.244-2.44.244-1.937 0-2.364-.043-2.441-.244-.052-.135-.198-.244-.326-.244-.127 0-.274.11-.325.244-.075.195-.432.244-1.785.244-1.58 0-2.13.164-1.366.406.18.057.326.24.326.405 0 .166.041.41.092.542.07.18-.076.27-.57.353-.363.062-.661.179-.661.26 0 .082-.88.149-1.953.149-1.808 0-1.98.027-2.318.366-.431.433-2.075.84-2.075.513zm6.183-4.12v-.961l-1.343-.769-1.464-.837c-.067-.038-.122.74-.122 1.73v1.8H59.619zm-2.44-.5v-1.3l1.016.621c.96.586 1.02.66 1.067 1.3l.05.68h-2.134Zm6.152-1.423c-.082-.425-.62-.472-.62-.055 0 .233.104.337.337.337.233 0 .32-.087.283-.282zm-19.102.02c.171-.065.257-.302.257-.712 0-.541-.053-.625-.447-.7-.247-.047-.558-.022-.692.057-.196.115-.178.144.094.148.282.004.326.085.266.493l-.071.488h-1.6c-.89 0-1.643.072-1.7.163-.11.178 3.443.237 3.893.064zm6.96 5.634c-.99-.113-1.517-.36-1.277-.601.14-.14 2.888.403 3.109.614.174.167-.277.163-1.831-.013zm-1.656-.986c-.004-.905.157-.968 2.445-.968 1.787 0 2.093.039 2.327.297.148.164.27.338.27.387 0 .049-.38.252-.845.452-.677.292-1.007.342-1.668.253-2.119-.285-2.245-.288-2.386-.065-.094.148-.142.03-.143-.356zm13.181.1c-.116-.306-.289-.409-.756-.448-.495-.042-.61-.118-.631-.417-.024-.337.042-.366.841-.366h.868v.813c0 .898-.093 1.019-.322.417zm11.387-3.492c0-1.37.052-1.792.228-1.86.126-.048.272-.044.325.01.054.053.098.89.098 1.86 0 1.654-.02 1.763-.326 1.763-.305 0-.325-.109-.325-1.773zm.946.39-.041-1.818c-.006-.238.081-.464.193-.501.155-.052.204.381.204 1.817 0 2.208-.31 2.643-.356.502zM3.53 13.11c.048-.183-.016-.53-.143-.773-.292-.56-.29-.603.05-.943.156-.156.262-.44.237-.632-.044-.34.01-.35 2.118-.387 1.19-.021 2.841.01 3.669.07l1.505.107v2.68l-1.098.104c-.604.057-2.297.105-3.762.105-2.602.001-2.661-.006-2.576-.331zm1.578-.237c.277-.333-.14-.337-.579-.005-.31.234-.309.239.03.244.19.003.438-.105.55-.239zm1.8.076c.426-.228.397-.394-.11-.625-.362-.164-.459-.15-.644.096-.185.247-.177.32.05.494.323.245.312.245.705.035zm1.87-.148c-.236-.26-.341-.282-.595-.124-.468.293-.372.44.286.44.579 0 .587-.008.309-.316zm-3.969-.362c.806-.242.724-.48-.262-.759-.66-.186-.815-.186-1.004.003-.19.19-.185.279.03.585.29.416.378.428 1.236.171zm3.879-1.03c0-.701-.02-.733-.475-.733-.261 0-.588.044-.726.097-.225.086-.224.137.01.495.204.312.884.824 1.15.866.023.004.04-.323.04-.726zm-1.79-.09v-.657l-.61.11c-.336.06-.638.134-.67.163-.1.086.915 1.043 1.105 1.043.096 0 .175-.296.175-.658zm-2.115-.145c0-.238-.268-.347-.569-.232-.217.084-.228.133-.055.243.29.184.624.178.624-.011zm32.869 1.13v-.814h-6.183v-1.21c0-.667-.074-1.257-.163-1.312-.09-.056-.163-.206-.163-.335 0-.196.487-.235 2.93-.235H37v.57c0 .565.005.57.724.57h.725l.618 1.179.618 1.18 2.542.044 2.542.045.7-1.224.701-1.225h1.78c1.762 0 1.786-.005 2.36-.508l.579-.509 2.168.074c1.998.068 2.2.103 2.575.455.387.364.406.47.406 2.225v1.843H37.652Zm17.764-1.083c.365-.33.387-1.083.042-1.428-.575-.575-1.697-.117-1.697.692a.986.986 0 0 0 1.655.736zm-1.267-.454c-.167-.435.017-.822.418-.88.512-.072.875.384.646.812-.192.359-.934.407-1.064.068zm19.075-.16c.097-.254.547-.477.685-.34.09.09-.452.558-.657.567-.065.003-.077-.1-.028-.227zM9.599 9.326a.638.638 0 0 1-.235-.61c.05-.357.145-.403.91-.447l.855-.05v.66c0 .655-.004.66-.62.66-.34 0-.75-.096-.91-.213zm27.565-.683c0-.428-.071-.573-.285-.585-.157-.009-1.42-.016-2.807-.016L31.55 8.04v-.78h2.788c2.573 0 2.794.022 2.866.3.067.254.31.316 1.606.405 4.012.276 4.212.304 4.212.587 0 .592-.32.66-3.125.66h-2.733Zm-5.207-2.097c0-.284.69-.438 2.4-.535 1.145-.065 1.342-.039 1.342.18 0 .14.11.256.244.256.135 0 .244-.074.244-.163 0-.26.77-.188.873.081.054.141.297.244.575.244.265 0 .592-.11.726-.244.274-.274.918-.331.918-.081 0 .09.33.163.732.163.403 0 .733-.074.733-.163 0-.09.183-.163.406-.163.224 0 .407.073.407.163 0 .09.293.163.651.163.358 0 .65-.074.65-.163 0-.09.18-.163.398-.163.219 0 .443.073.498.163.131.212 1.383.212 1.383 0 0-.09.183-.163.407-.163.223 0 .407.073.407.163 0 .212 1.251.212 1.383 0 .13-.212.895-.212.895 0s1.252.212 1.383 0c.13-.212.895-.212.895 0 0 .09.146.163.325.163.244 0 .329-.113.338-.448.007-.246.05-.356.095-.244.055.137.472.203 1.27.203.856 0 1.243.068 1.389.244.111.135.303.245.426.245.124 0 .225.073.225.162 0 .107-3.879.163-11.31.163-9.532 0-11.308-.035-11.308-.226zm22.201-.501c-.202-.153-.706-.24-1.404-.244-.6-.003-1.137-.083-1.196-.179-.162-.261-.055-.305 1.036-.419.85-.088 1.004-.153 1.004-.42 0-.175.23-.636.51-1.026.459-.64.533-.684.76-.457.209.209.217.308.046.582-.116.185-.143.374-.06.43.21.145.226 1.511.019 1.76-.224.27-.327.266-.715-.027zm-22.15-.116c-.209-.264-.224-1.447-.021-1.705.091-.117.083-.23-.022-.295-.255-.157-.206-.737.061-.737.3 0 .744.444.744.744 0 .128.069.233.152.233.084 0 .175.2.204.447.048.417.109.45.905.497.708.04.855.101.855.352 0 .256-.16.314-1.017.374-.56.04-1.169.124-1.354.188-.21.073-.401.035-.507-.098zm3.366-.296a.163.163 0 0 1 .325 0c0 .09-.073.163-.162.163a.163.163 0 0 1-.163-.163z" style="fill:#000;fill-opacity:1;stroke-width:.162718"/></svg>