<svg xmlns="http://www.w3.org/2000/svg" width="601.332" height="162.563" viewBox="0 0 159.102 43.011"><g style="display:inline"><path d="m108.874 7.196-1.259 2.22-2.976.599v1.602h.002v1.293l.754-.812h4.07V9.525h1.598v2.573h6.547l2.709 2.503v.566c.47 0 .666-.002 1.344-.003.622 0 1.249-.003 1.732-.002a107.812 107.812 0 0 1 .781.004h.032l-.003-.652-.005-.035h-.665l-.962-.963h-2.474l-2.44-2.1h-3.15v-1.212l-.502-.126-1.339-2.882zM25.493 8.928v3.244l-.96.007-.308.37v.426l-.228.488v.346l-.866.52v7.683h3.354c.208.08.47.136.412.319l.036 3.101-.134.282 1.756.002.015-7.078c.09-.384.372-.381.638-.365l38.148-.008c.428.08.55.35.756.567l3.326 6.927h.015v-.019h7.62v-2.539H73.19l-.407-.432-3.825-8.275H56.325l-.394-.496H34.923l-.346-.016v-.566h-1.212l-.3-.268h-.487l-4.676-4.22zm84.238.861v2.309h1.068V9.789Zm-38.853.963a.24.24 0 1 0 0 .48h.318v.34c0 .095.077.171.172.171h.25a.172.172 0 0 0 .173-.172v-.34h.394a.24.24 0 1 0 0-.479zm-7.568.006a.24.24 0 1 0 0 .48h.317v.339c0 .095.077.172.173.172h.25a.172.172 0 0 0 .172-.172v-.34h.394a.24.24 0 1 0 0-.48zm11.21.012a.24.24 0 1 0 0 .48h.318v.339c0 .095.077.172.173.172h.25a.172.172 0 0 0 .172-.172v-.34h.394a.24.24 0 1 0 0-.48zm15.1.006a.24.24 0 1 0 0 .48h.316v.34c0 .095.078.172.173.172h.25a.172.172 0 0 0 .173-.173v-.339h.394a.24.24 0 1 0 0-.48zm3.695.015a.24.24 0 1 0 0 .48h.317v.34c0 .095.078.172.173.172h.25a.172.172 0 0 0 .173-.173v-.339h.393a.24.24 0 1 0 0-.48zm-26.314.008a.24.24 0 0 0 .013.48h.317v.34c0 .095.077.171.173.171h.25a.172.172 0 0 0 .172-.172v-.34h.394a.24.24 0 1 0 0-.479h-1.319zm11.273 0a.24.24 0 0 0 .012.48h.317v.34c0 .095.078.171.173.171h.25a.172.172 0 0 0 .173-.172v-.34h.393a.24.24 0 1 0 0-.479h-1.318zm18.878.009a.24.24 0 1 0 0 .48h.317v.339c0 .095.077.172.172.172h.251a.172.172 0 0 0 .172-.172v-.34h.394a.24.24 0 1 0 0-.48zm3.745.008a.24.24 0 1 0 0 .48h.317v.34c0 .095.078.171.173.171h.25a.172.172 0 0 0 .173-.172v-.34h.393a.24.24 0 1 0 0-.479zm-18.994.221v.538h.188v.889c0 .188.15.34.338.34h4.572c.188 0 .34-.152.34-.34v-.871a.35.35 0 0 0 0-.018h.228v-.538zm-24.779.048-.976 1.544v.2c1.314-.017 12.952-.017 24.336-.012h1.443c-.003-.016-.018-.026-.018-.043v-1.076c0-.012.011-.019.012-.03h-2.35a.29.29 0 0 1 .002.03v.233a.321.321 0 0 1-.323.322h-.665a.321.321 0 0 1-.322-.322V11.7c0-.01 0-.021.002-.031h-2.448a.29.29 0 0 1 .002.03v.233a.321.321 0 0 1-.322.322h-.665a.321.321 0 0 1-.322-.322V11.7l.001-.031h-2.447a.29.29 0 0 1 .001.03v.233a.321.321 0 0 1-.322.322h-.665a.321.321 0 0 1-.322-.322V11.7l.001-.031H68.31a.29.29 0 0 1 .001.03v.233a.321.321 0 0 1-.322.322h-.665a.321.321 0 0 1-.322-.322V11.7l.003-.031h-2.447l.002.03v.233a.321.321 0 0 1-.322.322h-.665a.321.321 0 0 1-.322-.322V11.7l.001-.031h-2.22v-.583zm26.007.525a.38.38 0 0 1 .38.38.38.38 0 0 1-.38.38.38.38 0 0 1-.38-.38.38.38 0 0 1 .38-.38zm2.783 0a.38.38 0 0 1 .38.38.38.38 0 0 1-.38.38.38.38 0 0 1-.38-.38.38.38 0 0 1 .38-.38zm1.608.058c0 .011.013.018.013.03v1.076c0 .018-.017.029-.02.046l15.565.008c.002 1.93.002 3.862.002 5.792.369-.154.746-.286 1.129-.396l.64-1.198h.906l-.013-.409 2.7.005-.003.404h.568l.878 1.19a10.524 10.524 0 0 1 7.621 9.948h.927v-3.88h3.345l.358-.208V23.5l1.172-1.133h3.175l-.566-.652v-1.18h-1.978l-.35-.332v-.449h-4.64l-5.44-4.283h-4.216v.618l-.352.301-2.922.014-.398-.315v-.468h-1.473v-.525l-.13-.035a1.592 1.592 0 0 1-.103-.032c-.007-.002-.014-.006-.022-.01-.004-.001-.01-.002-.015-.005-.006-.003-.023-.017-.024-.018l-.023-.023-.014-.024-.01-.037.002-.05.021-.046.006-.005.006-.087c.003-.092.001-.22-.004-.349-.008-.257-.023-.518-.023-.518l-.004-.056.611-.658v-1.475h-2.249l.002.03v.233a.321.321 0 0 1-.322.322h-.665a.321.321 0 0 1-.322-.322V11.7c0-.01 0-.021.002-.031h-2.448a.29.29 0 0 1 .002.03v.233a.321.321 0 0 1-.323.322h-.665a.321.321 0 0 1-.322-.322V11.7c0-.01 0-.021.002-.031h-2.447l.002.03v.233a.321.321 0 0 1-.323.322h-.665a.321.321 0 0 1-.322-.322V11.7l.003-.031h-2.447l.003.03v.233a.321.321 0 0 1-.323.322h-.665a.321.321 0 0 1-.322-.322V11.7l.003-.031zm17.988.693-1.428 1.538c.003.047.016.234.024.468.004.132.005.263.002.366-.001.03-.004.053-.006.078l.107.027h1.413v-1.52l.328-.305 3.125.003.219.301v.302H114l5.26 4.465h4.33v-.004l.005.004h.014l.072.02.031.03.02.032.008.023c0 .008.002.012.003.017l.112.093v1.791l.19.181h9.668l.238-.238v-4.949h.236l.012-.047 3.399.932h15.008v-1.42l-16.148-.315-.068.324-.343.003-.22-.358-1.103.006-.187-.243h-8.794l-.001.61H132.692l.308.338v2.414l-.35.436h-6.916V17.5h6.79l.21-.266v-2.216l-.16-.176h-6.833l-.01 3.684-.493.384h-.676l-.34-.336-.011-2.77-.047-.001a18.3 18.3 0 0 0-.177-.002c-.149-.001-.353-.004-.594-.004-.482 0-1.109 0-1.73.002-1.245.002-2.468.006-2.468.006v-.24l-3.651-3.204zm10.435 0 3.249 2.85v-.041l.861-.002v-.45l-2.549-2.357zm-50.33.748c-2.248 0-4.261 0-5.637.002v.271a.413.413 0 0 1 .248.369.413.413 0 0 1-.827 0 .413.413 0 0 1 .264-.352v-.288h-1.562v.258a.413.413 0 1 1-.314 0v-.257c-.838.002-1.409.005-1.64.007v.727l.307.384h15.372l.83-1.12-7.041-.001zm37.2.11-10.458.015-.208.077-.81.6-.42 1.802-3.762 1.996h-3.819v4.38h7.463l4.42-3.116h.154l4.928-3.256 2.512.006zm2.946.227v2.479h3.406v-2.479zm-14.472.326-2.896 1.418-.477-.43H74.792l-.047-.064v1.212h12.673l1.258.85-.058.086 2.232-1.186zm18.198.11v1.323h2.332v-1.322zm2.597 0v1.323h1.518l5.44 4.284h.847v-1.141h-.726l-5.258-4.465zm9.371.137h1.04l.433.585h-1.473zm-52.206.475 3.756 8.127.297.316h5.771v-5.222h.002c0-.002-.003-.002-.003-.004 0 0 .002 0 .002-.002H72.67l-1.374-3.215zm55.22.018v3.93l.205.205h.483l.322-.22v-3.915zm32.032.006.063 20.987h1.464l.96-.96V33.19l-1.354-1.48V17.793l2.393-1.386v-1.323l-.692-.535zm-85.102.017 1.322 3.096h1.89v-3.096Zm81.473.02v1.414h1.433V14.91l-.087-.33zm-48.873.457-.048.012h.008l.014-.002.025-.01zm30.216.304v4.827l-.392.393h-7.64v1.081l.65.75h7.758l4.53-1.158h2.21l-1.128-3.184.407.003 1.168 3.181h.85l-1.127-3.184.407.003 1.168 3.181h.876l-1.128-3.184.407.003 1.168 3.181h1.888l-1.09-3.072 5.036-1.168v-.737h-12.672zm-119.878.392v1.367h8.417v-1.367Zm85.89.36-4.772 3.17h-.148l-4.42 3.115H83.34v.028l-.924.82h-3.025v2.54h17.427a10.524 10.524 0 0 1 6.237-7.112h-.239v-2.56zm-25.482.106v1.457h8.439v-.026h.154v.026h3.8l1.32-.702-1.12-.755zm75.754.058v.948l-4.954 1.148 1.868 5.262h.791l-.885-2.46.402-.403h3.494l.014.003c.097.02.214.035.322.112.108.077.177.225.168.41l.002-.008a461.352 461.352 0 0 0 .004 2.188v.158h.881V19h-1.49a.026.026 0 0 1-.025-.027v-1.41c0-.014.011-.025.025-.026h2.473c.014 0 .025.012.025.025v1.41c0 .015-.01.028-.025.028h-.72v16.608l1.436-.017V16.232h-1.433v1.297h-.266v-1.297zm4.405.01v2.345h1.383v-2.345zm-122.611.138h6.862c.309 0 .557.229.557.513 0 .284-.248.512-.556.512h-6.841c-.309 0-.557-.228-.557-.512 0-.278.237-.502.535-.513zm12.568 0h6.862c.309 0 .557.229.557.513 0 .284-.248.512-.557.512h-6.84c-.309 0-.557-.228-.557-.512 0-.278.236-.502.535-.513zm12.65 0h6.862c.31 0 .557.229.557.513 0 .284-.248.512-.556.512h-6.841c-.309 0-.557-.228-.557-.512 0-.278.237-.502.535-.513zm78.637.215h.013a.496.496 0 1 1-.013 0zm23.754.253-1.874 1.04.063 13.791.96 1.008c.35-4.75 1.102-6.248.85-15.84zm-54.014.034v3.56h2.155v-3.56zm-.958.276-.542 1.015 1.401-.003-.004-1.012zm3.295 0v1.007l1.458-.005-.741-1.002zm-93.62.229.024 3.18 1.345.608.046 5.184-1.681.709-.002 4.034h8.417v-6.107a.376.376 0 0 0-.22-.02.336.336 0 0 0-.211.172l-2.25 3.8-.02.012c-.5.341-.777.318-1.084.406l-.004.003h-.003c-.771.157-1.05.2-1.303.345-.166.132-.297.252-.467.33-.158.073-.36.085-.61.053-.006.003-.013.01-.019.012a.163.163 0 0 1-.062.007.48.48 0 0 1-.12-.023 1.065 1.065 0 0 1-.302-.152.994.994 0 0 1-.428-.844c.008-.385.168-.667.365-.85.198-.183.426-.27.6-.285.909-.074 1.521-.286 1.88-.496.18-.105.296-.21.354-.291a.267.267 0 0 0 .047-.092c.004-.018 0-.018 0-.017l-.045-.067.051-.062c1.562-1.863 2.04-2.886 2.383-3.436.171-.274.323-.446.562-.511.22-.06.49-.034.906.03v-5.632zm87.11.117h.02a.52.52 0 1 1-.02 0zm49.428.086v1.357h2.418V17.59zm-71.754.12.002.001c0 .002-.003.002-.003.004h.003v1.476l.423.178.012 2.24-.434.187-.001 1.141h2.924l.76-.675v-4.524l.109.108v-.137zm26.38.47a10.154 10.154 0 0 0-8.933 10.08 10.154 10.154 0 0 0 .708 3.708c.246-.162.56-.385.816-.569a9.251 9.251 0 0 1-.62-3.315 9.251 9.251 0 0 1 8.028-9.17zm2.527.038-.003.806c4.614.594 7.95 4.408 7.95 9.06a9.251 9.251 0 0 1-.608 3.293l.45.465.41-.008c.43-1.143.65-2.354.65-3.574 0-5.151-3.733-9.442-8.85-10.042zm11.99.13v1.14h3.268l-.028-.562-.027-.482-.008-.096zm-90.461.09c-.268-.003-.684-.01-.8.307l.006 6.97 3.804.003-.085-1.014c.14-.011-.126-.061-.156-.069-.09-.034-.151-.095-.224-.145-.088-.673-.02-1.5-.026-2.14h2.762v2.215l-.34.171c-.007.06-.034.272-.078.545l-.008.041v.004c0 .136-.002.272-.009.394l5.985.006-.218-1.118-.404-.288v-1.822l.025-.033c.04-.058.081-.085.098-.102l.037-.039h2.718v1.93l-.333.36-.25 1.114 6.092.006-.22-1.126-.402-.288v-1.822l.024-.033c.04-.058.08-.085.097-.102l.04-.039h2.716v1.93l-.334.36-.25 1.122 6.16.006-.22-1.134-.403-.288v-1.822l.024-.033c.04-.058.08-.085.097-.102l.04-.039h2.716v1.93l-.334.36-.252 1.13 6.09.006-.222-1.142-.405-.288v-1.822l.024-.033c.04-.058.083-.085.1-.102l.036-.039h2.72v1.93l-.335.36-.254 1.137 5.382.006-3.248-6.766-.738-.554zm-18.12.048-.726.643v2.97c0 .094.737.643.737.643h.165v-4.256zm.44 0v4.256h3.681V21.43l-1.514-.874v-2.059l-.003-.011zm61.364.077h.02a.52.52 0 1 1-.02 0zm81.402.437v1.737h1.37V19zm-46.738 1.112v.33a.096.096 0 0 1-.097.095h-2.212a.096.096 0 0 1-.096-.096v-.323a8.34 8.34 0 0 0-1.308.303l.59 1.202a6.986 6.986 0 0 1 1.94-.273c.75 0 1.473.119 2.15.338l.526-1.219a8.327 8.327 0 0 0-1.493-.357zm-3.966.395a8.306 8.306 0 0 0-5.455 8.867l1.317-.13a6.984 6.984 0 0 1 4.725-7.541zm5.707.051-.521 1.216a6.984 6.984 0 0 1 4.52 7.459l1.31.184a8.307 8.307 0 0 0-5.31-8.859zm-84.473.006h.013a.5.5 0 1 1-.013 0zm91.598.098h1.006a.35.35 0 0 1 .352.352v1.678a.35.35 0 0 1-.352.351h-.997a.35.35 0 0 1-.352-.351v-1.678a.35.35 0 0 1 .343-.352zm.088.222a.285.285 0 0 0-.272.286v1.365c0 .159.128.286.287.286h.81a.285.285 0 0 0 .287-.286V21.17a.285.285 0 0 0-.287-.286H117.127zm30.704.108-.206.206.86 2.392h2.975l.001-.16c0-.252 0-.579-.002-.902l-.004-1.282v-.008c.006-.127-.017-.152-.056-.18a.671.671 0 0 0-.211-.066zm-8.676.48-4.531 1.159h-7.67v1.646h7.357l1.012-.37-.154-.317h11.914l-.762-2.117Zm-32.58.2c-.045.004-.08.12-.08.264 0 .147.036.265.082.265h.762c.045 0 .082-.118.082-.265 0-.146-.037-.264-.082-.264h-.764zm-1.884.29a.026.026 0 0 0-.013.003l-.663.376c-.04.022-.013.143.06.27.071.128.162.212.201.19l.663-.376c.04-.022.014-.143-.059-.27-.065-.116-.146-.196-.19-.194zm4.388.112c-.044.002-.116.09-.17.21-.06.135-.074.257-.033.276l.696.31c.042.018.123-.075.183-.208.06-.134.074-.257.032-.275l-.696-.31a.028.028 0 0 0-.012-.003zm-86.135.32v3.092h3.681v-3.092zm84.047.09a5.847 5.847 0 1 0 4.098 10.016c.064-.063-.138-.334-.077-.4a5.865 5.865 0 0 0 1.218-1.976c.035-.096.324.012.354-.086.164-.54.253-1.113.253-1.707 0-.52-.068-1.023-.195-1.503-.022-.084-.353-.011-.379-.094-.352-1.122-1.042-2.024-1.94-2.741-.098-.08.114-.387.01-.46a5.82 5.82 0 0 0-3.342-1.048zm-66.69.106-.002.002v1.592l.282.199h1.85l.216-.233v-1.56zm7.766 0-.004.004v1.59l.281.199h1.85l.217-.233v-1.56zm7.828 0-.002.002v1.592l.281.199h1.85l.217-.233v-1.56zm7.756 0-.002.002v1.592l.281.199h1.85l.216-.233v-1.56zm-31.041.026c.004.518.007.924.008 1.443-.047.184.031.233.094.338.64.007 1.295.003 1.941.003l.035.006.154-.006v-1.785zm90.805.015-1.012.982v.616l-.084.048h4.37v-1.646zm-16.436.372.44 1a4.35 4.35 0 0 1 3.537 6.11c.172.268.486.752.516.77l-.977.02a4.35 4.35 0 0 1-3.504 1.778 4.35 4.35 0 0 1-3.526-1.807l-1.204.009.631-1.098a4.35 4.35 0 0 1 3.642-5.776c.163-.34.445-1.006.445-1.006zm49.193.02c-1.84.546-.623 1.741.046 2.783-.025-.927-.158-1.837-.046-2.783zm-134.084.149a.73.73 0 0 0-.183.02c-.173.047-.279.158-.442.42-.323.518-.837 1.585-2.374 3.427.004.029.02.056.015.084a.455.455 0 0 1-.082.176 1.36 1.36 0 0 1-.42.35c-.396.232-.688.58-1.621.655-.554.043-.841.387-.846.78-.026.862.97.852 1.442.451.552-.233.934-.353 1.359-.439.34-.098.53-.001.983-.305l2.22-3.752a.554.554 0 0 1 .344-.27c.086-.02.179.015.27.042v-.882l-.014-.69a4.676 4.676 0 0 0-.651-.067zm80.197.375c-.014 0-.024.003-.03.011l-.49.583c-.03.035.036.14.149.234.112.094.226.142.255.107l.49-.583c.03-.035-.037-.14-.15-.233-.087-.074-.175-.12-.224-.12zm9.184.107a.472.472 0 0 0-.219.118c-.112.094-.18.198-.15.233l.49.584c.03.035.143-.013.255-.107.113-.095.18-.199.15-.234l-.49-.583c-.006-.009-.02-.012-.036-.011zm-39.195.416h.023a.463.463 0 1 1-.023 0zm19.177.034h.004l4.245.009c.083 0 .298.14.3.314v.556h-4.844v-.556c.001-.172.21-.318.295-.323zm-10.08.009H90.176c.16 0 .288.14.292.314v.556H81.085v-.556c.003-.172.129-.31.285-.314zm71.235.012-17.048.023.971 2.434c3.58-.677 4.133-.327 6.95-.518.731-.003.939.203 1.167.4l.023-.11.738.154.03.052c.777 1.42 1.323 2.722 1.853 4.012l.002.004.002.006c.288.861.131 1.545.123 2.24v.041l-.022.031c-.135.2-.229.388-.553.721l-.006.006-.004.004c-.859.716-2.018 1.258-3.086 1.838l-.006.004-.006.002-6.304 2.615-.01.004-5.86 3.046-.196 1.96.606.425.583.189 6.132-2.748 2.653-2.275 7.55-3.03 3.717-.044zm-17.313.075-.935.341h-7.404v.346l-1.613 2.363v.914h4.47l2.568-.627.012.046c.056-.04.099-.075.165-.123a84.85 84.85 0 0 1 3.71-.827zm-28.302.226a3.905 3.905 0 0 0-3.906 3.905 3.905 3.905 0 0 0 3.906 3.906 3.905 3.905 0 0 0 3.905-3.906 3.905 3.905 0 0 0-3.905-3.905zm15.114.115v.727l1.038.008.272.311.023.99-.257.34-1.076.011v1.236h2.971v-.996l1.614-2.361v-.266zm32.847.023-.008 4.586.274.181c-.073-.33.659-3.315.78-3.283zm1.046 1.484.01.015c-.003-.009-.006-.013-.01-.015zm-115.28-1.4.206 1.078 1.134.001.241-1.079zm7.763 0 .21 1.086 1.129.002.243-1.087zm7.83 0 .212 1.094 1.125.001.245-1.095zm7.756 0 .211 1.1h1.125l.246-1.1zm-31.078.016.197 1.018.002.008.002.029h1.138c.043-.137.065-.297.088-.424 0-.314.107-.534.103-.627zm103.965.02H136.972a.468.468 0 1 1-.017 0zm-7.81.014h.039a2.034 2.034 0 0 1 2.029 2.159l-1.175-.011v.006a.813.813 0 0 1-1.57.293l-.977.713a2.034 2.034 0 0 1 1.653-3.16zm18.28.017h3.793l.457.399V26.666l-.158-.029c-1.122-.213-1.703.319-1.867.945-.164.625.108 1.334.812 1.53h1.329v2.93h-2.487l-.97-1.22-1.287-5.79zm.096.264-.181.152 1.238 5.574.853 1.073h2.096v-2.403h-1.114l-.017-.004c-.853-.232-1.197-1.108-1.002-1.855.186-.707.905-1.253 2.016-1.117v-1.164l-.291-.256zm-18.295.039a1.746 1.746 0 0 0-1.573 2.49l.464-.357a.673.673 0 0 1-.09-.391c0-.666.534-1.2 1.199-1.2.501 0 .928.303 1.108.737l.493-.222a1.747 1.747 0 0 0-1.601-1.057zm-10.565.402v1.321h1.14l-.28-.349.006-.668.263-.304zm1.263 0v1.321h.737V25.42zm1.38 0v1.321h1.812V25.42zm-105.407.117-1.555.631v.754l1.555-.631zm7.048.226v5.01h3.681v-5.01Zm77.895.112c-.04.001-.068.01-.074.03l-.252.719c-.015.043.085.116.223.165.138.048.262.053.277.01l.251-.72c.015-.043-.084-.116-.222-.165a.615.615 0 0 0-.203-.039zm12.218.005a.596.596 0 0 0-.208.056c-.134.059-.227.14-.208.182l.307.697c.018.041.14.027.275-.032.134-.06.228-.14.21-.182l-.309-.697c-.007-.017-.032-.025-.067-.024zm-6.066.043a2.409 2.409 0 0 1 2.408 2.408 2.409 2.409 0 0 1-2.408 2.41 2.409 2.409 0 0 1-2.409-2.41 2.409 2.409 0 0 1 2.409-2.408zm-78.344.058v1.368h3.649v-1.368h-1.148l-.318.775-.746-.002-.369-.773zm6.979 0v1.368h3.648v-1.368h-1.147l-.319.775-.746-.002-.368-.773zm7.011 0v1.368h3.648v-1.368h-1.147l-.318.775-.746-.002-.369-.773zm6.945 0v1.368h3.649v-1.368h-1.147l-.319.775-.746-.002-.368-.773zm6.993 0v1.368h3.649v-1.368h-1.148l-.318.775-.747-.002-.368-.773zm7.086 0v1.368h3.648v-1.368h-1.147l-.318.775-.746-.002-.369-.773zm7.824.023.015 1.079 1.12.31v.101l-.006 1.102v.756c0 .102 0 .187.002.246a2.155 2.155 0 0 0 .002.074l-.002-.014-.004-.011-.012-.024-.053-.049-.038.002.11.114-.042.1-.024.017-.123.004.053.013.022-.002.013-.002-.004.002-.033.01-.127.04-.394.124-.417.133.018 1.299h3.037v-5.424zm3.377 0v5.424l.382-.737 4.855.025.152.618.212.094v-5.424l-.207.042-.16.379-4.91-.012zm5.945 0V27.5h1.885v.518h-1.885v1.421h1.885v.52h-1.885v1.469h.92l2.129-1.01v-3.291l-2.094-1.088.018-.035zm1.46 0 1.855.961v3.621l-2.336 1.108h-2.272v3.26h2.642l.378-.268.14-.049h-.04V32.557l2.398-2.004h3.877a2.233 2.233 0 1 1 3.537 1.506l1.168.078-.034.508 5.866 8.486h1.492l1.601 1.98 13.813.008 2.2-1.984v-.655h-.027v-2.787l-.928-.724v-1.48l2.267-5.007 2.298-1.133h.993v.755l.936.937v2.354l-.275.41.206.357h2.832l.015-.018-.827-1.124.003-.003-.757-.437v-2.963h-2.115l-.002-.263h.002l2.38-.018v.018h1.364v2.885l-.607.7.732.994.002-.002.134.188.043.06 1.854 2.601.377.079 2.173 3.039v.582l-.033.34 5.717-2.97.004-.004.006-.002 6.301-2.613h.002c1.075-.584 2.219-1.126 3.037-1.807.284-.294.362-.445.493-.643.013-.713.15-1.334-.108-2.11-.521-1.272-1.063-2.548-1.816-3.93l-.365-.077 1.711 4.106c.434 1.315-.431 2.262-1.367 2.858l-6.284 2.629c-1.007.286-1.679-.147-2.43-.413l-4.3-6.549c-.275-.858-.271-1.182-.106-1.415l-2.244.548h-12.339a10.668 10.668 0 0 1-2.19 6.39l-2.948.033c-4.33 3.372-8.146 2.042-11.692-.496h-2.303a10.524 10.524 0 0 1-1.904-6.024c0-.783.09-1.563.263-2.327h-2.041v.473l-2.506.933h-2.274l-1.29-1.113v-.293zm6.616 0v.172l1.125.968h2.125l2.29-.85v-.29zm62.093 1.088H150.997a.824.824 0 1 1-.02 0zm-79.472.265.035 2.496.34-.109.395-.125.076-.023-.002-.242v-.758c.002-.502.007-.917.008-1.004zm-42.857.086v5.332h3.649v-5.332h-1.07v3.438a.1.1 0 0 1-.1.1h-1.309a.1.1 0 0 1-.102-.1v-3.438zm6.979 0v5.332h3.648v-5.332h-1.069v3.438a.1.1 0 0 1-.101.1h-1.308a.1.1 0 0 1-.102-.1v-3.438zm7.011 0v5.332h3.648v-5.332h-1.068v3.438a.1.1 0 0 1-.102.1h-1.308a.1.1 0 0 1-.102-.1v-3.438zm6.945 0v5.332h3.649v-5.332h-1.069v3.438a.1.1 0 0 1-.101.1h-1.309a.1.1 0 0 1-.101-.1v-3.438zm6.993 0v5.332h3.649v-5.332h-1.07v3.438a.1.1 0 0 1-.1.1h-1.309a.1.1 0 0 1-.102-.1v-3.438zm7.086 0v5.332h3.648v-5.332h-1.068v3.438a.1.1 0 0 1-.102.1h-1.308a.1.1 0 0 1-.102-.1v-3.438zm-33.743.088v3.248h1.108v-3.248zm6.979 0v3.248h1.107v-3.248zm7.011 0v3.248h1.108v-3.248zm6.946 0v3.248h1.107v-3.248zm6.992 0v3.248h1.108v-3.248zm7.086 0v3.248h1.108v-3.248zm35.537.789c-.146.002-.264.04-.263.085l.01.762c0 .045.119.08.266.079.146-.002.264-.04.263-.086l-.01-.762c0-.045-.12-.08-.266-.078zm12.817.148c-.121.004-.212.034-.213.074l-.026.761c-.002.046.115.086.262.09.146.006.265-.027.267-.072l.025-.762c.002-.045-.115-.086-.261-.09h-.054zm-22.994.197c-.014 0-.318.591-.21.59l2.222-.008c.006-.084-.099-.426-.255-.582zm-.356.663c-.225 0-.393.199-.445.568.05-.008.082.06.138.06h2.975c.01 0 .16-.105.17-.104-.055-.363-.256-.524-.479-.524zm23.939.168a6.974 6.974 0 0 1-2.399 4.184l.891.98a8.354 8.354 0 0 0 1.102-1.134c.041-.05-.398-.45-.358-.501.53-.693.87-1.405 1.162-2.245.041-.118.642.043.678-.077.1-.333.177-.675.234-1.024zm-13.765.02-1.32.13c.065.403.157.797.277 1.178.027.087.448-.096.478-.01.28.796.677 1.397 1.172 2.062.035.046-.322.502-.286.548.317.407.671.784 1.057 1.126l.909-.963a6.972 6.972 0 0 1-2.287-4.07zm25.443.101v2.81l.567.329.533-.617v-2.522zm6.258.618 2.522 3.851.789 3.084-2.58 1.893-.033.004c-.087.012-.189.037-.307.03a.57.57 0 0 1-.367-.165l-.006-.008-2.41-3.234-.626-.281-.01-1.577.549.041c.583-.327.841-.75.96-1.248.12-.506.094-1.086.114-1.664l.002-.082 1.299-.596zm-42.182.152c-.057 0-.12.124-.17.116.05.377.249.528.477.528h2.359c.206 0 .335-.162.44-.528-.01 0-.116-.116-.128-.116zm42.084.184-1.049.482c-.015.538.008 1.102-.117 1.633a2.122 2.122 0 0 1-1.103 1.44l-.033.017-.362-.026.008 1.121.532.239 2.435 3.267c.07.068.124.084.192.088.062.003.141-.01.228-.023l2.377-1.746-.735-2.87zm-30.473.212a.522.522 0 0 0-.22.09c-.123.078-.203.172-.179.21l.41.644c.024.038.143.005.267-.073.123-.079.203-.173.179-.212l-.41-.643c-.007-.012-.024-.017-.047-.016zm-16.113.034-2.23 1.865v1.876l.172-.061h4.991l.646.583.036.056 1.762-1.122a.343.343 0 0 1 .472.104l1.69 2.652c.1.158.053.372-.105.472l-1.775 1.131.596.944 1.386-.863a.206.206 0 1 1 .219.35l-1.384.863.717 1.134 1.432-.892a.206.206 0 1 1 .219.35l-1.43.892.79 1.253 1.298-.808a.206.206 0 1 1 .218.35l-1.295.807.633 1.002.252.137 1.217-.758a.206.206 0 1 1 .219.35l-1.018.635 1.676.911h20.26l2.758-2.538-.016-1.445-.236-.11-.013-.517h-.382l-.006.832-2.442 2.133-14.039-.008-1.602-1.98h-1.506l-5.901-8.54-3.433-.228.03-.436a2.238 2.238 0 0 1-1.043-1.376zm27.264.083c-.016 0-.028.005-.035.015l-.422.634c-.026.038.052.134.174.215.122.082.24.117.266.079l.423-.635c.025-.038-.053-.133-.175-.215a.472.472 0 0 0-.23-.093zm-89.447.2v1.703h3.681V31.1zm69.337.046-2.222.009c-.007.084.098.426.254.583h1.757c.015 0 .319-.592.211-.592zm22.272.056c-.05.003-.17.126-.286.295l-.691 1.012c-.128.187-.2.357-.162.382l1.727 1.142c.038.025.172-.105.3-.292l.69-1.012c.128-.187.2-.357.163-.382l-1.728-1.142a.023.023 0 0 0-.013-.003zm-15.248.014a.02.02 0 0 0-.012.004l-1.729 1.141c-.037.025.035.196.163.383l.692 1.012c.127.187.26.317.298.292l1.728-1.142c.038-.025-.034-.195-.162-.382l-.692-1.012c-.116-.17-.236-.293-.286-.296Zm-27.74.477.011.805 3.102 2.456h4.387v-3.26zm12.66 1.105h.011a.421.421 0 1 1-.01 0zm18.62.2c-.046 0-.13.066-.205.164-.09.116-.133.232-.098.26l.603.466c.035.028.137-.043.226-.158.09-.116.133-.232.097-.26l-.602-.467a.033.033 0 0 0-.02-.006zm7.855.153a.031.031 0 0 0-.017.006l-.617.447c-.037.027.003.144.088.262.086.12.185.193.222.166l.618-.447c.036-.026-.003-.143-.09-.262-.074-.104-.16-.174-.204-.172zm-8.1.607-.91.965a8.27 8.27 0 0 0 5.301 1.912 8.268 8.268 0 0 0 5.172-1.807l-.893-.981a6.95 6.95 0 0 1-4.28 1.465 6.951 6.951 0 0 1-4.39-1.554zm-11.922.367a.182.182 0 0 0-.085.029l-1.763 1.123 1.867 2.956 1.774-1.13a.174.174 0 0 0 .054-.243l-1.69-2.652a.174.174 0 0 0-.142-.083h-.015zm14.535.105c-.044.002-.104.102-.14.235-.04.141-.035.265.009.277l.735.2c.044.012.11-.092.148-.233.039-.142.035-.265-.009-.277l-.735-.2a.023.023 0 0 0-.008-.002zm3.231.108h-.004l-.748.143c-.045.008-.059.131-.031.275.027.144.085.253.13.245l.748-.143c.045-.008.059-.131.031-.275-.026-.14-.081-.246-.125-.245zm39.16.305.111.24-9.285 4.28-.11-.241zm-43.11 3.698h12.452l.48.48.032 1.686-1.62 1.62h-12.634l-.628-.81v-.777zm-4.603.777h.022a.562.562 0 1 1-.022 0zm36.488.33h.014a.513.513 0 1 1-.014 0zm-36.132 2.63h.021a.57.57 0 1 1-.021 0z" style="color:#000;fill:#000;fill-opacity:1;stroke-width:.0264583;stroke-dasharray:none" transform="translate(-5.952 -4.607)"/></g></svg>