<svg xmlns="http://www.w3.org/2000/svg" width="361.254" height="128" viewBox="0 0 95.582 33.867"><path d="M58.405 30.531c0-.088.486-.314 1.08-.501.595-.188 1.082-.43 1.082-.54 0-.759-1.184-1.493-2.054-1.275a1.28 1.28 0 0 0-.72.563c-.225.426-.22.43.157.096.451-.4 1.017-.438 1.728-.114.593.27.557.563-.108.885-1.159.562-1.459.526-1.86-.219l-.377-.7.505-.505c.648-.648 1.64-.884 3.671-.874l1.63.009.284-.678c.398-.954.566-.99 1.358-.294.534.469.7.766.7 1.257 0 .354-.127.749-.28.877-.19.157-.246.452-.172.907.194 1.196 0 1.267-3.503 1.267-1.717 0-3.121-.073-3.121-.161zm6.212-.708c.06-.154.004-.473-.122-.71-.269-.502-.647-.465-2.459.238l-1.174.456 1.179.115c2.123.205 2.465.192 2.576-.1zm-.561-2.325a.387.387 0 0 0-.344-.246.387.387 0 0 0-.344.246c-.049.146.09.245.344.245.253 0 .392-.1.344-.245zm-7.002-.987c-.89-1.613-.925-1.716-.565-1.714.361.001 1.731 2.61 1.536 2.925-.11.179-.41-.195-.971-1.21zm.661-.344c-.621-1.3-1.131-1.877-1.472-1.667-.25.155-.983-.43-.983-.785 0-.309 4.405-4.66 4.484-4.43.034.1-.386.75-.934 1.447-.547.696-.995 1.33-.995 1.407 0 .077.488.968 1.083 1.98.596 1.012 1.165 2.056 1.265 2.32.17.447.126.492-.678.695-.474.119-.938.216-1.033.216-.094 0-.426-.532-.737-1.183zm2.736.151c-.178-.35-.765-1.365-1.306-2.254-.716-1.177-.95-1.737-.862-2.063.132-.494 1.797-2.473 1.948-2.316.052.054.8 1.513 1.661 3.243 1.882 3.778 1.876 4.02-.092 4.026-.962.003-1.047-.037-1.35-.636zm12.548-2.842c-.136-.05-.246-.364-.246-.7 0-.334-.17-.791-.377-1.015-.499-.537-3.161-5.044-3.161-5.35 0-.133.088-.295.197-.362.108-.067.199-.802.202-1.633.009-2.027.113-2.137 2.112-2.228 1.694-.077 2.017.047 1.027.392-.51.177-.59.303-.59.919 0 .53.151.864.59 1.303.324.324.59.611.59.638 0 .027-.244.015-.541-.027-.297-.042-.71.049-.918.203-.369.274-.367.295.08 1.017.43.696.437.767.14 1.27-.31.525-.296.564.784 2.19.605.91 1.125 1.686 1.155 1.722.12.145 1.88-1.02 2.249-1.488.361-.46.392-.467.392-.1 0 .252-.53.86-1.425 1.639-1.924 1.672-1.98 1.712-2.26 1.61zm-22.43-3.25c-.86-1.649-1.879-3.506-2.261-4.128-.683-1.108-.714-1.13-1.59-1.13-.49 0-.892-.089-.892-.197 0-.108-.221-.196-.492-.196-.27 0-.49.088-.49.196 0 .111-.558.197-1.278.197-.721 0-1.278-.086-1.278-.197 0-.255-.726-.255-.884 0-.174.281-2.33.245-2.62-.044-.19-.19-.322-.19-.626 0-.212.133-.64.24-.951.24-.445 0-.68.173-1.095.8-.291.44-.618.769-.726.733-.108-.036-.408-.585-.666-1.219-.258-.634-.707-1.402-.999-1.707l-.53-.553 8.254-.012 8.254-.011 1.781 3.294c.98 1.812 1.97 3.661 2.2 4.109.716 1.393 1.142 1.304 3.295-.687 1.708-1.58 2.413-2.065 2.413-1.662 0 .31-4.428 4.581-4.749 4.581a.499.499 0 0 0-.433.295c-.08.208-.403.295-1.092.295h-.979zm22.616-.283c-.895-1.354-.974-1.557-.719-1.84.383-.422.362-.707-.109-1.468-.355-.575-.363-.653-.076-.763.217-.083.286-.037.217.143a.68.68 0 0 0 .062.53c.134.218.218.22.47.01.17-.141.26-.334.2-.43-.059-.096.064-.174.272-.174.417 0 1.656 1.253 2.498 2.526.469.708.508.88.311 1.353-.18.432-1.082 1.144-2.004 1.58-.064.031-.57-.63-1.122-1.467zm1.533.725c0-.407-.474-.543-.688-.197-.164.266.058.59.405.59.156 0 .283-.177.283-.393zm-20.2.26c-.34-.135-1.072-1.6-.922-1.843.228-.37-.31-1.562-.705-1.562-.443 0-1.056-1.07-.879-1.532.16-.416-.49-1.613-.875-1.613-.165 0-.508-.391-.761-.87-.43-.81-.441-.908-.163-1.425a6.66 6.66 0 0 0 .407-.899c.084-.27.33-.344 1.155-.344h1.048l.772 1.622c.93 1.95.847 1.817 1.023 1.641.08-.079-.253-.892-.737-1.807L53 10.634l-1.362.054c-1.31.052-1.369.076-1.51.607-.308 1.158-.05 1.118-7.154 1.118h-6.537l-.322-.492-.322-.491H14.582l-2.428 1.278c-2.16 1.136-2.55 1.277-3.541 1.277-1.518 0-1.471-.319.306-2.108l1.42-1.43h2.668c1.58 0 2.752-.083 2.872-.204.141-.14.37-.14.74 0 .352.134 5.276.204 14.315.204h13.78l1.293-1.239c1.268-1.215 1.31-1.237 2.227-1.16.858.074.933.122.936.601.001.286.056.72.121.963.117.438.155.442 3.633.442 2.343 0 3.515-.07 3.515-.208 0-.114.089-.153.197-.087.12.075.197-.229.197-.78 0-.679.085-.935.343-1.034.19-.072.565-.334.834-.583.443-.41.673-.452 2.457-.448 1.65.003 2.046.066 2.458.389.352.275.804.385 1.588.388.918.004 1.17-.075 1.557-.487l.462-.491h10.107l1.18 1.261 1.18 1.262 3.77.023c4.072.026 4.639-.07 5.983-1.021.522-.37 1.012-.542 1.536-.542h.77l-.036 1.425c-.045 1.73.192 9.86.309 10.613.078.498.033.54-.57.54h-.653l-.414-2.407a96.38 96.38 0 0 1-.655-4.516c-.222-1.961-.214-2.136.121-2.506.198-.219.568-.398.821-.398.254 0 .461-.088.461-.196 0-.355-.85-.206-1.314.23l-.455.428v-.427c0-.236-.088-.428-.196-.428-.3 0-.24.973.292 4.72.6 4.226.603 4.321.108 4.321a.707.707 0 0 1-.567-.344c-.36-.682-1.001-3.373-1.229-5.149-.128-.997-.33-1.844-.45-1.881-.12-.038-2.769-.13-5.886-.203l-5.669-.134.746-.763c.68-.697.836-.763 1.786-.763.795 0 1.041-.07 1.041-.295 0-.225-.246-.295-1.041-.295-.573 0-1.142.1-1.265.223-.167.167-.42.067-1.001-.393-.709-.561-.905-.616-2.188-.616-1.317 0-1.529.064-3.232.983-1.003.54-1.88.982-1.947.982-.068 0-.547-.396-1.064-.88l-.939-.882-2.085-.003-2.085-.004-.937.825c-.819.72-.89.842-.568.969.203.08 1.96.154 3.906.166 3.383.02 3.512.036 2.948.34-.335.182-.483.356-.342.403.135.045 1.262-.456 2.504-1.113 2.244-1.189 2.268-1.197 3.88-1.19 1.314.005 1.711.08 2.083.389l.458.382-.728.889-.728.889h-2.214c-2.197 0-2.217.004-2.576.54-.25.373-.385 1.009-.436 2.054l-.074 1.513-1.318.796c-.725.438-1.49.797-1.7.798-.21.001-1.3-.193-2.422-.431l-2.04-.434-.769.443c-1.057.608-1.5.434-1.576-.621-.058-.795-.083-.823-.67-.765-.545.055-.681-.047-1.254-.94-.614-.958-.627-1.017-.3-1.378.333-.369.374-.351 1.744.734.771.612 1.518 1.271 1.66 1.465.162.224.509.353.947.353.38 0 1.576.225 2.659.5 1.083.274 2.13.448 2.325.385.196-.062.719-.375 1.162-.697.803-.581.806-.589.806-1.874 0-1.111-.046-1.282-.335-1.226-.212.04-.395.35-.497.84-.149.719-.628 1.482-.93 1.482-.072 0-.092-.53-.045-1.179l.086-1.18-2.432-.005c-2.36-.005-2.453-.021-3.164-.56l-.732-.555 1.912-.126a138.84 138.84 0 0 1 2.993-.168c.594-.023-.511-.09-2.457-.149-3.806-.115-5.643.054-6.329.583-.394.304-.406.37-.14.75.26.37.259.47-.01.88-.287.437-.263.52.44 1.528.603.865.862 1.077 1.376 1.127.59.058.633.113.633.797 0 .579-.142.874-.67 1.385l-.67.65-.92-1.594c-.505-.877-1.042-1.594-1.192-1.594-.15 0-.459-.362-.685-.805-.226-.443-.455-.761-.509-.707-.179.179.74 1.752 1.076 1.84.18.047.68.743 1.11 1.546l.782 1.46-.971.986c-.535.543-1.02.98-1.078.971a2.286 2.286 0 0 1-.356-.116zm-5.194-9.34c.374-.374.287-1.296-.144-1.527-.792-.424-1.585.003-1.585.852 0 .58.356.91.983.91.28 0 .617-.106.746-.236zm24.297-.67c.171-.066.311-.203.311-.304 0-.286-2.803-.115-2.9.177-.059.179.243.246 1.099.246.649 0 1.32-.054 1.49-.12zm-14.823-.897c0-.406.636-.95 1.111-.95.254 0 .461.068.461.15 0 .151-.644.626-1.179.868-.222.101-.196.137.109.148.222.008.704-.296 1.07-.674l.667-.688h-.786c-.64 0-.91.127-1.453.688-.5.516-.583.688-.333.688.183 0 .333-.104.333-.23zm10.154-.663c.469-.275.853-.584.853-.688 0-.103-.509-.181-1.13-.173-1.157.016-1.175.05-.148.278l.59.132-.492.265c-.446.241-.54.219-1.03-.247-.732-.697-.95-.39-.245.345.31.323.605.588.656.588.051 0 .477-.225.946-.5zm22.62 7.397c-.203-4.183-.185-9.06.033-9.06.864 0 .982.718.58 3.538-.114.811-.266 3.067-.337 5.012l-.128 3.538zm-65.705-1.37c-.05-.05-.089-.473-.089-.941v-.852h-6.662c-5.74 0-6.677-.04-6.774-.295-.1-.26 1.119-.295 10.25-.295 10.15 0 10.369.008 10.61.393.24.386.195.394-2.485.394-2.94 0-3.011.023-3.473 1.142-.143.348-.364.502-.746.518-.298.013-.582-.016-.631-.065zm60.206-1.433c-.403-.397-1.372-1.042-2.154-1.433l-1.422-.711 1.943.057 1.943.056.266 1.176c.147.646.242 1.265.212 1.376-.03.11-.385-.125-.788-.521zm-27.65-.947c-1.396-1.282-1.42-1.132.245-1.473.331-.067.803.16 1.68.813l1.22.907-.436.465c-.7.744-1.297.587-2.71-.712zm-44.536-.894c.476-.218 2.639-.272 11.231-.279 9.284-.008 10.656.029 10.755.286.1.26-1.224.293-11.231.279-9.784-.014-11.264-.053-10.755-.286zm47.338-2.45c.654-.574.724-.59 2.722-.59 2.02 0 2.058.009 2.615.59l.565.59h-6.574Zm-58.05.184c0-.099.354-.236.786-.305.723-.116.786-.175.786-.74 0-.516-.078-.618-.492-.641-.668-.039-1.08-.213-1.08-.457 0-.29 1.517-.251 1.654.043.092.196.138.196.23 0 .086-.185 1.09-.246 4.029-.246h3.914v2.564l-4.913-.02c-2.81-.01-4.914-.096-4.914-.198Zm10.22-1.068V7.499h2.26c1.244 0 2.255.066 2.248.147-.007.082-.604.655-1.327 1.274-1.196 1.026-1.397 1.127-2.247 1.13l-.934.004zm36.48.915c-.116-.187 1.307-.62 2.033-.62.796 0 .384-.37-.678-.608-.596-.133-1.04-.284-.99-.334.051-.051.704.065 1.451.26 1.297.336 1.437.336 3.073.011.942-.187 1.757-.296 1.811-.242.113.112-1.249.517-1.745.518-.47.002-.626.345-.211.464.19.054.021.052-.376-.005-.601-.085-2.591.238-3.93.64-.18.053-.377.016-.439-.084Zm-32.647-.817c.422-.433.794-.786.826-.786.032 0 .059.353.059.786v.786H16.46zm1.907.55c-.363-.362-.28-.905.173-1.149.327-.174.486-.15.786.122.458.414.468.555.068.954-.369.37-.707.394-1.027.073zm.845-.55c0-.16-.155-.32-.344-.356-.241-.046-.344.06-.344.356s.103.402.344.356c.189-.037.344-.197.344-.356zm1.586.477c-.17-.17-.309-.384-.309-.477 0-.218.568-.786.787-.786.218 0 .786.568.786.786 0 .218-.568.786-.786.786-.093 0-.308-.139-.478-.309zm.87-.477c0-.262-.13-.393-.392-.393s-.394.13-.394.393c0 .262.132.393.394.393s.393-.131.393-.393zm.978 0-.093-.885-2.515-.098-2.515-.098.885-.868c.487-.477.84-.942.784-1.032-.056-.09.705-.164 1.69-.164 1.145 0 1.749-.07 1.671-.196-.067-.11-.956-.197-1.99-.197-1.86 0-1.87-.003-2.396-.627-.808-.96-.706-1.184.553-1.218.84-.023 1.22.07 1.707.416.471.336.897.446 1.724.446 1.079 0 1.11.016 1.724.889l.626.888 8.854-.103c4.869-.057 14.937-.169 22.372-.25l13.52-.146-1.088-1.074c-.598-.591-1.088-1.144-1.088-1.229 0-.085.776-.154 1.725-.154h1.725l1.464 1.474 1.464 1.474H66.34l-.565.59c-.469.49-.72.59-1.48.59-.666 0-1.012-.108-1.271-.394-.319-.352-.606-.393-2.746-.393h-2.39l-.564.59-.565.59H46.696l-.968.982-.968.983h-5.475l-.852-.786c-.47-.433-.97-.786-1.113-.786-.142 0-.604.353-1.027.786-.422.432-.9.786-1.06.786-.194 0-.078-.223.334-.648.345-.357.628-.71.628-.786 0-.076-.62-.138-1.376-.138-.757 0-1.376.062-1.376.138 0 .076.283.43.629.786.412.425.527.648.334.648-.161 0-.639-.354-1.06-.786-.423-.433-.865-.786-.984-.786-.118 0-.56.353-.982.786-.445.455-.954.786-1.209.786-.386 0-.448-.115-.5-.934l-.06-.933-2.987-.054-2.987-.055-.066 1.037-.065 1.037zm16.883-.465c.54-.558.59-.682.318-.787-.442-.17-2.651-.158-2.651.014 0 .228 1.24 1.434 1.474 1.434.12 0 .506-.297.86-.661zm-1.345-.217-.444-.473 1.004.037c.552.02 1.005.053 1.006.073 0 .02-.252.215-.56.435l-.562.4zM22.978 7.155c.06-.184-.342-.246-1.594-.246-1.553 0-2.081.143-1.752.472.243.242 3.258.039 3.346-.226zm4.078.05c0-.21-2.722-.387-3.188-.208-.153.058-.22.199-.15.312.164.265 3.338.165 3.338-.105zm3.93 0c0-.21-2.721-.387-3.187-.208-.153.058-.22.199-.15.312.164.265 3.337.165 3.337-.105zm4.423 0c0-.238-.305-.296-1.561-.296-1.439 0-1.96.148-1.644.464.069.07.818.126 1.665.126 1.238 0 1.54-.058 1.54-.295zm11.006-.922c0-.088-.265-.16-.59-.16-.548 0-.589.05-.589.725v.725l.59-.565c.324-.311.59-.637.59-.725zm25.503-1.29c.107-.323-.509-.553-.773-.289-.113.113-.143.307-.067.43.174.281.73.188.84-.14zm-1.622-.835c0-.16-.155-.32-.344-.356-.241-.046-.344.06-.344.356s.103.402.344.355c.19-.036.344-.196.344-.355zM25.348 9.527c.142-.057.311-.05.377.015.065.066-.051.112-.258.104-.23-.01-.276-.056-.119-.12zm2.403-.151c-.52-.627.248-1.613.86-1.104.37.306.404.825.076 1.153-.315.315-.648.298-.936-.05zm.926-.452c.108-.323-.508-.553-.772-.289-.113.113-.143.307-.067.43.174.281.73.188.84-.14zm2.998.049.667-.689.65.629c.356.346.648.656.648.688 0 .033-.592.06-1.316.06h-1.316Zm5.012.098.566-.59.552.528c.304.291.552.557.552.59 0 .034-.503.062-1.118.062h-1.118Zm-2.337-.172c-.175-.193-.317-.41-.317-.482 0-.17.779-.146 1.252.04.34.134.33.17-.125.468-.462.303-.515.3-.81-.026zM78.49 7.833c-.561-.569-1.021-1.076-1.021-1.126 0-.051 2.66-.068 5.91-.038 5.373.05 5.904.085 5.847.38-.034.179-.46.607-.947.95l-.884.626-3.942.121-3.941.121zm-62.033-.7c-.058-.094-.311-.131-.564-.083-.602.115-1.077-.41-.739-.817.174-.21.49-.254 1.2-.17.596.07 1.067.029 1.233-.11.277-.229 1.9-.258 1.9-.033 0 .07-.291.409-.648.754-.517.502-.812.629-1.462.629-.448 0-.862-.077-.92-.17zm8.765-1.661c-.592-.63-.544-.725.365-.725.523 0 .83.1.905.295.125.326 1.054.412 1.054.098 0-.283 2.232-.244 2.52.045.19.19.323.19.627 0 .461-.288 2.553-.325 2.553-.045 0 .109.22.197.491.197.27 0 .492-.088.492-.197 0-.11.556-.196 1.277-.196.72 0 1.278.086 1.278.196 0 .109.22.197.491.197.27 0 .491-.096.491-.214 0-.14.465-.194 1.327-.156 1.056.047 1.446-.02 1.908-.326.561-.372 1.027-.386 13.794-.41l13.214-.024.54.565.542.565-12.96.007c-10.864.006-13.039.052-13.45.288-.405.23-1.963.282-8.762.288l-8.27.007Z" style="fill:#000;stroke-width:.196548;fill-opacity:1"/></svg>