<svg xmlns="http://www.w3.org/2000/svg" width="512" height="275.101"><g style="font-style:normal;font-weight:400;font-size:660.996px;line-height:1.25;font-family:sans-serif;fill:#000;fill-opacity:1;stroke:none;stroke-width:16.5249"><path d="M255.355 174.344q-54.222 88.757-123.291 88.757-53.254 0-86.82-34.212Q12 194.355 12 138.842q0-52.286 34.857-89.403Q81.714 12 132.064 12q76.17 0 124.582 88.111Q309.577 12 379.292 12q53.577 0 87.143 34.535Q500 80.746 500 136.26q0 51.963-34.857 89.402T379.292 263.1q-72.942 0-123.937-88.757zm20.979-36.793q42.28 83.915 102.958 83.915 35.18 0 56.159-23.238 21.301-23.561 21.301-61.968 0-36.149-21.947-60.032-21.947-23.884-55.513-23.884-55.836 0-102.958 85.207zm-40.99-.646q-42.603-84.561-103.28-84.561-35.503 0-56.805 24.206-20.978 24.207-20.978 62.292 0 35.502 21.624 59.063 21.947 23.561 56.159 23.561 56.804 0 103.28-84.56z" aria-label="∞" style="font-style:normal;font-variant:normal;font-weight:400;font-stretch:normal;font-family:&quot;Segoe UI&quot;;-inkscape-font-specification:&quot;Segoe UI&quot;;fill:#000;fill-opacity:1;stroke-width:16.5249"/></g></svg>