<svg xmlns="http://www.w3.org/2000/svg" width="512" height="128" viewBox="0 0 135.467 33.867"><path d="M103.2 28.738c-.236-.045-.27-.113-.238-.489.031-.38.09-.455.452-.578.229-.078.903-.145 1.499-.149 1.147-.007 1.023.039 2.171-.798.25-.183.315-.186.585-.034.167.094.324.232.349.307.024.074-.284.516-.685.98l-.73.846-1.565-.016c-.86-.009-1.688-.04-1.839-.069zm-1.438-.473-.404-.319.46-.386c.572-.48.451-.656-.2-.29l-.485.273.324-.49c.178-.269.363-.489.411-.489.146 0 .708.48.83.709.09.168.073.211-.08.199-.213-.018-.71.717-.575.852.046.045.186-.043.311-.198.239-.294.272-.252.153.192-.093.347-.251.336-.745-.053zm-1.083-1.014c0-.09.197-.35.437-.574l.437-.41-.305.53c-.31.543-.569.749-.569.454zm-.356-.606c0-.234.624-.884.682-.71.067.201-.173.602-.447.75-.182.097-.235.088-.235-.04zm7.63-.3c-.273-.252-.496-.537-.496-.634 0-.494 2.344-3.07 2.793-3.07.302 0 .2.414-.236.963-.303.383-.415.64-.416.961 0 .242.053.472.118.513.246.152.102.528-.427 1.116-.3.335-.613.608-.694.608-.08 0-.37-.206-.643-.457zm-8.302.156c-.058-.15.034-.303.324-.54.558-.454.359-.566-.31-.174-.303.177-.576.297-.608.265-.11-.11.697-.915.917-.915.355 0 .5.404.31.86-.09.214-.25.462-.358.55-.168.14-.207.133-.275-.046zm5.993-1.083c-.246-.303-.446-.643-.446-.755 0-.112.363-.627.807-1.143 1.294-1.504 1.595-2.021 1.255-2.152-.138-.053-.558.309-1.49 1.283-1.5 1.569-1.522 1.415-.045-.308.56-.654 1.018-1.256 1.018-1.338 0-.081-.11-.148-.245-.148-.156 0-.697.465-1.485 1.278-.682.703-1.24 1.225-1.24 1.16 0-.066.54-.76 1.2-1.54.996-1.18 1.164-1.434.988-1.496-.32-.113-.748.005-.819.224-.093.287-1.926 2.23-2.019 2.14-.044-.041.154-.363.438-.713l1.077-1.326c.308-.378.56-.763.56-.855 0-.476-.355-.251-1.503.952-.676.709-1.256 1.262-1.289 1.229-.033-.033.39-.604.941-1.269 1.203-1.452 1.429-1.952.79-1.75-.215.069-.868.745-2.128 2.203-.614.712-.542.308.088-.49 1.828-2.32 1.855-2.363 1.437-2.363-.143 0-.733.504-1.496 1.278-1.36 1.38-1.48 1.34-.267-.09 1.388-1.635 1.475-1.783 1.049-1.783-.146 0-.722.496-1.486 1.278-.687.703-1.249 1.222-1.249 1.152 0-.07.426-.632.946-1.249 1.097-1.3 1.29-1.608 1.115-1.784-.189-.188-.644.075-1.034.597-.382.513-1.74 1.886-1.74 1.76 0-.045.344-.506.766-1.025 1.144-1.404 1.482-2.03 1.106-2.042-.082-.002-.693.573-1.359 1.278-1.312 1.39-1.727 1.613-.713.383 1.315-1.594 1.67-2.25 1.218-2.25-.147 0-1.32 1.21-2.237 2.308l-.29.347-1.059-.605c-1.156-.66-1.951-1.003-3.14-1.354-.954-.282-2.811-.574-3.686-.581-.36-.003-.788-.081-.952-.175-.173-.099-.628-.172-1.092-.174-1.368-.008-1.636-.253-1.224-1.121.378-.797 1.464-1.037 2.21-.489.663.487 1.304.741 2.247.89 2.01.32 4.194.974 5.615 1.684.506.252 1.01.459 1.12.459.11 0 .602-.303 1.094-.674.492-.37 1.109-.795 1.37-.943.569-.323.585-.317 2.215.837.596.422 1.471.951 1.943 1.175.844.4 1.645.989 3.812 2.799.599.5 1.272 1.047 1.497 1.216l.408.309-.404.524c-.429.555-3.573 3.794-3.683 3.793-.035 0-.265-.248-.51-.551zm2.744-2.584a.439.439 0 0 0-.096-.355c-.174-.171-.496.215-.396.476.09.235.44.15.492-.12zm-12.707-6.312c.178-.215.064-.422-.234-.422-.123 0-.258.056-.3.124-.079.128.14.47.3.47.05 0 .155-.077.234-.172zm-3.459-.886c.213-.134.067-.368-.23-.368-.223 0-.313.235-.151.396.103.104.183.098.381-.028zm6.082 9.744c-.1-.185-.084-.309.067-.539.224-.341.07-.396-.346-.123-.25.164-.314.141-1.008-.374l-.74-.549.239-.406c.408-.692.296-.853-.234-.335-.556.543-.731.488-.374-.118.328-.556.319-.603-.06-.304-.3.235-.638.327-.638.174 0-.164.745-.998.891-.998.088 0 .329.215.537.477.341.431.365.513.247.85-.18.52-.168.533.162.177.535-.578.764-.25.282.402-.276.373-.225.607.078.355.153-.127.18-.108.18.125v.274l.334-.32c.578-.553.737-.444.737.507 0 .86-.135 1.135-.354.725zm.483-.035c.174-.336.594-.802.724-.802.217 0 .076.331-.294.69-.46.445-.623.488-.43.112zm5.46-.813-.417-.36.445.274c.244.151.445.315.446.364.003.13-.017.119-.475-.278zm-45.35-1.723a1.897 1.897 0 0 1-.073-.537c0-.192-.065-.453-.145-.582-.128-.204-.088-.293.321-.712.48-.492.376-.655-.179-.278l-.294.2.222-.255c.146-.166.197-.349.15-.527-.099-.371-2.44-3.304-2.637-3.304-.088 0-.353.114-.59.254l-.43.254-.384-.373c-.31-.3-.49-.375-.914-.382-.817-.014-1.45-.25-1.655-.614-.354-.631-.411-.625 6.155-.625 5.708 0 6.05.012 6.445.227.228.124.712.373 1.073.553.755.374 1.08.82.824 1.128-.087.105-.992.783-2.01 1.507-1.017.723-2.17 1.644-2.563 2.046-.84.862-1.576 1.46-2.329 1.894-.625.36-.885.393-.987.126zm2.189-2.195c.203-.378.035-.73-.328-.686-.451.055-.61.38-.335.684.281.31.498.31.663.003zm1.314-2.553c1.61-1.065 1.898-1.354 1.593-1.607-.413-.343-5.525-.423-5.525-.086 0 .27 2.054 2.705 2.282 2.705.066 0 .808-.455 1.65-1.012zm3.687-.96.288-.307-.28-.228c-.357-.29-.571-.289-.727.003-.149.279.031.84.27.84.088 0 .29-.138.449-.307zm-9.114-.712c.208-.208.224-.288.096-.476-.238-.347-.98-.226-.98.16 0 .471.537.663.884.316zm71.671 6.254c-.948-.687-.928-.562-.638-4.025.417-4.972.432-5.371.225-5.866-.179-.427-.199-.437-.996-.516a25.234 25.234 0 0 1-2.002-.322c-1.367-.277-2.016-.242-7.295.39-3.367.404-3.87.52-5.378 1.226-1.382.648-1.726.72-4.888 1.026-2.807.27-4.032.44-4.173.58-.17.168.047.47.7.974l.646.498 2.648-.152c1.457-.084 2.899-.115 3.204-.07.425.065.84.288 1.784.961.677.483 1.455.948 1.73 1.033l.5.156v2.586l-.685-.08a7.482 7.482 0 0 1-2.465-.753c-.543-.272-.682-.291-1.665-.226l-1.073.07-.95-.84c-1.488-1.315-2.263-1.877-3.522-2.552-1.2-.643-2.716-1.701-3.137-2.189l-.238-.276.238.11c.375.172 2.923.099 6.475-.186l3.264-.262 1.076-.54c1.494-.75 2.374-1.062 3.276-1.157.425-.045 2.365-.265 4.31-.489 3.918-.452 4.865-.49 5.726-.228.8.242 1.326.225 3.836-.128 2.548-.358 3.054-.352 3.11.038.023.162-.037.297-.152.34-.129.05-.18.199-.163.467.016.236-.101.649-.29 1.027a7.834 7.834 0 0 0-.496 1.346c-.272 1.093-.651 3.897-.772 5.71-.1 1.516-.13 1.652-.415 1.95-.169.176-.307.41-.307.521 0 .318-.498.246-1.048-.152zm-20.733-4.798c.027-.227-.017-.318-.153-.318-.225 0-.356.28-.254.545.107.28.364.137.407-.227zm21.573-.585c.096-.263-.042-.446-.337-.446-.307 0-.377.219-.144.452.185.185.411.182.48-.006zm.387-2.053c0-.17-.093-.247-.327-.274-.26-.03-.327.011-.327.198 0 .13.067.264.148.297.278.115.506.016.506-.221zm.213-1.56c.115-.114-.14-.52-.327-.52-.186 0-.294.226-.213.447.057.155.41.203.54.073zm-63.167 8.201c-.266-.37-.483-.735-.483-.81 0-.223.566-.693 2.14-1.775l1.485-1.022h3.876l.493-.475c.483-.463 1.09-.694 1.455-.554.096.037.254.255.35.484.118.284.277.443.497.499.406.101 3.36-.035 4.132-.191.65-.132 1.03-.006 1.03.342 0 .19-.151.225-1.267.293-.697.042-2.188.077-3.313.077s-2.334.055-2.686.122c-.876.166-1.103.423-1.176 1.338l-.06.74-.416-.018c-.229-.01-.74-.056-1.136-.103l-.72-.086-1.747.906c-.96.498-1.797.906-1.86.906-.061 0-.33-.303-.594-.673zm6.152-1.61c.4-.4-.086-.944-.552-.617-.249.174-.338.52-.177.68.13.13.576.091.73-.063zm2.944-2.483c.122-.199-.153-.426-.317-.262-.138.137-.052.391.132.391.058 0 .14-.058.185-.13zm46.872 4.565c-.168-.043-.195-.14-.14-.491.038-.24.105-.919.149-1.507.077-1.033.09-1.07.37-1.07.393 0 .522.527.458 1.881-.057 1.215-.162 1.364-.837 1.187zm-28.207-.15c-.039-.062-.15-.985-.246-2.05-.224-2.472-.266-2.709-.493-2.796-.249-.096-.54.306-.938 1.295-.421 1.046-.893 1.612-1.43 1.713-.472.088-2.784-.215-3.691-.485-.856-.254-1.372-.64-1.668-1.252-.31-.64-1.153-2.399-1.209-2.524-.021-.05.386-.09.905-.09h.944l.081.981c.096 1.154.342 1.723.878 2.031.414.239 2.204.553 3.153.555.758 0 1.005-.263 1.441-1.545.19-.556.396-1.078.46-1.16.17-.219.514-.183 1.538.158 1.066.355.99.183 1.101 2.488.038.785.098 1.59.134 1.789.05.285-.003.429-.258.683-.332.333-.58.406-.702.21zm-8.218-5.428c.305-.117.235-.523-.09-.523-.367 0-.452.103-.308.373.133.249.137.25.398.15zm34.516 5.452c-.027-.049-.009-.41.043-.802.05-.393.097-1.035.104-1.427.014-.844.115-1.046.497-.992.283.04.284.046.265 1.502-.013.942-.07 1.523-.164 1.635-.15.181-.658.239-.745.084zm-3.436-.174c-.18-.137-.188-.289-.077-1.52.067-.752.164-1.448.214-1.546.05-.098.246-.178.435-.178h.344l-.044.892c-.096 1.98-.176 2.434-.433 2.471a.676.676 0 0 1-.439-.119zm1.8-.044c-.128-.152-.132-.42-.022-1.4.075-.667.17-1.304.214-1.417.079-.205.583-.287.691-.112.093.15-.187 2.807-.314 2.969-.157.202-.382.187-.57-.04zm5.864-.015-.625-.047.002-1.212c.001-.667.041-1.272.09-1.344.047-.073.288-.169.534-.214.746-.137.85-.425.764-2.128-.084-1.644-.21-2.203-.606-2.663-.386-.449-1.11-.472-4.886-.159-4.26.354-6 .569-6.325.781-.244.16-.274.273-.273 1.039 0 .473.057 1.063.126 1.312.07.25.107.51.084.579-.023.068-.7-.366-1.503-.965l-1.462-1.09-2.917.14c-3.164.152-3.478.12-4.139-.426l-.356-.295h.356c.744-.004 5.974-.483 6.6-.606.36-.07 1.225-.39 1.923-.712 1.557-.717 2.078-.83 6.043-1.3 4.216-.5 5.656-.563 6.659-.293a7.83 7.83 0 0 0 1.58.222c.577.01.84.064.92.191.16.255.14 1.528-.064 3.924-.318 3.742-.438 4.648-.597 4.515-.209-.173-.531-.01-.531.268 0 .192.06.228.303.181.233-.044.295-.013.266.135-.039.206-.691.261-1.966.167zm.208-.641c0-.161-.085-.226-.298-.226-.213 0-.297.065-.297.228 0 .126.067.252.149.28.244.085.446-.043.446-.282zm-1.4.131c0-.229.025-.322.055-.208.03.115.03.302 0 .416-.03.115-.055.021-.055-.208zm-8.291-.086c-.476-.117-.535-.267-.535-1.355v-1.056h.602c.668 0 1.062-.156 1.062-.42 0-.096.085-.174.189-.174.166 0 .178.16.104 1.337-.046.736-.133 1.432-.193 1.546-.107.207-.661.262-1.23.122zm.137-.453c.09-.234-.314-.699-.47-.542-.164.163.008.724.22.724.099 0 .211-.082.25-.182zm6.471.113c.006-.138.034-.167.072-.072.035.086.03.189-.01.228-.04.04-.067-.03-.062-.156zm-48.404-.668c0-.601.05-.816.222-.972.365-.33 1.459-.43 4.743-.43h3.121v.602c0 1.374-.189 1.436-4.608 1.511l-3.478.06zm46.646.084c0-.327.024-.447.05-.266.028.18.027.448-.001.594-.028.146-.05-.002-.05-.328zm-62.4.178c.118-.13.241-.238.274-.238.033 0-.037.107-.156.238-.118.13-.242.238-.274.238-.033 0 .037-.107.155-.238zm60.744-.892c0-.654.02-.906.045-.56.024.345.023.88-.001 1.188-.024.309-.044.026-.044-.628zm-20.084.16-.47-.492.558.375c.615.414.79.611.543.611-.089 0-.373-.222-.631-.493zm-41.196.166c0-.05.12-.164.268-.255.266-.164.267-.163.04.09-.241.273-.308.308-.308.165zm66.618-.564c0-.261.025-.354.054-.207.028.148.027.362-.003.476-.03.114-.053-.007-.052-.269zm-1.79-.357c.002-.196.028-.262.058-.146a.685.685 0 0 1-.004.357c-.032.08-.057-.014-.054-.21zm-65.6-.059c.118-.13.235-.238.26-.238.025 0-.012.107-.082.238-.07.13-.187.238-.26.238-.074 0-.037-.107.081-.238zm68.201-.524c-.094-.113-.128-.645-.104-1.646.049-2.03.172-1.928-2.192-1.827-3.634.156-7.732.597-7.947.855-.173.209-.027 1.12.253 1.58.122.2.478.497.79.66l.57.296-.572.006c-.771.008-.953-.114-1.271-.852-.31-.718-.466-2.152-.248-2.287.263-.163 4.219-.58 9.25-.975 1.553-.122 1.71.078 1.953 2.486.07.703.095 1.412.054 1.575-.082.328-.323.386-.536.13zm-68.558-.19c.118-.13.234-.237.257-.237.023 0-.025.107-.106.238-.082.13-.198.237-.258.237s-.012-.107.107-.237zm33.947.209c0-.017.111-.321.246-.677.136-.356.258-.838.273-1.07.021-.336.081-.431.289-.461.215-.031.262.02.262.281 0 .26.044.308.238.257.137-.036.238-.004.238.076-.002.268-.541 1.024-.945 1.321-.354.262-.6.374-.6.273zm-22.986-1.54c-.363-.472-.637-.894-.61-.94.1-.16 1.07.15 1.375.442.487.466 1.276.64 2.888.639 1.577-.002 1.98-.117 2.092-.594.061-.263.149-.305.778-.373.39-.042 2.378-.082 4.42-.089 3.483-.012 3.724 0 3.923.21.117.123.334.26.48.306a.75.75 0 0 1 .389.307c.179.335-.181.472-1.238.472-.507 0-1.138.083-1.454.19-.573.194-3.447.283-3.72.114-.071-.044-.13-.18-.13-.304 0-.391-.458-.594-1.34-.594h-.813l-.237.535-.237.535h-5.906Zm-31.085-.001c-.069-.085-.164-.689-.211-1.343-.047-.654-.14-1.256-.205-1.338-.079-.097-.462-.148-1.116-.148-.874 0-1.028.033-1.263.267-.26.26-.35.27-2.973.306l-2.705.037V12.56l2.051-.085c2.265-.094 21.554-.038 21.654.063.035.035.101.559.147 1.165l.083 1.102-5.544-.036-5.545-.035-.187-.267c-.163-.233-.292-.268-.998-.268-.446 0-.977.033-1.179.074l-.368.073-.033 1.383-.034 1.383-.724.035c-.485.023-.766-.016-.85-.119zm-6.163-3.861c.097-.253-.21-.57-.458-.474-.238.09-.238.25 0 .487.24.24.363.236.458-.013zm8.03.026c.192-.231.057-.421-.3-.421-.452 0-.379.527.082.585.041.005.14-.068.218-.164zM39.383 13c0-.208-.065-.287-.236-.287-.279 0-.397.4-.162.548.246.156.398.056.398-.261zm8.246.077c.066-.341-.187-.508-.418-.276-.165.165-.172.228-.041.385.19.228.403.177.459-.11zm1.203-.002c.161-.195.072-.422-.166-.422-.214 0-.462.318-.368.47.11.178.366.154.534-.048zm47.626 2.843a14.203 14.203 0 0 0-4.162-1.308c-1.88-.294-2.155-.382-3-.961-.725-.496-.847-.54-1.35-.492-.961.092-1.619.785-1.826 1.923l-.084.466-9.236-.078c-5.08-.043-9.393-.121-9.585-.174-.419-.117-.483-.255-.26-.56.122-.167.287-.22.608-.199.243.016.518-.034.612-.112.103-.085.851-.172 1.895-.22 2.098-.097 2.192-.153 2.319-1.378.044-.432.136-.84.204-.909.348-.347 5.57-.437 6.188-.106.386.207.614.827.614 1.672v.717h1.54c.941 0 1.662-.055 1.852-.142.683-.311.808-1.16.412-2.808-.13-.544-.237-1.066-.237-1.16 0-.224.677-.227 1.141-.006.19.091.877.2 1.526.242 1.161.076 1.187.084 1.677.535.555.512.462.475 2.256.909 2.899.702 6.832 2.294 9.009 3.647.49.304.466.438-.148.847-.436.29-.783.23-1.965-.344zm-17.825-2.373c.362-.452.362-.856 0-1.308-.28-.351-.305-.357-1.575-.399a37.51 37.51 0 0 0-2.746.042l-1.457.084v.806c0 .853.083 1.008.595 1.108.163.031 1.332.05 2.598.04l2.3-.016zm-5.457-.232c-.238-.237-.241-.274-.074-.754.116-.332.189-.374.772-.447.354-.044 1.38-.059 2.28-.032 1.841.054 2.326.197 2.385.703.067.572-.155.626-2.758.68-2.143.046-2.426.03-2.605-.15zm-7.544 2.071c-.55-.22-.363-.596 2.2-4.425L69.8 8.015h1.605l.085.743c.168 1.479.096 1.457 4.775 1.457 3.582 0 3.719-.009 4.043-.25.292-.218.344-.352.405-1.04.037-.435.11-.83.16-.88.143-.142 6.141-.07 6.88.083.628.131.707.118 1.827-.302a34.29 34.29 0 0 1 1.505-.535c.578-.166.305.113-.574.59-1.143.618-1.114.77.24 1.258 1.318.474 3.52 1.455 4.296 1.914.867.513.369.509-.874-.008-3.195-1.329-6.018-2.243-6.715-2.176-.314.03-.435.122-.6.454-.183.366-.274.424-.773.486-.665.083-1.718-.038-2.252-.258-.275-.113-.504-.124-.833-.042-.438.11-.453.131-.427.588.015.26.139.934.276 1.496.138.563.233 1.204.211 1.425-.055.58-.385.7-1.911.702l-1.278.002v-.481c0-.539-.216-1.02-.762-1.703l-.368-.46-2.945.052c-2.733.048-2.968.07-3.27.294-.396.296-.628 1.002-.544 1.657.063.488.063.488-.394.563-.251.042-.831.078-1.29.08-1.277.007-2.973.198-3.24.364-.3.188-.624.725-.624 1.037 0 .349-.32.452-.802.258zm5.002-5.036c.035-.09-.018-.28-.117-.422-.143-.203-.215-.228-.348-.118-.205.17-.214.373-.025.562.19.19.412.18.49-.022zm26.538 3.924c-2.957-1.525-3.861-1.867-8.431-3.184-1.02-.293-1.498-.721-1.498-1.339 0-.403.02-.425.4-.425.22 0 .647.034.95.075.533.073.552.09.552.476 0 .347.04.4.298.4.185 0 .297-.067.297-.178 0-.244.346-.225 1.218.069.895.301 1.398.643 1.398.95 0 .257.344.313.565.092.103-.103.357-.056 1.035.19.6.22 1.118.326 1.562.32.83-.01 1.54.256 2.983 1.117 1.233.736 1.94 1.301 1.94 1.55 0 .245-.71 1.004-.933.997-.108-.003-1.16-.503-2.336-1.11zm-63.229.915c-.604-.158.21-.512 1.177-.512.544 0 .637.032.637.224 0 .131-.11.253-.268.295-.3.08-1.227.076-1.546-.006zm4.75.005c-.12-.035-.199-.149-.177-.26.054-.287 1.609-.36 1.716-.08.04.104.04.223-.002.264-.098.098-1.262.155-1.537.076zm13.71-.488c0-.175.3-.267.872-.27.66-.002.743-.076.832-.742.103-.767.285-1.097 1.55-2.8l1.087-1.463 1.372.037c1.143.03 1.43.076 1.71.274.733.516.808.531 2.744.547 1.046.009 2.614.05 3.484.091l1.582.075-1.38 2.032-1.381 2.032-5.493.08c-3.02.045-5.827.115-6.235.155-.48.048-.744.03-.744-.048zm-.11-.967c-.14-.26-.173-3.129-.052-4.555l.075-.892 4.89-.078c2.688-.043 5.04-.112 5.225-.153.185-.041.367-.161.405-.267.16-.45.304-.52.51-.249.353.47 1.608.554 2.364.16.37-.194 2.1-.221 2.216-.036.043.07-.021.202-.142.293-.202.154-.185.167.203.17.555.006.88.242.776.567-.043.135-.243.474-.445.752l-.367.507-3.698-.081-3.7-.08-.44-.306c-.578-.4-1.117-.516-2.43-.52L56.6 8.967l-.89 1.16c-1.265 1.645-1.765 2.434-1.998 3.15-.203.624-.204.625-.749.66-.445.03-.569-.007-.672-.2zm.666-.54c-.092-.238-.423-.243-.513-.007-.038.099 0 .262.083.363.133.16.172.161.326.007.097-.096.143-.26.104-.363zm-.081-.959c.175-.21.077-.536-.16-.536-.205 0-.333.289-.239.535.087.226.212.226.399 0zm-17.098-.203c-.078-.078-.142-.4-.142-.713v-.571l-1.873-.009c-1.767-.008-3.04-.108-3.18-.249-.035-.034-.098-.664-.14-1.4-.062-1.082-.045-1.357.09-1.443.093-.058 1.258-.107 2.59-.108l2.421-.002.314.366c.172.202.672.764 1.11 1.25.86.953 1.044 1.376 1.045 2.397v.625H36.97c-.656 0-1.1-.054-1.19-.143zm13.787-.341c-.214-.086-.265-.176-.213-.38.077-.31-.016-.49-.31-.598a.348.348 0 0 1-.208-.305c0-.324.252-.395 1.635-.463l1.22-.06V11.82l-.922-.008c-.507-.003-1.048-.058-1.202-.12zM16.499 9.055c.009-2.386.175-2.824 1.075-2.824.734 0 .953.282 1.067 1.374.055.52.102 1.386.106 1.926l.006.981h-2.26l.006-1.457zM3.292 9.97c-.183-.481-.144-1.671.062-1.877.097-.097.513-.213.923-.257.945-.1 10.975.006 11.414.121l.327.087v2.231l-4.132-.018-4.132-.019 3.161-.097c1.74-.053 3.29-.145 3.449-.205.531-.2-1.322-.275-5.738-.235-4.182.039-4.246.043-4.603.307-.463.343-.588.336-.73-.038Zm10.645-1.706c.49-.072.553-.107.357-.197-.315-.146-9.678-.144-9.988.001-.2.094-.152.125.297.19.742.11 8.605.114 9.334.006Zm5.245 1.823c-.04-.103-.072-.587-.072-1.074 0-.702.04-.9.19-.959.29-.11.4.18.403 1.052.002.885-.07 1.17-.296 1.17-.084 0-.185-.086-.225-.189zm.997.04c-.001-.082-.035-.35-.075-.595l-.074-.446h10.02v1.189h-4.935c-3.868 0-4.935-.032-4.936-.148zm17.194-.995c-.583-.615-1.02-1.158-.971-1.206.048-.049 2.954-.103 6.457-.121l6.369-.033-.074.797c-.099 1.05-.324 1.268-.599.576-.026-.065-.143-.027-.261.086-.202.192-.202.218-.015.425.303.335.245.462-.245.543-.246.04-2.506.069-5.024.063l-4.578-.01zm34.783.507c-.073-.089-.167-.49-.21-.892l-.076-.731h8.353l.07.277c.038.152.052.513.031.802-.034.475-.07.532-.394.6-.196.042-1.995.083-3.998.09-2.929.012-3.668-.017-3.776-.146zm-22.673-.35c-.035-.093-.048-.51-.029-.929l.036-.76h.833v1.783l-.388.037c-.252.025-.41-.021-.452-.131zm1.502-.07c-.14-.258-.17-.955-.055-1.253.075-.195.48-.25.718-.097.092.06.112.317.06.8-.067.615-.114.72-.337.751a.365.365 0 0 1-.386-.2Zm-29.586-.69c-1.021-.034-1.338-.083-1.338-.206 0-.088.12-.193.268-.232.349-.094 9.104-.094 9.453 0 .32.086.344.225.06.34-.238.097-6.425.169-8.443.099zm30.89-.855c-.302-.208.388-.372 1.52-.363 1.054.008 1.605.118 1.359.27-.231.143-2.691.222-2.88.093zm3.464-.119c-.217-.137.523-.25 1.645-.25 1.066 0 1.803.108 1.714.25-.082.133-3.149.133-3.359 0zm4.091 0c-.082-.133.508-.252 1.24-.252.31 0 .73.033.934.073.704.141.235.283-.934.283-.647 0-1.204-.047-1.24-.104zm18.807-.008c-2.39-.08-2.854-.134-2.678-.31.036-.036 1.048-.192 2.249-.347 2.427-.314 2.65-.374 3.076-.834.163-.177.455-.404.65-.505.356-.185 2.178-.505 2.887-.507.508 0 .862.358.862.873 0 .253.091.48.25.624.138.125.353.427.479.673l.227.446h-.415c-.342 0-.449-.064-.6-.357-.213-.411-.412-.46-.5-.123-.034.129-.149.26-.256.29-.41.12-3.751.16-6.23.077Zm3.836-.898c0-.1-.106-.178-.238-.178s-.238.079-.238.178c0 .099.106.178.238.178s.238-.08.238-.178zm2.662-.565c.191-.304-.051-.624-.474-.624-.418 0-.523.326-.214.667.244.27.5.254.688-.043zM64.445 7.338a.687.687 0 0 1 .357.004c.08.033-.014.057-.21.055-.197-.003-.263-.03-.147-.06z" style="fill:#000;stroke-width:.118907;fill-opacity:1"/></svg>