<svg xmlns="http://www.w3.org/2000/svg" width="412.315" height="128" viewBox="0 0 109.092 33.867"><path d="m50.026 30.434-.428-.256v-3.386l.001-3.386.307-.326.306-.327h3.004v-.251c0-.284.17-.323.458-.104.255.193 1.14.193 1.395 0 .107-.081.232-.147.277-.147.044 0 .08 1.899.08 4.22v4.22H52.94c-2.486-.001-2.488-.001-2.914-.257zm1.69-1.253c.183-.098.194-.233.194-2.356 0-2.666.046-2.565-1.178-2.565H50l.002 2.337c0 1.285.035 2.386.075 2.447.04.06.142.136.225.168.26.098 1.21.078 1.413-.031zm13.67 1.155-.312-.355v-4.005l-.296-.466c-.295-.466-.295-.467-.288-2.022l.008-1.556-.566-.572-.567-.572v-2.266c0-2.624-.032-2.535 1.071-2.908.38-.128.731-.334.943-.552.613-.633.867-.445.913.677.028.68.006.801-.187 1.006-.807.86-.646 2.344.327 3.02.695.482 1.512.49 2.203.021.202-.137.386-.249.41-.249.025 0 .272.343.549.761l.504.761v2.917l-1.058 1.122-1.058 1.122.011 1.842c.01 1.822.008 1.846-.25 2.236l-.26.394h-1.786zm1.776-.605c.205-.143.223-.237.223-1.155 0-.55-.034-.998-.075-.996-.095.005-1.332 2.044-1.332 2.196 0 .171.925.136 1.184-.045zm-.67-1.63c.287-.482.583-.948.658-1.035.191-.225.074-.293-.502-.293-.784 0-.87.132-.87 1.327 0 .603.037.972.095.937.052-.033.33-.454.618-.936zm.536-2.192c.147-.146.11-.217-.436-.829-.839-.941-1.302-1.37-1.388-1.285-.073.073.323 1.768.49 2.098.122.238 1.1.25 1.334.016zm2.266-2.275c0-.042-.768-.077-1.708-.077-1.196 0-1.708.034-1.708.113 0 .062.37.493.824.957l.824.845.884-.88c.486-.484.884-.915.884-.958zm-3.336-1.08c.034-.707-.026-.825-.357-.698-.2.076-.226.157-.226.685 0 .486.033.608.176.645.326.084.377.005.407-.632zm1.708-.09c-.028-.635-.041-.666-.281-.666-.24 0-.253.03-.28.67-.026.577-.005.676.15.71.38.085.441-.021.41-.714zm1.683.652c.001-.007-.014-.294-.034-.64-.036-.586-.055-.627-.28-.627-.234 0-.243.027-.243.705v.705l.276-.066c.152-.036.278-.071.28-.077zM67.064 21l.03-.461-.482-.207c-.266-.114-.56-.276-.652-.36-.205-.186-.282-.145-1.037.549l-.58.532.209.221c.193.206.29.22 1.345.204l1.136-.017zm1.736.446c.787 0 .799-.018.46-.704-.24-.488-.264-.496-1.146-.347l-.428.072v.473c0 .513.065.642.28.559.076-.03.452-.053.834-.053zm-4.06-1.542c.651-.587.695-.652.563-.829-.105-.141-.136-.442-.116-1.146.022-.744-.01-1.026-.143-1.275-.093-.176-.214-.348-.267-.38-.053-.034-.28.104-.503.306l-.406.367v1.797c0 .989.037 1.797.082 1.797.045 0 .4-.286.79-.637zM41.854 22.98c-.003-.097-.06-.726-.128-1.398l-.122-1.221.355-.057c1.306-.209 2.064-1.633 1.515-2.843-.21-.46-.16-.535.354-.535.242 0 .243-.004.243-1.106v-1.105h1.004V17.583l.456 1.103.664 1.605c.114.276.318.745.453 1.042.135.297.232.552.216.567-.195.176-4.33 1.255-4.81 1.255-.116 0-.197-.071-.2-.176zm-4.48-1.204c-.835-1.123-1.007-1.44-1.333-2.458-.404-1.264-.441-2.621-.092-3.34.12-.249.268-.469.327-.49.059-.02.822.004 1.695.055 1.118.065 1.626.06 1.718-.016.092-.076.152-.588.202-1.704.063-1.445.052-1.626-.117-1.928-.224-.402-.395-.454-1.795-.55l-1.076-.073-.612-.565c-.336-.311-.804-.652-1.04-.757-.426-.19-.427-.193-.227-.379.34-.316.53-.781.461-1.125-.14-.695-.173-.655.926-1.1l1.033-.419.414-.703c.228-.387.486-.788.575-.89.26-.303 1.078-.668 1.495-.668.5 0 .646.159 1.87 2.04.926 1.426.966 1.512.966 2.044 0 .49-.076.701-.653 1.79l-.653 1.236.001 1.494c.001.822.035 1.543.076 1.6.04.06.243.21.45.336.398.241.483.53.273.922-.08.15-.212.195-.57.195-1.606 0-2.597 1.922-1.627 3.155.182.232.192.293.075.453-.257.35-2.112 2.471-2.184 2.498-.04.015-.3-.279-.578-.653zm.654-2.91c.691-.45.721-.485.658-.778-.1-.466-.229-.66-.513-.768-.22-.083-.348-.04-.848.281-.325.21-.613.452-.642.54-.048.147.253.962.415 1.125.117.116.172.093.93-.4zm-1.107-1.45c.407-.3.425-.336.397-.776-.03-.452-.039-.463-.382-.481-.53-.028-.704.187-.704.866 0 .82.06.853.69.39zm2.548-.159c.21-.205.381-.403.381-.44 0-.039-.139-.09-.309-.115-.38-.056-.796.24-.796.566 0 .48.225.476.724-.011zm1.587-5.988c0-.071.158-.433.352-.804.396-.76.422-.931.185-1.194-.132-.146-.317-.183-.904-.183h-.738v.647c0 .356.045.675.1.71.055.033.1.232.1.44 0 .21.03.41.067.447.127.126.838.073.838-.063zm-3.517-.705c0-.214.1-.415.32-.642l.32-.33-.167-.353c-.107-.222-.24-.352-.362-.352-.252 0-1.016.913-1.016 1.215 0 .282.573.9.766.826.077-.03.139-.193.139-.364zm-.618-1.388c.257-.282.522-.633.588-.778.136-.299.172-.918.052-.918-.043 0-.394.133-.779.295-.66.279-.704.317-.767.678a4.38 4.38 0 0 1-.178.672c-.136.353.001.565.367.565.172 0 .395-.16.716-.514zm2.768-.046c.129-.337.063-1.602-.096-1.829-.195-.279-.85-.295-1.3-.032-.257.15-.307.245-.333.644-.02.306.04.624.17.922l.201.454h.648c.499 0 .663-.037.71-.16zm1.98-.617c.16-.095.291-.202.291-.238 0-.036-.186-.388-.415-.782-.364-.63-.45-.717-.708-.717-.386 0-.786.4-.786.787 0 .544.12.9.337 1.005.335.162.959.135 1.28-.055zM39.036 6.76c.221-.01.47.04.552.107.353.294.796-.3.746-.998-.026-.36-.083-.471-.303-.594-.256-.144-.294-.135-.697.148-.235.165-.576.548-.759.852-.383.636-.409.75-.137.605.107-.058.376-.112.598-.12zm13.928 14.523c-1.145-.864-1.49-.926-2.187-.392-.34.26-.646.396-1.055.467-1.103.191-1.684.294-1.994.351-.304.057-.32.042-.572-.579-.143-.35-.556-1.338-.918-2.195-.362-.856-.66-1.583-.66-1.616 0-.05 2.062-.56 2.663-.658 1.05-.173 1.752-.398 2.019-.649.182-.17.306-.202.612-.155 1.231.19 1.15.203 1.665-.27.262-.24.477-.513.477-.608 0-.18.274-.662.45-.792.182-.135 1.097-.05 1.474.138.2.1.574.42.829.711l.463.53v5.354l-.402.064c-.376.06-.402.086-.402.399 0 .301-.039.346-.389.45-.83.25-1.113.174-2.073-.55zm-4.044-.645c.51-.114 1.019-.287 1.13-.386.11-.099.48-.282.822-.406.547-.2.683-.213 1.135-.116.283.06.558.11.61.11.056 0 .096-.617.096-1.495 0-1.644-.055-1.813-.503-1.565-.15.083-.553.139-1.005.14-.96 0-4.622.858-4.622 1.082 0 .078.208.648.462 1.266.255.619.502 1.226.55 1.35.108.277.166.278 1.325.02zm-.905-1.166c-.211-.085-.151-.616.083-.742.167-.09.249-.077.402.062.43.389.064.901-.485.68zm2.507-.758c-.334-.334.059-.91.47-.69.28.15.343.411.15.625-.194.213-.445.24-.62.065zm3.264-.482c-.007-1.05-.02-1.91-.027-1.91-.216 0-.639.27-.683.434-.076.283-.077 2.665-.002 2.947.055.204.356.417.61.432.086.004.113-.503.102-1.903zm1.847 1.303c.173-.093.195-.219.195-1.148v-1.044l-.358-.118c-.374-.123-1.003-.06-1.225.124-.084.07-.126.413-.126 1.04 0 .854.02.95.224 1.093.254.178 1 .209 1.29.053zM6.01 21.245c-.58-.122-1.333-.544-1.763-.99-.39-.404-.872-1.25-.872-1.53 0-.1-.046-.209-.1-.243-.127-.077-.134-1.197-.01-1.433.05-.096.165-.383.254-.637.328-.936 1.311-1.787 2.38-2.061a3.675 3.675 0 0 1 3.001.563l.292.208 1.689-1.02 2.505-1.51c.592-.356.923-.492 1.205-.495.577-.007.89-.143 3.633-1.583 1.942-1.02 3.316-1.646 6.112-2.784 3.25-1.322 4.139-1.69 5.115-2.115.267-.116.643-.256 2.211-.82.221-.08.552-.26.736-.4.306-.233.67-.344 2.078-.631.276-.057 1.045-.22 1.708-.364.958-.208 1.35-.248 1.91-.197.955.089.995.106 1.296.56l.264.4h-.256c-.14 0-.553.199-.916.442-.629.422-.793.625-1.431 1.768-.046.083-.441.278-.878.433-.436.155-.906.343-1.045.418-.197.107-.355.114-.717.031-.393-.09-.522-.077-.851.084-.455.223-.843.755-.843 1.155v.283l-.483-.243c-.266-.133-.786-.561-1.157-.95-.37-.39-.749-.708-.84-.708-.24 0-.836.227-.836.318 0 .159.356.268.539.166.37-.207 1.03.816.951 1.476-.04.34.044.296-1.992 1.057-.912.34-1.998.748-2.412.905a557.597 557.597 0 0 1-4.046 1.51c-.43.157-.814.306-.855.332-.107.066-.359-.14-.57-.463-.143-.221-.256-.277-.557-.277-.577 0-.971-.103-1.196-.312-.112-.105-.253-.19-.312-.19-.06 0-1.091.499-2.291 1.108l-2.183 1.109-.573.775c-.505.684-.696.85-1.607 1.399-1.653.995-1.694.903.428.972 2.062.068 6.826.207 12.606.368 8.13.227 9.521.283 9.622.383.056.057.073.178.038.27-.057.148-.215.16-1.445.104-.76-.034-3.1-.105-5.2-.158-2.1-.054-4.633-.122-5.627-.153-3.511-.108-11.862-.348-12.135-.349-.268 0-.276.016-.28.578-.003.318-.065.748-.14.956-.078.22-.096.402-.042.435.05.031.645.032 1.32 0 .675-.03 2.29-.08 3.59-.11 1.298-.03 2.994-.076 3.767-.103.774-.027 3.33-.097 5.678-.154 2.349-.058 5.65-.142 7.336-.188 1.685-.045 3.099-.063 3.14-.039.041.024.075.13.075.234 0 .268-.18.284-3.868.348-1.769.03-3.69.079-4.271.106-.58.028-2.932.095-5.226.149-2.293.054-5.91.15-8.039.213l-3.869.114-.33.338c-.183.186-.296.339-.252.34l13.323.025c11.645.02 13.255.042 13.338.174.263.416.715.402-13.762.402-8.722 0-13.956.037-14.118.098-.388.148-1.46.204-1.944.103zm2.15-1c.885-.507 1.445-1.428 1.445-2.376v-.437l-.975.6c-.874.539-1.031.601-1.515.601-.463 0-.582-.042-.834-.294a1.005 1.005 0 0 1-.13-1.268c.089-.137.657-.547 1.26-.91 1-.603 1.083-.675.918-.8-.383-.291-1.15-.473-1.78-.422-1.435.115-2.387 1.073-2.63 2.647-.08.52.118.746.653.746.49 0 .816.312.632.607-.176.282-.157.347.225.764.33.36.355.37.535.207.35-.317 1.23-.164 1.23.214 0 .197.183.419.346.417.058 0 .337-.134.62-.296zm-.612-2.318c.414-.458-.296-1.168-.754-.754-.392.355-.17.946.358.954.116.002.294-.088.396-.2zm13.113-6.429c.047 0 .1-.162.117-.361.027-.312.08-.38.383-.486a681.1 681.1 0 0 0 6.97-2.63c.488-.188.952-.341 1.03-.341.076 0 .14-.065.14-.145 0-.357-.187-.313-2.613.612-.636.242-1.585.602-2.11.798-2.738 1.026-3.352 1.276-4.246 1.726-.484.244-.88.485-.88.535 0 .05.011.092.026.093.014 0 .206.067.427.146.221.08.462.125.536.1a.862.862 0 0 1 .22-.047zm80.64 9.695c-.343-.124-2.603-.145-15.45-.147l-15.048-.001v-.239c0-.188.068-.252.319-.303.175-.035 6.72-.062 14.545-.061h14.29c.036 0-.077-.154-.25-.341l-.315-.341-3.417-.109c-1.88-.06-4.434-.134-5.678-.165-2.049-.05-5.913-.163-10.2-.297-.883-.028-2.685-.08-4.002-.117l-2.394-.067.25-.25.25-.25 6.013.165c3.307.091 6.647.187 7.42.214.774.026 2.267.071 3.317.1l3.768.104c1.022.028 2.39.076 3.038.107.648.03 1.22.03 1.272-.003.055-.034.036-.27-.047-.585a4.342 4.342 0 0 1-.142-.87v-.342l-2.387.066c-1.313.037-4.987.134-8.165.216l-9.647.25c-2.128.055-3.948.1-4.045.101-.12.001-.175-.077-.175-.25 0-.223.042-.251.376-.252.208 0 1.802-.044 3.543-.097 1.74-.054 5.064-.143 7.386-.2 2.32-.055 4.808-.123 5.526-.15.719-.029 2.675-.08 4.347-.116 1.671-.035 3.04-.097 3.04-.138 0-.04-.589-.424-1.308-.852-1.203-.717-1.358-.844-1.935-1.589l-.626-.81-2.2-1.097-2.2-1.097-.312.232c-.235.175-.482.242-.991.271-.44.026-.678.082-.678.16 0 .066-.136.25-.303.41-.234.224-.329.262-.422.17a.426.426 0 0 0-.251-.12c-.073 0-.324-.088-.558-.195-.234-.107-.81-.329-1.28-.492a91.4 91.4 0 0 1-1.96-.72 804.82 804.82 0 0 0-4.17-1.572c-.882-.329-.95-.373-.989-.639-.1-.683.56-1.737.956-1.525.186.1.535-.007.535-.164 0-.078-.715-.32-.944-.32-.08 0-.406.298-.726.662-.482.549-1.404 1.242-1.658 1.246-.034 0-.092-.182-.127-.405-.042-.26-.188-.54-.408-.779-.335-.364-.36-.373-1.078-.377-.405-.002-.804-.032-.887-.068a20.65 20.65 0 0 0-.804-.29c-.82-.282-.827-.288-1.357-1.107-.333-.514-.606-.79-1.123-1.138-.376-.252-.786-.458-.911-.458h-.228l.227-.35c.364-.563 1.551-.797 2.638-.521.332.084 1.078.249 1.659.366 1.83.368 2.351.514 2.713.76.193.13.736.38 1.206.554.47.174.996.38 1.17.457.175.078.349.141.387.141.039 0 .213.066.387.147.393.182 1.968.83 3.432 1.41.608.24 1.603.649 2.21.906.608.258 1.4.58 1.759.718.36.137 1.15.5 1.759.808 1.594.805 3.748 1.926 4.256 2.215.275.156.667.269 1.055.304.513.046.761.143 1.472.574.819.497 3.791 2.259 3.94 2.335.04.02.25-.076.466-.213.677-.427 1.345-.593 2.172-.54 1.305.083 2.168.669 2.93 1.988.355.615.377.704.383 1.536.004.536-.036.911-.103.955-.06.039-.14.19-.175.334-.194.795-1.312 1.877-2.22 2.15-.622.188-1.592.186-2.118-.004zm.533-.771c.066-.067.12-.2.12-.298 0-.098.088-.224.195-.282.282-.15.866-.127 1.006.041.161.194.343.109.665-.313.197-.258.238-.38.156-.463-.307-.306.048-.775.586-.775.462 0 .608-.146.608-.605 0-1.91-2-3.342-3.74-2.678-.814.311-.793.362.478 1.11 1.434.843 1.686 1.229 1.297 1.98-.182.354-.494.494-1.1.494-.358 0-.614-.105-1.357-.558-1.314-.8-1.25-.797-1.173-.06.107 1.017.688 1.914 1.502 2.317.491.243.591.255.757.09zm.803-2.418c.058-.069.135-.245.171-.39.115-.456-.552-.776-.897-.43-.213.212-.203.71.018.838.243.142.583.133.708-.018zm-13.203-6.546c.185-.077.365-.187.4-.243.114-.184-1.897-1.06-5.802-2.529-3.456-1.3-3.819-1.416-3.962-1.273-.143.144-.135.166.086.25 1.904.72 3.81 1.424 3.856 1.424.031 0 .249.086.483.191.235.106 1.195.474 2.135.818.94.344 1.764.67 1.834.725.069.054.125.226.125.381 0 .213.056.293.226.326.125.024.24.05.255.057.015.008.18-.05.364-.127zm-31.68 9.452-.324-.335.029-3.391c.025-2.965.049-3.406.189-3.508.108-.08.572-.108 1.42-.087l1.26.03.063.31c.034.169.061 1.746.061 3.503v3.195l-.309.31c-.298.298-.34.309-1.186.309-.862 0-.883-.006-1.202-.336zm.387-.77c0-.11-.065-.2-.145-.2-.177 0-.29.165-.207.3.11.178.352.108.352-.1zm2.091.025c-.019-.096-.1-.175-.182-.175-.081 0-.163.079-.182.175-.023.124.03.176.182.176s.206-.052.182-.176zm-.853-.137c.612-.313.757-1.057.31-1.588-.21-.25-.336-.31-.66-.31-1.002 0-1.36 1.307-.504 1.838.318.197.553.214.854.06zm-.87-.473c-.245-.27-.215-.777.056-.967.482-.337 1.083-.067 1.083.487 0 .193-.076.4-.183.497-.244.22-.75.212-.957-.017zm-.368-1.475c0-.194-.197-.295-.326-.166-.077.076-.07.152.02.261.142.171.306.12.306-.095zm2.06-.051c0-.216-.292-.185-.334.035-.026.135.015.176.15.15.1-.02.184-.103.184-.185zm-1.457-1.808v-1.105h-1.005v.823c0 .757.022.847.27 1.106.149.155.375.282.503.282.228 0 .232-.017.232-1.106zm1.242.84c.244-.243.265-.33.265-1.105v-.84h-1.005v1.105c0 1.095.002 1.106.238 1.106.13 0 .357-.12.502-.265zm-1.292-2.448c.126-.204-.06-.502-.312-.502-.263 0-.4.204-.305.452.065.17.52.206.617.05zm1.206-.2c0-.293-.346-.401-.539-.169-.187.226-.03.486.275.45.206-.024.264-.085.264-.282zM39.85 20.951c0-.162.52-.51.759-.51.382 0 .547.11.547.362 0 .23-.03.24-.653.24-.359 0-.653-.041-.653-.092zm16.681-2.454c0-2.137.024-2.578.14-2.578.077 0 .168.071.201.159.034.087.061 1.165.061 2.396 0 2.11-.012 2.247-.2 2.419-.201.181-.202.176-.202-2.396zm4.388 2.38c-.037-.038-.067-1.092-.067-2.345 0-2.25.003-2.28.233-2.495.196-.184.35-.219.98-.218h.747l.034 2.154c.019 1.185.004 2.293-.033 2.462-.059.268-.11.307-.405.307-.186 0-.366.045-.4.1-.07.112-.983.14-1.089.034zM41.015 19.55c-.67-.392-.918-1.141-.609-1.828.605-1.342 2.659-.923 2.66.543.001 1.098-1.146 1.817-2.051 1.285zm29.535-.353c-.976-.5-1.004-.524-.973-.831.115-1.144-.912-2.246-2.093-2.246h-.511l.03-.524c.029-.496.047-.527.34-.587.547-.111.544-.103.544-1.719V11.78l-.653-1.201c-.588-1.08-.653-1.259-.653-1.776 0-.55.037-.632.894-1.978.492-.772 1.041-1.579 1.221-1.793.31-.368.353-.387.79-.343.79.08 1.376.515 1.865 1.383.466.828.709.997 2.299 1.602.254.096.275.14.213.433-.038.18-.07.349-.07.377-.007.42.074.654.33.946l.308.35-.433.218c-.238.12-.682.455-.987.743l-.554.525-.903.07c-1.818.14-1.817.14-2.014.576-.154.342-.168.582-.107 1.917.04.91.115 1.582.185 1.666.096.115.395.128 1.63.074.832-.037 1.583-.086 1.668-.11.106-.029.24.131.427.513.232.473.272.684.272 1.418 0 .972.134.773-1.224 1.82-.377.291-.718.523-.76.516-.042-.008-.528-.245-1.08-.528zm1.747-.801.34-.353-.473-.334c-.858-.606-1.222-.56-1.468.186-.134.405-.07.634.178.644.098.004.314.088.48.187.348.209.464.168.943-.33zm.615-1.36c0-.815-.089-.926-.68-.846-.423.056-.426.059-.426.478 0 .39.035.443.478.737.262.174.511.318.552.32.042.001.076-.308.076-.689zm-2.432.47c.304-.303-.037-.786-.582-.824-.447-.031-.467.094-.084.538.362.422.48.473.666.287zm-1.286-6.675c0-.18.045-.355.1-.389.055-.034.1-.353.1-.71v-.646h-.72c-.751 0-1.086.15-1.09.492-.002.089.168.53.377.982.338.734.41.825.68.856.372.043.553-.149.553-.585zm3.186-.157c.455-.441.43-.724-.112-1.312-.498-.54-.67-.584-.902-.23-.228.348-.205.478.14.808.209.2.3.385.3.605 0 .543.119.57.574.129zm1.033-1.065c.215-.174.217-.193.062-.565-.089-.212-.161-.51-.161-.663 0-.287-.003-.29-1.482-.875-.09-.035-.126.08-.126.394 0 .38.066.522.459.99.49.585.821.899.948.899.043 0 .178-.081.3-.18zm-2.265-.642c.125-.211.192-.526.198-.927.009-.597.003-.61-.343-.78-.45-.223-.988-.23-1.224-.018-.147.134-.183.318-.183.947 0 1.09.004 1.098.742 1.098.592 0 .63-.016.81-.32zm-2.223-.394c.202-.092.253-.207.305-.678.058-.538.046-.582-.24-.844-.499-.457-.717-.38-1.192.42-.227.382-.413.738-.413.79 0 .34 1.025.547 1.54.312zm.821-1.698c.08-.129.764-.13 1.1-.003.141.054.257.074.257.043 0-.03-.197-.36-.439-.733-.539-.833-1.027-1.131-1.426-.87-.208.136-.245.24-.245.68 0 .394.052.574.218.75.233.248.434.298.535.133zm-3.041 12.4c-.888-.7-.798-1.885.18-2.376a1.431 1.431 0 0 1 2.072 1.05c.078.48-.274 1.233-.673 1.44-.468.241-1.195.19-1.58-.114zm-28.788-4.028c-.097-.026-.176-.114-.176-.196 0-.12.093-.137.477-.086.616.083.729.121.729.247 0 .102-.685.125-1.03.035zm32.508-.057c.038-.114 1.078-.312 1.167-.222.021.02.011.108-.021.193-.077.2-1.213.23-1.146.03zm-32.84-.472c-.054-.053-.082-.65-.064-1.363l.03-1.268.824.07c.452.038.83.075.839.082.009.006-.01.589-.04 1.293l-.056 1.281H38.4c-.395 0-.761-.042-.814-.095zm32.578-.522c-.036-.34-.065-.922-.065-1.293v-.676l.779-.052c.428-.028.793-.038.81-.023.018.016.06.621.091 1.345l.059 1.316h-1.61zm-26.267.25c-.096-.04-.126-.656-.126-2.605V9.288h.743c.585 0 .756.033.804.158.033.088.06 1.236.06 2.552 0 2.09-.02 2.4-.158 2.454-.187.072-1.142.068-1.323-.006zm-5.98-2.516c-.362-.094-.044-.232.534-.232.572 0 .775.112.438.24-.176.068-.698.064-.973-.008zm32.383-.081c0-.114.123-.15.503-.15.276 0 .536-.009.577-.019.042-.01.09.058.108.151.028.143-.06.169-.578.169-.475 0-.61-.034-.61-.151zM33.54 9.083c-.46-.429-.113-1.304.516-1.301.397.002.52.078.707.438.174.336.056.81-.24.97-.301.16-.748.112-.983-.107zm41.058.029c-.254-.29-.3-.597-.136-.913.254-.492.82-.572 1.219-.172.301.301.315.645.038.996-.253.322-.873.371-1.12.089zM43.77 6.787v-2.3l.226-.06c.354-.095.974-.074 1.188.04.183.099.194.233.194 2.362v2.258H43.77z" style="fill:#000;fill-opacity:1;stroke-width:.100489"/></svg>