<svg xmlns="http://www.w3.org/2000/svg" width="444.645" height="128" viewBox="0 0 117.646 33.867"><path d="M62.019 30.585c-.085-.084-.335-.565-.558-1.068-.37-.835-.405-1.413-.405-6.607V17.22l-1.748-.808c-.961-.444-2.478-1.016-3.37-1.271-1.593-.456-1.88-.466-15.055-.536l-13.432-.072v-1.003c0-.551-.06-1.307-.135-1.678l-.135-.676-3.858.07c-2.122.038-5.988.05-8.592.027-4.384-.039-4.73-.069-4.665-.405.057-.302.367-.38 1.83-.467 1.38-.081 1.761-.17 1.761-.415 0-.273 1.286-.3 10.683-.22 33.5.28 36.094.276 36.094-.073 0-.288.461-.329 3.707-.329 3.797 0 5.218.229 5.743.924.15.198.84.323 2.178.393 1.077.057 2.344.166 2.816.242.542.088.909.056.998-.087.087-.142.986-.227 2.395-.227 1.727 0 2.327-.073 2.565-.311.404-.404 1.37-.398 1.955.011.253.178.46.263.46.19 0-.073.364.155.808.507.445.352.911.64 1.037.64.127 0 .23.136.23.302 0 .167.405.54.9.83.811.476 1.117.527 3.111.527h2.212v-.95c0-1.188.465-1.163.632.034.081.585.488 1.292 1.452 2.52l1.339 1.708 7.928.004 7.928.003-.046 2.23c-.04 1.983-.094 2.27-.48 2.583-.363.294-.458.673-.571 2.265-.075 1.051-.181 1.957-.236 2.012-.056.056-2.646-.811-5.756-1.926-3.11-1.115-5.855-2.027-6.098-2.028-.337-.001-.501-.204-.697-.857-.31-1.038-1.67-2.412-2.388-2.412-.277 0-.976.187-1.555.415-.579.228-1.18.415-1.335.415-.155 0-.845-.87-1.534-1.933l-1.252-1.933-1.262-.35-1.262-.351-1.05.532c-.578.293-1.14.502-1.25.466-.11-.037-.552-.72-.983-1.516-.635-1.175-.888-1.462-1.34-1.515-.466-.055-.537-.143-.438-.54.214-.851-.915-1.522-1.528-.908-.344.343-.312 1.1.06 1.408.185.154.529.2.865.116.489-.123.524-.1.289.184-.228.275-.913.324-4.462.324h-4.192l-.813 1.815-.812 1.815-.104 6.12c-.097 5.695-.133 6.17-.53 6.845l-.426.726-3.736.057c-2.054.03-3.803-.013-3.888-.097zm4.135-1.193c.07-.278.066-.605-.009-.726-.08-.13-.972-.219-2.197-.219-2.206 0-2.369.093-1.74.991.29.415.5.461 2.071.461 1.68 0 1.752-.02 1.875-.507zm2.26-.702 1.553.068.118-.83c.065-.456.09-3.07.056-5.808l-.062-4.978-1.166-.061c-.967-.051-1.192.002-1.31.31-.113.3-.09.322.12.114.144-.143.663-.26 1.153-.26h.892V28.033h-.892c-.49 0-1.017-.116-1.171-.259-.227-.21-.257-.196-.16.08.087.252-.04.373-.489.462-.5.1-.604.223-.594.697.013.566.017.567.207.093.183-.455.284-.48 1.746-.415zm-6.32-6.051c0-4.656-.043-5.393-.312-5.393s-.311.737-.311 5.393.042 5.393.311 5.393.311-.737.311-5.393zm4.978 3.016c0-.266-.346-.32-2.075-.32h-2.074v1.038c0 .57.07 1.037.157 1.037.086 0 .124-.42.083-.933l-.074-.934h1.784c2.017 0 2.183.162 1.161 1.141-.342.328-.62.695-.617.817.009.347 1.655-1.49 1.655-1.846zm.57-5.442c-.037-1.347-.066-.302-.067 2.322 0 2.624.03 3.726.066 2.45.037-1.278.037-3.425 0-4.772zm-.778 4.284c.258-.175.154-.353-.607-1.044-.87-.788-.98-.83-2.075-.771-1.145.06-1.156.067-1.222.755-.116 1.208-.014 1.277 1.875 1.273.945-.001 1.858-.098 2.03-.213zm-3.734-.82c0-.62.005-.623 1.206-.623 1.07 0 1.274.07 1.802.622l.596.622H63.13zm45.798-2.546c.049-2.232.008-2.668-.262-2.772-.732-.28-.937.295-.937 2.629 0 2.58.089 2.942.7 2.855.42-.06.444-.192.499-2.712zm-2.278 1.881c.33-.33.33-3.113 0-3.443-.175-.175-1.346-.249-3.941-.249h-3.692v.589c0 .618.62 1.07 1.469 1.07.227 0 .625.14.885.31.416.273.522.274.875.007.618-.468.892-.377 1.082.358.148.57.273.677.819.695.354.011.955.22 1.335.463.812.52.844.525 1.168.2zm-.96-.312-.45-.372.674-1.03.674-1.03.064 1.114c.08 1.404-.274 1.89-.963 1.318zm-1.996-.64c-.168-.166-.132-1.768.045-2.045.212-.332 2.448-.593 2.625-.306.076.123-.187.705-.584 1.295-.574.853-.85 1.082-1.347 1.121-.344.027-.677-.002-.74-.064zm-2.467-1.252c-.189-.21-.343-.536-.343-.726 0-.288.225-.347 1.328-.347 1.227 0 1.321.032 1.22.415-.059.228-.272.415-.473.415-.2 0-.481.14-.623.31-.344.415-.692.393-1.11-.067zm-1.744-.38c-.142-.058-.259-.29-.259-.516 0-.339.119-.4.674-.346.517.05.69.174.74.532.054.372-.03.463-.414.45-.265-.009-.598-.063-.74-.12zm-34.17.94c.51-.47.929-.938.929-1.037 0-.1-.747-.181-1.66-.181h-1.66v2.074h.732c.567 0 .937-.19 1.659-.856zm-2.183-.181v-.83l1.504.005 1.504.006-.873.824c-.624.589-1.054.825-1.504.825-.597 0-.63-.044-.63-.83zm3.112-1.951c0-.16-.464-.68-1.03-1.155-.829-.693-1.165-.85-1.712-.797-.665.064-.682.09-.744 1.154l-.062 1.09h1.774c1.386 0 1.774-.064 1.774-.292zm-3.112-.746c0-.786.034-.83.63-.83.45 0 .881.237 1.505.825l.873.825-1.504.005-1.504.005zm28.834.311a.312.312 0 0 0-.311-.31c-.324 0-.412.245-.173.483.238.239.484.151.484-.173zm14.417-1.037c0-.391-.158-.418-2.784-.473-2.808-.058-3.296.049-3.056.673.109.284.525.323 2.983.273 2.699-.055 2.857-.08 2.857-.473zM71.404 14.55l.782-1.763 3.362-.057 3.362-.057.204-.539c.32-.839-.06-1.11-1.55-1.11-.706 0-1.378.095-1.494.211-.138.139-1.344.163-3.474.071-2.866-.123-3.288-.187-3.466-.52-.451-.843-1.24-1.007-4.833-1.007-3.4 0-3.42.003-3.826.519-.3.381-.605.518-1.156.518h-.748v3.491l1.267 1.059 1.267 1.058 4.76-.055 4.76-.056zm-11.55.355c-.862-.879-.872-.907-.872-2.385v-1.496h.724c.5 0 .805-.13.983-.415.243-.388.484-.415 3.743-.415 2.858 0 3.576.06 3.995.335.281.184.512.464.512.622 0 .227.458.287 2.165.287 1.22 0 2.222.091 2.294.208.167.27 2.53.27 2.697 0 .139-.225 2.647-.292 2.862-.077.072.073.038.306-.076.52-.19.353-.499.387-3.578.387h-3.37l-.754 1.66-.753 1.659h-9.699zm-21.527-2.34c.18-.18.326-.453.326-.608 0-.395-.583-.933-1.01-.933-.82 0-1.192 1.236-.494 1.642.512.299.803.274 1.178-.101zm-1.184-.356c-.165-.43.157-.822.601-.736.552.106.51.882-.05.962-.242.034-.49-.067-.551-.226zm20.06.224c.274-.39.28-.52.04-.881-.376-.567-.901-.644-1.388-.203-.49.442-.5.672-.056 1.162.46.51 1.015.479 1.405-.078zm-1.258-.268c-.071-.187-.034-.435.083-.552.338-.339.983-.11.983.347 0 .528-.877.696-1.066.205zm-1.63-.312c0-.27-.957-.318-7.144-.365-4.186-.032-7.223.024-7.336.137-.582.582.217.648 7.285.594 6.232-.047 7.194-.096 7.194-.366zm-18.566-.103c0-.332-6.892-.276-7.003.056-.07.21.658.253 3.458.208 2.188-.035 3.546-.136 3.545-.264zm74.559 14.465c-.144-.098-.19-.902-.132-2.27.083-1.954.128-2.143.584-2.442.49-.321.495-.363.495-3.86 0-2.086-.09-3.703-.219-3.945-.211-.395-.155-.407 1.608-.349l1.827.06-.022.726c-.12 4.115-.324 9.065-.416 10.105-.103 1.183-.17 1.325-.795 1.712-.687.424-2.464.584-2.93.263zm3.373-4.142c-.053-.201-.1-.086-.103.256-.004.342.038.507.095.367s.06-.42.008-.623zm.064-1.416c0-.44-.084-.686-.208-.61-.344.213-.227 1.348.138 1.348.038 0 .07-.332.07-.738zm.207-1.75c0-.216-.093-.449-.207-.52-.122-.074-.208.14-.208.52 0 .378.086.593.208.518.114-.07.207-.304.207-.519zm0-1.66c0-.343-.093-.623-.207-.623-.231 0-.287.89-.07 1.107.235.234.277.16.277-.484zm0-1.679c0-.096-.14-.122-.311-.056a.509.509 0 0 0-.311.434c0 .256.057.266.31.056.172-.142.312-.337.312-.434zm-80.489 8.83c-.199-.24-.237-1.233-.157-4.127l.104-3.812-.646-.579c-.632-.568-.69-.578-2.875-.52-1.927.05-2.23.014-2.23-.272 0-.297.79-.33 7.675-.33 6.886 0 7.675.033 7.675.33 0 .287-.305.322-2.302.263l-2.301-.069-.622.696c-.485.543-.592.817-.489 1.242.21.863.497 3.936.514 5.5.018 1.836-.154 1.979-2.398 1.988-1.262.005-1.751-.073-1.948-.31zm2.718-.513c.107 0 .19-1.436.19-3.305 0-2.727-.057-3.36-.326-3.63-.487-.487-1.071-.394-1.484.235-.31.472-.368 1.04-.368 3.575v3.014l.622.134c.343.074.747.098.899.055.152-.043.362-.078.467-.078zm-1.61-.467c-.233-.369-.068-5.6.187-5.912.359-.439 1.136-.312 1.275.207.163.608.161 2.121-.005 4.253-.132 1.703-.136 1.711-.712 1.711-.319 0-.654-.117-.744-.26zm54.55.445c-1.012-.293-.984-.528.097-.798 2.397-.597 2.473-1.218.54-4.383-1.246-2.037-1.465-2.286-2.291-2.601-.89-.34-.94-.337-1.949.136-.57.266-1.132.602-1.251.745-.224.27-.808.166-.808-.142 0-.097.61-.516 1.354-.933 1.407-.786 1.35-.781 3.248-.284.68.178.884.408 1.84 2.079.591 1.033 1.2 1.927 1.354 1.985.153.06.99-.104 1.861-.363 1.46-.433 1.627-.445 2.135-.149.606.354 1.484 1.869 1.484 2.56 0 .49-.001.49-4.037 1.659-2.693.78-2.61.768-3.576.489zm4.495-2.77c.313-.378.11-.735-.42-.735-.252 0-.402.142-.402.38 0 .68.407.855.822.355zm-5.885 1.42c-.21-.548-2.4-4.042-2.855-4.554-.57-.642-.474-.865.605-1.407.87-.435 1.082-.466 1.8-.26.733.21.955.457 2.23 2.494.779 1.243 1.416 2.476 1.416 2.741 0 .639-.74 1.097-2.017 1.248-.88.105-1.053.066-1.179-.262zm-16.378-1.884c-.213-.212-.154-1.517.122-2.702.19-.814.349-1.095.622-1.095.511 0 .478.826-.07 1.755-.28.476-.405.967-.346 1.37.09.615-.066.935-.328.672zm7.024-.94a5.913 5.913 0 0 1-1.173-.605c-.303-.212-.789-.385-1.08-.385-.525 0-.526-.004-.18-.607.33-.574.327-.629-.042-1.037-.388-.428-.386-.43.342-.43.687 0 .74.048.858.79.191 1.197.918 1.758 2.42 1.866 1.634.118 1.863-.084 1.863-1.645 0-.674-.093-1.22-.208-1.22-.114 0-.207.403-.207.895 0 .491-.139 1.075-.308 1.296-.288.378-.3.363-.188-.237.092-.494 0-.779-.4-1.245l-.52-.604h-4.167c-2.291 0-4.167-.026-4.167-.057 0-.032.328-.709.729-1.504l.729-1.447h4.057c3.388 0 4.11-.053 4.378-.322.545-.544.939-.255 1.778 1.306.72 1.338.774 1.536.495 1.815-.172.172-.44.312-.597.312-.52 0-.782.488-.782 1.458 0 1.328-.58 1.867-1.984 1.845-.563-.01-1.304-.116-1.646-.237zm-4.175-1.295c-.22-.574.026-.694.399-.195.325.436.33.5.045.5a.513.513 0 0 1-.444-.305zm-.078-1.239c0-.178.094-.323.208-.323.114 0 .207.088.207.195 0 .107-.093.253-.207.323-.114.07-.208-.017-.208-.195zm19.755-2.45c-.703-.863-1.316-1.856-1.44-2.333-.12-.456-.286-.993-.369-1.193-.142-.341.265-.363 6.877-.363h7.029l2.432 2.299c1.46 1.38 2.432 2.458 2.432 2.697 0 .385-.25.397-7.869.397h-7.869zm2.775.773c.322-.491.32-.55-.036-.942-.464-.513-1.084-.449-1.482.154-.268.406-.255.495.132.882.57.57.969.543 1.386-.094zm11.786.198c.18-.18.326-.453.326-.607 0-.726-1.108-1.195-1.618-.685s-.04 1.618.685 1.618c.154 0 .428-.147.607-.326zm-85.24-.688-1.038-.369-.061-1.486-.061-1.487 2.187-.031a106.28 106.28 0 0 0 2.447-.052c.371-.03.325 2.305-.061 3.09-.274.558-.415.627-1.341.664-.57.022-1.502-.126-2.073-.329zm3.096-1.594c.435-.435.41-.777-.09-1.23-.844-.764-2.008.502-1.202 1.307.344.345.904.312 1.292-.077zm-1.211-.265c-.232-.376.127-.884.578-.82.603.086.598.87-.007.956-.246.035-.503-.026-.571-.136zm-13.416.954c-.017-.834-.028-.85-.199-.277-.1.333-.133.683-.074.778.139.224.021.219-.63-.029-.479-.182-.531-.311-.528-1.296.005-1.748-.083-1.708 3.878-1.782l3.482-.065v3.242l-.726.143c-.399.08-1.73.15-2.956.156l-2.23.012zm98.248.065c-.786-.808-.8-.842-.311-.836.766.01 1.276.49 1.198 1.13l-.067.548zm-92.09-.809c-.2-1.76-.071-1.97 1.097-1.797.526.079.969.157.984.175.015.018.066.663.113 1.433l.086 1.4h-2.144zm3.082.073c-.165-1.316-.039-1.811.415-1.637.445.171.467 2.775.023 2.775-.203 0-.34-.357-.438-1.138zm-11.912.53c-.302-.565-.267-1.092.108-1.628.561-.8.817-.56.831.785.011 1.058-.042 1.244-.356 1.244-.202 0-.465-.181-.583-.402zm11.47-.948c0-.798.038-1.1.083-.67.045.431.044 1.084-.002 1.453-.045.368-.082.016-.081-.783zm59.407-.785c-.164-.43.157-.822.602-.736.551.106.51.882-.05.962-.242.034-.49-.067-.552-.226zm-5.75-1.704c-.285-.163-.732-.3-.993-.304-.463-.007-.473-.053-.415-1.822l.06-1.815 1.956-.06 1.957-.06 1.207 1.194c.664.657 1.205 1.104 1.203.994-.001-.11-.438-.621-.97-1.135-.777-.75-.893-.947-.592-1.005.59-.114 3.018 2.4 3.018 3.125 0 .451-.097.577-.444.577-.244 0-.568-.163-.72-.363-.262-.346-.275-.346-.282 0-.005.315-.226.363-1.672.363-1.29 0-1.693.07-1.786.311-.149.389-.846.389-1.527 0zm.208-.547c0-.16.3-.194.933-.107l.934.127-.02-.877c-.018-.705-.05-.776-.165-.36-.119.432-.288.53-1 .582-.754.056-.869.006-.95-.414-.05-.27-.103-.094-.119.403-.015.485.065.882.18.882.113 0 .207-.106.207-.236zm-.945-3.1a.232.232 0 0 0-.317-.076.232.232 0 0 0-.076.318c.067.108.21.142.318.075a.232.232 0 0 0 .075-.318zm-3.204 3.147c0-.467-2.575-1.056-4.617-1.056H63.52l.065-.674.065-.674 2.248-.06c1.675-.043 2.383-.147 2.777-.405.374-.244.995-.35 2.108-.356l1.58-.009.06 1.712.06 1.71h-1.15c-.632 0-1.149-.084-1.149-.188zm.83-.226a.208.208 0 0 0-.208-.207.208.208 0 0 0-.207.207c0 .114.093.207.207.207a.208.208 0 0 0 .208-.207zm1.244.035c0-.27-.246-.45-.447-.326-.214.132-.03.498.252.498.108 0 .195-.077.195-.172zM3.322 9.642c-.075-.076-.055-.239.045-.364.1-.124.246-.53.326-.9.11-.516.067-.704-.184-.8-.944-.363.058-.497 3.718-.497h4.045v2.697H7.365c-2.149 0-3.968-.061-4.043-.136zm1.893-1.264c-.045-.71-.15-.986-.374-.986s-.329.276-.374.986c-.057.884-.019.985.374.985s.431-.101.374-.985zm1.653.402c.045-.136-.066-.247-.246-.247a.33.33 0 0 0-.329.329c0 .366.447.302.575-.082zm1.244 0c.046-.136-.065-.247-.246-.247a.33.33 0 0 0-.328.329c0 .366.446.302.574-.082zm1.293.065a.312.312 0 0 0-.312-.312c-.323 0-.411.246-.172.484.238.24.484.151.484-.172ZM6.5 7.807a.312.312 0 0 0-.312-.31c-.324 0-.411.245-.172.483.238.239.484.151.484-.173zm1.037 0a.312.312 0 0 0-.311-.31c-.324 0-.412.245-.173.483.238.239.484.151.484-.173zm1.244 0a.312.312 0 0 0-.31-.31c-.325 0-.412.245-.174.483.239.239.484.151.484-.173Zm1.197-.064c.046-.136-.065-.247-.246-.247a.33.33 0 0 0-.328.329c0 .366.446.302.574-.082zm1.92.739.006-1.297.788-.363c.434-.2.876-.363.983-.363.107 0 .208.569.224 1.264.034 1.468-.361 2.055-1.384 2.055h-.622l.005-1.296zm8.912.774c-.19-.229-.97-.31-3.39-.354l-3.142-.057-.062-1.315c-.037-.79.035-1.431.181-1.608.194-.234 1.05-.293 4.24-.293 4.365 0 4.25.034 4.25-1.24 0-.628.303-.834 1.23-.834.623 0 1.172.485 1.292 1.14.052.284.24.416.592.416.429 0 .527-.112.58-.665l.065-.665h4.233c2.608 0 4.283.08 4.362.208.08.13.22.136.37.015.366-.294 6.147-.297 6.501-.003.22.183.35.183.532.002.314-.315 1.457-.31 1.775.008.193.194.304.194.498 0 .304-.304 3.9-.347 3.9-.046 0 .131.186.131.531 0 .706-.269 1.613-.257 1.894.024.164.164.344.164.65 0 .233-.125 1.166-.227 2.074-.227h1.65l.085.726.085.726-13.597.036-13.598.036 9.75.172c14.281.251 16.906.362 16.906.712 0 .16.186.289.415.289.228 0 .415.087.415.193 0 .106.146.339.326.518.296.297.14.326-1.712.32-1.982-.005-2.054-.022-2.642-.622-.333-.339-.675-.616-.76-.616-.085 0-.39.28-.678.622-.668.794-1.09.784-1.947-.047-.754-.73-1.204-.67-1.608.22-.302.663-1.103.57-1.926-.225l-.699-.674-.605.674c-.769.857-1.422.874-2.03.052-.253-.342-.58-.622-.729-.622-.351 0-1.216.923-1.034 1.104.077.077-.138.14-.478.14-.416 0-.813-.203-1.214-.622-.692-.722-.947-.766-1.42-.243-.45.498-.433.658.071.658.352 0 .415.138.415.908 0 1.148-.318 1.415-1.591 1.334l-1.002-.064-.064-1.017c-.042-.655.028-1.075.196-1.179.192-.118.127-.273-.246-.583-.28-.233-.555-.423-.612-.423-.057 0-.407.275-.777.612-.57.519-.675.757-.675 1.55 0 .902-.022.936-.622.936-.608 0-.622-.023-.622-1.037 0-.656.09-1.037.243-1.037.134 0 .025-.234-.243-.519-.6-.638-.782-.639-1.504-.003-.48.423-.57.667-.57 1.549 0 .979-.035 1.047-.52 1.047-.48 0-.518-.072-.518-.996 0-.547-.112-1.107-.249-1.244-.193-.194-.058-.25.61-.25.473 0 .917-.092.988-.206.083-.135-.921-.208-2.86-.208-2.707 0-3.023.038-3.357.408-.364.402-.34.408 1.883.466l2.252.06-.067.933c-.037.513-.082.944-.1.957-.018.012-1.449.078-3.179.146-2.585.102-3.189.07-3.391-.173zm2.016-1.19c-.05-.256-.09-.046-.09.467 0 .514.04.724.09.467.05-.257.05-.677 0-.933zm-4.78-1.194.45-.828h-.484c-.326 0-.626.228-.916.699-.543.877-.54.961.035.959.33-.001.598-.244.916-.83zm1.522.002.423-.83-.47.002c-.332 0-.612.247-.945.83l-.472.828h.52c.399 0 .62-.195.944-.83zm1.58.015c.426-.783.428-.814.05-.913-.287-.075-.56.142-1.02.813l-.63.915.58-.002c.461-.001.672-.169 1.02-.813zm11.838-.259c.264-.248.48-.504.48-.57 0-.066-.467-.12-1.037-.12-.57 0-1.037.041-1.037.09 0 .132.882 1.051 1.008 1.051.058 0 .322-.203.586-.45zm3.8-.57c0-.066-.421-.12-.934-.12-.514 0-.934.041-.934.09 0 .05.204.308.452.572l.452.482.482-.453c.264-.248.481-.505.481-.571Zm3.045.57c.264-.248.48-.504.48-.57 0-.091-1.503-.113-2.058-.03-.118.019.857 1.051.992 1.051.059 0 .322-.203.586-.45zm3.773-.243c.213-.256.093-.313-.795-.374-.575-.04-1.046-.032-1.046.018s.2.303.444.562c.463.493.866.434 1.397-.206zm3.138.176.487-.519H45.011l.487.519c.268.285.548.518.623.518.074 0 .354-.233.622-.518zm3.526 0 .488-.519h-2.22l.488.519c.268.285.548.518.622.518.074 0 .354-.233.622-.518zM24.301 4.537c.083-.428-.516-.717-.832-.401-.316.316-.027.915.401.832a.588.588 0 0 0 .431-.43zM37.616 8.43c0-.876.072-1.141.311-1.141.171 0 .311.093.311.207 0 .136 3.492.208 10.06.208H58.36v1.66h-.897c-.871 0-.895-.019-.81-.599.048-.328-.015-.66-.14-.738-.15-.092-.227.13-.227.65v.79l-4.2-.064c-2.31-.035-4.29-.152-4.398-.26-.111-.11-2.15-.195-4.678-.195-3.208 0-4.551-.07-4.73-.249-.162-.162-.248-.17-.248-.025 0 .582.678.682 4.994.741l4.444.06-4.927.048-4.926.048zm-7.883-.104c0-1.014.014-1.037.623-1.037.608 0 .622.023.622 1.037s-.014 1.037-.622 1.037c-.609 0-.623-.023-.623-1.037zm3.32 0c0-1.014.013-1.037.622-1.037.608 0 .622.023.622 1.037s-.014 1.037-.622 1.037c-.609 0-.623-.023-.623-1.037zm25.514-.195c0-.678.07-1.276.157-1.33.086-.053.412-.047.726.012.543.104.569.164.569 1.33v1.22h-1.452zm1.867-.03c0-1.08.49-1.009.583.085.049.58-.013.762-.26.762-.24 0-.323-.218-.323-.847zm1.037.225c0-.6.034-.622.933-.622.9 0 .934.023.934.622 0 .6-.035.622-.934.622s-.933-.023-.933-.622zm-3.993-.967a.8.8 0 0 1 .518 0c.143.057.026.104-.259.104-.285 0-.402-.047-.26-.104zm12.654-1.16c-.255-.694.06-.777 2.947-.777 2.29 0 2.913.062 3.12.311.226.273.026.311-1.622.311-1.034 0-1.938.094-2.008.208-.19.307-2.321.262-2.437-.052zm.362-1.4c.07-.114.338-.207.593-.207.561 0 .963-.363.963-.871 0-.273.16-.373.593-.373.327 0 1.01-.058 1.518-.127.712-.098 1.005-.047 1.274.222.428.428.472 1.564.06 1.564-.158 0-.274-.16-.259-.355.016-.197-.146-.391-.363-.436-.311-.064-.37.01-.28.355.111.422.047.436-2.056.436-1.394 0-2.125-.074-2.043-.207z" style="fill:#000;fill-opacity:1;stroke-width:.207435"/></svg>