<svg xmlns="http://www.w3.org/2000/svg" width="399.709" height="128" viewBox="0 0 105.756 33.867"><path d="M75.456 30.576c-.15-.06-.217-.56-.217-1.634 0-1.324-.05-1.593-.35-1.872-.27-.25-.324-.454-.239-.882.129-.642.095-.645 2.198.181.742.291 1.449.491 1.571.444.206-.079 4.483-10 4.483-10.398 0-.101-.44-.178-1.017-.178H80.87l-1.976 4.622-1.976 4.623-1.057-.051-1.057-.051v-.868c0-.799.033-.867.42-.87.38-.003.563-.35 2.002-3.813l1.584-3.81 2.425.031c2.393.03 2.439.038 3.353.584 1.221.73 1.202 1.005-.021.305-.88-.503-.96-.52-1.112-.23-.68 1.295-4.716 11.081-4.629 11.222.061.099.407.31.768.469.586.258.64.333.5.7-.122.323-.252.394-.597.328-.373-.071-.495.02-.786.59l-.344.674-1.346-.014c-.74-.008-1.444-.053-1.564-.102zm2.715-1.025c.112-.244.203-.471.203-.506 0-.087-2.27-1.14-2.458-1.14-.085 0-.155.47-.155 1.045v1.045h1.104c1.014 0 1.12-.036 1.306-.444zm1.552-1.42c-.359-.145-.653-.341-.653-.436 0-.095.858-2.223 1.906-4.727 2.345-5.607 2.612-6.209 2.743-6.209.057 0 .444.216.86.479.552.349.73.561.66.783-.12.379-.007.384.542.024.543-.355.56-.076.026.425a1.516 1.516 0 0 1-.936.38c-.613 0-.352-.513-2.844 5.572a395.342 395.342 0 0 1-1.627 3.945c-.013.014-.318-.093-.677-.237zm-2.481-1.967c-.384-.178-.57-.329-.413-.336.195-.009.587-.717 1.237-2.233.882-2.059.989-2.225 1.457-2.278.737-.083.954-.378.279-.378-.613 0-.641-.04-.377-.534.125-.234.365-.337.783-.337.332 0 .604-.078.604-.174 0-.096-.235-.174-.523-.174-.593 0-.594 0-.32-.602.146-.32.336-.443.686-.443.267 0 .533-.078.592-.174.063-.102-.113-.174-.421-.174-.501 0-.519-.023-.33-.436.153-.338.328-.435.78-.435.319 0 .58-.079.58-.174 0-.096-.195-.175-.435-.175-.27 0-.435-.098-.435-.26 0-.19.193-.262.696-.262.436 0 .697.08.697.215 0 .26-3.6 8.766-3.944 9.32-.286.46-.292.46-1.193.044zm-5.263-.81c-.117-.048-.259-.375-.316-.727-.057-.352-.46-1.44-.896-2.415-.673-1.507-.872-1.803-1.316-1.958-.392-.136-.502-.265-.437-.513.05-.19-.082-.541-.307-.824l-.393-.493-.976.648c-.917.608-1.058.648-2.328.647h-1.353l-1.466-1.959c-.806-1.077-1.664-2.174-1.905-2.438l-.438-.479h2.722c1.626 0 2.765.07 2.829.175.136.22 1.355.228 1.576.011.253-.248 3.157-.394 8.385-.422 3.53-.018 4.793-.08 4.955-.242.317-.317 2.14-.284 2.412.043.163.196.599.261 1.74.261h1.524l.108.653c.13.786.144 1.785.026 1.785-.047 0-.635-.352-1.308-.783l-1.222-.784h-5l-.383.914c-.21.503-.933 2.262-1.606 3.909-1.123 2.746-1.263 2.998-1.688 3.048-.434.05-.466.115-.515 1.055l-.052 1.001-1.08-.014c-.594-.007-1.175-.052-1.292-.1zm1.241-.867c.126-.329-.177-.762-.533-.762-.297 0-.484.425-.346.784.134.35.743.334.88-.022zm1.542-5.303c.269-.122.694-.756 1.228-1.83.449-.905.816-1.722.816-1.816 0-.103-.798-.172-1.993-.172-1.862 0-2.01.025-2.264.387-.149.213-.27.546-.27.74.004.5 1.666 2.848 2.037 2.876.02.001.22-.082.446-.185zm-8.134-.607c.232-.186.272-.3.127-.36-.13-.055-.173-.277-.113-.575.058-.292-.02-.713-.197-1.054l-.293-.568-1.77.124c-.973.069-1.799.154-1.835.189-.036.035.344.615.844 1.29l.909 1.226h.995c.642 0 1.115-.097 1.333-.272zm28.686 6.15c.046-.12 1.309-3.093 2.805-6.606 1.496-3.514 2.72-6.511 2.72-6.662 0-.173.156-.273.425-.273.562 0 1.317.296 1.317.516 0 .096-1.097 2.67-2.438 5.717-1.341 3.048-2.438 5.596-2.438 5.663 0 .066.098.121.218.122.516.002 1.497.374 1.583.6.052.136-.063.448-.256.694-.337.429-.424.447-2.186.447-1.397 0-1.814-.052-1.75-.218zm-4.529-.348c-.36-.461-.38-1.072-.05-1.604.35-.569 1.97-4.47 2.727-6.574.252-.699.633-1.433.846-1.632.214-.2.482-.643.595-.987l.207-.624 1.57.527c1.273.427 1.55.58 1.462.812-.06.157-.633 1.512-1.274 3.01l-1.166 2.726-.87.114c-.575.074-.965.234-1.145.468-.15.195-.542.41-.87.477-.52.106-.607.203-.7.767-.057.356-.234.79-.393.965-.445.492-.373.87.147.77.353-.068.435-.014.435.285 0 .266-.11.37-.392.372-.317.002-.342.035-.13.171.199.129.132.17-.284.172-.3 0-.621-.096-.715-.215zm5.161-7.139c.608-1.46 1.139-2.741 1.18-2.849.095-.249-.96-.698-1.146-.487-.212.239-1.91 4.637-1.943 5.032-.065.776.012.958.407.958.348 0 .535-.331 1.502-2.654zm-3.553 7.182c.192-.082.59-.155.885-.162.428-.01.648-.167 1.088-.78.304-.423.552-.9.552-1.058 0-.158.235-.63.522-1.046.286-.417 1.117-2.116 1.846-3.776.73-1.66 1.356-3.068 1.394-3.13.037-.062-.077-.292-.255-.512-.316-.39-.314-.417.09-1.302.228-.497.369-1.024.312-1.171-.157-.41-1.072-.712-2.027-.668-.848.039-.86.032-.806-.447.037-.32.174-.51.4-.552.522-.1 3.405.877 3.586 1.214.235.439-.06 1.236-2.686 7.263-1.306 3-2.376 5.519-2.376 5.597 0 .366-.91.704-1.866.692-.724-.009-.91-.054-.659-.162zm-.011-.95c-.352-.383-.353-.404-.044-.98.174-.325.316-.69.316-.815 0-.123.24-.272.535-.331.293-.059.655-.292.803-.518.207-.316.427-.412.946-.412.373 0 .677.063.677.14 0 .077-.263.395-.584.706-.442.429-.563.672-.5 1.004.063.328-.061.589-.495 1.036-.661.682-1.138.731-1.654.17zm-1.75-2.838c1.315-4.41 1.69-5.817 1.722-6.475l.04-.796-2.207-.155c-1.213-.085-2.33-.107-2.481-.049-.235.09-.276.487-.276 2.625 0 2.397-.018 2.525-.362 2.634-.199.063-.407.07-.462.014-.056-.056-.163-1.245-.24-2.641-.075-1.397-.229-2.829-.341-3.18-.198-.62-1.854-2.992-2.089-2.992-.063 0-.414.237-.778.526-1.154.917-2.052.943-2.138.06-.053-.539.354-.945.58-.579.165.267.582.194 1.106-.193.447-.33.645-.351 2.474-.253 3.195.17 7.807.19 9.172.036l1.263-.14v.82c0 .638-.17 1.132-.764 2.23-.42.776-1.132 2.43-1.58 3.675-1.346 3.732-2 5.138-2.39 5.138-.242 0-.314-.088-.25-.305zm-.72-.159c-.12-.048-.218-.183-.218-.3 0-.117-.47-.543-1.042-.947l-1.042-.735.108-1.085c.06-.596.128-1.108.15-1.136.024-.029.538.26 1.142.642.604.383 1.153.662 1.218.621.066-.04.206-.417.312-.838.106-.42.241-.891.301-1.047.096-.25-.083-.284-1.477-.284-1.47 0-1.586-.026-1.586-.348 0-.33.116-.349 2.09-.349 1.556 0 2.09.056 2.09.218 0 .12-.324 1.276-.72 2.569-.396 1.293-.757 2.527-.804 2.743-.086.4-.142.43-.523.276zm-29.705-2.368-1.36-.686-4.346-.002-4.347-.002.065-.634.065-.633 4.872-.047 4.871-.046 1.169 1.396c1.003 1.199 1.112 1.392.77 1.368-.22-.016-1.01-.337-1.759-.714zm-51.023-.585c-.069-.068-.125-1.053-.125-2.19v-2.064l-.412.27c-.334.22-.888.261-2.917.222-2.354-.046-2.508-.07-2.554-.397-.027-.191.404-1.485.958-2.873l1.007-2.526 1.074-.051c.673-.032 1.152-.146 1.284-.305.146-.177.572-.253 1.412-.253h1.201l-.283.479-.284.479.381-.48c.35-.439.48-.478 1.586-.478.847 0 1.205.064 1.206.217.001.12-.41 1.113-.914 2.207l-.916 1.99-.104-.945c-.088-.794-.049-1.006.247-1.335.539-.6.187-.696-.43-.119l-.544.51.114-.479c.086-.36.05-.479-.147-.479-.144 0-.31.196-.37.436-.118.467-.343.571-.47.217-.042-.12-.14-.159-.216-.088-.077.072-.045.336.07.588.183.402.282.446.82.359l.612-.1-.102 3.605-.103 3.604-.478.052c-.264.028-.535-.005-.603-.073zm-.299-4.768c0-.096-.322-.175-.715-.175-.502 0-.69-.064-.629-.217l.81-2.025c.398-.994.682-1.847.633-1.897-.194-.193-1.736 3.88-1.601 4.231.112.293 1.502.37 1.502.083zM7.028 10.62c.546-1.361.577-1.524.296-1.524-.231 0-.465.372-.876 1.392-.314.777-.512 1.521-.45 1.684.165.428.345.156 1.03-1.552zm-1.241.038c.26-.706.433-1.325.383-1.375-.05-.05-.296.025-.546.166-.59.333-1.277 2.21-.896 2.451.414.262.572.076 1.059-1.242zm4.317.441c0-.281-.78-.373-.943-.111-.137.222.079.372.537.372.245 0 .406-.103.406-.26zm32.655 4.434c-3.375-2.475-3.695-2.791-3.472-3.428.219-.626.949-.742 1.458-.233.32.32.572.36 2.323.36h1.963l1.29 1.298 1.29 1.298 1.057.052 1.057.05.051 1.263.051 1.263-2.228-.003-2.228-.003-2.612-1.917zm5.311.654c0-.513-.18-.722-1.736-2.01l-1.736-1.438-1.442.051c-1.377.048-1.442.069-1.442.454 0 .313.467.75 2.09 1.952l2.09 1.549 1.088.007 1.088.007zm-4.125-1.3c-1.071-.828-1.91-1.568-1.862-1.645.048-.077.638-.14 1.312-.14h1.226l1.463 1.263c1.026.885 1.463 1.38 1.463 1.654 0 .353-.082.391-.826.383-.768-.009-.969-.119-2.776-1.515zm6.215.389v-.439l4.29.047c4.23.046 4.292.052 4.549.438l.26.392H50.16zm9.23.003c-.306-.326-.342-.436-.144-.436.259 0 .841.522.841.754 0 .24-.3.103-.696-.318zm-12.834-1.872-1.245-1.263.266-.653.267-.653h8.492l.614 1.219c.57 1.133.653 1.219 1.177 1.217.515 0 .625-.107 1.26-1.217l.697-1.216 4.157-.002c4.615-.001 4.26-.11 3.754 1.149-.415 1.03-.248 1.114 2.185 1.114h2.182v1.447l-2.525-.115c-1.65-.074-2.525-.054-2.525.06 0 .115-3.014.175-8.756.175H47.8zm3.24.152c.289-.418.475-.81.415-.87-.174-.175-2.837-.127-2.837.051 0 .175 1.578 1.578 1.776 1.58.068 0 .359-.342.647-.76zm-1.31.036a17.796 17.796 0 0 1-.668-.523c-.091-.08.365-.144 1.013-.144h1.179l-.372.522c-.444.624-.505.632-1.152.145zm4.21.536c.113-.185-1.076-1.552-1.35-1.552-.22 0-1.19 1.421-1.085 1.59.136.22 2.295.187 2.434-.038zm-2.01-.289c.003-.072.156-.327.342-.566l.337-.435.57.566.57.566h-.911c-.501 0-.91-.06-.907-.131zm3.72-.15c.804-1.008.724-1.191-.547-1.252-1.367-.065-1.527.189-.74 1.18.304.386.606.701.67.701.063 0 .341-.283.617-.628zm-1.094-.255c-.218-.295-.358-.574-.312-.62.046-.046.446-.06.889-.03l.805.054-.395.563c-.217.31-.438.564-.492.566-.054.001-.277-.239-.495-.533zm17.399.206c0-.458-.09-.712-.276-.784-.151-.058-1.21-.105-2.35-.105-2.335 0-2.346-.008-1.725-1.226l.352-.69h3.786l.734-1.17c.599-.956.698-1.228.54-1.481-.181-.29-.067-.31 1.81-.31 1.726 0 2.005.04 2.005.28 0 .181.095.243.27.176.312-.12.272-.04-.566 1.132-.706.988-.718 1.199-.07 1.199.442 0 .617.176 1.4 1.41.494.776 1.02 1.6 1.17 1.829l.274.418h-7.354zm2.612-3.102c0-.179-1.08-1.445-1.232-1.445-.139 0-1.032 1.267-1.032 1.464 0 .043.129.104.286.134.397.078 1.978-.044 1.978-.153zm-1.567-.574c.204-.287.4-.522.435-.522.035 0 .23.235.435.522l.372.523h-1.614Zm3.015-.003c.269-.38.44-.77.381-.867-.15-.244-2.003-.226-2.003.02 0 .325.749 1.547.946 1.543.102-.002.406-.315.676-.696zm-1.004-.046c-.407-.622-.308-.75.5-.648l.684.088-.44.51-.441.511zm3.562 2.438c-1.065-1.592-1.394-1.964-1.777-2.008l-.47-.054.807-1.121c.443-.617.906-1.122 1.028-1.122.123 0 1.049.364 2.059.81l1.836.808v1.484l.74-.086c.411-.049 1.07-.312 1.485-.593.41-.279.805-.507.877-.507.188 0 1.321 1.55 1.756 2.402.201.395.366.996.366 1.335v.617h-1.459c-1.084 0-1.514-.067-1.675-.261-.157-.189-.57-.261-1.483-.261-.965 0-1.29.062-1.367.26-.065.17-.33.26-.759.256-.643-.006-.688-.05-1.964-1.96zm2.282.398c.09 0 .243-.207.339-.46.22-.576-.188-1.282-.74-1.282-.473 0-1.01.478-1.01.898 0 .435.66 1.069.985.944.144-.055.336-.1.426-.1zm-.813-.423c-.347-.253-.242-.744.195-.911.36-.139.818.32.68.68-.152.396-.518.493-.875.231zm.587-.405c-.07-.367-.38-.344-.458.035-.033.157.063.27.23.27.18 0 .265-.114.228-.305zm8.393 1.96v-.436h4.354v.871h-4.354zm6.54 0c.055-.288.388-1.004.74-1.592.633-1.06.647-1.07 1.58-1.18 1.012-.119 1.763.176 1.763.693 0 .352-.665 1.643-.847 1.643-.078 0-.599-.157-1.155-.348-.557-.192-1.108-.348-1.225-.348-.117 0-.38.372-.583.827-.273.607-.345.688-.272.305zm-79.294-.395c-4.079-.045-4.223-.059-4.223-.392 0-.19.061-.345.137-.345.075 0 .27-.227.433-.504.284-.48 1.11-.765 1.675-.577.283.095.236.384-.062.384-.208 0-.616.487-.616.736 0 .035.746.082 1.658.105l1.657.042.563-.594c.574-.607 1.586-.955 1.795-.618.062.1-.053.298-.255.44-.402.281-.496.761-.15.757.349-.004.597-.228.732-.659.174-.557-.175-.906-.906-.906-.473 0-.742.138-1.186.61-.543.575-.64.61-1.708.61h-1.133l-.054-.567c-.051-.53-.1-.569-.794-.62-.622-.044-.812.025-1.198.436l-.46.49.265-.523c.146-.288.385-.812.532-1.166.256-.613.29-.634.773-.452.812.307 1.377.051 2.004-.908l.565-.864 1.267-.003 1.267-.003-.266.514c-.357.691-.334 1.004.091 1.232.694.37 1.253.135 1.972-.832l.681-.914h1.126c1.007 0 1.112.032.994.304-.072.168-.167.556-.21.863-.07.486-.02.573.374.672.793.2 1.296-.059 1.892-.969.489-.748.642-.864 1.145-.867.32-.002.554.055.521.127a50.42 50.42 0 0 1-.54 1.045l-.48.915h-2.093c-1.607 0-2.19.063-2.51.272-.49.321-.79 1.085-.79 2.007 0 .364-.059.685-.13.714-.073.03-2.032.033-4.355.008zm4.765-.359c-.05-.079-.045-.314.01-.522.098-.376.134-.379 4.267-.379h4.169l.182-.522c.1-.288.276-.523.391-.523.308 0 .628.373.628.732 0 .285.199.313 2.245.313h2.245l.111-.443c.061-.243.227-.487.37-.542.337-.13.776.243.776.658 0 .3.156.327 1.833.327 1.807 0 1.835.006 2.003.447.093.246.17.48.17.522 0 .144-19.312.076-19.4-.068zm9.472-1.336c0-.145-.154-.262-.348-.262-.193 0-.348.117-.348.262 0 .145.155.261.348.261.194 0 .348-.116.348-.261zm5.573 0a.262.262 0 0 0-.26-.262.262.262 0 0 0-.262.262c0 .143.118.261.261.261a.262.262 0 0 0 .261-.261zm20.948.914c-.092-.12-.421-.668-.73-1.219l-.563-1.001h-29.09l.597-1.089.598-1.088h20.883c15.272 0 20.939-.053 21.092-.197.115-.108.755-.202 1.423-.208 1.71-.016 1.851.205.96 1.5l-.682.994-6.267.047-6.267.046-.663 1.217c-.652 1.194-.957 1.43-1.29.998zM32.06 10.135c.408-.218.432-.57.064-.939-.206-.206-.356-.229-.61-.093a.644.644 0 0 0 .155 1.199c.03.007.206-.068.391-.167zm-.524-.162c-.294-.182-.112-.703.246-.703.148 0 .267.151.267.338 0 .415-.2.558-.513.365zm6.509.07c.374-.375.062-.947-.516-.947-.236 0-.43.033-.43.073 0 .04-.043.187-.097.326-.096.251.334.82.62.82.082 0 .272-.123.423-.273zm-.667-.03c-.057-.057-.104-.253-.104-.436 0-.41.579-.352.66.065.054.284-.364.563-.556.371zm9.2.029c.313-.312.31-.301.169-.67-.148-.386-.89-.345-1.107.06-.136.254-.113.404.093.61.343.343.502.343.846 0zm-.587-.069c-.294-.182-.112-.703.246-.703.148 0 .267.151.267.339 0 .414-.2.557-.513.364zm8.866.09c.362-.437.147-.88-.429-.88-.36 0-.536.096-.578.314-.07.359.255.818.578.818.12 0 .313-.113.429-.252zm-.705-.2c-.155-.187-.161-.312-.024-.449.24-.24.735-.06.735.268 0 .363-.462.48-.71.18zm10.18-.107.325-.398-1.327-.051c-.73-.028-1.326-.126-1.326-.218 0-.097-.867-.167-2.071-.167-1.728 0-2.09.046-2.177.276-.173.45-.121.909.112.992.12.043 1.55.053 3.178.021 2.84-.055 2.974-.073 3.286-.455zm-6.302-.18c.052-.372.143-.395 1.727-.442 1.334-.04 1.717.004 1.894.218.153.184.537.267 1.245.267.566 0 1.024.078 1.024.174 0 .11-1.107.174-2.973.174h-2.973Zm-38.166 2.35c.01-.23.418-.677.81-.886.518-.275 24.61-.292 24.61-.017 0 .103-.08.338-.18.523-.16.301-.38.337-2.062.337-1.662 0-1.92-.041-2.198-.348-.173-.192-.533-.349-.798-.349-.471 0-1.03.385-1.03.71 0 .088-.806.161-1.791.161h-1.79l-.198-.522c-.13-.343-.318-.523-.548-.523-.407 0-.898.435-.898.796 0 .202-.395.249-2.09.249-1.897 0-2.09-.029-2.09-.314 0-.828-.925-.971-1.358-.21l-.297.522-3.526.001c-3.02 0-3.527-.037-3.527-.26 0-.145-.155-.261-.348-.261-.194 0-.349.116-.349.26 0 .145-.078.262-.174.262-.096 0-.171-.059-.168-.13zM12.42 9.854c-.06-.157-.012-.53.108-.827.12-.297.257-.697.305-.889.206-.817.22-.835.494-.607.143.118.26.362.26.542 0 .26.13.327.644.327.657 0 .634.255-.035.378-.237.044-.348.202-.348.496 0 .238-.064.53-.141.65-.21.323-1.155.272-1.287-.07zm5.013.044c-.155-.186-.132-.387.098-.87.294-.616.32-.628 1.323-.628.637 0 .982.065.915.174-.06.096-.309.174-.555.174-.403 0-.436.051-.343.519.08.4.028.56-.228.697-.464.248-.972.22-1.21-.066zm4.992.123c-.375-.098-.387-.435-.04-1.107.246-.476.34-.514 1.23-.514.598 0 .923.066.856.174-.059.096-.251.174-.427.174-.374 0-.62.503-.368.755.115.115.074.25-.125.4-.304.231-.582.26-1.126.118zM54.34 7.713c0-.274.876-.345 4.18-.338 3.346.008 4.528.09 4.528.318 0 .073-1.96.143-4.354.155-2.484.013-4.354-.045-4.354-.135zm10.885-.707-.858-.87h5.61c3.086 0 5.61.043 5.61.095 0 .053-.12.327-.266.61-.2.387-.388.514-.762.514-.273 0-.594-.118-.714-.261-.177-.214-.765-.262-3.243-.262-1.664 0-3.026.07-3.026.153 0 .084.117.25.261.37.469.389.278.522-.747.522-.979 0-1.032-.025-1.865-.87zm-2.003-.713c0-.105.123-.614.274-1.132l.273-.941h9.09l.926-.523c.744-.42 1.131-.522 1.974-.522.612 0 1.047.076 1.047.182 0 .1-.127.688-.282 1.306l-.283 1.124h-6.068c-5.89 0-6.073.01-6.254.349-.197.368-.697.48-.697.157z" style="fill:#000;fill-opacity:1;stroke-width:.174156"/></svg>