<svg xmlns="http://www.w3.org/2000/svg" width="168.072" height="128" viewBox="0 0 44.469 33.867"><path d="M31.475 30.558c-.046-.074-.319-1.07-.607-2.212-.387-1.53-.475-2.126-.337-2.263.138-.135.254-.097.43.142.2.27.24.28.24.054 0-.194.256-.325.884-.453 6.252-1.278 6.526-1.321 6.67-1.041.357.696.88 2.587.75 2.714-.08.078-1.13.571-2.332 1.096-4.716 2.058-5.477 2.32-5.698 1.963zm8.288-3.696c-.724-1.903-1.267-3.901-1.105-4.064.28-.279.588-.214.792.167.2.373-.068.916-.362.735-.198-.123-.188-.006.045.505.107.234.327.467.489.519.42.133.546.586.253.91-.314.347-.167.975.26 1.11.384.123.412.344.06.479-.174.067-.314-.05-.432-.36zm.574-.238c-.48-.234-.628-.642-.34-.93.448-.449 1.18.24.775.73-.24.289.04.306.341.02.18-.169.208-.16.146.043-.097.318-.447.37-.922.137zm.728-.726c-.053-.139-.023-.252.066-.252.09 0 .163.113.163.252s-.03.252-.066.252c-.036 0-.11-.113-.163-.252zm-10.6-.33c.115-.298-.143-.225 4.242-1.2 2.999-.666 3.613-.758 3.735-.56.08.13.093.287.028.348-.11.1-7.562 1.658-7.937 1.658-.089 0-.12-.11-.067-.246zm9.916-.355c-.317-.317-.328-.445-.062-.711.304-.305.421-.25.609.288.244.7-.046.924-.547.423zm-9.67-.955c-.083-.218-.078-.46.012-.571.206-.257.758-.1.884.25.055.154.143.393.196.531.078.202.065.206-.063.024-.112-.16-.195-.172-.275-.042-.193.313-.602.208-.754-.192zm8.829.114c-.325-.324-.332-.48-.033-.727.473-.393 1.153.287.76.76-.247.299-.402.292-.727-.033zm-7.664-.322c-.294-.355-.085-.76.394-.76.45 0 .698.522.392.828-.252.252-.54.228-.786-.068zm1.28-.174c-.325-.326-.338-.452-.07-.72.292-.292.602-.248.796.114.129.24.095.381-.143.596-.286.26-.332.26-.583.01zm.86.067c.114-.115.25-.167.302-.115.052.052-.042.146-.208.209-.24.091-.259.072-.094-.094zm6.55.077a.463.463 0 0 1-.113-.286c0-.106.078-.096.2.025.109.11.16.238.111.286-.048.048-.137.036-.199-.025zm-6.24-.489c-.325-.324-.332-.48-.034-.727.474-.393 1.154.287.76.76-.247.299-.402.292-.726-.033zm.829.096c.057-.092.175-.168.262-.168.087 0 .158.076.158.168 0 .093-.118.169-.262.169-.144 0-.216-.076-.158-.169zm1.093-.166c0-.197.479-.347.581-.182.049.078-.063.181-.247.23-.184.047-.334.026-.334-.048zm-5.798-.22c-.072-.165-.084-.348-.026-.406.17-.17.308.07.23.4-.07.295-.079.295-.204.007zm.617.016c-.25-.25-.257-.516-.02-.754.255-.254.78-.084.877.285.143.549-.451.875-.857.47zm4.466.02c-.353-.205-.38-.547-.063-.81.473-.393 1.153.287.76.761-.225.272-.305.278-.697.05zm4.343-.082c-.33-.33-.332-.48-.008-.749.316-.262.385-.199.52.479.118.59-.084.697-.512.27zm-2.367-.072c.058-.093.27-.163.473-.157.355.012.356.017.032.157-.463.199-.628.199-.505 0zm-5.264-.202c-.308-.308-.242-.604.163-.733.466-.148.91.361.62.71-.23.279-.52.287-.783.023zm4.328-.156c-.15-.28-.142-.39.036-.502.589-.373 1.219.123.799.629-.278.335-.615.283-.835-.127zm-3.254-.252c-.12-.313.17-.736.505-.736.34 0 .6.58.364.815-.28.281-.747.238-.869-.08zm4.396-.057c-.103-.393.273-.757.637-.618.37.142.51.62.233.794-.394.25-.78.172-.87-.176zm-7.419-.095c-.332-.332-.34-.486-.04-.735.366-.304.803-.038.744.454-.063.528-.345.64-.704.281zm4.366-.007c-.325-.325-.332-.48-.033-.727.473-.394 1.153.286.76.76-.247.298-.402.291-.727-.033zm4.589.143c-.37-.087-.504-.659-.212-.9.485-.404 1.189.331.722.754-.128.116-.358.181-.51.146zm-7.88-.466c-.294-.354-.084-.759.394-.759.45 0 .698.522.393.827-.253.253-.541.228-.786-.068zm4.468-.014c-.312-.312-.328-.446-.082-.692.437-.436 1.204.251.81.726-.248.298-.403.29-.728-.034zm-3.382-.43c-.193-.606.615-.906.918-.34.114.213.105.37-.028.504-.31.31-.767.225-.89-.163zm4.478.048c-.193-.36.053-.699.506-.699.365 0 .552.479.303.778-.267.322-.613.288-.81-.08zm-7.14-.401c-.15-.561-.133-.634.132-.532.348.133.448.517.192.73-.17.141-.246.095-.324-.198zm3.86.101c-.12-.313.17-.735.505-.735.341 0 .6.579.364.815-.28.28-.746.238-.868-.08zm4.396-.056c-.103-.393.274-.758.638-.618.37.142.51.619.233.794-.394.25-.78.171-.87-.176zm-7.396-.02c-.353-.206-.38-.547-.063-.81.474-.394 1.161.373.725.81-.22.22-.284.22-.662 0zm4.343-.083c-.324-.324-.331-.48-.033-.727.474-.393 1.154.287.76.76-.247.299-.402.292-.727-.033zm4.374 0c-.298-.297-.283-.598.034-.704.194-.065.49.741.33.9-.046.047-.21-.041-.364-.195zm-7.664-.322c-.294-.355-.085-.76.394-.76.45 0 .698.522.392.828-.252.253-.54.228-.786-.068zm4.468-.014c-.325-.325-.332-.48-.034-.727.475-.394 1.162.372.726.809-.246.246-.38.23-.692-.082zm-3.361-.346c-.12-.313.17-.735.504-.735.341 0 .6.579.364.815-.28.28-.746.238-.868-.08zm4.456-.037c-.192-.36.053-.698.506-.698.366 0 .552.478.303.778-.267.322-.612.288-.81-.08zm-7.459-.047c-.351-.197-.378-.54-.061-.802.304-.253.778-.06.778.316 0 .437-.364.684-.717.486zm4.18-.252c-.12-.313.17-.736.504-.736.359 0 .661.683.382.86-.363.23-.772.172-.886-.124zm4.374 0c-.12-.313.17-.736.504-.736.274 0 .63.615.488.845-.165.266-.878.188-.992-.11zm-7.467-.097c-.406-.405-.08-1 .47-.856.368.096.539.621.284.876-.238.238-.504.23-.754-.02zM35.335 20c-.325-.325-.332-.48-.034-.727.474-.394 1.154.286.761.76-.248.299-.403.291-.727-.033zm-3.29-.322c-.277-.334-.095-.76.323-.76.429 0 .745.545.474.816-.264.263-.549.243-.798-.056zm4.37-.09c-.232-.433-.086-.67.414-.67.455 0 .689.443.41.779-.274.33-.614.285-.825-.11zm-7.237-.43c-.196-.516-.125-.662.25-.518.29.111.352.706.091.867-.092.058-.246-.1-.34-.35zm3.973.16c-.12-.313.17-.736.504-.736.341 0 .6.58.365.815-.281.281-.747.238-.869-.08zm4.456-.037c-.192-.36.054-.699.507-.699.365 0 .552.479.303.778-.267.322-.613.288-.81-.08zm-7.458-.047c-.352-.197-.378-.54-.062-.802.304-.253.778-.06.778.316 0 .437-.363.683-.716.486zm4.323-.053c-.257-.19-.288-.306-.146-.537.253-.413.494-.457.805-.145.219.218.23.328.063.596-.245.392-.3.4-.722.086zm4.229-.202c-.16-.418.016-.475.23-.075.104.193.118.35.032.35s-.204-.123-.262-.275zm-7.373-.074c-.535-.312-.224-1.034.377-.877.368.097.539.622.285.876-.221.22-.285.22-.662.001zm4.343-.083c-.324-.324-.332-.48-.033-.727.475-.394 1.162.373.725.81-.246.245-.38.23-.692-.083zm-3.383-.43c-.07-.223-.028-.41.115-.501.385-.244.774-.166.862.172.173.66-.77.98-.977.33zm4.463.018c-.232-.432-.085-.669.412-.669.436 0 .677.528.377.827-.28.28-.588.218-.79-.158zm-7.443-.017c-.352-.197-.378-.54-.062-.802.304-.253.778-.06.778.316 0 .437-.363.683-.716.486zm4.18-.253c-.12-.313.17-.735.504-.735.34 0 .6.58.364.815-.28.28-.747.238-.868-.08zm4.395-.056c-.048-.182.007-.409.122-.504.153-.127.26-.059.403.254.255.559.25.58-.122.58-.174 0-.356-.149-.403-.33zm-7.448-.08c-.257-.191-.288-.306-.146-.537.38-.622 1.025-.364.848.34-.126.502-.245.536-.702.196zm4.391-.026c-.313-.314-.324-.443-.058-.708.266-.266.394-.255.71.063.344.343.334.452-.063.7-.267.167-.377.156-.589-.055zm-3.286-.319c-.295-.355-.085-.759.394-.759.45 0 .697.522.392.827-.253.253-.54.228-.786-.068zm4.468-.014c-.325-.325-.332-.48-.034-.727.474-.393 1.154.287.76.76-.247.299-.402.292-.726-.033zm-7.392-.45c-.148-.556-.132-.631.14-.631.358 0 .628.572.386.815-.285.284-.412.24-.526-.185zm4.009.02c-.193-.606.615-.906.918-.34.114.213.106.37-.028.504-.31.31-.767.225-.89-.164zm4.498.156c-.308-.308-.242-.604.163-.733.466-.147.91.361.62.71-.23.279-.52.287-.783.023zm-7.477-.155c-.353-.197-.38-.54-.064-.803.266-.22.712-.096.838.232.136.355-.423.768-.774.571zm4.178-.253c-.12-.313.17-.736.504-.736.341 0 .6.58.365.815-.281.281-.747.238-.869-.08zm-3-.076c-.354-.206-.38-.548-.064-.81.474-.393 1.154.287.76.76-.225.272-.305.278-.697.05zm4.343-.083c-.325-.325-.332-.48-.034-.727.474-.393 1.154.287.76.76-.247.299-.402.291-.726-.033zm-3.29-.322c-.296-.356-.085-.76.395-.76.468 0 .708.439.426.779-.25.3-.562.293-.822-.02zm4.365-.097c-.234-.439.045-.833.505-.713.406.107.572.53.324.829-.275.332-.614.284-.829-.116zm-8.138-.266c-.16-.418.016-.475.23-.074.104.193.118.35.032.35s-.204-.124-.262-.276zm.526.171c-.066-.065-.12-.258-.12-.427 0-.17-.08-.309-.178-.309-.098 0-.126-.083-.063-.186.063-.102.162-.121.22-.042.058.08.295.144.526.144.336 0 .42.084.42.42 0 .296-.102.436-.343.47-.189.027-.397-.004-.462-.07zm4.353-.168c-.12-.313.17-.736.504-.736.341 0 .6.58.364.815-.28.281-.746.238-.868-.08zm-3.003-.084c-.351-.197-.377-.54-.061-.802.304-.253.778-.06.778.316 0 .437-.364.683-.717.486zm4.18-.253c-.12-.313.17-.735.505-.735.34 0 .6.58.364.815-.28.28-.747.238-.869-.08zm-3.093-.096c-.25-.25-.257-.516-.02-.754.255-.255.78-.084.877.284.143.55-.451.876-.857.47zm4.436-.063c-.325-.324-.332-.48-.033-.727.473-.393 1.153.287.76.76-.247.3-.402.292-.727-.033zm-16.992-.058c-.053-.084-.02-.354.074-.6.284-.747.206-1.732-.167-2.105-.47-.47-.42-.673.168-.673.426 0 .505-.065.505-.42 0-.334.084-.42.41-.42.226 0 .46-.082.522-.18.061-.1.274-.246.473-.327.277-.111.163-.148-.489-.156-.467-.006-.923.063-1.013.153-.09.09-1.335.185-2.767.21l-2.603.047-.376.745-.376.746-4.586-.038c-4.362-.036-4.6-.055-4.873-.376-.23-.272-.25-.418-.101-.745.137-.301.134-.468-.013-.645-.152-.183-.152-.34 0-.673.153-.335.151-.49-.007-.68-.145-.175-.155-.34-.033-.567.094-.176.128-.484.076-.684l-.095-.363h4.773c4.68 0 4.777.007 4.996.356.16.256.17.408.04.538-.261.262-.224.451.088.451.171 0 .235-.092.174-.252-.085-.22.413-.252 3.875-.252h3.973l.718-.589.719-.589h4.573c4.29 0 4.566.019 4.45.295-.667 1.6-.587 1.695 1.49 1.76l1.54.048-.558.305c-.308.168-1.12.403-1.803.522-1.22.212-1.25.209-1.615-.18-.3-.318-.544-.395-1.267-.395h-.896v-.683c0-.908-.329-.697-.359.23-.013.388-.055.542-.094.342-.062-.317-.202-.372-1.082-.421-.971-.054-1.009-.041-.939.322.072.372.044.378-1.602.378-1.847 0-2.743-.305-2.592-.882.046-.178-.017-.295-.16-.295-.13 0-.236.073-.236.163 0 .09-.121.116-.27.06-.232-.09-.24-.057-.052.244.346.553-.029.866-.904.755-.39-.05-.822-.174-.961-.278-.215-.159-.22-.146-.04.086.118.15.593.323 1.058.385.565.075.805.175.726.302-.08.13-.016.15.205.064.177-.07 1.306-.168 2.508-.22l2.187-.093.715.776c.617.67.715.878.715 1.524 0 1.013-.353 2.472-.622 2.576-.346.132-.255.362.106.268.178-.047.365-.19.414-.318.125-.327.606-.102.606.284 0 .305-.199.319-4.615.319-2.614 0-4.657-.067-4.711-.155zm7.927-.897c.445-.834.402-2.407-.087-3.196l-.391-.63h-2.35c-2.66 0-3.187.155-3.492 1.029-.24.688-.24 1.917.002 2.388.445.871.725.948 3.466.952l2.56.004zm-1.69-.673c-.056-.208-.103-.858-.104-1.445-.002-.923-.048-1.079-.337-1.155-.478-.125-.242-.385.349-.385.38 0 .537.102.663.431.224.59.206 1.983-.032 2.504-.24.53-.407.544-.54.05zM7.446 11.45c.224.24.711.144.711-.14 0-.105-.087-.098-.23.02-.174.146-.28.132-.435-.056-.274-.33-.053-.649.372-.538.26.069.295.043.145-.107s-.28-.144-.549.023c-.252.158-.403.169-.534.038-.276-.276-.588-.219-.781.143-.132.246-.108.39.097.595.236.237.317.241.633.034.3-.197.396-.199.57-.012zm-1.117-.159c-.233-.28.045-.69.381-.56.149.056.27.21.27.343 0 .325-.44.472-.651.217zm4.654.193c.111-.111.202-.361.202-.555 0-.195-.09-.444-.202-.555-.157-.157.687-.202 3.799-.202 3.125 0 3.985-.046 3.93-.21-.105-.315-13.102-.306-13.207.008-.058.175.405.21 2.287.169 2.142-.047 2.338-.027 2.12.214-.665.733.373 1.829 1.071 1.13zm-.872-.223c-.205-.206-.23-.35-.097-.596.21-.394.548-.418.846-.059.157.189.171.346.05.537-.246.39-.49.427-.799.118zm-1.352-.122c-.008-.23.086-.379.24-.379s.246.149.238.384c-.01.271.038.332.164.206.225-.225-.065-.734-.463-.812-.314-.062-.53.347-.384.727.14.362.22.311.205-.126zm-3.6-1.246c.376-.341.39-.624.043-.97-.24-.241.088-.265 3.616-.265 2.475 0 3.88-.061 3.88-.168 0-.108-1.474-.169-4.089-.169H4.52l-.367.498c-.442.597-.446.651-.09 1.045.346.382.696.391 1.096.03Zm-.837-.091c-.414-.415-.006-1.084.534-.877.35.135.356.843.007.976-.338.13-.305.136-.54-.1Zm16.208-.718c.425-.322.241-.325-.369-.007-.265.138-.364.252-.22.253.145 0 .41-.11.59-.246zm-14.223-.09c0-.092-.114-.168-.252-.168-.14 0-.253.076-.253.168 0 .093.114.168.253.168.138 0 .252-.075.252-.168zm16.62-.853c-.033-.1-.132-.181-.22-.181s-.187.081-.22.18c-.033.1.066.181.22.181s.253-.081.22-.18zm7.278-.034c-.02-.201-.251-.162-.324.055-.037.11.024.171.135.134.11-.037.196-.122.189-.19zm2.008 7.197c-.277-.333-.095-.759.323-.759.429 0 .745.544.474.815-.263.264-.548.244-.797-.056zm4.342-.167c-.104-.23-.323-.46-.485-.511-.39-.123-.55-.57-.31-.86.158-.189.103-.212-.308-.13-.608.122-.89-.336-.469-.758.374-.374.718-.099 1.154.923.2.468.497 1.054.661 1.302.164.248.22.451.123.451s-.261-.187-.366-.417zm-7.345-.196c.35-.39.413-.707.242-1.212-.158-.466.063-.754.46-.601.328.125.368.589.078.88-.112.111-.206.41-.21.664-.006.362-.099.475-.428.521-.398.056-.406.043-.142-.252zm4.07.022c-.114-.296.216-.754.544-.754.34 0 .6.58.364.815-.275.275-.792.24-.908-.06zm-5.405-.175c-.453-.318-.485-.932-.066-1.31.583-.528 1.374-.154 1.374.649 0 .339-.532.923-.84.923-.052 0-.262-.118-.468-.262zm2.443.073c-.352-.197-.38-.54-.063-.803.265-.22.712-.096.838.232.136.355-.424.768-.775.571zm4.352-.068c-.325-.325-.338-.452-.07-.719.292-.292.602-.248.796.113.128.241.095.382-.143.597-.286.26-.332.26-.583.01zm-3.174-.261c-.537-.313-.223-1.034.381-.876.4.104.562.53.316.826-.225.272-.305.278-.697.05zm1.053-.405c-.276-.333-.095-.76.324-.76.428 0 .745.545.474.816-.264.264-.549.244-.798-.056zm1.107-.36c-.12-.313.17-.736.504-.736.341 0 .6.58.364.815-.28.281-.746.238-.868-.08zm-3.053-.137c-.256-.19-.288-.306-.146-.537.38-.622 1.025-.363.848.34-.126.503-.245.536-.702.197zm1.137-.296c-.25-.25-.258-.516-.02-.754.255-.255.78-.084.876.284.144.55-.45.876-.856.47zm-4.116-.534c.09-.467-.319-1.344-.93-1.998l-.433-.462H28.174v1.328c0 1.055-.055 1.348-.266 1.43-.372.142-.369.146-.284-.298zm1.097.288c-.116-.047-.21-.268-.21-.491 0-.292.092-.407.33-.407.424 0 .738.546.469.815-.207.208-.262.215-.59.083zm4.055-.14c-.149-.39.061-.758.433-.758.429 0 .745.544.474.815-.274.275-.792.241-.907-.058zm-3.018-.162c-.258-.192-.285-.3-.136-.544.258-.421.81-.391.873.047.074.522-.333.797-.737.497zm4.234-.197c-.12-.313.17-.735.504-.735.342 0 .6.58.365.815-.281.28-.747.238-.869-.08zm-3-.076c-.354-.205-.38-.547-.064-.81.367-.304.804-.038.745.454-.059.492-.263.6-.682.356zm4.344-.081c-.33-.33-.333-.48-.02-.74.329-.273.553-.105.553.414 0 .544-.195.664-.533.326zm-3.26-.275c-.25-.251-.257-.517-.02-.755.255-.254.78-.083.877.285.144.55-.45.875-.857.47zm-3.278-.252c-.34-.574-.28-1.93.06-1.378.076.122.07.303-.011.402-.1.12 0 .178.304.174.372-.005.453.068.453.414 0 .303-.102.435-.363.473-.2.028-.399-.01-.443-.085zm4.331-.24c-.192-.607.616-.907.918-.342.115.214.106.372-.027.505-.31.31-.767.225-.89-.163zm-2.979 0c-.364-.204-.377-.542-.033-.828.218-.18.317-.162.595.116.32.32.32.345.033.605-.218.197-.381.227-.595.107zm4.179-.253c-.12-.313.17-.736.504-.736.34 0 .6.58.364.816-.28.28-.747.238-.868-.08zm-3.015-.007c-.244-.244-.088-.392.413-.392.448 0 .494.037.316.252-.221.266-.542.328-.73.14zm4.189-.338c-.126-.327.29-.82.554-.657.125.077.121.235-.01.525-.221.484-.393.526-.544.132zm-3.04-.054c-.057-.093-.043-.17.032-.17.075-.002.326-.053.557-.114.378-.1.397-.082.19.17-.259.316-.621.368-.779.114zm-3.39-.428c-.135-.352-.064-.387.577-.29.446.068.514.129.358.317-.259.311-.811.296-.935-.027zm4.484.091c0-.092.107-.168.238-.168s.377-.052.547-.115c.271-.102.28-.082.077.168-.25.307-.862.39-.862.115zm1.387-.12c-.297-.107-.26-.393.084-.655.38-.288.49-.287.602.003.109.284-.39.76-.686.652zm-13.65-.51c.123-.162.236-.317.25-.343.056-.103.91.362.91.496 0 .077-.311.14-.693.14-.634 0-.674-.024-.468-.293zm14.722.038c-.333-.333-.342-.487-.042-.736.528-.438 1.128.271.619.732-.281.254-.326.254-.577.004zm.936-.711c.068-.355.801-.496.99-.191.202.326.025.485-.539.485-.392 0-.494-.067-.45-.294zm1.314-.042c0-.312.083-.405.379-.427.344-.025.376.11.092.393-.245.246-.47.262-.47.034Zm-6.833-.248c-.053-.136.044-.533.215-.883l.31-.636h3.365l.054.563c.071.747-.349 1.204-1.11 1.204-.526 0-.57-.037-.464-.379.284-.917.23-1.152-.098-.42l-.359.799h-.91c-.644 0-.936-.072-1.003-.248zm1.703-.089c.064-.103-.194-.168-.663-.168-.422 0-.767.076-.767.168 0 .093.299.168.663.168.365 0 .71-.075.767-.168zm1.9-.202c.112-.11.203-.257.203-.324 0-.198-.511-.652-.727-.646-.11.003-.066.082.096.176.327.191.389.581.119.748-.097.06-.286.017-.42-.094-.136-.112-.246-.131-.246-.043 0 .41.631.528.976.183zm-1.585-.604c.045-.073-.197-.106-.537-.074-1.04.098-1.163.167-.335.188.434.01.827-.04.872-.114zm2.881.806c-.057-.092.052-.168.242-.168s.347.076.347.168c0 .093-.11.168-.243.168s-.289-.075-.346-.168zm-23.2-.928c-.217-.333-.23-.441-.058-.507.12-.047 2.217-.064 4.66-.04l4.44.045-.667.463-.668.463H13.41zm22.575-.081-.074-.505h1.451c1.498 0 1.855.137 1.855.707 0 .27-.17.303-1.579.303h-1.579zm.71.084c0-.139-.077-.252-.17-.252-.092 0-.167.113-.167.252s.075.252.168.252c.092 0 .168-.113.168-.252zm.64.072c-.033-.1-.132-.181-.22-.181s-.187.081-.22.18c-.034.1.065.181.22.181.154 0 .253-.081.22-.18zM3.374 7.427c.055-.142.021-.403-.074-.581-.126-.235-.11-.413.054-.649.192-.273.192-.374-.001-.638-.168-.229-.182-.4-.054-.64.096-.179.13-.439.078-.577-.192-.5.211-.9.907-.9.362 0 .703-.074.759-.164.062-.1.9-.13 2.155-.077 2.627.113 3.146.195 3.146.501 0 .135.019.302.042.371.023.07-1.472.167-3.322.216l-3.364.09 3.415.036 3.415.037.176.504c.14.405.272.505.664.505.572 0 .554.062.235-.841-.292-.828-.324-1.242-.084-1.094.093.058.169.24.169.408 0 .232.097.284.42.222.231-.044.42-.052.42-.017 0 .034.071.308.157.608.138.48.118.546-.165.546-.204 0-.36-.157-.429-.429-.059-.235-.14-.396-.18-.356-.04.04-.022.27.039.512.087.348.212.44.597.44.563 0 .566-.016.24-1.1-.135-.45-.213-.851-.172-.892.087-.087.174.127.467 1.152.18.632.292.766.673.81.54.063.588-.224.217-1.277-.23-.654-.226-.679.134-.748.205-.04.653-.039.996.002.502.058.623.142.623.434 0 .199-.152.456-.337.572-.44.274-.426.52.04.693.359.133.36.143.041.235-.183.053-.787.19-1.342.304-1.283.264-1.43.386-1.43 1.182v.652H8.255c-2.444 0-4.564.047-4.712.103-.192.074-.24.03-.169-.155Zm2.782-2.352c-.216-.216-.435-.05-.275.21.062.1.19.134.284.076.115-.071.112-.166-.009-.286zm6.88 1.685v-.55l1.444-.317c1.138-.25 1.476-.392 1.588-.669.097-.242.145.029.153.868l.01 1.22h-3.196Zm3.532-.509c0-.6.087-1.147.201-1.261.157-.157.157-.247 0-.404-.11-.11-.201-.414-.201-.673 0-.359.08-.47.336-.47.317 0 .336.111.336 1.934 0 1.822-.02 1.934-.336 1.934-.3 0-.336-.112-.336-1.06zm1.009-.874c0-1.775.027-1.954.294-1.903.26.05.295.279.295 1.903s-.036 1.852-.295 1.902c-.267.051-.294-.127-.294-1.902zm.913 1.712c-.047-.122-.063-.974-.037-1.892.04-1.351.097-1.67.301-1.67.207 0 .261.343.3 1.892.041 1.624.01 1.892-.215 1.892-.145 0-.302-.1-.349-.222zm.937-1.628c0-1.738.02-1.85.337-1.85.316 0 .336.112.336 1.85s-.02 1.85-.336 1.85-.337-.112-.337-1.85zm1.01.841c0-.708.081-1.115.26-1.294.235-.235.235-.288 0-.548-.33-.365-.337-.85-.012-.85.35 0 .447.54.39 2.185-.042 1.203-.096 1.437-.344 1.485-.255.048-.295-.084-.295-.978zm.953.897c-.144-.144-.148-2.916-.005-2.916.06 0 .208.133.331.295.311.41.32 2.733.01 2.733-.123 0-.275-.05-.336-.112zm.897-1.15c0-1.149.03-1.261.336-1.261.307 0 .336.112.336 1.262 0 1.149-.03 1.261-.336 1.261-.306 0-.336-.112-.336-1.261zm1.009.013c0-1.17.028-1.274.344-1.274.319 0 .34.087.294 1.218-.04 1.002-.101 1.227-.344 1.274-.26.05-.294-.096-.294-1.218zm.953 1.137c-.062-.062-.112-.63-.112-1.262 0-1.037.033-1.149.336-1.149.307 0 .337.112.337 1.262 0 .939-.058 1.261-.225 1.261-.123 0-.274-.05-.336-.112zm.897-1.15c0-1.149.03-1.261.337-1.261.306 0 .336.112.336 1.262 0 1.149-.03 1.261-.336 1.261-.307 0-.337-.112-.337-1.261zm1.01.013c0-1.17.027-1.274.343-1.274.32 0 .34.087.295 1.218-.041 1.002-.102 1.227-.344 1.274-.26.05-.295-.096-.295-1.218zm.953 1.137c-.229-.229-.12-2.363.13-2.571.133-.11.273-.442.31-.736.036-.293.079.356.093 1.443.021 1.548-.021 1.976-.197 1.976-.123 0-.275-.05-.336-.112zm.897-1.822c0-1.822.02-1.935.336-1.935.317 0 .337.113.337 1.935s-.02 1.934-.337 1.934-.336-.112-.336-1.934zm1.009 0c0-1.775.028-1.954.294-1.903.26.05.295.279.295 1.903s-.036 1.852-.295 1.902c-.266.051-.294-.127-.294-1.902zm.913 1.712c-.047-.122-.063-.973-.036-1.89.041-1.433.09-1.677.342-1.725.267-.051.295.127.295 1.89 0 1.636-.041 1.947-.258 1.947-.141 0-.296-.1-.343-.222zm.974-1.668c.041-1.645.086-1.898.342-1.947.266-.051.294.127.294 1.89 0 1.845-.018 1.947-.342 1.947-.326 0-.34-.086-.294-1.89zm.972-.044c0-1.775.028-1.954.295-1.903.259.05.294.279.294 1.903s-.035 1.852-.294 1.902c-.267.051-.295-.127-.295-1.902zm.914 1.712c-.047-.122-.064-.973-.037-1.89.042-1.433.09-1.677.343-1.725.267-.051.294.127.294 1.89 0 1.636-.04 1.947-.257 1.947-.142 0-.296-.1-.343-.222zm.937-1.725c0-1.763.027-1.941.294-1.89.256.05.3.302.342 1.947.045 1.804.032 1.89-.294 1.89-.324 0-.342-.102-.342-1.947zm1.009.277c0-.932.066-1.694.148-1.694.395 0 .537.541.49 1.874-.041 1.179-.096 1.411-.344 1.459-.264.05-.294-.116-.294-1.639Zm.953 1.558c-.16-.16-.139-2.747.023-2.747.375 0 .538.494.538 1.631 0 .911-.058 1.228-.224 1.228-.124 0-.275-.05-.337-.112zm.897-.981c0-.602.032-1.094.07-1.094.466 0 .603.273.603 1.196 0 .879-.038.991-.336.991-.302 0-.337-.112-.337-1.093zm1.01.24v-.852l.504.36c.523.372.707.908.252.733-.163-.063-.252.004-.252.192 0 .187.089.254.252.191.14-.053.253-.023.253.066 0 .09-.227.163-.505.163-.494 0-.504-.017-.504-.852zm-26.75-1.597c-.233-.614-.206-.746.153-.746.292 0 .516.415.522.967.004.385-.508.217-.675-.22zm2.523 0c-.225-.593-.206-.746.093-.746.23 0 .584.618.584 1.02 0 .343-.522.132-.677-.274zm2.023-.073c0-.092.08-.168.178-.168.098 0 .132.076.074.168-.057.093-.137.168-.178.168-.04 0-.074-.075-.074-.168zm4.962 0c-.057-.092-.024-.168.074-.168s.179.076.179.168c0 .093-.034.168-.075.168-.04 0-.12-.075-.178-.168zm-4.247-.757c.002-.37.037-.502.077-.292.04.209.039.512-.003.673-.043.16-.075-.01-.074-.38zm5.72.262c-.21-.174-.38-.358-.38-.408 0-.051 1.325-.095 2.944-.097 2.29-.004 2.944.043 2.944.212 0 .53-.406.62-2.767.614-2.06-.005-2.412-.046-2.742-.321z" style="fill:#000;stroke-width:.168208;fill-opacity:1"/></svg>