<svg xmlns="http://www.w3.org/2000/svg" width="150.287" height="128" viewBox="0 0 39.763 33.867"><path d="M31.294 30.498a5.676 5.676 0 0 0-.47-.325c-.173-.101-.163-.157.071-.394.252-.255.295-.26.571-.067a.71.71 0 0 1 .299.605c0 .446-.084.478-.47.18zm.74-.173c0-.334.107-.4 1.548-.946.852-.323 1.583-.553 1.626-.51.042.042-.005.24-.104.44-.148.297-.443.455-1.625.87l-1.445.505zm-1.658-.654c-.076-.127-.627-1.978-.627-2.107 0-.053.13-.076.29-.053.4.06.975 1.685.72 2.034-.18.247-.289.282-.383.126zm1.04-.272c-.278-.23-.959-1.859-.83-1.987.036-.037 1.223-.454 2.637-.926l2.57-.86.16.537c.15.497.13.6-.263 1.398-.341.692-.521.901-.914 1.065a7.88 7.88 0 0 1-.518.205c-.015 0-.023-.134-.017-.298.006-.182-.081-.317-.225-.346-.326-.066-.472.371-.192.576.19.138.09.213-.687.518-1.059.416-1.337.435-1.721.118zm.996-.335c.053-.277-.335-.465-.54-.26-.204.205-.017.593.26.54a.381.381 0 0 0 .28-.28zm.94-.269c.054-.277-.334-.464-.539-.26-.204.205-.017.593.26.54a.381.381 0 0 0 .28-.28zm2.042-.022c0-.147.735-1.644.892-1.815.03-.032.125.013.213.101.117.117.12.199.008.31-.082.082-.122.339-.089.57.077.53-.058.73-.596.885-.323.093-.428.08-.428-.05zm-5.131-1.984c.376-.594.755-.715 1.096-.349.326.35.238.508-.108.195-.337-.305-.427-.281-.427.113 0 .184-.045.34-.1.346a7.992 7.992 0 0 0-.418.068l-.316.059zm5.95-.52c-.244-.542-.251-.97-.013-.71.163.179.439 1.131.352 1.218-.043.043-.196-.186-.34-.508zm-6.312.237c.047-.06-.086-.66-.296-1.334s-.35-1.276-.312-1.338c.037-.06.295-.11.571-.11.277 0 .573-.071.66-.157.118-.119.184-.079.273.168l.428 1.198c.442 1.24.488 1.275 1.353 1.019.81-.24.98-.26.881-.101-.037.06-.434.222-.88.357-.758.23-.83.23-1.06.023-.345-.313-.952-.277-1.358.08-.19.166-.307.254-.26.195zm4.073-.867c.1-.42.536-.843.864-.836.226.005.825.439.825.598 0 .05-.158-.035-.352-.188-.41-.322-.589-.261-.589.202 0 .232-.103.37-.345.462-.485.185-.5.175-.403-.238zm-2.114.058c-.11-.088-.336-.583-.503-1.1a66.478 66.478 0 0 0-.36-1.094c-.05-.136 1.387-.72 1.771-.72.234 0 .882 1.896.792 2.317-.063.296-.188.397-.634.51-.306.079-.626.166-.711.194-.085.028-.245-.02-.355-.107zm3.83-.522c-.254-.254-.189-.4.107-.242.148.08.27.202.27.274 0 .178-.183.162-.377-.032zm-2.029-1.101a186.25 186.25 0 0 0-.404-1.06c-.131-.34-.112-.386.214-.51.788-.3.844-.261 1.191.816.18.554.326 1.041.327 1.081.001.04-.239.137-.533.216l-.536.143zm-6.318-.505c-.179-.463.207-.8 1.013-.886.36-.038.744-.146.855-.24.111-.093.466-.212.788-.265a3.069 3.069 0 0 0 1.03-.397c.476-.323 1.222-.549 2.256-.682.374-.048.677-.164.72-.275.171-.447 1.721-.015 1.63.454-.024.13-.274.3-.579.397a8.49 8.49 0 0 0-.804.297c-.148.07-.995.348-1.882.618-.887.27-1.764.569-1.95.663-.342.173-1.544.452-2.451.568-.435.056-.52.021-.626-.252zm-.016-1.26c-.094-.113-.147-.226-.118-.252.03-.025.658-.22 1.397-.434 1.13-.326 1.351-.434 1.386-.679.023-.16-.36-1.6-.852-3.199-.491-1.6-.859-2.997-.817-3.107.062-.16.327-.192 1.374-.16l1.297.038.937 2.713c.584 1.691 1.017 2.743 1.149 2.794.116.044.506-.025.867-.155.571-.205.672-.21.78-.038.201.317.163.362-.5.587-.75.256-1.333.276-1.472.05-.056-.09-.475-1.345-.93-2.789l-.83-2.624-.912-.04c-.502-.023-.963.01-1.025.072-.062.062.25 1.38.695 2.93.445 1.55.792 2.965.772 3.145-.031.277-.23.405-1.304.84-1.404.568-1.646.607-1.894.308zm-.02-1.072c.117-.26.26-.47.32-.47.222 0 .075-.542-.747-2.756-.832-2.24-.86-2.292-1.41-2.598-.335-.187-.56-.41-.56-.555a.632.632 0 0 0-.213-.419c-.154-.127-.188-.291-.122-.588.05-.226.121-.849.157-1.385.056-.84.034-.974-.156-.974-.135 0-.206.09-.182.235a.723.723 0 0 1-.09.437c-.071.11-.236.5-.365.865-.23.646-.42.876-.725.88-.18.002-.157-.333.058-.847.175-.417.198-.807.075-1.268-.079-.292-.136-.302-1.67-.302h-1.59l-.084.57a8.564 8.564 0 0 0-.042 1.379l.043.806 2.132.007c1.933.005 2.15.03 2.319.26.426.584.334.607-2.435.607-3.276 0-3.158.069-3.16-1.848 0-.721-.04-1.629-.086-2.017l-.085-.705h1.156c1.02 0 1.214.04 1.665.347.576.392 1.152.38 1.767-.039.455-.308 2.035-.431 6.707-.522 2.882-.055 3.528-.102 3.528-.254 0-.102.136-.205.303-.229.445-.063.42-.668-.034-.801-.262-.077-.218-.093.202-.074l.537.026v1.478l-1.008.08c-1.234.097-1.747.317-1.747.749v.314h-2.192c-2.653 0-2.68.011-2.621 1.14.052 1-.007.98 2.958.997l2.244.014.393.84c.216.462.615 1.493.887 2.292.272.798.612 1.645.756 1.881.144.237.262.5.263.586 0 .193-1.12.588-1.32.465-.08-.05-.548-1.269-1.041-2.708-.493-1.44-.957-2.693-1.031-2.785-.09-.11-.485-.163-1.16-.152-1.284.02-1.819.131-1.867.388-.02.11.384 1.562.9 3.225.723 2.34.899 3.06.774 3.18-.198.192-1.89.718-2.31.718-.3 0-.301-.008-.092-.47zm-.448-7.001c0-.215-.112-.264-.672-.294l-.672-.036.537.325c.614.371.807.372.807.005zm4.297 6.9c-.113-.3-1.81-5.65-1.81-5.706 0-.03.312-.036.693-.014l.694.04.782 2.555c.43 1.404.782 2.628.784 2.718.004.165-.663.575-.935.575-.08 0-.174-.076-.208-.168zM3.353 13.49a4.67 4.67 0 0 1-.084-.538c0-.064.635-.117 1.411-.117h1.412V12.5c0-.33.017-.336 1.082-.336h1.082l-.04.705-.04.706-.807.041c-.444.023-.864.098-.934.168-.07.07-.774.127-1.563.127H3.437Zm8.787.292c0-.079-.699-.148-1.713-.17l-1.714-.038-.04-.706-.041-.705h3.374v.806H18.475l-.042.437-.042.437-3.125.036c-1.994.023-3.126-.012-3.126-.097zm15.279-.365c-.125-.125-.108-1.017.023-1.224.083-.13.599-.163 2.106-.135l1.997.037.385.706.386.706h-2.404c-1.322 0-2.444-.04-2.493-.09zM3.264 11.122c-.003-.795-.014-1.929-.023-2.52l-.018-1.076 2.98-.036 2.98-.036V9.207H8.45c-.922 0-1.013.143-1.013 1.604v1.084h-.74c-.698 0-.739.018-.739.336v.336H3.27Zm1.82.773c0-.247-.081-.348-.303-.38-.33-.046-.518.242-.384.59.048.127.202.195.384.169.222-.032.303-.133.303-.38zm0-3.764c0-.246-.081-.347-.303-.379-.182-.026-.336.042-.384.168-.134.349.053.637.384.59.222-.031.303-.132.303-.379zm1.075 0c0-.246-.08-.347-.303-.379-.182-.026-.335.042-.384.168-.134.349.054.637.384.59.222-.031.303-.132.303-.379Zm1.075 0c0-.246-.08-.347-.303-.379-.181-.026-.335.042-.384.168-.134.349.054.637.384.59.222-.031.303-.132.303-.379Zm4.906 4.1v-.336h-1.733c-1.923 0-1.896.013-1.896-.936 0-.28.083-.579.184-.662.132-.11 1.542-.143 4.94-.118l4.756.036.017 1.176.017 1.176h-.387c-.419 0-.54-.316-.176-.456.127-.048.194-.202.168-.384-.063-.447-.672-.422-.789.033l-.086.336-.054-.336c-.041-.252-.136-.336-.384-.336-.24 0-.354.093-.417.336l-.086.336-.054-.336c-.04-.252-.136-.336-.384-.336-.24 0-.354.093-.417.336l-.086.336-.054-.336c-.04-.252-.136-.336-.384-.336-.24 0-.354.093-.417.336l-.086.336-.054-.336c-.04-.252-.136-.336-.384-.336-.24 0-.354.093-.416.336l-.087.336-.054-.336c-.04-.254-.136-.336-.39-.336-.448 0-.57.587-.145.698.473.124.335.445-.191.445-.412 0-.47-.042-.47-.336zm1.758.123c.007-.157.039-.188.082-.081.038.097.034.213-.011.257-.045.045-.076-.034-.07-.176zm.941 0c.007-.157.039-.188.082-.081.038.097.034.213-.011.257-.045.045-.076-.034-.07-.176zm.941 0c.007-.157.039-.188.081-.081.04.097.034.213-.01.257-.045.045-.077-.034-.07-.176zm.941 0c.007-.157.038-.188.081-.081.04.097.034.213-.01.257-.045.045-.077-.034-.07-.176zm-8.882-1.66V9.476h.92c1.163 0 1.365-.182 1.365-1.227 0-.404-.072-.808-.161-.896-.126-.126.675-.162 3.604-.162h3.766l1.239.874 1.24.874H23.7l-.007.638c-.007.55-.066.685-.428.972-.587.465-1.312.451-1.818-.034-.363-.347-.45-.367-1.678-.367-.718 0-1.332-.06-1.378-.134-.053-.086-1.81-.134-4.826-.134-5.435 0-5.141-.069-5.214 1.21-.032.574-.093.746-.277.78-.21.04-.235-.085-.235-1.174zm14.978-.22c.407-.408.112-1.133-.461-1.133-.32 0-.672.351-.672.672 0 .32.351.672.672.672.137 0 .345-.095.46-.211zm-.735-.266c-.143-.172-.135-.247.05-.432.209-.209.239-.209.448 0 .184.185.193.26.05.432-.095.114-.218.208-.274.208-.056 0-.18-.094-.274-.208zm-9.217-.71c.063-.1-1.196-1.77-1.335-1.77-.126 0-1.137.978-1.137 1.1 0 .07.106.272.235.45.21.289.338.324 1.202.328.532.002.997-.046 1.035-.107zm-2.01-.44c-.05-.082.086-.327.305-.546l.397-.397.36.546.362.546h-.666c-.367 0-.708-.067-.758-.15zm7.357.33c.135-.123.244-.29.24-.37-.004-.145-1.041-.97-1.372-1.092-.167-.062-1.176 1.257-1.176 1.538 0 .253 2.018.186 2.308-.077zm-1.9-.08c.004-.093.182-.375.398-.626l.39-.458.478.364c.544.415.584.552.217.748-.377.202-1.489.18-1.482-.029zm-1.14-.575c.262-.408.439-.801.394-.874-.122-.198-.548-.157-.737.07-.22.266-.558.255-1.059-.032-.282-.162-.451-.191-.548-.095-.19.191.9 1.673 1.231 1.673.15 0 .429-.288.72-.742zm-1.2-.081c-.526-.614-.552-.81-.063-.467.385.27.703.274.92.013.092-.11.254-.201.36-.201.156 0 .147.077-.05.412-.134.227-.342.502-.462.611-.197.18-.269.142-.705-.368zm.662-.801c.139-.224-.173-.481-.358-.296-.155.155-.058.442.15.442.065 0 .159-.066.208-.146zM23.97 9.61v-.672h.672c.582 0 .672.036.672.269 0 .204.09.268.376.268.433 0 .7.216.7.565 0 .215-.135.242-1.21.242h-1.21zm2.604.302a34.284 34.284 0 0 0-.113-.37c-.038-.12-.226-.201-.47-.201-.273 0-.408-.067-.408-.202 0-.174.515-.201 3.83-.201h3.831v1.066l-3.31.038c-2.559.03-3.322 0-3.36-.13zm2.1-.302c0-.074-.176-.135-.392-.135-.215 0-.414-.066-.44-.146-.03-.087-.183-.035-.381.13l-.332.276.773.005c.428.002.772-.056.772-.13zm-19.16-.55c-.14-.224.172-.48.358-.295.155.155.058.442-.15.442-.065 0-.16-.066-.209-.147zm9.127-1.276-1.19-.885-4.738.051-4.738.052v-.619h12.485l.041.64.041.638h3.63l.04-.639.041-.638h9.395v2.285H19.83Zm11.378.146a.202.202 0 0 0-.403 0c0 .11.09.201.2.201.112 0 .203-.09.203-.201zm.537 0c0-.111-.09-.202-.201-.202a.202.202 0 0 0 0 .403c.11 0 .201-.09.201-.201zm.538 0a.202.202 0 0 0-.403 0c0 .11.09.201.201.201.111 0 .202-.09.202-.201zm.538 0a.202.202 0 0 0-.403 0c0 .11.09.201.2.201.112 0 .203-.09.203-.201zm.537 0c0-.111-.09-.202-.201-.202a.202.202 0 0 0 0 .403c.11 0 .201-.09.201-.201zm-1.882-.538c0-.111-.09-.202-.201-.202a.202.202 0 0 0 0 .403c.11 0 .201-.09.201-.201zm.538 0a.202.202 0 0 0-.403 0c0 .11.09.202.201.202.111 0 .202-.091.202-.202zm.538 0a.202.202 0 0 0-.403 0c0 .11.09.202.201.202.111 0 .202-.091.202-.202zm.537 0c0-.111-.09-.202-.201-.202a.202.202 0 0 0 0 .403c.11 0 .201-.09.201-.201zm-1.881-.538a.202.202 0 0 0-.403 0c0 .111.09.202.2.202.112 0 .203-.09.203-.202zm.537 0c0-.11-.09-.201-.201-.201-.111 0-.202.09-.202.201a.202.202 0 0 0 .403 0zm.538 0a.202.202 0 0 0-.403 0c0 .111.09.202.201.202.111 0 .202-.09.202-.202zm.538 0a.202.202 0 0 0-.403 0c0 .111.09.202.2.202.112 0 .203-.09.203-.202zm.537 0c0-.11-.09-.201-.201-.201-.111 0-.202.09-.202.201a.202.202 0 0 0 .403 0zM9.512 7.985c-.138-.224.173-.481.359-.296.155.155.058.442-.15.442-.065 0-.16-.066-.209-.146zm11.32-.481c-.049-.05-.089-.291-.089-.538v-.448h3.226v.377c0 .207-.073.449-.161.537-.173.172-2.811.236-2.975.072zM3.233 6.35c.031-.313.078-.59.103-.615.025-.026 2.289-.002 5.03.052 4.053.08 4.985.132 4.985.28 0 .147-.529.181-2.755.181H7.839v.672H3.175Zm1.18.033c0-.247-.081-.348-.303-.38-.33-.046-.518.242-.384.59.048.127.202.195.384.169.222-.032.303-.133.303-.38zm1.075 0c0-.247-.081-.348-.303-.38-.33-.046-.518.242-.384.59.048.127.202.195.384.169.222-.032.303-.133.303-.38Zm1.075 0c0-.247-.08-.348-.303-.38-.182-.025-.335.042-.384.169-.134.349.054.637.384.59.222-.032.303-.133.303-.38Zm1.076 0c0-.247-.081-.348-.303-.38-.33-.046-.518.242-.384.59.048.127.202.195.384.169.222-.032.303-.133.303-.38zm16.555-.359c-.3-.3-.016-.421 1.204-.513 1.273-.095 1.3-.091 1.644.253l.35.35h-.897c-.493 0-.934-.06-.98-.134-.045-.074-.2-.135-.343-.135-.144 0-.261.06-.261.135 0 .15-.576.185-.717.044zm3.136-.313c-.389-.328-.593-.397-1.182-.4l-.71-.003.038-1.042.04-1.042 1.595-.038c1.388-.033 1.617-.008 1.766.196.094.129.137.321.097.427-.041.106.014.26.122.342.108.082.28.36.384.619.103.259.243.509.312.556.069.046.1.158.071.247-.03.088-.324-.323-.655-.915-.33-.591-.623-1.054-.65-1.027-.026.027.231.56.572 1.186.34.625.62 1.173.62 1.217 0 .044-.439.078-.975.076-.88-.003-1.02-.042-1.445-.4Zm1.277-.27c0-.245-.08-.347-.303-.378-.33-.047-.518.241-.384.59.049.127.202.194.384.168.222-.032.303-.133.303-.38zm-.873-.382c0-.063-.067-.305-.148-.538-.12-.344-.221-.423-.538-.423-.365 0-.39.034-.39.537v.538h.538c.296 0 .538-.051.538-.114z" style="fill:#000;fill-opacity:1;stroke-width:.134414"/></svg>