<svg xmlns="http://www.w3.org/2000/svg" width="209.674" height="128" viewBox="0 0 55.476 33.867"><path d="M41.689 30.411c-.605-.414-.729-.611-.725-1.16.003-.38.186-.54 1.072-.94.986-.445 1.137-.466 1.935-.263.64.162.96.369 1.228.79.414.655.942.819 2.438.758 1.45-.058 1.604-.22 1.741-1.83.107-1.246.185-1.451.966-2.503.467-.63.892-1.248.943-1.375.07-.174.14-.163.288.045.336.474.227.727-.763 1.772l-.962 1.017-.092 1.952-.092 1.952-3.76.05c-3.299.043-3.815.01-4.217-.265zm8.252-1.705v-1.645l1.055-1.171 1.054-1.171.149.661c.082.364.123 1.474.092 2.466-.052 1.64-.097 1.837-.49 2.155-.26.21-.718.35-1.147.35h-.713zm1.064.325c.12-.121.22-.701.22-1.29 0-.823-.07-1.096-.302-1.185-.465-.178-.798.45-.798 1.507 0 .52.055.999.122 1.066.188.188.514.145.758-.098zm-5.548-.501c-.284-.41-.609-.752-.721-.76-.562-.037-1.12-.199-1.352-.392-.454-.377-1.512-2.68-1.512-3.293v-.59l.551.868c.303.478.762 1.286 1.021 1.796.259.51.507.891.552.846.156-.156-.518-1.52-1.319-2.668-.58-.832-.805-1.336-.805-1.8 0-.355-.088-.81-.196-1.012-.146-.272-.134-.441.046-.659.173-.209.242-.975.242-2.693 0-1.823.055-2.39.23-2.355.125.025.229-.057.229-.183 0-.199 1.67-1.657 2.341-2.046.128-.075.525-.039.883.08.783.258.993.722.993 2.196 0 1.05.027 1.107.985 2.143 1.04 1.125 3.417 4.805 3.417 5.29 0 .401-.398 1.112-1.27 2.273-.69.918-.748 1.085-.748 2.144 0 .631-.062 1.184-.137 1.228-.076.044-.762.137-1.525.206l-1.388.127zm2.533-.471c.161-.42-.064-.825-.458-.825-.194 0-.4.124-.459.275-.16.42.065.825.459.825.194 0 .4-.124.458-.275zm-1.717.022c0-.038-.144-.182-.32-.32-.291-.229-.298-.222-.07.069.24.305.39.402.39.251zm-.803-3.07c-.248-.543-.457-.839-.465-.658-.017.371.698 1.862.83 1.73.047-.047-.117-.53-.365-1.072zm-1.147-.253c-.058-.151-.19-.275-.292-.275-.108 0-.09.116.042.275.125.151.257.275.292.275.035 0 .016-.124-.042-.275zm1.32-.85c-.287-.718-2.067-3.46-2.246-3.46-.044 0-.042.062.004.138 1.518 2.498 1.935 3.222 2.133 3.7.131.316.28.535.329.486.05-.05-.05-.439-.22-.864zm2.896.492c.267-.247.485-.64.485-.871 0-.232-.765-1.7-1.7-3.264-1.642-2.75-1.719-2.844-2.347-2.897-.845-.072-1.638.52-1.638 1.222 0 .485 3.101 5.826 3.552 6.12.418.27 1.175.128 1.648-.31zm1.402.386c0-.034-.177-.22-.393-.412-.392-.348-.393-.347-.177.063.179.34.57.58.57.35zm-5.868-2.045c-.57-.828-1.01-1.186-.508-.413.148.227.383.598.524.825.14.227.322.413.404.413.081 0-.108-.371-.42-.825zm5.318-.734c-.106-.28-.236-.467-.287-.416-.051.052.006.311.127.577.285.627.412.5.16-.16zm-1.475-2.559c-.442-.65-.83-1.156-.864-1.123-.033.033.284.61.705 1.282.421.671.81 1.177.864 1.123.053-.054-.264-.63-.705-1.282zm-3.78-2.95c-.06-.156-.148-.244-.196-.196-.048.048-.033.176.034.283.18.293.286.236.162-.087zm.93-.195c.367-.141.376-.69.015-.99-.525-.436-1.094.392-.605.88.257.258.221.251.59.11zm-12.905 5.333c-.55-.35-1.12-.637-1.266-.637-.219 0-.212-.06.037-.336.41-.453.436-4.128.035-5.087l-.268-.643 2.44.025c2.385.023 2.464.011 3.564-.544 1.051-.53 1.254-.567 3.115-.567h1.99l1.063-.826c.584-.454 1.166-.825 1.292-.825.327 0 3.024 1.788 3.112 2.063.04.126.106.909.147 1.74.068 1.38.05 1.476-.2 1.119-.156-.223-.311-.975-.36-1.746-.076-1.17-.15-1.403-.546-1.715-.88-.692-1.618-.498-3.312.873l-1.525 1.233.06 2.358c.056 2.273.043 2.371-.362 2.7-.232.187-.81.399-1.284.47-.475.07-1.15.322-1.502.56-.587.397-.822.431-2.934.427l-2.296-.005zm5.883-1.26c1.199-.808 1.45-1.19 1.575-2.405.114-1.11-.102-1.559-.75-1.554-.362.002-.357.019.069.233.529.266.725 1.258.34 1.72-.36.435-2.304 1.712-2.605 1.712-.227 0-.22-.13.05-.871.175-.48.311-1.202.303-1.605-.012-.65.049-.758.537-.949.47-.184.23-.217-1.664-.23-2.142-.013-2.226.002-2.613.447-.336.387-.4.684-.4 1.868 0 1.193.061 1.472.399 1.832.362.385.558.425 2.116.425 1.65 0 1.754-.025 2.643-.623zm.71-2.616c0-.354-.095-.43-.55-.43-.481 0-.55.065-.55.52 0 .68.127.783.66.54.283-.129.44-.355.44-.63zm-5.96-.794c.164-.517-.03-.735-.652-.735-.443 0-.54.076-.54.427 0 .536.135.673.66.673.255 0 .461-.142.532-.365zm8.491-1.139c.121-.12.22-.434.22-.697 0-.967-1.043-1.27-1.575-.458-.278.425-.278.492 0 .917.322.491.986.608 1.355.238zm-1.021-.361c-.325-.325-.278-.662.122-.876.256-.137.405-.117.565.077.48.578-.162 1.324-.687.799zM9.663 20.724c-.058-.152-.212-.276-.342-.276-.224 0-.458-.383-.458-.75 0-.104 2.092-.153 5.265-.123l5.265.048.122.6c.145.708-.092.93-.551.514-.294-.266-.354-.268-.561-.018-.312.375-1.217.362-1.364-.02-.106-.278-.14-.278-.446 0-.442.4-1.239.387-1.396-.021-.118-.306-.132-.306-.304 0-.211.376-1.369.447-1.5.091-.066-.183-.132-.183-.326 0-.134.126-.509.23-.833.23-.324 0-.628-.104-.674-.23-.067-.183-.133-.183-.327 0-.344.325-1.44.293-1.57-.045zm10.287.079c-.2-.324.03-.4 1.246-.411 1.19-.012 1.691.134 1.505.436-.147.237-2.603.215-2.751-.025zm3.118 0c-.209-.337.054-.41 1.371-.386.703.013 1.329-.057 1.39-.156.068-.111-.468-.18-1.413-.18l-1.524-.002-.825-1.272c-.454-.699-.895-1.276-.98-1.282-.086-.006-.198.154-.251.356-.093.355-.25.367-4.705.366l-4.61-.001-1.054-1.366c-.58-.751-1.054-1.4-1.054-1.442 0-.148 7.25-.077 7.54.075.164.085.356.096.428.024.072-.073 1.41-.143 2.974-.156 1.814-.016 2.917-.1 3.048-.23.134-.134 1.283-.204 3.356-.204 4.143 0 3.996-.104 4.079 2.875.055 1.997.028 2.214-.335 2.675L30.11 21h-3.46c-2.253 0-3.503-.069-3.581-.196zm6.792-.538c-.062-.1-.624-.182-1.248-.18-.8.002-1.055.055-.86.18.37.24 2.257.24 2.108 0zm-.217-1.68c.957-.51 1.142-1.538.41-2.271-.567-.566-1.22-.573-1.863-.02-.357.306-.5.602-.5 1.037 0 .434.143.73.5 1.038.56.48.869.527 1.453.216zm-1.301-.566c-.447-.544-.25-1.514.345-1.703.52-.165 1.265.374 1.265.914 0 .83-1.124 1.38-1.61.789zm1.053-.404c.328-.395.059-1.051-.403-.982-.545.081-.823.593-.52.958.3.362.635.37.923.024zm-15.397.157c0-.204-.629-1.175-.761-1.175-.14 0-.89.99-.89 1.175 0 .06.371.11.825.11.454 0 .826-.05.826-.11zm-8.317.968c-1.644-1.774-1.77-1.964-1.77-2.668v-.758h5.051l1.236 1.65 1.236 1.65h10.034l.485.734.486.734h-1.265c-1.111 0-1.277-.045-1.361-.367-.093-.356-.25-.367-5.368-.367-5.18 0-5.267-.006-4.955-.35.484-.535.316-1.344-.326-1.568-.45-.158-.572-.123-.87.246-.45.554-.44.68.098 1.219.246.245.368.495.27.555-.096.06-.153.33-.125.6.044.427-.022.497-.518.546-.512.05-.745-.135-2.338-1.856zm2.703-.204c-.183-.476.073-.87.524-.805.303.043.413.18.413.517 0 .336-.11.474-.413.517-.248.035-.458-.057-.524-.23zm-4.749-4.002c-.5-1.413-.614-3.805-.182-3.805.151 0 .275-.083.275-.183 0-.101-.124-.184-.275-.184-.382 0-.367-1.489.025-2.515l.3-.786h2.654c2.454 0 2.644.024 2.524.321-.071.177-.172.62-.224.984-.087.61-.05.678.477.861.553.193.57.233.57 1.303 0 1.18-.227 1.483-1.11 1.483-.298 0-.353.059-.215.229.102.126.222.6.266 1.054.044.454.144.97.223 1.147.132.297-.053.32-2.542.32-1.982 0-2.706-.06-2.766-.229zm3.105-.822c-.898-.063-.944-.094-1.33-.887-.31-.642-.398-1.155-.398-2.34 0-1.965.16-2.202 1.438-2.114.773.053.945.013.903-.21-.037-.193-.334-.29-.997-.33-.886-.05-.975-.015-1.42.568-.415.544-.475.799-.475 2.022 0 1.15.089 1.58.497 2.413l.497 1.013 1.108-.034 1.108-.034zm1.114-1.333c.062-.1.026-.183-.08-.183-.108 0-.195.083-.195.183 0 .101.036.184.08.184.045 0 .133-.083.195-.184zm-.825-.55c0-.1-.083-.183-.184-.183-.1 0-.183-.298-.183-.662 0-.512.062-.637.275-.555.31.118.349-.034.108-.414-.34-.538-.75-.068-.75.861 0 .49.055.947.123 1.014.187.188.61.146.61-.06zm2.114 2.393c-.341-.659-.373-1.835-.051-1.861.126-.01.848-.005 1.605.012.756.018 1.581-.051 1.833-.153.364-.146.135-.186-1.1-.195l-1.559-.011.06-1.445.059-1.445-.557-.194-.556-.194.285-.837.285-.838 6.447.01 6.448.009-1.408.72c-.774.395-1.46.804-1.524.907-.064.104-.916.205-1.893.226l-1.777.038 1.696.06 1.696.061v2.92h-2.69c-1.479 0-2.65.04-2.602.088.12.119 1.933.244 3.826.263l1.56.016L20.6 13.4c.756.561 1.453 1.098 1.549 1.192.109.108-2.253.173-6.276.173h-6.45Zm5.722-5.277a6.854 6.854 0 0 0-1.284.001c-.326.04-.014.073.692.072.706 0 .972-.034.592-.073zm20.222 4.443v-1.375h.55c.303 0 .55-.085.55-.188 0-.104-.247-.238-.55-.298-.509-.102-.55-.17-.55-.9 0-.726.041-.795.504-.849.278-.032.505-.14.505-.241 0-.1-.227-.21-.505-.241-.487-.056-.504-.096-.504-1.147 0-.83.063-1.088.266-1.088.147 0 1.087.495 2.088 1.1 1.002.606 1.877 1.1 1.945 1.1.327 0-.218-.4-1.772-1.303l-1.702-.988 3.026-.053c1.664-.029 3.191-.01 3.393.043.224.059.78.804 1.43 1.915l1.062 1.819 2.529-.1c1.696-.067 2.644-.033 2.88.103.3.174.242.205-.395.21-.563.004-.844.118-1.145.464-.22.252-.514.458-.654.458s-.54.316-.889.702l-.634.702-1.083-.787c-1.253-.91-1.457-.899-2.593.14l-.775.71h-3.86v-.605c0-.71.277-1.045.862-1.045.232 0 .422-.068.422-.152 0-.083-.25-.115-.555-.07-.677.1-1.095.654-1.095 1.452 0 .558-.089.644-1.28 1.243-.703.355-1.322.645-1.375.645-.053 0-.096-.62-.096-1.376zm6.4-.527c.28-.34.083-.788-.407-.92-.527-.14-2.035-.141-2.402 0-.288.11-.401.816-.168 1.05.242.242 2.758.133 2.976-.13zm-2.235-.298c-.084-.32-.006-.367.62-.367.594 0 .717.063.717.367 0 .294-.123.367-.62.367-.467 0-.645-.092-.717-.367zm6.838-1.203c0-.303-.29-.354-.458-.08-.15.241.07.585.287.45.094-.058.171-.225.171-.37zm-3.24-.631c.053 0 .126.144.164.32.047.223.1.166.171-.182.057-.277.005-.639-.115-.803-.19-.261-.27-.201-.617.463-.485.931-.5 1.166-.041.615.19-.227.387-.413.439-.413zm-2.078.183c0-.203-.122-.366-.275-.366-.151 0-.277-.145-.278-.321-.002-.275-.029-.281-.18-.046-.26.4-.223.737.067.625.139-.053.301.032.361.19.153.397.305.356.305-.082zm.925-.17c.213.344.362.148.41-.54.025-.352.124-.545.254-.495.238.09.428-.282.428-.838 0-.204-.083-.31-.19-.244-.106.065-.138.296-.072.515.094.31.07.35-.106.182-.125-.118-.34-.171-.48-.118-.165.064-.252-.036-.252-.29 0-.465-.137-.484-.582-.082-.384.348-.444.795-.106.8.166.002.16.046-.023.162-.14.088-.196.254-.125.367.07.114.211.156.313.092.104-.063.17.037.15.227-.055.515.037.754.138.36.07-.273.122-.294.243-.097zm-.31-.79c-.19-.306.125-.395.407-.114.25.25.249.28-.013.28-.16 0-.338-.075-.394-.165zm-.798-.492c0-.193.05-.482.11-.642.062-.16.03-.29-.07-.29-.101 0-.217.29-.259.642-.04.353-.009.642.072.642.08 0 .147-.158.147-.352zM21.79 13.744c-1.977-1.486-2.108-1.69-2.108-3.28V9.079h3.683l-.054 1.42-.053 1.422-1.422.054c-1.876.07-1.838.404.046.404h1.467v1.1c0 .761-.07 1.1-.229 1.096-.126-.002-.724-.377-1.33-.831zm2.11-.264v-.917h.727c.554 0 .704.062.628.26-.194.506 1.026.825 2.077.543.223-.06.456-.265.516-.456.102-.32.324-.347 2.843-.347 2.544 0 2.745.025 2.928.367.115.214.384.366.648.366.38 0 .452.088.452.55v.55H23.9zm23.134.125c-.213-.257.107-.903.676-1.363.322-.26 2.597-.318 2.597-.066 0 .212-.462.387-1.023.387-.249 0-.755.281-1.154.642-.802.725-.82.732-1.096.4zm-23.135-2.6V9.628l3.439-.037c1.891-.02 2.808-.065 2.037-.1-1.21-.053-1.415-.11-1.496-.42-.082-.313-.257-.36-1.32-.36-1.073 0-1.239.046-1.323.367-.071.273-.25.366-.7.366h-.604l-.062-1.1-.062-1.101H34.72v.62c0 .534-.071.633-.526.724-.316.063-.565.251-.622.47-.078.297-.283.38-1.078.435-.7.048-.521.078.622.102l1.604.034v2.75H23.9zm26.525.916c-.067-.174-.348-.275-.768-.275-.911 0-.737-.44.204-.518.395-.033.774-.151.843-.263.17-.275.704.167.704.583 0 .633-.778 1.007-.983.473zm-6.049-2.489c-.287-.51-.493-.958-.458-.992.22-.218 2.964-1.181 3.109-1.091.21.13.102.524-.533 1.959-.422.955-.52 1.054-1.03 1.054-.489 0-.637-.127-1.088-.93zm1.52-.389c.36-.646.18-.795-.522-.432-.354.183-.568.435-.568.668 0 .547.742.386 1.09-.236zm-26.03-.252c0-.057.763-.462 1.696-.898l1.697-.795.058.643c.1 1.11.031 1.154-1.795 1.154-.91 0-1.656-.047-1.656-.104zM3.728 6.518c0-.097.355-.613.79-1.146.748-.92.837-.973 1.741-1.025l.953-.056v2.404H5.47c-.994 0-1.742-.076-1.742-.177zm2.731-.625c.456-.55-.296-1.24-.8-.736-.338.338-.35.479-.06.767.29.29.603.279.86-.031Zm1.12-.345.092-1.146 3.53-.05c3.342-.047 3.53-.031 3.53.293 0 .188.151.479.335.646.303.274 1.239.303 9.628.303h9.293V6.68l-9.812.01c-9.718.011-9.81.008-9.81-.358 0-.478-.373-.48-.498-.003-.09.349-.25.367-3.238.367H7.487Zm26.995.138.054-.734h7.52l.056.68.056.681-3.87.053-3.87.053zm8.03-.092-.09-.825h-4.149c-3.243 0-4.13-.05-4.06-.23.063-.164.664-.228 2.122-.228 2.028 0 2.037-.002 2.623-.57.56-.544.655-.57 2.087-.566.824.003 1.537.042 1.583.089.047.046.06.775.029 1.62-.043 1.172-.077 1.34-.145.71zm-.548-1.559a.276.276 0 0 0-.275-.275c-.287 0-.364.217-.153.428.21.211.428.134.428-.153zm-26.921.972c-.318-.318-.27-.696.087-.696.17 0 .596.103.947.229.511.183.655.183.716 0 .092-.274.711-.306.872-.046.062.1.315.183.56.183.247 0 .449-.082.449-.183 0-.332.683-.191.94.194l.252.378.405-.378c.477-.445.889-.486 1.036-.102.138.358.566.35.934-.018.313-.313.869-.224.79.126-.082.361.607.339.924-.03.375-.44.697-.45.936-.033.176.306.212.306.758 0 .724-.405.91-.403.91.007 0 .439.748.441 1.065.004.291-.403.692-.43.835-.056.058.15.306.275.55.275.245 0 .493-.124.55-.275.133-.346.668-.363.668-.022 0 .422.721.495.969.098.282-.451.617-.448.861.008.21.393.671.334 1.05-.133.288-.357.788-.156.788.318 0 .37-.075.372-9.316.372-7.002 0-9.371-.054-9.536-.22z" style="fill:#000;stroke-width:.183386;fill-opacity:1"/></svg>