<svg xmlns="http://www.w3.org/2000/svg" width="512" height="68.471" viewBox="0 0 135.467 18.116"><g style="fill:#000;fill-opacity:1;stroke:none"><path d="M12 12v44.471h53.094c5.633.006 9.572-.981 11-3.614h377.619l7.59-6.404L82.32 45.256c-8.676-.993-7.23-22.153 0-22.81h409.014l8.664-6.942H76.094c-3.216-2.463-6.697-3.496-11-3.504Zm13.848 11.107h39.246c6.655-.039 6.932 6.556 0 6.604l-39.246.008zM85.02 24.43c-4.553.15-6.181 4.464-6.282 10.322.087 4.242.037 8.578 6.282 8.518h17.38c2.323.035 5.867-2.09 5.717-4.627V24.43H102.4v14.213H85.02Zm25.175 0v18.84h5.95V29.387h16.154c1.978-.05 2.043 2.948.055 2.847h-13.895l11.9 11.036h7.563l-8.338-7.46h4.975c5.011-.033 4.943-11.356 0-11.38zm32.012 0v18.84h5.951V29.387h16.153c1.978-.05 2.042 2.948.054 2.847h-13.892l11.9 11.036h7.563l-8.338-7.46h4.972c5.012-.033 4.944-11.356 0-11.38zm32.172 0v18.84h19.726l5.291-4.297h-19.503V35.81h19.503v-3.493h-19.503v-2.931h19.503V24.43zm27.332 0v18.84h24.13v-4.297h-18.18V24.43Zm26.443 0v18.84h23.801v-4.297h-17.85V24.43Zm34.737 0 4.293 4.957h30.06v9.256h-14.146v-6.325h-6.02V43.27h21.772c2.927-.007 4.549-.297 4.691-4.627-.003-.255-.01-8.992-.018-9.256-.054-4.799-1.959-4.987-4.673-4.957zm42.129 0v18.84h19.992l5.289-4.627h-19.504V35.81H330.3v-3.493h-19.504v-2.931H330.3V24.43zm27.593 0v18.84h5.951v-7.46h19.834v-3.492h-19.834v-2.931h19.834V24.43zm27.848 0v18.84h19.99l5.29-4.627h-19.503V35.81h19.502v-3.493h-19.502v-2.931h19.502V24.43zm27.027 0v18.84h5.62V31.72l14.214 11.55h5.951V24.43h-5.95v11.789l-14.216-11.79Zm33.205 0c-6.081.19-7.22 10.774 0 11.38 1.494.056 13.04-.05 15.362 0 2.205-.053 2.387 2.48.422 2.8a2.652 2.652 0 0 1-.422.033h-15.362l-4.445 4.627h23.572c.162-.009.318-.028.471-.055 4.73-.855 5.054-10.609-.47-10.897h-16.71c-2.972.021-2.912-2.912 0-2.931h23.522V43.27h18.123l5.375-4.627h-19.184l.002-2.832h19.18l.002-3.493h-19.182l-.002-2.931h32.985l5.289-4.957zM25.848 38.975h39.246c6.704.102 7.088 6.7 0 6.609H25.848Z" style="fill:#000;fill-opacity:1;stroke-width:.66112632;stroke:none" transform="matrix(.26458 0 0 .26458 0 0)"/></g></svg>