<svg xmlns="http://www.w3.org/2000/svg" width="512" height="508.855" viewBox="0 0 135.467 134.635"><path d="m102.03 270.144-6.33 3.69-33.627 1.25-15.468-.568-6.28-1.537-4.038-1.55-2.204-1.431-4.01-5.126-2.48-5.339-1.37-2.835.301-9.353.433-13.886-.965-41.696 14.83-10.235 26.84-9.579 31.949 15.127 8.894 6.873-.535 39.51.862 13.669.515 7.36-3.024 8.569-3.458 5.663z" style="fill:#000;stroke:none;stroke-width:.26458332px;stroke-linecap:butt;stroke-linejoin:miter;stroke-opacity:1;fill-opacity:1" transform="translate(0 -162.365)"/><path d="M455 471.627c-9.689 10.253-20.59 16.398-35.715 8.215-5.097 11.477-12.477 19.634-24.107 21.607 6.046 4.568 7.217 10.267 6.965 17.32v60.715c1.125 11 5.332 17.61 10.898 21.772l6.236-3.953-10.607-2.526c6.857-11.307 14.71-.327 19.824-.63 4.845-.096 5.33-4.14 10.795-4.182 1.125-.08 2.191.056 3.21.312-2.975-1.236-4.952-2.924-7.313-2.767-3.953.193-8.907 6.14-13.827 2.722-3.709-1.928-6.73-3.58-14.898-2.02-2.93-.373 7.087-7.283 10.164-6.63 4.706.977 7.419 4.01 12.31 4.799 4.156-.003 8.567-4.164 11.893-4.219 2.988-.082 5.62 4.165 12.604 4.66 4.461-.015 7.499-4.537 10.986-4.683 5.4.168 7.105 3.966 12.5 4.498 4.275.127 7.886-4.787 11.49-4.305 4.773.35 6.013 4.869 15.658 4.176-.867 5.461-4.729 5.13-7.955 5.318-5.55.182-7.954-3.804-13.132-4.277-4 .211-5.191 4.938-10.67 4.277-5.393-.668-7.814-4.49-12.627-4.34-4.01.084-7.636 5.643-14.26 3.713a15.073 15.073 0 0 1-.744-.178c3.113 1.31 5.766 3.323 8.25 3.125 4.425.103 4.018-4.297 9.845-4.244 5.253.048 8.502 4.502 12.756 4.244 4.493-.045 4.232-4.22 9.66-4.482 5.145.057 7.826 5.228 15.405 4.482-.512 4.222-3.71 5.408-8.582 5.143-5.19-.282-7.412-3.785-11.305-3.943-3.477-.232-5.458 3.337-9.148 3.486-7.32.296-8.691-3.843-12.57-3.486-3.948-.327-7.27 3.509-10.905 3.44-5.712-.11-8.03-3.634-12.582-3.44-4.103.026-7.166 3.921-12.816 3.22 5.551 1.231 6.128 3.176 8.787 2.907 5.126-.52 5.187-4.508 10.677-3.8 4.69.98 6.451 3.619 10.112 3.753 4.098.118 5.06-4.518 10.17-3.551 4.355.554 6.085 3.58 9.978 3.598 2.212.011 6.305-4.262 9.84-3.711 5.16 1.245 7.353 4.038 15.043 3.59l.068.085c4.404-3.809 7.896-9.7 9.604-19.095v-57.858c-.11-8.21 1.263-16.04 5.892-23.035-13.19-3.829-18.161-12.778-23.035-21.787-12.804 7.62-24.398 4.821-34.822-8.035zm-.29 7.953 3.333 7.238 7.705 1.291-5.686 5.485 1.184 7.912-6.846-3.848-6.972 3.6 1.455-7.865-5.494-5.688 7.744-1.012zm39.65 18.772 3.331 7.24 7.705 1.289-5.685 5.486 1.184 7.912-6.844-3.85-6.975 3.6 1.455-7.865-5.494-5.685 7.744-1.012zm-78.43.002 3.332 7.238 7.705 1.29-5.686 5.485 1.184 7.912-6.846-3.85-6.973 3.6 1.454-7.863-5.493-5.687 7.745-1.012zm38.445 7.648 5.535 5-2.5 19.643 1.162-.09 3.125-16.963 3.213 3.57-4.017 13.84 6.607 3.215L475.625 521h4.822l-10.537 14.734.805.625L482.947 521h7.946v7.68l-16.25 11.875.714.892 14.375-9.73-.09 4.91-13.035 7.143 2.233 5.447 14.732-4.108 3.035 3.573-17.232 3.392v1.16l19.73-2.591 5.627 5.27-5.626 5.444-19.641-2.765-.18 1.428 17.322 3.035-3.035 3.662-14.732-4.375c-1.021 3.233-1.924 4.736-2.77 6.338 4.08-1.07 9.869-1.07 12.055.015 5.315 2.344 7.718 5.624 17.678 4.18.167 5.648.58 11.865-1.608 12.055-7.334 1.183-10.001-4.498-16.07-4.6-4.65-.268-5.732 4.385-12.525 4.285-4.184-.061-6.679-4.329-11.672-4.285-4.378-.098-5.978 4.254-11.826 4.326-4.962.061-6.222-4.42-11.518-4.326-3.143.042-7.708 4.444-12.059 4.344-3.614-.084-7.927-4.555-11.83-4.344-4.523.112-8.253 2.29-11.785 5.225-1.895 1.633-1.157-7.776-1.25-12.41 4.78-2.942 8.234-4.241 12.768-5.268 5.656-.838 6.412 4.811 15.09-.803l-2.233-4.554-13.213 4.197-3.93-3.662 17.055-3.393v-.803l-19.644 2.498-5.356-5.445 5.356-5.27 19.644 2.325.088-.893-17.142-3.392 3.93-3.573 14.105 3.84 1.875-5.715-12.768-7.232v-5.268l14.287 10 .713-1.072-15.267-10.982.357-7.68h6.34l12.32 14.467 1.25-.805L429.197 521h4.553l7.678 12.412 6.072-2.232-3.928-13.66 3.75-3.75 3.393 16.785.803-.088-2.59-19.555zm-61.785 91.605-10.268 8.217c1.235 12.868 15.148 24.408 25.533 25h93.575c8.588.098 25.457-8.044 25.535-25l-9.822-8.217c1.045 9.84-7.348 19.907-15.713 20.27h-45.002c5.063-10.135 20.412-7.022 33.078-11.86-6.88-.086-8.873-2.919-11.389-3.22-2.633.126-4.385 3.654-9.533 3.914-5.155-.138-6.478-3.188-10.227-3.504-3.044-.084-6.33 3.443-10.67 3.44-5.319.015-6.734-3.598-10.48-3.803-3.48-.13-5.369 4.404-11.3 3.11l-10.132-2.92c14.435 8.337 35.266 4.08 37.975 14.843h-45.895c-4.934-.363-15.133-4.642-15.265-20.27z" style="fill:#d89753;fill-opacity:1;stroke:none;stroke-width:.99999994px;stroke-linecap:butt;stroke-linejoin:miter;stroke-opacity:1" transform="matrix(.80582 0 0 .80582 -298.752 -376.87)"/><path d="m102.815 153.41-3.491 3.223c-.708.808.771 1.688 1.22 1.905l2.455-1.72-.986-.953c-.927-.982.262-1.588 1.203-1.921z" style="fill:#d89753;fill-opacity:1;stroke:none;stroke-width:.26458332px;stroke-linecap:butt;stroke-linejoin:miter;stroke-opacity:1" transform="matrix(3.0456 0 0 3.0456 -298.752 -376.87)"/><path d="m101.93 158.287.468.518 1.77-1.437c.618-.44.867.338 1.186.886.543-.978-.948-2.79-2.19-2.676.39.292.985.487.756 1.075z" style="fill:#d89753;fill-opacity:1;stroke:none;stroke-width:.26458332px;stroke-linecap:butt;stroke-linejoin:miter;stroke-opacity:1" transform="matrix(3.0456 0 0 3.0456 -298.752 -376.87)"/><path d="m102.88 155.838-.189.212.603.567.248-.248zM104.321 157.976c1.107.7.563 1.33.012 1.287zM137.85 153.252l3.491 3.224c.708.808-.77 1.688-1.22 1.905l-2.455-1.72.986-.953c.927-.982-.262-1.588-1.203-1.921z" style="fill:#d89753;fill-opacity:1;stroke:none;stroke-width:.26458332px;stroke-linecap:butt;stroke-linejoin:miter;stroke-opacity:1" transform="matrix(3.0456 0 0 3.0456 -298.752 -376.87)"/><path d="M416.047 620.223c.952 0 1.676.18 2.174.535.207.146.372.336.51.555v-.83h6.996v1.84h-2.348v5.609h-2.3v-5.61h-1.99c.008.042.02.078.026.121l-2.17.127c-.057-.335-.179-.578-.365-.73-.183-.153-.436-.229-.762-.229-.267 0-.47.057-.605.172a.515.515 0 0 0-.203.412c0 .119.056.226.168.32.108.099.365.19.771.274 1.006.217 1.727.437 2.16.66.437.22.753.496.95.824.2.33.3.696.3 1.102 0 .478-.132.92-.396 1.322-.264.403-.633.71-1.108.92-.474.207-1.073.309-1.794.309-1.267 0-2.144-.243-2.631-.73-.488-.488-.764-1.108-.828-1.86l2.189-.139c.047.356.143.628.29.815.236.301.576.45 1.017.45.328 0 .58-.075.756-.228.18-.155.27-.335.27-.539 0-.193-.085-.365-.255-.517-.17-.153-.561-.296-1.178-.432-1.009-.227-1.73-.528-2.16-.904a1.822 1.822 0 0 1-.65-1.44c0-.382.11-.743.33-1.082.224-.342.558-.61 1.002-.802.447-.197 1.058-.295 1.834-.295zm-16.604.127h2.301v5.615h3.592v.68l2.365-6.295h2.51l2.8 7.449h-2.407l-.368-1.229h-2.62l-.362 1.229h-7.811zm42.53.006c1.24 0 2.194.334 2.865 1.002.67.664 1.006 1.595 1.006 2.795 0 .87-.147 1.585-.442 2.144-.291.556-.716.99-1.271 1.3-.552.31-1.242.462-2.069.462-.84 0-1.535-.133-2.087-.4-.55-.268-.994-.693-1.336-1.272-.342-.58-.514-1.303-.514-2.174 0-1.216.338-2.162 1.016-2.84.677-.677 1.622-1.017 2.832-1.017zm7.423 0c.952 0 1.678.18 2.176.535.502.352.8.913.895 1.685l-2.17.127c-.058-.335-.181-.578-.367-.73-.183-.153-.437-.229-.762-.229-.268 0-.468.057-.604.172a.516.516 0 0 0-.203.412c0 .119.055.226.166.32.109.099.367.19.774.274 1.006.217 1.724.437 2.158.66.437.22.755.496.951.824.2.329.299.696.299 1.102 0 .478-.13.92-.395 1.322-.264.403-.635.71-1.109.92-.474.207-1.071.309-1.793.309-1.267 0-2.143-.243-2.63-.73-.489-.488-.766-1.108-.83-1.86l2.19-.139c.048.356.144.628.29.815.237.301.575.45 1.015.45.329 0 .582-.075.758-.228.18-.155.27-.335.27-.539 0-.193-.085-.365-.254-.517-.17-.153-.563-.296-1.18-.432-1.01-.227-1.728-.528-2.158-.904a1.822 1.822 0 0 1-.65-1.44c0-.382.11-.743.33-1.082.223-.342.556-.61 1-.802.447-.197 1.058-.295 1.833-.295zm42.485 0c1.24 0 2.194.334 2.865 1.002.67.664 1.008 1.595 1.008 2.795 0 .87-.149 1.585-.443 2.144-.292.556-.714.99-1.27 1.3-.552.31-1.242.462-2.068.462-.84 0-1.536-.133-2.088-.4-.549-.268-.994-.693-1.336-1.272-.342-.58-.514-1.303-.514-2.174 0-1.216.338-2.162 1.016-2.84.677-.677 1.62-1.017 2.83-1.017zm-65.756.127h2.307v7.449h-2.307Zm3.188 0h3.029l1.168 4.533 1.164-4.533h3.017v7.449h-1.878v-5.68l-1.46 5.68h-1.703l-1.453-5.68v5.68h-1.884zm25.869 0h2.51l2.798 7.449h-2.408l-.365-1.229h-2.621l-.362 1.229h-2.353zm12.047 0h2.51l2.61 6.949v-6.95h3.837c.71 0 1.254.062 1.63.184.376.122.68.35.91.682.23.328.346.729.346 1.203 0 .413-.09.77-.265 1.072-.176.298-.419.54-.727.727-.196.118-.464.217-.807.295.275.091.475.184.6.275.085.061.206.19.365.39.163.2.27.355.324.464l.87 1.685v-6.976h3.029l1.168 4.533 1.164-4.533h3.018v7.449h-1.88v-5.68l-1.458 5.68h-1.702l-1.453-5.68v5.68h-4.244l-1.228-2.276c-.156-.294-.296-.486-.418-.574a.962.962 0 0 0-.563-.174h-.205v3.024H470.13l-.365-1.229h-2.623l-.36 1.229h-2.353zm28.855 0h3.836c.711 0 1.255.061 1.63.183.377.122.68.35.91.682.231.328.347.729.347 1.203 0 .413-.09.77-.266 1.072-.176.298-.418.54-.727.727-.196.118-.464.217-.806.295.274.091.474.184.6.275.084.061.205.19.365.39.162.2.27.355.324.464l1.113 2.158h-2.601l-1.23-2.276c-.157-.294-.295-.486-.417-.574a.968.968 0 0 0-.564-.174h-.203v3.024h-2.311zm5.908 0h2.557l1.504 2.515 1.504-2.515h2.54l-2.896 4.33v3.119h-2.306v-3.12zm-27.332 1.505.002 1.514h.969c.105 0 .31-.034.611-.101a.596.596 0 0 0 .37-.235.68.68 0 0 0 .148-.431c0-.24-.076-.426-.229-.555-.152-.129-.44-.192-.86-.192zm23.735 0v1.514h.97c.105 0 .31-.034.612-.101a.596.596 0 0 0 .369-.235.68.68 0 0 0 .148-.431c0-.24-.076-.426-.228-.555-.153-.129-.44-.192-.86-.192zm-56.428.112c-.464 0-.836.163-1.117.492-.282.329-.422.872-.422 1.63 0 .753.138 1.293.416 1.622.28.329.661.492 1.142.492.495 0 .878-.16 1.149-.482.27-.322.406-.9.406-1.733 0-.7-.141-1.211-.426-1.533-.28-.325-.664-.488-1.148-.488zm49.91 0c-.464 0-.838.165-1.12.494-.28.328-.421.872-.421 1.63 0 .753.14 1.293.418 1.622.281.328.661.492 1.142.492.495 0 .878-.16 1.149-.482.27-.322.406-.9.406-1.733 0-.701-.141-1.213-.426-1.535-.28-.325-.664-.488-1.148-.488zm-82.945.181-.819 2.678h1.64zm47.478.133-.818 2.678h1.642zm12.047 0-.818 2.678h1.64z" style="fill:#000;fill-opacity:1;stroke:none;stroke-width:.99999994px;stroke-linecap:butt;stroke-linejoin:miter;stroke-opacity:1" transform="matrix(.80582 0 0 .80582 -298.752 -376.87)"/><path d="m138.735 158.13-.468.518-1.77-1.437c-.618-.44-.867.338-1.186.886-.543-.979.948-2.79 2.19-2.676-.39.292-.985.487-.756 1.075z" style="fill:#d89753;fill-opacity:1;stroke:none;stroke-width:.26458332px;stroke-linecap:butt;stroke-linejoin:miter;stroke-opacity:1" transform="matrix(3.0456 0 0 3.0456 -298.752 -376.87)"/><path d="m137.785 155.68.189.213-.603.567-.248-.248zM136.344 157.819c-1.107.7-.563 1.33-.012 1.287z" style="fill:#d89753;fill-opacity:1;stroke:none;stroke-width:.26458332px;stroke-linecap:butt;stroke-linejoin:miter;stroke-opacity:1" transform="matrix(3.0456 0 0 3.0456 -298.752 -376.87)"/></svg>