<svg xmlns="http://www.w3.org/2000/svg" width="512" height="469.997" viewBox="0 0 135.467 124.353"><path d="M19.687 118.256c-.727-1.607-2.646-5.941-4.265-9.631-1.619-3.69-3.399-7.684-3.956-8.874-.95-2.032-1.021-2.09-1.158-.951-.138 1.152-.244 1.206-2.112 1.082l-1.967-.131.071-5.747c.071-5.733.068-5.756-1.527-9.468l-1.598-3.721 1.317-3.085c.725-1.697 2.9-6.686 4.834-11.088l3.516-8.002-.662-2.642c-1.133-4.517-.34-6.058 2.553-4.958.89.339 1.183.27 1.518-.356.315-.589.108-1.238-.856-2.692-1.52-2.291-1.537-2.52-.35-4.846 1.39-2.723 3.236-4.832 5.985-6.834 2.43-1.77 2.529-1.926 5.664-9.004 1.754-3.962 4.409-9.93 5.898-13.264l2.707-6.06 17.296-.216c16.806-.21 17.324-.243 18.304-1.126 1.774-1.599 5.115-3.69 5.508-3.448.209.13.64 1.118.959 2.197.364 1.232.78 1.885 1.118 1.755.296-.113.653-.02.794.208.15.244 4.473.414 10.566.414 7.742 0 10.411.134 10.716.54.224.298 1.244 2.49 2.266 4.87 1.023 2.381 2.008 4.49 2.19 4.686.182.197 1.085-.766 2.007-2.139 2.093-3.113 2.756-3.395 2.77-1.176.007.913.225 2.536.487 3.607.262 1.072.518 2.24.568 2.597.401 2.851 1.409 6.19 2.668 8.843.822 1.73 1.605 3.905 1.741 4.834.136.93.81 3.369 1.499 5.42.688 2.053 1.251 4.634 1.251 5.737 0 2.025 1.055 4.6 11.29 27.55 1.647 3.694 2.995 7.117 2.995 7.607 0 .49-1.046 3.214-2.325 6.053l-2.324 5.162 1.44 4.004 1.44 4.004h-2.279c-2.083 0-2.313-.1-2.688-1.164-.377-1.072-.606-.708-2.929 4.654-1.386 3.2-3.723 8.495-5.193 11.767l-2.673 5.95-46.876.002-46.875.002zm98.056-10.138c2.944-6.665 4.453-10.567 4.157-10.75-.672-.415.242-2.595 1.088-2.595 1.006 0 1.2-.988.605-3.093l-.532-1.885-1.582 4.978-1.583 4.978-2.027.132c-1.408.092-2.026-.034-2.026-.412 0-.576 3.687-10.953 4.283-12.056.232-.43 1.167-.693 2.757-.778 2.016-.108 2.505.014 3.023.753.58.829.712.664 2.203-2.77.872-2.007 1.585-3.758 1.585-3.889 0-.131-2.264-5.353-5.031-11.603-2.768-6.25-5.235-11.939-5.483-12.641-.401-1.134-.486-1.182-.759-.433-.169.464-.112 1.087.126 1.385.68.852-1.874.682-4.075-.272-2.579-1.116-6.876-5.454-8.784-8.868-1.729-3.09-3.624-4.604-5.765-4.604-1.69 0-3.024 1.554-5.107 5.942-1.43 3.015-1.577 3.68-1.699 7.722-.1 3.287-.36 4.934-1.016 6.417-.486 1.098-1.061 1.995-1.28 1.995-.218 0-.31.46-.202 1.02.107.562-.34 2.802-.993 4.979-.982 3.273-1.337 3.957-2.053 3.957-.81 0-.82.051-.153.788.598.661 1.576 3.044 2.742 6.68.211.659-.067.757-2.155.757-2.976 0-4.148-.888-7.516-5.695-2.41-3.439-4.115-5.127-5.18-5.127-.324 0-.59.289-.59.641 0 .846-1.702 1.245-3.078.722-.765-.291-1.936-.223-3.879.226-2.158.5-4.922.605-12.306.471-10.558-.192-12.078-.513-18.719-3.956a205.147 205.147 0 0 0-5.413-2.694c-2.636-1.248-2.792-1.427-1.97-2.25.538-.537.522-.54-4.198-.749-1.713-.076-5.516-1.982-7.375-3.696-.485-.447-1.351-.866-1.926-.932-.97-.111-1.361.592-5.505 9.89L5.89 80.813l1.342 2.868c.966 2.062 1.574 2.868 2.167 2.868.691 0 .825.321.825 1.976 0 2.632.594 3.651 2.127 3.651 2.61 0 3.02-2.664.465-3.03-1.155-.166-1.542-.445-1.648-1.192-.08-.563.13-1.08.498-1.22 1.003-.385 5.546.602 6.423 1.396.883.8 1.04 2.776.325 4.111-.594 1.11-2.94 2.1-4.976 2.1-1.098 0-1.503.163-1.338.54 1.945 4.442 10.275 22.966 10.468 23.278.166.27 16.558.422 45.407.422h45.147zm-91.647 4.547c-.159-.159-.289-2.01-.289-4.112v-3.824h1.299c1.26 0 1.299.062 1.305 2.056.003 1.131.15 1.847.325 1.592.175-.256.659-.59 1.075-.744 1.02-.376.96-1.2-.108-1.48-.476-.124-.866-.496-.866-.825 0-.692 1.206-.778 2.738-.195 1.01.384 1.064.586 1.093 4.112.03 3.635.01 3.708-1.008 3.708-.882 0-1.06-.238-1.173-1.576-.1-1.171-.385-1.668-1.109-1.934-.918-.337-.974-.246-.974 1.576 0 1.738-.102 1.934-1.01 1.934-.555 0-1.14-.13-1.298-.288zm20.489-.577c-1.145-1.145-1.094-1.732.15-1.732 1.046 0 2.447 1.196 2.447 2.09 0 .813-1.654.585-2.597-.358zm3.206.367c-.17-.274.013-.734.407-1.022.393-.287.715-.629.715-.759s-1.07-.84-2.38-1.579c-1.803-1.017-2.381-1.584-2.381-2.335 0-1.265.767-2.031 2.034-2.031 1.056 0 1.387 1.06.455 1.457-.596.254.081.899 2.705 2.579 1.996 1.278 2.315 3.122.65 3.755-1.462.556-1.828.546-2.205-.065zm16.58.228c-.17-.169-.307-2.027-.307-4.13v-3.824h2.629l-.124 4.004c-.114 3.653-.202 4.015-1.008 4.13-.486.07-1.022-.01-1.19-.18zm2.8-.457c.106-.552.538-.788 1.444-.788 1.87 0 1.738 1.256-.152 1.437-1.201.116-1.419.005-1.293-.649zm15.794.439c-.158-.159-.288-2.01-.288-4.112 0-3.79.01-3.824 1.082-3.824 1.078 0 1.082.015 1.082 4.112 0 3.7-.08 4.112-.794 4.112-.436 0-.923-.13-1.082-.288zm4.87-.482c-1.476-1.727-2.63-4.301-2.482-5.537l.152-1.268 1.075 1.948 1.075 1.948.13-2.272c.128-2.205.17-2.273 1.424-2.273H92.5l-.125 4.004c-.112 3.625-.206 4.016-.99 4.128-.476.067-1.174-.237-1.55-.678zm15.186.255c0-.284.519-2.144 1.153-4.134l1.153-3.619 1.516.13c1.49.128 1.536.19 2.743 3.79.675 2.013 1.227 3.815 1.227 4.004 0 .19-.505.344-1.123.344-.758 0-1.196-.28-1.349-.865-.146-.56-.59-.866-1.258-.866-1.193 0-1.397-1.051-.321-1.653.54-.303.63-.696.375-1.645-.306-1.142-.408-.982-1.208 1.891-.768 2.758-.997 3.138-1.89 3.138-.56 0-1.018-.232-1.018-.515zm-35.639-3.236c-.718-.718-.21-1.443 1.01-1.443 1.01 0 1.299.192 1.299.866 0 .618-.289.866-1.01.866-.556 0-1.14-.13-1.299-.29zm-19.05-3.1c-.947-1.046-.904-1.373.177-1.373 1.26 0 2.569.78 2.569 1.53 0 .906-1.883.798-2.747-.157zm18.762-.724c0-.453.457-.649 1.515-.649 1.058 0 1.515.196 1.515.65 0 .453-.457.649-1.515.649-1.058 0-1.515-.196-1.515-.65zm-51.91-5.952c.02-.297 1.048-3.268 2.285-6.6l2.25-6.06h5.502l2.313 6.492c1.272 3.571 2.318 6.542 2.323 6.601.005.06-.974.109-2.176.109-2.041 0-2.217-.087-2.64-1.299-.397-1.14-.657-1.299-2.116-1.299-1.912 0-2.19-.268-1.678-1.623.254-.67.723-.974 1.51-.974.813 0 1.074-.178.906-.618-.13-.34-.369-1.317-.529-2.17-.16-.852-.418-1.629-.574-1.725-.156-.097-.946 2.048-1.756 4.766l-1.472 4.942H19.24c-1.403 0-2.08-.179-2.056-.541zm16.079-6.06.12-6.6h3.895l.12 6.6.119 6.602h-4.374Zm8.39 5.917c-.144-.377-.263-1.542-.263-2.59 0-1.725-.111-1.928-1.19-2.164-2.088-.458-2.272-.577-2.272-1.474 0-.675.282-.879 1.215-.879.67 0 1.594-.28 2.056-.624 1.16-.86.345-2.144-1.475-2.325-1.203-.12-1.364-.292-1.364-1.463v-1.327l2.13.283c3.377.448 4.66 1.053 5.249 2.474.59 1.424.07 3.241-1.05 3.671-.466.179-.367.472.428 1.267.842.842 1.035 1.481 1.035 3.435v2.4h-2.118c-1.532 0-2.19-.189-2.38-.684zm5.798.312c0-.685 3.997-11.917 4.45-12.505.248-.323 1.428-.541 2.919-.541 2.335 0 2.53.08 2.937 1.19.239.655 1.325 3.674 2.413 6.71l1.978 5.519H59.81c-2.243 0-2.347-.052-2.621-1.3-.257-1.169-.452-1.298-1.957-1.298-1.92 0-2.198-.267-1.686-1.623.243-.641.727-.974 1.419-.974 1.013 0 1.035-.064.624-1.84-.235-1.011-.53-2.131-.656-2.488-.127-.358-.942 1.59-1.812 4.328l-1.582 4.978-2.045.132c-1.124.073-2.044-.057-2.044-.288zm16.112-6.229.12-6.6h3.896l.119 6.6.12 6.602h-4.374zm4.665 5.52c0-.898.207-1.083 1.216-1.083 2.351 0 2.732-.7 2.59-4.77l-.127-3.67-1.731-.217c-1.5-.188-1.732-.36-1.732-1.299 0-.998.152-1.08 1.948-1.055 2.645.037 4.188.481 5.206 1.5.725.725.854 1.448.854 4.778 0 2.158-.21 4.318-.467 4.798-.651 1.216-2.998 2.1-5.579 2.1-2.035 0-2.178-.072-2.178-1.083zm10.389-5.628v-6.71h4.328v13.42h-4.328zm6.925-.025V86.5l1.84.133 1.84.133.12 6.601.119 6.602h-3.919Zm9.62.133.12-6.6 1.84-.134 1.84-.133v13.468h-3.92zm6.389 6.493c-.005-.06-.03-3.03-.055-6.6l-.047-6.494h4.221l.12 6.601.119 6.602h-2.176c-1.197 0-2.18-.05-2.183-.109zm8.232-2.705V94.34h-1.732c-1.558 0-1.731-.108-1.731-1.082 0-.972.174-1.082 1.71-1.082h1.711l.13-2.705.128-2.706 2.056-.132 2.057-.131v13.466h-4.329zm-17.64-1.49c-1.979-2.807-2.272-3.491-2.272-5.303 0-1.145.073-2.08.162-2.08.09 0 1.172 1.459 2.405 3.243 2.039 2.95 2.23 3.43 2.11 5.302l-.132 2.06zM37.765 67.477a73.588 73.588 0 0 0 3.79-1.739c1.578-.798 1.71-.804 2.222-.104.866 1.184 3.183.826 6.967-1.077 2.914-1.465 6.943-4.193 8.611-5.83.67-.657-5.069.019-7.002.825-.91.38-2.172 1.057-2.804 1.506-.632.45-1.327.816-1.544.816-.218 0-.053-1.314.366-2.921 1.529-5.863.735-9.316-3.858-16.774-4.031-6.545-4-5.775.092 2.2 2.865 5.586 3.481 8.257 2.804 12.146-.55 3.158-2.065 5.541-4.766 7.498-1.886 1.366-5.744 2.973-8.06 3.357-.77.128-1.294.402-1.165.61.39.63 2.12.426 4.347-.513zM22.88 58.652c.235-1.232-1.332-5.968-2.907-8.787-1.35-2.416-1.362-3.628-.061-6.386 1.847-3.918 3.803-5.031 8.648-4.922 5.069.114 7.157-1.117 10.533-6.212 1.06-1.6 2.937-3.715 4.17-4.698 6.051-4.827 8.817-4.923 22.083-.768 10.632 3.33 15.465 4.583 19.936 5.168 4.55.595 5.845.32 7.825-1.661 1.569-1.569 1.385-1.982-.746-1.671-4.468.651-10.106-1.409-14.787-5.404-1.408-1.201-3.843-2.827-5.411-3.613-2.906-1.455-3.204-1.567-6.423-2.398-3.29-.85-2.738-1.54 7.633-9.523 1.694-1.304 3.08-2.522 3.08-2.705 0-.796-1.384-.204-3.522 1.505-3.813 3.049-10.091 7.665-10.438 7.674-.786.023-.186-.9 1.516-2.33l1.84-1.547-14.437.104-14.436.103-3.014 6.71c-1.658 3.69-3.58 8.054-4.272 9.698l-1.257 2.989 4.425-4.504c6.637-6.755 11.11-8.964 21.878-10.805 5.482-.937 7-1.032 7-.439 0 .41-.754.584-9.523 2.204-9.221 1.704-13.276 4.112-21.43 12.73-3.172 3.353-6.078 5.997-7.473 6.8-3.971 2.285-8.351 7.318-8.314 9.554.005.307.845 1.848 1.866 3.424 1.021 1.576 2.624 4.64 3.562 6.81.938 2.17 1.828 3.95 1.98 3.953.15.003.365-.47.476-1.053zm1.16-13.155c.449-.84.199-2.517-.511-3.425-.659-.842-1.53-.642-2.296.526-.657 1.003-.642 1.147.236 2.381 1.065 1.496 1.951 1.674 2.57.518zm77.959-12.564c1.936-1.035 2.743-2.452 4.252-7.46.674-2.239 1.55-4.694 1.946-5.455.752-1.445.99-4.459.354-4.459-.476 0-4.254 8.029-5.067 10.765-.79 2.658-1.917 4.09-4.337 5.509-1.054.618-1.807 1.3-1.674 1.515.41.665 2.94.433 4.526-.415zm-1.714-3.09c.515 0 1.46-1.881 2.601-5.176l.935-2.702-2.505-5.8-2.504-5.8H89.58c-5.077 0-9.23.075-9.23.167 0 .092.29.725.646 1.407 1.265 2.424 1.279 3.949.056 6.196-.625 1.147-1.136 2.481-1.136 2.963 0 2.341 6.794 5.153 13.504 5.589l3.764.244.686 1.714c.495 1.237.872 1.642 1.357 1.456.37-.141.846-.257 1.058-.257zM5.457 112.63c-.003-.179.515-2.03 1.15-4.112l1.157-3.788h3.172l1.159 3.873c.638 2.13 1.16 3.98 1.16 4.112 0 .132-.506.24-1.123.24-.759 0-1.196-.281-1.35-.866-.124-.476-.56-.866-.969-.866-.409 0-.86-.117-1.002-.259-.402-.402.144-1.472.75-1.472.346 0 .468-.394.336-1.083-.202-1.06-.971-1.541-.971-.607 0 .26-.306 1.527-.68 2.813-.582 2.002-.832 2.34-1.732 2.34-.578 0-1.054-.147-1.057-.325zm119.909-3.813v-4.087h2.66l-.14 3.644c-.107 2.79-.018 3.543.378 3.214.743-.62 2.513-.266 2.513.5 0 .5-.626.67-2.706.733l-2.705.083z" style="fill:#000;fill-opacity:1;stroke-width:.432864"/></svg>