<svg xmlns="http://www.w3.org/2000/svg" width="512" height="512" viewBox="0 0 135.467 135.467"><g style="fill:#000;fill-opacity:1"><path d="M405.04 92.84c-3.135-.091-8.053.333-15.185 1.26-11.204 1.455-21.123 5.386-29.257 11.595-3.158 2.41-5.74 3.901-5.74 3.313 0-.588 2.1-4.557 4.667-8.82 4.052-6.73 4.272-7.501 1.666-5.842-1.65 1.05-4.54 5.035-6.423 8.851-1.884 3.817-3.834 6.53-4.334 6.03-1.7-1.7-.908-6.452 1.822-10.93 1.497-2.456 1.999-4.222 1.115-3.928-2.877.96-6.674 9.518-5.941 13.393.809 4.278.461 4.407-4.014 1.474-2.947-1.93-4.016-1.978-8.953-.388-3.084.993-9.206 1.637-13.606 1.43-6.77-.32-9.55.333-18.084 4.24-9.348 4.28-14.582 8.958-14.582 13.035 0 .853-2.02 3.785-4.486 6.515-4.466 4.944-4.487 5.038-5.445 22.362-1.051 19.006-1.193 18.425 7.263 30.12 3.3 4.564 4.8 5.803 5.118 4.233.247-1.221-.42-3.224-1.483-4.453-5.034-5.822-8.967-14.721-8.967-20.285 0-6.208 1.361-5.946 3.715.717.778 2.2 2.639 7.3 4.135 11.334l2.72 7.332.048-6.213c.104-13.475 8.86-31.735 17.847-37.215 4.905-2.99 6.077-3.1 11.114-1.027 3.712 1.528 3.682 1.557-2.913 2.584-5.498.856-7.536 2.011-11.634 6.591-8.752 9.781-11.869 18.015-12.858 33.977-.48 7.747-1.464 14.51-2.19 15.03-1.818 1.3-6.08 9.608-4.923 9.597.516-.005 2.386-2.134 4.156-4.732 2.612-3.835 3.414-7.234 4.25-18.036.834-10.763 1.845-15.077 5.29-22.55 4.109-8.916 9.243-15.645 9.243-12.116 0 1.008 1.35.575 3.516-1.129 2.684-2.11 5.443-2.766 11.666-2.771 4.483-.003 9.93-.081 12.106-.174 3.046-.13 4.98 1.017 8.425 5.002 4.188 4.844 4.377 4.928 3.002 1.313-1.315-3.46-1.247-3.678.653-2.102 2.522 2.093 7.967 11.345 9.302 15.805 1.4 4.679-1.251 2.444-4.017-3.385-2.238-4.716-2.425-4.816-4.317-2.354-1.087 1.415-2.21 1.972-2.496 1.239-3.495-8.98-9.821-12.931-16.603-10.371-2.081.785-4.395.88-5.432.222-3.344-2.119-8.474-1.207-12.094 2.149-1.977 1.833-4.17 3.334-4.873 3.334-.702 0-3.122 2.999-5.379 6.666l-4.101 6.666h3.38c4.38 0 20.601 4.07 20.575 5.162-.011.46-.506 1.602-1.098 2.535-.84 1.323-3.324.902-11.295-1.908-5.62-1.982-10.596-3.222-11.058-2.76-.463.462-1.15 3.57-1.526 6.904l-.683 6.065 6.027-.826c4.562-.626 7.037-.232 10.174 1.62 2.28 1.348 4.146 2.843 4.146 3.325 0 1.379-10.359 2.677-14.023 1.758-1.82-.457-3.31-1.366-3.31-2.02 0-.654-.601-1.187-1.335-1.187-.733 0-1.332 2.018-1.332 4.486s-1.2 6.012-2.668 7.877c-1.466 1.865-2.666 3.83-2.666 4.367 0 .537-1.05 1.782-2.334 2.768-2.198 1.688-2.178 1.839.334 2.607 1.567.48 4.252 4.132 6.508 8.854 4.378 9.163 18.122 23.999 24.998 26.984 2.472 1.073 5.603 1.975 6.96 2.004 7.97.169 22.271-13.266 30.2-28.37 4.804-12.276 4.188-12.617 4.489-15.911-.099-1.65-.58-4.499-1.07-6.332-.638-2.385-.138-1.979 1.755 1.427 1.456 2.62 3.679 5.619 4.942 6.666 2.115 1.755 2.107 1.537-.096-2.761-1.316-2.567-3.013-5.066-3.771-5.555-.76-.489-1.81-7.433-2.338-15.432-.783-11.853-1.613-15.828-4.483-21.492-5.427-10.71-12.067-17.307-19.238-19.113-6.028-1.518-6.064-1.56-2.42-2.775 11.287-3.763 25.824 15.04 27.271 35.275.36 5.037 1.174 9.48 1.807 9.871.634.392 1.152-.12 1.152-1.135 0-1.015 1.547-3.297 3.436-5.072 2.7-2.536 3.268-4.06 2.656-7.117-.532-2.66-.058-4.686 1.502-6.41 3.041-3.36 2.278-20.31-1.105-24.54-.658-.822-.712-2.802-.121-4.4 1.059-2.863 1.16-2.839 7.058 1.664 6.04 4.612 10.612 10.458 15.819 20.23 1.485 2.788 2.815 8.301 2.802 7.659-.022-1.033-.837-7.842-4.968-15.445-1.785-3.55-5.695-9.11-8.69-12.36-2.995-3.249-5.204-6.147-4.91-6.441.915-.915 18.817 8.597 24.195 12.857 2.814 2.229 5.405 3.766 5.756 3.414 1.588-1.588-17.553-15.02-26.096-18.312-7.49-2.887-8.107-4.495-1.334-3.48 3.3.493 10.767 2.955 16.592 5.468 5.825 2.514 10.849 4.312 11.164 3.996 1.824-1.824-2.026-4.746-10.636-8.072-7.622-2.944-12.219-3.822-20.788-3.973-11.387-.2-14.213-1.801-6.671-3.783 6.384-1.678 20.548-.263 29.58 2.955 8.42 3 9.244 2.999 8.084-.025-1.874-4.884-29.661-8.182-39.807-4.725-3.375 1.15-6.456 1.571-6.848.938-.933-1.511-.038-1.985 8.573-4.53 9.102-2.69 24.671-2.758 32.091-.14 6.897 2.433 6.666 2.43 6.666.12 0-4.044-24.403-5.81-38.666-2.796-2.413.51-2.045.085 1.334-1.54 5.055-2.429 26.701-3.307 33.797-1.37 2.845.776 3.654.603 3.227-.69-.314-.949-4.118-2.264-8.455-2.924-10.758-1.636-27.74.766-37.26 5.27-4.114 1.946-7.761 3.255-8.105 2.91-1.096-1.096 8.75-8.948 14.544-11.6 9.09-4.158 16.913-5.699 28.584-5.628 8.687.052 11-.335 11-1.842 0-1.133-1.35-1.741-4.484-1.832zm-65.83 17.63c1.48.048 2.65.781 4.817 2.384 2.29 1.692 4.164 3.473 4.164 3.957 0 1.377-7.863 1.252-8.722-.14-.423-.683.167-1.243 1.31-1.243 1.144 0 2.078-.599 2.078-1.332 0-2.827-2.808-1.114-6.476 3.949-2.105 2.906-5.164 9.055-6.797 13.666-5.16 14.575-4.795 13.869-5.803 11.242-.486-1.266-2.608-3.027-4.717-3.914l-3.835-1.613 2.638-6.942c3.517-9.254 10.173-16.806 16.719-18.966 2.139-.706 3.475-1.084 4.625-1.047zm27.575 2.106a.76.76 0 0 1 .307.006c.183.06.112.266-.346.666-.305.268-2.055 1.201-3.889 2.074-3.143 1.497-3.186 1.47-.746-.486 1.394-1.117 3.742-2.14 4.674-2.26zm-45.287.192c2.359.05 4.025.47 4.025 1.328 0 .733-.45 1.334-1 1.336-1.512.004-7.694 10.526-10.283 17.504-2.105 5.675-7.726 10.594-9.77 8.55-.389-.39.024-3.972.917-7.963 1.27-5.672 2.771-8.291 6.884-12.007 2.894-2.614 6.259-4.754 7.479-4.754 1.22 0 1.863-.356 1.43-.79-1.374-1.373-6.34.887-11.063 5.034-4.63 4.066-8.594 13.784-8.594 21.076 0 1.927-.835 4.647-1.857 6.045-1.738 2.376-1.954 2.198-3.326-2.746-2.003-7.214-1.854-11.816.568-17.613 2.647-6.334 5.452-9.362 11.563-12.48 3.245-1.657 9.096-2.603 13.027-2.52zm-21.154 4.66-3.395 6c-3.679 6.504-4.489 15.64-2.12 23.896.716 2.5.95 5.946.52 7.658-.43 1.713-1.257 3.114-1.837 3.114-2.083 0-4.32-13.755-3.631-22.326.626-7.803 1.193-9.173 5.58-13.512zm40.129 1.758c.887-.026 1.949.007 3.234.085 3.54.218 7.903 1.165 9.695 2.104l3.258 1.707-2.994 1.604c-1.647.88-6.258 4.558-10.248 8.171-3.99 3.614-7.87 6.57-8.621 6.57-2.438 0 1.049-4.823 7.71-10.667 3.493-3.064 4.87-4.826 3.061-3.916-1.808.91-6.457 4.824-10.332 8.699-3.875 3.875-7.045 6.898-7.045 6.719 0-.825 6.467-16.714 7.698-18.914.828-1.481 1.92-2.086 4.584-2.162zm15.744 5.576c.589 0 2.584 1.8 4.435 4 1.852 2.2 4.27 4 5.373 4 5.79 0 3.676 7.388-3.718 13-3.141 2.383-5.952 4.3-6.246 4.26-.809-.112-6.538-7.56-6.538-8.5 0-.45 2.819-2.606 6.262-4.79 3.444-2.183 5.661-3.97 4.928-3.97-.733 0-4.103 1.755-7.488 3.902-5.686 3.606-11.702 4.325-11.702 1.399 0-1.32 13.236-13.301 14.694-13.301zm-69.45 10 .045 6.043c.025 3.323 1.012 9.324 2.196 13.334 1.183 4.01 2.129 9.213 2.1 11.564-.03 2.351-.62 5.29-1.315 6.531-1.91 3.415-7.223-11.394-7.95-22.16-.495-7.355-.162-9.196 2.17-12zm82.96 8.181a.28.28 0 0 1 .13.037c.55.333 1 2.553 1 4.932 0 3.144-1.201 5.492-4.396 8.588-2.418 2.344-4.687 4.262-5.041 4.262-.354 0-1.375-1.934-2.268-4.3-1.572-4.165-1.447-4.45 4.041-9.192 2.92-2.524 5.74-4.38 6.534-4.327zm2.484 12.207a.633.633 0 0 1 .387.17c.59.58.708 2.492.26 4.248-.449 1.756-2.543 5.293-4.653 7.86-4.017 4.888-3.795 4.964-5.978-2.014-.7-2.238 7.628-10.526 9.984-10.264zm-14.822 16.204c.278-.03.602.096.941.435.443.443.553 1.564.244 2.49-.451 1.355-.767 1.354-1.607-.006-.834-1.35-.413-2.833.422-2.92zm9.818.226c1.4.124 1.87 2.035.719 4.563-.824 1.807-2 3.285-2.615 3.285-1.582 0-1.399-6.337.212-7.332.647-.4 1.218-.557 1.684-.516zm-15.223.016c1.156-.051 2.873 1.3 2.873 2.578 0 .69-.565 1.254-1.255 1.254-1.574 0-3.256-2.6-2.301-3.555.179-.179.417-.266.683-.277zm-5.916.572c.501-.016.89.035 1.123.17 2.486 1.444.57 4.142-4 5.633-2.75.897-5.638 1.904-6.418 2.238-1.738.746-3.25-.633-3.25-2.963 0-1.531 9.039-4.967 12.545-5.078zm-18.668 2.508c.376-.02.741.054 1.06.252.586.361 1.063 1.523 1.063 2.58 0 2.262-3.434 2.578-4.757.437-.817-1.321 1.007-3.183 2.634-3.27zm-23.095 7.412c2.621-.01 6.074.964 8.072 2.629 3.785 3.153 3.14 3.324-2.012.533-2.103-1.14-5.234-1.802-6.959-1.473-1.724.33-2.817.087-2.43-.54.483-.78 1.756-1.143 3.329-1.15zm45.095.115c2.092-.124 3.99.274 5.457 1.21 1.385.882.525 1.036-2.793.503-3.147-.505-6.238-.022-9 1.406-2.313 1.197-4.207 1.875-4.207 1.508s1.77-1.582 3.934-2.701c2.235-1.156 4.518-1.801 6.61-1.926zm17.574 2.231c0-1.233-1.85 1.613-2.375 5.442-.439 3.196-.562 7.157-.034 8.728.334.992 1.178 2.77 1.178 2.77 1.62-1.209.39-4.641 3.723-6.797 1.887-1.886 2.658-7.937-1.926-10.107-.202-.039-.567.14-.567-.035zm-82.72 1.336c0-.125-.245-.017-.36.01-.265.06-.508.243-.715.57-1.688 2.661-1.373 5.873 1.142 11.68 2.542 5.867 4.322 4.92 4.356-2.315.02-4.428-4.424-8.073-4.424-9.945zm65.121.402c.372-.005.739.003 1.098.023 1.722.1 3.264.497 4.384 1.205 1.778 1.125 1.778 1.482 0 3.225-2.782 2.728-7.88 3.515-13 2.006-2.383-.703-4.334-1.546-4.334-1.873 0-.327 1.77-1.51 3.934-2.63 2.426-1.253 5.312-1.92 7.918-1.956zm-14.139 20.23c.386-.003 1.2.3 2.577 1.008 2.996 1.642 3.192 7.61-4.553 7.322-2.267 2.066-4.162 3.262-5.715 3.66-2.595.118-5.148-2.976-7.723-4.464-1.9-.507-1.066-.903-.045-1.293 4.207-.36 4.776 5.293 12.41.625 5.086-.1 6.192-2.521 4.063-4.733-1.11-1.263-1.657-2.12-1.014-2.125zm-20.353 10.276c.89-.001 1.611.706 1.611 1.578 0 .872-.722 1.579-1.611 1.578-.889 0-1.61-.707-1.61-1.578 0-.872.721-1.578 1.61-1.578zm11.863 7.58c4.713-.065 9.465.362 12.111 1.31 3.077 1.103 3.758 1.712 2 1.787-2.178.094-2.305.342-.699 1.358 1.532.969.647 1.843-4 3.951-3.282 1.489-7.168 2.688-8.635 2.666-4.34-.064-12.666-4.038-12.666-6.045 0-1.021-.749-1.895-1.666-1.941-.916-.047-.167-.696 1.666-1.444 2.5-1.02 7.176-1.577 11.89-1.642z" style="fill:#000;fill-opacity:1;stroke-width:1.33333" transform="matrix(.82126 0 0 .82127 -194.536 -73.061)"/><path d="M96.501 55.358c.057.48-.043.804-.518.752.02-.441-.018-.955.518-.752z" style="fill:#000;fill-opacity:1;stroke:none;stroke-width:.264583px;stroke-linecap:butt;stroke-linejoin:miter;stroke-opacity:1" transform="matrix(3.104 0 0 3.104 -194.536 -73.061)"/></g></svg>