<svg xmlns="http://www.w3.org/2000/svg" width="512" height="324.957" viewBox="0 0 135.467 85.978"><path d="M68.136 56.007h44.718c3.524-.052 3.9-.088 3.965-3.496v-22.61h7.761v22.61c.04 9.108-3.546 11.257-11.726 11.257H68.136Z" style="fill:#000;fill-opacity:1;stroke-width:.35277799" transform="matrix(1.05476 0 0 1.05476 -6.924 -17.945)"/><path d="M68.136 75.763v-3.88h59.266v7.76H68.136Z" style="fill:#000;fill-opacity:1;stroke-width:.352778" transform="matrix(1.05476 0 0 1.05476 -6.924 -17.945)"/><path d="M53.672 20.024h12.347v59.62H53.672ZM33.21 40.485h12.348v39.158H33.21Z" style="fill:#ac1c1b;fill-opacity:1;stroke-width:.35277799" transform="matrix(1.05476 0 0 1.05476 -6.924 -17.945)"/><path d="M9.574 39.36c.038-13.367 6.279-19.274 20.145-19.336h15.839V32.37H29.719c-5.69-.023-7.736 1.014-7.797 6.989v40.283H9.574Z" style="fill:#ac1c1b;fill-opacity:1;stroke-width:.35277799" transform="matrix(1.05476 0 0 1.05476 -6.924 -17.945)"/><path d="M103.413 82.112h10.584V83.7h-7.442v4.41h5.678v1.587h-5.678v4.41h7.442v1.411h-10.584zM97.063 82.113h3.352v13.405h-3.352z" style="fill:#fff;fill-opacity:1;stroke-width:.35277799" transform="matrix(1.05476 0 0 1.05476 -6.924 -17.945)"/><path d="M313.52 310.348v50.666h12V339.68h7.066c3.887 0 7.788.721 8.668 1.601.93.931 1.6 5.392 1.6 10.666v9.067h12v-9.465c0-8.87-.26-9.71-4.141-13.334-2.278-2.128-3.52-3.867-2.762-3.867 6.194 0 7.873-15.152 2.297-20.729-3.127-3.127-4.018-3.271-20-3.271zm12 5.332h6.572c9.536 0 14.04 5.567 10.5 12.978-1.58 3.31-2.548 3.73-9.416 4.088l-7.656.4v-8.732z" style="fill:#fff;fill-opacity:1;stroke-width:1.33333" transform="translate(-6.924 -17.945) scale(.27907)"/><path d="M73.604 83.7h-3.705v-1.587h10.378V83.7H76.78c-.065 3.94.064 7.879 0 11.818h-3.175zM56.847 94.107h3.15c3.571 0 4.258-.362 4.258-2.248 0-1.563-.549-1.982-2.628-2.005-3.205-.29-5.141-.342-5.165-4.248-.012-2.548 1.356-3.493 6.096-3.493h3.924v1.41h-2.678c-3.383 0-4.488.513-4.488 2.083 0 1.59.956 2.151 3.66 2.151 2.034 0 2.49.12 3.221.852 1.586 1.586 1.59 4.277.007 5.984-.833.9-.974.925-5.107.925h-4.25z" style="fill:#fff;fill-opacity:1;stroke-width:.352778" transform="matrix(1.05476 0 0 1.05476 -6.924 -17.945)"/><path d="M116.999 94.107h3.15c3.571 0 4.258-.362 4.258-2.248 0-1.563-.549-1.982-2.628-2.005-3.205-.29-5.141-.342-5.165-4.248-.012-2.548 1.356-3.494 6.096-3.494h3.924v1.412h-2.677c-3.384 0-4.489.512-4.489 2.082 0 1.59.956 2.151 3.66 2.151 2.035 0 2.49.12 3.221.852 1.586 1.586 1.59 4.277.007 5.984-.833.9-.974.925-5.107.925h-4.25z" style="fill:#fff;fill-opacity:1;stroke-width:.35277799" transform="matrix(1.05476 0 0 1.05476 -6.924 -17.945)"/><path d="M44.58 95.282c-1.169-.47-1.492-2.132-1.492-7.684v-5.485h2.823v5.213c0 6.233.213 6.781 2.645 6.781s2.646-.548 2.646-6.781v-5.213h2.822v5.837c0 5.726-.016 5.853-.865 6.702-.812.812-1.094.864-4.498.838-1.998-.015-3.834-.109-4.08-.208z" style="fill:#fff;fill-opacity:1;stroke-width:.352778" transform="matrix(1.05476 0 0 1.05476 -6.924 -17.945)"/><path d="M113.52 310.348v50.666h16.728c15.982 0 16.873-.147 20-3.274 3.165-3.165 3.272-3.89 3.272-22.06 0-18.17-.107-18.896-3.272-22.06-3.127-3.128-4.018-3.272-20-3.272zm12 5.332h5.703c3.136 0 7.038.934 8.668 2.076 2.779 1.947 2.963 3.058 2.963 17.904 0 12.613-.427 16.256-2.096 17.926-1.338 1.338-4.47 2.094-8.666 2.094h-6.572v-20z" style="fill:#fff;fill-opacity:1;stroke-width:1.33333" transform="translate(-6.924 -17.945) scale(.27907)"/><path d="M16.63 82.113h3.17l5.12 10.054c.066-3.352-.065-6.703 0-10.054h2.646v13.405c-1.236-.14-2.466-.046-3.704 0l-4.722-8.82v8.82h-2.51V82.113zM9.927 82.113h3.528v13.405H9.927z" style="fill:#fff;fill-opacity:1;stroke-width:.352778" transform="matrix(1.05476 0 0 1.05476 -6.924 -17.945)"/><rect width="7.146" height="13.028" x="41.808" y="3.165" ry="2.236" style="fill:#ac1c1b;fill-opacity:1;stroke:none;stroke-width:.13229166;stroke-miterlimit:4;stroke-dasharray:none;stroke-opacity:1"/><rect width="7.146" height="13.028" x="-24.012" y="28.105" ry="2.236" style="fill:#ac1c1b;fill-opacity:1;stroke:none;stroke-width:.13229166;stroke-miterlimit:4;stroke-dasharray:none;stroke-opacity:1" transform="rotate(-90)"/><rect width="7.146" height="13.028" x="-57.204" y="64.943" ry="2.236" style="fill:#000;fill-opacity:1;stroke:none;stroke-width:.13229166;stroke-miterlimit:4;stroke-dasharray:none;stroke-opacity:1" transform="rotate(-90)"/><rect width="7.146" height="13.028" x="-40.364" y="83.224" ry="2.236" style="fill:#000;fill-opacity:1;stroke:none;stroke-width:.13229166;stroke-miterlimit:4;stroke-dasharray:none;stroke-opacity:1" transform="rotate(-90)"/><rect width="7.146" height="13.028" x="125.215" y="13.577" ry="2.236" style="fill:#000;fill-opacity:1;stroke:none;stroke-width:.13229166;stroke-miterlimit:4;stroke-dasharray:none;stroke-opacity:1"/><path d="M301.418 11.848c-30.662 0-55.348 24.683-55.348 55.345s24.686 55.346 55.348 55.346h73.795c30.662 0 55.346-24.684 55.346-55.346 0-30.662-24.684-55.345-55.346-55.345h-73.795zM289.621 36.14h98.166c7.5 0 13.541 6.04 13.541 13.54V85.54c0 7.5-6.04 13.54-13.54 13.54H289.62a13.51 13.51 0 0 1-13.539-13.54V49.682a13.51 13.51 0 0 1 13.54-13.541z" style="fill:#000;fill-opacity:1;stroke:none;stroke-width:.76195931;stroke-miterlimit:4;stroke-dasharray:none;stroke-opacity:1" transform="scale(.26458)"/></svg>