<svg xmlns="http://www.w3.org/2000/svg" width="512" height="512" viewBox="0 0 135.467 135.467"><path d="M85 1.446s.398 25.762.318 36.164a70.841 70.841 0 0 0-7.994 3.004L49.157 16.445 66.71 46.534a62.363 62.363 0 0 0-9.66 8.175L16.43 44.106l33.693 19.278a63.296 63.296 0 0 0-6.243 12.146l-41.67-1.231 38.046 14.312c-.86 4.863-1.294 10.026-1.23 15.492 10.342 1.445 19.012 1.474 26.316.361l6.216 29.832 6.747-33.553a38.6 38.6 0 0 0 6.996-4.084l21.32 19.132-13.203-27.335c2.812-3.815 5.009-8.118 6.764-12.75l31.178 4.242-28.132-14.066c.496-1.982.945-3.997 1.357-6.034 6.38-1.324 28.918-9.118 28.918-9.118s-20.239-.28-27.278-.13c.342-2.161.667-4.33.98-6.494l12.273-9.156a86.613 86.613 0 0 0-10.683-.72 81.36 81.36 0 0 0-12.787.951zm15.583 39.349C98.6 74.01 96.336 105.188 49.936 99.039c.58-3.676 1.296-7.22 2.152-10.626a27.661 27.661 0 0 0 12.458 3.029A27.661 27.661 0 0 0 92.207 63.78a27.661 27.661 0 0 0-7.014-18.372c4.597-2.015 9.704-3.573 15.39-4.614zm-15.74 4.764zm-2.596 1.23a24.544 24.544 0 0 1 6.844 16.992 24.544 24.544 0 0 1-24.545 24.543 24.544 24.544 0 0 1-11.64-2.98 86.172 86.172 0 0 1 2.959-8.646 15.584 15.584 0 0 0 8.681 2.667A15.584 15.584 0 0 0 80.13 63.78a15.584 15.584 0 0 0-5.76-12.095 53.282 53.282 0 0 1 7.877-4.898zm-8.186 5.124zm-2.209 1.77a12.467 12.467 0 0 1 5.16 10.098 12.467 12.467 0 0 1-12.466 12.466 12.467 12.467 0 0 1-7.431-2.469c3.599-7.921 8.41-14.7 14.737-20.094ZM56.448 75.275c-.069.161-.134.325-.202.487.068-.162.133-.326.202-.487zM52.84 85.59z" class="invertable" style="display:inline;fill-opacity:1;stroke:none;stroke-width:.605983px;stroke-linecap:butt;stroke-linejoin:miter;stroke-opacity:1"/></svg>