<svg xmlns="http://www.w3.org/2000/svg" xmlns:xlink="http://www.w3.org/1999/xlink" width="444.941" height="512" viewBox="0 0 117.724 135.467"><defs><linearGradient id="b"><stop offset="0" style="stop-color:#000;stop-opacity:1"/><stop offset="1" style="stop-color:#000;stop-opacity:0"/></linearGradient><linearGradient id="c"><stop offset="0" style="stop-color:#000;stop-opacity:1"/><stop offset="1" style="stop-color:#000;stop-opacity:0"/></linearGradient><linearGradient id="a"><stop offset="0" style="stop-color:#000;stop-opacity:1"/><stop offset="1" style="stop-color:#000;stop-opacity:.06293706"/></linearGradient><linearGradient xlink:href="#a" id="e" x1="114.337" x2="114.747" y1="157.89" y2="149.878" gradientUnits="userSpaceOnUse"/><linearGradient xlink:href="#b" id="f" x1="133.019" x2="114.337" y1="114.451" y2="156.657" gradientUnits="userSpaceOnUse"/><linearGradient xlink:href="#c" id="d" x1="95.55" x2="114.337" y1="114.457" y2="157.89" gradientUnits="userSpaceOnUse"/></defs><path d="m96.438 114.511 17.837 41.312 17.774-41.312h-2.139l-15.635 28.043-15.662-28.043Z" style="fill:#000;fill-opacity:1;stroke:none;stroke-width:.264583px;stroke-linecap:butt;stroke-linejoin:miter;stroke-opacity:1" transform="matrix(2.9724 0 0 2.97394 -280.654 -337.374)"/><path d="m109.09 123.955 5.185 12.037 5.185-12.037-5.185 4.786z" style="fill:#000;fill-opacity:1;stroke:none;stroke-width:.264583px;stroke-linecap:butt;stroke-linejoin:miter;stroke-opacity:1" transform="matrix(2.9724 0 0 2.97394 -280.654 -337.374)"/><path d="m109.09 121.236 5.185 5.547 5.185-5.547h-1.56l-3.625 3.662-3.625-3.662z" style="fill:#000;fill-opacity:1;stroke:none;stroke-width:.264583px;stroke-linecap:butt;stroke-linejoin:miter;stroke-opacity:1" transform="matrix(2.9724 0 0 2.97394 -280.654 -337.374)"/><path d="m95.55 114.474 14.375 33.446-13.614-33.446Z" style="fill:url(#d);fill-opacity:1;stroke:none;stroke-width:.264583px;stroke-linecap:butt;stroke-linejoin:miter;stroke-opacity:1" transform="matrix(2.9724 0 0 2.97394 -280.837 -337.264)"/><path d="m109.925 147.92 4.411 9.97 4.58-10.659-4.58 9.426z" style="fill:url(#e);fill-opacity:1;stroke:none;stroke-width:.264583px;stroke-linecap:butt;stroke-linejoin:miter;stroke-opacity:1" transform="matrix(2.9724 0 0 2.97394 -280.837 -337.264)"/><path d="m133.02 114.474-14.104 32.757 13.342-32.757z" style="fill:url(#f);fill-opacity:1;stroke:none;stroke-width:.264583px;stroke-linecap:butt;stroke-linejoin:miter;stroke-opacity:1" transform="matrix(2.9724 0 0 2.97394 -280.837 -337.264)"/></svg>